<?xml version="1.0" encoding="utf-8"?>
<!-- Generator: Adobe Illustrator 24.1.3, SVG Export Plug-In . SVG Version: 6.00 Build 0)  -->
<svg version="1.1" id="Layer_1" xmlns="http://www.w3.org/2000/svg" xmlns:xlink="http://www.w3.org/1999/xlink" x="0px" y="0px"
	 viewBox="0 0 96 80" style="enable-background:new 0 0 96 80;" xml:space="preserve">
<style type="text/css">
	.st0{fill:#222222;}
	.st1{fill:#FFF200;}
	.st2{fill:#ADADAD;}
	.st3{fill:#FFFFFF;}
	.st4{fill:none;stroke:#FFFFFF;stroke-width:3;stroke-linecap:round;stroke-miterlimit:10;}
	.st5{fill:none;stroke:#222222;stroke-width:3;stroke-linecap:round;stroke-miterlimit:10;}
</style>
<g>
	<g>
		<path class="st0" d="M55.9,76.8c-8.7,0.1-16.4-2.7-23.2-8.1c-3-2.4-3.5-4.8-1.6-6.9c1.7-2,4.1-1.9,6.9,0.3
			c9.5,7.3,19.9,8.7,30.7,3.4c10.6-5.3,16-14.3,15.7-26.2C84,27.9,78.5,19.5,68.4,14.6c-10.3-5-20.6-4-29.6,3.1
			c-3.5,2.7-6.5,2.5-7.9,0.6c-1.8-2.4-1-4.7,2.7-7.5C46,1.3,63,0.6,76.2,9.2c12.8,8.3,19.4,24.3,15.9,39
			c-3.7,15.5-16.4,26.9-32,28.6C58.7,76.9,57.3,76.8,55.9,76.8z"/>
		<path class="st0" d="M18.6,35.8c4.9,0,9.8,0,14.7,0c7.3,0,14.5,0,21.8,0c3.1,0,4.9,1.5,5,4.1c0.1,2.7-1.6,4.4-4.9,4.4
			c-11.3,0-22.6,0-33.9,0c-1,0-1.9,0-2.9,0c-0.2,0.3-0.4,0.6-0.6,0.9c1.7,1.5,3.5,2.9,5.1,4.5c2.1,2.1,2.2,4.7,0.4,6.4
			c-1.8,1.8-4.2,1.7-6.4-0.4c-4.1-4-8.2-8.1-12.2-12.2c-2.3-2.3-2.3-4.4-0.1-6.6c4.1-4.2,8.2-8.3,12.4-12.4c2-2,4.5-2.1,6.2-0.5
			c1.8,1.7,1.8,4.3-0.2,6.4c-0.7,0.8-1.5,1.6-2.4,2.4c-0.8,0.7-1.8,1.3-2.7,2C18.2,35.1,18.4,35.4,18.6,35.8z"/>
	</g>
</g>
</svg>
