<?xml version="1.0" encoding="utf-8"?>
<!-- Generator: Adobe Illustrator 24.1.3, SVG Export Plug-In . SVG Version: 6.00 Build 0)  -->
<svg version="1.1" id="Layer_1" xmlns="http://www.w3.org/2000/svg" xmlns:xlink="http://www.w3.org/1999/xlink" x="0px" y="0px"
	 viewBox="0 0 86 64" style="enable-background:new 0 0 86 64;" xml:space="preserve">
<style type="text/css">
	.st0{fill:#ADADAD;}
	.st1{fill:#222222;}
	.st2{fill:#FFFFFF;}
	.st3{opacity:0.4;}
	.st4{fill:#EFEFEF;}
	.st5{opacity:0.1;fill:#ADADAD;}
	.st6{opacity:0.1;fill:none;stroke:#202223;stroke-miterlimit:10;}
	.st7{fill:none;stroke:#202223;stroke-miterlimit:10;}
	.st8{fill:none;stroke:#000000;stroke-miterlimit:10;}
	.st9{fill:#FFF200;}
	.st10{fill:#202223;}
	.st11{fill:#616569;}
</style>
<g>
	<g>
		<path class="st11" d="M4,12.4c0.4-1,0.7-2.2,1.3-3.1c1.4-2.1,3.5-2.8,6-2.8c14.6,0,29.2,0,43.9,0c6.5,0,13,0,19.6,0
			c1.6,0,3.2,0.3,4.5,1.4C81.1,9.2,82,11,82,13.3c0,12.5,0,24.9,0,37.4c0,4.1-3,6.9-7.2,6.9c-11.8,0-23.6,0-35.3,0
			c-9.4,0-18.7,0-28.1,0c-1.8,0-3.4-0.4-4.8-1.5c-1.3-1.1-2.1-2.4-2.4-4.1c0-0.1-0.1-0.2-0.1-0.3C4,38.6,4,25.5,4,12.4z M80,22.3
			c-24.7,0-49.3,0-74,0c0,0.3,0,0.6,0,0.9c0,9.1,0,18.1,0,27.2c0,3.3,2,5.3,5.2,5.3c21.2,0,42.3,0,63.5,0c0.6,0,1.2,0,1.7-0.2
			c2.2-0.6,3.5-2.4,3.5-4.8c0-9.2,0-18.5,0-27.7C80,22.7,80,22.5,80,22.3z M6,17.3c24.7,0,49.3,0,74,0c0-1.5,0-3,0-4.5
			c0-0.6-0.2-1.3-0.5-1.8c-1-1.9-2.7-2.7-4.8-2.7c-21.1,0-42.3,0-63.4,0c-0.2,0-0.3,0-0.5,0C8.1,8.6,6.2,10.3,6,12.8
			C5.9,14.3,6,15.8,6,17.3z"/>
		<path class="st11" d="M21.9,45.6c-1.8,0-3.7,0-5.5,0c-2.5,0-4.1-1.6-4.1-4.1c0-1.4,0-2.8,0-4.2c0.1-2.4,1.6-4,4-4
			c3.7,0,7.5,0,11.2,0c2.4,0,4,1.6,4.1,4.1c0,1.4,0,2.7,0,4.1c0,2.5-1.6,4.1-4.1,4.1C25.6,45.6,23.7,45.6,21.9,45.6z M21.9,43.6
			c1.9,0,3.7,0,5.6,0c1.3,0,2.1-0.8,2.1-2.1c0-1.4,0-2.7,0-4.1c0-1.3-0.8-2.1-2.2-2.1c-3.7,0-7.4,0-11,0c-1.3,0-2.1,0.8-2.1,2.1
			c0,1.4,0,2.7,0,4.1c0,1.3,0.8,2.1,2.2,2.1C18.2,43.6,20,43.6,21.9,43.6z"/>
		<path class="st11" d="M56.8,35.2c-5.2,0-10.3,0-15.5,0c-0.3,0-0.6,0.1-0.7,0c-0.3-0.2-0.7-0.5-0.8-0.8c-0.2-0.5,0.1-0.9,0.7-1
			c0.3-0.1,0.5-0.1,0.8-0.1c10.4,0,20.8,0,31.1,0c0.3,0,0.7,0,0.9,0.1c0.3,0.2,0.6,0.7,0.6,1c0,0.3-0.5,0.6-0.8,0.8
			c-0.2,0.1-0.5,0-0.7,0C67.2,35.2,62,35.2,56.8,35.2z"/>
		<path class="st11" d="M48.5,43c-2.5,0-4.9,0-7.4,0c-0.9,0-1.3-0.3-1.3-1c0-0.6,0.5-1,1.3-1c4.9,0,9.8,0,14.7,0
			c0.9,0,1.3,0.3,1.3,1c0,0.6-0.4,1-1.3,1C53.4,43,50.9,43,48.5,43z"/>
	</g>
</g>
</svg>
