<?xml version="1.0" encoding="utf-8"?>
<!-- Generator: Adobe Illustrator 24.1.3, SVG Export Plug-In . SVG Version: 6.00 Build 0)  -->
<svg version="1.1" id="Layer_1" xmlns="http://www.w3.org/2000/svg" xmlns:xlink="http://www.w3.org/1999/xlink" x="0px" y="0px"
	 viewBox="0 0 146 149.7" style="enable-background:new 0 0 146 149.7;" xml:space="preserve">
<style type="text/css">
	.st0{fill:#222222;}
</style>
<path class="st0" d="M90.2,102.1C60.5,118,33.2,113.8,16.5,91.2C1,70.2,3.1,41.4,21.6,23.1C40.2,4.8,68.9,2.9,89.9,18.6
	c17.6,13.2,30.1,42,10.5,73c11,10.9,22.2,22,33.3,33c6.9,6.9,7.9,11,3.7,14.9c-4,3.7-7.7,2.7-14.4-4
	C111.9,124.3,100.9,113.1,90.2,102.1z M58.2,21.1c-21.9,0.1-39,17.3-39,39.1c0,21.6,17.6,39.2,39.2,39.2
	C79.9,99.3,97.5,81.6,97.5,60C97.5,38.4,79.9,21,58.2,21.1z"/>
</svg>
