<?xml version="1.0" encoding="utf-8"?>
<!-- Generator: Adobe Illustrator 24.1.3, SVG Export Plug-In . SVG Version: 6.00 Build 0)  -->
<svg version="1.1" id="Layer_1" xmlns="http://www.w3.org/2000/svg" xmlns:xlink="http://www.w3.org/1999/xlink" x="0px" y="0px"
	 viewBox="0 0 400 400" style="enable-background:new 0 0 400 400;" xml:space="preserve">
<style type="text/css">
	.st0{fill:#FFFFFF;}
	.st1{fill:#EFEFEF;}
	.st2{display:none;}
	.st3{display:inline;fill:#222222;}
	.st4{fill:#222222;}
</style>
<circle class="st0" cx="200" cy="200" r="152.5"/>
<path class="st1" d="M170,226.2c-0.1-1-0.8-1.7-1.8-1.9s-1.9,0.2-2.4,1.1c-0.3,0.5-0.4,1.2-0.5,1.8c0,0,0.1,0,0.2,0.1v0.8
	c0,1.2,1,2.2,2.2,2.2c1.1,0.1,2.2-0.8,2.3-2C170.1,227.6,170.1,226.9,170,226.2z M170,226.2c-0.1-1-0.8-1.7-1.8-1.9
	s-1.9,0.2-2.4,1.1c-0.3,0.5-0.4,1.2-0.5,1.8c0,0,0.1,0,0.2,0.1v0.8c0,1.2,1,2.2,2.2,2.2c1.1,0.1,2.2-0.8,2.3-2
	C170.1,227.6,170.1,226.9,170,226.2z M170,226.2c-0.1-1-0.8-1.7-1.8-1.9s-1.9,0.2-2.4,1.1c-0.3,0.5-0.4,1.2-0.5,1.8
	c0,0,0.1,0,0.2,0.1v0.8c0,1.2,1,2.2,2.2,2.2c1.1,0.1,2.2-0.8,2.3-2C170.1,227.6,170.1,226.9,170,226.2z M170,226.2
	c-0.1-1-0.8-1.7-1.8-1.9s-1.9,0.2-2.4,1.1c-0.3,0.5-0.4,1.2-0.5,1.8c0,0,0.1,0,0.2,0.1v0.8c0,1.2,1,2.2,2.2,2.2
	c1.1,0.1,2.2-0.8,2.3-2C170.1,227.6,170.1,226.9,170,226.2z M170,226.2c-0.1-1-0.8-1.7-1.8-1.9s-1.9,0.2-2.4,1.1
	c-0.3,0.5-0.4,1.2-0.5,1.8c0,0,0.1,0,0.2,0.1v0.8c0,1.2,1,2.2,2.2,2.2c1.1,0.1,2.2-0.8,2.3-2C170.1,227.6,170.1,226.9,170,226.2z
	 M170,226.2c-0.1-1-0.8-1.7-1.8-1.9s-1.9,0.2-2.4,1.1c-0.3,0.5-0.4,1.2-0.5,1.8c0,0,0.1,0,0.2,0.1v0.8c0,1.2,1,2.2,2.2,2.2
	c1.1,0.1,2.2-0.8,2.3-2C170.1,227.6,170.1,226.9,170,226.2z M170,226.2c-0.1-1-0.8-1.7-1.8-1.9s-1.9,0.2-2.4,1.1
	c-0.3,0.5-0.4,1.2-0.5,1.8c0,0,0.1,0,0.2,0.1v0.8c0,1.2,1,2.2,2.2,2.2c1.1,0.1,2.2-0.8,2.3-2C170.1,227.6,170.1,226.9,170,226.2z
	 M176.6,150.2c-2.4-5.4-8.8-6.8-13.3-2.9c-4.5,3.9-9.1,7.8-13.7,11.8c-0.7,0.6-1,0.6-1.6-0.1c-2.3-2.6-5.2-3.5-8.5-2.6
	c-5.9,1.7-7.9,8.8-3.9,13.5c2,2.2,3.9,4.5,5.8,6.7c3.3,3.8,8.2,4.3,12.1,1c7-6,14-11.9,20.9-17.9c2-1.7,3-3.8,3.2-6.4
	C177.3,152.3,177.2,151.1,176.6,150.2z M171.6,156.2c-1.8,1.6-3.7,3.2-5.6,4.8c-5,4.3-10.1,8.6-15.1,12.9c-2.1,1.7-4.2,1.6-6-0.5
	c-1.9-2.1-3.8-4.3-5.6-6.5c-1.8-2.1-1.1-5,1.4-6c0.4-0.2,0.8-0.2,1.2-0.3c1.1,0,2,0.5,2.7,1.3c0.7,0.7,1.4,1.5,2.1,2.3
	c1.2,1.4,2.4,1.5,3.8,0.3c5.2-4.4,10.4-8.9,15.6-13.3c0.6-0.4,1.1-0.9,1.8-1.2c1.7-0.7,3.6-0.1,4.5,1.5
	C173.3,153,173,155,171.6,156.2z M176.6,150.2c-2.4-5.4-8.8-6.8-13.3-2.9c-4.5,3.9-9.1,7.8-13.7,11.8c-0.7,0.6-1,0.6-1.6-0.1
	c-2.3-2.6-5.2-3.5-8.5-2.6c-5.9,1.7-7.9,8.8-3.9,13.5c2,2.2,3.9,4.5,5.8,6.7c3.3,3.8,8.2,4.3,12.1,1c7-6,14-11.9,20.9-17.9
	c2-1.7,3-3.8,3.2-6.4C177.3,152.3,177.2,151.1,176.6,150.2z M171.6,156.2c-1.8,1.6-3.7,3.2-5.6,4.8c-5,4.3-10.1,8.6-15.1,12.9
	c-2.1,1.7-4.2,1.6-6-0.5c-1.9-2.1-3.8-4.3-5.6-6.5c-1.8-2.1-1.1-5,1.4-6c0.4-0.2,0.8-0.2,1.2-0.3c1.1,0,2,0.5,2.7,1.3
	c0.7,0.7,1.4,1.5,2.1,2.3c1.2,1.4,2.4,1.5,3.8,0.3c5.2-4.4,10.4-8.9,15.6-13.3c0.6-0.4,1.1-0.9,1.8-1.2c1.7-0.7,3.6-0.1,4.5,1.5
	C173.3,153,173,155,171.6,156.2z M170,226.2c-0.1-1-0.8-1.7-1.8-1.9s-1.9,0.2-2.4,1.1c-0.3,0.5-0.4,1.2-0.5,1.8c0,0,0.1,0,0.2,0.1
	v0.8c0,1.2,1,2.2,2.2,2.2c1.1,0.1,2.2-0.8,2.3-2C170.1,227.6,170.1,226.9,170,226.2z M231.1,49.1C231.1,49.1,231,49.1,231.1,49.1
	C221,47.1,210.6,46,200,46c-85,0-154,69-154,154c0,59.5,33.8,111.2,83.3,136.8c21.2,11,45.2,17.2,70.7,17.2c85,0,154-69,154-154
	C354,125.6,301.2,63.5,231.1,49.1z M281,167.9c-3.1,0-5.6-2.6-5.6-5.6s2.6-5.6,5.6-5.5c3.1,0.1,5.5,2.5,5.5,5.6
	S284.1,167.9,281,167.9z M216,284.9c-3.2,1-6.3,2-9.5,3c-0.2,0-0.4,0.1-0.6,0.1c0-0.2-0.1-0.3-0.1-0.5c0.3-22,0.6-44.1,0.9-66.1
	c0-0.8,0.3-1.2,1.1-1.4c3.4-1.1,6.9-2.2,10.3-3.3c0.6-0.2,0.8-0.1,0.8,0.6v6.6c0,2.4,1.3,3.4,3.6,2.7c5.8-1.9,11.7-3.7,17.6-5.6
	c5.4-1.7,10.8-3.4,16.2-5.1c0.9-0.3,1.8-0.6,2.7-0.9c1.6-0.5,2.1-1.2,2.1-2.9v-8.2c0-0.6,0.2-0.9,0.8-1.1c2.8-0.9,5.6-1.8,8.4-2.7
	c1.1-0.3,2.1-0.7,3.2-1c0.2-0.1,0.5-0.2,0.9-0.3c0.1,0.4,0.1,0.7,0.4,1.1c-0.4,21.9-0.7,43.8-1,65.7c0,0.9-0.4,1.2-1.2,1.5
	c-5.3,1.6-10.6,3.3-15.9,5c-4.8,1.5-9.6,3-14.4,4.5c-3.9,1.2-7.9,2.5-11.9,3.8C225.6,281.9,220.8,283.4,216,284.9z M255.9,199.8
	c-2.6,0.8-5.3,1.7-8,2.5c-0.4,0.1-1-0.1-1.3-0.3c-13.1-10.5-26.1-21.1-39.1-31.6c-1.2-0.9-2.3-1.9-3.7-3c1.3-0.4,2.3-0.8,3.4-1.3
	c3.6-1.1,7.3-2.3,10.9-3.4c3.4-1.1,6.8-2.2,10.2-3.2c0.3-0.1,0.8,0.2,1.1,0.4c3.7,2.9,7.3,5.9,10.9,8.8c9.5,7.7,18.9,15.3,28.4,23
	c0.9,0.8,1.9,1.5,2.8,2.3c0.1,0.2,0.3,0.3,0.5,0.6c-1.8,0.7-3.6,1.2-5.4,1.8C263,197.6,259.5,198.7,255.9,199.8z M166.3,216.7
	c1.4,1,3.3,0.3,3.6-1.4c0.1-0.5,0.1-0.9,0.1-1.3v-20.2c0.3,0.2,0.6,0.3,0.8,0.5c9.5,7.7,18.9,15.3,28.4,23c0.1,0.1,0.1,0.1,0.1,0.1
	c0.9,0.7,2.2,1.3,2.6,2.3c0.4,1,0.1,2.3,0.1,3.5c-0.3,20.6-0.7,41.3-1,61.9v1.2c-0.4-0.3-0.6-0.4-1.1-0.7
	c-8.1-6.5-16.1-13.1-24.2-19.6c-5.7-4.6-11.4-9.3-17.2-13.9c-0.6-0.5-0.8-0.9-0.8-1.7c0.4-21.5,0.7-43,1-64.5c0-0.3,0.1-0.6,0.1-1.1
	c0.3,0.2,0.5,0.3,0.7,0.4c1.8,1.4,3.6,2.8,5.3,4.3c0.3,0.3,0.5,0.9,0.5,1.3v23.7C165.3,215.4,165.6,216.2,166.3,216.7z M156.1,177.6
	c-1.3,0.5-1.9,1.2-1.9,2.7c-0.1,5.3-0.1,10.7-0.2,16c0,2.1-0.1,4.1-0.1,6.2c0,0.6-0.2,0.9-0.9,0.9h-24.5c-2.2,0-3.6-0.9-4.3-2.7
	c-0.2-0.6-0.2-1.3-0.2-1.9v-63.3c0-1.8,0.6-3.2,2.2-4c0.7-0.3,1.5-0.5,2.2-0.5h6.5c0.6,0,0.9,0.2,1,0.9c0.6,3.9,4.2,7.6,8.1,8.1
	c1.1,0.1,2.1,0.2,3.2,0.2h17.5c4,0,7.2-1.6,9.2-5.1c0.6-1,0.9-2.1,1.2-3.2c0.1-0.6,0.4-0.9,1.1-0.9h6.2c2.9,0,4.5,1.6,4.5,4.5V167
	c0.1,0.6-0.2,0.9-0.8,1.1c-6.6,2.1-13.3,4.2-19.9,6.3C162.8,175.5,159.5,176.5,156.1,177.6z M145.1,124.6c0.6-0.1,1.1-0.1,1.6-0.3
	c1.1-0.4,1.3-1.4,1.4-2.4c0.2-2.7,1.5-4.8,3.9-5.9c4.5-2.1,10.3,0,10.8,5.9c0.2,1.5,1,2.6,2.7,2.7c2.5,0.2,4.4,1.7,5,3.9
	c0.6,2.3-0.2,4.6-2,6c-1,0.8-2.3,1.1-3.6,1.1h-19.2c-2.4,0-4.4-1.4-5.2-3.5C139.3,128.6,141.4,125.1,145.1,124.6z M129.9,234
	c1.3,2.4,2.6,4.6,4,7h-8.1C127.1,238.6,128.4,236.4,129.9,234z M187.6,202c-8.3-6.8-16.7-13.5-25-20.3c-0.4-0.2-0.7-0.5-1.1-0.9
	c2.4-0.8,4.6-1.5,6.8-2.4c3.5-1.1,7.1-2.3,10.7-3.4c3.2-1,6.4-2,9.6-3c3-1,6-1.9,9-2.9c0.6-0.2,1-0.1,1.4,0.3
	c4.6,3.7,9.1,7.4,13.7,11.1c9.5,7.7,18.9,15.4,28.4,23c0.2,0.1,0.5,0.2,0.7,0.3c-0.1,0.1-0.1,0.2-0.2,0.3c-1.7,0.6-3.5,1.1-5.2,1.7
	c-4.5,1.5-8.9,2.9-13.4,4.3c-4.4,1.4-8.8,2.8-13.2,4.2c-1.4,0.5-2.8,0.9-4.2,1.4c-0.5,0.2-0.9,0.1-1.3-0.2
	C198.7,211,193.2,206.5,187.6,202z M249.2,135.9h-8.1c1.4-2.3,2.7-4.5,4.1-7C246.6,131.3,247.9,133.5,249.2,135.9z M177.6,153.3
	c-0.3-1-0.4-2.2-1-3.1c-2.4-5.4-8.8-6.8-13.3-2.9c-4.5,3.9-9.1,7.8-13.7,11.8c-0.7,0.6-1,0.6-1.6-0.1c-2.3-2.6-5.2-3.5-8.5-2.6
	c-5.9,1.7-7.9,8.8-3.9,13.5c2,2.2,3.9,4.5,5.8,6.7c3.3,3.8,8.2,4.3,12.1,1c7-6,14-11.9,20.9-17.9C176.4,158,177.4,155.9,177.6,153.3
	z M171.6,156.2c-1.8,1.6-3.7,3.2-5.6,4.8c-5,4.3-10.1,8.6-15.1,12.9c-2.1,1.7-4.2,1.6-6-0.5c-1.9-2.1-3.8-4.3-5.6-6.5
	c-1.8-2.1-1.1-5,1.4-6c0.4-0.2,0.8-0.2,1.2-0.3c1.1,0,2,0.5,2.7,1.3c0.7,0.7,1.4,1.5,2.1,2.3c1.2,1.4,2.4,1.5,3.8,0.3
	c5.2-4.4,10.4-8.9,15.6-13.3c0.6-0.4,1.1-0.9,1.8-1.2c1.7-0.7,3.6-0.1,4.5,1.5C173.3,153,173,155,171.6,156.2z M165.5,227.3v0.8
	c0,1.2,1,2.2,2.2,2.2c1.1,0.1,2.2-0.8,2.3-2c0.1-0.7,0.1-1.4,0-2.1c-0.1-1-0.8-1.7-1.8-1.9s-1.9,0.2-2.4,1.1
	c-0.3,0.5-0.4,1.2-0.5,1.8C165.3,227.2,165.4,227.2,165.5,227.3z M170,226.2c-0.1-1-0.8-1.7-1.8-1.9s-1.9,0.2-2.4,1.1
	c-0.3,0.5-0.4,1.2-0.5,1.8c0,0,0.1,0,0.2,0.1v0.8c0,1.2,1,2.2,2.2,2.2c1.1,0.1,2.2-0.8,2.3-2C170.1,227.6,170.1,226.9,170,226.2z
	 M176.6,150.2c-2.4-5.4-8.8-6.8-13.3-2.9c-4.5,3.9-9.1,7.8-13.7,11.8c-0.7,0.6-1,0.6-1.6-0.1c-2.3-2.6-5.2-3.5-8.5-2.6
	c-5.9,1.7-7.9,8.8-3.9,13.5c2,2.2,3.9,4.5,5.8,6.7c3.3,3.8,8.2,4.3,12.1,1c7-6,14-11.9,20.9-17.9c2-1.7,3-3.8,3.2-6.4
	C177.3,152.3,177.2,151.1,176.6,150.2z M171.6,156.2c-1.8,1.6-3.7,3.2-5.6,4.8c-5,4.3-10.1,8.6-15.1,12.9c-2.1,1.7-4.2,1.6-6-0.5
	c-1.9-2.1-3.8-4.3-5.6-6.5c-1.8-2.1-1.1-5,1.4-6c0.4-0.2,0.8-0.2,1.2-0.3c1.1,0,2,0.5,2.7,1.3c0.7,0.7,1.4,1.5,2.1,2.3
	c1.2,1.4,2.4,1.5,3.8,0.3c5.2-4.4,10.4-8.9,15.6-13.3c0.6-0.4,1.1-0.9,1.8-1.2c1.7-0.7,3.6-0.1,4.5,1.5
	C173.3,153,173,155,171.6,156.2z M176.6,150.2c-2.4-5.4-8.8-6.8-13.3-2.9c-4.5,3.9-9.1,7.8-13.7,11.8c-0.7,0.6-1,0.6-1.6-0.1
	c-2.3-2.6-5.2-3.5-8.5-2.6c-5.9,1.7-7.9,8.8-3.9,13.5c2,2.2,3.9,4.5,5.8,6.7c3.3,3.8,8.2,4.3,12.1,1c7-6,14-11.9,20.9-17.9
	c2-1.7,3-3.8,3.2-6.4C177.3,152.3,177.2,151.1,176.6,150.2z M171.6,156.2c-1.8,1.6-3.7,3.2-5.6,4.8c-5,4.3-10.1,8.6-15.1,12.9
	c-2.1,1.7-4.2,1.6-6-0.5c-1.9-2.1-3.8-4.3-5.6-6.5c-1.8-2.1-1.1-5,1.4-6c0.4-0.2,0.8-0.2,1.2-0.3c1.1,0,2,0.5,2.7,1.3
	c0.7,0.7,1.4,1.5,2.1,2.3c1.2,1.4,2.4,1.5,3.8,0.3c5.2-4.4,10.4-8.9,15.6-13.3c0.6-0.4,1.1-0.9,1.8-1.2c1.7-0.7,3.6-0.1,4.5,1.5
	C173.3,153,173,155,171.6,156.2z M170,226.2c-0.1-1-0.8-1.7-1.8-1.9s-1.9,0.2-2.4,1.1c-0.3,0.5-0.4,1.2-0.5,1.8c0,0,0.1,0,0.2,0.1
	v0.8c0,1.2,1,2.2,2.2,2.2c1.1,0.1,2.2-0.8,2.3-2C170.1,227.6,170.1,226.9,170,226.2z M170,226.2c-0.1-1-0.8-1.7-1.8-1.9
	s-1.9,0.2-2.4,1.1c-0.3,0.5-0.4,1.2-0.5,1.8c0,0,0.1,0,0.2,0.1v0.8c0,1.2,1,2.2,2.2,2.2c1.1,0.1,2.2-0.8,2.3-2
	C170.1,227.6,170.1,226.9,170,226.2z M170,226.2c-0.1-1-0.8-1.7-1.8-1.9s-1.9,0.2-2.4,1.1c-0.3,0.5-0.4,1.2-0.5,1.8
	c0,0,0.1,0,0.2,0.1v0.8c0,1.2,1,2.2,2.2,2.2c1.1,0.1,2.2-0.8,2.3-2C170.1,227.6,170.1,226.9,170,226.2z M170,226.2
	c-0.1-1-0.8-1.7-1.8-1.9s-1.9,0.2-2.4,1.1c-0.3,0.5-0.4,1.2-0.5,1.8c0,0,0.1,0,0.2,0.1v0.8c0,1.2,1,2.2,2.2,2.2
	c1.1,0.1,2.2-0.8,2.3-2C170.1,227.6,170.1,226.9,170,226.2z M170,226.2c-0.1-1-0.8-1.7-1.8-1.9s-1.9,0.2-2.4,1.1
	c-0.3,0.5-0.4,1.2-0.5,1.8c0,0,0.1,0,0.2,0.1v0.8c0,1.2,1,2.2,2.2,2.2c1.1,0.1,2.2-0.8,2.3-2C170.1,227.6,170.1,226.9,170,226.2z
	 M170,226.2c-0.1-1-0.8-1.7-1.8-1.9s-1.9,0.2-2.4,1.1c-0.3,0.5-0.4,1.2-0.5,1.8c0,0,0.1,0,0.2,0.1v0.8c0,1.2,1,2.2,2.2,2.2
	c1.1,0.1,2.2-0.8,2.3-2C170.1,227.6,170.1,226.9,170,226.2z M170,226.2c-0.1-1-0.8-1.7-1.8-1.9s-1.9,0.2-2.4,1.1
	c-0.3,0.5-0.4,1.2-0.5,1.8c0,0,0.1,0,0.2,0.1v0.8c0,1.2,1,2.2,2.2,2.2c1.1,0.1,2.2-0.8,2.3-2C170.1,227.6,170.1,226.9,170,226.2z"/>
<g class="st2">
	<path class="st3" d="M354,205.7c-0.1,1.6-0.2,3.1-0.3,4.7c-0.8,13.6-3.2,26.9-7.6,39.7c-14.4,42-41.6,72.7-81.7,91.9
		c-12.9,6.2-26.6,10.1-40.7,12.2c-10,1.5-20,2-30,1.4c-31.8-1.8-60.3-12.4-85.3-32c-27.7-21.8-45.8-49.9-54.7-84
		c-2.5-9.6-3.9-19.3-4.5-29.2c-0.6-9.2-0.3-18.4,0.8-27.6c3.4-28.5,13.7-54.3,31.3-77.1c20-25.8,45.6-43.6,76.9-53.2
		c10.3-3.1,20.9-5.1,31.6-5.9c46.3-3.5,91.2,14.1,122.7,48.2c18.8,20.4,31.3,44.1,37.6,71.1c2.2,9.6,3.5,19.3,3.8,29.1
		c0,0.4,0.1,0.8,0.1,1.2C354,199.4,354,202.6,354,205.7z M350.6,199.7c-0.2-3.4-0.4-8.2-0.8-12.9c-0.7-9.1-2.4-18-4.8-26.8
		c-12.1-43.7-42.8-78.9-81.9-96.9c-17.5-8-35.9-12.5-55.1-13.3c-13.4-0.6-26.7,0.5-39.8,3.6c-31.2,7.4-57.4,23.2-78.4,47.4
		c-23.9,27.5-36.1,59.7-37.3,96.1c-0.5,14.9,1.2,29.7,5.2,44.1c8.4,30.8,24.8,56.6,49.3,77c25.6,21.3,55.1,32.7,88.4,34.2
		c13.9,0.6,27.5-0.7,41-4c31.1-7.7,57.1-23.8,77.9-48.2C338.3,271.5,350.1,238.3,350.6,199.7z"/>
	<path class="st3" d="M46,100.5c0.7-1,1.5-2,2.2-2.9c1.8-2.5,3.5-5.2,5.6-7.5c2.1-2.5,5.7-2.8,8.2-0.5c1.6,1.5,2,3.2,1.6,5.2
		c0.9-0.3,1.8-0.5,2.7-0.8c1.5-0.5,2.9,0.2,4,1c1.3,0.9,2.2,2.1,2.5,3.8c0.3,1.7-0.2,3.2-1.1,4.5c-2.3,3.4-4.7,6.7-7.1,10
		c-0.3,0.4-0.5,0.3-0.8,0.1c-3-2.2-6-4.4-9.1-6.5c-2.8-2-5.6-4.1-8.5-6.1c-0.1-0.1-0.2,0-0.3-0.1C46,100.7,46,100.6,46,100.5z
		 M63.8,107.5c0.5-0.6,0.9-1.2,1.3-1.7c0.9-1.4,1.9-2.7,2.8-4.1c0.6-1.1,0.3-2.5-0.7-3.1c-1.1-0.7-2.3-1.1-3.4,0.2
		c-1.5,1.8-2.8,3.7-4.3,5.6C61,105.4,62.4,106.5,63.8,107.5z M56.2,101.9c0.1-0.1,0.3-0.2,0.4-0.4c1-1.4,2.1-2.8,3.1-4.3
		c0.4-0.6,0.7-1.3,0.7-2c-0.1-1-0.7-1.8-1.7-2.2c-0.9-0.3-2,0-2.7,0.9c-1.2,1.5-2.3,3.1-3.4,4.7c-0.2,0.3-0.2,0.6,0.1,0.8
		C53.8,100.3,55,101.1,56.2,101.9z"/>
	<path class="st3" d="M195.3,15.9c1,0.2,2,0.4,2.9,0.7c4.2,1.4,6.7,4.4,7.5,8.8c0.6,3.1,0.1,6.1-1.6,8.8c-1.8,2.8-4.4,4.3-7.6,4.8
		c-3.4,0.6-6.6,0.1-9.4-2c-2.5-1.8-3.9-4.3-4.4-7.3c-0.4-2.4-0.2-4.8,0.8-7.1c1.2-2.7,3.1-4.6,5.8-5.7c1.2-0.5,2.5-0.6,3.8-0.9
		c0.1,0,0.2-0.1,0.2-0.2C193.9,15.9,194.6,15.9,195.3,15.9z M201.1,27.5c0-0.3-0.1-0.8-0.2-1.3c-0.5-4.2-4.5-6.9-8.9-5.6
		c-2.7,0.8-4.1,2.9-4.5,5.7c-0.4,3.1,0.3,5.6,2.8,7.6c1.9,1.5,5.4,1.6,7.4,0.3C200,32.7,201,30.4,201.1,27.5z"/>
	<path class="st3" d="M199.8,384.1c-1.1-0.5-2.1-0.9-3.2-1.4c-0.1,0-0.2-0.1-0.3-0.2c-0.8-0.7-0.8-0.7-0.1-1.5
		c0.1-0.1,0.2-0.3,0.3-0.4c0.7,0.5,1.4,1.1,2.2,1.4c1.4,0.6,2.9,0.9,4.4,0.1c0.8-0.4,1.3-1,1.3-2c0-0.9-0.6-1.5-1.3-1.8
		c-1.4-0.6-2.8-1-4.2-1.5c-1.3-0.5-2.4-1.2-2.6-2.7c-0.3-2,0.6-3.4,2.5-4.1c2.4-0.9,5.7-0.3,7.3,1.7c-0.4,0.4-0.7,0.7-1.1,1.2
		c-0.9-1.1-2.1-1.5-3.5-1.7c-1-0.2-1.9,0-2.7,0.6c-1,0.8-1.3,2.2,0.2,3.1c0.8,0.5,1.8,0.7,2.7,1c0.7,0.2,1.4,0.4,2,0.7
		c2,0.8,2.7,2.5,2.5,3.8c-0.3,1.9-1,2.9-3.3,3.6c-0.1,0-0.3,0.1-0.4,0.2C201.6,384.1,200.7,384.1,199.8,384.1z"/>
	<path class="st3" d="M339.4,100.3c3.8-3,7.4-5.8,11.1-8.7c1,1.3,2,2.5,2.9,3.8c-5.9,4.6-11.7,9.2-17.7,13.8
		c-0.4-0.4-0.8-0.9-1.1-1.3c-0.3-0.4-0.7-0.9-1-1.3c-0.5-0.6-0.8-1.1-0.5-2c1.6-5.4,3.1-10.8,4.6-16.2c0,0,0-0.1-0.1-0.2
		c-3.8,3-7.6,6-11.4,8.9c-1-1.3-2-2.5-2.9-3.7c5.9-4.6,11.8-9.2,17.7-13.9c0.9,1.2,1.8,2.3,2.7,3.5c0.2,0.2,0.3,0.6,0.2,0.8
		c-1.4,5.3-2.9,10.5-4.4,15.7C339.5,99.7,339.5,99.9,339.4,100.3z"/>
	<path class="st3" d="M178.7,40.1c-1.4,0.3-2.7,0.4-4,0.9c-1.6,0.6-2.1-0.6-2.8-1.4c-1.2-1.4-2.5-2.7-3.5-4.2
		c-0.8-1.3-1.8-1.1-2.9-0.8c-0.5,0.1-1,0.2-1.6,0.4c0.5,2.6,1.1,5.2,1.6,7.8c-1.4,0.3-2.8,0.6-4.2,0.9c-0.2,0-0.5-0.3-0.6-0.5
		c-0.9-4.6-1.8-9.1-2.7-13.7c-0.5-2.4-1-4.8-1.5-7.2c0-0.2,0-0.3,0-0.6c2.7-0.5,5.3-1.1,8-1.6c1.2-0.2,2.3-0.6,3.5-0.6
		c2.3-0.1,4.4,0.5,6,2.4c1.7,2,2.5,5.8,1,8.2c-0.6,0.9-1.4,1.7-2.3,2.4c-0.5,0.4-0.5,0.6-0.1,1c1.3,1.4,2.6,2.8,3.9,4.3
		C177.1,38.4,177.8,39.2,178.7,40.1z M161.9,24.8c0.4,2,0.8,4,1.2,6c0.5-0.1,1.1-0.2,1.6-0.3c1.5-0.4,3.1-0.7,4.5-1.2
		c1.5-0.5,2-2.1,1.4-3.7c-0.4-1.2-2.2-2.1-3.5-1.8C165.4,24.1,163.7,24.4,161.9,24.8z"/>
	<path class="st3" d="M319,85c-6.4,0.1-12.3-5.8-12.1-12.1c0.2-6.2,5.4-11.7,11.8-11.6c6.4,0.1,11.9,5.5,12,11.9
		C330.7,79.5,325.2,84.9,319,85z M311.6,73.8c-0.3,3.5,3.3,6.8,6.8,6.7c3.3-0.1,6.6-3,7.4-6.5c1-4.2-2.8-8.8-7.8-8
		C314.8,66.5,311.4,70.1,311.6,73.8z"/>
	<path class="st3" d="M240.4,29.6c3.5,0.9,7,1.7,10.6,2.6c-0.3,1.2-0.6,2.4-0.9,3.6c-0.1,0.5-0.5,0.4-0.8,0.3
		c-3.3-0.8-6.6-1.6-9.9-2.4c-0.4,1.7-0.8,3.3-1.2,5c3.4,0.8,6.7,1.6,10.1,2.4c0.5,0.1,0.7,0.2,0.5,0.8c-0.3,1.1-0.5,2.2-0.8,3.4
		c-1.4-0.3-2.7-0.6-4.1-1c-3.6-0.9-7.2-1.8-10.8-2.6c-0.4-0.1-0.5-0.2-0.4-0.7c0.9-3.6,1.8-7.3,2.7-10.9c0.8-3.5,1.7-7,2.5-10.4
		c5,1.2,9.9,2.4,14.9,3.6c0.5,0.1,0.6,0.3,0.5,0.8c-0.3,1-0.5,1.9-0.7,2.9c-0.1,0.5-0.2,0.6-0.7,0.4c-3.2-0.8-6.4-1.5-9.6-2.3
		c-0.6-0.2-0.8,0-0.9,0.6C241.1,27,240.7,28.3,240.4,29.6z"/>
	<path class="st3" d="M79,88.2c2.7-2.8,5.3-5.5,8-8.4c0.9,1.1,1.7,2.1,2.7,3.2c-3.4,3.6-7,7.4-10.7,11.3c-0.1-0.1-0.2-0.1-0.3-0.2
		c-1.7-1.6-3.4-3.3-5.1-4.9c-2.6-2.5-5.1-4.9-7.7-7.4c-1.1-1-2.1-2-3.3-3c3.7-3.9,7.3-7.7,11-11.5c1,0.9,2.1,1.9,3.1,2.8
		c-2.6,2.7-5.1,5.4-7.4,7.7c1,1.3,2,2.5,3,3.7c2.7-2.8,5.1-5.4,7.6-7.9c1,0.9,2,1.9,3.1,2.8c-2.5,2.7-5,5.3-7.5,7.9
		C76.7,85.7,77.8,86.9,79,88.2z"/>
	<path class="st3" d="M90.8,73.3c2.1,0.2,4.1-0.2,5.9-1.3c1-0.6,1.9-1.5,2.7-2.4c0.6-0.6,0.8-1.5,0.5-2.4c-0.4-0.9-1.2-1.4-2.2-1.1
		c-1.2,0.4-2.3,0.9-3.5,1.3c-1.7,0.6-3.4,1.4-5.2,1.9c-3.4,0.8-6.2-1.7-6.9-4.6c-0.6-2.7,0.4-4.9,2.2-6.9c1.8-1.9,3.9-3.2,6.4-3.9
		c1.2-0.3,2.4-0.4,3.8-0.6c0,1.6,0,3.1,0,4.5c-2.9,0.1-5.5,0.9-7.5,3.3c-1.1,1.3-0.6,3.1,0.8,3.3c0.6,0.1,1.3-0.2,1.9-0.4
		c1.8-0.7,3.5-1.5,5.3-2.2c2-0.8,4-1.1,6-0.1c2.4,1.3,4.2,4.7,3.3,7.7c-0.8,2.3-2.3,4-4.2,5.5c-1.6,1.3-3.5,2.3-5.5,2.7
		c-1.1,0.2-2.2,0.2-3.3,0.3c-0.2,0-0.5-0.2-0.5-0.4C90.8,76,90.8,74.6,90.8,73.3z"/>
	<path class="st3" d="M131.8,29.6c2.9-1,5.7-2,8.5-3c1.6-0.6,3.1-1.2,4.8-1c2,0.2,3.7,1,5,2.6c1.1,1.5,1.7,3.1,1.6,4.9
		c-0.1,2.7-1.3,4.7-3.7,5.9c-2.2,1.1-4.5,1.8-6.9,2.7c0.9,2.4,1.7,4.9,2.6,7.5c-1.5,0.5-3,1.1-4.5,1.6
		C136.8,43.8,134.3,36.7,131.8,29.6z M139.8,37.8c1.9-0.7,3.8-1.4,5.6-2.2c1.3-0.6,1.9-2.3,1.3-3.7c-0.5-1.2-1.6-2.2-3.2-1.8
		c-1.8,0.5-3.6,1.1-5.4,1.7c-0.1,0-0.3,0.3-0.2,0.4C138.4,34.1,139.1,35.9,139.8,37.8z"/>
	<path class="st3" d="M278.7,38.4c-1.5,0.1-3,0.2-4.4,0.4c-0.6-2.7-2-4.6-4.7-5.3c-2.2-0.6-4.1-0.2-5.9,1.2c-2.6,2-3.8,5.6-2.7,8.7
		c1.2,3.5,5.2,5.6,8.8,4c0.5-0.2,0.9-0.6,1.4-0.9c1,1.1,2,2.2,3,3.3c-3.8,3.1-8.6,3.5-13.5,0.1c-4.4-3.1-6-8-4.2-13.3
		c0.9-2.5,2.4-4.6,4.7-6c1.9-1.2,4-1.9,6.2-1.7C274.5,29.4,277.9,33.2,278.7,38.4z"/>
	<path class="st3" d="M218.6,21.2c-2.2-0.2-4.3-0.5-6.5-0.7c0.1-1.3,0.3-2.7,0.4-4.2c5.9,0.6,11.8,1.3,17.8,1.9
		c-0.1,0.8-0.1,1.6-0.2,2.4c0,0.3-0.1,0.7-0.1,1c0.1,0.8-0.3,0.9-0.9,0.8c-1.7-0.2-3.5-0.5-5.2-0.6c-0.2,0-0.6,0.4-0.6,0.6
		c-0.2,1.2-0.2,2.4-0.4,3.6c-0.2,1.9-0.4,3.8-0.6,5.7c-0.1,1.3-0.2,2.5-0.4,3.8c-0.2,1.5-0.3,3-0.5,4.4c-1.6-0.2-3.1-0.3-4.8-0.5
		C217.3,33.3,218,27.3,218.6,21.2z"/>
	<path class="st3" d="M114,38c0.7,1.2,1.4,2.4,2.1,3.6c-1.7,1-3.3,2-4.9,3c-0.5,0.3-0.6,0.4-0.3,1c3,5,6,10,9.1,15.1
		c-1.3,0.8-2.7,1.6-4.1,2.5c-1.2-2-2.3-3.9-3.5-5.8c-1.9-3.1-3.7-6.2-5.6-9.3c-0.2-0.4-0.5-0.5-0.9-0.3c-1.7,1-3.4,2.1-5,3.1
		c-0.7-1.2-1.5-2.4-2.2-3.6C103.7,44.2,108.8,41.1,114,38z"/>
	<path class="st3" d="M284.9,61.7c-1.4-0.8-2.8-1.6-4.1-2.4c3.1-5.3,6.1-10.5,9.2-15.8c-1.9-1.1-3.8-2.2-5.7-3.3
		c0.7-1.2,1.4-2.4,2.1-3.6c5.2,3,10.3,6,15.5,9c-0.7,1.2-1.4,2.4-2.1,3.6c-1.9-1.1-3.7-2.1-5.7-3.3C291,51.2,288,56.5,284.9,61.7z"
		/>
	<path class="st3" d="M307.5,49.7c1.3,0.9,2.6,1.9,3.9,2.8c-2.9,4.1-5.8,8.1-8.7,12.2c-1.3,1.8-2.6,3.7-4,5.5
		c-0.3,0.4-0.6,0.5-1.1,0.1c-0.9-0.7-1.8-1.4-2.7-2c-0.4-0.3-0.4-0.5-0.1-0.9c1.3-1.8,2.6-3.6,3.9-5.4c2-2.7,3.9-5.5,5.9-8.2
		C305.5,52.4,306.5,51.1,307.5,49.7z"/>
	<path class="st3" d="M214.4,369.4c2.3-0.2,4.5-0.5,6.8-0.6c1.8-0.1,3.1,0.8,3.5,2.5c0.4,1.3,0.1,3.2-1.7,3.9c0,0,0,0.1-0.1,0.2
		c1.4,0.3,2.4,1.2,2.8,2.6c0.5,2.4-0.4,4-2.7,4.5c-2.2,0.5-4.5,0.6-6.7,0.9c-0.2,0-0.5-0.4-0.6-0.6c-0.3-2.3-0.5-4.6-0.7-7
		c-0.2-1.8-0.4-3.6-0.7-5.4C214.4,370.1,214.4,369.8,214.4,369.4z M217.4,381.6c1.5-0.1,2.8-0.3,4.2-0.4c1.4-0.2,2.5-0.9,2.4-2.7
		c-0.1-1.3-1.2-2.3-2.5-2.2c-1.5,0.1-3.1,0.3-4.7,0.5C217,378.5,217.2,380,217.4,381.6z M216.2,370.8c0.2,1.6,0.4,3,0.5,4.5
		c1.5-0.2,2.9-0.3,4.3-0.5c1.2-0.1,2.2-1.2,2.1-2.3c-0.1-1.4-1.3-2.4-2.6-2.3C219.1,370.4,217.7,370.6,216.2,370.8z"/>
	<path class="st3" d="M180.4,374.1c0,2.9-1,5.1-3.2,6.6c-4,2.8-10.3,0.2-10.7-5c-0.2-2.6,0.4-4.8,2.2-6.6c1.9-1.9,4.2-2.1,6.6-1.5
		C178.4,368.3,180.6,371,180.4,374.1z M173.5,368.8c-1.3-0.1-2.5,0.4-3.3,1.2c-1.7,1.8-2.4,4-1.7,6.4c0.9,3.5,5,4.9,7.7,2.9
		c2.1-1.5,2.6-3.7,2.4-6.1C178.3,370.5,176,368.8,173.5,368.8z"/>
	<path class="st3" d="M250.7,377.1c-3,0.8-6,1.5-8.9,2.3c-1.1-4.3-2.2-8.7-3.3-13c-0.1-0.5,0-0.6,0.4-0.7c2.8-0.7,5.5-1.4,8.3-2.1
		c0.1,0.5,0.2,1,0.3,1.5c-2.4,0.6-4.8,1.2-7.2,1.9c0.4,1.3,0.7,2.6,1,3.9c0.1,0.4,0.3,0.5,0.7,0.4c2.2-0.6,4.3-1.1,6.5-1.7
		c0.1,0.5,0.3,1,0.4,1.5c-2.4,0.6-4.7,1.2-7.1,1.8c0.4,1.6,0.8,3.1,1.2,4.7c2.4-0.6,4.7-1.2,7.2-1.8
		C250.4,376.1,250.5,376.5,250.7,377.1z"/>
	<path class="st3" d="M182.3,381c0.3-0.4,0.7-0.8,1-1.3c1.4,1.9,4.1,2.8,6.1,2.2c0.8-0.3,1.5-0.8,1.7-1.7c0.2-1-0.1-1.8-1.1-2.2
		c-1.2-0.5-2.4-1-3.6-1.6c-0.7-0.4-1.5-0.8-2.1-1.3c-1.7-1.4-1.1-4.2,0.8-5.3c2.3-1.4,6.4-0.6,8.1,1.6c-0.4,0.4-0.7,0.7-1.1,1.1
		c-1.3-1.6-3.1-2.1-5.1-1.8c-1,0.1-1.8,0.9-1.9,1.8c-0.1,0.8,0.6,1.6,1.6,2.1c1.5,0.6,3,1.2,4.5,2c1.4,0.7,1.8,2,1.7,3.5
		c-0.2,1.3-0.9,2.4-2.1,3C188.2,384.3,184,383.4,182.3,381z"/>
	<path class="st3" d="M156.5,363.6c2.1,0.6,4,1,5.8,1.6c1.9,0.6,3.2,2.3,3,4c-0.4,2.7-1.5,4-4,4.2c-1.1,0.1-2.3-0.4-3.5-0.7
		c-1.8-0.4-1.8-0.5-2.3,1.2c-0.4,1.2-0.6,2.5-1,3.7c-0.5-0.1-1.1-0.2-1.7-0.4C154.1,372.7,155.3,368.2,156.5,363.6z M156.4,370.7
		c1.3,0.3,2.5,0.5,3.6,0.9c1.4,0.4,2.8-0.3,3.3-1.7c0.5-1.5-0.2-3-1.8-3.4c-1.2-0.4-2.4-0.6-3.8-1
		C157.3,367.2,156.9,368.9,156.4,370.7z"/>
	<path class="st3" d="M231.6,379.7c1.5-0.3,2.9-0.5,4.4-0.8c0.3-0.1,0.7-0.1,1-0.2c1.1-0.3,1.4,0,1.3,1c0,0.1-0.2,0.3-0.4,0.4
		c-2.5,0.5-5,0.9-7.5,1.4c-0.1,0-0.2,0-0.3,0c-0.8-4.5-1.7-9.1-2.5-13.7c0.6-0.1,1.1-0.2,1.7-0.3
		C230.1,371.5,230.8,375.6,231.6,379.7z"/>
	<path class="st3" d="M209.1,369.6c0.6,0,1.1,0,1.7,0c0.1,1,0.2,2,0.2,3c0.1,1.8,0.1,3.5,0.2,5.3c0.1,1.7,0.2,3.3,0.3,5
		c0,0.2,0,0.4,0,0.6c-0.6,0-1,0-1.7,0C209.5,378.9,209.3,374.3,209.1,369.6z"/>
	<path class="st3" d="M133.1,123.9c5.5,4.4,11.4,7.5,17.8,9.8c7.3,2.6,14.8,3.6,22.6,2.7c10.2-1.3,19.1-5.4,27.2-11.7
		c0.2-0.1,0.4-0.3,0.5-0.4c0.3-0.4,0.5-0.3,0.9,0c4.6,3.9,9.8,6.8,15.3,9c3.5,1.4,7.1,2.4,10.8,3s7.5,0.7,11.2,0.3
		c10.3-1,19.5-4.7,28-10.6c0.9-0.6,1.7-1.3,2.7-2c0,0.4,0.1,0.6,0.1,0.9c0,31.9,0,63.8-0.1,95.7c0,4.7-0.6,9.3-1.5,13.9
		c-2.2,11.3-7.6,20.9-15,29.6c-9.9,11.6-21.9,20.5-35.8,26.9c-5,2.3-10.2,4.3-15.6,5.7c-0.4,0.1-1,0.1-1.4,0c-5-1.3-9.8-3-14.4-5.1
		c-14.3-6.4-26.7-15.5-36.9-27.5c-5.4-6.3-9.8-13.2-12.6-21.1c-1.4-3.9-2.3-7.9-2.9-11.9c-1-6.8-1-13.7-1-20.6c0-28.5,0-57,0-85.4
		C133,124.7,133.1,124.4,133.1,123.9z"/>
</g>
<g>
	<path class="st4" d="M43.3,107.2c1.8-2.7,3.5-5.3,5.3-8c1.1-1.7,2.3-3.5,3.4-5.3c1.1,0.7,2.3,1.5,3.5,2.3c-2,3.1-4,6.2-6,9.3
		c1.4,0.9,2.7,1.7,4,2.6c2-3.1,3.9-6.1,5.9-9.1c1.2,0.7,2.3,1.5,3.5,2.3c-1,1.5-1.9,3-2.9,4.4c-0.9,1.4-1.8,2.8-2.7,4.2
		c-0.3,0.4-0.1,0.6,0.2,0.8c1.2,0.8,2.4,1.5,3.7,2.4c2-3.1,4-6.2,6.1-9.3c1.1,0.7,2.3,1.5,3.5,2.3c-2.9,4.5-5.8,8.9-8.6,13.4
		c-4.8-3.1-9.6-6.2-14.3-9.3c-1.4-0.9-2.8-1.8-4.2-2.7c-0.1-0.1-0.2,0-0.3-0.1C43.3,107.3,43.3,107.3,43.3,107.2z"/>
	<path class="st4" d="M356.7,103.9c-0.2,0.1-0.4,0.3-0.6,0.3c-1.3,0-2.6-0.1-3.8-0.2c0.1-3.1-0.6-5.7-2.8-7.8
		c-0.9-0.9-2.3-0.9-2.9,0.1c-0.3,0.5-0.3,1.4-0.2,2c0.7,2.3,1.6,4.5,2.2,6.8c0.8,2.9-0.1,5.2-2,6.6c-2.8,2-5.5,2.1-8,0.4
		c-3.2-2.2-5.1-5.3-5.8-9.1c-0.2-1.1-0.1-2.2-0.2-3.2c0-0.5,0.2-0.8,0.8-0.8c1.2,0,2.4,0,3.7,0c-0.1,0.6-0.2,1.1-0.2,1.6
		c0,2.4,0.6,4.5,2.1,6.4c0.7,0.8,1.4,1.5,2.5,1.7s2.1-0.5,2.1-1.6c0.1-1.6-0.7-2.9-1.2-4.4c-0.6-1.8-1.2-3.6-1.5-5.5
		c-0.4-2,1.1-4.2,3.1-5.4c2.5-1.4,5.3-0.9,7.4,0.8c2.8,2.2,4.5,5.1,4.9,8.7c0,0.1,0.1,0.1,0.2,0.2
		C356.7,102.3,356.7,103.1,356.7,103.9z"/>
	<path class="st4" d="M208.1,16.2c0.7,0.1,1.4,0.2,2.1,0.4c2.3,0.5,4.4,1.4,6.1,3.1c-0.9,1.2-1.8,2.3-2.7,3.4c-2-1.9-4.3-2.8-7-2.7
		c-1.5,0-2.4,0.8-2.7,1.7c-0.2,0.8,0,1.4,0.6,1.7c1.5,0.7,3.1,1.2,4.6,1.7c1.9,0.6,3.8,1.1,5.4,2.4c1,0.9,1.7,2,1.9,3.3
		c0.3,2.3-0.2,4.4-1.9,6c-1.2,1.1-2.6,1.7-4.2,2c-3.4,0.6-6.7,0.2-9.7-1.5c-1-0.5-1.8-1.3-2.7-2c1-1.3,1.8-2.4,2.7-3.6
		c1.3,1.3,2.9,2.5,4.7,2.8c1.4,0.3,3,0.3,4.4,0.1c1.1-0.1,2.1-1.3,1.8-2.2c-0.1-0.5-0.4-1.1-0.7-1.3c-1.5-0.7-3.1-1.1-4.6-1.7
		s-3.1-1.2-4.6-1.9c-2.2-1.1-3.2-4.1-2.5-6.4c0.8-2.9,2.9-4.3,5.6-5c0.6-0.1,1.2-0.2,1.7-0.4C207.1,16.2,207.6,16.2,208.1,16.2z"/>
	<path class="st4" d="M205,375.4c-0.1-1.3-0.6-2.6-1.6-3.7c-1.6-1.8-3.5-2.5-5.9-2.3c-2.4,0.1-4.2,1.2-5.4,3.3
		c-0.9,1.5-1.1,3.1-0.9,4.9c0.3,2.3,1.4,4.2,3.5,5.3c0.9,0.4,1.9,0.6,2.8,0.9c0.4,0,0.9,0,1.3,0.1c0.1-0.1,0.3-0.2,0.4-0.2
		c1.7-0.2,3-0.9,4.1-2.2C204.8,379.7,205.2,377.6,205,375.4z M199.8,382c-3.1,0.8-5.9-0.4-6.7-4c-0.4-2,0-3.8,1.2-5.4
		c1.3-1.6,3-2,4.9-1.7c2.1,0.4,3.4,1.8,3.9,3.8c0.1,0.6,0.1,1.2,0.2,1.8C203.4,379.2,201.7,381.5,199.8,382z"/>
	<path class="st4" d="M354.2,187c-0.7-9-2.3-17.9-4.7-26.6c-8.3-30.5-24.3-56.3-48.2-77c-20.7-18-44.2-29.3-70.2-34.3c0,0,0,0-0.1,0
		c-6.7-1.3-13.7-2.1-20.7-2.5c-13.8-0.8-27.5,0.4-41,3.5c-31.2,7.2-57.7,22.7-79.1,46.5C65.5,124,52.4,156.3,50.3,193
		c-0.9,14.6,0.4,29.1,3.8,43.4c8.9,37.3,28.6,67.4,59.4,90.2c5.1,3.8,10.4,7.2,15.8,10.2c17,9.6,35.5,15.5,55.4,17.9
		c8.9,1.1,17.9,1.4,26.9,0.8c9.2-0.6,18.3-1.9,27.2-4.2c29.6-7.5,54.9-22.6,75.4-45.2c27-29.8,40.1-65,40.7-106.1
		C354.7,196.3,354.5,191.6,354.2,187z M111.1,320.4c-25.6-20.2-42.8-46.2-51.8-77.6c-0.1-0.5-0.3-1.1-0.4-1.6
		c-0.1-0.5-0.3-1.1-0.4-1.6c0-0.2-0.1-0.3-0.1-0.5c-1.7-6.7-3-13.5-3.7-20.3c0-0.2,0-0.4-0.1-0.6c-0.1-0.8-0.2-1.7-0.2-2.5
		c-0.1-0.8-0.1-1.6-0.2-2.5c0-0.5-0.1-1-0.1-1.5c-0.2-3.5-0.3-7-0.5-9.9c0.3-20.2,3.7-39,10.4-56.4c1.5-3.8,3.1-7.6,5-11.3
		c0.7-1.4,1.4-2.8,2.1-4.2c0.6-1.2,1.3-2.4,2-3.6c4.7-8.3,10.3-16.3,16.8-23.9c21.1-24.8,47.7-41.1,79.5-48.6
		c12.9-3,26-4.2,39.2-3.6c38.8,1.8,71.9,16.6,99.2,44.1c20.9,21.1,34.2,46.3,40.4,75.3c1,4.8,1.8,9.5,2.3,14.3
		c0.1,0.7,0.2,1.4,0.2,2.1l0,0c0.2,1.8,0.3,3.7,0.4,5.5c0.1,1.1,0.1,2.1,0.2,3.2c0.2,4.1,0.1,8.3,0,12.4c0,0.7-0.1,1.5-0.1,2.2v0.1
		c-2,34.1-13.9,64.4-36.1,90.5c-20.7,24.3-46.7,40.4-77.7,48.1c-13.4,3.3-27.1,4.6-40.9,4C164.6,350.7,136.1,340.1,111.1,320.4z"/>
	<path class="st4" d="M87.4,86.6c-0.9,1-1.8,2.1-2.7,3.1C84.6,89.8,84.3,90,84,90c-1.4-0.1-2.8-0.2-4.2-0.4
		c-0.8-0.1-1.6-0.2-2.4-0.3c-2.9-0.2-5.8-0.4-8.6-0.7c-0.8-0.1-1.6-0.2-2.6-0.3c3.7,3.3,7.4,6.5,11.1,9.7c-1.1,1.2-2.1,2.4-3.1,3.6
		c-5.6-4.9-11.2-9.9-16.9-14.8c1.1-1.2,2.1-2.4,3.1-3.6c0.1-0.1,0.3-0.1,0.4-0.1c1.5,0.2,3,0.3,4.5,0.5c0.7,0.1,1.5,0.1,2.2,0.2
		c2.3,0.2,4.6,0.3,6.9,0.5c1.1,0.1,2.2,0.2,3.5,0.4c-3.6-3.2-7.1-6.3-10.7-9.4c1.1-1.2,2.1-2.4,3.1-3.6
		C76.2,76.7,81.8,81.6,87.4,86.6z"/>
	<path class="st4" d="M301.3,45.8c-0.9-1.2-2-2-3.2-2.7c-2.8-1.7-5.6-3.3-8.4-5c-3.8,6.5-7.7,12.9-11.5,19.3
		c1.4,0.9,2.7,1.7,4.1,2.5c1.4-2.3,2.7-4.5,4.1-6.8c1,0.5,1.8,1,2.6,1.5c0.3,0.2,0.5,0.6,0.5,0.9c0,1.1,0,2.2-0.1,3.3
		s-0.1,2.2-0.2,3.3c-0.1,1.2,0,2.1,1.3,2.7c1.1,0.5,2.2,1.3,3.4,2v-9.9c0.6,0.1,1.2,0.2,1.5,0.1c2.7,0.1,4.6-1.1,6-3.3
		C302.9,51.4,303,48.1,301.3,45.8z M297.5,51.2c-0.9,1.5-2.7,1.9-4.3,1c-1.5-0.9-3-1.8-4.5-2.7c1-1.8,2-3.5,3.1-5.3
		c1.6,0.9,3.1,1.8,4.6,2.8C297.8,47.8,298.4,49.7,297.5,51.2z"/>
	<path class="st4" d="M335.5,73.1c-0.1-0.1-0.4-0.2-0.6-0.1c-1.2,0.4-2.3,0.9-3.5,1.4c-4.2,1.7-8.4,3.4-12.6,5.1
		c-1.9,0.8-3.9,1.6-5.8,2.4c1.1,1.2,2.2,2.3,3.2,3.5c0.3,0.4,0.6,0.4,1.1,0.2c1-0.5,2.1-0.9,3.1-1.3c2.2,2.3,4.4,4.7,6.6,7l-1.5,3
		c-0.2,0.5-0.2,0.8,0.1,1.1c1.1,1.1,2.2,2.2,3.3,3.4c3.5-7.2,7-14.4,10.4-21.6C338,75.8,336.8,74.4,335.5,73.1z M329.1,87.4
		c-1.6-1.7-3.1-3.4-4.8-5.1c3.2-1.4,6.2-2.7,9.2-4c0.1,0,0.1,0.1,0.2,0.1C332.2,81.4,330.7,84.3,329.1,87.4z"/>
	<path class="st4" d="M121,35.4c-1.8,0.9-3.6,1.8-5.3,2.7c0.8,8,1.7,15.9,2.5,24c1.6-0.8,3.2-1.6,4.6-2.4c0.1-0.1,0.2-0.3,0.2-0.4
		c-0.1-0.5-0.1-1.1-0.2-1.6c-0.4-2.1-0.4-2.1,1.4-3c0.1-0.1,0.2-0.1,0.2-0.1c2.1-1.1,4.1-2.2,6.2-3.2c0.2-0.2,0.7-0.1,0.9,0.1
		c0.9,0.8,1.7,1.6,2.6,2.4c1.7-0.8,3.2-1.7,4.8-2.5C132.9,46.1,127,40.7,121,35.4z M121.8,51.2c-0.4-3.4-0.8-6.7-1.3-10.3
		c2.6,2.4,5,4.7,7.6,7.1C126,49.1,123.9,50.1,121.8,51.2z"/>
	<path class="st4" d="M275,31.2c-1.5-0.7-3.1-1.3-4.6-1.9c-0.2-0.1-0.6,0-0.8,0.2c-0.7,0.6-1.3,1.4-2,2.1c-2.2,2.2-4.3,4.5-6.4,6.7
		c-1.8,1.9-3.6,3.7-5.4,5.6c-0.8,0.9-1.6,1.8-2.4,2.7c1.7,0.6,3.3,1.3,5,2c0.7-0.8,1.4-1.6,2.1-2.4c0.4-0.5,0.8-0.6,1.4-0.3
		c2.4,1.1,4.9,2.1,7.4,3.1c0.5,0.2,0.7,0.4,0.7,1v3.4c1.5,0.6,3.2,1.3,4.8,2c0.1-0.7,0.2-1.4,0.2-2.1c0.1-2.7,0.1-5.5,0.2-8.2
		c0.1-2.4,0.2-4.7,0.2-7v-6.2C275.4,31.6,275.2,31.3,275,31.2z M270.4,45c-2.1-0.9-4.2-1.8-6.5-2.7c2.3-2.5,4.6-4.9,6.8-7.4
		c0.1,0,0.1,0.1,0.2,0.1C270.7,38.3,270.6,41.6,270.4,45z"/>
	<path class="st4" d="M185.7,17.2c1.6-0.2,3.2-0.4,4.8-0.6c0.2,1.6,0.4,3.2,0.6,4.7c0.2,1.6,0.5,3.3,0.6,4.9
		c0.2,1.9,0.6,3.8,0.5,5.6c-0.1,3.9-2.2,6.9-6.3,8.1c-1.9,0.6-3.9,0.8-5.8,0.6c-3.3-0.2-6.3-2-7.3-5.5c-0.5-1.7-0.7-3.5-1-5.3
		c-0.3-1.6-0.5-3.3-0.7-4.9s-0.4-3.3-0.5-5c0-0.3-0.1-0.5-0.1-0.9c1.5-0.2,3.1-0.4,4.8-0.6c0.2,2.1,0.5,4.1,0.7,6.1
		c0.3,2.1,0.6,4.2,0.8,6.2c0.1,1.2,0.3,2.5,1,3.5c1.3,1.8,3,2.3,4.9,2c1.3-0.2,2.6-0.6,3.5-1.7c1-1.2,1.3-2.6,1.1-4.1
		c-0.2-1.6-0.4-3.3-0.6-4.9c-0.2-1.7-0.4-3.3-0.6-5C185.9,19.5,185.8,18.4,185.7,17.2z"/>
	<path class="st4" d="M96.6,78.3c-7-3.9-14-7.8-21-11.7c1-0.8,2-1.7,3-2.5c0.1-0.1,0.2-0.1,0.2-0.1c0.3-0.3,0.6-0.8,0.9-0.8
		c0.5,0.1,0.9,0.5,1.4,0.7c2.5,1.5,5.1,2.9,7.6,4.4c2.1,1.2,4.2,2.5,6.3,3.7c0.2,0.1,0.3,0.2,0.7,0.4c-2.1-5.9-4.2-11.5-6.3-17.3
		c1.3-1.1,2.7-2.3,4.2-3.5c2,5.8,4,11.7,5.9,17.5c0.5,1.6,1,3.1,1.6,4.7c0.1,0.4,0.1,0.7-0.2,1C99.3,76,98,77.1,96.6,78.3z"/>
	<path class="st4" d="M248.9,38.2c1.2,1,2.3,1.9,3.4,2.8c-2.9,3.5-7.9,4.7-13,2.3c-5-2.4-7.1-6.9-6.6-11.2
		c0.8-7.1,5.3-10.5,10.9-10.8c5.5-0.3,10,2.4,11.6,7.9c-1.4,0.3-2.9,0.7-4.2,1c-0.7-1-1.2-2-2-2.8c-2.2-2.3-6.6-2.2-8.9,0
		c-1.8,1.7-2.7,3.9-2.6,6.3c0.1,3.3,2.4,5.9,5.6,6.6C245.1,40.5,247.4,39.8,248.9,38.2z"/>
	<path class="st4" d="M152.6,27.6c-2.2,0.6-4.2,1.1-6.3,1.7c-0.4-1.2-0.7-2.4-1-3.6c0-0.1,0.3-0.5,0.5-0.5
		c5.4-1.5,10.7-2.9,16.1-4.4c0.2-0.1,0.4-0.1,0.6-0.2c0.4,1.3,0.7,2.6,1.1,4c-1.2,0.3-2.4,0.7-3.6,1c-0.7,0.2-1.4,0.3-2.1,0.5
		c-0.4,0.1-0.6,0.3-0.5,0.8c1.1,4,2.2,8.1,3.3,12.1c0.4,1.6,0.9,3.2,1.3,5c-1.5,0.4-3,0.8-4.6,1.3C155.8,39.3,154.2,33.5,152.6,27.6
		z"/>
	<path class="st4" d="M305.8,76.1c-1.2-1-2.5-2-3.7-3c3.8-4.7,7.6-9.4,11.4-14.2c-1.7-1.4-3.4-2.7-5.1-4.1c0.9-1.1,1.7-2.2,2.6-3.3
		c4.6,3.7,9.3,7.5,14,11.2c-0.9,1.1-1.7,2.1-2.6,3.2c-1.7-1.4-3.4-2.7-5.1-4.1C313.4,66.6,309.6,71.4,305.8,76.1z"/>
	<path class="st4" d="M102.9,45.7c4.1,6.3,8.2,12.5,12.4,18.7c-1.3,0.8-2.6,1.7-4,2.6c-4.1-6.2-8.3-12.5-12.4-18.7
		C100.2,47.4,101.5,46.5,102.9,45.7z"/>
	<path class="st4" d="M125.4,350.4c-2-1.1-4-2.2-6-3.4c-2.3,4.1-4.5,8.2-6.8,12.3c2.1,1.2,4.2,2.4,6.4,3.3c0.5,0.3,1.3,0.4,1.9,0.3
		c1.9-0.3,3.4-2,3.1-4c-0.1-0.8-0.4-1.5-0.6-2.2c0,0,0.1,0,0.2,0c1.7,0,2.9-1,3.4-2.7C127.3,352.8,126.7,351.2,125.4,350.4z
		 M121.8,360.4c-0.6,0.9-1.8,1.2-2.8,0.7c-1.4-0.8-2.7-1.5-4.2-2.3c0.8-1.4,1.6-2.8,2.3-4.3c1,0.6,2,1.1,2.9,1.6
		c0.6,0.4,1.2,0.7,1.7,1.2C122.6,358.1,122.5,359.3,121.8,360.4z M124.8,354.4c-0.6,1.1-1.7,1.6-2.8,1.1c-1.3-0.6-2.5-1.3-3.7-2
		c-0.1-0.1-0.3-0.6-0.2-0.7c0.6-1.2,1.3-2.3,2-3.6c1.4,0.8,2.8,1.5,4.1,2.3C125.1,352.1,125.3,353.4,124.8,354.4z"/>
	<path class="st4" d="M142.9,373.5c1.4-4.5,2.8-8.8,4.2-13.2c1.2,0,1.7,0.3,2.1,1.5c1.3,3.9,2.6,7.8,4,11.9c1.2-3.6,2.3-7,3.4-10.5
		c0.5,0.2,1,0.3,1.6,0.5c-1.4,4.4-2.8,8.8-4.2,13.2c-1.2,0.1-1.7-0.5-2-1.5c-1.3-4-2.6-7.9-4-12.1c-1.2,3.7-2.3,7.1-3.4,10.7
		C144,373.9,143.5,373.7,142.9,373.5z"/>
	<path class="st4" d="M265,364.7c-0.9-2.5-3.4-4.5-6.2-4.5c-2.6,0-4.9,1.4-7.3,2c1.6,4.5,3.1,8.9,4.7,13.3c1.8-0.6,3.5-1.1,5.1-1.8
		c1-0.5,1.9-1.1,2.6-1.9C265.7,369.7,265.9,367.3,265,364.7z M260.7,372.3c-0.9,0.3-1.8,0.5-2.6,0.9c-0.6,0.3-0.8,0-1-0.5
		c-0.6-1.6-1.1-3.2-1.7-4.8c-0.6-1.6-1.1-3.1-1.7-4.8c1.3-0.4,2.7-0.9,4.2-1.2c1.7-0.5,3.2,0.2,4.4,1.4c1.1,1.1,1.6,2.6,1.7,4.1
		C264.2,369.3,262.6,371.6,260.7,372.3z"/>
	<path class="st4" d="M244,366.9c-0.2,0.2-0.4,0.3-0.5,0.5c-0.4,0.6-0.9,0.5-1.4,0.1c-2.3-1.6-5.4-0.4-6.7,1.2
		c-2.1,2.7-1.5,5.9,0.5,7.9c2.4,2.5,5.9,2.1,8.1-0.5c0.2-0.2,0.2-0.5,0.2-0.8c-0.1-0.8-0.4-1.5-0.6-2.4c-1.5,0.3-3,0.7-4.6,1
		c-0.1-0.4-0.3-0.9-0.4-1.4c1-0.2,2-0.5,3-0.7c0.9-0.2,1.9-0.4,2.8-0.6c0.5-0.2,0.7,0.1,0.8,0.5c0.3,1.3,0.6,2.6,0.8,3.9
		c0.1,0.4-0.2,0.9-0.4,1.3c-2.6,3.3-7.7,3.9-10.8,1c-1.1-1.1-1.8-2.4-2.1-3.8c-0.6-2.5,0-4.8,1.8-6.6c2.4-2.4,6.3-2.9,9.1-0.9
		C243.7,366.6,243.8,366.7,244,366.9z"/>
	<path class="st4" d="M185.1,377.1c2.1-0.3,3.2-1.5,3.5-3.6c0.2-1.7-0.4-3.4-2-4c-1-0.4-2.2-0.6-3.3-0.8c-1.3-0.3-2.7-0.3-4.1-0.5
		c-0.5,4.6-1.1,9.2-1.6,13.9c0.6,0,1.1,0.1,1.7,0.2c0.3-2,0.5-3.8,0.7-5.5h1.2c1,0,1.8,0.2,2.2,1.3c0.6,1.5,1.3,2.9,2.1,4.3
		c0.2,0.3,0.6,0.5,0.9,0.6c0.5,0.1,0.9,0.1,1.4,0.1c-1-2-2-3.9-3-5.9c0.1-0.1,0.2-0.1,0.1,0C185,377.2,185,377.1,185.1,377.1z
		 M183.7,375.5c-0.9-0.1-1.7-0.3-2.5-0.3c-0.7,0-1-0.3-0.9-1s0.2-1.5,0.3-2.2s0.1-1.4,0.2-2.3c1.6,0.3,3.1,0.4,4.6,0.7
		c1.3,0.3,1.9,1.7,1.6,2.9C186.5,375.2,185.1,375.6,183.7,375.5z"/>
	<path class="st4" d="M270.9,354.6c-0.1,0-0.1,0.1-0.2,0.3c-1.6,0.8-1.6,0.8-1.5,2.6c0.1,3,0.2,5.9,0.3,8.9v4.4
		c0.5-0.2,0.9-0.4,1.2-0.5c0.8-0.2,0.9-0.8,0.8-1.5s-0.1-1.5-0.2-2.2c1.7-0.8,3.3-1.5,4.9-2.3c1.5-0.7,1.4-0.8,2.6,0.4
		c1.4,1.3,1.4,1.3,3.1,0.4C278.2,361.6,274.6,358.1,270.9,354.6z M271.1,364.8c-0.2-2.6-0.3-5.2-0.4-7.8c0.1,0,0.1-0.1,0.2-0.1
		c1.9,1.7,3.7,3.5,5.7,5.4C274.8,363.2,273,364,271.1,364.8z"/>
	<path class="st4" d="M136.1,355.6c2.8,1.2,5.6,2.3,8.4,3.5c-0.2,0.4-0.3,0.9-0.5,1.4c-2.3-0.9-4.5-1.9-6.9-2.8
		c-0.6,1.4-1.1,2.7-1.7,4.2c2.3,1,4.5,1.9,6.7,2.8c-0.2,0.4-0.4,0.9-0.6,1.4c-2.3-0.9-4.4-1.8-6.7-2.8c-0.6,1.5-1.2,3-1.9,4.5
		c2.3,0.9,4.5,1.9,6.9,2.8c-0.2,0.5-0.3,1-0.5,1.4c-2.8-1.2-5.6-2.3-8.5-3.5C132.5,364.3,134.3,360,136.1,355.6z"/>
	<path class="st4" d="M230.8,381.4c-2.6,0.4-5.2,0.7-7.8,1.1c-0.3,0-0.6,0.1-0.9,0c-0.2,0-0.5-0.2-0.5-0.4c-0.3-1.8-0.5-3.6-0.7-5.4
		c-0.3-2.4-0.7-4.8-1-7.1c0-0.2,0-0.5,0-0.8c3-0.4,6-0.8,9-1.2c0.1,0.5,0.2,0.9,0.3,1.5c-2.5,0.3-5,0.7-7.4,1
		c0.2,1.3,0.4,2.5,0.4,3.7c0,0.6,0.3,0.8,0.8,0.7c1.5-0.2,3-0.4,4.4-0.6c0.7-0.1,1.4-0.2,2.1-0.3c0.1,0.5,0.2,0.9,0.3,1.5
		c-1.3,0.2-2.6,0.4-3.9,0.5c-1,0.1-2,0.2-3,0.4c-0.2,0-0.4,0.4-0.4,0.6c0.1,1.3,0.3,2.5,0.5,3.8c0,0.2,0.5,0.5,0.7,0.5
		c1.9-0.2,3.7-0.5,5.6-0.8c0.4-0.1,0.8,0,1.3,0C230.7,380.4,230.7,380.9,230.8,381.4z"/>
	<path class="st4" d="M286.9,348.2c-0.1,0.6-0.1,1-0.2,1.4c0,0.1-0.4,0.2-0.5,0.2c-1.5-0.1-2.9-0.1-4.2,0.9
		c-1.1,0.8-1.6,1.9-1.2,2.9c0.3,0.7,1.3,1.3,2,1.1c1.5-0.3,2.9-0.6,4.4-0.9c1.6-0.4,3.4,0.2,4.2,1.7c0.7,1.3,1,2.8-0.3,4.4
		s-3,2.5-5.1,2.7c-0.9,0.1-1.9,0-2.9,0c0.1-0.8,0.2-1.3,0.3-1.8c0.5,0.1,0.9,0.1,1.4,0.2c2,0.3,3.7-0.5,5-1.9
		c0.5-0.6,0.6-1.9,0.2-2.5c-0.5-0.8-1.4-1.1-2.3-0.9c-1.5,0.2-3,0.6-4.5,0.9c-1.2,0.3-2.4,0-3.2-0.9c-0.9-1-1.3-2.2-0.8-3.6
		c0.8-2.3,3.6-3.7,5.4-3.8C285.2,348.1,286,348.2,286.9,348.2z"/>
	<path class="st4" d="M173,366.9c-2-0.4-3.9-0.8-5.9-1.2c-0.9,4.7-1.7,9.2-2.6,13.8c0.7,0.2,1.2,0.3,1.7,0.4
		c0.4-1.8,0.7-3.6,1.1-5.6c1.4,0.3,2.7,0.6,4,0.8c1.7,0.2,3.3-0.2,4.3-1.8C177.1,370.7,176,367.6,173,366.9z M171.3,373.5
		c-1.1-0.2-2.1-0.4-3.2-0.5c-0.5-0.1-0.6-0.4-0.5-0.8c0.3-1.3,0.5-2.7,0.8-4.1c0-0.4,0.1-0.5,0.6-0.4c1.1,0.3,2.1,0.4,3.2,0.6
		c1.3,0.3,2.3,1.4,2.3,2.7C174.5,372.7,173.1,373.9,171.3,373.5z"/>
	<path class="st4" d="M213.2,370.8c0.2,4.2,0.5,8.3,0.7,12.4c-0.5,0-1.1,0-1.7,0c-0.2-4.1-0.5-8.2-0.7-12.4
		c-1.4,0.1-2.9,0.2-4.3,0.2c-0.1-0.3-0.2-0.5-0.2-0.8c-0.1-0.5,0-0.8,0.7-0.8c2.5-0.1,5.1-0.2,7.6-0.3c0.7,0,1.4-0.1,2.2-0.2
		c0.1,0.5,0.2,1,0.3,1.5C216.2,370.6,214.7,370.7,213.2,370.8z"/>
	<path class="st4" d="M126.8,366.7c-0.5-0.2-1-0.5-1.6-0.7c2-4.2,4-8.4,6-12.7c0.5,0.3,1,0.5,1.5,0.8
		C130.8,358.3,128.8,362.5,126.8,366.7z"/>
	<path class="st4" d="M252,376.7c-0.6,0.2-1.1,0.3-1.7,0.5c-0.6-2.3-1.3-4.5-1.9-6.7c-0.6-2.2-1.2-4.4-1.9-6.8
		c0.5-0.2,1.1-0.3,1.6-0.5C249.4,367.7,250.7,372.1,252,376.7z"/>
	<path class="st4" d="M102.4,37.9c-0.4,1.4-0.7,2.6-1,3.9c-0.2,0.8-0.4,1.6-0.6,2.4c-0.1,0.4-0.5,0.8-0.8,1.1
		c-0.5,0.5-1.2,0.8-1.9,1.3c0.3-1.6,0.6-3.1,0.7-4.7c0.1-1.5,0.8-2.4,2.2-3C101.5,38.6,101.8,38.3,102.4,37.9z"/>
	<path class="st1" d="M351.3,194.7c0-1.1-0.1-2.1-0.2-3.2c-0.1-1.8-0.3-3.7-0.4-5.5l0,0c-0.1-0.7-0.1-1.4-0.2-2.1
		c-0.5-4.8-1.3-9.6-2.3-14.4c-6.2-29-19.5-54.3-40.4-75.3c-27.3-27.4-60.4-42.2-99.2-44.1c-13.3-0.7-26.3,0.5-39.2,3.6
		c-31.8,7.5-58.4,23.7-79.5,48.6c-6.5,7.6-12.1,15.6-16.8,24c-0.7,1.2-1.3,2.4-2,3.6c-0.7,1.4-1.4,2.8-2.1,4.2
		c-1.8,3.7-3.5,7.5-5,11.3c-6.8,17.5-10.1,36.3-10.4,56.4c0.2,2.9,0.3,6.4,0.5,9.9c0,0.5,0.1,1,0.1,1.4c0.1,0.9,0.1,1.7,0.2,2.6
		c0.1,0.9,0.2,1.7,0.2,2.5c0,0.2,0,0.4,0.1,0.6c0.7,6.9,2,13.6,3.7,20.3c0,0.2,0.1,0.3,0.1,0.5c0.1,0.5,0.3,1.1,0.4,1.6
		c0.1,0.5,0.3,1,0.4,1.5c9,31.3,26.2,57.4,51.8,77.6c25,19.8,53.5,30.3,85.3,31.7c13.8,0.6,27.5-0.7,40.9-4
		c31-7.7,57-23.8,77.7-48.1c22.2-26,34.1-56.3,36.1-90.5c0-0.7,0.1-1.5,0.1-2.2C351.4,203,351.4,198.9,351.3,194.7z M255.5,138.9
		c0,0.1-0.1,0.3-0.1,0.4c-0.1,0.2-0.2,0.4-0.4,0.6c-0.1,0.1-0.1,0.1-0.2,0.2c-0.5,0.4-1.1,0.7-1.9,0.7h-7.8c-1.9,0-3.8,0.1-5.6,0
		c-0.6,0-1.3,0-1.9-0.1c-0.6,0-1.4-0.2-1.9-0.5c-0.6-0.4-0.9-0.9-1-1.4c0-0.1,0-0.2,0-0.3s0-0.2,0-0.3c0-0.4,0.2-0.8,0.4-1.2
		c2.6-4.5,5.2-9.1,7.9-13.6c1.1-1.8,3.2-1.8,4.3,0c2.6,4.6,5.3,9.2,7.9,13.8c0.2,0.3,0.3,0.6,0.3,0.8c0,0.1,0,0.2,0,0.2
		C255.6,138.4,255.6,138.6,255.5,138.9z M139.2,245.4C139.1,245.4,139.1,245.4,139.2,245.4c-0.5,0.3-1.1,0.5-1.7,0.4
		c-2-0.1-3.9,0-5.8,0c-0.6,0-1.3,0-1.9,0c-2.6,0-5.1,0-7.5-0.1c-2.5,0-3.5-1.8-2.3-3.9c2.5-4.4,5.1-8.7,7.6-13.1
		c0.1-0.1,0.2-0.3,0.3-0.4c0.1-0.1,0.2-0.2,0.3-0.3c0-0.1,0.1-0.1,0.2-0.2c1.2-1.2,2.8-0.9,3.9,0.9c2.5,4.4,5,8.8,7.6,13.1
		C140.7,243.3,140.2,244.7,139.2,245.4z M278.8,218.4c0,0.5,0,0.9,0,1.4c0,1,0,2,0,2.9c0,0.6,0,1.2,0,1.8c0,1.5,0,2.9,0,4.2
		c-0.1,4.8-0.1,9.2-0.2,13.5c0,0.6,0,1.2,0,1.7c-0.1,8.5-0.3,16.2-0.6,24c0,1.3-0.3,2-1.1,2.5h-0.1c-0.3,0.2-0.6,0.3-1,0.4
		c-4.8,1.5-9.7,3.1-14.5,4.6s-9.6,3-14.4,4.5c-5.2,1.7-10.4,3.3-15.6,5c-0.6,0.2-1.2,0.4-1.8,0.5c-2.7,0.8-5.5,1.7-8.2,2.5
		c-0.7,0.2-1.3,0.4-2,0.6c-4.4,1.4-8.7,2.8-13.1,4.2c-0.1,0-0.3,0.1-0.4,0.1c-0.2,0.1-0.4,0.1-0.6,0.2c-0.5,0.1-1,0.3-1.5,0.4
		c-0.9,0.2-1.6-0.2-2.2-0.7c-3-2.5-6.1-4.9-9.1-7.4c-8.7-7.1-17.5-14.1-26.2-21.2c-3.9-3.2-7.7-6.3-11.6-9.4c-1-0.9-1.4-1.8-1.4-3.1
		c0.3-14.2,0.5-28.5,0.7-42.7c0-0.8-0.3-1-1-1h-24.4c-4.2,0-7.3-2.1-8.7-6c-0.4-0.9-0.5-1.9-0.5-2.8v-64c0-3.6,1.9-6.5,4.7-7.9
		c0.1,0,0.2-0.1,0.2-0.1c1.2-0.6,2.5-0.9,3.9-0.9h7.3c0.4,0,0.7,0,0.9-0.3c0.1-0.1,0.2-0.3,0.3-0.5c1-2,2.5-3.6,4.4-4.6
		c0.1-0.1,0.2-0.1,0.3-0.2c0.5-0.2,0.9-0.4,1.4-0.6c0.1,0,0.2-0.1,0.3-0.1l0,0c0.3-0.2,0.5-0.5,0.6-0.8c1-3.5,2.9-6.1,6-7.6
		c0.2-0.1,0.4-0.2,0.6-0.3c0.2-0.1,0.4-0.2,0.7-0.3c5-1.8,10.7-0.8,14.1,3.9c0.9,1.2,1.3,2.7,2,4c0.3,0.4,0.6,0.9,1,1
		c2.7,0.9,4.8,2.6,6.1,5.2c0.3,0.7,0.6,0.9,1.3,0.9c2.4,0,4.7,0.1,7.1,0c5-0.2,9.1,4,9.1,9.1c-0.1,10,0,19.9,0,29.8
		c0,1.1,0.2,1.1,1.2,0.8c3.1-1,6.3-2,9.4-3c4-1.2,8-2.5,12-3.8c3.2-1,6.4-2,9.6-3c1.4-0.4,2.8-0.8,4.1-1.3c1.1-0.4,2.1-0.3,3,0.5
		c5.5,4.5,10.9,8.9,16.4,13.3c8.2,6.7,16.5,13.3,24.7,20c1.9,1.6,3.8,3.2,5.8,4.7c1,0.8,1.4,1.8,1.4,3.1c-0.1,7.1-0.2,14.2-0.3,20.6
		C278.9,217.5,278.8,218,278.8,218.4z M287.9,170c-1.8,1.7-4.2,2.7-6.9,2.7c-5.5-0.1-10-4.5-10.2-9.6c0-0.2,0-0.3,0-0.5v-0.2
		c0-0.8,0.1-1.6,0.3-2.4c0.1-0.2,0.1-0.5,0.2-0.7c0,0,0,0,0-0.1c0.1-0.3,0.2-0.6,0.3-0.9c0.1-0.2,0.2-0.4,0.3-0.7
		c0.1-0.2,0.2-0.4,0.3-0.6c0.1-0.2,0.2-0.4,0.4-0.5c0.1-0.2,0.2-0.3,0.4-0.5c1.9-2.3,4.9-3.9,8-3.8c5.5,0,10.3,4.8,10.2,10.4
		c0,2.5-1.1,4.9-2.7,6.7C288.3,169.6,288.1,169.8,287.9,170z"/>
	<path class="st4" d="M278,193.3c-1.9-1.5-3.9-3.1-5.8-4.7c-8.2-6.7-16.5-13.3-24.7-20c-5.5-4.5-11-8.9-16.4-13.3
		c-0.9-0.8-1.9-0.9-3-0.5c-1.4,0.5-2.7,0.9-4.1,1.3c-3.2,1-6.4,2-9.6,3c-4,1.2-8,2.5-12,3.8c-3.2,1-6.3,2-9.4,3
		c-1.1,0.3-1.2,0.3-1.2-0.8c0-10-0.1-19.9,0-29.8c0-5.1-4.1-9.3-9.1-9.1h-7.1c-0.7,0-1-0.3-1.3-0.9c-1.3-2.6-3.3-4.3-6.1-5.2
		c-0.4-0.1-0.8-0.6-1-1c-0.7-1.3-1.1-2.8-2-4c-3.3-4.6-9.1-5.7-14.1-3.9c-0.3,0.1-0.6,0.2-0.9,0.4c-0.2,0.1-0.4,0.2-0.6,0.3
		c-2.9,1.5-4.8,4.1-5.8,7.5c-0.1,0.4-0.5,0.7-0.8,0.9l0,0h-0.1c-0.6,0.2-1.1,0.4-1.6,0.7c-0.1,0-0.2,0.1-0.3,0.2
		c-1.8,1-3.3,2.5-4.2,4.5c-0.2,0.3-0.3,0.4-0.5,0.5s-0.4,0.2-0.7,0.2h-7.3c-1.5,0-2.9,0.3-4.1,1c-0.1,0-0.1,0.1-0.2,0.1
		c-2.8,1.5-4.5,4.3-4.5,7.8v64c0,0.9,0.2,1.9,0.5,2.8c1.4,3.9,4.5,6,8.7,6H153c0.8,0,1,0.2,1,1c-0.3,14.2-0.5,28.5-0.7,42.7
		c0,1.3,0.4,2.3,1.4,3.1c3.9,3.1,7.7,6.3,11.6,9.4c8.7,7.1,17.5,14.1,26.2,21.2c3,2.5,6.1,4.9,9.1,7.4c0.6,0.5,1.3,1,2.2,0.7
		c0.4-0.1,0.8-0.2,1.3-0.3c0.2-0.1,0.4-0.1,0.6-0.2c0.2-0.1,0.4-0.1,0.6-0.2c4.3-1.4,8.7-2.8,13.1-4.2c0.6-0.2,1.2-0.4,1.8-0.5
		c2.7-0.8,5.5-1.7,8.2-2.5c0.7-0.2,1.3-0.4,2-0.6c5.2-1.7,10.4-3.3,15.6-5c4.8-1.5,9.6-3,14.4-4.5s9.7-3.1,14.5-4.6
		c0.3-0.1,0.6-0.2,0.8-0.3c0,0,0,0,0.1,0c0.9-0.5,1.3-1.2,1.3-2.6c0.1-7.7,0.3-15.3,0.4-23.9c0-0.6,0-1.2,0-1.7
		c0.1-4.2,0.1-8.7,0.2-13.5c0-1.3,0-2.7,0-4.2c0-0.6,0-1.2,0-1.8c0-1,0-1.9,0-2.9c0-0.4,0-0.9,0-1.4c0-0.4,0-0.8,0-1.3
		c0.1-6.4,0.3-13.5,0.5-20.7C279.4,195.1,279.1,194.1,278,193.3z M255.9,199.8c-2.6,0.8-5.3,1.7-8,2.5c-0.4,0.1-1-0.1-1.3-0.3
		c-13.1-10.5-26.1-21.1-39.1-31.6c-1.2-0.9-2.3-1.9-3.7-3c1.3-0.4,2.3-0.8,3.4-1.3c3.6-1.1,7.3-2.3,10.9-3.4
		c3.4-1.1,6.8-2.2,10.2-3.2c0.3-0.1,0.8,0.2,1.1,0.4c3.7,2.9,7.3,5.9,10.9,8.8c9.5,7.7,18.9,15.3,28.4,23c0.9,0.8,1.9,1.5,2.8,2.3
		c0.1,0.2,0.3,0.3,0.5,0.6c-1.8,0.7-3.6,1.2-5.4,1.8C263,197.6,259.5,198.7,255.9,199.8z M256.6,210.3c0,0.2-0.4,0.5-0.7,0.6
		c-3,1-6.1,1.9-9.1,2.9c-3.6,1.1-7.1,2.3-10.7,3.4c-3.6,1.1-7.1,2.3-10.7,3.4h-0.1c-1.8,0.5-1.8,0.5-1.8-1.4v-3.4
		c0-0.6,0.1-0.9,0.8-1.1c3.2-1,6.3-2,9.5-3c3.6-1.1,7.1-2.2,10.7-3.3c3.1-0.9,6.1-1.9,9.2-2.9c0.9-0.3,1.7-0.6,2.8-0.9
		C256.5,206.7,256.6,208.6,256.6,210.3z M145.1,124.6c0.6-0.1,1.1-0.1,1.6-0.3c1.1-0.4,1.3-1.4,1.4-2.4c0.2-2.7,1.5-4.8,3.9-5.9
		c4.5-2.1,10.3,0,10.8,5.9c0.2,1.5,1,2.6,2.7,2.7c2.5,0.2,4.4,1.7,5,3.9c0.6,2.3-0.2,4.6-2,6c-1,0.8-2.3,1.1-3.6,1.1h-19.2
		c-2.4,0-4.4-1.4-5.2-3.5C139.3,128.6,141.4,125.1,145.1,124.6z M154.2,180.3c-0.1,5.3-0.1,10.7-0.2,16c0,2.1-0.1,4.1-0.1,6.2
		c0,0.6-0.2,0.9-0.9,0.9h-24.5c-2.2,0-3.6-0.9-4.3-2.7c-0.2-0.6-0.2-1.3-0.2-1.9v-63.3c0-1.8,0.6-3.2,2.2-4c0.7-0.3,1.5-0.5,2.2-0.5
		h6.5c0.6,0,0.9,0.2,1,0.9c0.6,3.9,4.2,7.6,8.1,8.1c1.1,0.1,2.1,0.2,3.2,0.2h17.5c4,0,7.2-1.6,9.2-5.1c0.6-1,0.9-2.1,1.2-3.2
		c0.1-0.6,0.4-0.9,1.1-0.9h6.2c2.9,0,4.5,1.6,4.5,4.5V167c0.1,0.6-0.2,0.9-0.8,1.1c-6.6,2.1-13.3,4.2-19.9,6.3
		c-3.4,1.1-6.7,2.1-10.1,3.2C154.8,178.1,154.2,178.8,154.2,180.3z M202,223.2c-0.3,20.6-0.7,41.3-1,61.9v1.2
		c-0.4-0.3-0.6-0.4-1.1-0.7c-8.1-6.5-16.1-13.1-24.2-19.6c-5.7-4.6-11.4-9.3-17.2-13.9c-0.6-0.5-0.8-0.9-0.8-1.7
		c0.4-21.5,0.7-43,1-64.5c0-0.3,0.1-0.6,0.1-1.1c0.3,0.2,0.5,0.3,0.7,0.4c1.8,1.4,3.6,2.8,5.3,4.3c0.3,0.3,0.5,0.9,0.5,1.3v23.7
		c0,0.9,0.3,1.7,1,2.2c1.4,1,3.3,0.3,3.6-1.4c0.1-0.5,0.1-0.9,0.1-1.3v-20.2c0.3,0.2,0.6,0.3,0.8,0.5c9.5,7.7,18.9,15.3,28.4,23
		c0.1,0.1,0.1,0.1,0.1,0.1c0.9,0.7,2.2,1.3,2.6,2.3C202.3,220.7,202,222,202,223.2z M205.6,215.7c-0.5,0.2-0.9,0.1-1.3-0.2
		c-5.6-4.5-11.1-9-16.7-13.5c-8.3-6.8-16.7-13.5-25-20.3c-0.4-0.2-0.7-0.5-1.1-0.9c2.4-0.8,4.6-1.5,6.8-2.4
		c3.5-1.1,7.1-2.3,10.7-3.4c3.2-1,6.4-2,9.6-3c3-1,6-1.9,9-2.9c0.6-0.2,1-0.1,1.4,0.3c4.6,3.7,9.1,7.4,13.7,11.1
		c9.5,7.7,18.9,15.4,28.4,23c0.2,0.1,0.5,0.2,0.7,0.3c-0.1,0.1-0.1,0.2-0.2,0.3c-1.7,0.6-3.5,1.1-5.2,1.7c-4.5,1.5-8.9,2.9-13.4,4.3
		c-4.4,1.4-8.8,2.8-13.2,4.2C208.4,214.8,207,215.2,205.6,215.7z M273.8,265.6c0,0.9-0.4,1.2-1.2,1.5c-5.3,1.6-10.6,3.3-15.9,5
		c-4.8,1.5-9.6,3-14.4,4.5c-3.9,1.2-7.9,2.5-11.9,3.8c-4.8,1.5-9.6,3-14.4,4.5c-3.2,1-6.3,2-9.5,3c-0.2,0-0.4,0.1-0.6,0.1
		c0-0.2-0.1-0.3-0.1-0.5c0.3-22,0.6-44.1,0.9-66.1c0-0.8,0.3-1.2,1.1-1.4c3.4-1.1,6.9-2.2,10.3-3.3c0.6-0.2,0.8-0.1,0.8,0.6v6.6
		c0,2.4,1.3,3.4,3.6,2.7c5.8-1.9,11.7-3.7,17.6-5.6c5.4-1.7,10.8-3.4,16.2-5.1c0.9-0.3,1.8-0.6,2.7-0.9c1.6-0.5,2.1-1.2,2.1-2.9
		v-8.2c0-0.6,0.2-0.9,0.8-1.1c2.8-0.9,5.6-1.8,8.4-2.7c1.1-0.3,2.1-0.7,3.2-1c0.2-0.1,0.5-0.2,0.9-0.3c0.1,0.4,0.1,0.7,0.4,1.1
		C274.4,221.8,274.1,243.7,273.8,265.6z"/>
	<path class="st4" d="M281.1,152.2c-3.2,0-6.2,1.6-8.1,3.9c-0.1,0.2-0.3,0.3-0.4,0.5s-0.3,0.4-0.4,0.5c-0.1,0.2-0.2,0.4-0.3,0.6
		c-0.1,0.2-0.2,0.4-0.3,0.7c-0.1,0.3-0.3,0.6-0.3,0.9c0,0,0,0,0,0.1c-0.1,0.2-0.1,0.5-0.2,0.7c-0.2,0.8-0.3,1.5-0.3,2.4v0.2
		c0,0.2,0,0.3,0,0.5c0.3,5.1,4.7,9.5,10.3,9.5c2.6,0,5-1,6.8-2.6c0.2-0.2,0.4-0.4,0.6-0.6c1.7-1.8,2.8-4.2,2.8-6.8
		C291.4,157,286.5,152.2,281.1,152.2z M281,167.9c-3.1,0-5.6-2.6-5.6-5.6s2.6-5.6,5.6-5.5c3.1,0.1,5.5,2.5,5.5,5.6
		S284.1,167.9,281,167.9z"/>
	<path class="st4" d="M255.5,138.1c0-0.1,0-0.2,0-0.2c-0.1-0.2-0.2-0.5-0.3-0.7c-2.6-4.6-5.2-9.2-7.9-13.8c-1.1-1.8-3.2-1.8-4.3,0
		c-2.7,4.5-5.3,9-7.9,13.6c-0.2,0.4-0.3,0.7-0.4,1.1c0,0.1,0,0.2,0,0.3s0,0.2,0,0.3c0,0.6,0.4,1.2,1,1.5c0.5,0.3,1.3,0.5,1.9,0.5
		h7.5c2.6,0,5.2,0.1,7.8,0.1c0.8,0,1.5-0.3,1.9-0.8c0.1-0.1,0.1-0.1,0.2-0.2c0.2-0.2,0.3-0.4,0.4-0.6c0.1-0.1,0.1-0.3,0.1-0.4
		C255.6,138.6,255.6,138.4,255.5,138.1z M241.1,135.9c1.4-2.3,2.7-4.5,4.1-7c1.4,2.4,2.7,4.6,4,7H241.1z"/>
	<path class="st4" d="M139.7,241.9c-2.6-4.3-5.1-8.7-7.6-13.1c-1-1.8-2.6-2.1-3.8-1c-0.1,0.1-0.1,0.1-0.2,0.2
		c-0.1,0.1-0.2,0.2-0.3,0.3c-0.1,0.2-0.2,0.3-0.3,0.5c-2.6,4.3-5.1,8.7-7.6,13.1c-1.2,2.1-0.1,3.9,2.3,3.9h7.6c0.6,0,1.3,0,1.9,0
		c1.9,0,3.8,0,5.7,0.1c0.6,0,1.2-0.2,1.7-0.5c0,0,0,0,0.1,0C140.1,244.7,140.6,243.4,139.7,241.9z M125.8,241c1.3-2.4,2.6-4.6,4.1-7
		c1.3,2.4,2.6,4.6,4,7H125.8z"/>
	<path class="st4" d="M170,228.3c-0.1,1.2-1.2,2.1-2.3,2c-1.2,0-2.2-1-2.2-2.2v-0.8c-0.1-0.1-0.2-0.1-0.2-0.1
		c0.1-0.6,0.2-1.3,0.5-1.8c0.5-0.9,1.4-1.3,2.4-1.1s1.7,0.9,1.8,1.9C170.1,226.9,170.1,227.6,170,228.3z"/>
	<path class="st4" d="M176.6,150.2c-2.4-5.4-8.8-6.8-13.3-2.9c-4.5,3.9-9.1,7.8-13.7,11.8c-0.7,0.6-1,0.6-1.6-0.1
		c-2.3-2.6-5.2-3.5-8.5-2.6c-5.9,1.7-7.9,8.8-3.9,13.5c2,2.2,3.9,4.5,5.8,6.7c3.3,3.8,8.2,4.3,12.1,1c7-6,14-11.9,20.9-17.9
		c2-1.7,3-3.8,3.2-6.4C177.3,152.3,177.2,151.1,176.6,150.2z M171.6,156.2c-1.8,1.6-3.7,3.2-5.6,4.8c-5,4.3-10.1,8.6-15.1,12.9
		c-2.1,1.7-4.2,1.6-6-0.5c-1.9-2.1-3.8-4.3-5.6-6.5c-1.8-2.1-1.1-5,1.4-6c0.4-0.2,0.8-0.2,1.2-0.3c1.1,0,2,0.5,2.7,1.3
		c0.7,0.7,1.4,1.5,2.1,2.3c1.2,1.4,2.4,1.5,3.8,0.3c5.2-4.4,10.4-8.9,15.6-13.3c0.6-0.4,1.1-0.9,1.8-1.2c1.7-0.7,3.6-0.1,4.5,1.5
		C173.3,153,173,155,171.6,156.2z"/>
</g>
</svg>
