<?xml version="1.0" encoding="utf-8"?>
<!-- Generator: Adobe Illustrator 24.1.3, SVG Export Plug-In . SVG Version: 6.00 Build 0)  -->
<svg version="1.1" id="Layer_1" xmlns="http://www.w3.org/2000/svg" xmlns:xlink="http://www.w3.org/1999/xlink" x="0px" y="0px"
	 viewBox="0 0 200 200" style="enable-background:new 0 0 200 200;" xml:space="preserve">
<style type="text/css">
	.st0{fill:#FFFFFF;}
	.st1{display:none;}
	.st2{display:inline;fill:#222222;}
	.st3{fill:#202223;}
</style>
<circle class="st0" cx="100" cy="100" r="97.3"/>
<g class="st1">
	<path class="st2" d="M96.2-83c0.1,2,0.1,4,0.3,6c0.4,4.8,0.9,9.7,1.3,14.5c0,0.6,0,1.1,0,1.8c-1.4,0.1-2.8,0.3-4.5,0.4
		c-0.6-3-0.6-6.1-0.9-9.3c-0.6,0-1.2,0-1.8,0c-2.5,0.2-5,0.4-7.5,0.7c-1.2,0.1-1.4,0.3-1.3,1.6c0.3,2.6,0.5,5.2,0.7,8
		c-1.6,0.1-3,0.2-4.7,0.4c-0.6-7.4-1.3-14.7-1.9-22.2c1.6-0.2,3-0.3,4.6-0.5c0.3,2.9,0.5,5.7,0.8,8.8c3.4-0.3,6.8-0.6,10.4-0.8
		c0.3-2.9-0.4-5.7-0.4-8.7c1.1-0.2,2.3-0.4,3.5-0.6C95.3-83,95.7-83,96.2-83z"/>
	<path class="st2" d="M-72.5,39.3c0.3-0.4,0.7-0.9,0.9-1.3c0.5-1.1,0.9-2.1,1.5-3.4c5.9,0.3,11.9,0.7,17.9,1
		c0.1-0.1,0.1-0.2,0.2-0.3c-4.3-4-8.6-8-13.1-12.2c0.6-1.5,1.3-3.1,2-4.8c0.4,0.3,0.7,0.5,1,0.8c4.9,4.8,9.8,9.5,14.6,14.3
		c0.5,0.5,1.1,1,1.6,1.5c-0.6,1.5-1.3,2.9-1.8,4.4c-0.3,0.8-0.8,1.1-1.6,1.1c-2.8-0.1-5.6-0.2-8.4-0.3c-4.6-0.1-9.1-0.3-13.7-0.4
		c-0.3,0-0.7,0.1-1,0.1C-72.5,39.6-72.5,39.4-72.5,39.3z"/>
	<path class="st2" d="M94.8,283c-1.2-4.6-2.4-9.2-3.6-13.9c0.6,0,1.2,0,1.8,0c0.9,3.7,1.8,7.3,2.7,11c0.1,0,0.2,0,0.4,0
		c1.1-3.6,2.2-7.3,3.2-10.9c0.5,0,0.9,0,1.4,0c1,3.7,1.9,7.3,2.9,11c1.5-3.5,2.3-7.3,3.5-10.9c0.6,0,1.1,0,1.8,0
		c-0.8,2.8-1.7,5.5-2.5,8.2c-0.5,1.8-1,3.6-1.5,5.5c-0.7,0-1.3,0-2,0c-0.9-3.6-1.8-7.1-2.7-10.7c-0.5,0.6-0.7,1.1-0.9,1.7
		c-0.6,2.1-1.2,4.2-1.8,6.3c-0.2,0.9-0.4,1.8-0.6,2.7C96.2,283,95.5,283,94.8,283z"/>
	<path class="st2" d="M101.5-53c50.6,0.1,97.8,25.6,125.9,68.3c12,18.2,19.8,38.2,23.5,59.7c1.9,11,2.5,22,2,33.1
		c-2.7,59.2-37.9,109.1-87.5,132.6c-14,6.6-28.7,11-44.1,13c-9,1.2-18.1,1.7-27.1,1.2c-38.5-2.2-71.6-16.8-99-43.9
		c-22.4-22.1-36.5-49-42.7-80c-2.4-12.2-3.4-24.6-2.7-37.1C-47.5,47.7-28.5,9.6,7.3-19.7C27-35.9,49.7-46,74.8-50.6
		C83.7-52.2,92.6-52.9,101.5-53z M249.7,104.6c0-11.1-0.6-18.7-1.7-26.3c-2-13.3-5.7-26.1-11.1-38.4c-21.9-50.1-69-84.2-123-88.9
		c-11.3-1-22.6-0.7-33.8,1c-15.2,2.2-29.6,6.7-43.4,13.5C-9.4-11.8-42.8,34.9-46.6,90.6c-1,14-0.1,28,2.9,41.8
		c7.4,34.5,24.6,63.2,51.8,85.7c25.1,20.7,54,31.8,86.5,33.4c13.6,0.7,27-0.5,40.2-3.7c30.3-7.2,55.9-22.5,76.6-45.8
		C236.8,173.3,249.2,139.5,249.7,104.6z"/>
	<path class="st2" d="M213.6-15.7c-1.3-1.1-2.4-2-3.6-3c3.2-3.9,6.3-7.7,9.5-11.5c-0.1-0.1-0.1-0.2-0.2-0.3
		c-4.7,2.6-9.5,5.1-14.2,7.7c-0.5-0.4-1-0.8-1.5-1.3c1.6-5.1,3.2-10.3,4.9-15.4c-0.1-0.1-0.2-0.1-0.3-0.2c-3.1,3.8-6.3,7.6-9.5,11.5
		c-1.2-1-2.4-2-3.6-3c4.8-5.7,9.4-11.4,14.2-17.2c1.6,1.3,3.1,2.5,4.5,3.7c0.6,0.5,0.4,1.1,0.2,1.7c-0.5,1.8-1.1,3.5-1.7,5.3
		c-0.6,2-1.3,3.9-1.9,5.9c-0.1,0.4-0.2,0.7-0.3,1.5c4.4-2.4,8.5-4.6,12.7-6.9c1.6,1.3,3.3,2.7,5.1,4.2
		C223.1-27.1,218.4-21.5,213.6-15.7z"/>
	<path class="st2" d="M53.4-67.9c1.1,4.5,2.2,8.9,3.4,13.6c-1.5,0.4-2.9,0.8-4.5,1.2c-1.8-7.2-3.6-14.4-5.4-21.6
		c1.4-0.4,2.8-0.8,4.1-1c0.5-0.1,1.1,0.3,1.6,0.7c3.6,2.9,7.1,5.8,10.6,8.7c0.5,0.4,0.9,0.7,1.8,1.4c-0.9-4.8-2.3-9-3.2-13.5
		c1.5-0.4,2.8-0.7,4.4-1.2c1.8,7.2,3.6,14.3,5.5,21.6c-1.4,0.3-2.6,0.7-3.9,0.9c-0.4,0.1-1-0.3-1.4-0.6c-2.7-2.2-5.4-4.5-8.1-6.7
		c-1.5-1.2-3-2.5-4.5-3.7C53.6-68,53.5-68,53.4-67.9z"/>
	<path class="st2" d="M246.1,1.3c-3.9,2.5-7.8,5-11.8,7.6c-0.8-1.3-1.6-2.5-2.5-3.9c6.2-4.1,12.4-8,18.7-12.2
		c0.8,1.3,1.7,2.4,2.3,3.7c0.2,0.3,0,1-0.1,1.4c-1.6,4.4-3.3,8.8-4.9,13.2c-0.2,0.5-0.3,1-0.4,1.6c3.9-2.1,7.5-4.6,11.4-7
		c0.8,1.2,1.6,2.5,2.6,3.9c-6.2,4-12.4,8-18.7,12.1c-0.8-1.2-1.5-2.2-2.2-3.3c-0.4-0.6-0.1-1.1,0.1-1.6c1.7-4.4,3.4-8.9,5.1-13.3
		c0.3-0.7,0.5-1.3,0.7-2C246.3,1.5,246.2,1.4,246.1,1.3z"/>
	<path class="st2" d="M133.1-57.4c-1.6-0.4-2.9-0.7-4.5-1c1.6-7.2,3.3-14.4,5-21.7c1.6,0.3,3,0.6,4.3,1c0.4,0.1,0.7,0.8,0.9,1.3
		c1.9,4.3,3.7,8.6,5.6,12.9c0.2,0.4,0.4,0.9,1,1.3c1-4.3,2-8.6,3.1-13.1c1.5,0.3,2.9,0.7,4.5,1c-1.6,7.3-3.4,14.4-5,21.7
		c-1.4-0.3-2.7-0.5-3.9-0.9c-0.4-0.1-0.8-0.8-1-1.2c-1.5-3.5-3-7-4.5-10.5c-0.6-1.5-1.3-2.9-1.9-4.4c-0.1,0-0.3,0-0.4,0
		C135.2-66.5,134.2-62,133.1-57.4z"/>
	<path class="st2" d="M-56.1,6.4c1-1.7,2-3.3,3.1-5c7.7,1.5,15.4,3,23.3,4.5c-0.7,1.6-1.7,2.9-2.5,4.2c-0.1,0.2-0.5,0.2-0.7,0.3
		c-0.1,0-0.3-0.1-0.5-0.1c-1-0.1-2.1-0.6-2.9-0.3c-0.7,0.3-1.1,1.5-1.6,2.3c-1.1,1.7-2.1,3.4-3.2,5.1c-0.1,0.1-0.1,0.3-0.2,0.5
		c0.8,1,1.6,2.1,2.4,3.2c-0.9,1.5-1.8,2.9-2.8,4.5C-46.6,19.1-51.3,12.8-56.1,6.4z M-40.4,8.5c-3.4-0.7-6.5-1.4-10-2.1
		c2.1,2.9,4.1,5.5,6.3,8.1C-42.9,12.4-41.7,10.5-40.4,8.5z"/>
	<path class="st2" d="M117.8-82c2.3,7.6,4.6,15.1,6.9,22.8c-1.9-0.1-3.5-0.3-5.3-0.4c-0.4-1.3-0.8-2.6-1.2-3.9
		c-3.2-0.2-6.3-0.4-9.5-0.7c-0.5,1.1-1.1,2.2-1.8,3.6c-1.6-0.1-3.3-0.2-5.2-0.3c0.7-1.6,1.4-3.1,2-4.5c2.5-5.3,5-10.6,7.5-15.9
		c0.5-1,1.1-1.3,2.1-1.2C114.8-82.2,116.2-82.1,117.8-82z M114.7-77.1c-0.1,0-0.3,0-0.4,0c-1.3,2.9-2.6,5.8-4,8.9
		c2.5,0.2,4.7,0.4,7.1,0.5C116.4-70.9,115.6-74,114.7-77.1z"/>
	<path class="st2" d="M234.6-25.9c3.5,3.9,6.9,7.8,10.4,11.8c-1,0.9-2,1.8-3,2.7c-2.5-2.8-4.8-5.5-7.3-8.3c-1.2,1-2.3,2-3.6,3.1
		c2.2,2.9,4.8,5.4,7,8.2c-1,0.9-1.9,1.7-3,2.7c-2.4-2.7-4.7-5.3-7.2-8.1c-1.3,1.1-2.5,2.1-3.8,3.4c2.4,2.8,4.8,5.5,7.2,8.3
		c-1,0.9-2,1.8-3,2.8c-3.5-3.9-6.9-7.8-10.4-11.9C223.5-16.1,229-20.9,234.6-25.9z"/>
	<path class="st2" d="M176.7-42.1c3.8-6.4,7.5-12.7,11.3-19.2c4.5,2.6,9,5.3,13.6,8c-0.7,1.2-1.3,2.3-2.1,3.5
		c-3.2-1.9-6.3-3.7-9.5-5.6c-0.8,1.4-1.6,2.7-2.4,4.1c3.1,1.8,6.1,3.6,9.3,5.5c-0.7,1.2-1.3,2.3-2,3.5c-3.1-1.8-6.1-3.6-9.4-5.5
		c-0.9,1.4-1.7,2.8-2.6,4.4c3.2,1.9,6.3,3.8,9.5,5.7c-0.7,1.2-1.3,2.3-2.1,3.5C185.7-36.8,181.3-39.5,176.7-42.1z"/>
	<path class="st2" d="M29.8-63.8c0.7,1.6,1.2,2.9,1.8,4.4c3.3-1.4,6.6-2.7,10-4.1c0.5,1.3,1,2.4,1.5,3.8c-3.3,1.4-6.6,2.8-10,4.2
		c0.7,1.6,1.3,3.1,2,4.7c3.4-1.4,6.8-2.8,10.2-4.2c0.5,1.3,1,2.5,1.5,3.8c-4.9,2-9.6,4-14.5,6c-2.9-6.9-5.7-13.6-8.6-20.6
		c4.8-2,9.6-4,14.5-6.1c0.5,1.3,1,2.4,1.6,3.8C36.6-66.6,33.3-65.2,29.8-63.8z"/>
	<path class="st2" d="M6.1-56.3c0.8,1.2,1.5,2.2,2.3,3.4c-3,2.1-6,4.1-9,6.1C0-45.3,1-44.1,1.9-42.7c3-2,5.9-3.9,9-6
		c0.8,1.1,1.5,2.2,2.3,3.4c-3,2-5.9,4-8.9,6.1c0.9,1.4,1.8,2.7,2.8,4.2c3.1-2,6.1-4,9.2-6.1c0.8,1.1,1.5,2.2,2.3,3.4
		c-4.3,2.9-8.6,5.8-13,8.8C1.2-35-2.7-41.3-7-47.5C-2.6-50.4,1.7-53.3,6.1-56.3z"/>
	<path class="st2" d="M-29.4-28.3c1.2-1.1,2.3-2,3.5-3.1c1.3,1.4,2.5,2.6,3.7,3.9c1.7,1.9,3.5,3.8,5.2,5.7c3,3.3,6.2,2.1,8.2-0.2
		c1.6-1.8,1.8-3.9,0.4-5.8c-1.2-1.7-2.7-3.2-4-4.7c-1.8-2-3.6-4-5.5-6.1c1.2-1.1,2.3-2.1,3.5-3.2c1.5,1.6,2.9,3.1,4.3,4.6
		c1.5,1.7,3,3.3,4.5,5c0.8,1,1.7,2.1,2.2,3.3c1.2,2.6,0.9,5.1-0.5,7.5c-1.4,2.3-3.4,4.1-5.9,5.4c-3,1.5-7.1,1.1-9.6-1.6
		c-2.4-2.6-4.8-5.2-7.2-7.8C-27.7-26.2-28.5-27.2-29.4-28.3z"/>
	<path class="st2" d="M171.5-52.4c1,1.1,1.9,2.1,2.8,3.1c-3.4,3.2-8.4,3.3-12.9,0.4c-4.5-3-6.3-8.2-4.6-13.2c2-5.5,6.6-8.5,12.2-7.8
		c5.1,0.6,9.3,3.9,9.9,9.4c-1.4,0.1-2.8,0.2-4.3,0.4c-0.1-0.4-0.2-0.6-0.2-0.8c-1.2-5-7.2-6-10.3-3.4c-2.4,2-3.6,4.6-3,7.7
		C161.9-52.2,166.9-49.2,171.5-52.4z"/>
	<path class="st2" d="M264.1,24.5c-0.9-2.1-1.8-4-2.7-6c1.3-0.6,2.4-1.1,3.7-1.7c2.5,5.4,4.9,10.7,7.3,16.2
		c-1.3,0.6-2.4,1.1-3.7,1.7c-0.9-2-1.8-3.9-2.8-5.9c-5.5,2.5-11,5-16.5,7.5c-0.7-1.4-1.3-2.8-1.9-4.3
		C253.1,29.5,258.5,27.1,264.1,24.5z"/>
	<path class="st2" d="M-44.1-11.4c1-1.2,2-2.4,3-3.6c4.7,3.9,9.3,7.7,14,11.6c2.1-2.4,4-4.8,6.1-7.2c1.1,0.9,2,1.7,3.1,2.6
		c-3,3.6-6,7.2-9,10.9C-32.7-1.9-38.3-6.6-44.1-11.4z"/>
	<path class="st2" d="M50.9,275.6c-0.4-3.8-0.8-7.6-1.2-11.5c-0.1,0-0.3,0-0.4,0c-1,3.3-2,6.6-3,10.1c-0.5-0.2-1-0.3-1.5-0.5
		c1.3-4.4,2.6-8.8,3.9-13.2c0.6,0.2,1.1,0.3,1.6,0.4c0.6,0.2,0.9,0.6,0.9,1.2c0.2,2.7,0.5,5.3,0.8,8c0.1,0.6,0.2,1.3,0.3,2.3
		c2.5-3.1,4.8-5.9,7.2-8.8c0.7,0.2,1.4,0.5,2.3,0.7c-1.3,4.4-2.6,8.7-3.9,13.2c-0.5-0.1-1-0.2-1.6-0.4c1-3.5,2-6.9,3.1-10.7
		c-0.6,0.5-0.9,0.8-1.1,1.1c-1.9,2.4-3.9,4.8-5.8,7.2C52,275.1,51.8,275.7,50.9,275.6z"/>
	<path class="st2" d="M145.8,277.4c-0.5,0.2-0.9,0.3-1.6,0.5c-1.3-4.4-2.5-8.8-3.7-13.2c1-0.7,1.7-0.6,2.5,0.1
		c2.6,2.1,5.3,4.1,7.9,6.2c0.5,0.4,1,0.7,1.7,0.9c-0.5-1.6-0.9-3.3-1.4-4.9c-0.4-1.6-0.9-3.2-1.4-5c0.5-0.2,0.9-0.3,1.5-0.5
		c1.3,4.5,2.5,8.8,3.8,13.2c-0.9,0.7-1.6,0.6-2.4,0c-2.8-2.3-5.7-4.5-8.6-6.7c-0.3-0.3-0.7-0.5-1.3-0.6
		C143.9,270.5,144.8,273.9,145.8,277.4z"/>
	<path class="st2" d="M75.4,276.4c0-4.7,1.8-7.4,4.8-8.3c4.6-1.3,9,1.6,8.9,6.8c0,2.3-0.8,4.4-2.7,5.9c-2.3,1.7-4.9,1.9-7.4,0.6
		C76.6,280.2,75.5,278,75.4,276.4z M87.6,274.5c-0.1-0.6-0.2-1.4-0.5-2.2c-1.3-3.3-5.7-4.1-8.2-1.6c-1.2,1.2-1.7,2.7-1.7,4.2
		c-0.1,2.1,0.6,3.9,2.4,5c1.8,1.1,3.6,1.1,5.4,0C86.8,278.8,87.4,276.9,87.6,274.5z"/>
	<path class="st2" d="M167.4,264.3c-1.7,0.6-3,1.1-4.5,1.6c-0.1-0.2-0.3-0.3-0.4-0.5s-0.1-0.4-0.3-0.8c2-0.8,3.9-1.5,5.9-2.3
		c0.6,1.5,1.2,2.8,1.6,4.3c0.1,0.4,0,0.9-0.2,1.2c-1.5,2.5-3.7,3.9-6.6,3.9c-2.8,0-4.8-1.4-6.1-4c-2.4-4.7,0.3-9.9,6.2-10.5
		c1.1-0.1,2.3,0.2,3.4,1c-0.2,0.3-0.4,0.7-0.7,1.1c-0.5-0.1-0.9-0.2-1.3-0.4c-3.8-1-7.3,2.2-6.6,6c0.6,3.3,2.9,5.3,6,5.1
		c0.4,0,0.9-0.2,1.3-0.3c1.4-0.4,2.6-1.2,2.9-2.5C168.3,266.6,167.7,265.5,167.4,264.3z"/>
	<path class="st2" d="M134.5,279.9c-1.2,0.6-1.9,0.4-2.6-0.4c-0.7-0.9-1.5-1.8-2.3-2.6c-1.4-1.6-1.8-1.7-4-0.7
		c0.2,1.6,0.5,3.3,0.7,5.1c-0.5,0.1-1,0.2-1.6,0.4c-0.7-4.6-1.4-9-2.2-13.6c0.4-0.2,0.8-0.3,1.1-0.4c1.4-0.2,2.7-0.4,4.1-0.7
		c2.4-0.4,4.2,0.6,4.9,2.7c0.7,2.2,0,3.9-2.2,5.1c-0.1,0.1-0.2,0.1-0.4,0.3C131.7,276.7,133,278.2,134.5,279.9z M125.3,274.4
		c1.5-0.3,2.8-0.4,4-0.7c1.5-0.4,2.3-1.7,2-3c-0.3-1.4-1.3-2.3-2.9-2.2c-1.3,0.1-2.5,0.3-4,0.5C124.8,270.8,125,272.5,125.3,274.4z"
		/>
	<path class="st2" d="M120.8,282c-3,0.2-5.9,0.5-8.9,0.7c-0.4-4.6-0.7-9.1-1.1-13.6c0.3-0.1,0.7-0.3,1-0.3c2.4-0.2,4.8-0.4,7.2-0.6
		c0.9-0.1,1.1,0.4,0.8,1.3c-2.3,0.2-4.7,0.5-7.3,0.7c0.1,1.5,0.3,2.9,0.4,4.5c1.3-0.1,2.5-0.1,3.6-0.2c0.9-0.1,1.9-0.2,2.8-0.2
		c0.8,0,1,0.4,0.8,1.3c-2.3,0.2-4.6,0.5-7.1,0.7c0.1,1.6,0.2,3,0.4,4.6c1.1,0.4,2.2,0.1,3.3,0s2.2-0.2,3.3-0.2
		C120.8,280.6,121,281,120.8,282z"/>
	<path class="st2" d="M36.9,262.5c2.3,0.9,4.5,1.8,6.7,2.7c-0.2,0.5-0.3,0.8-0.5,1.3c-2.3-0.9-4.4-1.7-6.8-2.6
		c-0.6,1.5-1.2,2.9-1.8,4.5c2.3,0.9,4.5,1.8,6.8,2.8c-0.1,0.4-0.3,0.8-0.5,1.3c-2.8-1.1-5.6-2.2-8.4-3.3c1.7-4.3,3.4-8.5,5.1-12.8
		c2.9,0.9,5.5,2.2,8.4,3.2c-0.2,0.5-0.3,0.9-0.5,1.3c-2.3-0.9-4.6-1.7-6.9-2.6C38,259.7,37.5,261,36.9,262.5z"/>
	<path class="st2" d="M64.9,273.6c-0.4,1.8-0.8,3.5-1.2,5.3c-0.5-0.1-1-0.2-1.6-0.3c0.9-4.6,1.8-9,2.8-13.6c2.3,0.5,4.4,0.8,6.5,1.5
		c2,0.7,2.9,2.8,2.4,4.8s-2.3,3.5-4.7,3.1c-0.7-0.1-1.3-0.2-2-0.3C66.4,273.9,65.8,273.7,64.9,273.6z M65.1,272.1
		c1.5,0.3,2.7,0.6,4,0.8c1.4,0.2,2.5-0.6,2.9-1.8c0.4-1.5-0.1-2.9-1.5-3.3c-1.3-0.5-2.8-0.6-4.3-1C65.8,268.6,65.5,270.3,65.1,272.1
		z"/>
	<path class="st2" d="M140,278.8c-0.7,0.1-1.1,0.2-1.6,0.3c-1-4.5-1.9-8.9-2.9-13.4c0.5-0.2,1-0.3,1.6-0.5
		C138,269.7,139,274.1,140,278.8z"/>
	<path class="st2" d="M58.1,81.7c28.7,0,57,0,85.5,0c-0.2,0.6-0.3,1.2-0.4,1.7c-4.3,13-8.7,25.9-13,38.9
		c-8.2,24.5-16.4,49-24.6,73.6c-1.3,3.9-2.6,7.9-4,11.8c-0.1,0.4-0.4,0.9-0.7,1.3C86.5,166.6,72.3,124.3,58.1,81.7z"/>
	<path class="st2" d="M106.9,209.6c0.5-1.6,1-3.1,1.4-4.6c8.2-24.4,16.4-48.8,24.5-73.2c5.1-15.3,10.2-30.6,15.4-45.9
		c0.4-1.1,0.8-2.2,1.2-3.3c0.2-0.7,0.6-1.1,1.3-1c0.3,0,0.6,0,0.8,0c15.4,0,30.8,0,46.2,0c0.5,0,1,0,1.4,0c0.1,0.2,0.1,0.2,0.1,0.3
		s0,0.1,0,0.2c-0.1,0.2-0.3,0.5-0.4,0.7c-30.5,42.2-61,84.4-91.5,126.6C107.4,209.5,107.2,209.5,106.9,209.6z"/>
	<path class="st2" d="M94.6,209.6C63.9,167.1,33.2,124.6,2.5,82c0.6-0.6,1.2-0.4,1.8-0.4c10.9,0,21.8,0,32.7,0c4.4,0,8.8,0,13.3,0
		c1.9,0,1.9,0,2.5,1.7c6.1,18.2,12.2,36.4,18.3,54.6c6,17.8,11.9,35.6,17.9,53.3c1.9,5.6,3.7,11.2,5.6,16.7c0.2,0.5,0.2,0.9,0.4,1.4
		C94.8,209.5,94.7,209.5,94.6,209.6z"/>
	<path class="st2" d="M60.9,75.6C74.2,60.9,87.5,46.2,101,31.3c13.5,14.9,26.8,29.6,40.4,44.6c-27,0-53.6,0-80.2,0
		C61,75.8,61,75.7,60.9,75.6z"/>
	<path class="st2" d="M54.3,74.2c-6.3-8.9-12.6-17.8-19.2-27c0.5-0.3,0.9-0.5,1.3-0.9c6.8-6,13.5-12.1,20.3-18.1
		c0.8-0.8,1.7-1.1,2.8-1.1c11.8,0,23.6,0,35.4,0c0.5,0,1.1,0,1.6,0.1c0.1,0.2,0.1,0.2,0.1,0.3c0,0.1,0,0.1,0,0.2
		C82.7,43.1,68.8,58.4,55,73.8C54.9,73.8,54.7,73.9,54.3,74.2z"/>
	<path class="st2" d="M104.9,27.2c0.8-0.1,1.2-0.1,1.7-0.1c12,0,24.1,0,36.1,0c0.9,0,1.6,0.2,2.3,0.8c6.9,6.2,13.8,12.3,20.7,18.4
		c0.3,0.3,0.7,0.5,1.2,0.9c-6.5,9.1-12.8,18-19.3,27.1C133.3,58.6,119.2,43,104.9,27.2z"/>
	<path class="st2" d="M153.5,75.6c5.8-8.1,11.5-16.2,17.4-24.5c9.2,8.2,18.3,16.3,27.3,24.4c-0.1,0.2-0.1,0.3-0.2,0.3l-0.1,0.1
		c-11.2,0-22.4,0-33.6,0.1c-3.6,0-7.1,0-10.7,0C153.6,75.8,153.5,75.7,153.5,75.6z"/>
	<path class="st2" d="M3.5,75.8c9.2-8.3,18.3-16.3,27.5-24.6c6,8.2,11.7,16.3,17.5,24.5C47.1,76.1,6.2,76.1,3.5,75.8z"/>
</g>
<g>
	<path class="st3" d="M102.6,11c0.9,0.1,1.8,0.1,2.7,0.2c7.3,0.4,14.5,1.7,21.4,4c23.7,8,41,23.4,52.1,45.8c4,8,6.5,16.4,7.8,25.2
		c1,6.9,1.3,13.7,0.8,20.7c-1.9,22.8-11.1,42.3-27.6,58.1c-11.9,11.4-26.1,18.8-42.3,22.2c-7.3,1.5-14.7,2.1-22.1,1.7
		c-28.1-1.5-53.6-16.4-68.8-40.2c-6.3-9.8-10.5-20.4-12.7-31.8c-0.8-4.4-1.4-8.9-1.5-13.4c0-0.2-0.1-0.5-0.1-0.7c0-1.8,0-3.6,0-5.4
		c0-0.2,0.1-0.5,0.1-0.7c0.1-4.5,0.7-9,1.5-13.4c2-10.3,5.5-20,11-29c11-18.2,26.4-31,46.4-38.2c7.6-2.7,15.4-4.3,23.4-4.7
		c0.9-0.1,1.8-0.1,2.7-0.2C99.1,11,100.9,11,102.6,11z M180.9,102.9c0-9.2-0.7-15.5-2.1-21.7c-4.2-17.9-13.3-32.9-27.5-44.7
		C138,25.3,122.6,19.1,105.2,18c-7.4-0.5-14.8,0-22,1.6C65,23.6,50,32.8,38.2,47C26.3,61.3,20,77.9,19.2,96.4
		c-0.4,8.9,0.6,17.7,3,26.2c4.7,16.4,13.5,30.1,26.6,40.9c13.9,11.5,29.8,17.7,47.9,18.5c7.1,0.3,14.2-0.3,21.1-1.9
		c17.7-4.1,32.3-13.2,43.9-27.1C174.5,137.8,180.7,120,180.9,102.9z"/>
	<path class="st3" d="M73.2,80.8c2.5,0,5,0,7.5,0c0.1,0,0.3,0.2,0.4,0.3c0.7,2.7,1.4,5.4,2.1,8.1c0.8,3.2,1.6,6.3,2.5,9.5
		c0.8,3.2,1.7,6.5,2.5,9.7c0.5,1.7,0.9,3.4,1.4,5.3c2.7-11,5.3-21.9,7.9-32.8c17.6,0,35.2,0,52.8,0c0,2.9,0,5.7,0,8.6
		c-4.4,0-8.9,0-13.3,0c0,12.4,0,24.8,0,37.2c-3.3,0-6.5,0-9.8,0c0-12.4,0-24.8,0-37.2c-7,0-14,0-21,0c-0.7,2.5-1.4,4.9-2.1,7.4
		c-0.9,3.3-1.9,6.6-2.8,9.8c-0.7,2.4-1.4,4.8-2.1,7.3c-0.9,3-1.7,6-2.5,9c-0.3,1.1-0.7,2.3-1,3.4c-0.1,0.3-0.2,0.4-0.5,0.4
		c-3.3,0-6.6,0-9.9,0c0,0-0.1,0-0.2,0c-2.6-10.3-5.3-20.7-7.9-31.1c0,0-0.1,0-0.1,0c-0.3,1.3-0.7,2.6-1,3.9c-1,4-2.1,8.1-3.1,12.1
		c-1,3.9-2,7.8-2.9,11.7c-0.3,1-0.5,2.1-0.8,3.1c0,0.1-0.2,0.3-0.4,0.3c-3.4,0-6.8,0-10.2,0c-4.4-15.3-8.8-30.6-13.2-45.9
		c3.7,0,7.4,0,11,0c2.6,10.9,5.3,21.7,7.9,32.6c0,0,0.1,0,0.1,0C67.4,102.6,70.3,91.7,73.2,80.8z"/>
</g>
</svg>
