<?xml version="1.0" encoding="utf-8"?>
<!-- Generator: Adobe Illustrator 24.1.3, SVG Export Plug-In . SVG Version: 6.00 Build 0)  -->
<svg version="1.1" id="Layer_1" xmlns="http://www.w3.org/2000/svg" xmlns:xlink="http://www.w3.org/1999/xlink" x="0px" y="0px"
	 viewBox="0 0 400 400" style="enable-background:new 0 0 400 400;" xml:space="preserve">
<style type="text/css">
	.st0{fill:#FFFFFF;}
	.st1{fill:#EFEFEF;}
	.st2{display:none;}
	.st3{display:inline;fill:#222222;}
	.st4{fill:#222222;}
</style>
<circle class="st0" cx="200" cy="200" r="152.5"/>
<path class="st1" d="M303.9,86.3c-0.2-0.2-0.5-0.4-0.7-0.6C275.9,61,239.7,46,200,46c-8.4,0-16.6,0.7-24.6,2c-0.1,0-0.2,0-0.3,0.1
	c-18.7,3.3-36.1,9.8-52.4,19.7C77.6,95.2,48.2,144.6,48.1,201c0,10.6,1.2,22.4,3.4,32.4c6.7,30.8,21.2,57.5,43.9,79.4
	c2.6,2.5,5.3,5,8.1,7.3c0.1,0.1,0.1,0.1,0.2,0.2c26.4,21.2,59.9,33.8,96.3,33.8c71,0,130.7-48,148.6-113.3c3.5-13,5.4-26.6,5.4-40.7
	C354,155,334.7,114.5,303.9,86.3z M222.1,268.3c-1,1.8-2.9,2.6-4.9,2.1c-1-0.3-2-0.7-3-1.1c-10.1-3.8-20.1-7.6-30.2-11.4
	c-0.4-0.1-0.8-0.3-1.2-0.7c0.3,0,0.7-0.1,1,0c8.5,1.7,17.1,3.3,25.6,5.2c4.6,1.1,9.8-1.5,10.9-7.3c3.7-18.7,7.5-37.4,11.2-56.1
	c2.4-12.3,4.8-24.6,7.3-36.9c0.1-0.6,0.3-1.2,0.5-2c0.6,0.2,0.9,0.3,1.2,0.1c5.1,1.9,10.2,3.9,15.3,5.8c1.9,0.8,3.2,2,3.3,4.1
	c0.1,1-0.2,2.1-0.6,3.1c-3.1,8.3-6.3,16.6-9.5,24.9c-8.7,22.8-17.4,45.5-26.1,68.3C222.7,267.1,222.4,267.7,222.1,268.3z M135.1,247
	c-2.6-0.1-4.3-1.8-4.5-4.5V141.9c0-4,1.8-6.1,6-6.1c20.2,0.1,40.3,0,60.4,0h1.5c2.7,0.1,4.3,1.8,4.5,4.5v100.4c0,0.7,0,1.5-0.1,2.2
	c-0.2,2.3-1.9,3.9-4.2,4.1L135.1,247L135.1,247z M175.3,251.2h22.5c1.5,0,3-0.2,4.4-0.9c3-1.5,4.6-4,4.8-7.4v-98.3
	c0.6,0,0.9,0,1.3,0.1c8,1.6,16,3.2,24,4.8c3,0.7,4.4,2.8,3.8,5.9c-2.1,10.5-4.2,21.1-6.3,31.6c-3,14.9-5.9,29.8-8.9,44.7
	c-1.5,7.6-3,15.2-4.5,22.8c-0.7,3.3-2.8,4.7-6.2,4c-7.8-1.6-15.6-3.1-23.4-4.7c-3.3-0.6-6.6-1.2-9.9-1.9c-0.6-0.1-1.1-0.3-1.6-0.4
	L175.3,251.2L175.3,251.2z"/>
<g class="st2">
	<path class="st3" d="M354,205.7c-0.1,1.6-0.2,3.1-0.3,4.7c-0.8,13.6-3.2,26.9-7.6,39.7c-14.4,42-41.6,72.7-81.7,91.9
		c-12.9,6.2-26.6,10.1-40.7,12.2c-10,1.5-20,2-30,1.4c-31.8-1.8-60.3-12.4-85.3-32c-27.7-21.8-45.8-49.9-54.7-84
		c-2.5-9.6-3.9-19.3-4.5-29.2c-0.6-9.2-0.3-18.4,0.8-27.6c3.4-28.5,13.7-54.3,31.3-77.1c20-25.8,45.6-43.6,76.9-53.2
		c10.3-3.1,20.9-5.1,31.6-5.9c46.3-3.5,91.2,14.1,122.7,48.2c18.8,20.4,31.3,44.1,37.6,71.1c2.2,9.6,3.5,19.3,3.8,29.1
		c0,0.4,0.1,0.8,0.1,1.2C354,199.4,354,202.6,354,205.7z M350.6,199.7c-0.2-3.4-0.4-8.2-0.8-12.9c-0.7-9.1-2.4-18-4.8-26.8
		c-12.1-43.7-42.8-78.9-81.9-96.9c-17.5-8-35.9-12.5-55.1-13.3c-13.4-0.6-26.7,0.5-39.8,3.6c-31.2,7.4-57.4,23.2-78.4,47.4
		c-23.9,27.5-36.1,59.7-37.3,96.1c-0.5,14.9,1.2,29.7,5.2,44.1c8.4,30.8,24.8,56.6,49.3,77c25.6,21.3,55.1,32.7,88.4,34.2
		c13.9,0.6,27.5-0.7,41-4c31.1-7.7,57.1-23.8,77.9-48.2C338.3,271.5,350.1,238.3,350.6,199.7z"/>
	<path class="st3" d="M46,100.5c0.7-1,1.5-2,2.2-2.9c1.8-2.5,3.5-5.2,5.6-7.5c2.1-2.5,5.7-2.8,8.2-0.5c1.6,1.5,2,3.2,1.6,5.2
		c0.9-0.3,1.8-0.5,2.7-0.8c1.5-0.5,2.9,0.2,4,1c1.3,0.9,2.2,2.1,2.5,3.8c0.3,1.7-0.2,3.2-1.1,4.5c-2.3,3.4-4.7,6.7-7.1,10
		c-0.3,0.4-0.5,0.3-0.8,0.1c-3-2.2-6-4.4-9.1-6.5c-2.8-2-5.6-4.1-8.5-6.1c-0.1-0.1-0.2,0-0.3-0.1C46,100.7,46,100.6,46,100.5z
		 M63.8,107.5c0.5-0.6,0.9-1.2,1.3-1.7c0.9-1.4,1.9-2.7,2.8-4.1c0.6-1.1,0.3-2.5-0.7-3.1c-1.1-0.7-2.3-1.1-3.4,0.2
		c-1.5,1.8-2.8,3.7-4.3,5.6C61,105.4,62.4,106.5,63.8,107.5z M56.2,101.9c0.1-0.1,0.3-0.2,0.4-0.4c1-1.4,2.1-2.8,3.1-4.3
		c0.4-0.6,0.7-1.3,0.7-2c-0.1-1-0.7-1.8-1.7-2.2c-0.9-0.3-2,0-2.7,0.9c-1.2,1.5-2.3,3.1-3.4,4.7c-0.2,0.3-0.2,0.6,0.1,0.8
		C53.8,100.3,55,101.1,56.2,101.9z"/>
	<path class="st3" d="M195.3,15.9c1,0.2,2,0.4,2.9,0.7c4.2,1.4,6.7,4.4,7.5,8.8c0.6,3.1,0.1,6.1-1.6,8.8c-1.8,2.8-4.4,4.3-7.6,4.8
		c-3.4,0.6-6.6,0.1-9.4-2c-2.5-1.8-3.9-4.3-4.4-7.3c-0.4-2.4-0.2-4.8,0.8-7.1c1.2-2.7,3.1-4.6,5.8-5.7c1.2-0.5,2.5-0.6,3.8-0.9
		c0.1,0,0.2-0.1,0.2-0.2C193.9,15.9,194.6,15.9,195.3,15.9z M201.1,27.5c0-0.3-0.1-0.8-0.2-1.3c-0.5-4.2-4.5-6.9-8.9-5.6
		c-2.7,0.8-4.1,2.9-4.5,5.7c-0.4,3.1,0.3,5.6,2.8,7.6c1.9,1.5,5.4,1.6,7.4,0.3C200,32.7,201,30.4,201.1,27.5z"/>
	<path class="st3" d="M199.8,384.1c-1.1-0.5-2.1-0.9-3.2-1.4c-0.1,0-0.2-0.1-0.3-0.2c-0.8-0.7-0.8-0.7-0.1-1.5
		c0.1-0.1,0.2-0.3,0.3-0.4c0.7,0.5,1.4,1.1,2.2,1.4c1.4,0.6,2.9,0.9,4.4,0.1c0.8-0.4,1.3-1,1.3-2c0-0.9-0.6-1.5-1.3-1.8
		c-1.4-0.6-2.8-1-4.2-1.5c-1.3-0.5-2.4-1.2-2.6-2.7c-0.3-2,0.6-3.4,2.5-4.1c2.4-0.9,5.7-0.3,7.3,1.7c-0.4,0.4-0.7,0.7-1.1,1.2
		c-0.9-1.1-2.1-1.5-3.5-1.7c-1-0.2-1.9,0-2.7,0.6c-1,0.8-1.3,2.2,0.2,3.1c0.8,0.5,1.8,0.7,2.7,1c0.7,0.2,1.4,0.4,2,0.7
		c2,0.8,2.7,2.5,2.5,3.8c-0.3,1.9-1,2.9-3.3,3.6c-0.1,0-0.3,0.1-0.4,0.2C201.6,384.1,200.7,384.1,199.8,384.1z"/>
	<path class="st3" d="M339.4,100.3c3.8-3,7.4-5.8,11.1-8.7c1,1.3,2,2.5,2.9,3.8c-5.9,4.6-11.7,9.2-17.7,13.8
		c-0.4-0.4-0.8-0.9-1.1-1.3c-0.3-0.4-0.7-0.9-1-1.3c-0.5-0.6-0.8-1.1-0.5-2c1.6-5.4,3.1-10.8,4.6-16.2c0,0,0-0.1-0.1-0.2
		c-3.8,3-7.6,6-11.4,8.9c-1-1.3-2-2.5-2.9-3.7c5.9-4.6,11.8-9.2,17.7-13.9c0.9,1.2,1.8,2.3,2.7,3.5c0.2,0.2,0.3,0.6,0.2,0.8
		c-1.4,5.3-2.9,10.5-4.4,15.7C339.5,99.7,339.5,99.9,339.4,100.3z"/>
	<path class="st3" d="M178.7,40.1c-1.4,0.3-2.7,0.4-4,0.9c-1.6,0.6-2.1-0.6-2.8-1.4c-1.2-1.4-2.5-2.7-3.5-4.2
		c-0.8-1.3-1.8-1.1-2.9-0.8c-0.5,0.1-1,0.2-1.6,0.4c0.5,2.6,1.1,5.2,1.6,7.8c-1.4,0.3-2.8,0.6-4.2,0.9c-0.2,0-0.5-0.3-0.6-0.5
		c-0.9-4.6-1.8-9.1-2.7-13.7c-0.5-2.4-1-4.8-1.5-7.2c0-0.2,0-0.3,0-0.6c2.7-0.5,5.3-1.1,8-1.6c1.2-0.2,2.3-0.6,3.5-0.6
		c2.3-0.1,4.4,0.5,6,2.4c1.7,2,2.5,5.8,1,8.2c-0.6,0.9-1.4,1.7-2.3,2.4c-0.5,0.4-0.5,0.6-0.1,1c1.3,1.4,2.6,2.8,3.9,4.3
		C177.1,38.4,177.8,39.2,178.7,40.1z M161.9,24.8c0.4,2,0.8,4,1.2,6c0.5-0.1,1.1-0.2,1.6-0.3c1.5-0.4,3.1-0.7,4.5-1.2
		c1.5-0.5,2-2.1,1.4-3.7c-0.4-1.2-2.2-2.1-3.5-1.8C165.4,24.1,163.7,24.4,161.9,24.8z"/>
	<path class="st3" d="M319,85c-6.4,0.1-12.3-5.8-12.1-12.1c0.2-6.2,5.4-11.7,11.8-11.6c6.4,0.1,11.9,5.5,12,11.9
		C330.7,79.5,325.2,84.9,319,85z M311.6,73.8c-0.3,3.5,3.3,6.8,6.8,6.7c3.3-0.1,6.6-3,7.4-6.5c1-4.2-2.8-8.8-7.8-8
		C314.8,66.5,311.4,70.1,311.6,73.8z"/>
	<path class="st3" d="M240.4,29.6c3.5,0.9,7,1.7,10.6,2.6c-0.3,1.2-0.6,2.4-0.9,3.6c-0.1,0.5-0.5,0.4-0.8,0.3
		c-3.3-0.8-6.6-1.6-9.9-2.4c-0.4,1.7-0.8,3.3-1.2,5c3.4,0.8,6.7,1.6,10.1,2.4c0.5,0.1,0.7,0.2,0.5,0.8c-0.3,1.1-0.5,2.2-0.8,3.4
		c-1.4-0.3-2.7-0.6-4.1-1c-3.6-0.9-7.2-1.8-10.8-2.6c-0.4-0.1-0.5-0.2-0.4-0.7c0.9-3.6,1.8-7.3,2.7-10.9c0.8-3.5,1.7-7,2.5-10.4
		c5,1.2,9.9,2.4,14.9,3.6c0.5,0.1,0.6,0.3,0.5,0.8c-0.3,1-0.5,1.9-0.7,2.9c-0.1,0.5-0.2,0.6-0.7,0.4c-3.2-0.8-6.4-1.5-9.6-2.3
		c-0.6-0.2-0.8,0-0.9,0.6C241.1,27,240.7,28.3,240.4,29.6z"/>
	<path class="st3" d="M79,88.2c2.7-2.8,5.3-5.5,8-8.4c0.9,1.1,1.7,2.1,2.7,3.2c-3.4,3.6-7,7.4-10.7,11.3c-0.1-0.1-0.2-0.1-0.3-0.2
		c-1.7-1.6-3.4-3.3-5.1-4.9c-2.6-2.5-5.1-4.9-7.7-7.4c-1.1-1-2.1-2-3.3-3c3.7-3.9,7.3-7.7,11-11.5c1,0.9,2.1,1.9,3.1,2.8
		c-2.6,2.7-5.1,5.4-7.4,7.7c1,1.3,2,2.5,3,3.7c2.7-2.8,5.1-5.4,7.6-7.9c1,0.9,2,1.9,3.1,2.8c-2.5,2.7-5,5.3-7.5,7.9
		C76.7,85.7,77.8,86.9,79,88.2z"/>
	<path class="st3" d="M90.8,73.3c2.1,0.2,4.1-0.2,5.9-1.3c1-0.6,1.9-1.5,2.7-2.4c0.6-0.6,0.8-1.5,0.5-2.4c-0.4-0.9-1.2-1.4-2.2-1.1
		c-1.2,0.4-2.3,0.9-3.5,1.3c-1.7,0.6-3.4,1.4-5.2,1.9c-3.4,0.8-6.2-1.7-6.9-4.6c-0.6-2.7,0.4-4.9,2.2-6.9c1.8-1.9,3.9-3.2,6.4-3.9
		c1.2-0.3,2.4-0.4,3.8-0.6c0,1.6,0,3.1,0,4.5c-2.9,0.1-5.5,0.9-7.5,3.3c-1.1,1.3-0.6,3.1,0.8,3.3c0.6,0.1,1.3-0.2,1.9-0.4
		c1.8-0.7,3.5-1.5,5.3-2.2c2-0.8,4-1.1,6-0.1c2.4,1.3,4.2,4.7,3.3,7.7c-0.8,2.3-2.3,4-4.2,5.5c-1.6,1.3-3.5,2.3-5.5,2.7
		c-1.1,0.2-2.2,0.2-3.3,0.3c-0.2,0-0.5-0.2-0.5-0.4C90.8,76,90.8,74.6,90.8,73.3z"/>
	<path class="st3" d="M131.8,29.6c2.9-1,5.7-2,8.5-3c1.6-0.6,3.1-1.2,4.8-1c2,0.2,3.7,1,5,2.6c1.1,1.5,1.7,3.1,1.6,4.9
		c-0.1,2.7-1.3,4.7-3.7,5.9c-2.2,1.1-4.5,1.8-6.9,2.7c0.9,2.4,1.7,4.9,2.6,7.5c-1.5,0.5-3,1.1-4.5,1.6
		C136.8,43.8,134.3,36.7,131.8,29.6z M139.8,37.8c1.9-0.7,3.8-1.4,5.6-2.2c1.3-0.6,1.9-2.3,1.3-3.7c-0.5-1.2-1.6-2.2-3.2-1.8
		c-1.8,0.5-3.6,1.1-5.4,1.7c-0.1,0-0.3,0.3-0.2,0.4C138.4,34.1,139.1,35.9,139.8,37.8z"/>
	<path class="st3" d="M278.7,38.4c-1.5,0.1-3,0.2-4.4,0.4c-0.6-2.7-2-4.6-4.7-5.3c-2.2-0.6-4.1-0.2-5.9,1.2c-2.6,2-3.8,5.6-2.7,8.7
		c1.2,3.5,5.2,5.6,8.8,4c0.5-0.2,0.9-0.6,1.4-0.9c1,1.1,2,2.2,3,3.3c-3.8,3.1-8.6,3.5-13.5,0.1c-4.4-3.1-6-8-4.2-13.3
		c0.9-2.5,2.4-4.6,4.7-6c1.9-1.2,4-1.9,6.2-1.7C274.5,29.4,277.9,33.2,278.7,38.4z"/>
	<path class="st3" d="M218.6,21.2c-2.2-0.2-4.3-0.5-6.5-0.7c0.1-1.3,0.3-2.7,0.4-4.2c5.9,0.6,11.8,1.3,17.8,1.9
		c-0.1,0.8-0.1,1.6-0.2,2.4c0,0.3-0.1,0.7-0.1,1c0.1,0.8-0.3,0.9-0.9,0.8c-1.7-0.2-3.5-0.5-5.2-0.6c-0.2,0-0.6,0.4-0.6,0.6
		c-0.2,1.2-0.2,2.4-0.4,3.6c-0.2,1.9-0.4,3.8-0.6,5.7c-0.1,1.3-0.2,2.5-0.4,3.8c-0.2,1.5-0.3,3-0.5,4.4c-1.6-0.2-3.1-0.3-4.8-0.5
		C217.3,33.3,218,27.3,218.6,21.2z"/>
	<path class="st3" d="M114,38c0.7,1.2,1.4,2.4,2.1,3.6c-1.7,1-3.3,2-4.9,3c-0.5,0.3-0.6,0.4-0.3,1c3,5,6,10,9.1,15.1
		c-1.3,0.8-2.7,1.6-4.1,2.5c-1.2-2-2.3-3.9-3.5-5.8c-1.9-3.1-3.7-6.2-5.6-9.3c-0.2-0.4-0.5-0.5-0.9-0.3c-1.7,1-3.4,2.1-5,3.1
		c-0.7-1.2-1.5-2.4-2.2-3.6C103.7,44.2,108.8,41.1,114,38z"/>
	<path class="st3" d="M284.9,61.7c-1.4-0.8-2.8-1.6-4.1-2.4c3.1-5.3,6.1-10.5,9.2-15.8c-1.9-1.1-3.8-2.2-5.7-3.3
		c0.7-1.2,1.4-2.4,2.1-3.6c5.2,3,10.3,6,15.5,9c-0.7,1.2-1.4,2.4-2.1,3.6c-1.9-1.1-3.7-2.1-5.7-3.3C291,51.2,288,56.5,284.9,61.7z"
		/>
	<path class="st3" d="M307.5,49.7c1.3,0.9,2.6,1.9,3.9,2.8c-2.9,4.1-5.8,8.1-8.7,12.2c-1.3,1.8-2.6,3.7-4,5.5
		c-0.3,0.4-0.6,0.5-1.1,0.1c-0.9-0.7-1.8-1.4-2.7-2c-0.4-0.3-0.4-0.5-0.1-0.9c1.3-1.8,2.6-3.6,3.9-5.4c2-2.7,3.9-5.5,5.9-8.2
		C305.5,52.4,306.5,51.1,307.5,49.7z"/>
	<path class="st3" d="M214.4,369.4c2.3-0.2,4.5-0.5,6.8-0.6c1.8-0.1,3.1,0.8,3.5,2.5c0.4,1.3,0.1,3.2-1.7,3.9c0,0,0,0.1-0.1,0.2
		c1.4,0.3,2.4,1.2,2.8,2.6c0.5,2.4-0.4,4-2.7,4.5c-2.2,0.5-4.5,0.6-6.7,0.9c-0.2,0-0.5-0.4-0.6-0.6c-0.3-2.3-0.5-4.6-0.7-7
		c-0.2-1.8-0.4-3.6-0.7-5.4C214.4,370.1,214.4,369.8,214.4,369.4z M217.4,381.6c1.5-0.1,2.8-0.3,4.2-0.4c1.4-0.2,2.5-0.9,2.4-2.7
		c-0.1-1.3-1.2-2.3-2.5-2.2c-1.5,0.1-3.1,0.3-4.7,0.5C217,378.5,217.2,380,217.4,381.6z M216.2,370.8c0.2,1.6,0.4,3,0.5,4.5
		c1.5-0.2,2.9-0.3,4.3-0.5c1.2-0.1,2.2-1.2,2.1-2.3c-0.1-1.4-1.3-2.4-2.6-2.3C219.1,370.4,217.7,370.6,216.2,370.8z"/>
	<path class="st3" d="M180.4,374.1c0,2.9-1,5.1-3.2,6.6c-4,2.8-10.3,0.2-10.7-5c-0.2-2.6,0.4-4.8,2.2-6.6c1.9-1.9,4.2-2.1,6.6-1.5
		C178.4,368.3,180.6,371,180.4,374.1z M173.5,368.8c-1.3-0.1-2.5,0.4-3.3,1.2c-1.7,1.8-2.4,4-1.7,6.4c0.9,3.5,5,4.9,7.7,2.9
		c2.1-1.5,2.6-3.7,2.4-6.1C178.3,370.5,176,368.8,173.5,368.8z"/>
	<path class="st3" d="M250.7,377.1c-3,0.8-6,1.5-8.9,2.3c-1.1-4.3-2.2-8.7-3.3-13c-0.1-0.5,0-0.6,0.4-0.7c2.8-0.7,5.5-1.4,8.3-2.1
		c0.1,0.5,0.2,1,0.3,1.5c-2.4,0.6-4.8,1.2-7.2,1.9c0.4,1.3,0.7,2.6,1,3.9c0.1,0.4,0.3,0.5,0.7,0.4c2.2-0.6,4.3-1.1,6.5-1.7
		c0.1,0.5,0.3,1,0.4,1.5c-2.4,0.6-4.7,1.2-7.1,1.8c0.4,1.6,0.8,3.1,1.2,4.7c2.4-0.6,4.7-1.2,7.2-1.8
		C250.4,376.1,250.5,376.5,250.7,377.1z"/>
	<path class="st3" d="M182.3,381c0.3-0.4,0.7-0.8,1-1.3c1.4,1.9,4.1,2.8,6.1,2.2c0.8-0.3,1.5-0.8,1.7-1.7c0.2-1-0.1-1.8-1.1-2.2
		c-1.2-0.5-2.4-1-3.6-1.6c-0.7-0.4-1.5-0.8-2.1-1.3c-1.7-1.4-1.1-4.2,0.8-5.3c2.3-1.4,6.4-0.6,8.1,1.6c-0.4,0.4-0.7,0.7-1.1,1.1
		c-1.3-1.6-3.1-2.1-5.1-1.8c-1,0.1-1.8,0.9-1.9,1.8c-0.1,0.8,0.6,1.6,1.6,2.1c1.5,0.6,3,1.2,4.5,2c1.4,0.7,1.8,2,1.7,3.5
		c-0.2,1.3-0.9,2.4-2.1,3C188.2,384.3,184,383.4,182.3,381z"/>
	<path class="st3" d="M156.5,363.6c2.1,0.6,4,1,5.8,1.6c1.9,0.6,3.2,2.3,3,4c-0.4,2.7-1.5,4-4,4.2c-1.1,0.1-2.3-0.4-3.5-0.7
		c-1.8-0.4-1.8-0.5-2.3,1.2c-0.4,1.2-0.6,2.5-1,3.7c-0.5-0.1-1.1-0.2-1.7-0.4C154.1,372.7,155.3,368.2,156.5,363.6z M156.4,370.7
		c1.3,0.3,2.5,0.5,3.6,0.9c1.4,0.4,2.8-0.3,3.3-1.7c0.5-1.5-0.2-3-1.8-3.4c-1.2-0.4-2.4-0.6-3.8-1
		C157.3,367.2,156.9,368.9,156.4,370.7z"/>
	<path class="st3" d="M231.6,379.7c1.5-0.3,2.9-0.5,4.4-0.8c0.3-0.1,0.7-0.1,1-0.2c1.1-0.3,1.4,0,1.3,1c0,0.1-0.2,0.3-0.4,0.4
		c-2.5,0.5-5,0.9-7.5,1.4c-0.1,0-0.2,0-0.3,0c-0.8-4.5-1.7-9.1-2.5-13.7c0.6-0.1,1.1-0.2,1.7-0.3
		C230.1,371.5,230.8,375.6,231.6,379.7z"/>
	<path class="st3" d="M209.1,369.6c0.6,0,1.1,0,1.7,0c0.1,1,0.2,2,0.2,3c0.1,1.8,0.1,3.5,0.2,5.3c0.1,1.7,0.2,3.3,0.3,5
		c0,0.2,0,0.4,0,0.6c-0.6,0-1,0-1.7,0C209.5,378.9,209.3,374.3,209.1,369.6z"/>
	<path class="st3" d="M133.1,123.9c5.5,4.4,11.4,7.5,17.8,9.8c7.3,2.6,14.8,3.6,22.6,2.7c10.2-1.3,19.1-5.4,27.2-11.7
		c0.2-0.1,0.4-0.3,0.5-0.4c0.3-0.4,0.5-0.3,0.9,0c4.6,3.9,9.8,6.8,15.3,9c3.5,1.4,7.1,2.4,10.8,3s7.5,0.7,11.2,0.3
		c10.3-1,19.5-4.7,28-10.6c0.9-0.6,1.7-1.3,2.7-2c0,0.4,0.1,0.6,0.1,0.9c0,31.9,0,63.8-0.1,95.7c0,4.7-0.6,9.3-1.5,13.9
		c-2.2,11.3-7.6,20.9-15,29.6c-9.9,11.6-21.9,20.5-35.8,26.9c-5,2.3-10.2,4.3-15.6,5.7c-0.4,0.1-1,0.1-1.4,0c-5-1.3-9.8-3-14.4-5.1
		c-14.3-6.4-26.7-15.5-36.9-27.5c-5.4-6.3-9.8-13.2-12.6-21.1c-1.4-3.9-2.3-7.9-2.9-11.9c-1-6.8-1-13.7-1-20.6c0-28.5,0-57,0-85.4
		C133,124.7,133.1,124.4,133.1,123.9z"/>
</g>
<g>
	<path class="st4" d="M19.9,159.6c0.3-0.8,0.7-1.5,0.9-2.3c0.8-2.7,2.3-4.9,4.7-6.5c0.9,1.1,1.8,2.1,2.5,3c-1,1.5-2.1,2.8-3,4.3
		c-0.4,0.7-0.7,1.7-0.8,2.6c-0.1,0.7,0.1,1.5,0.4,2.1c0.6,1.2,1.8,1.3,2.6,0.3c1-1.3,1.7-2.8,2.6-4.1c0.7-1.1,1.4-2.3,2.1-3.4
		c1.5-2.1,3.6-2.7,6.1-2.2c2.4,0.5,4.2,2,5,4.3c1.5,4.6-1.1,11.6-5.2,14.2c-0.1,0.1-0.2,0.1-0.5,0.1c-0.9-1-1.8-2-2.6-2.9
		c1.2-1.4,2.3-2.5,3.2-3.9c1-1.4,1.4-3.1,1.2-4.8c-0.1-0.5-0.3-1.1-0.6-1.5c-0.7-1-1.7-1.1-2.6-0.3c-0.7,0.7-1.2,1.6-1.7,2.5
		c-0.7,1.2-1.2,2.4-1.9,3.6c-0.4,0.6-0.8,1.2-1.2,1.8c-3,3.7-8.6,2.5-10.3-1.5c-0.3-0.6-0.7-1.3-1-1.9
		C19.9,161.9,19.9,160.7,19.9,159.6z"/>
	<path class="st4" d="M380.1,158.9c-0.3,0.8-0.6,1.6-1,2.6c-1.4-0.5-2.6-1-4-1.5c0.6-1.8,1.1-3.6,0.8-5.5c-0.1-0.9-0.3-1.8-0.7-2.6
		c-0.3-0.6-0.8-1.1-1.4-1.4c-0.9-0.5-2,0-2.3,1c-0.2,0.7-0.3,1.5-0.3,2.3c0,1.8,0,3.6,0,5.4c-0.2,5.1-5.2,8.1-9.6,5.5
		c-1.1-0.6-2.1-1.6-2.7-2.7c-2-3.5-2.7-7.3-1.5-11.3c0.2-0.7,0.6-1.3,0.9-2.2c1.4,0.5,2.7,1,4.1,1.5c-0.9,1.9-1.5,3.8-1.3,5.8
		c0.2,1.6,0.5,3.1,1.6,4.3c0.6,0.7,1.3,1.1,2.3,0.8c0.9-0.3,1.2-1,1.3-1.8c0.1-1.2,0.1-2.4,0.1-3.7c-0.1-1.9,0.1-3.8,0.6-5.7
		c1-3.7,5.6-5.2,8.8-3.2c2.1,1.3,3.4,3.2,4,5.6c0.1,0.4,0.3,0.7,0.4,1C380.1,155.1,380.1,157,380.1,158.9z"/>
	<path class="st4" d="M211.7,15.9c0.8,0.1,1.6,0.3,2.4,0.4c0.6,0.1,1.2,0.2,2,0.3c-0.2,6.1-1.2,12-1.5,18.1c3.2,0.3,6.2,0.6,9.4,1
		c-0.1,1.3-0.2,2.6-0.3,4.1c-4.7-0.4-9.4-0.8-14.2-1.3c0.2-2.1,0.3-4.1,0.5-6.1c0.4-4.9,0.9-9.8,1.3-14.7c0-0.6,0-1.1,0-1.7
		C211.4,15.9,211.6,15.9,211.7,15.9z"/>
	<path class="st4" d="M200.2,369.7c-0.8,0-1.5,0.1-2.1,0.1c-1.9,4.7-3.9,9.1-5.7,13.8h1.8c0.5-1,0.9-2,1.4-3h6
		c0.7,0,1.1,0.3,1.3,0.9c0.2,0.9,0.5,1.7,0.7,2.6c0.6,0,1.3,0,2-0.1C204,379.2,202.1,374.5,200.2,369.7z M195.9,379.2
		c1.1-2.5,2-4.9,3-7.2h0.4c0.9,2.3,1.7,4.6,2.6,7.2C199.9,379.3,198,379.3,195.9,379.2z"/>
	<path class="st4" d="M350.7,169.8c-5.9-28.8-18.6-54.1-38.8-75.5c-2.6-2.8-5.3-5.4-8-8c-0.2-0.2-0.5-0.4-0.7-0.6
		C277,61.6,245.7,48.3,209.3,46c-10.9-0.7-21.7,0-32.4,1.7c-0.5,0.1-1,0.2-1.5,0.3c-0.1,0-0.2,0-0.3,0.1
		c-18.7,3.3-36.1,9.8-52.4,19.7C77.6,95.2,48.2,144.6,48.1,201c0,10.6,1.2,22.4,3.4,32.4c6.7,30.8,21.2,57.5,43.9,79.4
		c2.6,2.5,5.3,5,8.1,7.3c0.1,0.1,0.1,0.1,0.2,0.2c25.3,21.3,54.8,33.1,88.4,35.2c10.7,0.7,21.3,0.1,31.9-1.5
		c16.7-2.6,32.5-7.8,47.4-15.7c37.6-19.9,66-55,77.2-97.5c2.5-9.6,4.2-19.6,4.8-29.9C354.3,197,353.5,183.3,350.7,169.8z
		 M349.7,211.1c-2.2,32.6-13.5,61.6-34.3,86.8c-21.6,26.3-49.2,43.3-82.4,50.9c-10.6,2.5-21.3,3.6-32.2,3.6
		c-41.4-0.7-76.9-15.5-105.9-45c-20.7-21-33.8-46.2-40-75c-3-13.8-3.8-27.7-2.9-41.8c1.6-24.2,8.3-46.8,20.8-67.5
		c20.7-34.3,50.3-57.3,89-68.4c10-2.9,20.2-4.5,30.6-5c42.7-2,79.8,11.7,110.8,41.1c23.2,21.9,37.7,49,44,80.3
		C349.9,184.3,350.6,197.7,349.7,211.1z"/>
	<path class="st4" d="M149.7,31.7c1.2,4.5,2.4,9,3.6,13.7c-1.6,0.4-2.9,0.8-4.5,1.2c-2-7.2-3.9-14.4-5.8-21.6
		c1.4-0.4,2.7-0.8,4.1-1.2c0.7-0.2,1.2,0.3,1.6,0.7c3.1,2.5,6.2,5,9.4,7.4c1,0.8,2,1.5,3.3,2.1c-1.2-4.3-2.3-8.6-3.5-13.1
		c1.6-0.4,3-0.8,4.5-1.2c1.9,7.2,3.9,14.4,5.8,21.6c-1.6,0.4-3,0.8-4.4,1.2c-4.6-3.7-9.2-7.4-13.8-11.1
		C149.9,31.5,149.8,31.6,149.7,31.7z"/>
	<path class="st4" d="M345.5,85.7c-2.2-3.1-4.7-5.9-7.2-9c-5.9,4.9-11.6,9.6-17.4,14.5c1.1,1.2,2.1,2.3,3.1,3.5
		c2.2-1.7,4.1-3.3,6.2-5c0.8,1,1.5,1.9,2.2,2.8c-1.1,2.9-2.2,5.7-3.3,8.5c1.1,1.3,2.2,2.6,3.4,4c1.2-3.2,2.3-6.1,3.3-8.9
		c1.5,0.3,2.9,1,4.2,0.9c2.9-0.2,5-1.9,6.3-4.5C347.5,90.1,347,87.7,345.5,85.7z M341.1,91.4c-1,1-2.2,1.1-3.4,0.4
		c-0.3-0.2-0.6-0.4-0.9-0.7c-1.1-1.3-2.2-2.6-3.5-4.1c1.7-1.4,3.2-2.6,4.6-4c1.5,1.6,2.9,3.1,3.9,4.9
		C342.5,89.2,342.2,90.4,341.1,91.4z"/>
	<path class="st4" d="M129.1,31.2c-6.1-0.1-12.4,4.7-12.4,11.4c0,6.1,5,12.3,11.4,12c6.7,0,12.2-5.1,12.2-11.4
		C140.4,36.7,135.2,31.3,129.1,31.2z M131.3,49.8c-2.7,1.1-5.5,0.6-7.4-1.5c-1.8-2.1-2.9-4.5-2.3-7.4c0.5-2.8,2.4-4.4,5-5.1
		c2.6-0.7,4.7,0,6.5,1.8c1.7,1.6,2.4,3.7,2.5,5.1C135.5,46.4,133.9,48.8,131.3,49.8z"/>
	<path class="st4" d="M245.7,21.5c-2-0.4-3.9-0.9-5.8-1.3c-4.5,6.7-9,13.2-13.5,19.9c1.9,0.4,3.6,0.8,5.2,1.2
		c0.8-1.2,1.5-2.2,2.3-3.4c3.3,0.7,6.4,1.5,9.4,2.2c0.2,1.4,0.4,2.7,0.6,4c0.9,0.2,1.7,0.4,2.5,0.6c0.8,0.1,1.7,0.3,2.6,0.5
		C247.9,37.2,246.8,29.4,245.7,21.5z M236.1,34.1c1.9-2.9,3.7-5.6,5.4-8.3c0.1,0,0.2,0.1,0.3,0.1c0.4,3.2,1,6.4,1.1,9.8
		C240.5,35.1,238.4,34.7,236.1,34.1z"/>
	<path class="st4" d="M184,16.7c-2,0.3-3.9,0.5-5.9,0.7c-2,7.7-4.1,15.3-6.2,23.2c2-0.2,3.6-0.4,5.2-0.6c0.4-1.3,0.7-2.6,1.1-3.9
		c3.2-0.3,6.4-0.7,9.6-1c0.7,1.2,1.3,2.4,1.9,3.6c1.7-0.2,3.4-0.4,5.3-0.6C191.3,30.8,187.6,23.8,184,16.7z M179.1,31.8
		c0.9-3.5,1.6-6.5,2.4-9.7h0.4c1.4,2.9,2.8,5.8,4.3,8.9C183.7,31.3,181.6,31.5,179.1,31.8z"/>
	<path class="st4" d="M326.3,64.9c-1.2-1.1-2.4-2.2-3.7-3.3c-7.1,3.6-14.1,7.2-21.4,10.9c1.2,1.1,2.3,2.1,3.3,3
		c0.2,0.2,0.4,0.3,0.7,0.5c0.3-0.1,0.6-0.2,0.9-0.4c1.8-1.4,3.3-1.1,4.9,0.6c1.5,1.6,3.2,3.1,4.9,4.6c-0.6,1.3-1,2.6-1.5,3.8
		c1.3,1.1,2.6,2.2,3.9,3.4c0.2-0.3,0.3-0.5,0.4-0.7c1.3-3.4,2.6-6.8,3.9-10.2c1.3-3.5,2.6-7,4-10.4C326.9,66,327,65.4,326.3,64.9z
		 M317.8,76.7c-1.8-1.6-3.5-3.1-5.3-4.7c3-1.6,5.9-3.2,9.1-4.9C320.5,70.5,319.1,73.4,317.8,76.7z"/>
	<path class="st4" d="M370.4,126c-0.4-1.2-1.1-1.6-2.3-1.5c-3.4,0.2-6.9,0.3-10.4,0.4c-3,0.2-6.1,0.3-9.1,0.4
		c-0.9,0-1.8,0.1-2.9,0.2c0.8,1.8,1.4,3.4,2.1,4.9c1.1,0,2.1,0,3-0.1c0.8-0.1,1.2,0.3,1.5,1l1.5,3.6c0.6,1.4,1.2,2.9,1.8,4.3
		c-1.1,0.9-2,1.8-3,2.7c0.7,1.7,1.4,3.2,2.3,4.8c5.8-5.7,11.4-11.2,17.1-16.8C371.5,128.6,370.8,127.3,370.4,126z M358.9,136.4
		c-1-2.3-1.8-4.3-2.8-6.4c3.3-0.6,6.6-0.4,9.9-0.7C363.9,131.8,361.4,133.9,358.9,136.4z"/>
	<path class="st4" d="M31,127.2c1.3,0.5,2.5,0.9,3.9,1.4c-1.3,3.4-2.6,6.8-3.9,10.4c1.5,0.6,2.8,1.1,4.4,1.8
		c1.6-3.3,2.5-6.8,4.1-10.1c1.3,0.5,2.4,0.9,3.8,1.4c-1.3,3.4-2.5,6.7-3.8,10.2c1.6,0.6,3.2,1.2,4.8,1.9c1.3-3.5,2.6-6.8,4-10.4
		c1.3,0.5,2.5,0.9,3.9,1.4c-1.9,5-3.7,9.8-5.7,14.8c-7-2.7-13.9-5.3-21-8C27.2,137,29,132.2,31,127.2z"/>
	<path class="st4" d="M63.9,113.1c-6.2-4.4-12.2-8.6-18.3-13c3-4.3,6-8.5,9.1-12.9c1.1,0.7,2.1,1.4,3.3,2.2c-1.9,3.2-4.3,6-6.3,9.2
		c1.3,0.9,2.5,1.8,3.9,2.8c2.1-3,4.2-5.8,6.3-8.9c1.1,0.8,2.2,1.5,3.4,2.4c-2.1,3-4.1,5.9-6.3,8.9c1.4,1,2.7,1.9,4.2,3
		c2.2-3,4.3-6,6.5-9.1c1.1,0.8,2.2,1.6,3.3,2.4C70,104.5,67,108.7,63.9,113.1z"/>
	<path class="st4" d="M275.2,34.1c-0.2,0.2-0.3,0.4-0.4,0.5c-1,0.6-2,1.2-2.9,1.8c-1.1-1.1-2-2.3-3.2-3.2c-1-0.7-2.2-1.2-3.3-1.6
		c-0.5-0.2-1.2,0-1.8,0.2c-1.1,0.5-1.4,1.5-0.8,2.5c0.4,0.6,1,1.1,1.6,1.5c1.6,1.3,3.4,2.4,4.9,3.8c2.1,1.9,2.9,4.2,1.8,7
		c-1.1,2.7-3.5,4.4-6.5,4.2c-5-0.3-8.9-2.5-11.6-6.8c-0.1-0.2-0.2-0.5-0.4-0.9c1.2-0.8,2.3-1.6,3.4-2.3c1,1.2,1.9,2.4,2.9,3.4
		c1.1,1.1,2.5,1.9,4.1,2.1c0.6,0.1,1.4,0.1,2,0c1.4-0.4,1.9-1.7,1.1-2.9c-0.4-0.6-1-1.1-1.5-1.5c-1.6-1.3-3.4-2.5-4.9-3.8
		c-2.1-1.8-2.8-4.2-1.7-6.8c0.9-2.4,3.3-4,6.1-3.9C269,27.6,272.6,29.9,275.2,34.1z"/>
	<path class="st4" d="M102.6,62.6c1.3-0.3,2.6-0.6,4-0.9c0.7,1.5,0.4,3,0,4.4c-1.2,4.3-4.3,6.8-8.5,7.9c-6.7,1.8-13.4-2.9-14.3-9.9
		c-0.9-6.9,5.1-12.8,10.6-13.1c1.7-0.1,3,0.1,4.8,1c-0.6,1.3-1.2,2.5-1.8,3.7c-0.3,0-0.5,0-0.6,0c-5.2-1.1-9,2.3-8.3,7.6
		c0.4,3.1,3.4,7,8.1,6.6c2.6-0.2,5.8-2.3,5.9-6C102.5,63.5,102.6,63.1,102.6,62.6z"/>
	<path class="st4" d="M77.7,69.5c-0.4,1.2-0.8,2.5-1.2,3.9c-1.9-0.1-3.8-0.2-5.4,1.2c-1,0.9-2,1.8-2.2,3.1c-0.3,1.1-0.4,2.4-0.3,3.5
		c0.5,3.9,4.7,7,8.6,6.4s6.1-3.9,5.5-8.3c1.3-0.5,2.6-1,3.9-1.5c0.9,2.2,0.9,4.3,0.2,6.3c-1.6,4.8-6.4,8.3-11.5,8.2
		c-7.8-0.2-14.8-9.1-9.7-17.6c2.5-4.2,6.2-6.3,11.2-5.6c0.2,0,0.3,0.1,0.5,0.1C77.4,69.2,77.5,69.3,77.7,69.5z"/>
	<path class="st4" d="M308.6,56.5c-1.4-0.2-2.7-0.4-4.2-0.5c0-2.5-0.9-4.5-2.9-5.8c-1.6-1-3.4-1.3-5.3-0.9c-3.1,0.8-6.6,4.4-5.6,9.3
		c0.8,3.9,4.5,5.7,9.3,4.5c0.4,0.6,0.8,1.2,1.1,1.8c0.3,0.6,0.7,1.2,1,1.7c-4.1,2.6-9,1.5-12.6-2c-4-3.8-4.9-9.4-1.9-14.3
		s8.4-6.9,13.7-5.1C306.2,47.2,309.4,51.8,308.6,56.5z"/>
	<path class="st4" d="M356.4,108.4c-5.2,3.2-10.3,6.3-15.4,9.5c-1.1-1.2-1.8-2.5-2.6-4c5.2-3.2,10.3-6.3,15.5-9.6
		c-1.1-1.9-2.2-3.6-3.3-5.6c1.1-0.7,2.2-1.4,3.5-2.2c3.2,5.1,6.2,10.1,9.4,15.2c-1.2,0.8-2.3,1.4-3.5,2.2
		C358.7,112.1,357.6,110.3,356.4,108.4z"/>
	<path class="st4" d="M57.4,115.7c1.2,0.7,2.4,1.2,3.6,1.9c-2.3,4.2-4.4,8.3-6.7,12.5c-6.6-3.5-13.1-7-19.8-10.6
		c0.7-1.4,1.4-2.7,2.2-4.2c5.4,2.9,10.7,5.7,16.1,8.6C54.4,121.3,55.9,118.6,57.4,115.7z"/>
	<path class="st4" d="M102.3,44.2c1.4-0.8,2.6-1.6,4-2.4c3.9,6.4,7.8,12.7,11.7,19.1c-1.3,0.8-2.6,1.6-4,2.5
		C110.2,57,106.3,50.7,102.3,44.2z"/>
	<path class="st4" d="M135.6,358.3c-2.7,1.2-4.1,3.4-4.4,6.2c-0.4,3.8,1.4,6.5,5.2,7.5c0.9,0.2,2,0.3,3.1,0.4c0.2,0.5,0.5,1,0.8,1.6
		c0.5-0.2,0.9-0.3,1.3-0.5c-0.2-0.6-0.4-1.1-0.6-1.7c0.4-0.3,0.7-0.5,1.1-0.8c2.1-1.6,3.1-3.8,3.2-6.3
		C145.5,359.9,140,356.3,135.6,358.3z M140.4,370c-0.4-0.8-0.8-1.6-1.1-2.5c-0.4,0.1-0.8,0.2-1.4,0.3c0.3,0.9,0.6,1.7,0.9,2.6
		c-0.3,0.1-0.7,0.3-1,0.3c-3.7-0.4-5.7-3.6-4.6-7.1c0.5-1.8,1.6-3.2,3.3-4c3.1-1.4,6.9,1,7,4.5C143.6,366.6,142.6,368.5,140.4,370z"
		/>
	<path class="st4" d="M101,336.5c-1.3-2.6-4-4.2-6.9-3.9c-3.1,0.4-5.1,2.3-6.2,5.1c-1.1,2.5-0.6,4.8,1.2,6.9
		c1.1,1.4,2.7,2.1,4.4,2.5c0.2,0.7,0.3,1.2,0.5,1.9c0.4-0.1,0.8-0.1,1.2-0.2c0-0.6,0.1-1.2,0.1-1.7c2.4-0.9,3.2-1.4,4.5-2.8
		C101.8,342.1,102.3,339,101,336.5z M99.8,340.6c-0.7,2.4-2.5,4.2-4.8,4.5c-0.1-0.8-0.1-1.6-0.2-2.5h-1.4v2.7
		c-3.2-0.6-5.1-3.3-4.3-6.2c0.5-1.9,1.7-3.3,3.3-4.3c1.7-1.1,4-0.8,5.7,0.5C99.7,336.6,100.4,338.6,99.8,340.6z"/>
	<path class="st4" d="M279.8,358.8c-0.9-2.6-2.9-5.1-7-4.9c-2.7,0.1-4.7,1.8-7,2.6c0.7,2.3,5.2,11.7,6.1,12.8
		c1.7-0.9,3.6-1.7,5.3-2.8C279.9,364.8,280.8,361.7,279.8,358.8z M275.4,365.8c-0.9,0.5-1.8,0.9-2.9,1.4c-1.6-3.3-3.1-6.5-4.7-9.9
		c1.5-0.9,2.9-1.7,4.5-2c2.8-0.5,5.8,1.9,6.1,5C278.7,362.9,277.7,364.6,275.4,365.8z"/>
	<path class="st4" d="M187.5,377.5c2.1-0.6,3-1.9,3-4.1c0-2-1-3.4-3.1-3.8c-2-0.4-4.2-0.6-6.4-0.8c-0.4,4.7-0.9,9.3-1.2,13.9h1.6
		c0.2-1.8,0.4-3.6,0.6-5.4c1.1,0.1,1.9,0.2,2.8,0.3c0.9,1.6,1.7,3.3,2.6,4.9c0.6,1.1,0.6,1.1,2.2,0.8c-0.9-1.9-1.9-3.7-2.9-5.6
		C187.1,377.5,187.4,377.4,187.5,377.5z M182.1,375.7c0.2-1.8,0.3-3.4,0.5-5.4c1.5,0.2,2.9,0.2,4.2,0.5c1.5,0.3,2.3,1.5,2.1,2.8
		c-0.2,1.5-1.4,2.6-2.9,2.5C184.8,376.1,183.6,375.9,182.1,375.7z"/>
	<path class="st4" d="M249.2,371.4c0.7-0.8,1.5-1.4,1.9-2.2c0.9-1.5,0.5-3-0.4-4.3c-1-1.4-2.5-1.9-4.2-1.5c-1.9,0.5-3.8,1-5.9,1.6
		c1.2,4.5,2.4,8.9,3.9,13.3c0.6-0.2,1-0.3,1.5-0.5c-0.5-1.9-0.9-3.5-1.4-5.3c0.9-0.3,1.8-0.5,2.7-0.8c1.3,1.2,2.5,2.4,3.8,3.5
		c1.2,1.1,1.2,1.1,2.8,0.3C252.3,374.1,250.7,372.7,249.2,371.4z M247.6,370.3c-1.1,0.3-2.2,0.6-3.6,1c-0.5-1.9-0.9-3.5-1.4-5.3
		c1.3-0.4,2.5-0.8,3.7-1c1.7-0.3,3,0.5,3.3,1.9C249.9,368.6,249.3,369.7,247.6,370.3z"/>
	<path class="st4" d="M239,372.6c0.3,1.6,0.7,3.1,0.9,4.5c0.1,0.4-0.2,0.8-0.5,1.2c-1.5,2.1-5,3.2-7.7,2.4c-2.8-0.8-4.9-3.3-5.1-6.1
		c-0.4-4.8,2.9-8.3,7.5-8.1c1.5,0.1,2.8,0.7,4.1,1.6c-0.4,0.4-0.8,0.6-1.1,0.9c-0.2-0.1-0.3-0.1-0.5-0.2c-2.3-1.3-4.5-1.2-6.3,0.3
		c-2,1.7-2.4,3.8-1.7,6.2c0.7,2.3,2.5,3.9,4.8,4.1c1.7,0.1,3.2-0.5,4.4-1.7c0.3-0.3,0.4-0.8,0.4-1.2c0-0.7-0.3-1.3-0.4-2.2
		c-1.5,0.2-3,0.5-4.6,0.7c-0.1-0.4-0.2-0.8-0.4-1.4c1.1-0.2,2.1-0.4,3.1-0.6C236.7,373,237.7,372.8,239,372.6z"/>
	<path class="st4" d="M311,338.8c1-2.1,1.2-2.8,0.9-3.8c-0.7-3-3.9-4.3-6.5-2.5c-1.7,1.1-3.2,2.5-4.8,3.8c2.9,3.7,5.8,7.2,8.8,10.9
		c0.5-0.4,0.8-0.8,1.2-1.1c-1.2-1.5-2.3-2.9-3.4-4.3c0.4-0.4,0.7-0.6,1-0.9c0.8-0.8,1.6-0.9,2.6-0.5c1.2,0.5,2.5,0.8,3.7,1.3
		c1,0.4,1.8,0.2,2.5-0.9C315,340.1,313,339.5,311,338.8z M309.5,337.9c-1,0.9-2,1.7-3.2,2.7c-1.2-1.5-2.2-2.8-3.4-4.3
		c1.1-0.9,2.2-1.9,3.3-2.6c1.2-0.8,2.7-0.5,3.5,0.6C310.6,335.5,310.6,336.8,309.5,337.9z"/>
	<path class="st4" d="M258.8,359.5c-2.2,0.6-2.2,0.6-2.2,2.6c-0.1,3.7-0.2,7.4-0.3,11.1v2c0.7-0.3,1.2-0.5,1.6-0.7
		c0.1-1.2,0.3-2.3,0.4-3.4c1.7-0.7,3.4-1.3,5.1-1.9c1.4-0.5,1.4-0.5,2.4,0.6c0.4,0.5,0.8,0.9,1.2,1.4c0.7-0.3,1.2-0.5,1.8-0.7
		C265.4,366.7,262.1,363.1,258.8,359.5z M258.3,369.5v-7.8c0.2,0,0.3-0.1,0.4-0.1c1.7,1.9,3.4,3.8,5.2,5.8
		C261.9,368.2,260.2,368.8,258.3,369.5z"/>
	<path class="st4" d="M294.6,340.6c-1.9,1-1.9,1-1.5,2.7c0.5,2.3,1,4.6,1.5,6.9c0.4,2,0.9,4,1.4,6.2c0.6-0.4,1.1-0.7,1.5-1
		c-0.2-1.2-0.4-2.3-0.6-3.3c2-1.3,3.9-2.6,5.8-3.9c1,0.7,1.9,1.2,2.8,1.7c0.5-0.3,0.9-0.6,1.5-1C302.7,346,298.6,343.3,294.6,340.6z
		 M296.4,350.6c-0.6-2.7-1.2-5.2-1.7-7.6c0.1-0.1,0.2-0.1,0.3-0.2c2,1.4,4.1,2.8,6.4,4.4C299.6,348.5,298.1,349.5,296.4,350.6z"/>
	<path class="st4" d="M278.9,350.3c2.7-1.5,5.2-3,7.8-4.5c0.3,0.4,0.5,0.8,0.8,1.2c-2.1,1.3-4.2,2.4-6.4,3.7c0.8,1.4,1.5,2.6,2.3,4
		c2.2-1.2,4.2-2.4,6.2-3.6c0.3,0.4,0.5,0.7,0.9,1.2c-2.1,1.2-4.1,2.4-6.3,3.7c0.8,1.4,1.6,2.8,2.4,4.3c2.2-1.2,4.3-2.4,6.5-3.6
		c0.3,0.4,0.5,0.8,0.7,1.2c-2.6,1.5-5.2,3-7.9,4.5C283.6,358.3,281.3,354.4,278.9,350.3z"/>
	<path class="st4" d="M114.3,359.6c2.2,1.2,4.2,2.3,6.4,3.5c-0.2,0.4-0.3,0.8-0.5,1.3c-2.7-1.5-5.3-2.9-8-4.4
		c2.2-4.1,4.4-8.2,6.7-12.3c2.7,1.4,5.2,2.8,7.9,4.3c-0.2,0.4-0.3,0.8-0.5,1.4c-2.2-1.2-4.3-2.3-6.6-3.5c-0.7,1.4-1.4,2.6-2.2,4
		c2.2,1.2,4.2,2.4,6.3,3.5c-0.2,0.4-0.4,0.8-0.6,1.3c-2.1-1.1-4.2-2.2-6.4-3.4C115.9,356.8,115.1,358.2,114.3,359.6z"/>
	<path class="st4" d="M170.7,368.6c-0.3,1.5-0.5,2.9-0.8,4.5c2.5,0.4,4.7,0.9,7,1.3c0,1.3-0.1,1.4-1.1,1.3c-1.9-0.3-3.9-0.6-6-1
		c-0.5,1.5-0.7,3.1-0.9,4.8c2.5,0.4,4.8,0.8,7.2,1.3c0,0.4,0,0.8-0.1,1.3c-3-0.3-5.9-1-9.1-1.4c0.8-4.6,1.5-9.1,2.3-13.8
		c3,0.5,5.9,1,8.9,1.5c0,0.5-0.1,0.8-0.2,1.4C175.6,369.3,173.2,369,170.7,368.6z"/>
	<path class="st4" d="M149.5,361.7c0.6,0.2,1.1,0.4,1.5,0.6c-0.7,2.6-1.5,5.1-2.2,7.7c-0.2,0.9-0.4,1.8-0.3,2.6
		c0.2,1.8,1.7,2.9,3.8,3.2c1.5,0.2,2.9-0.6,3.7-2.1c0.4-0.8,0.6-1.6,0.9-2.4c0.7-2.2,1.3-4.4,2-6.8c0.5,0.1,0.9,0.3,1.5,0.4
		c-0.1,0.5-0.2,1-0.3,1.4c-0.6,2.2-1.2,4.3-1.9,6.5c-0.2,0.7-0.5,1.5-0.9,2.2c-1,1.8-2.6,2.6-4.7,2.3c-0.8-0.1-1.6-0.2-2.3-0.5
		c-2.7-1-4-3.2-3.4-6C147.6,367.8,148.6,364.8,149.5,361.7z"/>
	<path class="st4" d="M217.2,370.9c-0.4,0.5-0.7,0.8-1,1.2c-1.4-1.1-2.9-1.6-4.6-1.2c-0.5,0.1-1,0.3-1.4,0.6c-1.4,1-1.2,2.6,0.4,3.3
		c0.7,0.3,1.5,0.4,2.3,0.6c1,0.3,2.1,0.5,3,0.9c1.3,0.6,2.1,1.7,2.1,3.2s-0.6,2.6-1.8,3.4c-2.1,1.3-6,1.5-8.3-1
		c0.2-0.3,0.4-0.7,0.6-1.1c0.2,0.1,0.4,0,0.5,0.1c1.5,1.1,3.2,1.7,5.1,1.2c0.5-0.1,1-0.3,1.4-0.6c1.3-0.9,1.2-2.5,0-3.4
		c-0.6-0.4-1.2-0.6-1.9-0.8c-1-0.3-2.1-0.4-3.1-0.7c-1.8-0.5-2.7-1.6-2.8-3.2c-0.1-1.5,0.8-3,2.5-3.6
		C212.6,368.8,214.9,369.1,217.2,370.9z"/>
	<path class="st4" d="M106.4,340c0.5,0.3,0.9,0.6,1.4,0.9c-1.4,2.2-2.8,4.3-4.2,6.4c-0.7,1-1.3,2.1-1.2,3.4c0.1,1.8,1.2,2.7,2.6,3.4
		c1.4,0.7,2.7,0.5,3.7-0.5c0.7-0.6,1.3-1.4,1.8-2.2c1.1-1.6,2.1-3.3,3.2-4.9c0.2-0.4,0.5-0.7,0.8-1.1c0.4,0.3,0.8,0.5,1.1,0.7
		c0,0.2,0,0.4,0,0.4c-1.6,2.5-3.2,5.2-5,7.6c-1.6,2.2-4,2.6-6.5,1.3c-0.8-0.4-1.5-1-2.2-1.6c-1.6-1.5-1.9-3.3-1.1-5.2
		c0.6-1.3,1.4-2.5,2.2-3.8C104.2,343.3,105.2,341.7,106.4,340z"/>
	<path class="st4" d="M165.7,366.1c-1.1,4.7-2,9.1-3.1,13.6c-0.6-0.2-1.1-0.3-1.6-0.5c1-4.5,2-8.9,3-13.4
		C164.6,365.9,165.1,366,165.7,366.1z"/>
	<path class="st4" d="M283,186.6c-0.8-1.9-2.3-3.3-4.1-4.3c-4.8-2.6-9.6-5.2-14.4-7.8c-0.5-0.3-1.1-0.6-1.6-0.9
		c0.1-0.5,0.1-0.9,0.2-1.3c0.6-3.5-0.9-6.9-3.8-8.8c-0.8-0.5-1.7-0.9-2.6-1.2c-5-1.9-10-3.8-15-5.7c-0.5-0.2-1.1-0.5-1.6-0.7
		c0.1-0.4,0.1-0.7,0.1-1c0.3-4.7-2.5-8.5-7-9.4c-6.4-1.3-12.8-2.5-19.2-3.8c-2.3-0.4-4.6-0.9-7-1.4c0-0.5-0.1-0.8-0.3-1.1
		c-0.7-4.9-5.1-7.4-8.7-7.4c-21,0.2-42.1,0.1-63.1,0.1c-4.4,0-7.8,3-8.4,7.4c-0.1,1-0.1,1.9-0.1,2.9v100.5c0.1,2.2,0.8,4.2,2.4,5.8
		c1.8,1.9,4,2.7,6.5,2.7h17.8c0.7,0,1.4,0.1,2.1,0.3c2.6,0.9,5.1,1.9,7.6,2.9c0.5,0.2,1,0.4,1.3,0.8c1.1,1.4,2.6,2.3,4.1,3.1
		c17.7,9.6,35.5,19,53.1,28.7c5.7,3.1,10.9,0.9,13.6-4.1c13.2-24.8,26.6-49.4,39.9-74.1c2.6-4.8,5.1-9.6,7.7-14.3
		C283.9,192,284.2,189.3,283,186.6z M135.1,247c-2.6-0.1-4.3-1.8-4.5-4.5V141.9c0-4,1.8-6.1,6-6.1c20.2,0.1,40.3,0,60.4,0h1.5
		c2.7,0.1,4.3,1.8,4.5,4.5v100.4c0,0.7,0,1.5-0.1,2.2c-0.2,2.3-1.9,3.9-4.2,4.1L135.1,247L135.1,247z M175.3,251.5v-0.3h22.5
		c1.5,0,3-0.2,4.4-0.9c3-1.5,4.6-4,4.8-7.4v-98.3c0.6,0,0.9,0,1.3,0.1c8,1.6,16,3.2,24,4.8c3,0.7,4.4,2.8,3.8,5.9
		c-2.1,10.5-4.2,21.1-6.3,31.6c-3,14.9-5.9,29.8-8.9,44.7c-1.5,7.6-3,15.2-4.5,22.8c-0.7,3.3-2.8,4.7-6.2,4
		c-7.8-1.6-15.6-3.1-23.4-4.7c-3.3-0.6-6.6-1.2-9.9-1.9C176.3,251.8,175.8,251.6,175.3,251.5z M258.5,173.2
		c-3.1,8.3-6.3,16.6-9.5,24.9c-8.7,22.8-17.4,45.5-26.1,68.3c-0.2,0.7-0.5,1.3-0.8,1.9c-1,1.8-2.9,2.6-4.9,2.1c-1-0.3-2-0.7-3-1.1
		c-10.1-3.8-20.1-7.6-30.2-11.4c-0.4-0.1-0.8-0.3-1.2-0.7c0.3,0,0.7-0.1,1,0c8.5,1.7,17.1,3.3,25.6,5.2c4.6,1.1,9.8-1.5,10.9-7.3
		c3.7-18.7,7.5-37.4,11.2-56.1c2.4-12.3,4.8-24.6,7.3-36.9c0.1-0.6,0.3-1.2,0.5-2c0.6,0.2,0.9,0.3,1.2,0.1
		c5.1,1.9,10.2,3.9,15.3,5.8c1.9,0.8,3.2,2,3.3,4.1C259.2,171.1,258.9,172.2,258.5,173.2z"/>
</g>
</svg>
