<?xml version="1.0" encoding="utf-8"?>
<!-- Generator: Adobe Illustrator 24.1.3, SVG Export Plug-In . SVG Version: 6.00 Build 0)  -->
<svg version="1.1" id="Layer_1" xmlns="http://www.w3.org/2000/svg" xmlns:xlink="http://www.w3.org/1999/xlink" x="0px" y="0px"
	 viewBox="0 0 400 400" style="enable-background:new 0 0 400 400;" xml:space="preserve">
<style type="text/css">
	.st0{display:none;}
	.st1{display:inline;fill:#222222;}
	.st2{fill:#E5E5E5;}
	.st3{fill:#222222;}
</style>
<g class="st0">
	<path class="st1" d="M354,205.7c-0.1,1.6-0.2,3.1-0.3,4.7c-0.8,13.6-3.2,26.9-7.6,39.7c-14.4,42-41.6,72.7-81.7,91.9
		c-12.9,6.2-26.6,10.1-40.7,12.2c-10,1.5-20,2-30,1.4c-31.8-1.8-60.3-12.4-85.3-32c-27.7-21.8-45.8-49.9-54.7-84
		c-2.5-9.6-3.9-19.3-4.5-29.2c-0.6-9.2-0.3-18.4,0.8-27.6c3.4-28.5,13.7-54.3,31.3-77.1c20-25.8,45.6-43.6,76.9-53.2
		c10.3-3.1,20.9-5.1,31.6-5.9c46.3-3.5,91.2,14.1,122.7,48.2c18.8,20.4,31.3,44.1,37.6,71.1c2.2,9.6,3.5,19.3,3.8,29.1
		c0,0.4,0.1,0.8,0.1,1.2C354,199.4,354,202.6,354,205.7z M350.6,199.7c-0.2-3.4-0.4-8.2-0.8-12.9c-0.7-9.1-2.4-18-4.8-26.8
		c-12.1-43.7-42.8-78.9-81.9-96.9c-17.5-8-35.9-12.5-55.1-13.3c-13.4-0.6-26.7,0.5-39.8,3.6c-31.2,7.4-57.4,23.2-78.4,47.4
		c-23.9,27.5-36.1,59.7-37.3,96.1c-0.5,14.9,1.2,29.7,5.2,44.1c8.4,30.8,24.8,56.6,49.3,77c25.6,21.3,55.1,32.7,88.4,34.2
		c13.9,0.6,27.5-0.7,41-4c31.1-7.7,57.1-23.8,77.9-48.2C338.3,271.5,350.1,238.3,350.6,199.7z"/>
	<path class="st1" d="M46,100.5c0.7-1,1.5-2,2.2-2.9c1.8-2.5,3.5-5.2,5.6-7.5c2.1-2.5,5.7-2.8,8.2-0.5c1.6,1.5,2,3.2,1.6,5.2
		c0.9-0.3,1.8-0.5,2.7-0.8c1.5-0.5,2.9,0.2,4,1c1.3,0.9,2.2,2.1,2.5,3.8c0.3,1.7-0.2,3.2-1.1,4.5c-2.3,3.4-4.7,6.7-7.1,10
		c-0.3,0.4-0.5,0.3-0.8,0.1c-3-2.2-6-4.4-9.1-6.5c-2.8-2-5.6-4.1-8.5-6.1c-0.1-0.1-0.2,0-0.3-0.1C46,100.7,46,100.6,46,100.5z
		 M63.8,107.5c0.5-0.6,0.9-1.2,1.3-1.7c0.9-1.4,1.9-2.7,2.8-4.1c0.6-1.1,0.3-2.5-0.7-3.1c-1.1-0.7-2.3-1.1-3.4,0.2
		c-1.5,1.8-2.8,3.7-4.3,5.6C61,105.4,62.4,106.5,63.8,107.5z M56.2,101.9c0.1-0.1,0.3-0.2,0.4-0.4c1-1.4,2.1-2.8,3.1-4.3
		c0.4-0.6,0.7-1.3,0.7-2c-0.1-1-0.7-1.8-1.7-2.2c-0.9-0.3-2,0-2.7,0.9c-1.2,1.5-2.3,3.1-3.4,4.7c-0.2,0.3-0.2,0.6,0.1,0.8
		C53.8,100.3,55,101.1,56.2,101.9z"/>
	<path class="st1" d="M195.3,15.9c1,0.2,2,0.4,2.9,0.7c4.2,1.4,6.7,4.4,7.5,8.8c0.6,3.1,0.1,6.1-1.6,8.8c-1.8,2.8-4.4,4.3-7.6,4.8
		c-3.4,0.6-6.6,0.1-9.4-2c-2.5-1.8-3.9-4.3-4.4-7.3c-0.4-2.4-0.2-4.8,0.8-7.1c1.2-2.7,3.1-4.6,5.8-5.7c1.2-0.5,2.5-0.6,3.8-0.9
		c0.1,0,0.2-0.1,0.2-0.2C193.9,15.9,194.6,15.9,195.3,15.9z M201.1,27.5c0-0.3-0.1-0.8-0.2-1.3c-0.5-4.2-4.5-6.9-8.9-5.6
		c-2.7,0.8-4.1,2.9-4.5,5.7c-0.4,3.1,0.3,5.6,2.8,7.6c1.9,1.5,5.4,1.6,7.4,0.3C200,32.7,201,30.4,201.1,27.5z"/>
	<path class="st1" d="M199.8,384.1c-1.1-0.5-2.1-0.9-3.2-1.4c-0.1,0-0.2-0.1-0.3-0.2c-0.8-0.7-0.8-0.7-0.1-1.5
		c0.1-0.1,0.2-0.3,0.3-0.4c0.7,0.5,1.4,1.1,2.2,1.4c1.4,0.6,2.9,0.9,4.4,0.1c0.8-0.4,1.3-1,1.3-2c0-0.9-0.6-1.5-1.3-1.8
		c-1.4-0.6-2.8-1-4.2-1.5c-1.3-0.5-2.4-1.2-2.6-2.7c-0.3-2,0.6-3.4,2.5-4.1c2.4-0.9,5.7-0.3,7.3,1.7c-0.4,0.4-0.7,0.7-1.1,1.2
		c-0.9-1.1-2.1-1.5-3.5-1.7c-1-0.2-1.9,0-2.7,0.6c-1,0.8-1.3,2.2,0.2,3.1c0.8,0.5,1.8,0.7,2.7,1c0.7,0.2,1.4,0.4,2,0.7
		c2,0.8,2.7,2.5,2.5,3.8c-0.3,1.9-1,2.9-3.3,3.6c-0.1,0-0.3,0.1-0.4,0.2C201.6,384.1,200.7,384.1,199.8,384.1z"/>
	<path class="st1" d="M339.4,100.3c3.8-3,7.4-5.8,11.1-8.7c1,1.3,2,2.5,2.9,3.8c-5.9,4.6-11.7,9.2-17.7,13.8
		c-0.4-0.4-0.8-0.9-1.1-1.3c-0.3-0.4-0.7-0.9-1-1.3c-0.5-0.6-0.8-1.1-0.5-2c1.6-5.4,3.1-10.8,4.6-16.2c0,0,0-0.1-0.1-0.2
		c-3.8,3-7.6,6-11.4,8.9c-1-1.3-2-2.5-2.9-3.7c5.9-4.6,11.8-9.2,17.7-13.9c0.9,1.2,1.8,2.3,2.7,3.5c0.2,0.2,0.3,0.6,0.2,0.8
		c-1.4,5.3-2.9,10.5-4.4,15.7C339.5,99.7,339.5,99.9,339.4,100.3z"/>
	<path class="st1" d="M178.7,40.1c-1.4,0.3-2.7,0.4-4,0.9c-1.6,0.6-2.1-0.6-2.8-1.4c-1.2-1.4-2.5-2.7-3.5-4.2
		c-0.8-1.3-1.8-1.1-2.9-0.8c-0.5,0.1-1,0.2-1.6,0.4c0.5,2.6,1.1,5.2,1.6,7.8c-1.4,0.3-2.8,0.6-4.2,0.9c-0.2,0-0.5-0.3-0.6-0.5
		c-0.9-4.6-1.8-9.1-2.7-13.7c-0.5-2.4-1-4.8-1.5-7.2c0-0.2,0-0.3,0-0.6c2.7-0.5,5.3-1.1,8-1.6c1.2-0.2,2.3-0.6,3.5-0.6
		c2.3-0.1,4.4,0.5,6,2.4c1.7,2,2.5,5.8,1,8.2c-0.6,0.9-1.4,1.7-2.3,2.4c-0.5,0.4-0.5,0.6-0.1,1c1.3,1.4,2.6,2.8,3.9,4.3
		C177.1,38.4,177.8,39.2,178.7,40.1z M161.9,24.8c0.4,2,0.8,4,1.2,6c0.5-0.1,1.1-0.2,1.6-0.3c1.5-0.4,3.1-0.7,4.5-1.2
		c1.5-0.5,2-2.1,1.4-3.7c-0.4-1.2-2.2-2.1-3.5-1.8C165.4,24.1,163.7,24.4,161.9,24.8z"/>
	<path class="st1" d="M319,85c-6.4,0.1-12.3-5.8-12.1-12.1c0.2-6.2,5.4-11.7,11.8-11.6c6.4,0.1,11.9,5.5,12,11.9
		C330.7,79.5,325.2,84.9,319,85z M311.6,73.8c-0.3,3.5,3.3,6.8,6.8,6.7c3.3-0.1,6.6-3,7.4-6.5c1-4.2-2.8-8.8-7.8-8
		C314.8,66.5,311.4,70.1,311.6,73.8z"/>
	<path class="st1" d="M240.4,29.6c3.5,0.9,7,1.7,10.6,2.6c-0.3,1.2-0.6,2.4-0.9,3.6c-0.1,0.5-0.5,0.4-0.8,0.3
		c-3.3-0.8-6.6-1.6-9.9-2.4c-0.4,1.7-0.8,3.3-1.2,5c3.4,0.8,6.7,1.6,10.1,2.4c0.5,0.1,0.7,0.2,0.5,0.8c-0.3,1.1-0.5,2.2-0.8,3.4
		c-1.4-0.3-2.7-0.6-4.1-1c-3.6-0.9-7.2-1.8-10.8-2.6c-0.4-0.1-0.5-0.2-0.4-0.7c0.9-3.6,1.8-7.3,2.7-10.9c0.8-3.5,1.7-7,2.5-10.4
		c5,1.2,9.9,2.4,14.9,3.6c0.5,0.1,0.6,0.3,0.5,0.8c-0.3,1-0.5,1.9-0.7,2.9c-0.1,0.5-0.2,0.6-0.7,0.4c-3.2-0.8-6.4-1.5-9.6-2.3
		c-0.6-0.2-0.8,0-0.9,0.6C241.1,27,240.7,28.3,240.4,29.6z"/>
	<path class="st1" d="M79,88.2c2.7-2.8,5.3-5.5,8-8.4c0.9,1.1,1.7,2.1,2.7,3.2c-3.4,3.6-7,7.4-10.7,11.3c-0.1-0.1-0.2-0.1-0.3-0.2
		c-1.7-1.6-3.4-3.3-5.1-4.9c-2.6-2.5-5.1-4.9-7.7-7.4c-1.1-1-2.1-2-3.3-3c3.7-3.9,7.3-7.7,11-11.5c1,0.9,2.1,1.9,3.1,2.8
		c-2.6,2.7-5.1,5.4-7.4,7.7c1,1.3,2,2.5,3,3.7c2.7-2.8,5.1-5.4,7.6-7.9c1,0.9,2,1.9,3.1,2.8c-2.5,2.7-5,5.3-7.5,7.9
		C76.7,85.7,77.8,86.9,79,88.2z"/>
	<path class="st1" d="M90.8,73.3c2.1,0.2,4.1-0.2,5.9-1.3c1-0.6,1.9-1.5,2.7-2.4c0.6-0.6,0.8-1.5,0.5-2.4c-0.4-0.9-1.2-1.4-2.2-1.1
		c-1.2,0.4-2.3,0.9-3.5,1.3c-1.7,0.6-3.4,1.4-5.2,1.9c-3.4,0.8-6.2-1.7-6.9-4.6c-0.6-2.7,0.4-4.9,2.2-6.9c1.8-1.9,3.9-3.2,6.4-3.9
		c1.2-0.3,2.4-0.4,3.8-0.6c0,1.6,0,3.1,0,4.5c-2.9,0.1-5.5,0.9-7.5,3.3c-1.1,1.3-0.6,3.1,0.8,3.3c0.6,0.1,1.3-0.2,1.9-0.4
		c1.8-0.7,3.5-1.5,5.3-2.2c2-0.8,4-1.1,6-0.1c2.4,1.3,4.2,4.7,3.3,7.7c-0.8,2.3-2.3,4-4.2,5.5c-1.6,1.3-3.5,2.3-5.5,2.7
		c-1.1,0.2-2.2,0.2-3.3,0.3c-0.2,0-0.5-0.2-0.5-0.4C90.8,76,90.8,74.6,90.8,73.3z"/>
	<path class="st1" d="M131.8,29.6c2.9-1,5.7-2,8.5-3c1.6-0.6,3.1-1.2,4.8-1c2,0.2,3.7,1,5,2.6c1.1,1.5,1.7,3.1,1.6,4.9
		c-0.1,2.7-1.3,4.7-3.7,5.9c-2.2,1.1-4.5,1.8-6.9,2.7c0.9,2.4,1.7,4.9,2.6,7.5c-1.5,0.5-3,1.1-4.5,1.6
		C136.8,43.8,134.3,36.7,131.8,29.6z M139.8,37.8c1.9-0.7,3.8-1.4,5.6-2.2c1.3-0.6,1.9-2.3,1.3-3.7c-0.5-1.2-1.6-2.2-3.2-1.8
		c-1.8,0.5-3.6,1.1-5.4,1.7c-0.1,0-0.3,0.3-0.2,0.4C138.4,34.1,139.1,35.9,139.8,37.8z"/>
	<path class="st1" d="M278.7,38.4c-1.5,0.1-3,0.2-4.4,0.4c-0.6-2.7-2-4.6-4.7-5.3c-2.2-0.6-4.1-0.2-5.9,1.2c-2.6,2-3.8,5.6-2.7,8.7
		c1.2,3.5,5.2,5.6,8.8,4c0.5-0.2,0.9-0.6,1.4-0.9c1,1.1,2,2.2,3,3.3c-3.8,3.1-8.6,3.5-13.5,0.1c-4.4-3.1-6-8-4.2-13.3
		c0.9-2.5,2.4-4.6,4.7-6c1.9-1.2,4-1.9,6.2-1.7C274.5,29.4,277.9,33.2,278.7,38.4z"/>
	<path class="st1" d="M218.6,21.2c-2.2-0.2-4.3-0.5-6.5-0.7c0.1-1.3,0.3-2.7,0.4-4.2c5.9,0.6,11.8,1.3,17.8,1.9
		c-0.1,0.8-0.1,1.6-0.2,2.4c0,0.3-0.1,0.7-0.1,1c0.1,0.8-0.3,0.9-0.9,0.8c-1.7-0.2-3.5-0.5-5.2-0.6c-0.2,0-0.6,0.4-0.6,0.6
		c-0.2,1.2-0.2,2.4-0.4,3.6c-0.2,1.9-0.4,3.8-0.6,5.7c-0.1,1.3-0.2,2.5-0.4,3.8c-0.2,1.5-0.3,3-0.5,4.4c-1.6-0.2-3.1-0.3-4.8-0.5
		C217.3,33.3,218,27.3,218.6,21.2z"/>
	<path class="st1" d="M114,38c0.7,1.2,1.4,2.4,2.1,3.6c-1.7,1-3.3,2-4.9,3c-0.5,0.3-0.6,0.4-0.3,1c3,5,6,10,9.1,15.1
		c-1.3,0.8-2.7,1.6-4.1,2.5c-1.2-2-2.3-3.9-3.5-5.8c-1.9-3.1-3.7-6.2-5.6-9.3c-0.2-0.4-0.5-0.5-0.9-0.3c-1.7,1-3.4,2.1-5,3.1
		c-0.7-1.2-1.5-2.4-2.2-3.6C103.7,44.2,108.8,41.1,114,38z"/>
	<path class="st1" d="M284.9,61.7c-1.4-0.8-2.8-1.6-4.1-2.4c3.1-5.3,6.1-10.5,9.2-15.8c-1.9-1.1-3.8-2.2-5.7-3.3
		c0.7-1.2,1.4-2.4,2.1-3.6c5.2,3,10.3,6,15.5,9c-0.7,1.2-1.4,2.4-2.1,3.6c-1.9-1.1-3.7-2.1-5.7-3.3C291,51.2,288,56.5,284.9,61.7z"
		/>
	<path class="st1" d="M307.5,49.7c1.3,0.9,2.6,1.9,3.9,2.8c-2.9,4.1-5.8,8.1-8.7,12.2c-1.3,1.8-2.6,3.7-4,5.5
		c-0.3,0.4-0.6,0.5-1.1,0.1c-0.9-0.7-1.8-1.4-2.7-2c-0.4-0.3-0.4-0.5-0.1-0.9c1.3-1.8,2.6-3.6,3.9-5.4c2-2.7,3.9-5.5,5.9-8.2
		C305.5,52.4,306.5,51.1,307.5,49.7z"/>
	<path class="st1" d="M214.4,369.4c2.3-0.2,4.5-0.5,6.8-0.6c1.8-0.1,3.1,0.8,3.5,2.5c0.4,1.3,0.1,3.2-1.7,3.9c0,0,0,0.1-0.1,0.2
		c1.4,0.3,2.4,1.2,2.8,2.6c0.5,2.4-0.4,4-2.7,4.5c-2.2,0.5-4.5,0.6-6.7,0.9c-0.2,0-0.5-0.4-0.6-0.6c-0.3-2.3-0.5-4.6-0.7-7
		c-0.2-1.8-0.4-3.6-0.7-5.4C214.4,370.1,214.4,369.8,214.4,369.4z M217.4,381.6c1.5-0.1,2.8-0.3,4.2-0.4c1.4-0.2,2.5-0.9,2.4-2.7
		c-0.1-1.3-1.2-2.3-2.5-2.2c-1.5,0.1-3.1,0.3-4.7,0.5C217,378.5,217.2,380,217.4,381.6z M216.2,370.8c0.2,1.6,0.4,3,0.5,4.5
		c1.5-0.2,2.9-0.3,4.3-0.5c1.2-0.1,2.2-1.2,2.1-2.3c-0.1-1.4-1.3-2.4-2.6-2.3C219.1,370.4,217.7,370.6,216.2,370.8z"/>
	<path class="st1" d="M180.4,374.1c0,2.9-1,5.1-3.2,6.6c-4,2.8-10.3,0.2-10.7-5c-0.2-2.6,0.4-4.8,2.2-6.6c1.9-1.9,4.2-2.1,6.6-1.5
		C178.4,368.3,180.6,371,180.4,374.1z M173.5,368.8c-1.3-0.1-2.5,0.4-3.3,1.2c-1.7,1.8-2.4,4-1.7,6.4c0.9,3.5,5,4.9,7.7,2.9
		c2.1-1.5,2.6-3.7,2.4-6.1C178.3,370.5,176,368.8,173.5,368.8z"/>
	<path class="st1" d="M250.7,377.1c-3,0.8-6,1.5-8.9,2.3c-1.1-4.3-2.2-8.7-3.3-13c-0.1-0.5,0-0.6,0.4-0.7c2.8-0.7,5.5-1.4,8.3-2.1
		c0.1,0.5,0.2,1,0.3,1.5c-2.4,0.6-4.8,1.2-7.2,1.9c0.4,1.3,0.7,2.6,1,3.9c0.1,0.4,0.3,0.5,0.7,0.4c2.2-0.6,4.3-1.1,6.5-1.7
		c0.1,0.5,0.3,1,0.4,1.5c-2.4,0.6-4.7,1.2-7.1,1.8c0.4,1.6,0.8,3.1,1.2,4.7c2.4-0.6,4.7-1.2,7.2-1.8
		C250.4,376.1,250.5,376.5,250.7,377.1z"/>
	<path class="st1" d="M182.3,381c0.3-0.4,0.7-0.8,1-1.3c1.4,1.9,4.1,2.8,6.1,2.2c0.8-0.3,1.5-0.8,1.7-1.7c0.2-1-0.1-1.8-1.1-2.2
		c-1.2-0.5-2.4-1-3.6-1.6c-0.7-0.4-1.5-0.8-2.1-1.3c-1.7-1.4-1.1-4.2,0.8-5.3c2.3-1.4,6.4-0.6,8.1,1.6c-0.4,0.4-0.7,0.7-1.1,1.1
		c-1.3-1.6-3.1-2.1-5.1-1.8c-1,0.1-1.8,0.9-1.9,1.8c-0.1,0.8,0.6,1.6,1.6,2.1c1.5,0.6,3,1.2,4.5,2c1.4,0.7,1.8,2,1.7,3.5
		c-0.2,1.3-0.9,2.4-2.1,3C188.2,384.3,184,383.4,182.3,381z"/>
	<path class="st1" d="M156.5,363.6c2.1,0.6,4,1,5.8,1.6c1.9,0.6,3.2,2.3,3,4c-0.4,2.7-1.5,4-4,4.2c-1.1,0.1-2.3-0.4-3.5-0.7
		c-1.8-0.4-1.8-0.5-2.3,1.2c-0.4,1.2-0.6,2.5-1,3.7c-0.5-0.1-1.1-0.2-1.7-0.4C154.1,372.7,155.3,368.2,156.5,363.6z M156.4,370.7
		c1.3,0.3,2.5,0.5,3.6,0.9c1.4,0.4,2.8-0.3,3.3-1.7c0.5-1.5-0.2-3-1.8-3.4c-1.2-0.4-2.4-0.6-3.8-1
		C157.3,367.2,156.9,368.9,156.4,370.7z"/>
	<path class="st1" d="M231.6,379.7c1.5-0.3,2.9-0.5,4.4-0.8c0.3-0.1,0.7-0.1,1-0.2c1.1-0.3,1.4,0,1.3,1c0,0.1-0.2,0.3-0.4,0.4
		c-2.5,0.5-5,0.9-7.5,1.4c-0.1,0-0.2,0-0.3,0c-0.8-4.5-1.7-9.1-2.5-13.7c0.6-0.1,1.1-0.2,1.7-0.3
		C230.1,371.5,230.8,375.6,231.6,379.7z"/>
	<path class="st1" d="M209.1,369.6c0.6,0,1.1,0,1.7,0c0.1,1,0.2,2,0.2,3c0.1,1.8,0.1,3.5,0.2,5.3c0.1,1.7,0.2,3.3,0.3,5
		c0,0.2,0,0.4,0,0.6c-0.6,0-1,0-1.7,0C209.5,378.9,209.3,374.3,209.1,369.6z"/>
	<path class="st1" d="M133.1,123.9c5.5,4.4,11.4,7.5,17.8,9.8c7.3,2.6,14.8,3.6,22.6,2.7c10.2-1.3,19.1-5.4,27.2-11.7
		c0.2-0.1,0.4-0.3,0.5-0.4c0.3-0.4,0.5-0.3,0.9,0c4.6,3.9,9.8,6.8,15.3,9c3.5,1.4,7.1,2.4,10.8,3s7.5,0.7,11.2,0.3
		c10.3-1,19.5-4.7,28-10.6c0.9-0.6,1.7-1.3,2.7-2c0,0.4,0.1,0.6,0.1,0.9c0,31.9,0,63.8-0.1,95.7c0,4.7-0.6,9.3-1.5,13.9
		c-2.2,11.3-7.6,20.9-15,29.6c-9.9,11.6-21.9,20.5-35.8,26.9c-5,2.3-10.2,4.3-15.6,5.7c-0.4,0.1-1,0.1-1.4,0c-5-1.3-9.8-3-14.4-5.1
		c-14.3-6.4-26.7-15.5-36.9-27.5c-5.4-6.3-9.8-13.2-12.6-21.1c-1.4-3.9-2.3-7.9-2.9-11.9c-1-6.8-1-13.7-1-20.6c0-28.5,0-57,0-85.4
		C133,124.7,133.1,124.4,133.1,123.9z"/>
</g>
<circle class="st2" cx="200" cy="201.2" r="158.5"/>
<g>
	<path class="st3" d="M203,7.2c0.6,0.1,1.1,0.3,1.7,0.3c3.4,0.1,6.7,0.1,10.1,0.2c0.5,0,1,0.1,1.6,0.1c0,1.4,0,2.7,0,4.1
		c-3.8,0.5-7.6-0.3-11.5,0c-0.4,1.6-0.2,3.1-0.2,4.9c3.7,0.1,7.4,0.3,11.2,0.4c0,1.5,0,2.8,0,4.2c-3.8,0-7.5,0-11.4,0
		c0,1.7,0,3.3,0,5.2c3.7,0.1,7.5,0.3,11.4,0.4c0,1.4,0,2.7,0,4.2c-5.5,0.1-11-0.3-16.5-0.4c-0.1-0.4-0.2-0.7-0.2-0.9
		c0.1-4.5,0.2-8.9,0.3-13.4c0.1-3.1,0.2-6.2,0.2-9.3C200.9,7.2,201.9,7.2,203,7.2z"/>
	<path class="st3" d="M391.4,178.9c-2.2-0.2-4.3,0.3-6.6,0.7c0.2,2.1,0.4,4,0.6,6.2c-0.8,0.1-1.6,0.2-2.5,0.3c-0.6-1.9-0.5-3.9-1-6
		c-2.3-0.2-4.6,0.7-7.1,0.6c-0.1-0.8-0.2-1.7-0.3-2.8c2.3-0.3,4.5-0.7,7-1c-0.1-1.1-0.2-2-0.4-3c-0.1-1-0.2-2-0.3-3.2
		c0.8-0.1,1.6-0.2,2.6-0.3c0.3,2.1,0.6,4,0.9,6.2c2.2-0.3,4.4-0.5,6.4-0.7c0.2,0.4,0.4,0.7,0.5,1
		C391.4,177.5,391.4,178.2,391.4,178.9z"/>
	<path class="st3" d="M210.4,392.8c-0.2-2.9-0.5-5.7-0.7-8.6c-0.1-1.3-0.2-2.7-0.3-4c0-0.6,0-1.3,0-1.9c1.1-0.5,1.8-0.2,2.5,0.6
		c2.4,2.9,4.9,5.8,7.4,8.7c0.2,0.3,0.4,0.6,0.8,0.8c0.2-3.7-0.4-7.3-0.4-11c0.5-0.1,1-0.1,1.6-0.2c0.4,4.9,0.7,9.6,1.1,14.3
		c-1.2,0.8-1.6,0.6-2.5-0.5c-2.5-3-5-5.9-7.5-8.9c-0.3-0.3-0.6-0.6-1.2-1.2c0.3,3.8,0.6,7.3,0.9,10.8c0,0.3-0.1,0.7-0.2,1
		C211.4,392.8,210.9,392.8,210.4,392.8z"/>
	<path class="st3" d="M195.9,392.8c0-4.8,0-9.6,0-14.7c2.9-0.1,5.5-0.4,8,0.4c1.6,0.6,2.4,2,2.5,3.7c0.1,1.8-0.8,3.4-2.3,4.1
		c-0.4,0.2-0.9,0.3-1.5,0.5c1.2,2,2.3,4,3.5,5.9c-0.7,0-1.4,0-2.1,0c-1.1-1.9-2.1-3.8-3.2-5.6c-0.1-0.2-0.6-0.4-0.9-0.4
		c-0.7-0.1-1.4,0-2.1,0c-0.1,1.2-0.1,2.2-0.2,3.2c-0.1,0.9-0.2,1.9-0.2,2.8C196.9,392.8,196.4,392.8,195.9,392.8z M197.8,385.3
		c1.5,0,2.9,0.1,4.2,0c1.4-0.1,2.3-1.1,2.5-2.5c0.2-1.4-0.6-2.7-1.9-3c-1.6-0.3-3.2-0.5-5,0c0,1.5,0,2.9,0,4.3
		C197.7,384.4,197.8,384.8,197.8,385.3z"/>
	<path class="st3" d="M42.6,201.1c0-55.9,28-107.4,74.8-137.4c18.2-11.6,37.9-19.2,59.2-22.8c12.1-2,24.3-2.7,36.5-1.8
		c42.3,3.2,78,20.5,106.7,51.7c20.9,22.7,34,49.4,39.8,79.7c2.4,12.6,3.3,25.3,2.7,38c-3.1,67.9-46.6,123.4-104.8,145
		c-11.9,4.4-24.2,7.4-36.9,8.8c-10.3,1.2-20.6,1.4-30.9,0.5c-34.7-3-65.3-15.9-91.4-38.8c-27.5-24-44.8-54.1-52.3-89.8
		C43.6,223.4,42.5,212.3,42.6,201.1z M46.1,201.1c0,11,1.1,22,3.5,33c7.9,36.6,26.1,66.9,55,90.6c26.4,21.6,56.8,33.2,90.9,34.8
		c14.2,0.7,28.2-0.6,42-3.8c32.1-7.6,59.2-23.9,81.1-48.6c24-27.1,37.1-59,39.7-95.1c1.1-14.5,0.1-28.9-2.8-43.1
		c-6.3-30.5-20.2-57.2-42.1-79.4c-28.3-28.8-62.8-44.5-103.2-46.9c-12.2-0.7-24.4,0.1-36.5,2.5c-33.2,6.5-61.6,22-84.6,46.8
		C60.6,122.7,46.7,159.4,46.1,201.1z"/>
	<path class="st3" d="M365.8,114.1c-4.4,2.1-8.7,4.3-13.2,6.5c-0.7-1.4-1.4-2.8-2.2-4.3c7-3.5,13.9-6.9,21-10.5
		c0.7,1.5,1.5,2.8,2.1,4.2c0.1,0.3-0.1,0.9-0.2,1.3c-1.9,3.7-3.8,7.3-5.6,11c-0.6,1.3-1.3,2.5-2.1,4.2c2.6-0.8,4.6-2,6.7-3
		c2.1-1,4.1-2,6.3-3.1c1.1,1.2,1.5,2.7,2.3,4.3c-7,3.5-13.9,6.9-20.8,10.4c-1-1.1-1.5-2.5-2.1-3.8c-0.2-0.3,0.1-0.9,0.3-1.3
		c2-3.9,4.1-7.9,6.1-11.8c0.6-1.2,1.3-2.5,1.9-3.7C366,114.3,365.9,114.2,365.8,114.1z"/>
	<path class="st3" d="M139.5,42.9c-2.5-7.6-4.9-14.9-7.3-22.2c0.2-0.2,0.2-0.3,0.3-0.3c3.5-1.1,7-2.5,10.6-3.3
		c6.8-1.5,12.6,2.7,13.8,9.8c1.1,6.3-2.8,10.6-6.6,12.2C146.9,40.4,143.3,41.5,139.5,42.9z M142.8,37.1c1.8-0.6,3.3-1,4.8-1.7
		c2.7-1.1,4.3-3.2,4.4-6.1c0.1-3.1-1.1-5.6-3.8-7.3c-0.5-0.3-1.1-0.5-1.6-0.6c-3.1-0.5-5.7,0.6-8.5,1.7
		C139.8,27.8,141.2,32.4,142.8,37.1z"/>
	<path class="st3" d="M72,64.3c-0.4,1.6-0.8,2.9-1.2,4.3c-0.4,0-0.8,0.1-1.1,0.1c-4.8-0.3-8.7,5.2-6.3,10.2c1.8,3.9,6.2,5.9,10,4.4
		c2.3-0.9,3.8-2.7,4.6-5.1c0.5-1.7,0.2-2.2-1.8-3.5c-1.5,1.3-3,2.7-4.6,4.1C70.9,78,70,77,69,75.8c2.3-2.5,4.8-5.1,7.4-7.9
		c1.4,1.3,2.7,2.5,4.1,3.8c0.4,0.4,0.7,0.8,1.1,1.1c1.5,0.9,1.5,2.2,1.4,3.7c-0.6,7.2-7.3,12.9-14.2,12c-4.7-0.6-8-3.3-9.9-7.6
		c-1.9-4.4-0.9-8.4,1.8-12.1c2.2-3,5.2-4.5,8.9-4.8C70.3,64,71,64.2,72,64.3z"/>
	<path class="st3" d="M49,126.9c-0.6,1.6-1.2,2.9-1.7,4.2c-0.3,0.7-0.8,1.1-1.6,1.1c-2.1,0.2-4.2,0.4-6.3,0.7
		c-0.7,0.1-1.4,0.2-2.1,0.3c-0.5,1.1-0.9,2.2-1.4,3.4c2.6,1.1,5.1,2.1,7.7,3.2c-0.6,1.5-1.2,2.9-1.9,4.5c-7.2-3-14.4-5.9-21.7-9
		c0.5-1.3,1-2.5,1.5-3.7c0.9-2.2,1.8-4.5,2.7-6.7c2.2-4.9,7.4-6.3,11.7-3.2c1.7,1.2,2.6,2.9,2.7,4.9c0,0.5,0.1,0.9,0.1,1.5
		c1.7-0.2,3.4-0.5,5-0.7C45.5,127.4,47.1,127.1,49,126.9z M31.7,134.9c0.2-0.2,0.3-0.3,0.4-0.4c0.5-1.2,1.1-2.5,1.6-3.7
		c0.2-0.6,0.5-1.2,0.5-1.8c0.2-1.8-0.6-3-2-3.5c-1.5-0.5-3,0-3.8,1.5c-0.9,1.7-1.6,3.6-2.5,5.5C28,133.3,29.9,134.1,31.7,134.9z"/>
	<path class="st3" d="M104.4,56.7C104.1,63.9,98,69,91.7,69c-7.7,0-12.2-6.8-12.2-12.4C79.5,50.5,85,44.3,92,44.2
		C99.3,44.2,104.1,50.2,104.4,56.7z M84.4,56c0,3.5,2.9,7.3,6.3,8.1c5,1.2,9.5-3.3,8.7-7.8c-0.4-2.8-1.9-4.8-4.1-6.3
		c-2.3-1.5-4.7-1.6-7.2-0.2C85.7,51.2,84.4,53.2,84.4,56z"/>
	<path class="st3" d="M118.3,27.8c6.6-0.1,12,5.6,12,12.5c0,8-7.4,12.1-12.9,12.1c-5.9,0-11.7-5.1-11.9-12.5
		C105.3,33.5,111.4,27.8,118.3,27.8z M125.2,40.8c0-2-0.5-3.5-1.8-5.2c-1.9-2.7-5.2-3.8-8.1-2.8c-3.1,1.1-5.2,3.7-4.9,7.1
		c0.1,1.8,0.8,3.4,1.8,4.9c2,2.8,5,3.8,8,2.8C123.5,46.5,125.3,44,125.2,40.8z"/>
	<path class="st3" d="M255.6,24.7c3.7,1.2,7.2,2.3,10.9,3.5c-0.5,1.4-0.9,2.7-1.3,4.1c-3.6-1.1-7.2-2.2-10.8-3.4
		c-0.6,1.7-1.1,3.3-1.7,5.1c3.7,1.2,7.3,2.4,11.1,3.6c-0.5,1.4-0.9,2.7-1.3,4.1c-5.3-1.7-10.4-3.3-15.8-5c2.4-7.5,4.7-14.8,7.1-22.4
		c5.3,1.7,10.5,3.3,15.8,5c-0.4,1.4-0.8,2.7-1.3,4.1c-3.7-1.2-7.4-2.3-11.1-3.5C256.6,21.5,256.2,23,255.6,24.7z"/>
	<path class="st3" d="M291.1,55.7c4.5-6.6,8.8-13,13.2-19.5c4.6,3.1,9.2,6.2,13.8,9.3c-0.8,1.2-1.6,2.3-2.4,3.6
		c-3.2-2.2-6.4-4.3-9.7-6.5c-0.9,1.4-1.8,2.7-2.8,4.2c3.1,2.1,6.2,4.3,9.4,6.5c-0.8,1.2-1.6,2.3-2.4,3.5c-3.1-2.1-6.2-4.1-9.4-6.3
		c-1.1,1.4-2,2.8-3,4.5c3.2,2.2,6.3,4.3,9.6,6.5c-0.8,1.2-1.6,2.4-2.4,3.6C300.3,61.9,295.8,58.8,291.1,55.7z"/>
	<path class="st3" d="M13,160.2c1.4-5.5,2.8-10.7,4.2-16.1c1.5,0.4,2.8,0.7,4.2,1.1c-1,3.8-1.9,7.5-2.9,11.3
		c1.6,0.4,3.2,0.8,4.9,1.3c1-3.7,1.9-7.3,2.9-11c1.4,0.4,2.7,0.7,4.1,1.1c-1,3.7-1.9,7.3-2.8,11c1.8,0.5,3.4,0.9,5.2,1.4
		c1-3.8,2-7.4,3-11.2c1.4,0.3,2.7,0.7,4.2,1c-1.4,5.4-2.7,10.6-4.1,16C28.2,164.2,20.7,162.2,13,160.2z"/>
	<path class="st3" d="M357.1,84.1c3.2,4.6,6.3,9.1,9.5,13.6c-1.2,0.8-2.2,1.6-3.5,2.5c-2.2-3.2-4.4-6.3-6.7-9.6
		c-1.4,1-2.7,1.9-4.1,2.9c2.2,3.2,4.3,6.2,6.5,9.4c-1.2,0.8-2.2,1.6-3.5,2.5c-2.2-3.1-4.3-6.1-6.5-9.2c-1.6,0.8-2.9,1.9-4.5,3
		c2.2,3.2,4.3,6.3,6.6,9.5c-1.2,0.8-2.3,1.6-3.5,2.5c-3.2-4.6-6.3-9-9.5-13.6C344.2,93.1,350.6,88.7,357.1,84.1z"/>
	<path class="st3" d="M223.8,8.3c2,0.3,3.8,0.6,5.7,0.9c1.3,2.8,2.6,5.7,4,8.8c0.9-0.9,1.6-1.6,2.3-2.3c1.2-1.2,2.3-2.5,3.5-3.8
		c0.6-0.7,1.2-0.9,2-0.7c1.4,0.3,2.8,0.5,4.5,0.8c-3,3.6-6.4,6.6-9.5,10c2.1,4.3,4.1,8.6,6.4,13.3c-2-0.3-3.7-0.5-5.4-0.9
		c-0.4-0.1-0.7-0.7-0.9-1.2c-1.2-2.5-2.3-5-3.5-7.5c-0.1-0.2-0.2-0.4-0.3-0.5c-2,1.9-4.1,3.7-6,5.7c-1,1-1.8,1.6-3.3,1.2
		c-1.2-0.3-2.4-0.4-3.8-0.7c0.6-0.6,1-1.1,1.4-1.5c2.5-2.5,5.1-5.1,7.6-7.6c1.3-1.3,1.3-1.3,0.5-3C227.3,15.6,225.6,12.1,223.8,8.3z
		"/>
	<path class="st3" d="M33.7,179.1c-0.2,2.1-0.5,4.1-0.7,6.2c-8.1,2.1-16.1,4.2-24.4,6.4c0.2-1.8,0.4-3.4,0.6-4.9
		c0.1-0.9,0.9-0.9,1.5-1c3.1-0.8,6.3-1.5,9.4-2.2c2.5-0.6,4.9-1.2,7.4-1.9c-5.5-3.1-11.2-5.6-16.8-8.5c0.2-1.8,0.4-3.5,0.6-5.5
		C18.8,171.3,26.1,175.2,33.7,179.1z"/>
	<path class="st3" d="M286.5,44.6c0.9,1.1,1.8,2.2,2.8,3.5c-0.6,0.4-1.1,0.8-1.6,1c-3.7,1.8-7.3,1.4-10.8-0.7
		c-4.3-2.6-6.6-6.5-6-11.5c0.6-5,3.3-8.8,8.2-10.6c5.4-2,13.3,1,15.3,7c0.1,0.4,0.2,0.8,0.3,1.2c0.1,0.6,0.2,1.2,0.3,2
		c-1.6,0-3,0-4.6,0c-0.1-0.4-0.2-0.9-0.4-1.3c-1.3-4.7-6.9-6.3-10.7-3.6c-3.2,2.3-4.5,6.8-2.8,10.2c1.5,3,5.5,5.2,9.1,3.2
		C285.8,44.8,286.1,44.7,286.5,44.6z"/>
	<path class="st3" d="M39.1,97.1c0.9-1.5,1.8-3,2.7-4.6c0.3,0.5,0.6,0.8,0.8,1.2c2,4,4,8,6,12c0.5,1,1.1,1.7,2.1,2.3
		c2.2,1.3,4.4,2.6,6.8,4c-0.8,1.4-1.6,2.8-2.5,4.2c-1.9-1.1-3.8-2.1-5.5-3.3c-2-1.4-4.1-1.9-6.5-1.4c-1.3,0.3-2.7,0.1-4.1,0.1
		c-2.5,0.1-4.9,0.2-7.4,0.3c-0.3,0-0.7,0-1.3-0.1c0.9-1.6,1.7-2.9,2.5-4.2c0.2-0.3,0.8-0.4,1.2-0.4c2.7-0.1,5.4-0.1,8.1-0.1
		c0.6,0,1.1-0.1,2-0.1C42.4,103.5,40.8,100.3,39.1,97.1z"/>
	<path class="st3" d="M389.6,150.3c-1.4,0.5-2.7,0.9-4.1,1.3c-0.7-2.1-1.4-4.2-2.2-6.5c-3.1,1-6.1,2-9.1,2.9c-3,1-5.9,1.9-9.1,2.9
		c-0.5-1.5-1-3-1.6-4.7c6.1-2,12-3.9,18.2-5.9c-0.7-2.2-1.3-4.3-2-6.5c1.3-0.5,2.6-0.9,4.1-1.4C385.8,138.5,387.7,144.3,389.6,150.3
		z"/>
	<path class="st3" d="M316,68.5c2.6,2.3,5,4.4,7.5,6.6c-0.9,1.1-1.8,2.1-2.8,3.2c-3.7-3.3-7.4-6.5-11.2-9.8
		c5.2-5.9,10.2-11.7,15.5-17.7c1.2,1,2.4,2.1,3.7,3.2C324.4,58.9,320.2,63.6,316,68.5z"/>
	<path class="st3" d="M324.4,82.2c5.9-5.3,11.6-10.5,17.5-15.7c1.1,1.3,2.2,2.4,3.3,3.7c-4.7,4.3-9.4,8.5-14.2,12.8
		c2.2,2.5,4.3,4.9,6.6,7.4c-1,0.9-2,1.9-3.2,2.9C331.1,89.5,327.8,85.9,324.4,82.2z"/>
	<path class="st3" d="M122,374.5c-0.5-0.2-1-0.4-1.6-0.6c2-4.5,3.9-8.8,5.9-13.4c0.8,0.3,1.4,0.6,2.2,1c0,3.8,0,7.7,0,11.9
		c3-2.8,5.7-5.4,8.5-8c0.7,0.3,1.5,0.6,2.3,1c-2,4.5-3.9,8.9-5.9,13.4c-0.5-0.3-0.9-0.5-1.5-0.8c1.5-3.5,3-6.9,4.5-10.3
		c-3.4,2.6-6.2,5.6-9.6,8.2c-0.2-4.1,0-8.2-0.2-12.3C124.9,367.7,123.7,371.2,122,374.5z"/>
	<path class="st3" d="M67,330.3c1.7-0.9,3.5-1.9,5.2-2.8c1.4-0.8,2.9-1.6,4.3-2.4c0.8-0.5,1.4-0.4,1.9,0.7c-1.9,3.3-3.9,6.7-6,10.2
		c0.1,0.1,0.2,0.2,0.3,0.3c3.5-1.7,6.9-3.9,10.5-5.7c0.4,0.4,0.8,0.8,1.4,1.3c-4.7,2.5-9.1,4.8-13.6,7.3c-0.4-0.5-0.8-1-1.2-1.5
		c2-3.4,4-6.7,5.9-10c-0.1-0.1-0.2-0.2-0.2-0.3c-3.4,1.8-6.8,3.7-10.4,5.6c-0.4-0.5-0.8-0.9-1.2-1.4c2.5-4.3,5-8.6,7.6-13
		c0.5,0.4,0.9,0.8,1.4,1.2c-2.1,3.5-4.1,6.9-6.2,10.3C66.8,330.1,66.9,330.2,67,330.3z"/>
	<path class="st3" d="M327.5,339.8c-2.3-2.7-4.7-5.4-7.1-8.1c0.4-0.4,0.7-0.8,1.1-1.3c3.2,3.7,6.4,7.2,9.6,10.8
		c-0.5,1.2-1.3,1.3-2.3,1.1c-4-0.9-7.9-1.7-11.9-2.6c-0.2,0-0.5-0.1-1.1-0.1c2.7,3,5.1,5.8,7.6,8.7c-0.4,0.4-0.8,0.7-1.3,1.2
		c-3.2-3.7-6.4-7.2-9.5-10.8c0.5-1.3,1.3-1.4,2.4-1.2c3.5,0.8,7,1.5,10.5,2.3c0.5,0.1,1.1,0.2,1.7,0.3
		C327.4,340,327.5,339.9,327.5,339.8z"/>
	<path class="st3" d="M303.7,363.1c-2.8-4.1-5.5-8-8.3-12.1c1.9-1.2,3.5-2.6,5.4-3.5c5.1-2.5,10.1,1.3,10.5,6.5
		c0.2,2.5-1.2,4.5-3.1,6C306.7,361.1,305.3,362,303.7,363.1z M304.3,360.9c1.3-1,2.5-1.8,3.5-2.7c1.9-1.8,2.2-4.2,0.8-6.6
		c-1.3-2.4-3.7-3.7-6.1-3.1c-1.9,0.4-3.3,1.7-4.8,2.9C299.9,354.6,302,357.7,304.3,360.9z"/>
	<path class="st3" d="M268.8,367.3c-0.4,0.6-0.6,1-0.8,1.2c-1.2-0.2-2.4-0.6-3.5-0.5c-4.6,0.6-6.6,5.4-4,9.4c2,3,5.9,3.5,8.6,1.1
		c1.3-1.1,1.4-1.7,0.8-3.2c-0.2-0.4-0.4-0.8-0.6-1.4c-1.5,0.6-3,1.1-4.6,1.6c-0.2-0.4-0.4-0.8-0.6-1.4c2.1-0.8,4.2-1.6,6.4-2.4
		c0.6,1.5,1.1,3,1.6,4.4c0.1,0.4,0.1,0.9-0.1,1.3c-1.4,2.5-3.6,3.9-6.4,4c-2.9,0.2-5.2-1-6.7-3.5c-1.5-2.6-1.9-5.4-0.2-8
		c1.6-2.6,4.1-3.8,7.2-3.6C266.7,366.7,267.6,367,268.8,367.3z"/>
	<path class="st3" d="M237.2,374.6c2.3-0.5,4.4-1.1,6.6-1.5c1.8-0.3,3.7,0.9,4.4,2.6c0.8,1.9,0.3,3.9-1.2,5.1
		c-0.3,0.2-0.7,0.5-1.2,0.8c1.6,1.6,3.2,3.1,4.8,4.6c-1.4,0.8-1.6,0.8-2.6-0.1c-0.9-0.9-1.8-1.8-2.7-2.7c-0.9-1-1.9-1.5-3.3-0.8
		c-0.3,0.1-0.5,0.2-1,0.4c0.4,1.8,0.8,3.5,1.2,5.4c-0.4,0.2-0.9,0.4-1.6,0.7C239.5,384.1,238.3,379.4,237.2,374.6z M240.6,381.3
		c1.6-0.4,3.1-0.7,4.5-1.2c1.2-0.4,1.7-1.6,1.5-3.1c-0.2-1.2-1.1-2.2-2.4-2.2c-1.7,0-3.3,0.4-5,1.1
		C239.7,377.7,240.1,379.4,240.6,381.3z"/>
	<path class="st3" d="M334.3,320.8c-0.1,0.6-0.2,1-0.4,1.5c-1.5,0-2.9,0.5-4,1.4c-2.7,2.4-2.6,6.5,0.4,8.9c3.4,2.8,8,1.5,9.4-2.7
		c0.3-1,0.2-1.8-0.6-2.5c-0.5-0.4-0.9-0.8-1.4-1.2c-1.2,1.2-2.3,2.4-3.6,3.7c-0.4-0.4-0.7-0.8-1-1.2c1.4-1.5,2.7-2.9,4-4.2
		c0.2-0.2,0.4-0.4,0.7-0.6c1.1,1,2.2,2,3.3,3c0.6,0.6,0.5,1.3,0.5,2c-0.4,3.2-2.9,5.9-6,6.7c-3,0.7-6.1-0.6-8-3.4
		c-1.7-2.5-1.8-5-0.4-7.7C328.8,322,331.2,320.6,334.3,320.8z"/>
	<path class="st3" d="M276.2,371.4c0.8,1.8,1.5,3.4,2.4,5.2c-0.5,0.3-0.9,0.5-1.5,0.8c-2.1-4.4-4.1-8.7-6.2-13.2
		c2.4-1.2,4.6-2.5,7.1-3.1c1.4-0.3,3.2,0.7,3.9,2.1c0.8,1.5,1.2,3.1,0,4.6c-0.3,0.4-0.7,0.8-1.2,1.3c1.9,1.2,3.8,2.4,5.7,3.6
		c-0.9,0.8-1.6,1.1-2.6,0.4c-1.1-0.8-2.3-1.4-3.4-2.2c-1-0.8-1.9-0.9-3-0.2C277.1,371,276.8,371.1,276.2,371.4z M275.6,369.9
		c0.7-0.3,1.2-0.5,1.6-0.8c0.8-0.4,1.7-0.7,2.5-1.3c1.2-0.9,1.5-2.3,0.8-3.6c-0.7-1.3-2-1.9-3.4-1.3c-1.3,0.5-2.6,1.2-4,1.8
		C274,366.6,274.7,368.2,275.6,369.9z"/>
	<path class="st3" d="M148.8,376.3c0-1.1-0.1-2.2,0-3.2c0.2-1.4,1.4-2.4,2.8-2.5c1.6-0.1,2.9,0.3,3.8,1.7c0.8,1.3,0.1,3.2-1.5,4
		c-0.9,0.4-1.9,0.7-2.9,1c0.2,1.7,1.2,3.1,2,4.9c0.9-0.9,1.7-1.7,2.6-2.6c0.3,0.3,0.6,0.5,1,0.8c-1,1.1-1.9,2-2.9,3.1
		c0.5,1,1,1.9,1.6,3c-1.7,0.3-2.2-1-2.9-2c-1,0.2-1.9,0.4-2.8,0.5c-1.7,0.1-3.3-0.4-4.4-1.8c-1.4-1.7-1-4.5,0.9-5.7
		C147,377.1,147.9,376.8,148.8,376.3z M151.7,383.1c-0.5-1-0.9-1.8-1.3-2.7c-0.4-0.8-0.7-1.7-1.1-2.5c-1.6,0.2-2.7,0.9-3,2
		c-0.4,1.2,0,2.5,0.9,3.2C148.6,384.2,150.1,384.1,151.7,383.1z M150.8,376.2c0.8-0.3,1.7-0.5,2.4-0.9c0.9-0.5,1.2-1.4,1-2.2
		c-0.2-0.8-0.8-1.1-1.6-1.2c-0.9-0.1-1.8,0.4-2.1,1.2C150.1,374.1,150,375.1,150.8,376.2z"/>
	<path class="st3" d="M117.7,372.4c-1.8-0.8-1.7-0.8-1.5-2.3c0.1-0.6,0.1-1.3,0.2-2c-2.1-1.2-4.2-2.4-6.3-3.6
		c-0.9,0.7-1.8,1.4-2.7,2.1c-0.5-0.3-1-0.5-1.8-0.9c4.2-3.4,8.3-6.7,12.3-9.9c0.7,0.4,1.3,0.7,1.9,1.1
		C119,362.1,118.4,367.2,117.7,372.4z M117.8,358.5c-0.1-0.1-0.3-0.1-0.4-0.2c-2,1.6-4,3.3-6.3,5.1c1.9,1.1,3.6,2,5.5,3.1
		C117.1,363.6,117.4,361,117.8,358.5z"/>
	<path class="st3" d="M300.9,364.8c-0.7,0.4-1.1,0.7-1.6,1c-0.9-0.7-1.9-1.4-2.9-2.1c-1.8,1-3.6,2.1-5.4,3c-0.8,0.4-1.1,1-0.8,1.9
		c0.1,0.3,0.1,0.7,0.2,1c0.1,1.4,0.1,1.4-1.6,1.8c-0.7-5.1-1.4-10.1-2.1-15.2c0.6-0.4,1.2-0.7,1.9-1.2
		C292.6,358.3,296.7,361.5,300.9,364.8z M289,357.5c-0.1,0.1-0.3,0.2-0.4,0.3c0.4,2.6,0.8,5.1,1.2,7.9c1.9-1.1,3.6-2.1,5.5-3.1
		C293,360.8,291,359.1,289,357.5z"/>
	<path class="st3" d="M235.1,381.7c0.1,0.5,0.1,0.9,0.2,1.4c-2.5,0.4-4.9,0.8-7.5,1.3c0.3,1.7,0.5,3.3,0.8,5c2.5-0.4,5-0.7,7.6-1.1
		c0.1,0.5,0.2,0.9,0.3,1.5c-3.2,0.5-6.2,1-9.4,1.5c-0.8-4.8-1.5-9.5-2.3-14.3c3.1-0.8,6.2-1.1,9.3-1.6c0.1,0.5,0.2,0.8,0.4,1.4
		c-2.5,0.4-4.9,0.8-7.4,1.2c-0.4,1.6,0.3,3.1,0.4,4.8C230.1,382.5,232.5,382.1,235.1,381.7z"/>
	<path class="st3" d="M180.7,376.8c0.7,0.1,1.1,0.1,1.7,0.2c-0.2,2-0.3,3.9-0.5,5.8c-0.1,1.3-0.3,2.6-0.2,3.9c0,2.3,1.4,3.8,3.7,4
		c2.5,0.2,4.2-0.9,4.6-3.3c0.4-2.6,0.5-5.3,0.8-7.9c0.1-0.5,0.1-1,0.2-1.6c0.6,0.1,1.1,0.2,1.7,0.3c-0.3,3.2-0.6,6.3-1,9.4
		c-0.4,3.8-3.9,5.4-6.9,4.7c-3.7-0.8-5-2.5-4.8-6.4c0.1-1.5,0.2-2.9,0.4-4.4C180.4,379.9,180.6,378.5,180.7,376.8z"/>
	<path class="st3" d="M171,390.1c-0.6-0.1-1-0.1-1.7-0.2c0.7-4.3,1.5-8.5,2.2-12.9c-1.6-0.3-3-0.6-4.6-0.9c0.1-0.5,0.2-0.9,0.4-1.4
		c3.6,0.6,7.1,1.3,10.6,1.9c0.2,1-0.1,1.5-1,1.4c-1.2-0.2-2.3-0.4-3.7-0.6C172.6,381.5,171.8,385.7,171,390.1z"/>
	<path class="st3" d="M83.8,348.2c1.7,1.4,3.4,2.8,5.2,4.3c-0.3,0.4-0.5,0.7-0.9,1.2c-2.2-1.8-4.4-3.5-6.6-5.4
		c3.1-3.8,6.1-7.4,9.2-11.3c0.5,0.3,0.9,0.6,1.4,0.9C89.3,341.4,86.6,344.7,83.8,348.2z"/>
	<path class="st3" d="M91.1,356c2.9-4,5.6-7.9,8.4-11.8c0.5,0.3,0.9,0.5,1.5,0.9c-2.5,3.6-5,7.1-7.5,10.7c1.8,1.3,3.6,2.6,5.4,4
		c-0.2,0.4-0.5,0.8-0.8,1.3C95.7,359.3,93.4,357.7,91.1,356z"/>
	<path class="st3" d="M173.9,26.5c-0.2-1.3-0.3-2.4-0.5-3.7c2.7-0.4,5.4-0.8,8.3-1.2c0.2,1.2,0.4,2.4,0.6,3.7
		C179.4,25.7,176.7,26.1,173.9,26.5z"/>
	<path class="st3" d="M318.6,352.4c-0.5,0.4-0.9,0.7-1.3,1.1c-3-3.9-6-7.6-9-11.5c0.4-0.3,0.7-0.6,1.3-1.1
		C312.6,344.6,315.5,348.5,318.6,352.4z"/>
	<path class="st3" d="M78,345c-0.5-0.4-0.9-0.7-1.4-1.1c3.3-3.6,6.5-7.2,9.7-10.8c0.5,0.4,0.9,0.7,1.3,1.1
		C84.4,337.9,81.2,341.4,78,345z"/>
	<path class="st3" d="M109.3,350.7c0.5,0.3,0.9,0.6,1.5,0.9c-2.6,4.1-5.2,8.1-7.8,12.2c-0.5-0.3-0.9-0.5-1.5-0.8
		C104,358.9,106.6,354.8,109.3,350.7z"/>
	<path class="st3" d="M235,237.7c3.9-4.9,7.7-9.7,11.6-14.6c0.5,0.4,0.9,0.7,1.2,1c5.7,5.6,12.6,8.5,20.5,9.5
		c4,0.5,7.9,0.4,11.7-0.8c4.3-1.3,7.8-3.7,9.7-7.9c2.9-6.2,0.8-14.3-5.8-17.8c-3.9-2-8.1-2.6-12.3-2.3c-6.9,0.3-13,2.6-18.1,7.4
		c-0.5,0.5-1,0.5-1.6,0.4c-4.5-1.2-9-2.4-13.6-3.6c0-18.8,0-37.6,0-56.5c0,0,0.1,0,0.1-0.1c0,0,0.1-0.1,0.1-0.1
		c0.5,0,0.9-0.1,1.4-0.1c21.8,0,43.5,0,65.3,0.1c0.1,0,0.2,0.1,0.4,0.2c0,6,0,12,0,18.3c-15.4,0-30.8,0-46.3,0c0,7.9,0,15.6,0,23.5
		c1.4-1,2.7-2,4-2.8c4.7-2.8,9.7-4.4,15.2-4.7c5.7-0.4,11.1,0.6,16.3,2.9c7.3,3.4,12.5,8.8,15.3,16.3c3.1,8.4,3,16.9,0,25.2
		c-2.5,6.8-7.1,11.9-13.3,15.6c-4.7,2.8-9.8,4.3-15.1,5.2c-4,0.6-8,0.8-12,0.6c-9.4-0.5-18.5-2.4-26.5-7.7c-2.6-1.7-4.9-3.9-7.3-5.8
		C235.7,238.6,235.4,238.2,235,237.7z"/>
	<path class="st3" d="M159,152.2c0,19.9,0,39.6,0,59.6c4.3,0,8.4,0,12.4,0c0.4,1.4,0.5,16,0.1,18.5c-4.1,0-8.2,0-12.5,0
		c-0.1,3.5,0,6.9,0,10.2c0,3.3,0,6.7,0,10.2c-7.1,0-14,0-21.1,0c0-6.7,0-13.4,0-20.3c-15.7,0-31.1,0-46.7,0c-0.1-0.6-0.2-1-0.2-1.5
		c0-4.7,0-9.4,0-14.2c0-0.7,0.3-1.5,0.6-2.1c6.5-10.3,13.1-20.6,19.6-30.9c5.8-9.2,11.7-18.4,17.5-27.6c0.3-0.4,0.5-1,0.9-1.3
		c0.3-0.3,0.7-0.4,1.2-0.6c0.1-0.1,0.3,0,0.5,0c8.7,0,17.5,0,26.2,0C158,152.1,158.3,152.1,159,152.2z M137.9,172.1
		c-0.1,0-0.2-0.1-0.3-0.1c-0.2,0.3-0.5,0.6-0.7,0.9c-6,9.3-12,18.6-18,27.9c-2.1,3.3-4.2,6.5-6.3,9.8c-0.2,0.3-0.3,0.7-0.4,1.1
		c4.6,0.4,24.4,0.2,25.8-0.2C137.9,198.4,137.9,185.3,137.9,172.1z"/>
	<path class="st3" d="M199.1,270.8c-2.7-2.2-5.3-4.3-8.1-6.7c2.7-1.6,5-3.6,6.9-5.9c1.9-2.2,3.6-4.6,4.3-7.6c-1.5,0-3,0.2-4.3,0
		c-4.5-0.8-7.7-4.2-8.2-8.8c-0.5-5.1,1.3-9.3,5.8-12c4.3-2.7,10.5-1.8,14.1,1.5c3.6,3.2,4.9,7.4,4.9,12c0,4.9-1.1,9.6-3.4,13.9
		C208.5,262.4,203.6,268,199.1,270.8z"/>
</g>
<g>
	<path class="st3" d="M-788.6-588.3c2.1,0.5,4.3,1.1,6.4,1.5c4.5,0.9,9.1,1.7,13.7,2.5c0.5,0.1,0.9,0.3,1.5,0.5
		c-0.4,1.8-0.7,3.6-1.1,5.6c-5.2-0.9-10.2-1.9-15.5-2.8c-0.4,2.1-0.8,4.2-1.3,6.6c4.9,1.4,10,1.8,15.1,3.1c-0.3,1.8-0.6,3.6-0.9,5.7
		c-5.1-0.9-10.1-1.8-15.3-2.7c-0.5,2.4-0.9,4.6-1.3,7c5.1,1.5,10.3,1.8,15.5,3.2c-0.3,1.9-0.6,3.6-1,5.6c-7.4-1.4-14.6-2.7-22.1-4.1
		c2-10.6,3.9-21.1,5.8-31.6C-788.9-588.3-788.7-588.3-788.6-588.3z"/>
	<path class="st3" d="M-1084.3-381.4c0.5-1.2,1.1-2.3,1.5-3.5c0.4-1.2,0.7-2.4,1.1-3.6c8.5-0.7,16.9-1.4,25.3-2.1
		c0.1-0.2,0.1-0.3,0.2-0.5c-6.9-4.8-13.8-9.7-20.8-14.6c0.6-2.4,1.2-4.6,2-7.4c9.3,6.8,18.3,13.4,27.5,20.2c-0.7,2.4-1.3,4.9-2,7.3
		c-0.3,1-1.1,1-1.9,1.1c-3.8,0.4-7.6,0.8-11.4,1.1c-6.6,0.6-13.1,1.3-19.7,2c-0.5,0.1-1.1,0.3-1.6,0.4
		C-1084.3-381.1-1084.3-381.3-1084.3-381.4z"/>
	<path class="st3" d="M-571.1-390.5c-1.7,0.5-3.5,1.1-5.4,1.7c-0.9-3-1.8-5.8-2.7-8.9c-8.3,2.5-16.5,4.9-24.9,7.4
		c-0.6-2.1-1.2-4.2-1.9-6.4c8.3-2.5,16.5-4.9,24.9-7.4c-0.9-3-1.7-5.8-2.6-8.9c1.9-0.6,3.6-1.1,5.6-1.7c0.3,1.1,0.6,2,0.8,2.8
		c2,6.7,3.9,13.5,5.9,20.2c0,0.1,0.2,0.2,0.3,0.3C-571.1-391.2-571.1-390.9-571.1-390.5z"/>
	<path class="st3" d="M-815.5-68c-0.3-3.9-0.7-7.8-1-11.6c-0.2-1.8-0.3-3.6-0.4-5.5c-0.1-0.9,0-1.7,0-2.6c1.5-0.6,2.4-0.3,3.4,0.9
		c3.3,4,6.7,7.9,10.1,11.8c0.3,0.4,0.5,0.8,1.1,1.1c0.3-5-0.5-9.8-0.6-14.9c0.7-0.1,1.4-0.2,2.2-0.3c0.5,6.6,1,13,1.5,19.3
		c-1.7,1-2.2,0.8-3.4-0.6c-3.4-4-6.8-8-10.2-12c-0.4-0.5-0.9-0.9-1.6-1.6c0.4,5.2,0.8,9.9,1.2,14.6c0,0.4-0.2,0.9-0.3,1.4
		C-814.2-68-814.8-68-815.5-68z"/>
	<path class="st3" d="M-835.1-68c0-6.5,0-13.1,0-19.9c3.9-0.2,7.5-0.6,10.9,0.6c2.2,0.8,3.3,2.7,3.4,5.1c0.1,2.5-1.1,4.6-3.1,5.5
		c-0.6,0.3-1.2,0.4-2,0.7c1.6,2.7,3.2,5.4,4.7,8c-1,0-1.9,0-2.9,0c-1.5-2.5-2.9-5.1-4.4-7.6c-0.2-0.3-0.8-0.5-1.2-0.5
		c-0.9-0.1-1.8,0-2.9,0c-0.1,1.7-0.2,3-0.3,4.4c-0.1,1.3-0.2,2.5-0.3,3.8C-833.9-68-834.5-68-835.1-68z M-832.7-78.1
		c2.3,0,4.3,0.1,6.2,0c1.7-0.1,2.9-1.6,3.1-3.4c0.2-1.8-0.7-3.5-2.4-3.9c-2.2-0.5-4.5-0.7-6.9-0.2c0,0.9,0,1.6,0,2.3
		C-832.7-81.7-832.7-80.1-832.7-78.1z"/>
	<path class="st3" d="M-1043-327.3c0-76.5,38.1-146.3,101.5-186.8c24.6-15.8,51.4-26,80.3-30.8c16.3-2.7,32.8-3.5,49.3-2.4
		c72.1,4.9,132.8,44.5,168.5,101c16.3,25.8,26.8,53.9,31.5,84.1c2.9,18.3,3.3,36.6,1.7,55c-6.2,68.9-44.6,131.9-104.8,168.4
		c-23.5,14.3-48.8,23.6-76,28.1c-15,2.5-30.1,3.5-45.2,2.6c-59.5-3.4-109.4-27.2-149.6-71.1c-27.6-30.2-45-65.8-53-105.9
		C-1041.8-299.2-1043.1-313.5-1043-327.3z M-614.3-323.3c-0.1-19.5-1.5-34.5-4.7-49.2c-10.2-47.6-33.5-87.6-70.4-119.3
		c-35.3-30.4-76.4-47.3-122.9-50.5c-21.1-1.5-41.9,0.2-62.4,5.2c-43.1,10.5-79.5,32.3-108.9,65.5c-32.6,36.8-50.4,80-54,129
		c-1.5,19.6-0.1,39.2,3.9,58.5c8.2,39.4,25.6,74.2,53.2,103.7c37.8,40.4,84.4,62.9,139.6,67.3c18.4,1.5,36.8,0.3,54.9-3.4
		c44.5-9,82.4-30,113.3-63.2C-634-221.4-615.2-271.1-614.3-323.3z"/>
	<path class="st3" d="M-591.3-445.7c-3.9,7.2-7.7,14.2-11.5,21.3c0.1,0.1,0.3,0.3,0.4,0.4c5.7-2.6,11.5-5.3,17.4-8
		c1,2,1.8,3.9,2.8,6c-9.6,4.5-19.1,8.9-28.8,13.5c-1-2-1.9-3.8-2.8-5.8c4-7.4,8.1-14.7,12.1-22.1c-0.1-0.1-0.2-0.2-0.3-0.4
		c-6,2.8-12.1,5.6-18.3,8.5c-0.9-2-1.8-3.8-2.8-6c9.6-4.5,19.1-8.9,28.8-13.5C-593.3-449.8-592.3-447.8-591.3-445.7z"/>
	<path class="st3" d="M-877.4-553.1c-1.8-10.8-3.5-21-5.2-31.5c1.8-0.3,3.5-0.7,5.3-0.9c3.2-0.5,6.4-1.1,9.7-1.3
		c5.9-0.4,10.9,1.5,14.2,6.6c3.4,5.4,4,11.2,0.8,17c-2,3.6-5.1,6-9,7C-866.7-555-871.9-554.2-877.4-553.1z M-871.8-560.1
		c2.4-0.4,4.5-0.7,6.5-1.1c7.9-1.8,9.2-9.7,6.3-15.1c-1.4-2.6-3.5-4.2-6.3-4.6c-3.3-0.5-6.4,0.4-9.8,1.1
		C-873.9-573.3-872.9-566.9-871.8-560.1z"/>
	<path class="st3" d="M-1056.7-454c2.9-4.7,5.5-9.3,8.5-13.7c4.5-6.5,14-5.7,17.6,1.3c1,2.1,1.2,4.3,0.6,6.6
		c4.6,0.5,9.1-0.3,13.9,0.5c-1.3,2.1-2.2,3.8-3.3,5.4c-0.3,0.4-1,0.8-1.6,0.8c-3.1,0-6.2,0-9.3-0.4c-1.9-0.2-3.1,0.1-3.8,1.9
		c-0.3,0.8-0.9,1.5-1.4,2.4c3.2,2,6.3,3.9,9.6,5.9c-1.1,1.9-2.2,3.6-3.4,5.7C-1038.5-442.9-1047.5-448.4-1056.7-454z M-1040.7-452.1
		c1.4-2.5,2.9-4.7,4.1-7c1.1-2.1,0.4-4.3-1.4-5.5c-2-1.3-4.2-1.1-5.7,0.9c-1.6,2.1-2.9,4.5-4.4,6.9
		C-1045.6-455.1-1043.3-453.7-1040.7-452.1z"/>
	<path class="st3" d="M-944.4-527.8c-9.7,0-16.2-8.4-16.3-16.7c-0.1-9.6,8.2-16.6,17.2-16.7c9.9-0.1,16.2,8,16.5,17.1
		C-926.7-535.6-935.3-527.8-944.4-527.8z M-933.9-543.5c0.1-3.3-1.2-6.1-3.4-8.4c-2.8-2.9-6.2-4-10-2.6c-3.7,1.3-6.1,3.9-6.6,8
		c-0.3,3.1,0.7,5.8,2.4,8.2c2.6,3.6,6.8,5.1,10.7,3.8C-936.4-535.9-933.9-539.1-933.9-543.5z"/>
	<path class="st3" d="M-904.9-577.8c9,0,16,7.4,16,16.9c0.1,9.5-8,16.3-17.4,16.3c-9.8,0-16-8.1-16-17.1
		C-922.3-571.7-913.6-577.9-904.9-577.8z M-915.4-562.2c0,3.1,0.8,5.5,2.7,8c4.4,5.7,13,3.9,15.8-1.3c2.1-3.8,1.5-7.5-0.5-11.2
		c-2.5-4.5-6.5-5.8-10.9-4.8C-913.4-570.2-915.7-566-915.4-562.2z"/>
	<path class="st3" d="M-975.5-518.8c-1.2-1.6-2.3-3-3.5-4.5c3.9-3.1,7.8-6.1,11.9-9.3c2.4,3.1,4.8,6.1,7.1,9.1
		c0.3,0.3,0.4,0.9,0.3,1.3c-1,9.4-9.5,15.6-16.8,16c-8.8,0.6-16.5-6.9-17.3-15.2c-0.4-3.7,0.7-7.1,2.8-10.2c1.8-2.8,4.2-5,7.3-6.4
		c3.6-1.7,7.4-1.9,11.4-0.5c-0.8,1.9-1.5,3.7-2.3,5.6c-0.9-0.1-1.7-0.2-2.5-0.3c-7.1-0.3-11.1,6.7-9.9,11.5c1.2,4.7,4,7.9,8.8,9
		c4.5,1,9.7-2,11.4-7c0.2-0.6,0-1.4-0.3-2c-0.4-0.8-1.1-1.4-1.8-2.2c-1.1,0.8-2.2,1.6-3.2,2.5C-973.1-520.6-974.2-519.8-975.5-518.8
		z"/>
	<path class="st3" d="M-701.3-522.3c6.2-8.8,12.3-17.3,18.5-26c6.2,4.4,12.2,8.7,18.4,13c-1.2,1.7-2.3,3.1-3.4,4.7
		c-4.3-3.1-8.5-6-12.9-9.1c-1.3,1.8-2.6,3.5-4,5.5c4.2,3,8.3,6,12.6,9c-1.1,1.6-2.2,3.1-3.3,4.7c-4.2-3-8.3-5.8-12.6-8.9
		c-1.4,1.9-2.7,3.8-4.3,5.9c4.3,3.1,8.4,6.1,12.8,9.2c-1.1,1.6-2.1,3.1-3.3,4.8C-689.1-513.6-695.1-517.9-701.3-522.3z"/>
	<path class="st3" d="M-1045.5-435.4c-2.1,4.8-4,9.4-6.1,14.2c2.3,1,4.4,1.9,6.7,3c2.1-4.9,4.2-9.6,6.4-14.5
		c1.8,0.8,3.4,1.5,5.3,2.3c-3,6.9-5.9,13.7-8.9,20.6c-9.8-4.2-19.4-8.4-29.2-12.7c3-6.9,5.9-13.7,8.9-20.6c1.8,0.7,3.4,1.4,5.3,2.2
		c-1.7,4.9-4.1,9.5-6.1,14.6c2.1,0.9,4,1.8,6.2,2.8c2.1-4.7,4.1-9.3,6.2-14.2C-1049.1-436.9-1047.4-436.2-1045.5-435.4z"/>
	<path class="st3" d="M-612.9-481.4c4.2,6.3,8.3,12.4,12.4,18.8c-1.6,1.1-3.2,2.1-4.9,3.2c-2.9-4.4-5.8-8.6-8.8-13.1
		c-1.9,1.3-3.7,2.5-5.7,3.8c2.9,4.4,5.6,8.6,8.5,12.9c-1.6,1.1-3.1,2.1-4.8,3.2c-2.9-4.3-5.7-8.5-8.7-12.8c-2.1,1.4-4,2.6-6.1,4
		c2.9,4.4,5.7,8.7,8.7,13.2c-1.6,1.1-3,2.1-4.8,3.3c-4.2-6.3-8.2-12.5-12.4-18.8C-630.6-469.7-621.9-475.5-612.9-481.4z"/>
	<path class="st3" d="M-743.4-560.8c1.9,6.4,3.7,12.6,5.7,19c-2.6-0.4-4.8-1.3-7-2.2c-0.5-0.2-0.8-1.1-1-1.8c-1-3.5-2-7-3-10.6
		c-0.1-0.3-0.2-0.6-0.4-1.2c-0.7,0.4-1.3,0.7-1.8,1.1c-2.8,2-5.5,4.1-8.2,6.2c-1,0.8-1.8,1-3.1,0.5c-1.8-0.7-3.6-1.2-5.9-2
		c5.5-4.1,10.7-7.9,16.1-11.9c-1.7-5.9-3.4-11.8-5.3-18.1c2.5,0.8,4.6,1.4,6.7,2.2c0.6,0.2,1,1.1,1.3,1.8c0.9,2.9,1.6,5.8,2.4,8.7
		c0.2,0.7,0.4,1.3,0.7,2.2c2.8-2.2,5.5-4.1,8-6.3c1.5-1.3,2.9-1.7,4.7-0.9c1.4,0.7,3,1.1,4.8,1.7c-2.3,2.4-5,3.9-7.4,5.7
		C-738.2-564.5-740.7-562.8-743.4-560.8z"/>
	<path class="st3" d="M-695.8-548.1c-2.1,0-4.1,0-6,0c-0.5-1.4-0.8-2.8-1.4-3.9c-2.4-4.3-8-6-12.5-3.6c-3.9,2.1-6,5.5-6.1,9.9
		c-0.1,3.8,1.6,6.7,4.9,8.7c2.3,1.4,4.7,1.5,7.1,0.7c0.7-0.2,1.3-0.5,2.3-1c1.2,1.6,2.4,3.2,3.6,4.8c-4.9,3.9-12.6,3.8-18.6-1.2
		c-5.9-4.8-7.8-12.4-4.7-19.2c3.2-7.1,10-11,17.1-9.9C-702-561.4-696-556-695.8-548.1z"/>
	<path class="st3" d="M-1018.4-487.2c-0.4-1.2-0.7-2.2-1-3.1c-1.1-3.2-2.2-6.4-3.3-9.5c-0.4-1.1-0.3-1.9,0.5-2.8
		c1.2-1.3,2.4-2.8,3.8-4.4c0.8,2.4,1.5,4.6,2.2,6.8c1.3,4.3,2.7,8.5,3.9,12.8c0.4,1.2,1,2.1,2,2.9c2.8,2.3,5.6,4.7,8.6,7.2
		c-1.5,1.7-2.8,3.4-4.3,5.1c-2.9-2.4-5.7-4.6-8.4-7c-1.1-1-2.4-1.4-3.9-1.6c-6.3-0.7-12.7-1.5-19-2.2c-0.2,0-0.4-0.1-0.9-0.2
		c1.4-1.7,2.7-3.3,4-4.9c0.7-0.9,1.7-0.7,2.7-0.5c3.9,0.5,7.7,1.1,11.6,1.6C-1019.4-487.1-1019-487.2-1018.4-487.2z"/>
	<path class="st3" d="M-662.2-490.3c-4.9-4.5-9.8-9-14.9-13.6c7.2-7.8,14.3-15.6,21.5-23.5c1.6,1.5,3.2,2.9,4.9,4.5
		c-5.9,6.4-11.6,12.7-17.5,19.1c3.4,3.1,6.6,6.2,9.9,9.2C-659.6-493.1-660.8-491.8-662.2-490.3z"/>
	<path class="st3" d="M-657.2-485c8.1-7,16-13.8,24.1-20.8c1.4,1.7,2.8,3.3,4.4,5c-6.6,5.7-13,11.2-19.7,17
		c2.9,3.4,5.7,6.7,8.7,10.2c-1.4,1.3-2.8,2.5-4.4,3.8C-648.4-474.8-652.7-479.8-657.2-485z"/>
	<path class="st3" d="M-919.6-85.7c-0.7-0.4-1.3-0.6-2.1-1c2-4.7,4.1-9.3,6.1-13.9c-4.6,3.4-8.4,7.7-13,11.1
		c-0.3-5.6,0.1-11.1-0.2-16.7c-2.5,4.3-4.1,9-6.5,13.5c-0.7-0.3-1.3-0.5-2.1-0.8c2.7-6.1,5.3-12,8-18.1c1,0.5,2,0.9,3,1.3
		c0,5.2,0,10.4,0,16.1c4-3.8,7.7-7.3,11.6-10.9c1,0.4,2,0.8,3.2,1.4C-914.3-97.8-916.9-91.8-919.6-85.7z"/>
	<path class="st3" d="M-1012.3-149.2c-0.5-0.7-0.9-1.3-1.5-2.1c3.3-5.7,6.6-11.4,10.1-17.5c0.7,0.6,1.2,1.1,1.9,1.7
		c-2.8,4.8-5.6,9.4-8.6,14.5c1-0.4,1.6-0.5,2.1-0.8c3.8-2.1,7.6-4.1,11.3-6.2c1.1-0.6,2-0.9,2.8,0.8c-2.6,4.5-5.4,9.1-8.1,13.8
		c0.1,0.1,0.3,0.3,0.4,0.4c4.7-2.6,9.4-5.2,14.2-7.9c0.5,0.6,1,1.2,1.6,1.9c-6.1,3.3-12.1,6.4-18.2,9.7c-0.6-0.7-1.1-1.3-1.7-2
		c2.7-4.6,5.4-9.1,8-13.6c-0.1-0.1-0.2-0.2-0.3-0.4C-1002.9-154.3-1007.4-151.8-1012.3-149.2z"/>
	<path class="st3" d="M-676.8-141.3c0.9-1.8,2.1-1.8,3.6-1.5c4.7,1.1,9.5,2.1,14.3,3.1c0.7,0.1,1.4,0.2,2.6,0.3
		c-2-2.3-3.6-4.1-5.2-5.9c-1.6-1.8-3.1-3.6-4.7-5.5c0.5-0.6,0.9-1,1.5-1.7c4.4,4.9,8.7,9.8,13,14.7c-1.2,1.8-1.3,1.9-3.1,1.5
		c-5.4-1.2-10.8-2.4-16.1-3.5c-0.3-0.1-0.6-0.1-1.5-0.2c3.6,4.1,6.9,7.9,10.4,11.8c-0.6,0.5-1.1,1-1.7,1.6
		C-668.2-131.6-672.5-136.4-676.8-141.3z"/>
	<path class="st3" d="M-689.1-108.2c-3.8-5.5-7.5-10.8-11.3-16.4c2.5-1.7,4.8-3.5,7.3-4.8c6.9-3.4,13.7,1.7,14.2,8.8
		c0.2,3.4-1.6,6.1-4.3,8.2C-684.9-110.9-686.9-109.7-689.1-108.2z M-688.3-111.2c1.8-1.4,3.5-2.5,4.9-3.8c2-1.8,2.5-4.2,1.9-6.8
		c-0.9-3.7-4.9-8-10.2-5.9c-2,0.8-3.7,2-5.4,3.6C-694.2-119.8-691.4-115.7-688.3-111.2z"/>
	<path class="st3" d="M-736.3-102.5c-0.6,0.9-0.9,1.4-1.1,1.7c-1.8-0.2-3.4-0.8-4.9-0.5c-6.1,0.9-8.8,7.3-5.3,12.6
		c2.8,4.3,8.3,4.9,12,1.4c1.3-1.2,1.7-2.4,0.8-4c-0.3-0.5-0.5-1.2-0.8-2c-2.1,0.8-4.1,1.5-6.2,2.2c-0.3-0.6-0.5-1.1-0.9-1.9
		c1.6-0.6,3-1.1,4.3-1.6c1.3-0.5,2.7-1,4.3-1.5c0.8,2.1,1.6,4,2.2,6.1c0.2,0.5,0,1.3-0.3,1.8c-2.1,3.6-5.3,5.5-9.5,5.4
		c-4-0.1-7-2-8.7-5.7c-3.6-7.4,1.4-15.1,9.6-14.8C-739.3-103.4-738-102.9-736.3-102.5z"/>
	<path class="st3" d="M-767.5-83.1c2.2,2.1,4.3,4.1,6.5,6.2c-1.8,1.2-2.2,1.2-3.5-0.1c-1.1-1.1-2.3-2.2-3.4-3.4
		c-1.7-2-3.6-2.4-6.1-0.8c0.5,2.3,1,4.6,1.6,7.2c-0.6,0.2-1.2,0.5-2.1,0.9c-1.5-6.6-3-12.9-4.6-19.5c3.2-0.7,6.1-1.5,9.1-2
		c2.4-0.4,5,1.4,5.8,3.7c0.9,2.6,0.3,5.2-1.7,6.7C-766.4-83.9-766.9-83.5-767.5-83.1z M-776.3-90.9c0.6,2.5,1.2,4.8,1.8,7.3
		c2.1-0.6,4.1-1,5.9-1.6c1.9-0.7,2.6-2.4,2.2-4.5c-0.4-1.7-1.8-2.9-3.7-2.8C-772.2-92.3-774.2-91.8-776.3-90.9z"/>
	<path class="st3" d="M-647.6-165.5c0,0.2,0,0.6,0,0.8c-0.1,0.3-0.2,0.6-0.3,0.9c-0.2,0.1-0.5,0.2-0.7,0.2c-3.4,0.1-6.5,2.6-7.3,6.4
		c-0.8,4,2.9,8.8,7.3,9.5c4.4,0.6,7.9-2.1,8.8-6.6c0.1-0.5-0.2-1.3-0.5-1.7c-0.6-0.8-1.4-1.5-2.3-2.3c-1.7,1.7-3.2,3.2-4.8,4.9
		c-0.5-0.5-0.9-0.9-1.5-1.4c2.1-2.2,4.1-4.3,6.2-6.6c1.6,1.5,3.3,2.8,4.6,4.3c0.5,0.6,0.7,1.8,0.6,2.6c-0.5,4.2-3.8,7.9-8,8.9
		c-4,1-8.3-0.7-10.8-4.4c-2.2-3.1-2.6-6.5-0.9-9.9c1.7-3.5,4.6-5.6,8.6-6c0.2,0,0.3,0,0.5,0C-648-165.7-647.9-165.6-647.6-165.5z"/>
	<path class="st3" d="M-733.5-106.9c2.8-1.3,5.2-2.3,7.5-3.4c3.9-1.8,7.3,0.6,8.2,4c0.5,1.9,0.3,3.6-1.2,5.1
		c-0.4,0.4-0.7,0.8-1.1,1.4c2.6,1.6,5.1,3.2,7.6,4.8c-1.9,1.5-1.9,1.6-3.5,0.5c-1.6-1-3.2-1.9-4.6-3c-1.3-1-2.5-1.2-3.9-0.2
		c-0.4,0.3-1,0.5-1.6,0.8c1.1,2.4,2.1,4.7,3.2,7.1c-0.7,0.4-1.2,0.6-2,1C-727.9-94.9-730.7-100.8-733.5-106.9z M-730.5-106
		c1.1,2.4,2.2,4.6,3.3,7c1.9-0.9,3.7-1.6,5.3-2.6c1.9-1.1,2.3-3.1,1.4-5c-1-1.9-2.8-2.6-4.8-1.8C-726.9-107.7-728.6-106.9-730.5-106
		z"/>
	<path class="st3" d="M-896.2-88.8c1,2.2,1.9,4.2,3.1,6.7c1.2-1.4,2.2-2.5,3.3-3.8c0.5,0.4,0.9,0.7,1.6,1.1
		c-1.3,1.4-2.5,2.8-3.9,4.3c0.7,1.3,1.4,2.6,2.1,4.1c-2.3,0.4-3-1.4-4-2.7c-1.3,0.2-2.6,0.6-3.8,0.6c-3.1,0.2-5.9-1.5-6.7-4
		c-0.8-2.3,0.2-5.2,2.4-6.4c1-0.5,2-0.9,3.3-1.5c0-0.6-0.1-1.4-0.1-2.1c-0.5-4,2.7-6.6,6.5-5.4c1.8,0.6,3.1,2,3.1,3.6
		c0,1.8-0.8,3.3-2.5,4C-893.3-89.7-894.6-89.3-896.2-88.8z M-895.1-81.2c-1.1-2.3-2.1-4.7-3.2-7c-2.2,0.3-3.8,1.4-4.1,3.1
		c-0.3,1.5-0.1,3,1.3,4.1C-899.4-79.7-897.6-79.7-895.1-81.2z M-896.3-90.6c1-0.3,1.8-0.5,2.7-0.7c0.2-0.1,0.4-0.2,0.6-0.3
		c1.1-0.7,1.6-1.9,1.4-3c-0.3-1.2-1.2-1.6-2.3-1.7c-1.2-0.1-2.3,0.6-2.8,1.8C-897.2-93.3-897.3-92-896.3-90.6z"/>
	<path class="st3" d="M-941.1-118.1c0.9,0.5,1.8,1,2.6,1.5c-0.9,7-1.8,13.9-2.7,20.9c-2.5-0.7-2.5-0.7-2.1-2.9
		c0.1-0.5,0.1-0.9,0.1-1.4c0-0.4,0-0.8,0.1-1.4c-2.8-1.6-5.6-3.2-8.6-4.8c-1.2,0.9-2.4,1.9-3.7,2.9c-0.7-0.3-1.3-0.6-2.5-1.2
		C-952.1-109.3-946.6-113.7-941.1-118.1z M-942.9-103.9c0.9-2.4,1.7-9.3,1.3-11c-2.8,2.3-5.5,4.5-8.5,7
		C-947.5-106.4-945.3-105.2-942.9-103.9z"/>
	<path class="st3" d="M-709.2-96.8c-1-6.9-1.9-13.7-2.9-20.7c0.8-0.5,1.6-1,2.6-1.6c5.5,4.4,11,8.7,16.6,13.1
		c-0.3,0.3-0.5,0.6-0.6,0.7c-0.5,0.3-1,0.5-1.5,0.8c-1.3-1-2.5-1.9-3.8-2.8c-2.5,1.4-5,2.9-7.5,4.2c-0.9,0.5-1.3,1.2-1,2.1
		c0.1,0.5,0.2,1.1,0.3,1.6C-706.9-97.6-706.9-97.6-709.2-96.8z M-708-104.7c2.7-1.6,5.1-2.6,7.4-4.4c-3-2.4-5.7-4.6-8.5-6.8
		c-0.1,0.1-0.3,0.2-0.4,0.3C-709-112.1-708.5-108.6-708-104.7z"/>
	<path class="st3" d="M-790.8-72.5c3.5-0.5,6.8-1,10.3-1.5c0.1,0.6,0.3,1.2,0.4,2c-4.3,0.7-8.4,1.3-12.7,2c-1-6.5-2-12.8-3.1-19.4
		c4.2-1.1,8.4-1.4,12.6-2.2c0.2,0.7,0.3,1.2,0.5,2c-3.4,0.6-6.7,1.1-9.9,1.6c-0.4,1.8-0.4,2.5,0.6,6.5c3.3-0.5,6.5-1,10-1.5
		c0.1,0.6,0.2,1.2,0.4,1.9c-3.4,0.6-6.7,1.1-10.2,1.7C-791.5-77-791.2-74.8-790.8-72.5z"/>
	<path class="st3" d="M-841.8-88.4c0.8,0.1,1.4,0.3,2.1,0.4c-0.4,4.3-0.8,8.5-1.3,12.7c-0.6,5.3-5.3,7.3-9.4,6.4
		c-2.5-0.6-4.8-1.4-5.9-4c-0.5-1.2-0.7-2.4-0.8-3.7c-0.1-1.6,0.2-3.2,0.3-4.8c0.3-2.7,0.6-5.4,0.9-8.1c0.7,0,1.3,0,2.3,0
		c-0.3,2.8-0.5,5.5-0.7,8.1c-0.1,1.7-0.3,3.5-0.3,5.2c0.1,2.9,2,4.9,4.9,5.2c3.2,0.3,5.4-1.1,6.1-4c0.3-1.2,0.4-2.5,0.5-3.8
		c0.3-2.8,0.4-5.6,0.7-8.3C-842.1-87.4-841.9-87.8-841.8-88.4z"/>
	<path class="st3" d="M-859.4-90c0.2,1.4-0.1,2-1.3,1.8c-1.6-0.2-3.1-0.5-5-0.8c-1,5.7-2,11.4-3.1,17.3c-0.7,0-1.4-0.1-2.3-0.1
		c1-5.9,2-11.6,3-17.5c-2.2-0.4-4.1-0.8-5.9-1.2c-0.1-0.4-0.2-0.5-0.2-0.7c0.1-0.4,0.3-0.7,0.5-1.3C-869-91.7-864.1-90.9-859.4-90z"
		/>
	<path class="st3" d="M-977.8-143.7c0.7,0.6,1.2,1,1.8,1.5c-3.7,4.5-7.3,9-11.1,13.7c2.3,2,4.6,3.9,7,5.9c-0.4,0.5-0.7,0.9-1.2,1.6
		c-3-2.4-5.9-4.7-9-7.3C-986.2-133.4-982.1-138.4-977.8-143.7z"/>
	<path class="st3" d="M-977.2-117.9c3.9-5.4,7.6-10.6,11.4-16c0.7,0.4,1.2,0.7,2,1.2c-3.5,4.9-6.8,9.6-10.2,14.5
		c2.6,1.9,4.9,3.6,7.4,5.4c-0.4,0.6-0.7,1.1-1.2,1.7C-971-113.5-974.1-115.7-977.2-117.9z"/>
	<path class="st3" d="M-827.7-567.5c0-1.7,0-3.2,0-4.9c3.6-0.3,7.3-0.2,11,0.1c0.4,1.6,0.3,3.1,0.1,4.8
		C-820.2-567.5-823.8-567.5-827.7-567.5z"/>
	<path class="st3" d="M-670.7-121.2c-4.1-5.3-8.1-10.4-12.2-15.6c0.6-0.5,1.1-0.9,1.9-1.4c4.1,5.2,8,10.2,12.1,15.4
		C-669.5-122.3-670-121.9-670.7-121.2z"/>
	<path class="st3" d="M-983.7-148.9c0.6,0.5,1.2,0.9,1.8,1.5c-4.4,4.9-8.7,9.7-13.1,14.6c-0.6-0.4-1.2-0.9-1.9-1.4
		C-992.4-139.2-988.1-144-983.7-148.9z"/>
	<path class="st3" d="M-961.2-107.2c-0.8-0.5-1.3-0.8-2-1.3c3.5-5.6,7-11,10.6-16.6c0.7,0.4,1.3,0.8,2,1.2
		C-954.2-118.3-957.6-112.8-961.2-107.2z"/>
	<path class="st3" d="M-797.8-399.1c0,27.1,0,53.9,0,80.9c5.8,0,11.4,0,17.1,0c0,8.5,0,16.6,0,25.1c-5.6,0-11.2,0-17,0
		c0,9.3,0,18.3,0,27.2c-1.9,0.6-25.5,0.8-28.6,0.2c0-9,0-18,0-27.3c-3.2,0-6.2-0.1-9.2-0.1c-3,0-6.1,0-9.1,0c-3,0-6.1,0-9.1,0
		c-3,0-5.9,0-8.9,0c-3,0-6.1,0-9.1,0s-6.1,0-9.1,0c-3,0-6,0-9.2,0c-0.1-1-0.1-1.7-0.1-2.4c0-6,0-12,0-18c0-1.2,0.3-2.3,1-3.4
		c7.3-11.5,14.6-22.9,21.8-34.4c9.4-14.8,18.9-29.6,28.2-44.6c1.5-2.4,3-3.5,6-3.4c10.8,0.2,21.6,0.1,32.4,0.1
		C-799.9-399.1-799.1-399.1-797.8-399.1z M-826.6-318.3c0.1-0.5,0.2-0.9,0.2-1.3c0-17.5-0.1-35-0.1-52.5c0-0.1-0.1-0.1-0.1-0.2
		c-0.1,0-0.2,0-0.2-0.1c-5.9,8-34,52-34.5,54C-849.8-318.3-838.2-318.3-826.6-318.3z"/>
</g>
</svg>
