<?xml version="1.0" encoding="utf-8"?>
<!-- Generator: Adobe Illustrator 24.1.3, SVG Export Plug-In . SVG Version: 6.00 Build 0)  -->
<svg version="1.1" id="Layer_1" xmlns="http://www.w3.org/2000/svg" xmlns:xlink="http://www.w3.org/1999/xlink" x="0px" y="0px"
	 viewBox="0 0 400 400" style="enable-background:new 0 0 400 400;" xml:space="preserve">
<style type="text/css">
	.st0{fill:#FFFFFF;}
	.st1{display:none;}
	.st2{display:inline;fill:#222222;}
	.st3{display:inline;fill:#ADADAD;}
	.st4{fill:#222222;}
	.st5{fill:#ADADAD;}
</style>
<circle class="st0" cx="202.8" cy="204.3" r="152.5"/>
<g class="st1">
	<path class="st2" d="M48.2,194c1.6-33.2,12.4-62.9,32.9-89.1c17.2-22,38.9-38.1,64.9-48.2c11-4.3,22.5-7.2,34.2-8.7
		c11.2-1.5,22.4-1.7,33.6-0.7c32.2,3.1,60.5,15.2,84.9,36.3c23.8,20.7,39.7,46.4,48,76.8c2.3,8.6,3.9,17.4,4.6,26.3
		c0.2,2.4,0.4,4.9,0.5,7.3c-0.1,1.4,0,2.8,0.2,4.2c0,1.8,0,3.6,0,5.4c-0.1,1.4-0.2,2.8-0.2,4.2c-1.7,34.4-13.3,65.1-35.1,91.8
		c-16.9,20.6-37.8,35.8-62.7,45.5c-11.1,4.3-22.5,7.2-34.2,8.7c-11.2,1.5-22.4,1.7-33.6,0.7c-32.2-3.1-60.5-15.2-84.9-36.4
		C77,297,60.9,270.6,52.8,239.4c-2.4-9.5-3.9-19.1-4.5-28.8c-0.1-0.9-0.1-1.8-0.2-2.8c0.1-1.4,0-2.8-0.2-4.2c0-1.8,0-3.6,0-5.4
		C48.1,196.8,48.2,195.4,48.2,194z M348.5,200.9c0-7.4-0.5-14.7-1.6-22c-1.5-10.3-4-20.4-7.6-30.1c-10-27.4-26.5-50.1-49.6-67.9
		c-24.8-19.1-52.9-29.3-84.1-30.6c-14.3-0.6-28.4,0.9-42.2,4.5c-30.2,7.9-55.5,23.8-75.7,47.5c-22.2,26.1-34,56.3-36,90.5
		c-0.8,14.6,0.4,29.1,3.9,43.4c7.9,32.5,24.5,59.7,50.1,81.2c25,20.9,53.8,32.2,86.3,34.1c13.8,0.8,27.6-0.3,41.1-3.6
		c31.6-7.5,58.1-23.6,79.1-48.4C336.4,271.2,348.1,238.1,348.5,200.9z"/>
	<path class="st2" d="M201.8,16.9c1.1,0.4,2.2,0.6,3.1,1.2c1.7,1.1,2.6,2.7,2.9,4.6c0.4,2,0.1,4-1.2,5.7c-0.7,1-1.7,1.7-2.9,2.2
		c-0.4,0.1-0.8,0.1-0.3,0.8c1.5,2.4,2.9,4.8,4.4,7.2c0.1,0.2,0.2,0.4,0.3,0.8c-1.7,0-3.4,0-5.1,0c-0.3,0-0.4-0.1-0.5-0.3
		c-1.1-2-2.2-3.9-3.3-5.9c-0.2-0.4-0.5-0.8-0.7-1.3c-0.1-0.3-0.3-0.4-0.7-0.4c-0.8,0-1.7,0-2.5,0c-0.5,0-0.5,0.2-0.5,0.6
		c0,1.7,0,3.4,0,5.1c0,0.6,0.2,1.2,0.2,1.8c0,0.4-0.1,0.6-0.5,0.6c-1.2,0-2.5-0.1-3.7,0c-0.6,0-0.7-0.2-0.6-0.7
		c0-3.8,0.1-7.5,0-11.3c-0.2-3.5-0.1-7-0.1-10.6C193.8,16.9,197.8,16.9,201.8,16.9z M194.7,24.1c0,0.8,0,1.7,0,2.5
		c0,0.2-0.1,0.5,0.3,0.5c1.9-0.1,3.7,0.2,5.6-0.2c1.5-0.3,2.6-1.6,2.5-2.8c-0.1-1.7-1.4-3-3-3s-3.2,0-4.9,0c-0.5,0-0.5,0.2-0.5,0.6
		C194.7,22.5,194.7,23.3,194.7,24.1z"/>
	<path class="st2" d="M198.2,383.1c-0.2-4.1-0.2-8.2-0.2-12.2v-0.1c-0.1-0.6-0.4-1.3-0.1-1.7c0.4-0.4,1.2-0.1,1.9-0.1
		c1.4,0,2.8-0.1,4.1,0c2.1,0.1,3.3,0.9,3.8,2.7c0.7,2.5-0.1,4.9-3.3,5.6c1.3,1.9,2.5,3.7,3.8,5.5c-1.5,0.5-2.4-0.2-3-1.4
		c-0.7-1.2-1.6-2.2-2.3-3.4c-0.3-0.5-0.6-0.6-1.1-0.6c-2,0-2,0-2,1.9c0,1.3,0,2.5,0,3.8C199.4,383.1,198.8,383.1,198.2,383.1z
		 M199.7,373.3c0,0.7,0,1.3,0,2c0,0.5,0.2,0.6,0.7,0.6c1,0,2.1,0,3.1,0c1.7,0,2.4-0.9,2.8-2.5c0.2-1-0.7-2.3-1.9-2.7
		c-1.3-0.4-2.7-0.2-4-0.1c-0.4,0-0.6,0.3-0.6,0.8C199.8,372,199.7,372.6,199.7,373.3z"/>
	<path class="st2" d="M151.9,365c-0.4,1.4-0.8,2.8-1.1,4.2c-0.6,2-1.1,4.1-1.7,6.1c-0.1,0.4-0.4,0.3-0.6,0.2
		c-0.4-0.1-0.8-0.3-1.2-0.4c1.2-4.5,2.5-9,3.7-13.5c0.4,0,0.8,0.3,1.3,0.3c0.3,0,0.5,0.3,0.6,0.6c1.4,3.7,2.8,7.4,4.2,11.1
		c0.1,0.3,0.3,0.6,0.5,1.1c0.4-1.5,0.8-3,1.2-4.4c0.5-1.8,1-3.7,1.5-5.5c0.1-0.5,0.4-0.8,0.8-0.4c0.3,0.3,1.1-0.2,0.9,0.6
		c-0.9,3.4-1.9,6.8-2.8,10.2c-0.2,0.8-0.5,1.6-0.7,2.4c-0.1,0.4-0.2,0.5-0.8,0.4c-0.9-0.2-1.2-0.8-1.5-1.5
		c-1.4-3.7-2.8-7.4-4.2-11.2C152,365.2,151.9,365,151.9,365C152,365,152,365,151.9,365z"/>
	<path class="st2" d="M176,372.9c-0.2,3.6-1.7,6.1-5.3,7.2c-1,0.3-2.1,0.3-3.2,0.1c-1.4-0.3-2.8-0.6-4.2-0.8
		c-0.6-0.1-0.5-0.4-0.5-0.7c0.5-2.9,1.1-5.9,1.7-8.8c0.2-1.3,0.5-2.6,0.7-4c0.1-0.3,0.2-0.4,0.4-0.3c2.3,0.6,4.8,0.5,6.9,1.7
		c1.8,1,2.9,2.6,3.2,4.6C175.9,372.2,176.2,372.6,176,372.9z M168.9,378.6c1.9,0.1,3.2-0.7,4.3-2.2c0.9-1.2,1.1-2.7,1-4.1
		c-0.2-1.7-1-2.9-2.5-3.8c-1.4-0.8-2.9-0.8-4.4-1.1c-0.5-0.1-0.6,0.3-0.6,0.7c-0.4,2.1-0.7,4.1-1.1,6.2c-0.2,1.1-0.4,2.1-0.6,3.2
		c0,0.2-0.2,0.6,0.3,0.6C166.5,378.2,167.6,378.7,168.9,378.6z"/>
	<path class="st2" d="M144.6,374.4c-1.9-0.6-1.9-0.6-1.9-2.4c0-1.5-0.1-1.6-1.5-2.1c-1.6-0.5-3.1-1.1-4.6-1.7
		c-0.4-0.2-0.6-0.1-0.9,0.2c-0.5,0.6-1.1,1.2-1.6,1.8c-0.3,0.4-0.5,0.3-0.8,0.2c-0.4-0.2-0.9-0.4-1.4-0.6c1.9-2,3.7-4,5.5-6
		c1.4-1.5,2.8-3.1,4.1-4.7c0.4-0.5,0.8-0.5,1.3-0.2c1.3,0.6,1.4,0.6,1.3,2.1c0,3.3,0.2,6.5,0.2,9.8
		C144.4,371.9,144.5,373.1,144.6,374.4z M142.5,360.6c-1.9,2.1-3.6,4-5.4,6c1.8,0.7,3.5,1.4,5.2,2c0.4,0.1,0.4-0.2,0.4-0.4
		c-0.1-1-0.1-2-0.2-3.1C142.5,363.7,142.5,362.3,142.5,360.6z"/>
	<path class="st2" d="M219.9,368.7c0.2,0.9-0.2,1-0.9,1c-2.1,0.1-4.1,0.3-6.2,0.5c-0.2,0-0.3,0-0.3,0.3c0.2,1.1,0.3,2.3,0.3,3.5
		c0,0.8,0.5,0.9,1.1,0.8c1.7-0.3,3.3-0.3,5-0.5c0.1,0,0.2,0,0.3,0c0.3,0.1,0.6-0.4,0.8-0.1s0.1,0.8,0.2,1.2c0.1,0.3-0.2,0.4-0.5,0.4
		c-1.6,0.1-3.1,0.2-4.7,0.3c-0.5,0-1.1,0.2-1.6,0.2c-0.3,0-0.4,0.2-0.4,0.4c0.1,1.4,0.2,2.8,0.3,4.2c0,0.5,0.4,0.3,0.7,0.2
		c1.6-0.3,3.3-0.3,4.9-0.5c0.4,0,0.8-0.1,1.1-0.2c0.4-0.1,0.8,0.1,0.8,0.5s0.4,0.9-0.5,1c-0.8,0.1-1.6,0.1-2.4,0.2
		c-1.8,0.2-3.7,0.3-5.5,0.6c-0.6,0.1-0.8-0.2-0.8-0.7c-0.2-2.2-0.3-4.4-0.5-6.5s-0.4-4.2-0.7-6.2c0-0.3,0-0.5,0.4-0.5
		c2-0.1,4-0.3,5.9-0.5c0.8-0.1,1.6,0,2.5-0.3C220.2,367.8,219.8,368.5,219.9,368.7z"/>
	<path class="st2" d="M258,366.7c0.5,1.3,1.1,2.7,1.6,4.1c0.1,0.4,0.2,0.4,0.5,0.2c1.9-0.8,3.9-1.5,5.8-2.2c0.5-0.2,1.3,0.5,1.2,1.1
		c0,0.2-0.2,0.2-0.3,0.2c-2.7,1-5.3,2-8,3c-0.4,0.2-0.4-0.1-0.5-0.3c-1-2.6-1.9-5.2-2.9-7.7c-0.6-1.5-1.1-3-1.7-4.5
		c-0.2-0.6,0-0.7,0.4-0.8c2.5-0.9,5-1.8,7.4-2.8c0.2-0.1,0.7-0.3,0.7,0.2c0,0.4,0.8,0.9-0.1,1.3c-1.9,0.7-3.8,1.5-5.8,2.2
		c-0.6,0.2-0.7,0.4-0.5,1c0.4,1.1,0.8,2.2,1.3,3.3c0.1,0.2,0.1,0.3,0.4,0.2c2-0.8,4.1-1.6,6.1-2.4c0.3-0.1,0.5,0,0.6,0.2
		c0.4,1,0.4,1-0.7,1.4C261.9,365.2,259.9,366,258,366.7z"/>
	<path class="st2" d="M248.6,361.9c0.6-0.1,1.5,0.1,2.3,0.5c0.4,0.2,0.5,0.4,0.3,0.8c-0.4,1-0.3,1-1.3,0.6c-1.6-0.7-4.2-0.3-5.2,1
		c-0.5,0.6-0.6,1.4-0.3,2s0.8,0.9,1.5,1c1.5,0.2,2.9,0,4.4,0.1c1.9,0.1,3.2,0.8,3.8,2.8c0.4,1.5-0.2,3.2-1.4,4.1
		c-1.9,1.4-4.1,1.8-6.4,1.3c-0.2,0-0.4-0.2-0.7-0.3c-1.1-0.4-1-0.4-0.7-1.5c0.2-0.7,0.4-0.4,0.8-0.3c1.9,0.9,3.8,0.9,5.6-0.3
		c0.9-0.6,1.4-1.5,1.2-2.3c-0.4-1.3-1-1.6-2.3-1.7c-1.2-0.1-2.4,0-3.5,0c-1.2-0.1-2.4-0.2-3.3-1.2c-1.1-1.2-1.3-3.2-0.2-4.5
		C244.5,362.5,246.3,361.9,248.6,361.9z"/>
	<path class="st2" d="M184.9,379.3c0.1-3.4,0.5-6.6,0.5-9.8c0-0.5,0.1-0.9,0.9-0.9c1.4,0.1,2.9,0.2,4.3,0.2c1.9,0,3.5,0.7,4.3,2.6
		c1.1,2.5-0.6,5.6-3.3,5.8c-1.4,0.1-2.8,0.1-4.2-0.1c-0.4-0.1-0.8-0.1-0.8,0.6c0,1.5-0.2,3-0.3,4.5c0,0.3-0.1,0.4-0.4,0.4
		c-1.2,0.1-1.6-0.4-1.3-2C184.9,380.1,184.9,379.5,184.9,379.3z M190,375.7c0.4,0,0.6,0,0.9,0c1.7,0,2.4-1.1,2.6-2.3
		c0.2-1.5-0.7-2.7-2.2-3c-1.2-0.2-2.4,0.1-3.6-0.3c-0.3-0.1-0.5,0.1-0.5,0.4c0.1,1.5-0.3,3-0.2,4.6c0,0.3,0.1,0.4,0.4,0.4
		C188.3,375.5,189.2,375.9,190,375.7z"/>
	<path class="st2" d="M234.8,368.1c-0.3,0.3-0.5,0.4-0.7,0.6c-0.4,0.4-0.7,0.5-1.2,0c-1.6-1.3-3.7-1.3-5.5-0.2
		c-1.8,1.1-2.6,2.8-2.5,4.9c0.1,2.2,1,4,2.9,5.1s5.2,0.8,6.5-1.4c0.4-0.6,1.3-0.7,1.9-0.2c0.3,0.3-0.1,0.5-0.2,0.6
		c-1,1.5-2.4,2.6-4.2,3c-3.2,0.7-6.6-0.8-7.9-3.7c-1.4-3-1.1-6.2,1.2-8.5s6.9-3,9.4-0.4C234.5,368,234.6,368,234.8,368.1z"/>
	<path class="st2" d="M236.8,364.8c0.6,0,1.2-0.2,1.7-0.4c1.1,4.6,2.2,9.2,3.2,13.8c-0.6,0-1.1,0.2-1.7,0.4
		C239,374,237.9,369.4,236.8,364.8z"/>
	<path class="st2" d="M283.8,45.5c-0.9,1.5-1.6,2.8-2.3,4.1c-1.6,2.8-3.3,5.5-4.8,8.3c-0.2,0.4-0.3,0.3-0.6,0.1
		c-1.2-0.7-2.5-1.4-3.7-2.1c1.1-2,2.3-3.9,3.4-5.9c1.5-2.6,3-5.2,4.5-7.8c1-1.7,2-3.4,3-5.2c0.3-0.5,0.4-0.5,0.9-0.2
		c1.1,0.7,2.2,1.3,3.4,2c0.2,0.1,0.4,0.2,0.4,0.5c0.2,1.7,0.3,3.4,0.5,5.1c0.2,1.7,0.5,3.5,0.6,5.2c0.1,1.3,0.3,2.5,0.4,3.8
		c0.1,0.9,0.1,1.8,0.4,2.8c1-1.6,1.9-3.2,2.8-4.7c1.3-2.3,2.6-4.6,3.9-6.9c0.2-0.3,0.4-0.4,0.7-0.2c1.2,0.7,2.4,1.4,3.5,2
		c0.2,0.1,0.2,0.2,0.1,0.4c-2,3.4-4,6.8-6,10.2c-1.5,2.6-3,5.3-4.5,7.9c-0.6,1-0.6,1-1.6,0.5c-0.9-0.5-1.7-1-2.6-1.5
		c-0.7-0.3-0.5-1-0.5-1.5c-0.3-2.6-0.6-5.1-0.8-7.7c-0.2-1.9-0.5-3.8-0.6-5.7C284.1,47.9,283.9,46.8,283.8,45.5z"/>
	<path class="st2" d="M261.3,35.2c-0.1,2.9-0.9,5.6-2.9,7.8c-1.7,2-3.8,3.1-6.4,3.5c-2.2,0.3-4.2,0-6.3-0.7
		c-2.5-0.8-4.9-1.5-7.4-2.2c-0.5-0.1-0.6-0.2-0.4-0.8c1.6-5.3,3.2-10.6,4.9-15.9c0.5-1.5,0.9-3,1.3-4.5c0.1-0.4,0.3-0.3,0.5-0.3
		c1.4,0.4,2.9,0.8,4.3,1.3c1.9,0.6,3.9,1.1,5.8,1.9c3.4,1.6,5.8,4,6.5,7.8C261.3,33.8,261.3,34.5,261.3,35.2z M249.6,42.3
		c1.8,0.1,3.3-0.5,4.5-1.7c1.8-1.8,2.5-3.9,2.3-6.4c-0.2-2.3-1.4-3.9-3.4-4.9c-1.5-0.8-3.2-1.1-4.8-1.7c-0.6-0.2-0.7-0.1-0.9,0.4
		c-1.2,3.9-2.4,7.8-3.5,11.7c-0.3,1.1-0.3,1.1,0.8,1.4c0.3,0.1,0.5,0.2,0.8,0.3C246.8,41.7,248.2,42.4,249.6,42.3z"/>
	<path class="st2" d="M318.5,72.8c-1.7,2.1-3.5,4.1-5.1,6.3c-0.6,0.7-1.4,0.5-2,0.5c-3.1,0-5.9-1-8.4-3c-2-1.6-3.3-3.6-4.1-5.9
		c-1.1-3.5-0.5-6.8,1.6-9.8c1.8-2.6,4.3-4.4,7.4-5c3.3-0.6,6.3,0.3,9.1,2.2c2.6,1.8,4.2,4.2,4.7,7.3c0.2,0.9,0,1.8,0,2.7
		c0,0.5-0.4,0.3-0.6,0.3c-1.2-0.2-2.3-0.5-3.5-0.6c-0.5-0.1-0.3-0.5-0.3-0.7c-0.1-1.9-0.7-3.6-2.1-4.9c-2.7-2.4-6.6-2.4-9.3,0.1
		c-1.6,1.5-2.6,3.2-2.8,5.3c-0.2,2.4,0.8,4.4,2.7,5.9c1.1,0.9,2.4,1.4,3.8,1.6c0.5,0.1,0.9,0,1.3-0.4c1.5-1.5,1.5-1.7-0.1-3
		c-0.9-0.8-1.8-1.6-2.8-2.3c-0.3-0.2-0.3-0.3-0.1-0.5c0.7-0.9,1.5-1.8,2.2-2.7c0.3-0.4,0.5,0,0.7,0.1c1.2,1,2.4,2,3.6,3
		c1.3,1,2.5,2.1,3.8,3.1C318.3,72.6,318.4,72.7,318.5,72.8z"/>
	<path class="st2" d="M141.6,41c2.6,2,5.2,4,7.8,6.1c-1.6,0.6-3.1,1.3-4.7,1.9c-0.4,0.2-0.6,0-0.9-0.2c-2.1-1.7-4.2-3.4-6.3-5.2
		c-0.3-0.3-0.5-0.2-0.8-0.1c-0.7,0.3-1.4,0.6-2.1,0.8c-0.5,0.2-0.6,0.4-0.4,0.9c0.9,2.1,1.7,4.3,2.6,6.4c0.1,0.3,0,0.5-0.3,0.6
		c-1.2,0.5-2.5,0.9-3.7,1.4c-0.6,0.3-0.5-0.2-0.6-0.4c-0.6-1.4-1.1-2.8-1.7-4.2c-1.6-3.9-3.1-7.9-4.7-11.8c-0.5-1.3-1-2.6-1.5-3.9
		c-0.2-0.4,0.2-0.4,0.3-0.5c1.6-0.7,3.2-1.3,4.9-1.9c1.9-0.7,3.8-1.6,5.8-2.2c3.7-1,7.2,1.3,8.4,4.5c0.7,2.1,0.7,4.2-0.5,6.1
		C142.8,39.9,142.1,40.5,141.6,41z M139.4,36.4c0-2.3-1.7-3.9-3.3-3.5c-1.9,0.5-3.6,1.3-5.4,2c-0.2,0.1-0.4,0.2-0.2,0.5
		c0.7,1.6,1.3,3.2,1.9,4.8c0.1,0.2,0.2,0.4,0.5,0.2c1.6-0.7,3.2-1.2,4.7-1.9C138.6,38.1,139.3,37.2,139.4,36.4z"/>
	<path class="st2" d="M178,24.9c-1.3-1.4-2.9-2.2-4.8-2.1c-3.3,0.1-6.1,2.1-6.7,5.6c-0.5,2.9,0.2,5.4,2.4,7.5c1,0.9,2.2,1.4,3.5,1.6
		c2.3,0.3,4.2-0.4,6-1.8c0.4-0.3,0.8-0.6,0.5-1.2c-0.1-0.2-0.1-0.4-0.1-0.6c-0.1-0.5,0-1.1-0.4-1.4c-0.4-0.3-1,0.1-1.4,0.1
		c-1.2,0.1-2.4,0.4-3.6,0.6c-0.4,0.1-0.7,0.1-0.7-0.5c-0.1-1.1-0.3-2.2-0.5-3.2c-0.1-0.4,0.3-0.4,0.4-0.4c1.5-0.3,3-0.5,4.5-0.7
		c1.6-0.3,3.2-0.5,4.8-0.8c0.6-0.1,0.9,0,0.9,0.7c0.3,2.4,0.7,4.7,1.2,7c0.1,0.5,0,0.9-0.3,1.3c-1.8,2.4-4.1,4.1-7,4.8
		c-4.7,1.2-8.9,0.3-12.3-3.3c-1.7-1.8-2.5-4-2.8-6.5c-0.3-2.3,0-4.5,1.1-6.6c1.5-3,4-4.9,7.2-5.9c3.4-1,6.7-0.7,9.7,1.3
		c0.5,0.4,1,0.8,1.5,1.2c0.5,0.4,0.4,0.7-0.1,1C179.9,23.3,178.9,24.1,178,24.9z"/>
	<path class="st2" d="M100,73.4c-1-4.5-2-9-3.1-13.4c-0.7-3.1-1.5-6.1-2.2-9.2c-0.1-0.5-0.1-1,0.5-1.3c1.4-0.8,2.6-1.7,3.9-2.6
		c0.3-0.2,0.5-0.2,0.8,0c2.5,1.8,5,3.5,7.5,5.3c3.7,2.6,7.4,5.2,11.1,7.8c0.2,0.1,0.4,0.2,0.7,0.4c-1,0.7-1.9,1.3-2.9,2
		c-1.7,1.2-1.7,1.2-3.3-0.1l-0.1-0.1c-0.5-0.3-1-0.9-1.5-0.9s-0.9,0.6-1.4,0.9c-2.1,1.4-4.1,2.8-6.2,4.2c-0.3,0.2-0.3,0.3-0.2,0.6
		c0.3,1,0.4,2.1,0.8,3.1c0.2,0.5,0,0.6-0.3,0.8C102.8,71.5,101.4,72.4,100,73.4z M100.1,52.4c-0.1-0.1-0.2-0.1-0.2-0.2
		C99.8,52.3,99.9,52.4,100.1,52.4c-0.1,0.2-0.1,0.4-0.1,0.5c0.7,2.9,1.5,5.8,2.2,8.7c0.1,0.5,0.3,0.3,0.6,0.2
		c1.8-1.2,3.6-2.4,5.4-3.6c-0.9-0.7-1.7-1.3-2.6-1.9C103.7,55,101.9,53.7,100.1,52.4z"/>
	<path class="st2" d="M211,39.3c1.3-2.4,2.6-4.7,3.8-7c0.9-1.7,1.9-3.4,2.8-5c1.6-2.9,3.2-5.8,4.8-8.7c0.2-0.3,0.4-0.4,0.7-0.3
		c1.6,0.3,3.2,0.5,4.8,0.7c0.5,0,0.7,0.3,0.8,0.7c0.5,2.2,1.1,4.4,1.6,6.7s1,4.6,1.6,6.9c0.7,3,1.4,5.9,2.1,8.9
		c0.1,0.4-0.1,0.5-0.4,0.4c-1.6-0.3-3.1-0.5-4.7-0.7c-0.3,0-0.2-0.2-0.3-0.4c-0.2-0.9-0.6-1.8-0.6-2.8s-0.7-0.9-1.3-1
		c-2.7-0.4-5.4-0.8-8.1-1.2c-0.3,0-0.4,0.1-0.5,0.3c-0.5,0.9-1,1.7-1.4,2.6c-0.2,0.6-0.6,0.6-1.1,0.6c-1.4-0.2-2.7-0.4-4.1-0.7
		C211.4,39.2,211.3,39.3,211,39.3z M225.1,23.6c-0.1,0-0.1,0-0.2-0.1c-1.6,3-3.1,5.9-4.7,8.9c2.4,0.3,4.6,0.6,6.9,0.9
		C226.5,30.1,225.8,26.8,225.1,23.6z"/>
	<path class="st2" d="M77.6,69.1c0.9,1.1,1.8,2.1,2.7,3.1c0.3,0.3,0.5,0.4,0.9,0.1c0.8-0.6,1.5-1.3,2.2-2c1.8-1.5,3.4-3.1,5.2-4.7
		c0.3-0.3,0.3-0.1,0.5,0c0.9,0.9,1.6,2,2.7,2.8c-2.7,2.5-5.4,4.9-8.1,7.4c1.9,2.1,3.8,4.1,5.7,6.2c0.4,0.4,0.6,0.8,0,1.3
		c-0.9,0.7-1.7,1.6-2.6,2.4c-0.3,0.3-0.5,0.2-0.7,0c-2.2-2.5-4.4-5-6.7-7.5c-1.3-1.5-2.7-2.9-4-4.4c-1.3-1.4-2.5-2.8-3.8-4.2
		c-0.2-0.2-0.3-0.3-0.1-0.5c1.4-1.2,2.8-2.5,4.2-3.7c0.7-0.6,1.3-1.2,2-1.8c1.6-1.4,3.1-2.9,4.7-4.3c0.4-0.4,0.8-0.8,1.3-0.1
		c0.5,0.9,1.4,1.5,2,2.3c0.2,0.3,0.2,0.4,0,0.6c-1.5,1.3-2.9,2.6-4.4,3.9c-0.8,0.7-1.5,1.4-2.3,2.1C78.5,68.4,78.1,68.8,77.6,69.1z"
		/>
	<path class="st2" d="M127,56.6c-1.4,0.8-2.8,1.6-4.3,2.2c-1.7-3.3-3.4-6.6-5.1-9.8s-3.3-6.3-5-9.5c-0.2-0.5-0.2-0.6,0.3-0.9
		c1.1-0.5,2.1-1.1,3.1-1.7c0.4-0.2,0.6-0.2,0.8,0.3c1.2,2.4,2.5,4.9,3.8,7.3C122.8,48.7,124.9,52.7,127,56.6z"/>
	<path class="st2" d="M266.6,53.5c-1.4-0.6-2.7-1.2-4-1.8c-0.4-0.2-0.4-0.3-0.3-0.6c2.1-4.8,4.2-9.6,6.3-14.4
		c0.8-1.8,1.5-3.6,2.3-5.4c0.1-0.3,0.2-0.4,0.6-0.2c1.2,0.6,2.4,1,3.6,1.5c0.3,0.1,0.4,0.2,0.2,0.6c-1.5,3.5-3.1,7-4.6,10.5
		c-1.3,3-2.6,6.1-4,9.1C266.7,53.1,266.7,53.3,266.6,53.5z"/>
	<path class="st3" d="M253.4,252.1c1.3,1.7,2.6,3.5,3.9,5.1c1.2,1.5,1.3,3,0.5,4.6c-0.9,1.7-2.4,2.4-4.4,2.2c-2.5-0.3-4.9-0.7-7.4-1
		s-4.9-0.7-7.4-1c-2.2-0.3-4.5-0.7-6.7-0.9c-1.9-0.2-3.8-0.6-5.7-0.9c-1.3-0.2-2.7-0.3-4-0.4c-0.5-0.1-0.7,0.2-0.9,0.6
		c-3.7,5.5-7.4,10.9-11.1,16.4c-2.1,3.1-4.2,6.2-6.4,9.3c-1,1.4-2.4,2.3-4.2,1.9c-1.7-0.4-3.2-1.8-3.5-3.7c-0.4-2.8-1-5.6-1.6-8.4
		c-0.3-1.5-0.5-3.1-0.8-4.6c0-0.2-0.1-0.4-0.1-0.6c-0.1-0.5-0.3-0.7-0.9-0.4c-2.6,1.4-5.2,2.7-7.8,4c-4.3,2.1-8.7,4-13.2,5.6
		c-3.1,1.2-6.2,2.2-9.4,3.1c-3.3,0.9-6.7,1.7-10.1,2.3c-3.2,0.6-6.4,1-9.6,1.5c-3.3,0.4-6.6,0.8-9.8,0.8c-4.1-0.1-8.1-0.4-12.2-1.1
		c-2.7-0.5-5.3-1.2-7.8-2.3c-3-1.3-5-3.5-6.5-6.3c-1.7-3-2.7-6.2-2.5-9.7c0.1-2.2-0.1-4.4,0.2-6.5c0.2-1.8,0.6-3.6,1.1-5.4
		c0.5-2,1.1-3.9,1.8-5.8c1.3-3.6,2.8-7,4.5-10.4c3.7-7.3,8.1-14.1,12.8-20.8c3.8-5.4,7.9-10.6,12.2-15.7c3.8-4.6,7.9-9,12.1-13.2
		c0.2-0.2,0.3-0.5,0.7-0.5c0,0.3,0.1,0.6,0.1,0.8c0,2.9,0,5.9,0,8.8c0,4.6,0,9.2,0,13.8c-2.1,2.5-4.1,5-6,7.6
		c-2.6,3.4-5.1,6.9-7.5,10.4c-2.8,4.1-5.6,8.2-7.7,12.7c-1.4,3.1-2,6.3-2.4,9.6c-0.1,0.6-0.1,1.3,0.1,1.9c0.4,1.5,1.2,2.8,2.2,4.1
		c1.4,1.8,3.2,2.7,5.5,2.7c3.8,0,7.5-0.6,11.2-1.3c2.4-0.5,4.7-1.1,7-1.8c3.5-1.2,6.8-2.6,10.2-4.1c2.7,0,5.5,0,8.2,0
		c0.6,0,0.8-0.1,0.8-0.7c0-1.2,0-2.5,0-3.7c1.3-0.7,2.5-1.4,3.9-2.1c-1.5-0.4-2.7-0.7-4-1c0-5.8,0-11.6,0-17.4
		c0.2-0.1,0.4-0.1,0.5-0.2c5-2.7,10.1-5.4,15.1-8.1c0.6-0.3,0.8-0.7,0.8-1.4c0-2.5-0.3-5-0.3-7.5c0-3.5-0.2-7-0.3-10.6
		c-0.1-4.3-0.3-8.5-0.4-12.8c0-1.9,0.8-3.3,2.5-4.2c1.8-0.9,3.4-0.4,4.9,1c0.5,0.5,1,1,1.5,1.4c-1.2,4.6-1.8,9.4-2,14.1
		c-0.1,3.3-0.1,6.7,0.3,10c0.3,2.7,0.7,5.4,1.2,8.1c0.9,4.8,2.5,9.4,4.6,13.8c1.2,2.6,2.7,5.1,4.4,7.4c2,2.8,4.3,5.2,6.9,7.3
		c2.6,2.2,5.5,3.8,8.6,5.1c4.1,1.7,8.4,2.6,12.8,2.8c2.1,0.1,4.1,0.1,6.2-0.1c3-0.3,5.9-0.8,8.7-1.7
		C249.2,254.1,251.3,253.2,253.4,252.1z"/>
	<path class="st2" d="M253.4,252.1c-2.1,1.1-4.2,2-6.4,2.7c-2.9,0.9-5.8,1.4-8.7,1.7c-2.1,0.2-4.1,0.2-6.2,0.1
		c-4.4-0.2-8.7-1.1-12.8-2.8c-3.1-1.3-6.1-3-8.6-5.1c-2.6-2.2-4.9-4.6-6.9-7.3c-1.7-2.4-3.2-4.8-4.4-7.4c-2.1-4.4-3.6-9-4.6-13.8
		c-0.5-2.7-0.9-5.4-1.2-8.1c-0.4-3.3-0.4-6.7-0.3-10c0.2-4.8,0.7-9.5,2-14.1c0.3-1.1,0.6-2.2,0.9-3.3c1.4-4.7,3.3-9.1,5.9-13.2
		c2.5-4,5.5-7.4,9.2-10.3c3.4-2.7,7.3-4.6,11.5-5.9c3.5-1.1,7.1-1.5,10.8-1.7c2.1-0.1,4.1,0.1,6.1,0.3c2.1,0.2,4.2,0.6,6.3,1.2
		c5.1,1.4,9.7,3.9,13.7,7.4c3.6,3.1,6.5,6.8,8.8,10.9c0.7,1.3,1.4,2.7,2.1,4c0.9,2.3,1.9,4.6,2.6,7c0.8,2.8,1.5,5.7,2,8.7
		c0.4,2.9,0.7,5.8,0.9,8.8c0.1,1.8,0.2,3.6,0.1,5.4c-0.1,2.4-0.3,4.9-0.6,7.3c-0.5,3.4-1.1,6.8-2,10.1c-1,3.6-2.3,7.1-4,10.4
		c-1.5,3-3.3,5.7-5.5,8.3C260.8,246.9,257.4,249.8,253.4,252.1z M214.9,207c-0.1,1,0,2,0.1,3.1c0.1,2.5,0.4,5,0.9,7.5
		c0.7,4.2,2,8.2,4.2,11.9c1.7,2.8,3.9,5,6.8,6.5c3,1.5,6.2,1.9,9.5,1.6c1.6-0.1,3.2-0.5,4.6-1.2c1.9-0.5,3.5-1.7,4.8-3.1
		c2.7-2.6,4.4-5.8,5.6-9.3c1-3,1.6-6,2-9.1c0.3-2.5,0.5-5,0.6-7.5c0.1-3.6,0-7.2-0.5-10.8c-0.3-2.1-0.6-4.3-1-6.4
		c-0.8-3.5-1.9-6.8-3.9-9.8c-1.5-2.4-3.5-4.5-6-5.8c-3.6-1.9-7.4-2.4-11.4-1.7c-4.5,0.8-7.9,3.1-10.5,6.8c-1.9,2.7-3.1,5.7-4,8.8
		c-0.5,1.9-1,3.9-1.2,5.8c-0.2,1.9-0.4,3.9-0.6,5.8C214.9,202.4,214.9,204.7,214.9,207z"/>
	<path class="st2" d="M149.4,213.2c0-4.6,0-9.2,0-13.8c0-2.9,0-5.9,0-8.8c0-0.3,0-0.6-0.1-0.8c0.2-2.3,0-4.5,0.1-7
		c-1.6,1.6-3.2,3.1-4.7,4.7c-3.7,3.8-7.4,7.6-11.2,11.4c-0.5,0.5-0.7,0.6-1.2,0c-1.6-1.8-3.4-3.4-5-5.2c-2-2.2-4-4.4-6.2-6.5
		c-0.4-0.4-0.5-0.7,0-1.1c0.2-0.2,0.4-0.4,0.7-0.6c9.9-10,19.9-20,29.8-30c0.4-0.4,0.8-0.6,1.4-0.6c5.6,0,11.2,0,16.8,0
		c0.8,0,1,0.2,1,1c0,4.5,0,9,0,13.5c0,6.2,0,12.4,0,18.6c0,0.1,0,0.2,0.1,0.3c0,0.4-0.1,0.7-0.1,1.1c0,5.3,0,10.6,0,15.9
		c0,8.2,0,16.5,0,24.7c0,5.8,0,11.6,0,17.4c0,1.1,0,2.1,0,3.2c0,1.2-0.1,2.5,0,3.7c0,0.6-0.2,0.7-0.8,0.7c-2.7,0-5.5,0-8.2,0
		c-2.9,0-5.8,0-8.7,0c-1.2,0-2.4,0-3.6-0.1c-0.2-1.2-0.1-2.4-0.1-3.7c0-12.3,0-24.6,0-37C149.4,213.9,149.4,213.6,149.4,213.2z"/>
	<path class="st3" d="M170.9,188.3c0-0.1-0.1-0.2-0.1-0.3c0-6.2,0-12.4,0-18.6c6.3-5.2,12.6-10.3,19.2-15.1
		c6-4.3,12.2-8.5,18.5-12.3c7.2-4.3,14.6-8.2,22.2-11.8c5.4-2.6,10.8-4.8,16.5-6.8c2.7-0.9,5.5-1.7,8.2-2.5
		c5.6-1.5,11.4-1.8,17.2-1.5c2.7,0.1,5.3,1,7.7,2.3c4.4,2.3,7.2,5.9,8.6,10.6c0.4,1.3,0.7,2.6,0.6,4c-0.1,2.1,0.3,4.2-0.2,6.2
		c-1.2,5.3-3.2,10.4-5.7,15.2c-2.7,5.1-5.8,9.8-9.2,14.4c-1.1,1.5-2.3,3-3.5,4.5c-0.1,0.2-0.3,0.4-0.5,0.5c-0.7-1.3-1.4-2.7-2.1-4
		c0.9-0.9,1.3-2.1,1.9-3.1c3.7-7,7-14.3,8.6-22.1c0.6-2.8,1.1-5.6,0.9-8.5c-0.1-2.6-1-4.9-3.3-6.3c-3-1.9-6.4-2.7-9.8-2.9
		c-2.2-0.1-4.2,0.4-6.3,0.9c-2.6,0.6-5.1,1.4-7.6,2.3c-3.1,1.1-6.2,2.4-9.2,3.7c-3.8,1.7-7.5,3.5-11.1,5.5c-3.5,1.9-7,4-10.4,6.2
		c-5.9,3.7-11.7,7.4-17.5,11.3c-6.3,4.3-12.2,9-18,14c-5.1,4.4-10.3,8.8-15,13.7C171.4,188.1,171.2,188.3,170.9,188.3z"/>
	<path class="st3" d="M214.9,207c0.2,0,0.3,0.1,0.4,0.2c0.7,1.1,1.7,1,2.8,0.6c4.1-1.5,8.3-3,12.5-4.5c4.8-1.7,9.6-3.5,14.4-5.2
		c0.9-0.3,1.8-0.8,2.9-0.8c2.6-0.2,5.5,2.9,3.9,6c-2,4.1-4,8.2-6,12.3c-2.6,5.3-5.1,10.6-7.7,15.8c-0.2,0.5-0.2,0.8,0.1,1.2
		c0.7,0.9,1.4,1.8,2.1,2.6c0.3,0.3,0.6,0.6,0.7,1.1c-1.4,0.7-3,1.1-4.6,1.2c-3.3,0.3-6.5-0.1-9.5-1.6c-2.9-1.5-5.1-3.7-6.8-6.5
		c-2.2-3.7-3.4-7.7-4.2-11.9c-0.4-2.5-0.7-5-0.9-7.5C215,209,214.8,208,214.9,207z"/>
</g>
<g>
	<path class="st4" d="M361.2,110.2c-3.5,4.3-6.7,8.7-10,13.1c-1.2,1.5-2.3,3-3.4,4.5c-0.3,0.4-0.5,0.9-1.1,1.1
		c-0.8-1.3-1.5-2.5-2.4-3.8c-0.3-0.5-0.3-0.8,0.1-1.2c0.1-0.1,0.1-0.2,0.2-0.3c0.6-0.8,1.6-1.4,1.7-2.4c0-1-0.9-1.7-1.4-2.6
		c-0.9-1.5-1.9-3-2.8-4.6c-0.4-0.7-0.9-1-1.8-0.7c-0.9,0.2-2,0.8-2.7,0.4s-1.1-1.5-1.6-2.3c-0.4-0.7-0.9-1.3-1.2-2.2
		c2.3-0.4,4.6-0.9,6.8-1.3c5.2-1,10.4-1.9,15.6-2.9c0.8-0.2,1.2,0,1.6,0.7c0.8,1.4,1.7,2.7,2.5,4.1
		C361.2,109.9,361.2,110,361.2,110.2z M345.6,112c1.2,2.1,2.3,4,3.7,5.9c2-2.6,4-5.1,5.9-7.5c-0.1-0.1-0.1-0.2-0.2-0.3
		C352,110.7,348.9,111.3,345.6,112z"/>
	<path class="st4" d="M38.8,120.6c0.7,0.1,0.8-0.6,1-1c1.4-2.4,2.7-4.9,4.1-7.3c1-1.7,2.1-3.3,4-4.1c2.7-1.1,6.2-0.3,8.3,2
		c2,2.3,2.4,5.4,0.8,8.2c-0.9,1.7-1.9,3.4-2.9,5.3c1.3,0.8,2.6,1.5,3.9,2.3c0.6,0.3,1.2,0.6,1.8,1c1.2,0.7,1.3,0.7,0.5,2
		c-0.4,0.6-0.8,1.2-1.1,1.9c-0.3,0.9-0.8,0.9-1.5,0.5c-1.9-1.1-3.9-2.2-5.8-3.3c-3.9-2.2-7.9-4.5-11.8-6.7c-0.4-0.2-0.7-0.5-1.2-0.4
		C38.8,120.8,38.8,120.7,38.8,120.6z M50.3,121.7c1.1-1.6,2-3.2,2.7-4.9c0.7-1.6,0.2-3.1-1.3-3.9c-1.4-0.8-3.1-0.3-4,1.2
		s-1.7,3-2.6,4.6C46.9,119.7,48.6,120.7,50.3,121.7z"/>
	<path class="st4" d="M198,385.6c0-0.4,0.1-0.8,0.1-1.2c-0.2-4,0.4-7.9,0.2-11.9c0-0.8,0.3-1,1.1-1c2.4,0.1,4.9-0.1,7.3,0.2
		c0.6,0.1,0.8,0.2,0.8,0.8c0,0.7-0.4,0.7-0.9,0.7c-1.9,0-3.8-0.1-5.7-0.1c-0.7,0-1,0.2-1,0.9c0.1,1.1-0.3,2.5,0.2,3.3s2,0.2,3,0.3
		c1,0.1,2.1,0.3,3.2,0.2c0.5,0,0.8,0.1,0.8,0.7s-0.3,0.8-0.8,0.7c-1.7-0.1-3.3,0.1-5-0.1c-1.3-0.1-1.3-0.1-1.4,1.2
		c0,0.9-0.1,1.8-0.2,2.7c-0.1,0.7,0.2,1,0.9,1c1.7-0.1,3.4,0.2,5.2,0.2c1.3,0,1.3,0,1.2,1.4C204,385.6,201,385.6,198,385.6z"/>
	<path class="st4" d="M354.9,201.9c0.1,36.8-10.8,69.8-33.7,98.7c-21.8,27.4-49.8,45.2-83.9,53.4c-13.7,3.3-27.7,4.5-41.8,3.7
		c-60.3-3.2-109.2-41.2-131.1-91.8c-5.4-12.5-9.1-25.6-11.1-39.1c-1.5-10.1-2-20.2-1.5-30.3c2.9-61.1,40.6-113,94-135.3
		C158.1,56,171,52.6,184.4,51c11.5-1.4,23-1.6,34.5-0.3c38.2,4.3,70.2,20.8,96,49.1c19.1,20.9,31.2,45.5,36.9,73.3
		C353.7,182.5,354.7,192.1,354.9,201.9z M203.2,53.3c-7.1,0-14.1,0.5-21.1,1.5c-15.3,2.2-29.8,6.8-43.7,13.6
		c-45.8,22.6-79.3,69.2-83,125.3c-1,15,0.1,29.9,3.6,44.5c7.8,33.2,24.8,60.9,51.2,82.6c25.1,20.7,54.1,31.8,86.7,33.3
		c13.9,0.7,27.6-0.6,41.1-4c34.1-8.5,61.8-27,82.9-54.9c18.9-25,28.8-53.3,30.3-84.6c0.6-13.7-0.5-27.2-3.6-40.5
		c-6-26.1-17.8-49.2-36.1-68.9C282.3,69.8,246,54,203.2,53.3z"/>
	<path class="st4" d="M251.4,40.6c1.2-4.5,2.3-8.8,3.5-13.2c1.3,0.3,2.7,0.6,4,1c0.6,0.2,0.5,0.6,0.4,1.1c-0.7,2.8-1.5,5.6-2.2,8.4
		c-1,3.8-2,7.5-2.9,11.3c-0.2,0.9-0.6,1.1-1.4,0.8c-0.1,0-0.1-0.1-0.2-0.1c-2.5-0.1-3.7-1.5-4.5-3.8c-1.3-4-3-7.8-4.6-11.7
		c-0.2-0.6-0.3-1.2-0.8-1.7c-0.5,0.9-0.6,1.9-0.9,2.8c-0.9,3.3-1.8,6.6-2.6,9.9c-0.2,0.8-0.4,1-1.2,0.7c-1.1-0.4-2.3-0.6-3.7-1
		c1.9-7.2,3.8-14.4,5.6-21.5c0.3,0,0.5,0,0.6,0c1.3,0.4,2.9,0.4,3.9,1.2c1.1,0.8,1.2,2.4,1.7,3.7c1.4,3.4,2.7,6.8,4.1,10.2
		C250.7,39.3,250.8,39.9,251.4,40.6z"/>
	<path class="st4" d="M92,74.9c-3-3.3-6.1-6.6-9.2-10c1.2-1.1,2.3-2.1,3.5-3.2c5.1,5.5,10.1,10.9,15.1,16.4c-0.8,1.2-2.1,1.9-3,2.9
		c-0.4,0.4-0.8,0.2-1.3,0.1c-5.2-1-10.5-2.1-15.7-3.2c-0.2,0-0.4,0-0.9,0c3.3,3.6,6.5,7,9.7,10.6c-1.3,1-2.2,2.3-3.6,3.1
		c-5-5.5-10-10.9-15-16.3c0.9-1.3,2.2-2,3.2-3.1c0.4-0.5,0.8-0.2,1.2-0.1c2.7,0.5,5.4,1,8,1.5s5.2,1,7.8,1.5
		C91.9,75.1,91.9,75,92,74.9z"/>
	<path class="st4" d="M207,32.1c0.1-6.1,3.8-11.7,11.5-11.8c6.6-0.1,11.8,4.3,12,11.1c0.2,6.2-3.7,11.9-11.3,12.1
		C212.2,43.6,207.2,39,207,32.1z M212,31.9c0,0.3,0,0.5,0,0.7c-0.1,4.4,4.1,7.7,8.6,6.4c5.2-1.5,6.3-8.8,3.1-12.3
		c-2.9-3.2-9.2-3-11.2,2C212.2,29.8,212,30.9,212,31.9z"/>
	<path class="st4" d="M145.8,52.5c0.1-1.7,0.1-3.2,0.3-4.8c0.2-2.6,0.4-5.2,0.7-7.8c0.3-3.5,0.6-7,0.9-10.5c0-0.7,0.4-1,1-1.1
		c0.8-0.2,1.5-0.4,2.2-0.6c2.6-0.8,2.6-0.8,4.2,1.3c3.8,4.9,7.6,9.8,11.4,14.7c0.5,0.7,1.1,1.4,1.7,2.3c-1.6,0.5-3,0.9-4.4,1.3
		c-0.5,0.2-0.8,0.1-1.1-0.3c-0.5-0.7-1-1.3-1.5-2c-0.3-0.5-0.7-0.6-1.3-0.4c-2.5,0.8-5,1.5-7.5,2.3c-0.7,0.2-1,0.6-1,1.3
		c0,0.1,0,0.1,0,0.2c0,0.9,0.3,2.1-0.3,2.7c-0.6,0.6-1.6,0.6-2.5,0.9C147.4,52,146.6,52.2,145.8,52.5z M151.2,42.3
		c1.3-0.1,2.3-0.6,3.4-0.8c1-0.3,2.1-0.6,3.1-1c-1.7-3-5-7.2-6-7.7C151.6,36,151.4,39.1,151.2,42.3z"/>
	<path class="st4" d="M129.2,60.1c-4.8,0-7.2-1.8-8.7-4.7c-2-3.8-3.8-7.8-5.7-11.7c-0.5-1.1-0.5-1.1,0.6-1.6
		c0.8-0.4,1.7-0.7,2.4-1.1c0.7-0.4,1-0.2,1.3,0.4c1,2.2,2.1,4.4,3.2,6.6c0.8,1.6,1.5,3.2,2.3,4.8c1,2,2.7,2.9,4.7,2.7
		c2.4-0.2,4.5-1.8,5.1-3.8c0.3-1.2,0.1-2.3-0.4-3.4c-1-2.1-2-4.2-3-6.4c-0.8-1.8-1.7-3.5-2.6-5.3c-0.3-0.6-0.2-0.9,0.4-1.1
		c0.8-0.3,1.5-0.7,2.3-1.1c1.4-0.7,1.4-0.7,2.1,0.6c1.8,3.7,3.5,7.4,5.3,11c2.1,4.5,1,8.6-3.1,11.4C133.1,59,130.6,60.1,129.2,60.1z
		"/>
	<path class="st4" d="M310.4,54.3c1.2,0.8,2.3,1.5,3.4,2.2c0.5,0.3,0.6,0.6,0.2,1.2c-2.5,3.7-5,7.4-7.6,11c-2.8,3.9-7,4.7-11.2,2.6
		c-1.8-0.9-3.4-2-4.7-3.6c-2.4-2.9-2.7-6-1.1-9.3c0.4-0.8,0.8-1.5,1.3-2.2c2.2-3.2,4.3-6.4,6.5-9.6c0.2-0.3,0.4-0.7,0.8-0.9
		c1.3,0.9,2.6,1.8,3.8,2.6c-2.4,3.6-4.8,7.1-7.2,10.6c-0.8,1.1-1.4,2.3-1.3,3.7c0.1,2.5,1.8,3.7,3.7,4.7c1.9,0.9,3.6,0.4,5-1
		c0.7-0.7,1.2-1.4,1.8-2.2C306,60.9,308.2,57.7,310.4,54.3z"/>
	<path class="st4" d="M327.7,77c-0.4-2.4-1.4-4.6-3.3-6.2c-0.6-0.6-1.3-1-2.2-1c-1.4,0-2.1,1.1-1.6,2.4c0.6,1.6,1.8,2.9,2.6,4.5
		c0.5,0.9,1,1.7,1.4,2.7c1.1,2.4,1,4.7-0.8,6.7c-1.9,2.2-4.3,3-7.1,2.1c-3.2-1-5.4-3.3-7.2-5.9c-1-1.4-1.5-3-1.8-4.7
		c-0.1-0.8,0-1.4,0.9-1.4c0.2,0,0.3-0.1,0.5-0.1c0.9,0,1.8-0.8,2.6-0.4c0.7,0.4,0.4,1.5,0.6,2.3c0.6,1.9,1.7,3.5,3.2,4.8
		c0.6,0.5,1.3,0.8,2.1,1.1c0.8,0.3,1.5,0,2.1-0.6c0.5-0.6,0.5-1.2,0.2-1.9c-0.4-1.1-1-2-1.6-2.9c-1-1.4-1.9-2.9-2.6-4.5
		c-0.9-2.2-0.8-4.3,0.7-6.1c1.7-2,3.9-2.8,6.4-2.2c4,0.8,8.2,5.4,8.9,9.9c0.1,0.5,0.1,1-0.7,1.1C330.1,76.6,329,77,327.7,77z"/>
	<path class="st4" d="M55.4,94.6c3.4,2.7,6.7,5.3,10,7.8c0.2,0.1,0.3,0.3,0.5,0.4c1.7,1.2,3.5,1.8,5.4,0.6c2-1.2,3.2-2.9,3.1-5.4
		c-0.1-1.4-0.9-2.5-1.9-3.4c-3.1-2.5-6.3-5-9.4-7.5c-0.2-0.1-0.3-0.3-0.5-0.4c-0.8-0.4-0.5-0.8-0.1-1.3c0.8-1,1.5-1.9,2.3-2.8
		c0.5-0.2,0.8,0.2,1.1,0.5c3.2,2.5,6.4,5,9.6,7.6c4.2,3.3,5,7.4,2.4,12c-1,1.7-2.3,3.2-3.8,4.4c-3.1,2.4-6.6,2.5-10,0.2
		c-2.2-1.5-4.3-3.2-6.4-4.9c-1.4-1.1-2.8-2.3-4.2-3.3c-0.9-0.6-1-0.9-0.3-1.7C53.9,96.6,54.6,95.6,55.4,94.6z"/>
	<path class="st4" d="M190.9,37.4c-1.6,4.7-5.9,7.5-11.8,6.8c-5.4-0.6-9.2-4.2-9.9-9.9c-0.7-5.6,2.1-10.4,7.2-12.2
		c5.2-1.9,10.2-0.7,12.9,3.4c-1.2,0.8-2.3,1.6-3.5,2.5c-0.2-0.2-0.4-0.3-0.5-0.5c-3-3.3-8.4-2.2-10.4,1.5s-0.4,9,3.3,10.6
		c2.5,1.1,6.4,0.7,8.1-2.3c0.5-0.9,0.9-1.1,1.8-0.7C188.9,36.8,189.9,37,190.9,37.4z"/>
	<path class="st4" d="M95,60.3c-0.7-1-1.2-1.8-1.9-2.7c-0.5-0.6-0.3-0.9,0.3-1.3c3.6-2.4,7.2-4.9,10.8-7.4c0.8-0.5,1.6-1,2.3-1.6
		c0.7-0.5,1-0.3,1.4,0.3c0.5,0.9,1.1,1.7,1.7,2.5c-1.6,1.5-3.6,2.4-5.3,3.8c1.4,2.1,2.8,4.2,4.2,6.2c1.8,2.7,3.6,5.4,5.5,8
		c0.4,0.5,0.3,0.9-0.2,1.2c-0.8,0.5-1.7,1.1-2.5,1.7c-0.6,0.4-0.9,0.4-1.3-0.2c-1.1-1.7-2.3-3.3-3.4-5c-2.1-3-4.1-6.1-6.2-9.2
		C98.6,57.7,96.9,59.1,95,60.3z"/>
	<path class="st4" d="M335.5,81.9c1.1-0.9,2.1-1.7,3.2-2.7c3.8,4.6,7.6,9.1,11.4,13.7c-1,1-2,1.9-3.2,2.7c-1.4-1.6-2.7-3.2-4.1-4.9
		c-4.6,3.8-9.2,7.7-13.9,11.6c-1.2-0.9-1.9-2.1-2.8-3.1c-0.6-0.6,0.1-0.9,0.4-1.2c2.8-2.3,5.6-4.7,8.3-7c1.6-1.3,3.1-2.6,4.8-4
		C338.2,85.2,336.9,83.6,335.5,81.9z"/>
	<path class="st4" d="M271.4,51.5c0.6,0.7,0.8,1.4,1.3,2c1.6,1.8,4.7,1.9,5.9-0.6c1-2,2-4,3-6c1-2.1,2-4.1,3-6.2
		c0.8-1.6,0.6-1.4,2-0.7c1,0.5,1.9,0.9,2.8,1.4c0.1,0.4-0.1,0.6-0.2,0.8c-2,4.2-4.1,8.3-6.2,12.5c-0.5,1.1-1.1,2.1-1.9,2.9
		c-1.6,1.6-3.6,2.2-5.8,1.8c-2.8-0.6-5.2-1.9-6.8-4.5c-0.4-0.7-0.5-1.2,0.3-1.7C269.7,52.7,270.5,52.1,271.4,51.5z"/>
	<path class="st4" d="M201,42.3c-1.5,0.3-3-0.1-4.7,0.4c-0.2-7.5-0.4-15-0.7-22.6c1.5,0,2.9,0,4.2,0c0.5,0,0.6,0.3,0.5,0.6
		c0,1.5,0.1,3,0.2,4.5c0.1,3.1,0,6.1,0.2,9.2C200.9,37,200.9,39.6,201,42.3z"/>
	<path class="st4" d="M194,385.3c-0.6,0-1.1-0.1-1.7-0.1c-0.8-1.6-1.7-3.1-2.5-4.7c-0.5-0.9-2-1.6-2.9-1.2c-0.5,0.2-0.5,0.7-0.5,1.1
		c-0.1,1.2-0.1,2.3-0.2,3.5c0,0.5-0.2,0.8-0.8,0.8c-0.7,0-1-0.3-0.9-1c0.3-3.1,0.6-6.3,0.9-9.4c0.1-0.9,0.1-1.8,0.1-2.7
		c0-0.6,0.2-0.9,0.8-0.8c1.9,0.2,3.9,0.2,5.8,0.5c1.9,0.3,3.1,1.9,3.2,3.8c0.1,1.8-1,3.9-2.9,4.2c-0.3,0.1-0.6,0.2-1,0.4
		c0.8,1.5,1.7,3,2.5,4.4C193.9,384.5,194.2,384.8,194,385.3z M189.1,377.9c0.5,0,1.1,0,1.6,0c1.4-0.1,2.3-0.9,2.5-2.2
		c0.2-1.4-0.6-2.5-2-2.9c-1.1-0.3-2.3-0.2-3.5-0.3c-0.6-0.1-0.8,0.2-0.9,0.8c-0.1,0.9-0.1,1.9-0.2,2.8c-0.3,1.7-0.2,1.7,1.6,1.8
		C188.5,377.8,188.8,377.9,189.1,377.9z"/>
	<path class="st4" d="M243.9,380.9c0.3-2.6,0.5-5.1,0.8-7.6c0.2-1.9,0.4-3.9,0.6-5.8c0.2-1.4,0.3-1.5,1.5-1.8c0.6-0.2,1,0,1.4,0.5
		c2.8,3.7,5.7,7.4,8.5,11.2c-1.8,0.7-1.8,0.7-2.9-0.7c-1-1.3-1-1.3-2.4-0.8c-1.4,0.4-2.8,0.8-4.2,1.1c-0.8,0.2-1.3,0.6-1.2,1.5
		c0,0.2,0,0.3,0,0.5C245.9,380.6,245.9,380.6,243.9,380.9z M246.3,375.6c2-0.6,3.8-0.9,5.6-1.7c-1.6-2.1-3-4.1-4.8-6.3
		C246.8,370.5,246.6,372.9,246.3,375.6z"/>
	<path class="st4" d="M238.3,370.9c-1.2-0.8-2.6-0.9-4-0.8c-0.9,0.1-1.6,0.4-2.2,1.1c-1,1.2-0.6,2.6,0.9,3c0.7,0.2,1.4,0.3,2.1,0.3
		c1,0.1,2,0.1,3,0.4c1.4,0.4,2.6,1.2,2.8,2.8c0.3,1.7-0.1,3.2-1.7,4.2c-2.5,1.4-4.9,1.5-7.5,0.2c-0.4-0.2-0.7-0.5-0.4-1
		c0.3-0.6,0.5-0.9,1.2-0.4c1.6,1,3.4,0.9,5.1,0.3c0.8-0.3,1.3-0.9,1.5-1.7c0.3-1.2-0.4-2.3-1.8-2.6c-0.9-0.2-1.9-0.2-2.8-0.4
		c-0.8-0.1-1.5-0.2-2.3-0.4c-1.4-0.3-2.2-1.3-2.5-2.6c-0.3-1.4,0.2-2.6,1.3-3.4c2-1.5,4.2-1.8,6.5-1
		C239.2,369.3,239.2,369.4,238.3,370.9z"/>
	<path class="st4" d="M178.2,378.2c-1.1-0.2-2.2-0.3-3.3-0.5c-1.2-0.2-1.2-0.2-1.4,1s-0.3,2.3-0.5,3.5c-0.1,0.6-0.4,0.8-1,0.7
		c-0.6-0.1-0.9-0.3-0.7-1c0.6-3.5,1.1-6.9,1.6-10.4c0-0.2,0.1-0.4,0.2-0.6c0.3-2,0.3-2,2.2-1.7c1.3,0.2,2.6,0.4,3.9,0.7
		c1.6,0.4,2.8,1.3,3.2,3s-0.1,3.2-1.5,4.4C180.2,378,179.3,378.2,178.2,378.2z M177.9,376.6c1.6,0,2.7-0.8,2.9-2.3
		c0.2-1.3-0.5-2.5-1.9-2.9c-1.1-0.3-2.3-0.4-3.4-0.6c-0.3,0-0.6-0.1-0.6,0.3c-0.2,1.4-0.5,2.8-0.7,4.3c-0.1,0.4,0.1,0.6,0.5,0.7
		C175.7,376.3,176.8,376.4,177.9,376.6z"/>
	<path class="st4" d="M218.1,385.3c-0.7,0-1.4,0-2,0c-5.5-0.9-6.9-6.4-5.6-9.9c1.9-5.1,9-6,11.5-2.2c-1.1,1-1.1,1-2,0.2
		c-1.8-1.4-4.6-1.3-6.3,0.3c-1.6,1.6-2.2,3.5-1.6,5.8c0.6,2.2,1.9,3.7,4.3,4.1c1.7,0.3,3.1-0.2,4.3-1.3c0.9-0.9,0.9-0.9,2.1-0.1
		C221.7,384.1,220.1,385,218.1,385.3z"/>
	<path class="st4" d="M153.4,364.2c1.4,0,2.1,0.5,2.4,1.8c0.5,2,1.3,3.9,1.9,6c1.7-1.4,3.4-2.7,4.8-4.1c0.9-0.8,1.7-1,2.7-0.4
		c0.1,0.5-0.3,0.7-0.6,0.9c-1.8,1.6-3.6,3.1-5.5,4.6c-0.7,0.6-1.1,1.2-1.3,2c-0.3,1.2-0.7,2.5-1,3.7c-0.2,0.7-0.5,0.7-1.1,0.6
		s-0.9-0.4-0.7-1c0.4-1.3,0.7-2.6,1.1-3.9c0.2-0.7,0.2-1.4,0-2.1C155.2,369.6,154.3,367,153.4,364.2z"/>
	<path class="st4" d="M227.9,383.3c0.1,0.3,0,0.7-0.5,0.7s-1.1,0.3-1.2-0.6c-0.4-3-0.8-6.1-1.2-9.1c-0.2-1.1-0.3-2.2-0.4-3.3
		c-0.1-0.6,0.3-0.7,0.8-0.8c0.5-0.1,0.8,0.1,0.9,0.7C226.7,374.9,227.3,379,227.9,383.3z"/>
	<path class="st4" d="M222.5,14.4c0.8,0,1.6,0,2.4,0c0.5,0,0.9,0.1,1.6,0.1c-1.8,1.6-3.6,2.8-5.4,4.1c-0.8,0.6-1.9,0-3.3,0.2
		C219.4,17,221.1,15.8,222.5,14.4z"/>
	<path class="st5" d="M256.8,254.7c0,1.1,1,1.7,1.5,2.5c0.8,1.1,1.8,2.2,2.5,3.4c0.9,1.4,0.9,2.9,0,4.3c-1,1.4-2.4,2.3-4.3,2.1
		c-3.8-0.5-7.6-1-11.4-1.6c-3.5-0.5-7-1-10.6-1.6c-2.6-0.4-5.2-0.7-7.8-1.1c-1.2-0.2-2,0.2-2.8,1.3c-5.2,7.8-10.5,15.6-15.8,23.3
		c-0.4,0.6-0.7,1.1-1.2,1.6c-1,1.2-2.2,2-3.8,1.8c-1.8-0.3-3.1-1.3-3.6-3.1c-0.4-1.6-0.7-3.3-1-4.9c-0.5-2.9-1-5.7-1.5-8.6
		c-0.1-0.4-0.1-0.9-0.5-1.2c-0.7,0.1-1.2,0.6-1.8,0.9c-8.1,4.2-16.3,7.9-24.9,10.7c-6.4,2.1-13,3.6-19.7,4.5
		c-5.2,0.7-10.4,1.6-15.7,1.3c-5.1-0.3-10.2-0.7-15.2-2.1c-6.2-1.8-9.6-6-11.3-11.9c-0.5-1.7-0.6-3.4-0.7-5.1
		c-0.4-7.8,1.8-14.9,4.8-21.9c4.6-10.8,11-20.6,17.8-30.1c3.6-5,7.5-9.9,11.6-14.6c3.2-3.7,6.5-7.4,10-10.8c0.3-0.3,0.5-0.6,1-0.5
		c0.1,0.2,0.2,0.4,0.2,0.6c0,7.5,0,15.1,0,22.6c-0.2,0.2-0.5,0.4-0.7,0.7c-5.6,7.1-11,14.3-16,21.9c-3.2,4.9-5.8,10-6.6,15.9
		c-0.4,3.3,0.5,5.8,2.7,8.1c1.3,1.4,2.9,2,4.7,2.1c2.6,0.1,5.1-0.3,7.7-0.6c6.6-1,12.9-3.2,19-5.8c0.4-0.2,0.7-0.4,0.7-0.8
		c0.3,0,0.7-0.1,1-0.1c2.6,0,5.2,0,7.8,0c1.3,0,1.3,0,1.3-1.3c0-1.1,0.1-2.1,0.1-3.2c1.1-0.6,2.3-1.2,3.7-2c-1.4-0.4-2.5-0.9-3.7-1
		c0-5.8,0-11.7,0-17.5c0.3-0.1,0.5-0.2,0.8-0.3c4.8-2.6,9.7-5.2,14.5-7.7c0.8-0.4,1.1-0.9,1.1-1.8c0.1-1.9-0.4-3.8-0.3-5.7
		c0.1-5.8-0.5-11.6-0.4-17.4c0-0.2,0-0.5,0-0.7c-0.5-2.4-0.3-4.8-0.3-7.2c0-1.6,0.8-2.8,2.1-3.6c1.5-0.8,2.9-0.8,4.2,0.2
		c0.8,0.6,1.6,1.2,2.4,1.9c0,0.3,0,0.6-0.1,0.8c-1.2,5.1-1.8,10.2-1.9,15.4c0,2,0,4,0.2,6c0.2,3.1,0.5,6.2,1.1,9.3
		c1.8,9.2,5.2,17.8,11.5,25c4,4.6,8.9,8,14.6,10.1c4.9,1.8,9.9,2.4,15.1,2.3C245.2,259.3,251.2,257.8,256.8,254.7z"/>
	<path class="st4" d="M256.8,254.7c-5.6,3.1-11.5,4.6-17.9,4.7c-5.2,0.1-10.2-0.5-15.1-2.3c-5.7-2.1-10.6-5.5-14.6-10.1
		c-6.3-7.2-9.6-15.7-11.5-25c-0.6-3.1-0.9-6.2-1.1-9.3c-0.1-2-0.2-4-0.2-6c0.1-5.2,0.6-10.3,1.9-15.4c0.1-0.3,0.1-0.5,0.1-0.8
		c0.1-0.4,0.2-0.7,0.3-1.1c2.4-8.8,6.3-16.7,12.9-23c3.9-3.8,8.5-6.5,13.7-8.1c5.8-1.8,11.7-2.2,17.7-1.5c6.1,0.7,11.7,2.7,16.7,6.3
		c4.8,3.4,8.6,7.8,11.5,12.9c0.8,1.4,1.4,2.8,2.3,4.1c-0.1,0.6,0.3,1.1,0.5,1.6c2.6,6.3,4.1,12.9,4.7,19.8c0.3,3.7,0.4,7.5,0.2,11.2
		c-0.8,10.8-3.3,21-9.4,30.1C266.1,247.6,261.9,251.7,256.8,254.7z M218.3,210.2c-0.3,0.6-0.2,1.3-0.1,2c0.1,1.3,0.2,2.5,0.3,3.8
		c0.4,4.6,1.3,9,3.2,13.2c2.7,6.1,7,10.3,13.9,11.1c2.9,0.3,5.8,0.2,8.4-1.2c1.1-0.2,1.9-0.7,2.8-1.3c3-2,5-4.9,6.5-8.1
		c2.4-5.2,3.3-10.9,3.7-16.5c0.3-4.3,0.2-8.6-0.2-12.9c-0.4-4-1.1-7.9-2.5-11.7c-1.2-3.4-2.9-6.5-5.7-9c-4.2-3.7-9.1-4.8-14.5-3.8
		c-3.6,0.7-6.7,2.4-9.1,5.3c-2.4,2.8-3.8,6-4.9,9.4c-1.3,4.4-1.9,8.9-2.1,13.5C218.1,206.1,217.9,208.1,218.3,210.2z"/>
	<path class="st4" d="M174.2,232.7c0,5.8,0,11.7,0,17.5c-0.1,1-0.1,2,0,3c0,1.1,0,2.1-0.1,3.2c0,1.3,0,1.3-1.3,1.3
		c-2.6,0-5.2,0-7.8,0c-0.3,0-0.7,0-1,0.1c-3.2,0-6.4,0-9.5,0c-2.1,0-1.8,0.1-1.8-1.8c0-12.5,0-25,0-37.5c0-0.7,0-1.3-0.1-2
		c0-7.5,0-15.1,0-22.6c0-0.2-0.1-0.4-0.2-0.6c0.4-2.3,0.1-4.5,0.2-7c-0.6,0.2-0.9,0.7-1.2,1c-4.6,4.6-9.1,9.2-13.7,13.8
		c-0.2,0.2-0.4,0.4-0.6,0.6c-0.9,0.8-0.9,0.8-1.7,0c-1.5-1.6-3-3.1-4.5-4.7c-2.1-2.2-4.2-4.4-6.2-6.6c-0.2-0.2-0.4-0.4-0.5-0.6
		c0.2-0.5,0.6-0.8,1-1.2c8.6-8.7,17.3-17.4,25.9-26.1c1.2-1.2,2.5-2.4,3.7-3.7c0.5-0.6,1.1-0.8,1.9-0.8c5.3,0,10.6,0,15.9,0
		c1.7,0,1.5,0,1.5,1.6c0,3.6,0,7.3,0,10.9c0,0.6,0,1.2,0.1,1.8c0,6,0,12.1,0,18.1c0,0.2,0.1,0.3,0.1,0.5c-0.2,0.7-0.2,1.4-0.2,2.2
		c0,12.7,0,25.4,0,38.1C174.1,231.6,174.2,232.2,174.2,232.7z"/>
	<path class="st5" d="M174.3,190.8c0-0.2-0.1-0.3-0.1-0.5c0-6,0-12.1,0-18.1c6.8-5.8,13.9-11.3,21.2-16.5
		c5.9-4.2,11.9-8.2,18.1-11.8c6.7-4,13.6-7.5,20.6-10.8c5.8-2.7,11.7-5.2,17.8-7.2c4.5-1.5,9-2.8,13.6-3.2c4.6-0.4,9.3-0.8,13.8,0.5
		c6.5,1.9,10.7,6,12.6,12.5c1.4,4.8,0.7,9.6-0.8,14.3c-2.5,7.8-6.4,14.7-11,21.4c-1.8,2.6-3.8,5.1-5.7,7.7c-0.3,0.3-0.5,0.8-1,0.9
		c-0.9-1.3-1.5-2.7-2.3-4.1c0.4,0,0.5-0.3,0.7-0.6c1-1.4,1.6-2.9,2.4-4.4c3.3-6.5,6.1-13.2,7.6-20.3c0.5-2.6,1-5.2,0.9-7.8
		c-0.1-3.3-1.5-5.9-4.6-7.3c-4.7-2.2-9.6-2.7-14.7-1.4c-9.5,2.5-18.4,6.4-27.1,11c-4.9,2.6-9.5,5.5-14.1,8.4
		c-10,6.3-20,12.7-29,20.5c-6.1,5.2-12.3,10.2-17.8,16C175.2,190.4,174.9,190.9,174.3,190.8z"/>
	<path class="st5" d="M218.3,210.2c1.1,0.7,2.1,0.6,3.4,0.2c9.1-3.2,18.1-6.5,27.1-9.7c1.2-0.4,2.3-0.7,3.6-0.3
		c2.1,0.7,3.8,3.2,2.4,5.8c-1.6,3.2-3.1,6.4-4.7,9.7c-2.9,6-5.8,12-8.7,18c-0.4,0.9-0.3,1.4,0.3,2.1c0.8,1.1,1.9,1.9,2.3,3.2
		c-2.7,1.4-5.5,1.5-8.4,1.2c-6.9-0.8-11.2-5-13.9-11.1c-1.9-4.2-2.8-8.7-3.2-13.2c-0.1-1.3-0.2-2.5-0.3-3.8
		C218.1,211.5,218,210.8,218.3,210.2z"/>
</g>
</svg>
