<?xml version="1.0" encoding="utf-8"?>
<!-- Generator: Adobe Illustrator 24.1.3, SVG Export Plug-In . SVG Version: 6.00 Build 0)  -->
<svg version="1.1" id="Layer_1" xmlns="http://www.w3.org/2000/svg" xmlns:xlink="http://www.w3.org/1999/xlink" x="0px" y="0px"
	 viewBox="0 0 400 400" style="enable-background:new 0 0 400 400;" xml:space="preserve">
<style type="text/css">
	.st0{display:none;}
	.st1{display:inline;fill:#222222;}
	.st2{fill:#222222;}
</style>
<g class="st0">
	<path class="st1" d="M354,205.7c-0.1,1.6-0.2,3.1-0.3,4.7c-0.8,13.6-3.2,26.9-7.6,39.7c-14.4,42-41.6,72.7-81.7,91.9
		c-12.9,6.2-26.6,10.1-40.7,12.2c-10,1.5-20,2-30,1.4c-31.8-1.8-60.3-12.4-85.3-32c-27.7-21.8-45.8-49.9-54.7-84
		c-2.5-9.6-3.9-19.3-4.5-29.2c-0.6-9.2-0.3-18.4,0.8-27.6c3.4-28.5,13.7-54.3,31.3-77.1c20-25.8,45.6-43.6,76.9-53.2
		c10.3-3.1,20.9-5.1,31.6-5.9c46.3-3.5,91.2,14.1,122.7,48.2c18.8,20.4,31.3,44.1,37.6,71.1c2.2,9.6,3.5,19.3,3.8,29.1
		c0,0.4,0.1,0.8,0.1,1.2C354,199.4,354,202.6,354,205.7z M350.6,199.7c-0.2-3.4-0.4-8.2-0.8-12.9c-0.7-9.1-2.4-18-4.8-26.8
		c-12.1-43.7-42.8-78.9-81.9-96.9c-17.5-8-35.9-12.5-55.1-13.3c-13.4-0.6-26.7,0.5-39.8,3.6c-31.2,7.4-57.4,23.2-78.4,47.4
		c-23.9,27.5-36.1,59.7-37.3,96.1c-0.5,14.9,1.2,29.7,5.2,44.1c8.4,30.8,24.8,56.6,49.3,77c25.6,21.3,55.1,32.7,88.4,34.2
		c13.9,0.6,27.5-0.7,41-4c31.1-7.7,57.1-23.8,77.9-48.2C338.3,271.5,350.1,238.3,350.6,199.7z"/>
	<path class="st1" d="M46,100.5c0.7-1,1.5-2,2.2-2.9c1.8-2.5,3.5-5.2,5.6-7.5c2.1-2.5,5.7-2.8,8.2-0.5c1.6,1.5,2,3.2,1.6,5.2
		c0.9-0.3,1.8-0.5,2.7-0.8c1.5-0.5,2.9,0.2,4,1c1.3,0.9,2.2,2.1,2.5,3.8c0.3,1.7-0.2,3.2-1.1,4.5c-2.3,3.4-4.7,6.7-7.1,10
		c-0.3,0.4-0.5,0.3-0.8,0.1c-3-2.2-6-4.4-9.1-6.5c-2.8-2-5.6-4.1-8.5-6.1c-0.1-0.1-0.2,0-0.3-0.1C46,100.7,46,100.6,46,100.5z
		 M63.8,107.5c0.5-0.6,0.9-1.2,1.3-1.7c0.9-1.4,1.9-2.7,2.8-4.1c0.6-1.1,0.3-2.5-0.7-3.1c-1.1-0.7-2.3-1.1-3.4,0.2
		c-1.5,1.8-2.8,3.7-4.3,5.6C61,105.4,62.4,106.5,63.8,107.5z M56.2,101.9c0.1-0.1,0.3-0.2,0.4-0.4c1-1.4,2.1-2.8,3.1-4.3
		c0.4-0.6,0.7-1.3,0.7-2c-0.1-1-0.7-1.8-1.7-2.2c-0.9-0.3-2,0-2.7,0.9c-1.2,1.5-2.3,3.1-3.4,4.7c-0.2,0.3-0.2,0.6,0.1,0.8
		C53.8,100.3,55,101.1,56.2,101.9z"/>
	<path class="st1" d="M195.3,15.9c1,0.2,2,0.4,2.9,0.7c4.2,1.4,6.7,4.4,7.5,8.8c0.6,3.1,0.1,6.1-1.6,8.8c-1.8,2.8-4.4,4.3-7.6,4.8
		c-3.4,0.6-6.6,0.1-9.4-2c-2.5-1.8-3.9-4.3-4.4-7.3c-0.4-2.4-0.2-4.8,0.8-7.1c1.2-2.7,3.1-4.6,5.8-5.7c1.2-0.5,2.5-0.6,3.8-0.9
		c0.1,0,0.2-0.1,0.2-0.2C193.9,15.9,194.6,15.9,195.3,15.9z M201.1,27.5c0-0.3-0.1-0.8-0.2-1.3c-0.5-4.2-4.5-6.9-8.9-5.6
		c-2.7,0.8-4.1,2.9-4.5,5.7c-0.4,3.1,0.3,5.6,2.8,7.6c1.9,1.5,5.4,1.6,7.4,0.3C200,32.7,201,30.4,201.1,27.5z"/>
	<path class="st1" d="M199.8,384.1c-1.1-0.5-2.1-0.9-3.2-1.4c-0.1,0-0.2-0.1-0.3-0.2c-0.8-0.7-0.8-0.7-0.1-1.5
		c0.1-0.1,0.2-0.3,0.3-0.4c0.7,0.5,1.4,1.1,2.2,1.4c1.4,0.6,2.9,0.9,4.4,0.1c0.8-0.4,1.3-1,1.3-2c0-0.9-0.6-1.5-1.3-1.8
		c-1.4-0.6-2.8-1-4.2-1.5c-1.3-0.5-2.4-1.2-2.6-2.7c-0.3-2,0.6-3.4,2.5-4.1c2.4-0.9,5.7-0.3,7.3,1.7c-0.4,0.4-0.7,0.7-1.1,1.2
		c-0.9-1.1-2.1-1.5-3.5-1.7c-1-0.2-1.9,0-2.7,0.6c-1,0.8-1.3,2.2,0.2,3.1c0.8,0.5,1.8,0.7,2.7,1c0.7,0.2,1.4,0.4,2,0.7
		c2,0.8,2.7,2.5,2.5,3.8c-0.3,1.9-1,2.9-3.3,3.6c-0.1,0-0.3,0.1-0.4,0.2C201.6,384.1,200.7,384.1,199.8,384.1z"/>
	<path class="st1" d="M339.4,100.3c3.8-3,7.4-5.8,11.1-8.7c1,1.3,2,2.5,2.9,3.8c-5.9,4.6-11.7,9.2-17.7,13.8
		c-0.4-0.4-0.8-0.9-1.1-1.3c-0.3-0.4-0.7-0.9-1-1.3c-0.5-0.6-0.8-1.1-0.5-2c1.6-5.4,3.1-10.8,4.6-16.2c0,0,0-0.1-0.1-0.2
		c-3.8,3-7.6,6-11.4,8.9c-1-1.3-2-2.5-2.9-3.7c5.9-4.6,11.8-9.2,17.7-13.9c0.9,1.2,1.8,2.3,2.7,3.5c0.2,0.2,0.3,0.6,0.2,0.8
		c-1.4,5.3-2.9,10.5-4.4,15.7C339.5,99.7,339.5,99.9,339.4,100.3z"/>
	<path class="st1" d="M178.7,40.1c-1.4,0.3-2.7,0.4-4,0.9c-1.6,0.6-2.1-0.6-2.8-1.4c-1.2-1.4-2.5-2.7-3.5-4.2
		c-0.8-1.3-1.8-1.1-2.9-0.8c-0.5,0.1-1,0.2-1.6,0.4c0.5,2.6,1.1,5.2,1.6,7.8c-1.4,0.3-2.8,0.6-4.2,0.9c-0.2,0-0.5-0.3-0.6-0.5
		c-0.9-4.6-1.8-9.1-2.7-13.7c-0.5-2.4-1-4.8-1.5-7.2c0-0.2,0-0.3,0-0.6c2.7-0.5,5.3-1.1,8-1.6c1.2-0.2,2.3-0.6,3.5-0.6
		c2.3-0.1,4.4,0.5,6,2.4c1.7,2,2.5,5.8,1,8.2c-0.6,0.9-1.4,1.7-2.3,2.4c-0.5,0.4-0.5,0.6-0.1,1c1.3,1.4,2.6,2.8,3.9,4.3
		C177.1,38.4,177.8,39.2,178.7,40.1z M161.9,24.8c0.4,2,0.8,4,1.2,6c0.5-0.1,1.1-0.2,1.6-0.3c1.5-0.4,3.1-0.7,4.5-1.2
		c1.5-0.5,2-2.1,1.4-3.7c-0.4-1.2-2.2-2.1-3.5-1.8C165.4,24.1,163.7,24.4,161.9,24.8z"/>
	<path class="st1" d="M319,85c-6.4,0.1-12.3-5.8-12.1-12.1c0.2-6.2,5.4-11.7,11.8-11.6c6.4,0.1,11.9,5.5,12,11.9
		C330.7,79.5,325.2,84.9,319,85z M311.6,73.8c-0.3,3.5,3.3,6.8,6.8,6.7c3.3-0.1,6.6-3,7.4-6.5c1-4.2-2.8-8.8-7.8-8
		C314.8,66.5,311.4,70.1,311.6,73.8z"/>
	<path class="st1" d="M240.4,29.6c3.5,0.9,7,1.7,10.6,2.6c-0.3,1.2-0.6,2.4-0.9,3.6c-0.1,0.5-0.5,0.4-0.8,0.3
		c-3.3-0.8-6.6-1.6-9.9-2.4c-0.4,1.7-0.8,3.3-1.2,5c3.4,0.8,6.7,1.6,10.1,2.4c0.5,0.1,0.7,0.2,0.5,0.8c-0.3,1.1-0.5,2.2-0.8,3.4
		c-1.4-0.3-2.7-0.6-4.1-1c-3.6-0.9-7.2-1.8-10.8-2.6c-0.4-0.1-0.5-0.2-0.4-0.7c0.9-3.6,1.8-7.3,2.7-10.9c0.8-3.5,1.7-7,2.5-10.4
		c5,1.2,9.9,2.4,14.9,3.6c0.5,0.1,0.6,0.3,0.5,0.8c-0.3,1-0.5,1.9-0.7,2.9c-0.1,0.5-0.2,0.6-0.7,0.4c-3.2-0.8-6.4-1.5-9.6-2.3
		c-0.6-0.2-0.8,0-0.9,0.6C241.1,27,240.7,28.3,240.4,29.6z"/>
	<path class="st1" d="M79,88.2c2.7-2.8,5.3-5.5,8-8.4c0.9,1.1,1.7,2.1,2.7,3.2c-3.4,3.6-7,7.4-10.7,11.3c-0.1-0.1-0.2-0.1-0.3-0.2
		c-1.7-1.6-3.4-3.3-5.1-4.9c-2.6-2.5-5.1-4.9-7.7-7.4c-1.1-1-2.1-2-3.3-3c3.7-3.9,7.3-7.7,11-11.5c1,0.9,2.1,1.9,3.1,2.8
		c-2.6,2.7-5.1,5.4-7.4,7.7c1,1.3,2,2.5,3,3.7c2.7-2.8,5.1-5.4,7.6-7.9c1,0.9,2,1.9,3.1,2.8c-2.5,2.7-5,5.3-7.5,7.9
		C76.7,85.7,77.8,86.9,79,88.2z"/>
	<path class="st1" d="M90.8,73.3c2.1,0.2,4.1-0.2,5.9-1.3c1-0.6,1.9-1.5,2.7-2.4c0.6-0.6,0.8-1.5,0.5-2.4c-0.4-0.9-1.2-1.4-2.2-1.1
		c-1.2,0.4-2.3,0.9-3.5,1.3c-1.7,0.6-3.4,1.4-5.2,1.9c-3.4,0.8-6.2-1.7-6.9-4.6c-0.6-2.7,0.4-4.9,2.2-6.9c1.8-1.9,3.9-3.2,6.4-3.9
		c1.2-0.3,2.4-0.4,3.8-0.6c0,1.6,0,3.1,0,4.5c-2.9,0.1-5.5,0.9-7.5,3.3c-1.1,1.3-0.6,3.1,0.8,3.3c0.6,0.1,1.3-0.2,1.9-0.4
		c1.8-0.7,3.5-1.5,5.3-2.2c2-0.8,4-1.1,6-0.1c2.4,1.3,4.2,4.7,3.3,7.7c-0.8,2.3-2.3,4-4.2,5.5c-1.6,1.3-3.5,2.3-5.5,2.7
		c-1.1,0.2-2.2,0.2-3.3,0.3c-0.2,0-0.5-0.2-0.5-0.4C90.8,76,90.8,74.6,90.8,73.3z"/>
	<path class="st1" d="M131.8,29.6c2.9-1,5.7-2,8.5-3c1.6-0.6,3.1-1.2,4.8-1c2,0.2,3.7,1,5,2.6c1.1,1.5,1.7,3.1,1.6,4.9
		c-0.1,2.7-1.3,4.7-3.7,5.9c-2.2,1.1-4.5,1.8-6.9,2.7c0.9,2.4,1.7,4.9,2.6,7.5c-1.5,0.5-3,1.1-4.5,1.6
		C136.8,43.8,134.3,36.7,131.8,29.6z M139.8,37.8c1.9-0.7,3.8-1.4,5.6-2.2c1.3-0.6,1.9-2.3,1.3-3.7c-0.5-1.2-1.6-2.2-3.2-1.8
		c-1.8,0.5-3.6,1.1-5.4,1.7c-0.1,0-0.3,0.3-0.2,0.4C138.4,34.1,139.1,35.9,139.8,37.8z"/>
	<path class="st1" d="M278.7,38.4c-1.5,0.1-3,0.2-4.4,0.4c-0.6-2.7-2-4.6-4.7-5.3c-2.2-0.6-4.1-0.2-5.9,1.2c-2.6,2-3.8,5.6-2.7,8.7
		c1.2,3.5,5.2,5.6,8.8,4c0.5-0.2,0.9-0.6,1.4-0.9c1,1.1,2,2.2,3,3.3c-3.8,3.1-8.6,3.5-13.5,0.1c-4.4-3.1-6-8-4.2-13.3
		c0.9-2.5,2.4-4.6,4.7-6c1.9-1.2,4-1.9,6.2-1.7C274.5,29.4,277.9,33.2,278.7,38.4z"/>
	<path class="st1" d="M218.6,21.2c-2.2-0.2-4.3-0.5-6.5-0.7c0.1-1.3,0.3-2.7,0.4-4.2c5.9,0.6,11.8,1.3,17.8,1.9
		c-0.1,0.8-0.1,1.6-0.2,2.4c0,0.3-0.1,0.7-0.1,1c0.1,0.8-0.3,0.9-0.9,0.8c-1.7-0.2-3.5-0.5-5.2-0.6c-0.2,0-0.6,0.4-0.6,0.6
		c-0.2,1.2-0.2,2.4-0.4,3.6c-0.2,1.9-0.4,3.8-0.6,5.7c-0.1,1.3-0.2,2.5-0.4,3.8c-0.2,1.5-0.3,3-0.5,4.4c-1.6-0.2-3.1-0.3-4.8-0.5
		C217.3,33.3,218,27.3,218.6,21.2z"/>
	<path class="st1" d="M114,38c0.7,1.2,1.4,2.4,2.1,3.6c-1.7,1-3.3,2-4.9,3c-0.5,0.3-0.6,0.4-0.3,1c3,5,6,10,9.1,15.1
		c-1.3,0.8-2.7,1.6-4.1,2.5c-1.2-2-2.3-3.9-3.5-5.8c-1.9-3.1-3.7-6.2-5.6-9.3c-0.2-0.4-0.5-0.5-0.9-0.3c-1.7,1-3.4,2.1-5,3.1
		c-0.7-1.2-1.5-2.4-2.2-3.6C103.7,44.2,108.8,41.1,114,38z"/>
	<path class="st1" d="M284.9,61.7c-1.4-0.8-2.8-1.6-4.1-2.4c3.1-5.3,6.1-10.5,9.2-15.8c-1.9-1.1-3.8-2.2-5.7-3.3
		c0.7-1.2,1.4-2.4,2.1-3.6c5.2,3,10.3,6,15.5,9c-0.7,1.2-1.4,2.4-2.1,3.6c-1.9-1.1-3.7-2.1-5.7-3.3C291,51.2,288,56.5,284.9,61.7z"
		/>
	<path class="st1" d="M307.5,49.7c1.3,0.9,2.6,1.9,3.9,2.8c-2.9,4.1-5.8,8.1-8.7,12.2c-1.3,1.8-2.6,3.7-4,5.5
		c-0.3,0.4-0.6,0.5-1.1,0.1c-0.9-0.7-1.8-1.4-2.7-2c-0.4-0.3-0.4-0.5-0.1-0.9c1.3-1.8,2.6-3.6,3.9-5.4c2-2.7,3.9-5.5,5.9-8.2
		C305.5,52.4,306.5,51.1,307.5,49.7z"/>
	<path class="st1" d="M214.4,369.4c2.3-0.2,4.5-0.5,6.8-0.6c1.8-0.1,3.1,0.8,3.5,2.5c0.4,1.3,0.1,3.2-1.7,3.9c0,0,0,0.1-0.1,0.2
		c1.4,0.3,2.4,1.2,2.8,2.6c0.5,2.4-0.4,4-2.7,4.5c-2.2,0.5-4.5,0.6-6.7,0.9c-0.2,0-0.5-0.4-0.6-0.6c-0.3-2.3-0.5-4.6-0.7-7
		c-0.2-1.8-0.4-3.6-0.7-5.4C214.4,370.1,214.4,369.8,214.4,369.4z M217.4,381.6c1.5-0.1,2.8-0.3,4.2-0.4c1.4-0.2,2.5-0.9,2.4-2.7
		c-0.1-1.3-1.2-2.3-2.5-2.2c-1.5,0.1-3.1,0.3-4.7,0.5C217,378.5,217.2,380,217.4,381.6z M216.2,370.8c0.2,1.6,0.4,3,0.5,4.5
		c1.5-0.2,2.9-0.3,4.3-0.5c1.2-0.1,2.2-1.2,2.1-2.3c-0.1-1.4-1.3-2.4-2.6-2.3C219.1,370.4,217.7,370.6,216.2,370.8z"/>
	<path class="st1" d="M180.4,374.1c0,2.9-1,5.1-3.2,6.6c-4,2.8-10.3,0.2-10.7-5c-0.2-2.6,0.4-4.8,2.2-6.6c1.9-1.9,4.2-2.1,6.6-1.5
		C178.4,368.3,180.6,371,180.4,374.1z M173.5,368.8c-1.3-0.1-2.5,0.4-3.3,1.2c-1.7,1.8-2.4,4-1.7,6.4c0.9,3.5,5,4.9,7.7,2.9
		c2.1-1.5,2.6-3.7,2.4-6.1C178.3,370.5,176,368.8,173.5,368.8z"/>
	<path class="st1" d="M250.7,377.1c-3,0.8-6,1.5-8.9,2.3c-1.1-4.3-2.2-8.7-3.3-13c-0.1-0.5,0-0.6,0.4-0.7c2.8-0.7,5.5-1.4,8.3-2.1
		c0.1,0.5,0.2,1,0.3,1.5c-2.4,0.6-4.8,1.2-7.2,1.9c0.4,1.3,0.7,2.6,1,3.9c0.1,0.4,0.3,0.5,0.7,0.4c2.2-0.6,4.3-1.1,6.5-1.7
		c0.1,0.5,0.3,1,0.4,1.5c-2.4,0.6-4.7,1.2-7.1,1.8c0.4,1.6,0.8,3.1,1.2,4.7c2.4-0.6,4.7-1.2,7.2-1.8
		C250.4,376.1,250.5,376.5,250.7,377.1z"/>
	<path class="st1" d="M182.3,381c0.3-0.4,0.7-0.8,1-1.3c1.4,1.9,4.1,2.8,6.1,2.2c0.8-0.3,1.5-0.8,1.7-1.7c0.2-1-0.1-1.8-1.1-2.2
		c-1.2-0.5-2.4-1-3.6-1.6c-0.7-0.4-1.5-0.8-2.1-1.3c-1.7-1.4-1.1-4.2,0.8-5.3c2.3-1.4,6.4-0.6,8.1,1.6c-0.4,0.4-0.7,0.7-1.1,1.1
		c-1.3-1.6-3.1-2.1-5.1-1.8c-1,0.1-1.8,0.9-1.9,1.8c-0.1,0.8,0.6,1.6,1.6,2.1c1.5,0.6,3,1.2,4.5,2c1.4,0.7,1.8,2,1.7,3.5
		c-0.2,1.3-0.9,2.4-2.1,3C188.2,384.3,184,383.4,182.3,381z"/>
	<path class="st1" d="M156.5,363.6c2.1,0.6,4,1,5.8,1.6c1.9,0.6,3.2,2.3,3,4c-0.4,2.7-1.5,4-4,4.2c-1.1,0.1-2.3-0.4-3.5-0.7
		c-1.8-0.4-1.8-0.5-2.3,1.2c-0.4,1.2-0.6,2.5-1,3.7c-0.5-0.1-1.1-0.2-1.7-0.4C154.1,372.7,155.3,368.2,156.5,363.6z M156.4,370.7
		c1.3,0.3,2.5,0.5,3.6,0.9c1.4,0.4,2.8-0.3,3.3-1.7c0.5-1.5-0.2-3-1.8-3.4c-1.2-0.4-2.4-0.6-3.8-1
		C157.3,367.2,156.9,368.9,156.4,370.7z"/>
	<path class="st1" d="M231.6,379.7c1.5-0.3,2.9-0.5,4.4-0.8c0.3-0.1,0.7-0.1,1-0.2c1.1-0.3,1.4,0,1.3,1c0,0.1-0.2,0.3-0.4,0.4
		c-2.5,0.5-5,0.9-7.5,1.4c-0.1,0-0.2,0-0.3,0c-0.8-4.5-1.7-9.1-2.5-13.7c0.6-0.1,1.1-0.2,1.7-0.3
		C230.1,371.5,230.8,375.6,231.6,379.7z"/>
	<path class="st1" d="M209.1,369.6c0.6,0,1.1,0,1.7,0c0.1,1,0.2,2,0.2,3c0.1,1.8,0.1,3.5,0.2,5.3c0.1,1.7,0.2,3.3,0.3,5
		c0,0.2,0,0.4,0,0.6c-0.6,0-1,0-1.7,0C209.5,378.9,209.3,374.3,209.1,369.6z"/>
	<path class="st1" d="M133.1,123.9c5.5,4.4,11.4,7.5,17.8,9.8c7.3,2.6,14.8,3.6,22.6,2.7c10.2-1.3,19.1-5.4,27.2-11.7
		c0.2-0.1,0.4-0.3,0.5-0.4c0.3-0.4,0.5-0.3,0.9,0c4.6,3.9,9.8,6.8,15.3,9c3.5,1.4,7.1,2.4,10.8,3s7.5,0.7,11.2,0.3
		c10.3-1,19.5-4.7,28-10.6c0.9-0.6,1.7-1.3,2.7-2c0,0.4,0.1,0.6,0.1,0.9c0,31.9,0,63.8-0.1,95.7c0,4.7-0.6,9.3-1.5,13.9
		c-2.2,11.3-7.6,20.9-15,29.6c-9.9,11.6-21.9,20.5-35.8,26.9c-5,2.3-10.2,4.3-15.6,5.7c-0.4,0.1-1,0.1-1.4,0c-5-1.3-9.8-3-14.4-5.1
		c-14.3-6.4-26.7-15.5-36.9-27.5c-5.4-6.3-9.8-13.2-12.6-21.1c-1.4-3.9-2.3-7.9-2.9-11.9c-1-6.8-1-13.7-1-20.6c0-28.5,0-57,0-85.4
		C133,124.7,133.1,124.4,133.1,123.9z"/>
</g>
<g>
	<path class="st2" d="M204.9,7.2c0.1,0.1,0.2,0.2,0.3,0.2c1.6,0.1,3.1,0.1,4.7,0.2c3.1,0.2,6.1,0.6,8.8,2.4c3,2,4.5,4.9,4.8,8.4
		c0.2,2.5-0.2,4.8-1.3,7c-1.8,3.3-4.7,5.2-8.5,5.8c-2.7,0.4-5.4,0-8-0.2c-1.5-0.1-3-0.1-4.4-0.2c0-1.2,0-2.3,0-3.5
		c0.1-1.2,0.3-2.4,0.3-3.7c0.1-1.5,0.1-3,0.2-4.6c0.2-3.1,0.4-6.1,0.5-9.2c0.1-0.9,0.1-1.7,0.2-2.6C203.2,7.2,204.1,7.2,204.9,7.2z
		 M206.3,26.8c2,0,3.9,0.1,5.7,0c2.4-0.2,4.3-1.3,5.5-3.6c0.8-1.5,1-3.1,0.9-4.8c-0.2-2.7-1.8-5.1-4.3-5.7c-2.2-0.6-4.5-0.7-6.9-1
		C206.9,16.7,206.6,21.6,206.3,26.8z"/>
	<path class="st2" d="M194.3,392.8c-0.5-0.1-0.9-0.3-1.4-0.4c-2.4-0.8-3.4-2.4-3.5-4.6c-0.2-3.3,0-6.7,0-10.1c0.8,0,1.4,0,2,0
		c0,0.3,0,0.6,0,0.8c0,0.8-0.1,1.7-0.2,2.5c-0.1,2-0.2,4-0.2,6c0,1.9,0.9,3.4,2.8,3.9c3.1,0.9,5.6-1,5.6-4c0-1.5,0.1-3,0.2-4.5
		c0.1-1.5,0.1-2.9,0.2-4.4c0.5,0,1,0,1.7,0c0,1.3,0,2.7,0,4.1c0,1.5,0,2.9-0.2,4.4c-0.1,1.2-0.3,2.4-0.8,3.4c-0.7,1.6-2,2.4-3.7,2.7
		c-0.1,0-0.2,0.1-0.3,0.2C195.8,392.8,195,392.8,194.3,392.8z"/>
	<path class="st2" d="M361.5,200.6c0,11-0.9,21.1-2.7,31.2c-1.9,10.1-4.6,19.9-8.5,29.4c-2.2,5.4-4.6,10.6-7.3,15.8
		c-2.3,4.4-4.9,8.6-7.6,12.8c-1.7,2.7-3.6,5.3-5.6,7.9c-2.7,3.5-5.5,6.9-8.4,10.3c-1.9,2.3-3.9,4.5-6.1,6.6
		c-7.1,7-14.5,13.5-22.6,19.3c-18.2,12.9-38.1,21.7-60,26.2c-12.4,2.6-24.8,3.6-37.5,3.1c-23.8-0.8-46.2-6.8-67.4-17.7
		c-7.4-3.8-14.7-7.9-21.5-12.7c-3.4-2.4-6.9-4.9-10.1-7.6c-4.1-3.5-8.1-7.1-11.9-10.9c-3.2-3.2-6.2-6.7-9.1-10.1
		c-2.6-3.1-5-6.2-7.4-9.5c-2-2.8-3.9-5.7-5.8-8.7c-2-3.3-4-6.6-5.7-10c-2-4-4-8-5.6-12.2c-2-4.8-3.8-9.7-5.3-14.6
		c-3.7-12-5.9-24.3-6.7-36.9c-0.8-12.9-0.1-25.8,2.3-38.5c1.1-5.7,2.4-11.3,4-16.8c1.5-5.1,3.2-10,5.2-14.9
		c1.7-4.3,3.7-8.4,5.8-12.5c1.7-3.4,3.6-6.8,5.6-10.1c1.8-3.1,3.9-6,5.9-8.9c1.7-2.4,3.4-4.8,5.2-7.1c2.1-2.7,4.4-5.3,6.7-7.9
		c6.4-7.5,13.4-14.5,21-20.7c19.4-15.8,41.3-26.6,65.7-32.2c12.6-2.9,25.4-4.1,38.3-3.8c14.8,0.3,29.2,2.7,43.3,7
		c6.2,1.9,12.3,4.1,18.2,6.7c4.1,1.8,8.1,3.8,12.1,5.9c3.6,1.9,7.1,4,10.5,6.1c1.9,1.2,3.7,2.5,5.5,3.8c2.3,1.7,4.7,3.3,6.9,5.1
		c1.9,1.5,3.7,3.1,5.5,4.6c1.6,1.4,3.2,2.7,4.7,4.1c1.6,1.5,3.1,3,4.6,4.6c1.6,1.7,3.3,3.4,4.9,5.1c1.3,1.5,2.6,3,3.9,4.5
		c2.5,3.2,5,6.3,7.4,9.6c1.6,2.1,2.9,4.4,4.3,6.6c1.4,2.1,2.8,4.3,4,6.5c2.2,4,4.3,8.1,6.3,12.2c3.1,6.3,5.6,12.9,7.6,19.6
		c2.4,7.9,4.3,15.9,5.5,24C360.9,183.5,361.4,192.4,361.5,200.6z M181.1,222.7c-0.2-0.9-0.5-1.6-0.6-2.3c-1-3.8-1.9-7.5-2.9-11.3
		c-1.4-5.5-2.9-11-4.3-16.5c-1-3.7-1.9-7.5-2.9-11.3c-1.4-5.5-2.9-11-4.4-16.5c-1.1-4.1-2.1-8.2-3.2-12.3c-0.1-0.2-0.5-0.5-0.7-0.5
		c-5.1,0-10.3,0-15.4,0c-0.2,0-0.6,0.3-0.7,0.6c-0.8,2.8-1.6,5.6-2.3,8.5c-1.8,6.7-3.5,13.4-5.3,20.1c-2.1,7.9-4.1,15.7-6.2,23.6
		c-1.6,6-3.1,11.9-4.7,18.1c-5.8-23.8-11.5-47.3-17.2-70.8c-7.9,0-15.8,0-23.6,0c0,0.1,0,0.1,0,0.2c1.7,5.9,3.4,11.8,5.1,17.8
		c1.5,5.1,3,10.3,4.4,15.4c1.8,6.1,3.5,12.3,5.2,18.4c1.4,4.8,2.8,9.6,4.1,14.3c1.7,6,3.4,12,5.1,17.9c1.3,4.6,2.6,9.2,4,13.8
		c0.1,0.4,0.3,0.6,0.8,0.6c7.1,0,14.2,0,21.3,0c0.2,0,0.7-0.3,0.7-0.5c0.9-3.5,1.8-7.1,2.7-10.6c2.1-8.3,4.2-16.7,6.3-25
		c1.8-7,3.6-14.1,5.4-21.1c0.8-3.2,1.6-6.3,2.4-9.7c0.2,0.5,0.3,0.7,0.4,0.9c1.4,5.6,2.8,11.3,4.3,16.9c1.3,5,2.5,9.9,3.8,14.9
		c1.7,6.8,3.5,13.6,5.3,20.4c1.1,4.3,2.2,8.6,3.2,12.9c0.2,0.7,0.4,1,1.2,1c6.9,0,13.7,0,20.6,0c0.3,0,0.6,0,0.9,0
		c7.6-26.7,15.2-53.3,22.8-80c15,0,30,0,45.1,0c0,26.7,0,53.3,0,79.9c7.1,0,14.1,0,21.2,0c0-26.7,0-53.3,0-80c9.5,0,19,0,28.4,0
		c0-6.2,0-12.4,0-18.6c-0.5,0-0.9,0-1.3,0c-36.9,0-73.8,0-110.7,0c-0.2,0-0.4,0-0.6,0c-0.5,0-0.7,0.1-0.8,0.6
		c-0.8,3.5-1.6,7-2.5,10.6c-1.1,4.7-2.2,9.3-3.4,14c-1.5,6.2-3,12.3-4.5,18.5c-1,4.3-2.1,8.5-3.1,12.8
		C183.4,213.1,182.3,217.9,181.1,222.7z"/>
	<path class="st2" d="M138.1,22.6c-1,1.2-2,2.4-3,3.6c-4.5-2.9-10.1-0.1-10.8,4.9c-0.5,3.5,1,6.8,4.2,8.5c2.6,1.4,6.1,1,8.5-1.2
		c0,0,0,0,0.1-0.1c2.2-2.2,1.7-1.9,0.5-4.7c-1.9,0.8-3.7,1.5-5.7,2.3c-0.6-1.3-1.1-2.7-1.7-4c3.4-1.4,6.8-2.9,10.3-4.3
		c0.5,1,0.9,2.1,1.4,3.1c0.7,1.6,1.4,3.2,2,4.9c0.1,0.2,0.1,0.5,0,0.7c-2,4.9-5.7,7.7-10.9,8.6c-3.8,0.6-7.2-0.4-10-3.1
		c-2-2-3.3-4.5-3.7-7.3c-0.3-1.9-0.2-3.7,0.4-5.5c0.9-2.8,2.7-4.8,5.2-6.4c1.7-1.1,3.6-1.8,5.7-2C133.4,20.3,135.8,21.1,138.1,22.6z
		"/>
	<path class="st2" d="M145.6,15.2c2.8-0.7,5.5-1.4,8.2-2c1.6-0.4,3.2-0.8,4.9-0.9c3.6-0.2,6.2,2.2,7.1,5.5c0.6,2.1,0.4,4.1-0.8,6
		c-0.5,0.7-1.2,1.2-1.8,1.8c-0.2,0.2-0.4,0.2-0.6,0.4c2.4,2.5,4.8,5,7.2,7.5c-1.7,0.4-3.4,0.9-5.1,1.2c-0.2,0-0.6-0.1-0.7-0.2
		c-1.9-2.1-3.8-4.2-5.8-6.3c-0.2-0.2-0.5-0.4-0.6-0.3c-1.1,0.3-2.2,0.6-3.4,0.9c0.6,2.5,1.3,5,1.8,7.4c0.1,0.2-0.2,0.7-0.3,0.8
		c-1.4,0.4-2.9,0.7-4.3,1.1C149.4,30.4,147.5,22.9,145.6,15.2z M153,24.5c1.4-0.3,2.6-0.6,3.8-1c1-0.3,2.2-0.6,3-1.2
		c1.3-1,1.4-2.3,0.8-3.8c-0.5-1.3-2.3-2-3.8-1.6c-1.7,0.4-3.5,0.9-5.3,1.3C152,20.3,152.5,22.4,153,24.5z"/>
	<path class="st2" d="M264.3,18.3c6.8,0,13.1,5.1,12.8,12.3c-0.2,6.4-4.9,12.4-12.2,12.2c-6.5-0.2-12.9-5.1-12.5-12.6
		C252.7,24.1,257.4,18.2,264.3,18.3z M257.4,31.2c0,2.3,0.8,4.1,2.6,5.5c3.1,2.4,7.4,2.1,9.9-1c1.7-2.1,2.4-4.5,2-7.1
		c-0.7-4.7-5.9-7.1-9.9-5.2C258.8,25,257.7,27.9,257.4,31.2z"/>
	<path class="st2" d="M197,30.5c-1.9,0.2-3.8,0.4-5.6,0.6c-0.6-1.3-1.2-2.6-1.9-3.8c-1.7,0.1-3.5,0.3-5.2,0.5
		c-1.4,0.1-2.8,0.2-4.2,0.4c-0.5,0.1-0.8,0.4-0.9,0.9c-0.2,0.8-0.4,1.6-0.6,2.4c-0.1,0.6-0.4,1-1.1,1c-1.6,0.1-3.2,0.3-4.8,0.5
		c0.8-2.9,1.6-5.7,2.4-8.6c1.4-5.1,2.9-10.2,4.3-15.3c0.1-0.5,0.3-0.6,0.8-0.6c1.7-0.1,3.4-0.4,5.1-0.5c0.3,0,0.7,0.4,0.8,0.7
		c1.9,3.7,3.7,7.3,5.5,11c1.7,3.4,3.4,6.9,5.1,10.3C196.8,30,196.9,30.2,197,30.5z M187.8,22.9c-1.6-3.3-3.1-6.4-4.7-9.8
		c-0.9,3.6-1.8,7-2.7,10.5C182.9,23.4,185.3,23.2,187.8,22.9z"/>
	<path class="st2" d="M247.2,22.4c-0.3,1.4-0.6,2.8-0.9,4.3c-1.7-0.4-3.4-0.7-5.1-1.1c-1.8-0.4-3.6-0.8-5.4-1.2
		c-0.6-0.1-0.8,0.2-0.9,0.7c-0.3,1.4-0.6,2.8-0.9,4.5c3.7,0.8,7.5,1.6,11.4,2.4c-0.2,1-0.4,2.1-0.6,3.1c0,0.2-0.1,0.4-0.2,0.7
		c-0.1,0.4-0.2,0.5-0.6,0.4c-3.9-0.9-7.9-1.7-11.8-2.5c-1.3-0.3-2.7-0.5-4-0.8c1.6-7.7,3.2-15.4,4.8-23.1c5.4,1.1,10.9,2.3,16.3,3.4
		c-0.3,1.4-0.6,2.9-0.9,4.3c-3.5-0.7-7-1.5-10.5-2.2c-0.6-0.1-1-0.1-1.1,0.7c-0.2,1.3-0.5,2.6-0.8,4
		C239.8,20.9,243.5,21.6,247.2,22.4z"/>
	<path class="st2" d="M265.4,365.4c0.6-0.2,1.1-0.4,1.7-0.6c1.7,4.6,3.5,9.2,5.1,13.7c-1.2,1-2.1,0.4-3.1-0.3
		c-3.5-2.3-7-4.6-10.7-7.1c1.4,3.8,2.7,7.4,4.1,11c-0.5,0.2-1,0.5-1.7,0.7c-1.7-4.6-3.4-9.2-5.2-13.7c0.1-0.1,0.1-0.1,0.1-0.2
		c1.3-0.9,2.3-0.2,3.3,0.5c3.3,2.2,6.7,4.4,10.2,6.5C268.1,372.5,266.8,369,265.4,365.4z"/>
	<path class="st2" d="M163,376.9c-0.8,3.9-1.5,7.7-2.3,11.5c-0.6-0.1-1.1-0.3-1.7-0.4c0.2-1.2,0.4-2.3,0.6-3.4
		c0.6-3.2,1.3-6.3,1.9-9.5c0-0.1,0-0.2,0-0.3c0.2-0.4,0.3-0.8,0.5-1.2c0.7,0.3,1.5,0.1,1.9,1c1.7,3.8,3.5,7.6,5.3,11.3
		c0.1,0.3,0.3,0.5,0.5,0.9c0.8-3.8,1.5-7.5,2.2-11.3c0.6,0.1,1.1,0.2,1.7,0.3c-0.2,1.1-0.4,2.2-0.6,3.3c-0.6,3.2-1.3,6.3-1.9,9.5
		c-0.1,0.4-0.1,0.7-0.2,1.1c0,0.2-0.3,0.4-0.3,0.4c-0.6-0.2-1.4,0-1.8-0.9c-1.8-3.9-3.6-7.7-5.4-11.6
		C163.4,377.5,163.2,377.3,163,376.9z"/>
	<path class="st2" d="M248.2,371.4c4.3,0.1,7.3,3.5,7.3,8.1c0,4.5-3.1,7.1-7.3,7.2c-4.6,0.1-7.4-3.5-7.4-8.1
		C240.8,374.3,243.8,371.7,248.2,371.4z M253.7,379.6c-0.2-0.9-0.4-1.9-0.7-2.8c-1.3-3.4-5-4.8-8.1-2.7c-2,1.3-2.8,3.9-2.1,6.4
		c0.4,1.3,1,2.6,2.1,3.4c1.8,1.4,3.9,1.6,5.9,0.5C252.8,383.3,253.6,381.7,253.7,379.6z"/>
	<path class="st2" d="M218.3,391.9c-2,0.1-2,0.1-2.7-1.5c-0.7-1.5-0.7-1.5-2.3-1.4c-1,0-1.9,0.1-2.9,0.1c-0.9,0-1.9,0-2.8,0
		c-0.2,0.7-0.4,1.3-0.6,2c-0.5,1.6-0.7,1.7-2.6,1.6c0.8-2.2,1.5-4.4,2.3-6.5c0.8-2.5,1.7-5,2.5-7.5c0.1-0.3,0.3-0.8,0.5-0.9
		c0.6-0.2,1.3-0.2,2-0.2c0.1,0,0.2,0.2,0.3,0.3c2.1,4.4,4.1,8.9,6.2,13.3C218.1,391.4,218.2,391.6,218.3,391.9z M207.8,387.6
		c2.1-0.1,4.2-0.3,6.3-0.4c-1.2-2.6-2.3-5.1-3.6-7.8C209.6,382.2,208.8,384.8,207.8,387.6z"/>
	<path class="st2" d="M147.1,369.4c0.6,0.2,1.1,0.3,1.7,0.5c-0.7,2.4-1.4,4.8-2.1,7.2c-0.4,1.3-0.9,2.6-0.5,4.1
		c0.4,1.6,1.5,2.4,3,2.8c2.8,0.7,4.4-0.8,5.1-3c0.8-2.6,1.6-5.3,2.4-8c0.1-0.2,0.2-0.5,0.3-0.7c0.6,0.2,1,0.3,1.6,0.5
		c-0.3,1.1-0.5,2.2-0.9,3.3c-0.6,1.9-1.2,3.7-1.7,5.6c-0.7,2.4-2.3,3.9-4.8,4.2c-2.5,0.4-6.1-1.8-6.7-4.3c-0.3-1.2-0.1-2.6,0.2-3.8
		C145.4,375.1,146.3,372.3,147.1,369.4z"/>
	<path class="st2" d="M135,364.8c2.1,0.9,4.2,1.6,6.2,2.5c2.6,1.2,2.8,4.3,1.6,6.3c-1.1,1.8-3.2,2.5-5.9,1.5
		c-0.9-0.4-1.8-0.7-2.7-1.1c-0.6-0.3-0.8-0.1-1,0.4c-0.6,1.6-1.2,3.1-1.8,4.7c-0.6-0.2-1.1-0.4-1.7-0.6
		C131.5,374,133.2,369.5,135,364.8z M134.1,372.3c1.2,0.5,2.4,0.9,3.5,1.4c1,0.4,2,0.4,2.9-0.2c1.4-0.9,1.9-3.4,0.1-4.4
		c-1.4-0.8-2.9-1.4-4.4-2.1C135.4,368.7,134.8,370.4,134.1,372.3z"/>
	<path class="st2" d="M231.7,386.5c0.5,0.2,1,0.4,1.6,0.6c-1,2.3-3.6,4.1-7.1,3.7c-3.4-0.4-5.6-2.3-6.4-5.9
		c-0.9-3.7,0.7-7.1,3.9-8.5c3-1.4,6-1.1,8.3,1.4c-0.4,0.3-0.9,0.6-1.2,0.9c-0.9-0.5-1.7-1-2.6-1.3c-3.1-0.9-6.7,1.7-6.8,5.2
		c0,2.3,0.7,4.3,2.6,5.6C226.6,390.1,230.2,389.5,231.7,386.5z"/>
	<path class="st2" d="M180.9,391.5c0,0-0.1,0-0.2,0c-1.5-0.2-1.6-0.2-1.4-1.6c0.2-2.4,0.6-4.7,0.9-7.1c0.1-1.2,0.2-2.4,0.4-3.6
		c0.1-0.6-0.2-0.9-0.8-0.9c-1.2-0.1-2.5-0.3-3.8-0.4c0.1-0.5,0.1-0.9,0.2-1.5c0.9,0.1,1.9,0.1,2.8,0.2c1.4,0.1,2.7,0.3,4.1,0.5
		c1.2,0.1,2.5,0.2,3.7,0.4c0.2,0,0.4,0.4,0.4,0.7c0,0.3-0.1,0.7-0.2,1c-1.3-0.2-2.6-0.3-3.9-0.5c-0.5-0.1-0.7,0.2-0.8,0.7
		c-0.2,2.4-0.5,4.8-0.7,7.2C181.3,388.1,181.1,389.8,180.9,391.5z"/>
	<path class="st2" d="M239,388.7c-0.6,0.1-1.2,0.3-1.7,0.4c-1-4.8-1.9-9.6-2.9-14.4c1.8-0.5,1.7-0.5,2.1,1.2
		c0.7,3.6,1.5,7.2,2.2,10.8C238.7,387.4,238.8,388,239,388.7z"/>
	<path class="st2" d="M248.4,367c-0.8,1.2-1.6,2.4-2.5,3.6c-0.2,0.3-0.7,0.4-1.3,0.6c0.8-1.4,1.5-2.7,2.3-3.8
		c0.2-0.3,0.9-0.4,1.4-0.5C248.3,366.9,248.4,366.9,248.4,367z"/>
</g>
</svg>
