<?xml version="1.0" encoding="utf-8"?>
<!-- Generator: Adobe Illustrator 24.1.3, SVG Export Plug-In . SVG Version: 6.00 Build 0)  -->
<svg version="1.1" id="Layer_1" xmlns="http://www.w3.org/2000/svg" xmlns:xlink="http://www.w3.org/1999/xlink" x="0px" y="0px"
	 viewBox="0 0 400 400" style="enable-background:new 0 0 400 400;" xml:space="preserve">
<style type="text/css">
	.st0{fill:#FFFFFF;}
	.st1{display:none;}
	.st2{display:inline;fill:#222222;}
	.st3{fill:#222222;}
	.st4{fill:#ADADAD;}
	.st5{fill:#E6E7E8;}
</style>
<circle class="st0" cx="200" cy="200" r="152.5"/>
<g class="st1">
	<path class="st2" d="M354,205.7c-0.1,1.6-0.2,3.1-0.3,4.7c-0.8,13.6-3.2,26.9-7.6,39.7c-14.4,42-41.6,72.7-81.7,91.9
		c-12.9,6.2-26.6,10.1-40.7,12.2c-10,1.5-20,2-30,1.4c-31.8-1.8-60.3-12.4-85.3-32c-27.7-21.8-45.8-49.9-54.7-84
		c-2.5-9.6-3.9-19.3-4.5-29.2c-0.6-9.2-0.3-18.4,0.8-27.6c3.4-28.5,13.7-54.3,31.3-77.1c20-25.8,45.6-43.6,76.9-53.2
		c10.3-3.1,20.9-5.1,31.6-5.9c46.3-3.5,91.2,14.1,122.7,48.2c18.8,20.4,31.3,44.1,37.6,71.1c2.2,9.6,3.5,19.3,3.8,29.1
		c0,0.4,0.1,0.8,0.1,1.2C354,199.4,354,202.6,354,205.7z M350.6,199.7c-0.2-3.4-0.4-8.2-0.8-12.9c-0.7-9.1-2.4-18-4.8-26.8
		c-12.1-43.7-42.8-78.9-81.9-96.9c-17.5-8-35.9-12.5-55.1-13.3c-13.4-0.6-26.7,0.5-39.8,3.6c-31.2,7.4-57.4,23.2-78.4,47.4
		c-23.9,27.5-36.1,59.7-37.3,96.1c-0.5,14.9,1.2,29.7,5.2,44.1c8.4,30.8,24.8,56.6,49.3,77c25.6,21.3,55.1,32.7,88.4,34.2
		c13.9,0.6,27.5-0.7,41-4c31.1-7.7,57.1-23.8,77.9-48.2C338.3,271.5,350.1,238.3,350.6,199.7z"/>
	<path class="st2" d="M46,100.5c0.7-1,1.5-2,2.2-2.9c1.8-2.5,3.5-5.2,5.6-7.5c2.1-2.5,5.7-2.8,8.2-0.5c1.6,1.5,2,3.2,1.6,5.2
		c0.9-0.3,1.8-0.5,2.7-0.8c1.5-0.5,2.9,0.2,4,1c1.3,0.9,2.2,2.1,2.5,3.8c0.3,1.7-0.2,3.2-1.1,4.5c-2.3,3.4-4.7,6.7-7.1,10
		c-0.3,0.4-0.5,0.3-0.8,0.1c-3-2.2-6-4.4-9.1-6.5c-2.8-2-5.6-4.1-8.5-6.1c-0.1-0.1-0.2,0-0.3-0.1C46,100.7,46,100.6,46,100.5z
		 M63.8,107.5c0.5-0.6,0.9-1.2,1.3-1.7c0.9-1.4,1.9-2.7,2.8-4.1c0.6-1.1,0.3-2.5-0.7-3.1c-1.1-0.7-2.3-1.1-3.4,0.2
		c-1.5,1.8-2.8,3.7-4.3,5.6C61,105.4,62.4,106.5,63.8,107.5z M56.2,101.9c0.1-0.1,0.3-0.2,0.4-0.4c1-1.4,2.1-2.8,3.1-4.3
		c0.4-0.6,0.7-1.3,0.7-2c-0.1-1-0.7-1.8-1.7-2.2c-0.9-0.3-2,0-2.7,0.9c-1.2,1.5-2.3,3.1-3.4,4.7c-0.2,0.3-0.2,0.6,0.1,0.8
		C53.8,100.3,55,101.1,56.2,101.9z"/>
	<path class="st2" d="M195.3,15.9c1,0.2,2,0.4,2.9,0.7c4.2,1.4,6.7,4.4,7.5,8.8c0.6,3.1,0.1,6.1-1.6,8.8c-1.8,2.8-4.4,4.3-7.6,4.8
		c-3.4,0.6-6.6,0.1-9.4-2c-2.5-1.8-3.9-4.3-4.4-7.3c-0.4-2.4-0.2-4.8,0.8-7.1c1.2-2.7,3.1-4.6,5.8-5.7c1.2-0.5,2.5-0.6,3.8-0.9
		c0.1,0,0.2-0.1,0.2-0.2C193.9,15.9,194.6,15.9,195.3,15.9z M201.1,27.5c0-0.3-0.1-0.8-0.2-1.3c-0.5-4.2-4.5-6.9-8.9-5.6
		c-2.7,0.8-4.1,2.9-4.5,5.7c-0.4,3.1,0.3,5.6,2.8,7.6c1.9,1.5,5.4,1.6,7.4,0.3C200,32.7,201,30.4,201.1,27.5z"/>
	<path class="st2" d="M199.8,384.1c-1.1-0.5-2.1-0.9-3.2-1.4c-0.1,0-0.2-0.1-0.3-0.2c-0.8-0.7-0.8-0.7-0.1-1.5
		c0.1-0.1,0.2-0.3,0.3-0.4c0.7,0.5,1.4,1.1,2.2,1.4c1.4,0.6,2.9,0.9,4.4,0.1c0.8-0.4,1.3-1,1.3-2c0-0.9-0.6-1.5-1.3-1.8
		c-1.4-0.6-2.8-1-4.2-1.5c-1.3-0.5-2.4-1.2-2.6-2.7c-0.3-2,0.6-3.4,2.5-4.1c2.4-0.9,5.7-0.3,7.3,1.7c-0.4,0.4-0.7,0.7-1.1,1.2
		c-0.9-1.1-2.1-1.5-3.5-1.7c-1-0.2-1.9,0-2.7,0.6c-1,0.8-1.3,2.2,0.2,3.1c0.8,0.5,1.8,0.7,2.7,1c0.7,0.2,1.4,0.4,2,0.7
		c2,0.8,2.7,2.5,2.5,3.8c-0.3,1.9-1,2.9-3.3,3.6c-0.1,0-0.3,0.1-0.4,0.2C201.6,384.1,200.7,384.1,199.8,384.1z"/>
	<path class="st2" d="M339.4,100.3c3.8-3,7.4-5.8,11.1-8.7c1,1.3,2,2.5,2.9,3.8c-5.9,4.6-11.7,9.2-17.7,13.8
		c-0.4-0.4-0.8-0.9-1.1-1.3c-0.3-0.4-0.7-0.9-1-1.3c-0.5-0.6-0.8-1.1-0.5-2c1.6-5.4,3.1-10.8,4.6-16.2c0,0,0-0.1-0.1-0.2
		c-3.8,3-7.6,6-11.4,8.9c-1-1.3-2-2.5-2.9-3.7c5.9-4.6,11.8-9.2,17.7-13.9c0.9,1.2,1.8,2.3,2.7,3.5c0.2,0.2,0.3,0.6,0.2,0.8
		c-1.4,5.3-2.9,10.5-4.4,15.7C339.5,99.7,339.5,99.9,339.4,100.3z"/>
	<path class="st2" d="M178.7,40.1c-1.4,0.3-2.7,0.4-4,0.9c-1.6,0.6-2.1-0.6-2.8-1.4c-1.2-1.4-2.5-2.7-3.5-4.2
		c-0.8-1.3-1.8-1.1-2.9-0.8c-0.5,0.1-1,0.2-1.6,0.4c0.5,2.6,1.1,5.2,1.6,7.8c-1.4,0.3-2.8,0.6-4.2,0.9c-0.2,0-0.5-0.3-0.6-0.5
		c-0.9-4.6-1.8-9.1-2.7-13.7c-0.5-2.4-1-4.8-1.5-7.2c0-0.2,0-0.3,0-0.6c2.7-0.5,5.3-1.1,8-1.6c1.2-0.2,2.3-0.6,3.5-0.6
		c2.3-0.1,4.4,0.5,6,2.4c1.7,2,2.5,5.8,1,8.2c-0.6,0.9-1.4,1.7-2.3,2.4c-0.5,0.4-0.5,0.6-0.1,1c1.3,1.4,2.6,2.8,3.9,4.3
		C177.1,38.4,177.8,39.2,178.7,40.1z M161.9,24.8c0.4,2,0.8,4,1.2,6c0.5-0.1,1.1-0.2,1.6-0.3c1.5-0.4,3.1-0.7,4.5-1.2
		c1.5-0.5,2-2.1,1.4-3.7c-0.4-1.2-2.2-2.1-3.5-1.8C165.4,24.1,163.7,24.4,161.9,24.8z"/>
	<path class="st2" d="M319,85c-6.4,0.1-12.3-5.8-12.1-12.1c0.2-6.2,5.4-11.7,11.8-11.6c6.4,0.1,11.9,5.5,12,11.9
		C330.7,79.5,325.2,84.9,319,85z M311.6,73.8c-0.3,3.5,3.3,6.8,6.8,6.7c3.3-0.1,6.6-3,7.4-6.5c1-4.2-2.8-8.8-7.8-8
		C314.8,66.5,311.4,70.1,311.6,73.8z"/>
	<path class="st2" d="M240.4,29.6c3.5,0.9,7,1.7,10.6,2.6c-0.3,1.2-0.6,2.4-0.9,3.6c-0.1,0.5-0.5,0.4-0.8,0.3
		c-3.3-0.8-6.6-1.6-9.9-2.4c-0.4,1.7-0.8,3.3-1.2,5c3.4,0.8,6.7,1.6,10.1,2.4c0.5,0.1,0.7,0.2,0.5,0.8c-0.3,1.1-0.5,2.2-0.8,3.4
		c-1.4-0.3-2.7-0.6-4.1-1c-3.6-0.9-7.2-1.8-10.8-2.6c-0.4-0.1-0.5-0.2-0.4-0.7c0.9-3.6,1.8-7.3,2.7-10.9c0.8-3.5,1.7-7,2.5-10.4
		c5,1.2,9.9,2.4,14.9,3.6c0.5,0.1,0.6,0.3,0.5,0.8c-0.3,1-0.5,1.9-0.7,2.9c-0.1,0.5-0.2,0.6-0.7,0.4c-3.2-0.8-6.4-1.5-9.6-2.3
		c-0.6-0.2-0.8,0-0.9,0.6C241.1,27,240.7,28.3,240.4,29.6z"/>
	<path class="st2" d="M79,88.2c2.7-2.8,5.3-5.5,8-8.4c0.9,1.1,1.7,2.1,2.7,3.2c-3.4,3.6-7,7.4-10.7,11.3c-0.1-0.1-0.2-0.1-0.3-0.2
		c-1.7-1.6-3.4-3.3-5.1-4.9c-2.6-2.5-5.1-4.9-7.7-7.4c-1.1-1-2.1-2-3.3-3c3.7-3.9,7.3-7.7,11-11.5c1,0.9,2.1,1.9,3.1,2.8
		c-2.6,2.7-5.1,5.4-7.4,7.7c1,1.3,2,2.5,3,3.7c2.7-2.8,5.1-5.4,7.6-7.9c1,0.9,2,1.9,3.1,2.8c-2.5,2.7-5,5.3-7.5,7.9
		C76.7,85.7,77.8,86.9,79,88.2z"/>
	<path class="st2" d="M90.8,73.3c2.1,0.2,4.1-0.2,5.9-1.3c1-0.6,1.9-1.5,2.7-2.4c0.6-0.6,0.8-1.5,0.5-2.4c-0.4-0.9-1.2-1.4-2.2-1.1
		c-1.2,0.4-2.3,0.9-3.5,1.3c-1.7,0.6-3.4,1.4-5.2,1.9c-3.4,0.8-6.2-1.7-6.9-4.6c-0.6-2.7,0.4-4.9,2.2-6.9c1.8-1.9,3.9-3.2,6.4-3.9
		c1.2-0.3,2.4-0.4,3.8-0.6c0,1.6,0,3.1,0,4.5c-2.9,0.1-5.5,0.9-7.5,3.3c-1.1,1.3-0.6,3.1,0.8,3.3c0.6,0.1,1.3-0.2,1.9-0.4
		c1.8-0.7,3.5-1.5,5.3-2.2c2-0.8,4-1.1,6-0.1c2.4,1.3,4.2,4.7,3.3,7.7c-0.8,2.3-2.3,4-4.2,5.5c-1.6,1.3-3.5,2.3-5.5,2.7
		c-1.1,0.2-2.2,0.2-3.3,0.3c-0.2,0-0.5-0.2-0.5-0.4C90.8,76,90.8,74.6,90.8,73.3z"/>
	<path class="st2" d="M131.8,29.6c2.9-1,5.7-2,8.5-3c1.6-0.6,3.1-1.2,4.8-1c2,0.2,3.7,1,5,2.6c1.1,1.5,1.7,3.1,1.6,4.9
		c-0.1,2.7-1.3,4.7-3.7,5.9c-2.2,1.1-4.5,1.8-6.9,2.7c0.9,2.4,1.7,4.9,2.6,7.5c-1.5,0.5-3,1.1-4.5,1.6
		C136.8,43.8,134.3,36.7,131.8,29.6z M139.8,37.8c1.9-0.7,3.8-1.4,5.6-2.2c1.3-0.6,1.9-2.3,1.3-3.7c-0.5-1.2-1.6-2.2-3.2-1.8
		c-1.8,0.5-3.6,1.1-5.4,1.7c-0.1,0-0.3,0.3-0.2,0.4C138.4,34.1,139.1,35.9,139.8,37.8z"/>
	<path class="st2" d="M278.7,38.4c-1.5,0.1-3,0.2-4.4,0.4c-0.6-2.7-2-4.6-4.7-5.3c-2.2-0.6-4.1-0.2-5.9,1.2c-2.6,2-3.8,5.6-2.7,8.7
		c1.2,3.5,5.2,5.6,8.8,4c0.5-0.2,0.9-0.6,1.4-0.9c1,1.1,2,2.2,3,3.3c-3.8,3.1-8.6,3.5-13.5,0.1c-4.4-3.1-6-8-4.2-13.3
		c0.9-2.5,2.4-4.6,4.7-6c1.9-1.2,4-1.9,6.2-1.7C274.5,29.4,277.9,33.2,278.7,38.4z"/>
	<path class="st2" d="M218.6,21.2c-2.2-0.2-4.3-0.5-6.5-0.7c0.1-1.3,0.3-2.7,0.4-4.2c5.9,0.6,11.8,1.3,17.8,1.9
		c-0.1,0.8-0.1,1.6-0.2,2.4c0,0.3-0.1,0.7-0.1,1c0.1,0.8-0.3,0.9-0.9,0.8c-1.7-0.2-3.5-0.5-5.2-0.6c-0.2,0-0.6,0.4-0.6,0.6
		c-0.2,1.2-0.2,2.4-0.4,3.6c-0.2,1.9-0.4,3.8-0.6,5.7c-0.1,1.3-0.2,2.5-0.4,3.8c-0.2,1.5-0.3,3-0.5,4.4c-1.6-0.2-3.1-0.3-4.8-0.5
		C217.3,33.3,218,27.3,218.6,21.2z"/>
	<path class="st2" d="M114,38c0.7,1.2,1.4,2.4,2.1,3.6c-1.7,1-3.3,2-4.9,3c-0.5,0.3-0.6,0.4-0.3,1c3,5,6,10,9.1,15.1
		c-1.3,0.8-2.7,1.6-4.1,2.5c-1.2-2-2.3-3.9-3.5-5.8c-1.9-3.1-3.7-6.2-5.6-9.3c-0.2-0.4-0.5-0.5-0.9-0.3c-1.7,1-3.4,2.1-5,3.1
		c-0.7-1.2-1.5-2.4-2.2-3.6C103.7,44.2,108.8,41.1,114,38z"/>
	<path class="st2" d="M284.9,61.7c-1.4-0.8-2.8-1.6-4.1-2.4c3.1-5.3,6.1-10.5,9.2-15.8c-1.9-1.1-3.8-2.2-5.7-3.3
		c0.7-1.2,1.4-2.4,2.1-3.6c5.2,3,10.3,6,15.5,9c-0.7,1.2-1.4,2.4-2.1,3.6c-1.9-1.1-3.7-2.1-5.7-3.3C291,51.2,288,56.5,284.9,61.7z"
		/>
	<path class="st2" d="M307.5,49.7c1.3,0.9,2.6,1.9,3.9,2.8c-2.9,4.1-5.8,8.1-8.7,12.2c-1.3,1.8-2.6,3.7-4,5.5
		c-0.3,0.4-0.6,0.5-1.1,0.1c-0.9-0.7-1.8-1.4-2.7-2c-0.4-0.3-0.4-0.5-0.1-0.9c1.3-1.8,2.6-3.6,3.9-5.4c2-2.7,3.9-5.5,5.9-8.2
		C305.5,52.4,306.5,51.1,307.5,49.7z"/>
	<path class="st2" d="M214.4,369.4c2.3-0.2,4.5-0.5,6.8-0.6c1.8-0.1,3.1,0.8,3.5,2.5c0.4,1.3,0.1,3.2-1.7,3.9c0,0,0,0.1-0.1,0.2
		c1.4,0.3,2.4,1.2,2.8,2.6c0.5,2.4-0.4,4-2.7,4.5c-2.2,0.5-4.5,0.6-6.7,0.9c-0.2,0-0.5-0.4-0.6-0.6c-0.3-2.3-0.5-4.6-0.7-7
		c-0.2-1.8-0.4-3.6-0.7-5.4C214.4,370.1,214.4,369.8,214.4,369.4z M217.4,381.6c1.5-0.1,2.8-0.3,4.2-0.4c1.4-0.2,2.5-0.9,2.4-2.7
		c-0.1-1.3-1.2-2.3-2.5-2.2c-1.5,0.1-3.1,0.3-4.7,0.5C217,378.5,217.2,380,217.4,381.6z M216.2,370.8c0.2,1.6,0.4,3,0.5,4.5
		c1.5-0.2,2.9-0.3,4.3-0.5c1.2-0.1,2.2-1.2,2.1-2.3c-0.1-1.4-1.3-2.4-2.6-2.3C219.1,370.4,217.7,370.6,216.2,370.8z"/>
	<path class="st2" d="M180.4,374.1c0,2.9-1,5.1-3.2,6.6c-4,2.8-10.3,0.2-10.7-5c-0.2-2.6,0.4-4.8,2.2-6.6c1.9-1.9,4.2-2.1,6.6-1.5
		C178.4,368.3,180.6,371,180.4,374.1z M173.5,368.8c-1.3-0.1-2.5,0.4-3.3,1.2c-1.7,1.8-2.4,4-1.7,6.4c0.9,3.5,5,4.9,7.7,2.9
		c2.1-1.5,2.6-3.7,2.4-6.1C178.3,370.5,176,368.8,173.5,368.8z"/>
	<path class="st2" d="M250.7,377.1c-3,0.8-6,1.5-8.9,2.3c-1.1-4.3-2.2-8.7-3.3-13c-0.1-0.5,0-0.6,0.4-0.7c2.8-0.7,5.5-1.4,8.3-2.1
		c0.1,0.5,0.2,1,0.3,1.5c-2.4,0.6-4.8,1.2-7.2,1.9c0.4,1.3,0.7,2.6,1,3.9c0.1,0.4,0.3,0.5,0.7,0.4c2.2-0.6,4.3-1.1,6.5-1.7
		c0.1,0.5,0.3,1,0.4,1.5c-2.4,0.6-4.7,1.2-7.1,1.8c0.4,1.6,0.8,3.1,1.2,4.7c2.4-0.6,4.7-1.2,7.2-1.8
		C250.4,376.1,250.5,376.5,250.7,377.1z"/>
	<path class="st2" d="M182.3,381c0.3-0.4,0.7-0.8,1-1.3c1.4,1.9,4.1,2.8,6.1,2.2c0.8-0.3,1.5-0.8,1.7-1.7c0.2-1-0.1-1.8-1.1-2.2
		c-1.2-0.5-2.4-1-3.6-1.6c-0.7-0.4-1.5-0.8-2.1-1.3c-1.7-1.4-1.1-4.2,0.8-5.3c2.3-1.4,6.4-0.6,8.1,1.6c-0.4,0.4-0.7,0.7-1.1,1.1
		c-1.3-1.6-3.1-2.1-5.1-1.8c-1,0.1-1.8,0.9-1.9,1.8c-0.1,0.8,0.6,1.6,1.6,2.1c1.5,0.6,3,1.2,4.5,2c1.4,0.7,1.8,2,1.7,3.5
		c-0.2,1.3-0.9,2.4-2.1,3C188.2,384.3,184,383.4,182.3,381z"/>
	<path class="st2" d="M156.5,363.6c2.1,0.6,4,1,5.8,1.6c1.9,0.6,3.2,2.3,3,4c-0.4,2.7-1.5,4-4,4.2c-1.1,0.1-2.3-0.4-3.5-0.7
		c-1.8-0.4-1.8-0.5-2.3,1.2c-0.4,1.2-0.6,2.5-1,3.7c-0.5-0.1-1.1-0.2-1.7-0.4C154.1,372.7,155.3,368.2,156.5,363.6z M156.4,370.7
		c1.3,0.3,2.5,0.5,3.6,0.9c1.4,0.4,2.8-0.3,3.3-1.7c0.5-1.5-0.2-3-1.8-3.4c-1.2-0.4-2.4-0.6-3.8-1
		C157.3,367.2,156.9,368.9,156.4,370.7z"/>
	<path class="st2" d="M231.6,379.7c1.5-0.3,2.9-0.5,4.4-0.8c0.3-0.1,0.7-0.1,1-0.2c1.1-0.3,1.4,0,1.3,1c0,0.1-0.2,0.3-0.4,0.4
		c-2.5,0.5-5,0.9-7.5,1.4c-0.1,0-0.2,0-0.3,0c-0.8-4.5-1.7-9.1-2.5-13.7c0.6-0.1,1.1-0.2,1.7-0.3
		C230.1,371.5,230.8,375.6,231.6,379.7z"/>
	<path class="st2" d="M209.1,369.6c0.6,0,1.1,0,1.7,0c0.1,1,0.2,2,0.2,3c0.1,1.8,0.1,3.5,0.2,5.3c0.1,1.7,0.2,3.3,0.3,5
		c0,0.2,0,0.4,0,0.6c-0.6,0-1,0-1.7,0C209.5,378.9,209.3,374.3,209.1,369.6z"/>
	<path class="st2" d="M133.1,123.9c5.5,4.4,11.4,7.5,17.8,9.8c7.3,2.6,14.8,3.6,22.6,2.7c10.2-1.3,19.1-5.4,27.2-11.7
		c0.2-0.1,0.4-0.3,0.5-0.4c0.3-0.4,0.5-0.3,0.9,0c4.6,3.9,9.8,6.8,15.3,9c3.5,1.4,7.1,2.4,10.8,3s7.5,0.7,11.2,0.3
		c10.3-1,19.5-4.7,28-10.6c0.9-0.6,1.7-1.3,2.7-2c0,0.4,0.1,0.6,0.1,0.9c0,31.9,0,63.8-0.1,95.7c0,4.7-0.6,9.3-1.5,13.9
		c-2.2,11.3-7.6,20.9-15,29.6c-9.9,11.6-21.9,20.5-35.8,26.9c-5,2.3-10.2,4.3-15.6,5.7c-0.4,0.1-1,0.1-1.4,0c-5-1.3-9.8-3-14.4-5.1
		c-14.3-6.4-26.7-15.5-36.9-27.5c-5.4-6.3-9.8-13.2-12.6-21.1c-1.4-3.9-2.3-7.9-2.9-11.9c-1-6.8-1-13.7-1-20.6c0-28.5,0-57,0-85.4
		C133,124.7,133.1,124.4,133.1,123.9z"/>
</g>
<g>
	<path class="st3" d="M371.4,127.8c-3.1,1.5-6.2,3.1-9.4,4.6c-3.5,1.7-6.9,3.5-10.5,5.2c-0.6-1.3-1.2-2.5-1.8-3.7
		c-0.3-0.5,0-0.9,0.2-1.3c1.2-2.3,2.4-4.6,3.6-6.9c1.4-2.7,2.8-5.4,4.2-8c-0.1-0.1-0.1-0.2-0.2-0.3c-4.2,2.1-8.4,4.1-12.5,6.2
		c-0.2-0.2-0.3-0.3-0.4-0.4c-0.6-1.2-1.2-2.4-1.7-3.6c1-1,2.3-1.3,3.5-1.9c4.9-2.5,9.8-4.9,14.8-7.4c0.5-0.3,1.1-0.5,1.8-0.9
		c0.7,1.3,1.2,2.5,1.9,3.8c0.3,0.5,0.2,1-0.1,1.4c-1.8,3.5-3.6,7-5.4,10.5c-0.7,1.3-1.3,2.6-2,3.9c0.6,0.2,1-0.2,1.4-0.4
		c3.3-1.6,6.7-3.3,10-4.9c1.1-0.5,1.1-0.5,1.7,0.6c0.4,0.8,0.8,1.6,1.2,2.4C371.4,127.1,371.4,127.4,371.4,127.8z"/>
	<path class="st3" d="M203.6,15.8c0.1,0.2,0.4,0.2,0.6,0.3c3.4,0.6,5.5,3.3,5.6,7c0.1,3.3-2.2,6.2-5.5,7c-1.8,0.5-3.7,0.2-5.6,0.3
		c-0.4,0-0.8,0.1-1.2,0c-0.9-0.1-1.1,0.3-1.1,1.2c0.1,2-0.1,3.9,0.1,5.9c0.1,0.8-0.1,1.1-1,1.1c-1-0.1-1.9-0.1-2.9,0
		c-0.9,0.1-1-0.3-1-1.1c0-3.3,0.2-6.7,0-10c-0.2-3.9-0.1-7.8-0.2-11.6C195.4,15.8,199.5,15.8,203.6,15.8z M196.4,22.9
		c0,1,0,1.8,0,2.5c0,0.4,0.1,0.7,0.5,0.7c1.8,0,3.6,0.2,5.4-0.1c1.5-0.3,2.5-1.7,2.5-3c-0.1-1.7-1.2-2.8-2.9-2.9
		c-0.8-0.1-1.6,0-2.4,0c-1,0.1-2.2-0.4-2.9,0.2C196,21,196.5,22.2,196.4,22.9z"/>
	<path class="st3" d="M28.6,133.2c0.2,0,0.5-0.1,0.6-0.3c0.2-0.4,0.3-0.8,0.5-1.2c0.4-0.7,0.4-1.9,1.2-2.1c0.7-0.1,1.6,0.5,2.3,0.8
		c4.4,1.9,8.9,3.8,13.3,5.7c1.1,0.5,1.1,0.4,1.5-0.6c1-2.3,1.9-4.5,2.9-6.8c0.1-0.3,0.3-0.5,0.4-0.8c1.1,0.4,2.1,0.9,3.1,1.3
		c0.5,0.2,0.7,0.4,0.4,1c-1.8,4.1-3.6,8.2-5.4,12.5c-2.7-1.2-5.4-2.3-8-3.5c-3.9-1.7-7.8-3.4-11.8-5c-0.4-0.2-0.7-0.3-1.1-0.3
		C28.6,133.6,28.6,133.4,28.6,133.2z"/>
	<path class="st3" d="M192.4,384.2c0-0.6-0.5-0.5-0.8-0.6c-1.1-0.4-2-1-2.7-1.9c0.3-0.4,0.5-0.9,1-1.2c1.1,1,2.4,1.9,4,2
		c0.7,0.1,1.4,0,2-0.2c1-0.3,1.7-1,1.8-2s-0.5-1.7-1.4-2.1c-1.2-0.5-2.5-0.9-3.8-1.4c-0.6-0.2-1.1-0.5-1.6-0.9
		c-1.7-1.5-1.6-4,0.2-5.4s5.2-1.4,7.3,0.1c0.4,0.3,0.7,0.6,1.1,0.9c-0.1,0.7-0.6,0.9-1.1,1.3c-0.9-0.9-2-1.5-3.2-1.7
		c-0.5-0.1-1-0.1-1.5,0c-1.2,0.2-2,0.9-2.1,1.9c-0.1,0.9,0.3,1.5,1.6,2.1c0.7,0.3,1.4,0.5,2.1,0.7c0.7,0.3,1.5,0.6,2.2,0.9
		c1.4,0.7,2.1,1.8,2.1,3.3c0,1.6-0.8,2.8-2.2,3.5c-0.3,0.2-0.8,0.1-0.8,0.7C195.1,384.2,193.7,384.2,192.4,384.2z"/>
	<path class="st3" d="M202.9,384.2c-0.2-4.5,0.2-9-0.3-13.5c-0.1-0.5,0.1-0.9,0.7-0.9c0.5,0,1.2-0.3,1.2,0.7c0,0.1,0,0.1,0,0.2
		c-0.1,4.5,0.3,9,0.1,13.5C204,384.2,203.4,384.2,202.9,384.2z"/>
	<path class="st3" d="M201.3,356c-49.7,0-96.1-24.4-124.8-65.6c-13-18.6-21.4-39-25.5-61.3c-2.2-11.8-2.9-23.7-2.4-35.7
		c2.9-61.2,40.5-112.9,93.3-135.5c12.4-5.3,25.4-8.9,38.8-10.8c11.3-1.6,22.6-1.9,33.9-0.8c32.8,3,61.8,15.4,86.6,37.1
		c25.3,22.2,41.6,49.8,49.2,82.5c3.3,14,4.4,28.2,3.7,42.5c-2.5,52.7-30.8,98.6-73.1,124.8c-16.7,10.4-34.7,17.2-54.1,20.5
		C218.4,355.3,209.9,355.9,201.3,356z M201.3,352.5c9.8,0,19.4-0.9,28.9-2.9c26.8-5.5,50.4-17.2,70.6-35.7
		c30-27.6,46.4-62,49.5-102.6c1.2-15.2-0.1-30.2-3.6-45c-7.7-32.6-24.1-59.9-49.6-81.6c-25.4-21.6-55-33.3-88.3-35.1
		c-15.3-0.8-30.4,0.7-45.2,4.7C127.7,64,99.3,84.4,78.3,115c-16.3,23.8-24.8,50.2-26.1,79c-0.6,13.8,0.5,27.4,3.6,40.8
		c6,26.4,18.1,49.8,36.6,69.6C121.8,335.9,158.3,351.7,201.3,352.5z"/>
	<path class="st3" d="M80,72.3c1.9,4.3,3.8,8.6,5.8,12.9c0.3,0.8,0.2,1.2-0.3,1.8c-0.6,0.8-1.2,0.5-1.9,0.2
		c-4.1-1.7-8.2-3.3-12.4-4.9c-0.5-0.2-1-0.6-1.8-0.5c3.7,3.5,7.3,6.9,10.9,10.4c-1.1,1.2-2,2.4-3.3,3.5
		c-5.4-5.2-10.8-10.3-16.3-15.5c1.4-1.5,2.8-2.9,4.1-4.4c0.5-0.6,1-0.3,1.5-0.1c3.6,1.4,7.2,2.9,10.8,4.3c0.5,0.2,0.9,0.5,1.6,0.4
		c0-0.6-0.3-1.1-0.6-1.6c-1.5-3.4-3.1-6.7-4.6-10.1c-0.4-0.8-0.5-1.4,0.3-2.2c1.1-1,2.1-2.2,3.2-3.3c0.5-0.5,0.8-0.5,1.4,0
		c1.9,1.8,3.8,3.5,5.6,5.3c3.3,3.1,6.6,6.3,9.9,9.5c-0.9,1.3-2,2.4-3.2,3.5c-1.2-1.1-2.4-2.2-3.6-3.3c-1.8-1.7-3.6-3.5-5.5-5.3
		c-0.4-0.3-0.8-0.6-1.2-0.9c-0.1-0.4-0.4-0.6-0.8-0.7C79.6,71.7,79.6,72.1,80,72.3z"/>
	<path class="st3" d="M251.6,45.9c-5.9,0.1-12.2-4.1-12.2-11.4c0-6.9,5.2-12.1,11.6-12c5.8,0.1,12.2,4.5,12.1,11.7
		C262.9,40.7,258,46.2,251.6,45.9z M258.1,33.8c0-0.2,0-0.5,0-0.7c-0.1-2.6-1.4-4.5-3.8-5.6c-2.4-1.1-4.8-1.1-6.8,0.6
		c-2.6,2.2-3.7,5-3,8.4c0.9,4.4,6.2,6.1,9.3,4.5C256.8,39.6,258,37,258.1,33.8z"/>
	<path class="st3" d="M169.5,32.9c2.1,2.3,4.3,4.6,6.5,7.1c-1.7,0.4-3.2,0.7-4.8,1.1c-0.6,0.1-0.9-0.2-1.3-0.6
		c-1.6-1.8-3.2-3.6-4.7-5.5c-0.4-0.5-0.8-0.7-1.4-0.5c-0.8,0.3-1.7,0.2-2.5,0.7c0.4,2.1,0.9,4.3,1.4,6.5c0.3,1.2,0.3,1.2-1,1.5
		c-0.8,0.2-1.7,0.3-2.5,0.6c-0.7,0.2-1,0-1.2-0.7c-0.4-2.1-0.9-4.2-1.3-6.2c-1-4.7-2-9.3-3-14c-0.2-0.8,0-1,0.7-1.1
		c3.6-0.7,7.1-1.7,10.7-2.2c3.9-0.5,7.2,2.2,7.7,6.1c0.4,3-0.5,5.3-3,6.9C169.7,32.6,169.7,32.7,169.5,32.9z M164.5,23.8
		c-1.4,0.3-3.1,0.7-4.8,1c-0.5,0.1-0.6,0.4-0.5,0.8c0.3,1.5,0.7,3.1,1,4.6c0.1,0.4,0.3,0.7,0.7,0.5c1.8-0.5,3.7-0.6,5.4-1.3
		c1.4-0.6,2-1.9,1.7-3.3C167.6,24.8,166.3,23.8,164.5,23.8z"/>
	<path class="st3" d="M330.4,98.6c-0.4-5.7,5-11.7,11.9-11.7S354,93.1,354,99.1c0,7-6.5,11.6-11.9,11.6
		C335.8,110.7,330.4,105.1,330.4,98.6z M349.5,98.5c0.1-1.1-0.2-2.1-0.7-3.1c-1.6-2.8-4.1-3.9-6.3-3.7c-2.5,0.2-4.6,1.5-6.1,3.5
		c-1.3,1.7-1.8,3.6-1.2,5.7c1.2,4.3,5.5,6.4,9.5,4.5C347.5,103.9,349.4,101.8,349.5,98.5z"/>
	<path class="st3" d="M214.5,38.6c0.8-6.2,1.7-12.3,2.5-18.4c0.1-1,0.3-2,0.4-3c0-0.8,0.5-0.9,1.1-0.8c3.5,0.5,7,0.8,10.5,1.5
		c3.8,0.8,5.6,3.4,5.6,6.8s-1.6,6.3-5.8,7.2c1.2,3,2.5,6,3.8,9.1c-1.7-0.2-3.2-0.4-4.7-0.6c-0.6-0.1-0.8-0.4-1-0.9
		c-0.8-2.1-1.7-4.2-2.4-6.3c-0.4-1-0.8-1.5-2-1.6c-2.1-0.2-2.1-0.3-2.3,1.8c-0.2,1.6-0.5,3.2-0.6,4.8c-0.1,0.8-0.4,1-1.1,0.9
		C217.1,39,215.8,38.8,214.5,38.6z M221.7,21.1c-0.3,1.8-0.5,3.5-0.8,5.2c-0.1,0.6,0.1,0.8,0.7,0.9c1.6,0.2,3.1,0.5,4.6,0.6
		c1.7,0.1,3.1-1,3.4-2.6c0.2-1.6-0.9-3.1-2.6-3.4C225.3,21.5,223.5,21.3,221.7,21.1z"/>
	<path class="st3" d="M138.7,27.2c6.9-0.3,11.4,6.2,11.5,11.8c0.1,6.5-5.7,11.7-12.3,11.7c-7,0-11.4-5.9-11.4-12.2
		C126.5,31,133.4,26.9,138.7,27.2z M131.4,38.3c-0.1,1.9,0.6,3.6,1.6,5c1.6,2.3,3.8,3.4,6.6,2.8c2.8-0.5,4.8-2.1,5.5-5
		c0.5-2.1,0-4.1-1-6c-1.1-2.2-4.1-4.4-7.7-3.4C132.9,32.7,131.2,35.5,131.4,38.3z"/>
	<path class="st3" d="M56.2,126.9c-1.9-2.5-3.8-4.8-5.6-7.2c-2.8-3.6-5.6-7.2-8.3-10.8c-0.9-1.2-0.9-1.1-0.1-2.4c0.6-1,1.2-2,1.8-3
		c0.4-0.6,0.8-0.8,1.5-0.7c4.5,0.8,9.1,1.6,13.6,2.4c2.7,0.5,5.3,1,8,1.4c0.4,0.1,0.7,0.2,1.3,0.3c-0.9,1.4-1.7,2.8-2.5,4.1
		c-0.2,0.4-0.5,0.5-1,0.4c-0.7-0.2-1.3-0.2-2-0.4c-0.9-0.3-1.5-0.1-2,0.8c-1.2,2.2-2.5,4.3-3.8,6.4c-0.4,0.6-0.4,1,0.1,1.6
		c0.6,0.8,1.8,1.5,1.7,2.5s-1,1.9-1.5,2.8C57,125.7,56.6,126.2,56.2,126.9z M47,107.7c2.3,2.8,4.3,5.3,6.5,8c1.2-2.1,2.5-3.9,3.5-6
		C53.7,109,50.6,108.4,47,107.7z"/>
	<path class="st3" d="M99,74.4c-4.5-6.1-8.9-12-13.3-18c0.1-0.5,0.5-0.6,0.8-0.8c3.7-2.7,7.3-5.4,11-8.1c0.9-0.7,1-0.7,1.7,0.3
		c0.6,0.8,1.6,1.5,1.5,2.3c-0.1,0.9-1.3,1.3-2,1.8c-2.2,1.6-4.3,3.2-6.6,4.9c0.6,1.2,1.6,2.1,2.2,3.2c0.4,0.7,0.8,0.5,1.3,0.1
		c2.6-2,5.2-3.9,7.9-5.9c0.9,1,1.7,2.1,2.5,3.4c-2.9,2.1-5.7,4.2-8.7,6.4c0.9,1.2,1.8,2.4,2.6,3.6c0.4,0.6,0.7,0.3,1.1,0
		c2.4-1.8,4.8-3.5,7.2-5.3c1.1-0.8,1.1-0.8,1.9,0.3c0.6,0.8,1.1,1.5,1.7,2.4C107.5,68.1,103.3,71.2,99,74.4z"/>
	<path class="st3" d="M295.4,41c4.5,2.9,8.9,5.8,13.3,8.6c0,0.2,0,0.3-0.1,0.4c-0.8,1-1.2,2.3-2.2,3.1c-1.2-0.4-2.1-1.3-3.2-1.9
		c-2.1-1.3-4.1-2.6-6.1-3.9c-0.8,1.4-1.8,2.6-2.5,4c3,2,6,3.9,9.1,5.9c-0.8,1.2-1.5,2.3-2.3,3.5c-2.3-1.5-4.6-3-6.9-4.4
		c-0.5-0.3-1.1-0.6-1.6-1c-0.6-0.5-1-0.3-1.3,0.3c-0.7,1.1-1.4,2.2-2.2,3.4c3.1,2,6.2,4,9.2,6c0,0.2,0,0.2,0,0.3
		c-0.7,1-1.3,2.1-2,3.1c-1.3-0.1-2.1-1.1-3.1-1.7c-3.1-1.9-6.1-3.9-9.1-5.8c-0.4-0.3-0.9-0.5-1.2-1C287.3,53.6,291.4,47.4,295.4,41z
		"/>
	<path class="st3" d="M319.6,81.3c-4.9,2-9.5,0.3-12.8-4.2s-3.2-10.1,0.9-14.6c3.5-3.9,8.7-5,13.8-2.4c4.8,2.5,7.4,7.6,6,12
		c-1.3-0.1-2.6-0.6-3.8-0.9c-0.4-0.1-0.4-0.4-0.4-0.8c0-0.8,0.1-1.7-0.2-2.5c-1.2-3.8-5.7-5.7-9.3-3.9c-2.7,1.4-4.4,3.6-4.6,6.6
		c-0.2,3.7,2.8,7.5,7.3,7c1.4-0.2,1.4-0.2,2,1.2C318.9,79.5,319.2,80.4,319.6,81.3z"/>
	<path class="st3" d="M272.3,29.6c5.5,2.6,10.8,5.1,16.1,7.6c0,0.1,0,0.2,0,0.2c-2.1,4.6-1,3.9-5.1,2c-2.5-1.2-2.5-1.2-3.7,1.4
		c-2,4.3-4,8.5-6.1,12.8c-0.6,1.2-0.6,1.2-1.9,0.7c-1-0.5-2-1-3.1-1.5c2.6-5.5,5.2-11,7.8-16.5c-1.7-0.8-3.3-1.6-4.9-2.3
		c-0.8-0.3-1.1-0.7-0.6-1.5C271.4,31.5,271.8,30.6,272.3,29.6z"/>
	<path class="st3" d="M111.7,39c1.1-1,2.3-1.4,3.5-2.2c0.6-0.4,0.9,0.1,1.1,0.6c1,1.8,2,3.6,3.1,5.4c1.2,2.2,2.5,4.4,3.7,6.6
		c0.5,0.8,0.8,1.7,1.1,2.6c0.6,2.5,0.2,4.7-1.7,6.5c-2.1,2-4.6,3.2-7.6,3.1c-0.9,0-1.2-0.4-1.1-1.2c0.1-1,0-2,0-3.1c0.8,0,1.4,0,2,0
		c3-0.1,4.6-2.6,3.2-5.2c-1.9-3.6-3.9-7.1-5.9-10.6C112.6,40.7,112.1,39.9,111.7,39z"/>
	<path class="st3" d="M335.8,73.5c1.1,1.2,2.1,2.3,3.3,3.5c-5.5,5.1-11,10.2-16.6,15.4c-0.9-1.4-2.4-2.2-3.1-3.7
		C324.8,83.7,330.2,78.7,335.8,73.5z"/>
	<path class="st3" d="M211,383.9c-0.6,0-1.1,0-1.7-0.1c-0.1-0.3-0.2-0.6-0.3-1c-0.2-2.6-0.3-5.3-0.5-7.9c-0.1-1.4-0.2-2.8-0.3-4.2
		c-0.1-0.7,0.1-1,0.9-1c1.9-0.2,3.9-0.3,5.9-0.4c1.7-0.1,3,0.8,3.4,2.2c0.6,1.6,0.2,3-1.1,4c-0.1,0.1-0.2,0.2-0.3,0.3
		c0.1,0.5,0.5,0.4,0.7,0.6c1.3,0.9,1.9,2.2,1.7,3.8c-0.3,1.6-1.3,2.6-2.9,2.9c-1.4,0.3-2.8,0.3-4.2,0.4
		C211.9,383.8,211.4,383.7,211,383.9z M210.7,379.7c0,0.5,0,1,0,1.5c-0.1,0.7,0.2,1,1,1c1.3-0.1,2.6-0.1,3.8-0.3
		c1.5-0.3,2.1-1.1,2-2.6c-0.1-1.3-0.9-2-2.3-2.1c-0.8-0.1-1.7,0.1-2.5,0.2C210.5,377.5,210.5,377.5,210.7,379.7z M212.2,375.7
		c0.7-0.1,1.7-0.1,2.7-0.3c1.4-0.3,1.9-1,1.8-2.4c-0.1-1.2-0.9-2-2.2-2s-2.6,0.1-3.8,0.2c-0.6,0-0.8,0.4-0.7,0.9
		c0.2,0.7,0.2,1.4,0.2,2.2C210.3,375.8,210.3,375.8,212.2,375.7z"/>
	<path class="st3" d="M186.7,375.4c0,4.3-3,7.5-7,7.4c-4,0-7-3-7-7.1c0-4.8,3.6-7.6,7.1-7.5C184,368.4,186.9,371.8,186.7,375.4z
		 M184.9,375.2c0-0.1,0-0.3,0-0.5c-0.1-2.2-1.7-4.2-3.8-4.7c-2.2-0.6-4.4,0.3-5.6,2.2c-0.7,1.2-1.1,2.6-1,4c0.1,2.4,1.6,4.4,3.7,4.9
		c2.3,0.6,4.5-0.2,5.8-2.4C184.6,377.7,184.9,376.6,184.9,375.2z"/>
	<path class="st3" d="M235.2,380.8c-1-4.4-1.9-8.6-2.8-12.9c-0.1-0.7,0-1,0.8-1.1c2.4-0.5,4.7-1,7.1-1.5c0.4-0.1,1-0.4,1.2,0.4
		c0.2,0.9-0.3,1-1,1.2c-1.7,0.4-3.4,0.7-5.1,1.1c-0.8,0.2-1.2,0.4-0.9,1.3c0.4,1,0,2.5,0.9,3.1c0.8,0.5,2-0.2,3.1-0.4
		c0.9-0.2,1.7-0.4,2.6-0.6c1.3-0.2,1.3-0.2,1.5,1.2c-2,0.7-4,0.9-6,1.4c-0.8,0.2-1.1,0.4-0.9,1.2c0.3,1.2,0.5,2.4,0.9,3.7
		c2.1-0.4,4.1-0.9,6.1-1.3c0.4-0.1,0.8-0.3,1.1,0c0.3,0.2,0.3,0.6,0.3,0.9c0,0.5-0.5,0.5-0.9,0.6C240.7,379.7,238,380.2,235.2,380.8
		z"/>
	<path class="st3" d="M167,374.8c-1.4,0-2.5-0.4-3.6-0.6c-1.2-0.2-1.2-0.2-1.5,0.9s-0.5,2.3-0.8,3.4c-0.1,0.5-0.2,0.9-1,0.7
		c-0.7-0.2-0.9-0.4-0.7-1.2c0.9-4,1.7-8,2.5-12c0.1-0.6,0.4-0.8,1.1-0.7c1.7,0.4,3.4,0.7,5.1,1.1c1.8,0.4,2.8,1.7,3.1,3.4
		c0.3,1.5-0.3,2.8-1.5,3.9C168.9,374.6,167.9,374.8,167,374.8z M169.4,370.6c0-1.3-0.6-2.2-2-2.6c-1-0.3-2-0.4-2.9-0.7
		c-0.6-0.2-1,0-1.1,0.6c-0.2,1.2-0.5,2.4-0.8,3.6c-0.2,0.7,0.1,0.9,0.7,1c1,0.2,2.1,0.5,3.1,0.7C168,373.4,169.4,372.2,169.4,370.6z
		"/>
	<path class="st3" d="M224.9,380.8c1.9-0.3,3.6-0.5,5.3-0.8c0.3,0,0.7-0.2,1,0.1c0.2,0.2,0.4,0.6,0.3,0.9c0,0.5-0.4,0.4-0.7,0.5
		c-2.2,0.3-4.4,0.7-6.7,1c-0.6,0.1-0.9,0-1-0.7c-0.5-4-1.1-8-1.7-12c-0.1-0.6-0.3-1.1,0.6-1.2c0.7-0.1,1,0.1,1.1,0.8
		c0.4,3,0.9,6,1.3,9C224.7,379.2,224.8,379.9,224.9,380.8z"/>
	<path class="st3" d="M352,89.4c1.8,0.2,3.5,0.5,5.3,0.7c0.7,0.1,1.1,0.3,1.5,0.9c0.5,0.7,1,1.5,1.7,2.4c-2.4-0.5-4.5-0.9-6.6-1.5
		C352.8,91.6,352.5,90.4,352,89.4z"/>
	<path class="st3" d="M177.5,287.2c-3.5-2.1-6.9-4.2-10.2-6.6c-9.9-7.3-18.5-15.8-25-26.3c-4.5-7.3-7.4-15.1-8.5-23.6
		c-0.6-4.6-1-9.3-1-14c0-30.4,0-60.9,0-91.3c0-0.5-0.1-1,0.2-1.6c0.7,0.5,1.3,1,2,1.5c7.9,5.6,16.6,9.3,26.2,10.7
		c9.8,1.4,19.2-0.3,28.1-4.6c4.1-1.9,8-4.3,11.4-7.2c0.7-0.6,1.1-0.4,1.7,0.1c6.6,5.3,13.9,8.9,22.1,10.9
		c10.2,2.4,20.1,1.2,29.7-2.5c5.7-2.2,10.3-4.8,15.8-8.9c0.4,1.3,0.2,2.6,0.2,3.8s0,2.5,0,3.7c0,1.3,0,2.6,0.1,3.9
		c0,0.6-0.1,1.1-0.1,1.7c0,26.2,0,52.4,0,78.6c0,5.1-0.3,10.2-1,15.3c-1.1,8.4-3.9,16.2-8.3,23.3c-6.5,10.4-14.9,19-24.7,26.1
		c-9.9,7.2-20.8,12.6-32.6,16.1c-1.5,0.4-2.8,0.4-4.3,0c-5.2-1.5-10.2-3.5-15.1-5.8c-1.9-0.9-3.7-2.1-5.8-2.8l0,0
		c0-0.2-0.1-0.2-0.3-0.2c-0.1-0.1-0.2-0.1-0.4-0.2C177.8,287.2,177.7,287.2,177.5,287.2z"/>
	<path class="st4" d="M178.5,287.8c2,0.7,3.8,1.9,5.8,2.8c4.9,2.3,9.9,4.2,15.1,5.8c1.5,0.4,2.8,0.4,4.3,0
		c11.8-3.4,22.6-8.9,32.6-16.1c9.8-7.2,18.2-15.7,24.7-26.1c4.5-7.2,7.2-15,8.3-23.3c0.7-5.1,1-10.2,1-15.3c0-26.2,0-52.4,0-78.6
		c0-0.6,0-1.1,0.1-1.7c1,0,1.7-0.5,2.4-1c2.1-1.4,4.3-2.7,6.2-4.3c0.6,0.3,0.4,0.7,0.4,1.1c0,0.3,0,0.7,0,1c0,30.7,0,61.4,0,92.1
		c0,2.8-0.3,5.6-0.6,8.4c-0.1,1.2-0.2,2.5-0.3,3.7c-0.4,3.3-1.1,6.6-2.1,9.8c-1.8,6.2-4.7,11.9-8.4,17.2c-2.6,3.8-5.6,7.5-8.8,10.8
		c-1.6,1.7-3.3,3.2-4.9,4.8c-2.8,2.8-5.9,5.2-9.1,7.5c-4.3,3.1-8.9,5.8-13.6,8.4c-4.7,2.5-9.5,4.6-14.5,6.3
		c-1.8,0.7-3.8,1.1-5.6,1.7c-0.7,0.2-1.3,0.1-2-0.1c-6.1-1.6-11.9-3.9-17.5-6.6c-4.3-2.1-8.5-4.5-12.4-7.1
		C179.1,288.7,178.5,288.5,178.5,287.8z"/>
	<path class="st5" d="M177.5,287.2c0.2,0,0.3,0,0.3,0.2C177.7,287.5,177.5,287.4,177.5,287.2z"/>
	<path class="st5" d="M178.2,287.6c0.2-0.1,0.3,0,0.3,0.2C178.4,287.7,178.3,287.7,178.2,287.6z"/>
</g>
</svg>
