<?xml version="1.0" encoding="utf-8"?>
<!-- Generator: Adobe Illustrator 24.1.3, SVG Export Plug-In . SVG Version: 6.00 Build 0)  -->
<svg version="1.1" id="Layer_1" xmlns="http://www.w3.org/2000/svg" xmlns:xlink="http://www.w3.org/1999/xlink" x="0px" y="0px"
	 viewBox="0 0 100 100" style="enable-background:new 0 0 100 100;" xml:space="preserve">
<style type="text/css">
	.st0{fill:#FFFFFF;}
	.st1{fill:#ADADAD;}
	.st2{fill:#222222;}
	.st3{fill:#EFEFEF;}
	.st4{opacity:0.4;}
	.st5{fill:none;stroke:#222222;stroke-width:2;stroke-miterlimit:10;}
	.st6{clip-path:url(#SVGID_2_);}
	.st7{fill:#C7102E;}
	.st8{fill:#FEFDFE;}
	.st9{fill:#012169;}
	.st10{clip-path:url(#SVGID_4_);}
	.st11{fill:#FFDA00;stroke:#222222;stroke-width:2;stroke-miterlimit:10;}
	.st12{clip-path:url(#SVGID_6_);}
	.st13{fill:none;stroke:#000000;stroke-miterlimit:10;}
	.st14{clip-path:url(#SVGID_8_);}
	.st15{clip-path:url(#SVGID_10_);}
	.st16{fill:#002395;}
	.st17{fill:#ED2939;}
	.st18{fill:#FFDA00;}
	.st19{fill:none;stroke:#ADADAD;stroke-width:2;stroke-miterlimit:10;}
	.st20{clip-path:url(#SVGID_12_);}
</style>
<g>
	<defs>
		<circle id="SVGID_11_" cx="50" cy="50" r="49.5"/>
	</defs>
	<clipPath id="SVGID_2_">
		<use xlink:href="#SVGID_11_"  style="overflow:visible;"/>
	</clipPath>
	<g class="st6">
		<path class="st7" d="M40-0.2c6.7,0,13.4,0,20.1,0c0,13.1,0,26.2,0,39.3c0,0.7,0.2,0.9,0.9,0.9c24.2,0,48.5,0,72.7,0
			c0,6.7,0,13.4,0,20.1c-24.3,0-48.5,0-72.8,0c-0.6,0-0.8,0.1-0.8,0.8c0,13.1,0,26.2,0,39.4c-6.7,0-13.4,0-20.1,0
			c0-13.1,0-26.2,0-39.3c0-0.7-0.2-0.9-0.9-0.9c-24.2,0-48.5,0-72.7,0c0-6.7,0-13.4,0-20.1c24.3,0,48.5,0,72.8,0
			c0.6,0,0.8-0.1,0.8-0.8C40,26.1,40,12.9,40-0.2z"/>
		<path class="st8" d="M40-0.2c0,13.1,0,26.2,0,39.4c0,0.6-0.2,0.8-0.8,0.8c-24.3,0-48.5,0-72.8,0c0-2.2,0-4.5,0-6.7c12,0,24,0,36,0
			c0,0,0-0.1,0-0.1c-12-7.2-24-14.4-36-21.6c0-1.3,0-2.6,0-3.9c14.1,8.4,28.1,16.9,42.2,25.3c0.4,0.2,0.8,0.3,1.2,0.3
			c3.8,0,7.6,0,11.4,0c0.2,0,0.4,0,0.9,0c-0.4-0.3-0.6-0.4-0.9-0.5C3.2,21.9-14.8,11.1-32.8,0.3c-0.2-0.1-0.5-0.2-0.6-0.4
			c6.5,0,13,0,19.5,0c0,0.2,0.2,0.2,0.4,0.3C1.9,9.4,17.4,18.7,32.8,28c0.1,0.1,0.2,0.2,0.4,0.1c0-9.4,0-18.8,0-28.3
			C35.5-0.2,37.7-0.2,40-0.2z"/>
		<path class="st8" d="M60,100.2c0-13.1,0-26.2,0-39.4c0-0.6,0.2-0.8,0.8-0.8c24.3,0,48.5,0,72.8,0c0,2.2,0,4.5,0,6.7
			c-12,0-24,0-36,0c0,0,0,0.1,0,0.1c12,7.2,24,14.4,36,21.6c0,1.3,0,2.6,0,3.9c-14.1-8.5-28.2-16.9-42.2-25.4
			c-0.3-0.2-0.7-0.3-1-0.3c-3.9,0-7.7,0-11.6,0c-0.2,0-0.4-0.1-0.6,0.1c0.2,0.1,0.4,0.3,0.6,0.4c18.1,10.8,36.1,21.7,54.2,32.5
			c0.2,0.1,0.5,0.2,0.6,0.4c-6.5,0-13,0-19.5,0c-0.1-0.2-0.3-0.3-0.5-0.4c-15.4-9.3-30.8-18.5-46.2-27.7c-0.2-0.1-0.3-0.2-0.6-0.3
			c0,9.5,0,19,0,28.4C64.5,100.2,62.3,100.2,60,100.2z"/>
		<path class="st8" d="M133.6,40c-24.2,0-48.5,0-72.7,0c-0.7,0-0.9-0.2-0.9-0.9c0-13.1,0-26.2,0-39.3c2.2,0,4.5,0,6.7,0
			c0,9.4,0,18.9,0,28.4c0.2-0.1,0.4-0.2,0.6-0.3c15.4-9.2,30.8-18.5,46.2-27.7c0.2-0.1,0.4-0.1,0.5-0.4c2.2,0,4.4,0,6.5,0
			c-0.2,0.1-0.3,0.3-0.5,0.4C105.1,9.1,90.2,18.1,75.3,27c-2.7,1.6-5.5,3.3-8.2,4.9c-0.5,0.3-0.4,0.7-0.4,1.1c0,0.4,0.5,0.2,0.7,0.2
			c3.3,0,6.5,0,9.8,0c0.4,0,0.8-0.1,1.2-0.3C96.6,22,114.7,11.1,132.9,0.2c0.2-0.1,0.4-0.2,0.5-0.4c0.3,0.1,0.1,0.4,0.1,0.6
			c0,3.7,0,7.4,0,11.2c-12,7.2-24,14.4-36,21.6c0,0,0,0.1,0,0.1c12,0,24,0,36,0C133.6,35.5,133.6,37.7,133.6,40z"/>
		<path class="st8" d="M-33.6,60c24.2,0,48.5,0,72.7,0c0.7,0,0.9,0.2,0.9,0.9c0,13.1,0,26.2,0,39.3c-2.2,0-4.5,0-6.7,0
			c0-9.4,0-18.9,0-28.4c-0.3,0.2-0.4,0.3-0.6,0.4C17.3,81.3,1.9,90.6-13.5,99.8c-0.2,0.1-0.4,0.1-0.5,0.4c-2.2,0-4.4,0-6.5,0
			c0.2-0.1,0.4-0.3,0.6-0.4c15.2-9.1,30.3-18.2,45.5-27.3c2.4-1.5,4.8-2.9,7.3-4.4c0.5-0.3,0.4-0.7,0.4-1.1c0-0.4-0.5-0.2-0.7-0.2
			c-3.2,0-6.5,0-9.7,0c-0.5,0-0.9,0.1-1.3,0.4C3.4,78-14.8,88.9-32.9,99.8c-0.2,0.1-0.4,0.2-0.5,0.4c-0.3-0.1-0.1-0.4-0.1-0.6
			c0-3.7,0-7.4,0-11.2c12-7.2,24-14.4,36-21.6c0,0,0-0.1-0.1-0.1c-12,0-24,0-36,0C-33.6,64.5-33.6,62.3-33.6,60z"/>
		<path class="st9" d="M113.9-0.2c-0.1,0.2-0.3,0.3-0.5,0.4C98.1,9.4,82.7,18.7,67.3,27.9c-0.2,0.1-0.3,0.2-0.6,0.3
			c0-9.5,0-19,0-28.4C82.5-0.2,98.2-0.2,113.9-0.2z"/>
		<path class="st9" d="M66.7,100.2c0-9.4,0-18.9,0-28.4c0.2,0.1,0.4,0.2,0.6,0.3c15.4,9.2,30.8,18.5,46.2,27.7
			c0.2,0.1,0.4,0.1,0.5,0.4C98.2,100.2,82.5,100.2,66.7,100.2z"/>
		<path class="st9" d="M33.3-0.2c0,9.4,0,18.9,0,28.3c-0.2,0.1-0.3,0-0.4-0.1C17.4,18.7,1.9,9.4-13.6,0.1C-13.7,0-13.9,0-13.9-0.2
			C1.8-0.2,17.5-0.2,33.3-0.2z"/>
		<path class="st9" d="M-13.9,100.2c0.1-0.2,0.3-0.3,0.5-0.4c15.4-9.2,30.7-18.5,46.1-27.7c0.2-0.1,0.3-0.2,0.6-0.4
			c0,9.5,0,19,0,28.4C17.5,100.2,1.8,100.2-13.9,100.2z"/>
		<path class="st7" d="M-33.4,100.2c0.1-0.2,0.3-0.3,0.5-0.4C-14.8,88.9,3.4,78,21.5,67.1c0.4-0.2,0.8-0.4,1.3-0.4
			c3.2,0,6.5,0,9.7,0c0.2,0,0.6-0.2,0.7,0.2c0,0.4,0.2,0.8-0.4,1.1c-2.4,1.4-4.9,2.9-7.3,4.4C10.5,81.5-4.7,90.6-19.9,99.8
			c-0.2,0.1-0.4,0.3-0.6,0.4C-24.8,100.2-29.1,100.2-33.4,100.2z"/>
		<path class="st7" d="M133.4-0.2c-0.1,0.2-0.3,0.3-0.5,0.4C114.7,11.1,96.6,22,78.4,33c-0.4,0.2-0.7,0.3-1.2,0.3
			c-3.3,0-6.5,0-9.8,0c-0.2,0-0.6,0.2-0.7-0.2c0-0.4-0.2-0.8,0.4-1.1c2.8-1.6,5.5-3.3,8.2-4.9C90.2,18.1,105.1,9.1,120,0.2
			c0.2-0.1,0.3-0.2,0.5-0.4C124.8-0.2,129.1-0.2,133.4-0.2z"/>
		<path class="st9" d="M-33.6,11.5c12,7.2,24,14.4,36,21.6c0,0,0,0.1,0,0.1c-12,0-24,0-36,0C-33.6,26-33.6,18.8-33.6,11.5z"/>
		<path class="st9" d="M-33.6,66.7c12,0,24,0,36,0c0,0,0,0.1,0.1,0.1c-12,7.2-24,14.4-36,21.6C-33.6,81.2-33.6,74-33.6,66.7z"/>
		<path class="st9" d="M133.6,33.3c-12,0-24,0-36,0c0,0,0-0.1,0-0.1c12-7.2,24-14.4,36-21.6C133.6,18.8,133.6,26,133.6,33.3z"/>
		<path class="st9" d="M133.6,88.5c-12-7.2-24-14.4-36-21.6c0,0,0-0.1,0-0.1c12,0,24,0,36,0C133.6,74,133.6,81.2,133.6,88.5z"/>
		<path class="st7" d="M133.4,100.2c-0.1-0.2-0.4-0.3-0.6-0.4c-18.1-10.8-36.1-21.7-54.2-32.5c-0.2-0.1-0.4-0.2-0.6-0.4
			c0.2-0.2,0.4-0.1,0.6-0.1c3.9,0,7.7,0,11.6,0c0.4,0,0.7,0.1,1,0.3c14.1,8.5,28.2,16.9,42.2,25.4c0,2.4,0,4.9,0,7.3
			C133.6,99.8,133.8,100.1,133.4,100.2z"/>
		<path class="st7" d="M-33.4-0.2c0.1,0.2,0.4,0.3,0.6,0.4c18,10.8,36.1,21.7,54.1,32.5c0.2,0.1,0.5,0.3,0.9,0.5c-0.4,0-0.6,0-0.9,0
			c-3.8,0-7.6,0-11.4,0c-0.5,0-0.8-0.1-1.2-0.3c-14-8.4-28.1-16.9-42.2-25.3c0-2.4,0-4.9,0-7.3C-33.6,0.2-33.8-0.1-33.4-0.2z"/>
	</g>
</g>
</svg>
