<?xml version="1.0" encoding="utf-8"?>
<!-- Generator: Adobe Illustrator 24.1.3, SVG Export Plug-In . SVG Version: 6.00 Build 0)  -->
<svg version="1.1" id="Layer_1" xmlns="http://www.w3.org/2000/svg" xmlns:xlink="http://www.w3.org/1999/xlink" x="0px" y="0px"
	 viewBox="0 0 400 400" style="enable-background:new 0 0 400 400;" xml:space="preserve">
<style type="text/css">
	.st0{display:none;}
	.st1{display:inline;fill:#222222;}
	.st2{fill:#E5E5E5;}
	.st3{fill:#222222;}
</style>
<g class="st0">
	<path class="st1" d="M354,205.7c-0.1,1.6-0.2,3.1-0.3,4.7c-0.8,13.6-3.2,26.9-7.6,39.7c-14.4,42-41.6,72.7-81.7,91.9
		c-12.9,6.2-26.6,10.1-40.7,12.2c-10,1.5-20,2-30,1.4c-31.8-1.8-60.3-12.4-85.3-32c-27.7-21.8-45.8-49.9-54.7-84
		c-2.5-9.6-3.9-19.3-4.5-29.2c-0.6-9.2-0.3-18.4,0.8-27.6c3.4-28.5,13.7-54.3,31.3-77.1c20-25.8,45.6-43.6,76.9-53.2
		c10.3-3.1,20.9-5.1,31.6-5.9c46.3-3.5,91.2,14.1,122.7,48.2c18.8,20.4,31.3,44.1,37.6,71.1c2.2,9.6,3.5,19.3,3.8,29.1
		c0,0.4,0.1,0.8,0.1,1.2C354,199.4,354,202.6,354,205.7z M350.6,199.7c-0.2-3.4-0.4-8.2-0.8-12.9c-0.7-9.1-2.4-18-4.8-26.8
		c-12.1-43.7-42.8-78.9-81.9-96.9c-17.5-8-35.9-12.5-55.1-13.3c-13.4-0.6-26.7,0.5-39.8,3.6c-31.2,7.4-57.4,23.2-78.4,47.4
		c-23.9,27.5-36.1,59.7-37.3,96.1c-0.5,14.9,1.2,29.7,5.2,44.1c8.4,30.8,24.8,56.6,49.3,77c25.6,21.3,55.1,32.7,88.4,34.2
		c13.9,0.6,27.5-0.7,41-4c31.1-7.7,57.1-23.8,77.9-48.2C338.3,271.5,350.1,238.3,350.6,199.7z"/>
	<path class="st1" d="M46,100.5c0.7-1,1.5-2,2.2-2.9c1.8-2.5,3.5-5.2,5.6-7.5c2.1-2.5,5.7-2.8,8.2-0.5c1.6,1.5,2,3.2,1.6,5.2
		c0.9-0.3,1.8-0.5,2.7-0.8c1.5-0.5,2.9,0.2,4,1c1.3,0.9,2.2,2.1,2.5,3.8c0.3,1.7-0.2,3.2-1.1,4.5c-2.3,3.4-4.7,6.7-7.1,10
		c-0.3,0.4-0.5,0.3-0.8,0.1c-3-2.2-6-4.4-9.1-6.5c-2.8-2-5.6-4.1-8.5-6.1c-0.1-0.1-0.2,0-0.3-0.1C46,100.7,46,100.6,46,100.5z
		 M63.8,107.5c0.5-0.6,0.9-1.2,1.3-1.7c0.9-1.4,1.9-2.7,2.8-4.1c0.6-1.1,0.3-2.5-0.7-3.1c-1.1-0.7-2.3-1.1-3.4,0.2
		c-1.5,1.8-2.8,3.7-4.3,5.6C61,105.4,62.4,106.5,63.8,107.5z M56.2,101.9c0.1-0.1,0.3-0.2,0.4-0.4c1-1.4,2.1-2.8,3.1-4.3
		c0.4-0.6,0.7-1.3,0.7-2c-0.1-1-0.7-1.8-1.7-2.2c-0.9-0.3-2,0-2.7,0.9c-1.2,1.5-2.3,3.1-3.4,4.7c-0.2,0.3-0.2,0.6,0.1,0.8
		C53.8,100.3,55,101.1,56.2,101.9z"/>
	<path class="st1" d="M195.3,15.9c1,0.2,2,0.4,2.9,0.7c4.2,1.4,6.7,4.4,7.5,8.8c0.6,3.1,0.1,6.1-1.6,8.8c-1.8,2.8-4.4,4.3-7.6,4.8
		c-3.4,0.6-6.6,0.1-9.4-2c-2.5-1.8-3.9-4.3-4.4-7.3c-0.4-2.4-0.2-4.8,0.8-7.1c1.2-2.7,3.1-4.6,5.8-5.7c1.2-0.5,2.5-0.6,3.8-0.9
		c0.1,0,0.2-0.1,0.2-0.2C193.9,15.9,194.6,15.9,195.3,15.9z M201.1,27.5c0-0.3-0.1-0.8-0.2-1.3c-0.5-4.2-4.5-6.9-8.9-5.6
		c-2.7,0.8-4.1,2.9-4.5,5.7c-0.4,3.1,0.3,5.6,2.8,7.6c1.9,1.5,5.4,1.6,7.4,0.3C200,32.7,201,30.4,201.1,27.5z"/>
	<path class="st1" d="M199.8,384.1c-1.1-0.5-2.1-0.9-3.2-1.4c-0.1,0-0.2-0.1-0.3-0.2c-0.8-0.7-0.8-0.7-0.1-1.5
		c0.1-0.1,0.2-0.3,0.3-0.4c0.7,0.5,1.4,1.1,2.2,1.4c1.4,0.6,2.9,0.9,4.4,0.1c0.8-0.4,1.3-1,1.3-2c0-0.9-0.6-1.5-1.3-1.8
		c-1.4-0.6-2.8-1-4.2-1.5c-1.3-0.5-2.4-1.2-2.6-2.7c-0.3-2,0.6-3.4,2.5-4.1c2.4-0.9,5.7-0.3,7.3,1.7c-0.4,0.4-0.7,0.7-1.1,1.2
		c-0.9-1.1-2.1-1.5-3.5-1.7c-1-0.2-1.9,0-2.7,0.6c-1,0.8-1.3,2.2,0.2,3.1c0.8,0.5,1.8,0.7,2.7,1c0.7,0.2,1.4,0.4,2,0.7
		c2,0.8,2.7,2.5,2.5,3.8c-0.3,1.9-1,2.9-3.3,3.6c-0.1,0-0.3,0.1-0.4,0.2C201.6,384.1,200.7,384.1,199.8,384.1z"/>
	<path class="st1" d="M339.4,100.3c3.8-3,7.4-5.8,11.1-8.7c1,1.3,2,2.5,2.9,3.8c-5.9,4.6-11.7,9.2-17.7,13.8
		c-0.4-0.4-0.8-0.9-1.1-1.3c-0.3-0.4-0.7-0.9-1-1.3c-0.5-0.6-0.8-1.1-0.5-2c1.6-5.4,3.1-10.8,4.6-16.2c0,0,0-0.1-0.1-0.2
		c-3.8,3-7.6,6-11.4,8.9c-1-1.3-2-2.5-2.9-3.7c5.9-4.6,11.8-9.2,17.7-13.9c0.9,1.2,1.8,2.3,2.7,3.5c0.2,0.2,0.3,0.6,0.2,0.8
		c-1.4,5.3-2.9,10.5-4.4,15.7C339.5,99.7,339.5,99.9,339.4,100.3z"/>
	<path class="st1" d="M178.7,40.1c-1.4,0.3-2.7,0.4-4,0.9c-1.6,0.6-2.1-0.6-2.8-1.4c-1.2-1.4-2.5-2.7-3.5-4.2
		c-0.8-1.3-1.8-1.1-2.9-0.8c-0.5,0.1-1,0.2-1.6,0.4c0.5,2.6,1.1,5.2,1.6,7.8c-1.4,0.3-2.8,0.6-4.2,0.9c-0.2,0-0.5-0.3-0.6-0.5
		c-0.9-4.6-1.8-9.1-2.7-13.7c-0.5-2.4-1-4.8-1.5-7.2c0-0.2,0-0.3,0-0.6c2.7-0.5,5.3-1.1,8-1.6c1.2-0.2,2.3-0.6,3.5-0.6
		c2.3-0.1,4.4,0.5,6,2.4c1.7,2,2.5,5.8,1,8.2c-0.6,0.9-1.4,1.7-2.3,2.4c-0.5,0.4-0.5,0.6-0.1,1c1.3,1.4,2.6,2.8,3.9,4.3
		C177.1,38.4,177.8,39.2,178.7,40.1z M161.9,24.8c0.4,2,0.8,4,1.2,6c0.5-0.1,1.1-0.2,1.6-0.3c1.5-0.4,3.1-0.7,4.5-1.2
		c1.5-0.5,2-2.1,1.4-3.7c-0.4-1.2-2.2-2.1-3.5-1.8C165.4,24.1,163.7,24.4,161.9,24.8z"/>
	<path class="st1" d="M319,85c-6.4,0.1-12.3-5.8-12.1-12.1c0.2-6.2,5.4-11.7,11.8-11.6c6.4,0.1,11.9,5.5,12,11.9
		C330.7,79.5,325.2,84.9,319,85z M311.6,73.8c-0.3,3.5,3.3,6.8,6.8,6.7c3.3-0.1,6.6-3,7.4-6.5c1-4.2-2.8-8.8-7.8-8
		C314.8,66.5,311.4,70.1,311.6,73.8z"/>
	<path class="st1" d="M240.4,29.6c3.5,0.9,7,1.7,10.6,2.6c-0.3,1.2-0.6,2.4-0.9,3.6c-0.1,0.5-0.5,0.4-0.8,0.3
		c-3.3-0.8-6.6-1.6-9.9-2.4c-0.4,1.7-0.8,3.3-1.2,5c3.4,0.8,6.7,1.6,10.1,2.4c0.5,0.1,0.7,0.2,0.5,0.8c-0.3,1.1-0.5,2.2-0.8,3.4
		c-1.4-0.3-2.7-0.6-4.1-1c-3.6-0.9-7.2-1.8-10.8-2.6c-0.4-0.1-0.5-0.2-0.4-0.7c0.9-3.6,1.8-7.3,2.7-10.9c0.8-3.5,1.7-7,2.5-10.4
		c5,1.2,9.9,2.4,14.9,3.6c0.5,0.1,0.6,0.3,0.5,0.8c-0.3,1-0.5,1.9-0.7,2.9c-0.1,0.5-0.2,0.6-0.7,0.4c-3.2-0.8-6.4-1.5-9.6-2.3
		c-0.6-0.2-0.8,0-0.9,0.6C241.1,27,240.7,28.3,240.4,29.6z"/>
	<path class="st1" d="M79,88.2c2.7-2.8,5.3-5.5,8-8.4c0.9,1.1,1.7,2.1,2.7,3.2c-3.4,3.6-7,7.4-10.7,11.3c-0.1-0.1-0.2-0.1-0.3-0.2
		c-1.7-1.6-3.4-3.3-5.1-4.9c-2.6-2.5-5.1-4.9-7.7-7.4c-1.1-1-2.1-2-3.3-3c3.7-3.9,7.3-7.7,11-11.5c1,0.9,2.1,1.9,3.1,2.8
		c-2.6,2.7-5.1,5.4-7.4,7.7c1,1.3,2,2.5,3,3.7c2.7-2.8,5.1-5.4,7.6-7.9c1,0.9,2,1.9,3.1,2.8c-2.5,2.7-5,5.3-7.5,7.9
		C76.7,85.7,77.8,86.9,79,88.2z"/>
	<path class="st1" d="M90.8,73.3c2.1,0.2,4.1-0.2,5.9-1.3c1-0.6,1.9-1.5,2.7-2.4c0.6-0.6,0.8-1.5,0.5-2.4c-0.4-0.9-1.2-1.4-2.2-1.1
		c-1.2,0.4-2.3,0.9-3.5,1.3c-1.7,0.6-3.4,1.4-5.2,1.9c-3.4,0.8-6.2-1.7-6.9-4.6c-0.6-2.7,0.4-4.9,2.2-6.9c1.8-1.9,3.9-3.2,6.4-3.9
		c1.2-0.3,2.4-0.4,3.8-0.6c0,1.6,0,3.1,0,4.5c-2.9,0.1-5.5,0.9-7.5,3.3c-1.1,1.3-0.6,3.1,0.8,3.3c0.6,0.1,1.3-0.2,1.9-0.4
		c1.8-0.7,3.5-1.5,5.3-2.2c2-0.8,4-1.1,6-0.1c2.4,1.3,4.2,4.7,3.3,7.7c-0.8,2.3-2.3,4-4.2,5.5c-1.6,1.3-3.5,2.3-5.5,2.7
		c-1.1,0.2-2.2,0.2-3.3,0.3c-0.2,0-0.5-0.2-0.5-0.4C90.8,76,90.8,74.6,90.8,73.3z"/>
	<path class="st1" d="M131.8,29.6c2.9-1,5.7-2,8.5-3c1.6-0.6,3.1-1.2,4.8-1c2,0.2,3.7,1,5,2.6c1.1,1.5,1.7,3.1,1.6,4.9
		c-0.1,2.7-1.3,4.7-3.7,5.9c-2.2,1.1-4.5,1.8-6.9,2.7c0.9,2.4,1.7,4.9,2.6,7.5c-1.5,0.5-3,1.1-4.5,1.6
		C136.8,43.8,134.3,36.7,131.8,29.6z M139.8,37.8c1.9-0.7,3.8-1.4,5.6-2.2c1.3-0.6,1.9-2.3,1.3-3.7c-0.5-1.2-1.6-2.2-3.2-1.8
		c-1.8,0.5-3.6,1.1-5.4,1.7c-0.1,0-0.3,0.3-0.2,0.4C138.4,34.1,139.1,35.9,139.8,37.8z"/>
	<path class="st1" d="M278.7,38.4c-1.5,0.1-3,0.2-4.4,0.4c-0.6-2.7-2-4.6-4.7-5.3c-2.2-0.6-4.1-0.2-5.9,1.2c-2.6,2-3.8,5.6-2.7,8.7
		c1.2,3.5,5.2,5.6,8.8,4c0.5-0.2,0.9-0.6,1.4-0.9c1,1.1,2,2.2,3,3.3c-3.8,3.1-8.6,3.5-13.5,0.1c-4.4-3.1-6-8-4.2-13.3
		c0.9-2.5,2.4-4.6,4.7-6c1.9-1.2,4-1.9,6.2-1.7C274.5,29.4,277.9,33.2,278.7,38.4z"/>
	<path class="st1" d="M218.6,21.2c-2.2-0.2-4.3-0.5-6.5-0.7c0.1-1.3,0.3-2.7,0.4-4.2c5.9,0.6,11.8,1.3,17.8,1.9
		c-0.1,0.8-0.1,1.6-0.2,2.4c0,0.3-0.1,0.7-0.1,1c0.1,0.8-0.3,0.9-0.9,0.8c-1.7-0.2-3.5-0.5-5.2-0.6c-0.2,0-0.6,0.4-0.6,0.6
		c-0.2,1.2-0.2,2.4-0.4,3.6c-0.2,1.9-0.4,3.8-0.6,5.7c-0.1,1.3-0.2,2.5-0.4,3.8c-0.2,1.5-0.3,3-0.5,4.4c-1.6-0.2-3.1-0.3-4.8-0.5
		C217.3,33.3,218,27.3,218.6,21.2z"/>
	<path class="st1" d="M114,38c0.7,1.2,1.4,2.4,2.1,3.6c-1.7,1-3.3,2-4.9,3c-0.5,0.3-0.6,0.4-0.3,1c3,5,6,10,9.1,15.1
		c-1.3,0.8-2.7,1.6-4.1,2.5c-1.2-2-2.3-3.9-3.5-5.8c-1.9-3.1-3.7-6.2-5.6-9.3c-0.2-0.4-0.5-0.5-0.9-0.3c-1.7,1-3.4,2.1-5,3.1
		c-0.7-1.2-1.5-2.4-2.2-3.6C103.7,44.2,108.8,41.1,114,38z"/>
	<path class="st1" d="M284.9,61.7c-1.4-0.8-2.8-1.6-4.1-2.4c3.1-5.3,6.1-10.5,9.2-15.8c-1.9-1.1-3.8-2.2-5.7-3.3
		c0.7-1.2,1.4-2.4,2.1-3.6c5.2,3,10.3,6,15.5,9c-0.7,1.2-1.4,2.4-2.1,3.6c-1.9-1.1-3.7-2.1-5.7-3.3C291,51.2,288,56.5,284.9,61.7z"
		/>
	<path class="st1" d="M307.5,49.7c1.3,0.9,2.6,1.9,3.9,2.8c-2.9,4.1-5.8,8.1-8.7,12.2c-1.3,1.8-2.6,3.7-4,5.5
		c-0.3,0.4-0.6,0.5-1.1,0.1c-0.9-0.7-1.8-1.4-2.7-2c-0.4-0.3-0.4-0.5-0.1-0.9c1.3-1.8,2.6-3.6,3.9-5.4c2-2.7,3.9-5.5,5.9-8.2
		C305.5,52.4,306.5,51.1,307.5,49.7z"/>
	<path class="st1" d="M214.4,369.4c2.3-0.2,4.5-0.5,6.8-0.6c1.8-0.1,3.1,0.8,3.5,2.5c0.4,1.3,0.1,3.2-1.7,3.9c0,0,0,0.1-0.1,0.2
		c1.4,0.3,2.4,1.2,2.8,2.6c0.5,2.4-0.4,4-2.7,4.5c-2.2,0.5-4.5,0.6-6.7,0.9c-0.2,0-0.5-0.4-0.6-0.6c-0.3-2.3-0.5-4.6-0.7-7
		c-0.2-1.8-0.4-3.6-0.7-5.4C214.4,370.1,214.4,369.8,214.4,369.4z M217.4,381.6c1.5-0.1,2.8-0.3,4.2-0.4c1.4-0.2,2.5-0.9,2.4-2.7
		c-0.1-1.3-1.2-2.3-2.5-2.2c-1.5,0.1-3.1,0.3-4.7,0.5C217,378.5,217.2,380,217.4,381.6z M216.2,370.8c0.2,1.6,0.4,3,0.5,4.5
		c1.5-0.2,2.9-0.3,4.3-0.5c1.2-0.1,2.2-1.2,2.1-2.3c-0.1-1.4-1.3-2.4-2.6-2.3C219.1,370.4,217.7,370.6,216.2,370.8z"/>
	<path class="st1" d="M180.4,374.1c0,2.9-1,5.1-3.2,6.6c-4,2.8-10.3,0.2-10.7-5c-0.2-2.6,0.4-4.8,2.2-6.6c1.9-1.9,4.2-2.1,6.6-1.5
		C178.4,368.3,180.6,371,180.4,374.1z M173.5,368.8c-1.3-0.1-2.5,0.4-3.3,1.2c-1.7,1.8-2.4,4-1.7,6.4c0.9,3.5,5,4.9,7.7,2.9
		c2.1-1.5,2.6-3.7,2.4-6.1C178.3,370.5,176,368.8,173.5,368.8z"/>
	<path class="st1" d="M250.7,377.1c-3,0.8-6,1.5-8.9,2.3c-1.1-4.3-2.2-8.7-3.3-13c-0.1-0.5,0-0.6,0.4-0.7c2.8-0.7,5.5-1.4,8.3-2.1
		c0.1,0.5,0.2,1,0.3,1.5c-2.4,0.6-4.8,1.2-7.2,1.9c0.4,1.3,0.7,2.6,1,3.9c0.1,0.4,0.3,0.5,0.7,0.4c2.2-0.6,4.3-1.1,6.5-1.7
		c0.1,0.5,0.3,1,0.4,1.5c-2.4,0.6-4.7,1.2-7.1,1.8c0.4,1.6,0.8,3.1,1.2,4.7c2.4-0.6,4.7-1.2,7.2-1.8
		C250.4,376.1,250.5,376.5,250.7,377.1z"/>
	<path class="st1" d="M182.3,381c0.3-0.4,0.7-0.8,1-1.3c1.4,1.9,4.1,2.8,6.1,2.2c0.8-0.3,1.5-0.8,1.7-1.7c0.2-1-0.1-1.8-1.1-2.2
		c-1.2-0.5-2.4-1-3.6-1.6c-0.7-0.4-1.5-0.8-2.1-1.3c-1.7-1.4-1.1-4.2,0.8-5.3c2.3-1.4,6.4-0.6,8.1,1.6c-0.4,0.4-0.7,0.7-1.1,1.1
		c-1.3-1.6-3.1-2.1-5.1-1.8c-1,0.1-1.8,0.9-1.9,1.8c-0.1,0.8,0.6,1.6,1.6,2.1c1.5,0.6,3,1.2,4.5,2c1.4,0.7,1.8,2,1.7,3.5
		c-0.2,1.3-0.9,2.4-2.1,3C188.2,384.3,184,383.4,182.3,381z"/>
	<path class="st1" d="M156.5,363.6c2.1,0.6,4,1,5.8,1.6c1.9,0.6,3.2,2.3,3,4c-0.4,2.7-1.5,4-4,4.2c-1.1,0.1-2.3-0.4-3.5-0.7
		c-1.8-0.4-1.8-0.5-2.3,1.2c-0.4,1.2-0.6,2.5-1,3.7c-0.5-0.1-1.1-0.2-1.7-0.4C154.1,372.7,155.3,368.2,156.5,363.6z M156.4,370.7
		c1.3,0.3,2.5,0.5,3.6,0.9c1.4,0.4,2.8-0.3,3.3-1.7c0.5-1.5-0.2-3-1.8-3.4c-1.2-0.4-2.4-0.6-3.8-1
		C157.3,367.2,156.9,368.9,156.4,370.7z"/>
	<path class="st1" d="M231.6,379.7c1.5-0.3,2.9-0.5,4.4-0.8c0.3-0.1,0.7-0.1,1-0.2c1.1-0.3,1.4,0,1.3,1c0,0.1-0.2,0.3-0.4,0.4
		c-2.5,0.5-5,0.9-7.5,1.4c-0.1,0-0.2,0-0.3,0c-0.8-4.5-1.7-9.1-2.5-13.7c0.6-0.1,1.1-0.2,1.7-0.3
		C230.1,371.5,230.8,375.6,231.6,379.7z"/>
	<path class="st1" d="M209.1,369.6c0.6,0,1.1,0,1.7,0c0.1,1,0.2,2,0.2,3c0.1,1.8,0.1,3.5,0.2,5.3c0.1,1.7,0.2,3.3,0.3,5
		c0,0.2,0,0.4,0,0.6c-0.6,0-1,0-1.7,0C209.5,378.9,209.3,374.3,209.1,369.6z"/>
	<path class="st1" d="M133.1,123.9c5.5,4.4,11.4,7.5,17.8,9.8c7.3,2.6,14.8,3.6,22.6,2.7c10.2-1.3,19.1-5.4,27.2-11.7
		c0.2-0.1,0.4-0.3,0.5-0.4c0.3-0.4,0.5-0.3,0.9,0c4.6,3.9,9.8,6.8,15.3,9c3.5,1.4,7.1,2.4,10.8,3s7.5,0.7,11.2,0.3
		c10.3-1,19.5-4.7,28-10.6c0.9-0.6,1.7-1.3,2.7-2c0,0.4,0.1,0.6,0.1,0.9c0,31.9,0,63.8-0.1,95.7c0,4.7-0.6,9.3-1.5,13.9
		c-2.2,11.3-7.6,20.9-15,29.6c-9.9,11.6-21.9,20.5-35.8,26.9c-5,2.3-10.2,4.3-15.6,5.7c-0.4,0.1-1,0.1-1.4,0c-5-1.3-9.8-3-14.4-5.1
		c-14.3-6.4-26.7-15.5-36.9-27.5c-5.4-6.3-9.8-13.2-12.6-21.1c-1.4-3.9-2.3-7.9-2.9-11.9c-1-6.8-1-13.7-1-20.6c0-28.5,0-57,0-85.4
		C133,124.7,133.1,124.4,133.1,123.9z"/>
</g>
<circle class="st2" cx="200" cy="201.2" r="158.5"/>
<g>
	<path class="st3" d="M200.6,7.2c0.2,0.1,0.5,0.2,0.7,0.2c3.4,0.1,6.8,0.1,10.1,0.2c1.1,0,2.3,0.2,3.4,0.2c0,1.4,0,2.8,0,4.3
		c-4-0.1-7.8-0.3-11.7-0.4c-0.1,1.7-0.2,3.3-0.3,5c3.9,0.1,7.7,0.3,11.4,0.4c0,1.4,0,2.8,0,4.4c-3.9-0.1-7.7-0.3-11.6-0.4
		c0,1.8,0,3.5,0,5.4c3.7,0.1,7.6,0.2,11.5,0.4c0,1.4,0,2.8,0,4.2c-1.6,0-3.1,0-4.7,0c-0.2,0-0.4-0.1-0.6-0.1
		c-3.3-0.1-6.6-0.1-9.9-0.2c-0.5,0-1-0.1-1.6-0.2c0.1-0.9,0.2-1.8,0.2-2.7c0.1-3.3,0.1-6.6,0.2-9.9c0-1.9,0.1-3.8,0.2-5.7
		c0.1-1.8,0.1-3.5,0.2-5.3C199,7.2,199.8,7.2,200.6,7.2z"/>
	<path class="st3" d="M201.9,392.8c-1.1-1.8-2.2-3.6-3.3-5.4c-0.2-0.3-0.6-0.6-1-0.6c-0.7-0.1-1.4,0-2.2,0c-0.1,1.9-0.2,3.8-0.3,5.8
		c-0.5,0-1,0-1.5,0c0-4.8,0-9.6,0-14.6c2.7,0.1,5.3-0.3,7.9,0.4c1.3,0.4,2.5,2.1,2.6,3.5c0.1,2.8-0.7,3.9-3.4,4.8
		c-0.1,0-0.2,0.1-0.3,0.3c1.3,2,2.5,3.9,3.8,5.9C203.3,392.8,202.6,392.8,201.9,392.8z M195.3,385.2c1.5,0,2.9,0,4.3,0
		c1.4,0,2.6-1.5,2.6-2.9c-0.1-1.3-1.3-2.6-2.5-2.6c-0.4,0-0.9-0.1-1.3-0.1c-1,0-2,0-3,0C195.3,381.5,195.3,383.3,195.3,385.2z"/>
	<path class="st3" d="M40,196c0.3-32.7,11.7-66.8,35.3-96.5c23-29,52.7-47.9,88.8-56.6c13-3.1,26.2-4.5,39.6-4.1
		c38.8,1.2,72.8,14.6,101.8,40.3c25.4,22.6,41.9,50.6,50,83.7c3.6,14.6,5,29.5,4.4,44.5c-1.3,32.7-11.2,62.5-30.3,89
		c-23.4,32.4-54.6,53.5-93.5,63c-14.5,3.5-29.3,4.8-44.2,3.9c-42.8-2.6-78.9-19.6-108.2-50.8c-20.5-21.8-33.6-47.6-40-76.9
		C41.2,224.1,40.1,212.7,40,196z M356.4,199.7c-0.2-3.5-0.4-8.5-0.8-13.4c-0.9-10.5-2.8-20.7-5.9-30.8c-9.8-32.7-28.1-59.6-55-80.6
		c-25.9-20.1-55.5-30.9-88.3-32.3c-15.2-0.7-30.2,0.8-45,4.7c-34.4,9.1-62.6,27.8-84.3,55.9c-20.8,26.8-31.7,57.3-33.2,91.2
		c-0.6,13.4,0.4,26.8,3.3,39.9c7.8,35.8,25.5,65.7,53.6,89.3c26.2,22,56.6,33.9,90.7,35.9c13.8,0.8,27.4-0.2,40.9-3.2
		c34.3-7.6,63-24.8,85.8-51.6C343.6,274.9,355.9,240.1,356.4,199.7z"/>
	<path class="st3" d="M223.9,8.5c1.4,0.2,2.7,0.5,4.1,0.7c0.6,0.1,1,0.3,1.3,0.9c1.5,3.2,3.2,6.4,4.8,9.6c0.9,1.7,1.7,3.5,2.6,5.2
		c0.1,0.2,0.3,0.5,0.5,0.9c0.9-5,1.8-9.8,2.6-14.6c1.7,0.3,3.3,0.6,4.9,0.9c-1.4,7.8-2.8,15.4-4.1,23.2c-0.9-0.1-1.8-0.3-2.6-0.4
		c-0.1,0-0.1-0.1-0.2-0.1c-1.8,0.2-2.3-1-2.9-2.3c-1.9-4-3.9-7.9-5.8-11.8c-0.5-1.1-1-2.1-1.6-3.4c-0.9,5.2-1.8,10.2-2.8,15.3
		c-1.3-0.2-2.5-0.4-3.6-0.7c-1.3-0.3-1.3-0.3-1-1.7c0.5-2.5,0.9-5,1.3-7.5c0.4-2,0.7-4,1.1-6.1C222.9,13.9,223.4,11.2,223.9,8.5z"/>
	<path class="st3" d="M167.1,9.9c1.7-0.2,3.3-0.4,4.9-0.6c0.4,3.1,0.7,6.2,1.1,9.2c3.7-0.4,7.3-0.8,11.1-1.3c-0.3-3-0.7-6.1-1-9.2
		c1.7-0.2,3.3-0.4,5-0.6c0.9,7.8,1.8,15.6,2.7,23.4c-1.7,0.2-3.2,0.4-5,0.6c-0.4-3.3-0.8-6.5-1.2-9.9c-2.8,0.3-5.5,0.7-8.1,1
		c-0.8,0.1-1.5,0.2-2.3,0.2c-0.6,0-0.7,0.3-0.7,0.8c0.3,2.7,0.7,5.5,1.1,8.2c0.1,0.9-0.1,1.1-1,1.1c-1.3,0.1-2.5,0.3-3.9,0.4
		C168.9,25.5,168,17.7,167.1,9.9z"/>
	<path class="st3" d="M102,57c0.3,1.2,0.5,2.4,0.8,3.6c0.1,0.5-0.1,0.7-0.5,1c-1.4,0.9-2.8,1.8-4.2,2.7c-0.7-3.2-1.3-6.5-2-9.7
		c-0.7-3.6-1.5-7.2-2.2-10.9c-0.3-1.2-0.5-2.5-0.8-3.7c0-0.2,0.1-0.5,0.3-0.6c1.5-1,3.1-2,4.7-3c0.2-0.1,0.5-0.1,0.6,0.1
		c3.7,2.7,7.4,5.5,11.1,8.2c2.9,2.2,5.9,4.3,8.9,6.5c-1.5,1-3,1.9-4.5,2.8c-0.2,0.1-0.6,0-0.9-0.2c-0.8-0.6-1.6-1.3-2.4-1.8
		c-0.2-0.1-0.6-0.2-0.7-0.1C107.5,53.5,104.8,55.2,102,57z M98.4,42c0.8,3.6,1.6,7.1,2.4,10.6c2.1-1.4,4.1-2.7,6.2-4
		C104.1,46.3,101.3,44.2,98.4,42z"/>
	<path class="st3" d="M127.8,21.2c1.6-0.7,3.1-1.4,4.7-2c1.9,4.3,3.8,8.6,5.6,12.9c1.2,2.9,1.6,5.8,0,8.6c-0.8,1.5-2,2.6-3.4,3.5
		c-2.3,1.4-4.8,2.5-7.5,2.5c-3.7,0.1-6.4-1.7-8-5c-1.8-3.7-3.3-7.6-5-11.4c-0.4-0.9-0.8-1.7-1.2-2.7c1.5-0.7,3.1-1.3,4.7-2
		c1.2,2.8,2.4,5.6,3.7,8.4c0.8,1.8,1.5,3.7,2.5,5.4c1.4,2.6,4,3,6.5,2c2.1-0.8,3.6-2.2,3.7-4.6c0.1-0.9-0.3-2-0.6-2.9
		c-0.8-2.1-1.8-4.2-2.6-6.2C129.8,25.7,128.8,23.5,127.8,21.2z"/>
	<path class="st3" d="M305.9,44.8c-1.3-0.1-2.6-0.2-3.9-0.2c-0.6,0-0.8-0.2-0.8-0.8c0-3.5-3.3-6-6.4-6.2c-3.8-0.2-7.3,3-8,6.9
		c-0.8,4.1,2.5,8.5,6.9,8.3c1.1,0,2.1-0.5,3.2-0.8c0.8,1.1,1.6,2.4,2.4,3.7c-3.8,2.5-8.8,2.5-13.3-1.4c-4.8-4.1-5.4-9.8-3.1-14.4
		c3.1-6.3,9-8,14.1-6.6C303.3,35.2,306.3,39.9,305.9,44.8z"/>
	<path class="st3" d="M263,22.5c-2.1,6.1-4.1,12.1-6.2,18.2c-1.6-0.5-3.1-1-4.7-1.6c2-6.1,4-12.1,6.1-18.2c-2.2-0.7-4.3-1.5-6.5-2.2
		c0.5-1.4,0.9-2.8,1.4-4.1c6,2,11.9,4,17.9,6c-0.5,1.4-0.9,2.8-1.4,4.2C267.3,23.9,265.2,23.2,263,22.5z"/>
	<path class="st3" d="M140.6,16.4c6.1-1.6,12.1-3.2,18.2-4.9c0.4,1.4,0.7,2.7,1.2,4.2c-2.2,0.6-4.4,1.2-6.6,1.8
		c0.7,2.8,1.5,5.5,2.2,8.2c0.9,3.3,1.7,6.5,2.6,9.8c0.1,0.4,0.1,0.6-0.3,0.7c-1.5,0.4-2.9,0.8-4.4,1.2c-1.6-6.1-3.3-12.3-5-18.5
		c-1.9,0.5-3.9,1-5.8,1.6c-0.6,0.2-0.9,0.3-1-0.6C141.4,18.7,141,17.7,140.6,16.4z"/>
	<path class="st3" d="M277.6,23.5c1.6,0.7,3.1,1.4,4.6,2c-3.2,7.1-6.4,14.3-9.7,21.5c-1.5-0.7-3-1.4-4.6-2
		C271.2,37.8,274.4,30.7,277.6,23.5z"/>
	<path class="st3" d="M131.1,379.7c-0.6-0.3-1.1-0.5-1.6-0.8c1.6-3.6,3.2-7.2,4.8-11c-0.3,0.2-0.4,0.2-0.4,0.3
		c-2.1,2-4.2,4.1-6.3,6.1c-0.8,0.8-1.6,1.5-2.5,2.3c-0.2,0.1-0.5,0.3-0.7,0.2c-0.2-0.1-0.4-0.4-0.4-0.7c0.1-2.8,0.2-5.5,0.3-8.2
		c0-1.3,0-2.6-0.1-4c-1.6,3.5-3.2,7.1-4.8,10.7c-0.5-0.2-1.1-0.4-1.6-0.7c2-4.5,4-9,6-13.5c0.8,0.3,1.5,0.7,2.3,1
		c0,3.9,0,7.9,0,11.9c0.1-0.1,0.2-0.2,0.3-0.2c1.8-1.7,3.5-3.4,5.3-5.1c0.9-0.9,1.8-1.7,2.7-2.5c0.1-0.1,0.5-0.2,0.6-0.1
		c0.7,0.2,1.3,0.5,2,0.8C135.1,370.7,133.1,375.2,131.1,379.7z"/>
	<path class="st3" d="M73.6,326.9c-3.7,2-7.2,3.9-10.7,5.8c-0.4-0.5-0.9-1-1.4-1.5c2.5-4.2,5-8.6,7.5-12.9c0.5,0.4,1,0.8,1.5,1.2
		c-2.2,3.6-4.3,7.1-6.4,10.7c0,0.1,0.1,0.1,0.1,0.2c3.6-2,7.2-3.9,10.9-5.9c0.3,0.4,0.6,0.7,1,1.2c-2.1,3.5-4.2,7.1-6.3,10.6
		c0,0,0,0.1,0.1,0.1c3.6-2,7.2-4,10.8-6c0.5,0.5,0.9,0.9,1.4,1.4c-4.4,2.4-8.9,4.8-13.5,7.2c-0.4-0.4-0.8-0.9-1.1-1.4
		c-0.1-0.1,0-0.5,0.1-0.7c1.9-3.2,3.8-6.4,5.7-9.5C73.4,327.4,73.4,327.3,73.6,326.9z"/>
	<path class="st3" d="M310.1,338.6c0.7-1.3,1.6-1.3,2.9-1c4,0.9,8,1.7,11.9,2.5c0.1,0,0.2,0.1,0.4,0c-2.5-2.8-5-5.6-7.5-8.5
		c0.4-0.4,0.9-0.8,1.3-1.2c3.2,3.6,6.4,7.2,9.7,10.9c-0.6,0.8-1.3,1.3-2.4,1c-4-1-8.1-1.8-12.2-2.7c-0.2-0.1-0.5-0.1-1-0.2
		c2.7,3,5.3,5.9,7.8,8.9c-0.4,0.4-0.9,0.8-1.3,1.2C316.6,345.9,313.4,342.2,310.1,338.6z"/>
	<path class="st3" d="M208.8,381.1c0.3,3.8,0.6,7.6,0.9,11.5c-0.6,0-1.1,0-1.8,0c-0.4-4.8-0.7-9.6-1.1-14.4c2.1-1,2.7,0.7,3.6,1.7
		c1.3,1.4,2.4,2.8,3.6,4.3c1.1,1.3,2.3,2.6,3.4,4c0.1,0.2,0.3,0.3,0.6,0.5c-0.3-3.8-0.6-7.5-0.8-11.2c0,0,0.1-0.1,0.1-0.1
		c1.8-0.4,1.7-0.4,1.8,1.5c0.2,2.8,0.5,5.6,0.7,8.5c0.1,1.5,0.2,2.9,0.2,4.4c-0.3,0.1-0.6,0.3-0.9,0.2c-0.4,0-0.9-0.1-1.1-0.4
		c-1.2-1.3-2.3-2.7-3.4-4.1c-1.6-1.9-3.1-3.7-4.7-5.5c-0.3-0.3-0.5-0.6-0.8-1C208.9,380.9,208.9,381,208.8,381.1z"/>
	<path class="st3" d="M301.2,363.1c-2.8-4.1-5.6-8.1-8.4-12.1c1.7-1.2,3.3-2.4,5-3.4c3.2-1.8,6.9-1.1,9.2,1.8c1,1.3,1.7,2.7,1.7,4.4
		c0.1,2.5-1,4.5-2.9,6C304.4,361,302.8,362,301.2,363.1z M301.7,360.7c0.7-0.5,1.5-0.9,2.2-1.4c2-1.4,3.5-3.2,2.9-5.9
		c-0.5-2.5-2.5-4.7-5-5.1c-2.8-0.4-4.6,1.5-6.6,2.9C297.5,354.5,299.6,357.6,301.7,360.7z"/>
	<path class="st3" d="M268.1,371.8c0.6,1.6,1.1,3,1.6,4.5c0.1,0.2,0.1,0.6,0,0.8c-2.2,4.8-8.6,6.2-12.4,2.3
		c-2.3-2.4-3.1-6.2-1.4-9.2c1.8-3.2,6.2-5,9.7-3.2c0.2,0.1,0.4,0.2,0.7,0.3c-0.3,0.5-0.7,0.9-1,1.4c-1.7-1-3.5-1.1-5.2-0.2
		c-1.7,0.8-2.8,2.2-3.1,4.2c-0.6,3.6,2.3,7.5,6,7.3c1.9-0.1,3.5-0.9,4.6-2.6c0.2-0.4,0.1-0.9,0.1-1.4c0-0.1-0.1-0.3-0.2-0.4
		c-0.8-1.8-0.7-1.7-2.5-1c-0.9,0.4-1.9,0.7-2.8,1.1c0,0-0.1-0.1-0.1-0.1c-0.1-0.5-0.4-1.1-0.2-1.4c0.2-0.3,0.9-0.4,1.3-0.6
		C264.9,373,266.5,372.4,268.1,371.8z"/>
	<path class="st3" d="M332,320.5c-0.2,0.7-0.3,1.2-0.4,1.8c-2.1-0.2-3.7,0.7-4.9,2.3c-1.6,2.2-1.5,4.8,0.3,6.9
		c1.5,1.9,4.3,3.1,6.8,2.2c2.2-0.8,3.3-2.5,3.7-4.7c0.1-0.4-0.2-0.9-0.5-1.2c-0.5-0.6-1.1-1.1-1.7-1.6c-1.2,1.3-2.3,2.5-3.5,3.7
		c-0.4-0.4-0.8-0.7-1.2-1.1c0.7-0.8,1.5-1.7,2.3-2.5c0.8-0.8,1.6-1.6,2.4-2.4c1,0.9,2,1.9,3,2.7c1,0.8,1,1.8,0.8,2.8
		c-0.7,3.5-2.9,5.7-6.4,6.4c-2.2,0.4-4.2-0.2-5.9-1.7c-1.9-1.6-3.1-3.7-3-6.2c0.1-3.3,2.9-6.6,6-7
		C330.6,320.7,331.2,320.6,332,320.5z"/>
	<path class="st3" d="M273.8,371.3c0.8,1.8,1.6,3.5,2.5,5.3c-0.5,0.3-1,0.5-1.6,0.8c-2.1-4.4-4.1-8.8-6.3-13.4
		c1-0.5,1.9-0.9,2.8-1.3c1.3-0.5,2.5-1.1,3.8-1.5c2-0.7,4.3,1,4.9,2.9c0.6,1.7,0.4,3.2-1.1,4.4c-0.2,0.2-0.4,0.4-0.7,0.7
		c2,1.3,4,2.5,5.9,3.6c-1.4,1.3-2.5,0.7-3.7-0.3c-1-0.8-2.2-1.5-3.4-2.1c-0.3-0.2-0.8-0.2-1.2-0.1
		C275.1,370.6,274.5,370.9,273.8,371.3z M273.1,369.8c1.2-0.6,2.3-1.1,3.4-1.6c0.5-0.2,0.9-0.6,1.2-0.9c0.8-0.9,0.8-2.2,0.1-3.4
		c-0.5-0.9-1.8-1.4-2.8-1c-1.5,0.5-2.9,1.2-4.4,1.8C271.5,366.5,272.3,368.1,273.1,369.8z"/>
	<path class="st3" d="M234.7,374.5c2.1-0.5,4.2-0.9,6.3-1.4c2.2-0.5,4.5,0.9,4.9,3.3c0.5,2.5-0.1,3.6-2.4,5c-0.1,0-0.1,0.1-0.2,0.2
		c1.7,1.6,3.4,3.2,5.1,4.7c-1.4,0.7-2,0.6-3-0.4c-1.2-1.2-2.5-2.4-3.8-3.6c-0.2-0.2-0.5-0.2-0.7-0.2c-0.8,0.2-1.6,0.4-2.4,0.6
		c0.5,1.9,0.9,3.8,1.3,5.7c-0.6,0.1-1.1,0.3-1.7,0.4C237,384.1,235.8,379.3,234.7,374.5z M236.8,375.6c0.4,1.9,0.8,3.6,1.2,5.3
		c0,0.1,0.4,0.3,0.6,0.3c1.3-0.3,2.6-0.6,3.9-1c1.3-0.4,2-1.7,1.7-3.2c-0.3-1.3-1.4-2.3-2.5-2.2C240.1,375,238.5,375.3,236.8,375.6z
		"/>
	<path class="st3" d="M148.4,377.4c0.7,1.7,1.4,3.2,2.2,4.9c0.9-0.9,1.7-1.8,2.5-2.8c0.3,0.3,0.7,0.6,1.2,1
		c-0.9,0.9-1.7,1.7-2.6,2.5c-0.4,0.3-0.5,0.6-0.2,1.1c0.5,0.9,1,1.8,1.7,2.9c-0.8-0.3-1.6-0.4-2.1-0.8c-0.5-0.4-0.8-1.1-1-1.5
		c-1.4,0.1-2.7,0.5-4,0.3c-2.2-0.2-3.9-1.6-4.2-4c-0.2-1.6,1.3-3.6,3.2-4.2c1.5-0.6,1.5-0.5,1.2-2.2c-0.3-1.9,1.1-4,3.1-4
		c1.4,0,2.6,0.3,3.5,1.4c1.1,1.4,0.3,3.9-1.6,4.6c-0.7,0.2-1.4,0.4-2.1,0.6C149,377.1,148.8,377.2,148.4,377.4z M146.8,377.6
		c-1.5,0.4-2.7,1.1-3,2.6c-0.3,1.4,0.2,2.5,1.4,3.1c1.2,0.7,2.9,0.6,4-0.3C148.4,381.2,147.6,379.4,146.8,377.6z M148.1,376.1
		c0.9-0.3,1.7-0.5,2.5-0.8c0.8-0.4,1.3-1.1,1.2-2c-0.1-0.8-0.7-1.4-1.6-1.5c-0.7-0.1-1.6,0.5-2,1.2
		C147.7,373.9,147.8,374.9,148.1,376.1z"/>
	<path class="st3" d="M115.3,355.7c0.5,0.3,0.9,0.5,1.4,0.7c0.5,0.2,0.6,0.5,0.5,1c-0.4,3.3-0.8,6.6-1.3,9.9
		c-0.2,1.7-0.5,3.4-0.8,5.2c0,0-0.1,0-0.1,0c-1.7-1-1.9-1.3-1.3-3.6c0.1-0.6,0.1-0.8-0.5-1.1c-1.7-0.9-3.4-1.9-5.1-2.9
		c-0.5-0.3-0.9-0.3-1.4,0.1c-0.2,0.2-0.4,0.4-0.6,0.6c-1.5,1.3-1.6,1.4-3.3,0.2C107.1,362.3,111.1,359,115.3,355.7z M114.2,366.3
		c0.4-2.8,0.8-5.6,1.2-8.5c-2.3,1.9-4.4,3.6-6.7,5.4C110.6,364.3,112.4,365.3,114.2,366.3z"/>
	<path class="st3" d="M286.3,371.8c-0.2-1.3-0.4-2.6-0.5-3.8c-0.3-2-0.6-4-0.9-5.9c-0.3-1.8-0.5-3.6-0.7-5.4c0-0.3,0.2-0.6,0.4-0.8
		c0.5-0.3,1-0.6,1.5-0.9c4.1,3.3,8.2,6.5,12.3,9.7c-0.8,1.1-1.6,1.2-2.6,0.4c-0.3-0.3-0.7-0.5-1-0.8c-0.5-0.5-1-0.6-1.7-0.1
		c-1.6,1-3.3,1.9-4.9,2.9c-0.2,0.1-0.5,0.5-0.5,0.8c0,0.6,0,1.3,0.2,1.9c0.3,0.8,0.1,1.3-0.7,1.6
		C286.9,371.4,286.7,371.6,286.3,371.8z M287.3,365.6c1.8-1,3.6-2.1,5.5-3.1c-2.2-1.8-4.4-3.5-6.7-5.4
		C286.5,360.1,286.9,362.8,287.3,365.6z"/>
	<path class="st3" d="M231.9,375.2c0.1,0.6,0.2,1,0.3,1.6c-2.5,0.4-5.1,0.8-7.7,1.2c0.2,1.5,0.4,3.1,0.7,4.7
		c2.5-0.4,5.1-0.8,7.6-1.2c0.1,0.5,0.1,1,0.2,1.6c-2.5,0.4-5,0.8-7.6,1.2c0.3,1.7,0.5,3.4,0.8,5.1c2.4-0.4,4.8-0.8,7.2-1.2
		c0.2,0,0.6,0.3,0.7,0.5c0.1,0.3,0.1,0.6,0.1,1.1c-3.1,0.5-6.3,1-9.5,1.5c-0.8-4.9-1.5-9.7-2.3-14.5
		C225.6,376.2,228.7,375.7,231.9,375.2z"/>
	<path class="st3" d="M178.2,376.6c0.7,0.1,1.2,0.2,1.8,0.3c-0.1,0.9-0.2,1.7-0.3,2.5c-0.2,2.4-0.4,4.7-0.5,7.1
		c-0.1,2.4,1.6,4,3.9,4c2.9,0,4.2-1.4,4.4-4.2c0.1-2.2,0.5-4.3,0.7-6.5c0.1-0.7,0.1-1.4,0.1-2.2c0.7,0.1,1.2,0.2,1.8,0.2
		c-0.1,0.4-0.2,0.8-0.2,1.2c-0.1,1.6-0.2,3.2-0.4,4.8c-0.2,1.9-0.2,3.9-1.1,5.8c-1,2.1-4,3-5.8,2.6c-1.2-0.3-2.4-0.5-3.4-1.3
		c-1.1-0.9-1.8-2-1.8-3.3c0-1.9,0.2-3.8,0.3-5.7C177.9,380.2,178.1,378.5,178.2,376.6z"/>
	<path class="st3" d="M175.7,376.4c-0.1,0.5-0.2,1-0.3,1.6c-1.5-0.3-3-0.5-4.6-0.8c-0.8,4.3-1.5,8.6-2.3,13
		c-0.3-0.1-0.4-0.1-0.5-0.1c-1.3-0.4-1.3-0.3-1-1.8c0.7-3.5,1.3-7,1.9-10.5c0-0.3,0-0.5,0.1-0.8c-1.5-0.3-3-0.5-4.5-0.8
		c0.1-0.5,0.2-1,0.3-1.6C168.4,375.2,172.1,375.8,175.7,376.4z"/>
	<path class="st3" d="M95.6,360.9c-2.4-1.7-4.7-3.3-7-5c0.7-1,1.4-2,2.1-3c1.8-2.6,3.7-5.2,5.5-7.8c0.9-1.3,0.9-1.3,2.4-0.3
		c-1.2,1.8-2.5,3.6-3.7,5.3c-1.3,1.8-2.6,3.6-3.9,5.4c1.9,1.3,3.7,2.7,5.6,4C96.2,360.1,95.9,360.5,95.6,360.9z"/>
	<path class="st3" d="M81.4,348.1c1.7,1.4,3.5,2.8,5.3,4.3c-0.3,0.4-0.6,0.8-1,1.3c-2.3-1.8-4.5-3.6-6.7-5.5
		c3.1-3.8,6.1-7.5,9.3-11.4c0.5,0.3,0.9,0.7,1.4,1.1C86.9,341.3,84.1,344.7,81.4,348.1z"/>
	<path class="st3" d="M83.9,332.9c0.5,0.4,0.9,0.8,1.4,1.1c-3.3,3.7-6.6,7.3-9.8,10.9c-0.5-0.4-0.9-0.8-1.4-1.1
		C77.4,340.2,80.6,336.6,83.9,332.9z"/>
	<path class="st3" d="M106.8,350.5c0.5,0.3,1,0.6,1.5,0.9c-2.6,4.1-5.3,8.3-7.9,12.4c-0.5-0.3-1-0.6-1.5-1
		C101.5,358.8,104.1,354.7,106.8,350.5z"/>
	<path class="st3" d="M316.2,352.4c-0.5,0.4-1,1-1.4,1c-0.4-0.1-0.7-0.8-1.1-1.3c-1.6-2-3.2-4.1-4.8-6.1c-1-1.3-2.1-2.7-3.1-4
		c0.5-0.4,0.9-0.7,1.4-1.1C310.2,344.7,313.2,348.5,316.2,352.4z"/>
	<path class="st3" d="M148.7,250.6c1.5-3.7,2.9-7.4,4.3-11c1.7-4.4,3.4-8.8,5-13.1c1.6-4.2,3.2-8.3,4.8-12.5c1.7-4.3,3.3-8.6,5-13
		c2.1-5.4,4.2-10.8,6.3-16.2c1.8-4.7,3.6-9.4,5.4-14.1c2.2-5.7,4.4-11.4,6.6-17.1c0.6-1.6,0.6-1.6,2.4-1.6c7.9,0,15.8,0,23.7,0
		c0.6,0,0.9,0.2,1.1,0.8c3.1,8.2,6.3,16.3,9.5,24.5c3.1,7.9,6,15.9,9.1,23.8c2.4,6.1,4.8,12.2,7.1,18.4c1.9,4.9,3.7,9.8,5.6,14.7
		c2,5.1,3.9,10.1,5.9,15.2c0.1,0.4,0.2,0.8,0.4,1.2c-0.3,0-0.6,0-0.8,0c-7.4,0-14.9,0-22.3,0c-0.7,0-1-0.2-1.2-0.8
		c-1.2-3.3-2.4-6.5-3.5-9.8c-0.7-1.9-1.3-3.7-2-5.6c-0.2-0.6-0.6-0.5-1.1-0.5c-6.9,0-13.7,0-20.6,0c-6.5,0-13,0-19.6,0
		c-0.7,0-1,0.2-1.3,0.9c-1.8,5-3.7,10-5.5,15c-0.1,0.4-0.3,0.7-0.9,0.7c-7.7,0-15.3,0-23,0C149.1,250.6,148.9,250.6,148.7,250.6z
		 M215.1,215.4c-5-14-10.1-27.9-15.2-42c-5.1,14.1-10.1,28-15.1,42C195,215.4,205,215.4,215.1,215.4z"/>
</g>
</svg>
