<?xml version="1.0" encoding="utf-8"?>
<!-- Generator: Adobe Illustrator 24.1.3, SVG Export Plug-In . SVG Version: 6.00 Build 0)  -->
<svg version="1.1" id="Layer_1" xmlns="http://www.w3.org/2000/svg" xmlns:xlink="http://www.w3.org/1999/xlink" x="0px" y="0px"
	 viewBox="0 0 400 400" style="enable-background:new 0 0 400 400;" xml:space="preserve">
<style type="text/css">
	.st0{display:none;}
	.st1{display:inline;fill:#222222;}
	.st2{fill:#E5E5E5;}
	.st3{fill:#222222;}
</style>
<g class="st0">
	<path class="st1" d="M354,205.7c-0.1,1.6-0.2,3.1-0.3,4.7c-0.8,13.6-3.2,26.9-7.6,39.7c-14.4,42-41.6,72.7-81.7,91.9
		c-12.9,6.2-26.6,10.1-40.7,12.2c-10,1.5-20,2-30,1.4c-31.8-1.8-60.3-12.4-85.3-32c-27.7-21.8-45.8-49.9-54.7-84
		c-2.5-9.6-3.9-19.3-4.5-29.2c-0.6-9.2-0.3-18.4,0.8-27.6c3.4-28.5,13.7-54.3,31.3-77.1c20-25.8,45.6-43.6,76.9-53.2
		c10.3-3.1,20.9-5.1,31.6-5.9c46.3-3.5,91.2,14.1,122.7,48.2c18.8,20.4,31.3,44.1,37.6,71.1c2.2,9.6,3.5,19.3,3.8,29.1
		c0,0.4,0.1,0.8,0.1,1.2C354,199.4,354,202.6,354,205.7z M350.6,199.7c-0.2-3.4-0.4-8.2-0.8-12.9c-0.7-9.1-2.4-18-4.8-26.8
		c-12.1-43.7-42.8-78.9-81.9-96.9c-17.5-8-35.9-12.5-55.1-13.3c-13.4-0.6-26.7,0.5-39.8,3.6c-31.2,7.4-57.4,23.2-78.4,47.4
		c-23.9,27.5-36.1,59.7-37.3,96.1c-0.5,14.9,1.2,29.7,5.2,44.1c8.4,30.8,24.8,56.6,49.3,77c25.6,21.3,55.1,32.7,88.4,34.2
		c13.9,0.6,27.5-0.7,41-4c31.1-7.7,57.1-23.8,77.9-48.2C338.3,271.5,350.1,238.3,350.6,199.7z"/>
	<path class="st1" d="M46,100.5c0.7-1,1.5-2,2.2-2.9c1.8-2.5,3.5-5.2,5.6-7.5c2.1-2.5,5.7-2.8,8.2-0.5c1.6,1.5,2,3.2,1.6,5.2
		c0.9-0.3,1.8-0.5,2.7-0.8c1.5-0.5,2.9,0.2,4,1c1.3,0.9,2.2,2.1,2.5,3.8c0.3,1.7-0.2,3.2-1.1,4.5c-2.3,3.4-4.7,6.7-7.1,10
		c-0.3,0.4-0.5,0.3-0.8,0.1c-3-2.2-6-4.4-9.1-6.5c-2.8-2-5.6-4.1-8.5-6.1c-0.1-0.1-0.2,0-0.3-0.1C46,100.7,46,100.6,46,100.5z
		 M63.8,107.5c0.5-0.6,0.9-1.2,1.3-1.7c0.9-1.4,1.9-2.7,2.8-4.1c0.6-1.1,0.3-2.5-0.7-3.1c-1.1-0.7-2.3-1.1-3.4,0.2
		c-1.5,1.8-2.8,3.7-4.3,5.6C61,105.4,62.4,106.5,63.8,107.5z M56.2,101.9c0.1-0.1,0.3-0.2,0.4-0.4c1-1.4,2.1-2.8,3.1-4.3
		c0.4-0.6,0.7-1.3,0.7-2c-0.1-1-0.7-1.8-1.7-2.2c-0.9-0.3-2,0-2.7,0.9c-1.2,1.5-2.3,3.1-3.4,4.7c-0.2,0.3-0.2,0.6,0.1,0.8
		C53.8,100.3,55,101.1,56.2,101.9z"/>
	<path class="st1" d="M195.3,15.9c1,0.2,2,0.4,2.9,0.7c4.2,1.4,6.7,4.4,7.5,8.8c0.6,3.1,0.1,6.1-1.6,8.8c-1.8,2.8-4.4,4.3-7.6,4.8
		c-3.4,0.6-6.6,0.1-9.4-2c-2.5-1.8-3.9-4.3-4.4-7.3c-0.4-2.4-0.2-4.8,0.8-7.1c1.2-2.7,3.1-4.6,5.8-5.7c1.2-0.5,2.5-0.6,3.8-0.9
		c0.1,0,0.2-0.1,0.2-0.2C193.9,15.9,194.6,15.9,195.3,15.9z M201.1,27.5c0-0.3-0.1-0.8-0.2-1.3c-0.5-4.2-4.5-6.9-8.9-5.6
		c-2.7,0.8-4.1,2.9-4.5,5.7c-0.4,3.1,0.3,5.6,2.8,7.6c1.9,1.5,5.4,1.6,7.4,0.3C200,32.7,201,30.4,201.1,27.5z"/>
	<path class="st1" d="M199.8,384.1c-1.1-0.5-2.1-0.9-3.2-1.4c-0.1,0-0.2-0.1-0.3-0.2c-0.8-0.7-0.8-0.7-0.1-1.5
		c0.1-0.1,0.2-0.3,0.3-0.4c0.7,0.5,1.4,1.1,2.2,1.4c1.4,0.6,2.9,0.9,4.4,0.1c0.8-0.4,1.3-1,1.3-2c0-0.9-0.6-1.5-1.3-1.8
		c-1.4-0.6-2.8-1-4.2-1.5c-1.3-0.5-2.4-1.2-2.6-2.7c-0.3-2,0.6-3.4,2.5-4.1c2.4-0.9,5.7-0.3,7.3,1.7c-0.4,0.4-0.7,0.7-1.1,1.2
		c-0.9-1.1-2.1-1.5-3.5-1.7c-1-0.2-1.9,0-2.7,0.6c-1,0.8-1.3,2.2,0.2,3.1c0.8,0.5,1.8,0.7,2.7,1c0.7,0.2,1.4,0.4,2,0.7
		c2,0.8,2.7,2.5,2.5,3.8c-0.3,1.9-1,2.9-3.3,3.6c-0.1,0-0.3,0.1-0.4,0.2C201.6,384.1,200.7,384.1,199.8,384.1z"/>
	<path class="st1" d="M339.4,100.3c3.8-3,7.4-5.8,11.1-8.7c1,1.3,2,2.5,2.9,3.8c-5.9,4.6-11.7,9.2-17.7,13.8
		c-0.4-0.4-0.8-0.9-1.1-1.3c-0.3-0.4-0.7-0.9-1-1.3c-0.5-0.6-0.8-1.1-0.5-2c1.6-5.4,3.1-10.8,4.6-16.2c0,0,0-0.1-0.1-0.2
		c-3.8,3-7.6,6-11.4,8.9c-1-1.3-2-2.5-2.9-3.7c5.9-4.6,11.8-9.2,17.7-13.9c0.9,1.2,1.8,2.3,2.7,3.5c0.2,0.2,0.3,0.6,0.2,0.8
		c-1.4,5.3-2.9,10.5-4.4,15.7C339.5,99.7,339.5,99.9,339.4,100.3z"/>
	<path class="st1" d="M178.7,40.1c-1.4,0.3-2.7,0.4-4,0.9c-1.6,0.6-2.1-0.6-2.8-1.4c-1.2-1.4-2.5-2.7-3.5-4.2
		c-0.8-1.3-1.8-1.1-2.9-0.8c-0.5,0.1-1,0.2-1.6,0.4c0.5,2.6,1.1,5.2,1.6,7.8c-1.4,0.3-2.8,0.6-4.2,0.9c-0.2,0-0.5-0.3-0.6-0.5
		c-0.9-4.6-1.8-9.1-2.7-13.7c-0.5-2.4-1-4.8-1.5-7.2c0-0.2,0-0.3,0-0.6c2.7-0.5,5.3-1.1,8-1.6c1.2-0.2,2.3-0.6,3.5-0.6
		c2.3-0.1,4.4,0.5,6,2.4c1.7,2,2.5,5.8,1,8.2c-0.6,0.9-1.4,1.7-2.3,2.4c-0.5,0.4-0.5,0.6-0.1,1c1.3,1.4,2.6,2.8,3.9,4.3
		C177.1,38.4,177.8,39.2,178.7,40.1z M161.9,24.8c0.4,2,0.8,4,1.2,6c0.5-0.1,1.1-0.2,1.6-0.3c1.5-0.4,3.1-0.7,4.5-1.2
		c1.5-0.5,2-2.1,1.4-3.7c-0.4-1.2-2.2-2.1-3.5-1.8C165.4,24.1,163.7,24.4,161.9,24.8z"/>
	<path class="st1" d="M319,85c-6.4,0.1-12.3-5.8-12.1-12.1c0.2-6.2,5.4-11.7,11.8-11.6c6.4,0.1,11.9,5.5,12,11.9
		C330.7,79.5,325.2,84.9,319,85z M311.6,73.8c-0.3,3.5,3.3,6.8,6.8,6.7c3.3-0.1,6.6-3,7.4-6.5c1-4.2-2.8-8.8-7.8-8
		C314.8,66.5,311.4,70.1,311.6,73.8z"/>
	<path class="st1" d="M240.4,29.6c3.5,0.9,7,1.7,10.6,2.6c-0.3,1.2-0.6,2.4-0.9,3.6c-0.1,0.5-0.5,0.4-0.8,0.3
		c-3.3-0.8-6.6-1.6-9.9-2.4c-0.4,1.7-0.8,3.3-1.2,5c3.4,0.8,6.7,1.6,10.1,2.4c0.5,0.1,0.7,0.2,0.5,0.8c-0.3,1.1-0.5,2.2-0.8,3.4
		c-1.4-0.3-2.7-0.6-4.1-1c-3.6-0.9-7.2-1.8-10.8-2.6c-0.4-0.1-0.5-0.2-0.4-0.7c0.9-3.6,1.8-7.3,2.7-10.9c0.8-3.5,1.7-7,2.5-10.4
		c5,1.2,9.9,2.4,14.9,3.6c0.5,0.1,0.6,0.3,0.5,0.8c-0.3,1-0.5,1.9-0.7,2.9c-0.1,0.5-0.2,0.6-0.7,0.4c-3.2-0.8-6.4-1.5-9.6-2.3
		c-0.6-0.2-0.8,0-0.9,0.6C241.1,27,240.7,28.3,240.4,29.6z"/>
	<path class="st1" d="M79,88.2c2.7-2.8,5.3-5.5,8-8.4c0.9,1.1,1.7,2.1,2.7,3.2c-3.4,3.6-7,7.4-10.7,11.3c-0.1-0.1-0.2-0.1-0.3-0.2
		c-1.7-1.6-3.4-3.3-5.1-4.9c-2.6-2.5-5.1-4.9-7.7-7.4c-1.1-1-2.1-2-3.3-3c3.7-3.9,7.3-7.7,11-11.5c1,0.9,2.1,1.9,3.1,2.8
		c-2.6,2.7-5.1,5.4-7.4,7.7c1,1.3,2,2.5,3,3.7c2.7-2.8,5.1-5.4,7.6-7.9c1,0.9,2,1.9,3.1,2.8c-2.5,2.7-5,5.3-7.5,7.9
		C76.7,85.7,77.8,86.9,79,88.2z"/>
	<path class="st1" d="M90.8,73.3c2.1,0.2,4.1-0.2,5.9-1.3c1-0.6,1.9-1.5,2.7-2.4c0.6-0.6,0.8-1.5,0.5-2.4c-0.4-0.9-1.2-1.4-2.2-1.1
		c-1.2,0.4-2.3,0.9-3.5,1.3c-1.7,0.6-3.4,1.4-5.2,1.9c-3.4,0.8-6.2-1.7-6.9-4.6c-0.6-2.7,0.4-4.9,2.2-6.9c1.8-1.9,3.9-3.2,6.4-3.9
		c1.2-0.3,2.4-0.4,3.8-0.6c0,1.6,0,3.1,0,4.5c-2.9,0.1-5.5,0.9-7.5,3.3c-1.1,1.3-0.6,3.1,0.8,3.3c0.6,0.1,1.3-0.2,1.9-0.4
		c1.8-0.7,3.5-1.5,5.3-2.2c2-0.8,4-1.1,6-0.1c2.4,1.3,4.2,4.7,3.3,7.7c-0.8,2.3-2.3,4-4.2,5.5c-1.6,1.3-3.5,2.3-5.5,2.7
		c-1.1,0.2-2.2,0.2-3.3,0.3c-0.2,0-0.5-0.2-0.5-0.4C90.8,76,90.8,74.6,90.8,73.3z"/>
	<path class="st1" d="M131.8,29.6c2.9-1,5.7-2,8.5-3c1.6-0.6,3.1-1.2,4.8-1c2,0.2,3.7,1,5,2.6c1.1,1.5,1.7,3.1,1.6,4.9
		c-0.1,2.7-1.3,4.7-3.7,5.9c-2.2,1.1-4.5,1.8-6.9,2.7c0.9,2.4,1.7,4.9,2.6,7.5c-1.5,0.5-3,1.1-4.5,1.6
		C136.8,43.8,134.3,36.7,131.8,29.6z M139.8,37.8c1.9-0.7,3.8-1.4,5.6-2.2c1.3-0.6,1.9-2.3,1.3-3.7c-0.5-1.2-1.6-2.2-3.2-1.8
		c-1.8,0.5-3.6,1.1-5.4,1.7c-0.1,0-0.3,0.3-0.2,0.4C138.4,34.1,139.1,35.9,139.8,37.8z"/>
	<path class="st1" d="M278.7,38.4c-1.5,0.1-3,0.2-4.4,0.4c-0.6-2.7-2-4.6-4.7-5.3c-2.2-0.6-4.1-0.2-5.9,1.2c-2.6,2-3.8,5.6-2.7,8.7
		c1.2,3.5,5.2,5.6,8.8,4c0.5-0.2,0.9-0.6,1.4-0.9c1,1.1,2,2.2,3,3.3c-3.8,3.1-8.6,3.5-13.5,0.1c-4.4-3.1-6-8-4.2-13.3
		c0.9-2.5,2.4-4.6,4.7-6c1.9-1.2,4-1.9,6.2-1.7C274.5,29.4,277.9,33.2,278.7,38.4z"/>
	<path class="st1" d="M218.6,21.2c-2.2-0.2-4.3-0.5-6.5-0.7c0.1-1.3,0.3-2.7,0.4-4.2c5.9,0.6,11.8,1.3,17.8,1.9
		c-0.1,0.8-0.1,1.6-0.2,2.4c0,0.3-0.1,0.7-0.1,1c0.1,0.8-0.3,0.9-0.9,0.8c-1.7-0.2-3.5-0.5-5.2-0.6c-0.2,0-0.6,0.4-0.6,0.6
		c-0.2,1.2-0.2,2.4-0.4,3.6c-0.2,1.9-0.4,3.8-0.6,5.7c-0.1,1.3-0.2,2.5-0.4,3.8c-0.2,1.5-0.3,3-0.5,4.4c-1.6-0.2-3.1-0.3-4.8-0.5
		C217.3,33.3,218,27.3,218.6,21.2z"/>
	<path class="st1" d="M114,38c0.7,1.2,1.4,2.4,2.1,3.6c-1.7,1-3.3,2-4.9,3c-0.5,0.3-0.6,0.4-0.3,1c3,5,6,10,9.1,15.1
		c-1.3,0.8-2.7,1.6-4.1,2.5c-1.2-2-2.3-3.9-3.5-5.8c-1.9-3.1-3.7-6.2-5.6-9.3c-0.2-0.4-0.5-0.5-0.9-0.3c-1.7,1-3.4,2.1-5,3.1
		c-0.7-1.2-1.5-2.4-2.2-3.6C103.7,44.2,108.8,41.1,114,38z"/>
	<path class="st1" d="M284.9,61.7c-1.4-0.8-2.8-1.6-4.1-2.4c3.1-5.3,6.1-10.5,9.2-15.8c-1.9-1.1-3.8-2.2-5.7-3.3
		c0.7-1.2,1.4-2.4,2.1-3.6c5.2,3,10.3,6,15.5,9c-0.7,1.2-1.4,2.4-2.1,3.6c-1.9-1.1-3.7-2.1-5.7-3.3C291,51.2,288,56.5,284.9,61.7z"
		/>
	<path class="st1" d="M307.5,49.7c1.3,0.9,2.6,1.9,3.9,2.8c-2.9,4.1-5.8,8.1-8.7,12.2c-1.3,1.8-2.6,3.7-4,5.5
		c-0.3,0.4-0.6,0.5-1.1,0.1c-0.9-0.7-1.8-1.4-2.7-2c-0.4-0.3-0.4-0.5-0.1-0.9c1.3-1.8,2.6-3.6,3.9-5.4c2-2.7,3.9-5.5,5.9-8.2
		C305.5,52.4,306.5,51.1,307.5,49.7z"/>
	<path class="st1" d="M214.4,369.4c2.3-0.2,4.5-0.5,6.8-0.6c1.8-0.1,3.1,0.8,3.5,2.5c0.4,1.3,0.1,3.2-1.7,3.9c0,0,0,0.1-0.1,0.2
		c1.4,0.3,2.4,1.2,2.8,2.6c0.5,2.4-0.4,4-2.7,4.5c-2.2,0.5-4.5,0.6-6.7,0.9c-0.2,0-0.5-0.4-0.6-0.6c-0.3-2.3-0.5-4.6-0.7-7
		c-0.2-1.8-0.4-3.6-0.7-5.4C214.4,370.1,214.4,369.8,214.4,369.4z M217.4,381.6c1.5-0.1,2.8-0.3,4.2-0.4c1.4-0.2,2.5-0.9,2.4-2.7
		c-0.1-1.3-1.2-2.3-2.5-2.2c-1.5,0.1-3.1,0.3-4.7,0.5C217,378.5,217.2,380,217.4,381.6z M216.2,370.8c0.2,1.6,0.4,3,0.5,4.5
		c1.5-0.2,2.9-0.3,4.3-0.5c1.2-0.1,2.2-1.2,2.1-2.3c-0.1-1.4-1.3-2.4-2.6-2.3C219.1,370.4,217.7,370.6,216.2,370.8z"/>
	<path class="st1" d="M180.4,374.1c0,2.9-1,5.1-3.2,6.6c-4,2.8-10.3,0.2-10.7-5c-0.2-2.6,0.4-4.8,2.2-6.6c1.9-1.9,4.2-2.1,6.6-1.5
		C178.4,368.3,180.6,371,180.4,374.1z M173.5,368.8c-1.3-0.1-2.5,0.4-3.3,1.2c-1.7,1.8-2.4,4-1.7,6.4c0.9,3.5,5,4.9,7.7,2.9
		c2.1-1.5,2.6-3.7,2.4-6.1C178.3,370.5,176,368.8,173.5,368.8z"/>
	<path class="st1" d="M250.7,377.1c-3,0.8-6,1.5-8.9,2.3c-1.1-4.3-2.2-8.7-3.3-13c-0.1-0.5,0-0.6,0.4-0.7c2.8-0.7,5.5-1.4,8.3-2.1
		c0.1,0.5,0.2,1,0.3,1.5c-2.4,0.6-4.8,1.2-7.2,1.9c0.4,1.3,0.7,2.6,1,3.9c0.1,0.4,0.3,0.5,0.7,0.4c2.2-0.6,4.3-1.1,6.5-1.7
		c0.1,0.5,0.3,1,0.4,1.5c-2.4,0.6-4.7,1.2-7.1,1.8c0.4,1.6,0.8,3.1,1.2,4.7c2.4-0.6,4.7-1.2,7.2-1.8
		C250.4,376.1,250.5,376.5,250.7,377.1z"/>
	<path class="st1" d="M182.3,381c0.3-0.4,0.7-0.8,1-1.3c1.4,1.9,4.1,2.8,6.1,2.2c0.8-0.3,1.5-0.8,1.7-1.7c0.2-1-0.1-1.8-1.1-2.2
		c-1.2-0.5-2.4-1-3.6-1.6c-0.7-0.4-1.5-0.8-2.1-1.3c-1.7-1.4-1.1-4.2,0.8-5.3c2.3-1.4,6.4-0.6,8.1,1.6c-0.4,0.4-0.7,0.7-1.1,1.1
		c-1.3-1.6-3.1-2.1-5.1-1.8c-1,0.1-1.8,0.9-1.9,1.8c-0.1,0.8,0.6,1.6,1.6,2.1c1.5,0.6,3,1.2,4.5,2c1.4,0.7,1.8,2,1.7,3.5
		c-0.2,1.3-0.9,2.4-2.1,3C188.2,384.3,184,383.4,182.3,381z"/>
	<path class="st1" d="M156.5,363.6c2.1,0.6,4,1,5.8,1.6c1.9,0.6,3.2,2.3,3,4c-0.4,2.7-1.5,4-4,4.2c-1.1,0.1-2.3-0.4-3.5-0.7
		c-1.8-0.4-1.8-0.5-2.3,1.2c-0.4,1.2-0.6,2.5-1,3.7c-0.5-0.1-1.1-0.2-1.7-0.4C154.1,372.7,155.3,368.2,156.5,363.6z M156.4,370.7
		c1.3,0.3,2.5,0.5,3.6,0.9c1.4,0.4,2.8-0.3,3.3-1.7c0.5-1.5-0.2-3-1.8-3.4c-1.2-0.4-2.4-0.6-3.8-1
		C157.3,367.2,156.9,368.9,156.4,370.7z"/>
	<path class="st1" d="M231.6,379.7c1.5-0.3,2.9-0.5,4.4-0.8c0.3-0.1,0.7-0.1,1-0.2c1.1-0.3,1.4,0,1.3,1c0,0.1-0.2,0.3-0.4,0.4
		c-2.5,0.5-5,0.9-7.5,1.4c-0.1,0-0.2,0-0.3,0c-0.8-4.5-1.7-9.1-2.5-13.7c0.6-0.1,1.1-0.2,1.7-0.3
		C230.1,371.5,230.8,375.6,231.6,379.7z"/>
	<path class="st1" d="M209.1,369.6c0.6,0,1.1,0,1.7,0c0.1,1,0.2,2,0.2,3c0.1,1.8,0.1,3.5,0.2,5.3c0.1,1.7,0.2,3.3,0.3,5
		c0,0.2,0,0.4,0,0.6c-0.6,0-1,0-1.7,0C209.5,378.9,209.3,374.3,209.1,369.6z"/>
	<path class="st1" d="M133.1,123.9c5.5,4.4,11.4,7.5,17.8,9.8c7.3,2.6,14.8,3.6,22.6,2.7c10.2-1.3,19.1-5.4,27.2-11.7
		c0.2-0.1,0.4-0.3,0.5-0.4c0.3-0.4,0.5-0.3,0.9,0c4.6,3.9,9.8,6.8,15.3,9c3.5,1.4,7.1,2.4,10.8,3s7.5,0.7,11.2,0.3
		c10.3-1,19.5-4.7,28-10.6c0.9-0.6,1.7-1.3,2.7-2c0,0.4,0.1,0.6,0.1,0.9c0,31.9,0,63.8-0.1,95.7c0,4.7-0.6,9.3-1.5,13.9
		c-2.2,11.3-7.6,20.9-15,29.6c-9.9,11.6-21.9,20.5-35.8,26.9c-5,2.3-10.2,4.3-15.6,5.7c-0.4,0.1-1,0.1-1.4,0c-5-1.3-9.8-3-14.4-5.1
		c-14.3-6.4-26.7-15.5-36.9-27.5c-5.4-6.3-9.8-13.2-12.6-21.1c-1.4-3.9-2.3-7.9-2.9-11.9c-1-6.8-1-13.7-1-20.6c0-28.5,0-57,0-85.4
		C133,124.7,133.1,124.4,133.1,123.9z"/>
</g>
<circle class="st2" cx="200" cy="201.2" r="158.5"/>
<g>
	<path class="st3" d="M207.9,7.2c0.2,0.1,0.4,0.2,0.6,0.2c1.3,0,2.7,0,4.2,0c0,1.2,0,2.1,0,3.1c-0.1,1.4-0.3,2.8-0.3,4.3
		c-0.1,1.8-0.1,3.6-0.2,5.4c-0.2,3.6-0.4,7.2-0.6,11c-1.6-0.1-3.3-0.2-4.8-0.2c0-1.5,0-3,0-4.5c0-0.2,0.1-0.4,0.1-0.6
		c0.1-1.8,0.1-3.6,0.2-5.4c0.1-2.5,0.2-4.9,0.4-7.4c0.1-2,0.2-3.9,0.3-5.9C207.8,7.2,207.9,7.2,207.9,7.2z"/>
	<path class="st3" d="M201.9,392.8c-1.1-1.8-2.2-3.6-3.3-5.4c-0.2-0.3-0.6-0.6-1-0.6c-0.7-0.1-1.4,0-2.2,0c-0.1,1.9-0.2,3.8-0.3,5.8
		c-0.5,0-1,0-1.5,0c0-4.8,0-9.6,0-14.6c2.7,0.1,5.3-0.3,7.9,0.4c1.3,0.4,2.5,2.1,2.6,3.5c0.1,2.8-0.7,3.9-3.4,4.8
		c-0.1,0-0.2,0.1-0.3,0.3c1.3,2,2.5,3.9,3.8,5.9C203.3,392.8,202.6,392.8,201.9,392.8z M195.4,379.4c0,2,0,3.9,0,5.7
		c0.1,0,0.2,0.1,0.2,0.1c1.3,0,2.6,0,4,0c1.4,0,2.6-1.2,2.7-2.8c0.1-1.1-1.1-2.6-2.2-2.7C198.5,379.5,197,379.5,195.4,379.4z"/>
	<path class="st3" d="M39.9,201.4c0.4-38.3,11.8-72.4,35.4-102.1c22.5-28.3,51.4-47.1,86.5-56c9.4-2.4,18.9-3.8,28.6-4.4
		c9.5-0.6,18.9-0.3,28.3,0.8c28.1,3.4,53.7,13.5,76.3,30.6c31.1,23.6,51.3,54.5,60.6,92.4c3.6,14.6,5,29.5,4.4,44.6
		c-1.6,36.9-13.9,69.8-37.5,98.3c-22.8,27.4-51.6,45.4-86.4,53.7c-8.6,2.1-17.4,3.3-26.3,3.8c-8.9,0.5-17.8,0.4-26.7-0.6
		c-30.8-3.4-58.3-14.8-82.3-34.2c-28.1-22.7-46.6-51.8-55.6-86.7c-2.6-10-4.2-20.2-4.7-30.6C40.1,207.6,40,204.3,39.9,201.4z
		 M356.4,201c0-11.2-1.1-22.3-3.5-33.2c-6.5-30.4-20.5-56.9-42.4-79c-28.7-28.9-63.4-44.4-104.2-46.4c-13.9-0.7-27.7,0.6-41.2,3.8
		c-38.3,9.2-68.9,29.9-91.8,61.8c-18.5,25.7-28.1,54.7-29.5,86.3c-0.6,13.4,0.4,26.7,3.3,39.9c7.8,35.8,25.5,65.8,53.7,89.3
		c26.2,22,56.6,33.9,90.8,35.9c13.8,0.8,27.4-0.2,40.9-3.2c34.4-7.6,63-24.8,85.8-51.6C343.7,274.8,356,240.1,356.4,201z"/>
	<path class="st3" d="M224.3,23.9c-0.4,2.6-0.8,5.1-1.1,7.5c-0.1,0.4-0.2,0.8-0.7,0.7c-1.5-0.2-2.9-0.5-4.4-0.7
		c1.2-7.8,2.5-15.5,3.7-23.2c1.5,0.2,3,0.4,4.5,0.6c2.1,0.3,4.2,0.7,6.3,1c3.3,0.6,5.8,2.2,6.6,5.6c0.9,3.9-0.9,8.5-6.1,9.3
		c1.3,3.2,2.5,6.4,3.8,9.7c-1.8-0.3-3.5-0.6-5.2-0.9c-0.2,0-0.5-0.3-0.6-0.5c-1-2.6-1.9-5.2-2.9-7.8c-0.1-0.3-0.5-0.7-0.8-0.8
		C226.4,24.2,225.4,24.1,224.3,23.9z M225,19.4c0.2,0.1,0.2,0.2,0.2,0.2c1.7,0.3,3.4,0.6,5.1,0.9c2.1,0.3,3.4-0.8,3.9-2.9
		c0.3-1.2-0.9-2.8-2.4-3.3c-0.9-0.3-1.9-0.4-2.8-0.6c-1-0.2-2-0.3-3.1-0.4C225.6,15.4,225.3,17.5,225,19.4z"/>
	<path class="st3" d="M202.4,30.4c-1.7,0.1-3.3,0.3-4.9,0.4c-0.5,0-0.8-0.1-1-0.7c-0.3-0.9-0.7-1.6-1-2.5c-0.4-1.2-1.4-0.7-2.1-0.7
		c-1.3,0-2.6,0.2-3.9,0.3c-1.5,0.1-2.9,0.1-4.5,0.2c-0.4,1.3-0.8,2.7-1.3,4.1c-1.9,0.1-3.7,0.2-5.7,0.4c0.5-1.6,1-3.1,1.5-4.6
		c1.8-5.5,3.6-11,5.3-16.5c0.3-0.8,0.5-1.7,0.8-2.5c0.1-0.2,0.3-0.5,0.5-0.5c1.8-0.2,3.6-0.3,5.4-0.4c0.2,0,0.6,0.2,0.7,0.3
		c1.8,3.9,3.5,7.9,5.3,11.8c1,2.2,2,4.4,3.1,6.6C201.2,27.5,201.8,28.9,202.4,30.4z M189.2,12.5c-1.1,3.6-2.1,7-3.1,10.4
		c2.5-0.1,4.9-0.3,7.4-0.4C192,19.1,190.6,15.9,189.2,12.5z"/>
	<path class="st3" d="M171.4,13.5c-3.8,0.8-7.5,1.5-11.5,2.3c0.3,1.6,0.6,3.2,1,4.9c3.8-0.8,7.5-1.5,11.2-2.2
		c0.3,1.2,0.5,2.5,0.8,3.7c0.1,0.5-0.1,0.7-0.6,0.8c-3.3,0.7-6.6,1.3-9.9,2c-0.2,0-0.6,0.4-0.5,0.6c0.6,3,1.2,6,1.9,9
		c-1.5,0.3-2.9,0.7-4.4,0.9c-0.2,0-0.6-0.3-0.7-0.6c-1.2-5.7-2.3-11.5-3.4-17.2c-0.3-1.5-0.7-3-1-4.6c0-0.2,0-0.5-0.1-0.7
		c4.9-1,9.8-2,14.7-2.9c1.6-0.3,1.6-0.3,1.9,1.3C171,11.7,171.3,12.6,171.4,13.5z"/>
	<path class="st3" d="M124.3,363.9c-1.6,3.6-3.2,7.1-4.7,10.7c-0.6-0.2-1.1-0.4-1.6-0.7c2-4.5,4-9,6-13.5c0.8,0.3,1.6,0.7,2.3,1
		c0,4,0,7.9,0,11.9c2.8-2.7,5.7-5.4,8.6-8.1c0.8,0.3,1.5,0.7,2.4,1c-2,4.5-4,9-6,13.5c-0.6-0.3-1-0.5-1.6-0.8
		c1.6-3.6,3.2-7.2,4.8-11c-0.3,0.2-0.4,0.2-0.5,0.3c-2.1,2-4.2,4.1-6.3,6.1c-0.8,0.8-1.6,1.5-2.5,2.3c-0.2,0.1-0.5,0.2-0.7,0.1
		c-0.1,0-0.3-0.3-0.3-0.5c0.1-2.8,0.2-5.5,0.3-8.3c0-1.4,0-2.7,0-4.1C124.4,363.9,124.4,363.9,124.3,363.9z"/>
	<path class="st3" d="M75.1,324.4c0.3,0.4,0.7,0.7,1,1.1c-2.1,3.6-4.2,7.2-6.4,10.8c0,0,0.1,0.1,0.1,0.1c3.6-2,7.2-4,10.8-6
		c0.5,0.5,0.9,0.9,1.4,1.4c-4.5,2.4-8.9,4.8-13.5,7.2c-0.4-0.4-0.8-0.9-1.1-1.3c-0.1-0.1,0-0.5,0.1-0.7c1.9-3.2,3.8-6.4,5.7-9.5
		c0-0.1,0.1-0.2,0.2-0.5c-3.7,2-7.2,3.9-10.7,5.8c-1.5-1.2-1.5-1.3-0.6-2.8c2-3.4,4-6.9,6-10.3c0.3-0.5,0.6-1,0.8-1.4
		c0.5,0.4,1,0.8,1.5,1.3c-2.2,3.6-4.3,7.1-6.4,10.7c0,0.1,0.1,0.1,0.1,0.2C67.8,328.4,71.4,326.4,75.1,324.4z"/>
	<path class="st3" d="M325.5,340.1c-2.5-2.8-5-5.6-7.5-8.5c0.4-0.4,0.9-0.8,1.3-1.2c3.2,3.6,6.5,7.3,9.7,10.9
		c-0.8,1.7-2.2,1.1-3.5,0.8c-3.7-0.8-7.4-1.6-11.2-2.5c-0.2-0.1-0.5-0.1-0.9-0.2c2.7,3,5.3,5.9,7.8,8.9c-0.4,0.4-0.9,0.8-1.3,1.2
		c-3.2-3.7-6.5-7.3-9.7-11c0,0,0.1-0.1,0.1-0.2c0.7-0.9,1.4-1.1,2.7-0.8c4,1,8,1.7,12,2.6c0.1,0,0.3,0.1,0.4,0.2
		C325.4,340.2,325.4,340.1,325.5,340.1z"/>
	<path class="st3" d="M207.9,392.6c-0.4-4.8-0.7-9.7-1.1-14.5c1.3-0.4,2.1-0.1,2.9,0.9c1.5,2,3.2,3.7,4.8,5.6c0.9,1,1.7,2.1,2.6,3.1
		c0.3,0.3,0.5,0.6,0.7,1c0.1-0.1,0.1-0.1,0.2-0.2c-0.3-3.7-0.6-7.4-0.8-11.1c1.9-0.5,1.8-0.5,1.9,1.4c0.2,2.9,0.5,5.7,0.7,8.5
		c0.1,1.5,0.2,2.9,0.2,4.4c-0.3,0.1-0.6,0.2-0.8,0.2c-0.5,0.1-0.9,0-1.3-0.5c-1-1.4-2.2-2.6-3.3-3.9c-1.6-1.9-3.2-3.7-4.7-5.6
		c-0.2-0.3-0.5-0.6-1-1c0.3,4.1,0.6,7.9,0.9,11.8C209.1,392.6,208.6,392.6,207.9,392.6z"/>
	<path class="st3" d="M301.3,363.2c-2.9-4.2-5.6-8.1-8.5-12.3c2.1-1.3,4-2.7,6.1-3.7c2.7-1.3,6.3-0.2,8.1,2.3c1,1.3,1.6,2.7,1.7,4.3
		c0.1,2.1-0.5,4-2.1,5.3C305,360.5,303.1,361.8,301.3,363.2z M295.3,351.3c2.2,3.2,4.4,6.3,6.6,9.6c1.3-1,2.6-1.9,3.7-3
		c1.1-1,1.5-2.3,1.4-3.8c-0.1-1.4-0.7-2.7-1.7-3.7c-1.1-1.2-2.3-1.9-3.9-2C298.9,348.2,297.3,350,295.3,351.3z"/>
	<path class="st3" d="M262.2,375.7c-0.1-0.6-0.4-1.2-0.2-1.5c0.2-0.4,0.9-0.4,1.4-0.6c1.6-0.6,3.2-1.2,4.8-1.8
		c0.6,1.5,1.1,3,1.7,4.6c0.1,0.2,0.1,0.6,0,0.8c-2.2,4.8-8.7,6.2-12.4,2.3c-2.3-2.4-3-6.1-1.4-9.1c1.8-3.3,6.2-5,9.7-3.2
		c0.2,0.1,0.5,0.2,0.7,0.3c-0.3,0.5-0.7,0.9-1,1.4c-3.4-2.1-7.8,0.2-8.3,3.9c-0.6,3.8,2.4,7.6,6,7.4c1.9-0.1,3.5-0.9,4.5-2.6
		c0.2-0.4,0.3-1,0.2-1.4c-0.2-0.7-0.5-1.3-0.8-2.1C265.4,374.6,263.8,375.1,262.2,375.7z"/>
	<path class="st3" d="M335.4,326.1c-1.2,1.3-2.3,2.5-3.5,3.7c-0.4-0.4-0.8-0.7-1.2-1.1c1.6-1.6,3.1-3.3,4.7-5c1,0.9,1.9,1.9,3,2.7
		c0.9,0.7,1,1.5,0.9,2.5c-0.5,3.6-3.2,6.3-6.8,6.8c-2.1,0.3-4-0.3-5.6-1.7c-1.9-1.6-3.1-3.7-3-6.2c0.1-3.3,2.9-6.6,6-7.1
		c0.7-0.1,1.3-0.2,2.1-0.2c-0.1,0.7-0.3,1.2-0.4,1.6c-1,0.3-2,0.4-2.8,0.8c-3.3,1.5-4.4,5.6-1.8,8.8c1.6,1.9,4.3,3,6.7,2
		c2.2-0.8,3.3-2.5,3.7-4.7c0.1-0.4-0.2-0.9-0.5-1.2C336.6,327.2,336,326.7,335.4,326.1z"/>
	<path class="st3" d="M268.4,363.9c2.5-1,4.8-2.1,7.2-2.9c1.4-0.4,3.6,0.6,4.4,2.9c0.6,1.7,0.4,3.2-1,4.5c-0.2,0.2-0.4,0.4-0.6,0.7
		c2,1.2,4,2.5,6,3.7c-0.1,0.1-0.1,0.1-0.1,0.1c-1.8,1.5-3-0.1-4.4-0.8c-0.9-0.5-1.7-1.2-2.6-1.7c-0.3-0.2-0.9-0.2-1.3-0.1
		c-0.7,0.2-1.4,0.6-2.1,0.9c0.8,1.7,1.6,3.5,2.5,5.3c-0.5,0.3-1,0.5-1.6,0.8C272.6,372.9,270.5,368.5,268.4,363.9z M270.7,364.6
		c0.9,1.8,1.7,3.5,2.5,5.2c0.5-0.2,0.9-0.4,1.3-0.6c0.4-0.2,0.9-0.3,1.3-0.6c0.7-0.4,1.4-0.8,2-1.3c0.9-0.8,0.9-2.2,0.1-3.4
		c-0.5-0.9-1.8-1.4-2.8-1C273.6,363.4,272.2,364,270.7,364.6z"/>
	<path class="st3" d="M234.7,374.5c2.1-0.5,4.2-1,6.3-1.4c2.2-0.5,4.4,0.9,4.9,3.2c0.5,2.5-0.1,3.8-2.3,5c-0.1,0.1-0.2,0.2-0.3,0.2
		c1.7,1.6,3.3,3.1,5,4.7c-0.9,0.7-1.9,0.7-2.7-0.1c-1.3-1.3-2.6-2.5-4-3.8c-0.2-0.2-0.6-0.3-0.8-0.2c-0.8,0.1-1.6,0.4-2.4,0.6
		c0.5,1.9,0.9,3.8,1.3,5.7c-0.6,0.1-1.2,0.3-1.8,0.4C237,384.1,235.9,379.3,234.7,374.5z M237,375.5c0,0.3-0.1,0.4-0.1,0.4
		c0.4,1.6,0.7,3.2,1.1,4.7c0,0.2,0.4,0.4,0.6,0.4c1.3-0.3,2.6-0.6,3.9-1c1.2-0.4,1.9-1.7,1.6-3.1c-0.2-1.3-1.3-2.3-2.5-2.2
		C240.1,374.9,238.5,375.3,237,375.5z"/>
	<path class="st3" d="M150.6,382.2c0.9-1,1.7-1.9,2.5-2.8c0.3,0.3,0.7,0.5,1.2,0.9c-0.9,0.9-1.6,1.7-2.5,2.5
		c-0.4,0.4-0.5,0.7-0.3,1.2c0.5,0.9,1,1.8,1.5,2.7c-1.7,0-2.6-1-3.2-2.5c-1.6,0.8-3.2,1-4.9,0.4c-1.9-0.6-3.2-2.2-3.2-3.9
		c0-1.8,1.3-3.5,3.2-4.2c0.5-0.2,0.9-0.3,1.4-0.4c-0.3-1.5-0.6-3,0.3-4.3c0.9-1.4,2.2-1.6,3.7-1.4c1.2,0.2,2.2,0.8,2.7,2
		c0.6,1.4-0.4,3.3-1.9,3.9c-0.7,0.2-1.4,0.4-2.1,0.6c-0.2,0.1-0.4,0.2-0.8,0.3C149.2,379,149.9,380.5,150.6,382.2z M146.8,377.6
		c-1.5,0.4-2.7,1.1-3,2.6c-0.3,1.3,0.1,2.4,1.3,3.1c1.4,0.8,2.8,0.5,4.1-0.2C148.4,381.2,147.6,379.4,146.8,377.6z M147.9,375.9
		c0.1,0.1,0.2,0.1,0.3,0.2c0.8-0.3,1.7-0.5,2.4-0.8c0.8-0.4,1.3-1.1,1.2-2c-0.1-0.8-0.7-1.4-1.6-1.5c-0.7-0.1-1.9,0.5-2.1,1.3
		C147.9,374,147.9,374.9,147.9,375.9z"/>
	<path class="st3" d="M102.9,365.6c4.1-3.3,8.2-6.6,12.3-10c0.1,0.1,0.3,0.2,0.4,0.3c1.3,0.4,1.7,1.1,1.4,2.4
		c-0.4,2.1-0.6,4.3-0.9,6.5c-0.3,2.1-0.5,4.2-0.7,6.2c-0.1,0.5-0.2,0.9-0.2,1.4c0,0-0.1,0-0.1,0c-1.8-1-1.9-1.3-1.3-3.7
		c0.1-0.6,0-0.8-0.5-1c-1.7-0.9-3.4-1.9-5.1-2.9c-0.5-0.3-0.9-0.3-1.4,0.1c-0.2,0.2-0.3,0.3-0.5,0.5
		C104.8,366.8,104.7,366.8,102.9,365.6z M114.2,366.3c0.4-2.9,0.8-5.6,1.2-8.5c-2.3,1.9-4.4,3.6-6.7,5.4
		C110.6,364.3,112.3,365.3,114.2,366.3z"/>
	<path class="st3" d="M298.6,364.8c-0.6,0.4-1.1,0.7-1.6,0.9c-0.1,0-0.3,0-0.4-0.1c-0.7-0.6-1.5-1.1-2.2-1.7
		c-0.2-0.1-0.5-0.2-0.7-0.1c-1.8,1-3.7,2.1-5.5,3.2c-0.2,0.1-0.4,0.5-0.4,0.7c0,0.6,0,1.3,0.2,1.9c0.3,0.9,0.1,1.4-0.8,1.7
		c-0.2,0.1-0.4,0.3-0.8,0.5c-0.1-0.8-0.3-1.5-0.4-2.3c-0.4-2.5-0.7-5-1.1-7.5c-0.2-1.8-0.5-3.6-0.7-5.3c0-0.3,0.2-0.7,0.5-0.9
		c0.4-0.3,1-0.6,1.4-0.8C290.4,358.2,294.4,361.4,298.6,364.8z M292.8,362.5c-2.2-1.8-4.4-3.5-6.7-5.4c0.4,3,0.8,5.7,1.2,8.5
		C289.2,364.5,291,363.5,292.8,362.5z"/>
	<path class="st3" d="M232.8,381.6c0.1,0.5,0.1,1,0.2,1.6c-2.5,0.4-5,0.8-7.6,1.2c0.3,1.7,0.5,3.3,0.8,5.1c2.4-0.4,4.8-0.8,7.1-1.2
		c0.2,0,0.6,0.3,0.7,0.5c0.1,0.2,0.1,0.6,0.1,1c-3.1,0.5-6.3,1-9.5,1.5c-0.8-4.9-1.5-9.6-2.3-14.5c3.2-0.5,6.3-1,9.5-1.5
		c0.1,0.5,0.2,1,0.3,1.6c-2.5,0.4-5,0.8-7.7,1.2c0.2,1.5,0.4,3,0.7,4.7C227.7,382.4,230.2,382,232.8,381.6z"/>
	<path class="st3" d="M188.5,377.6c0.5,0.1,1,0.1,1.6,0.2c-0.1,0.9-0.1,1.8-0.2,2.7c-0.2,1.8-0.4,3.5-0.5,5.3
		c-0.1,1.6-0.4,3.3-1.5,4.6c-1.3,1.5-3.1,2.1-5,1.8c-1.3-0.2-2.5-0.4-3.6-1.3c-1.1-0.9-1.9-2-1.8-3.4c0-2.5,0.3-5,0.5-7.5
		c0.1-1,0.1-2.1,0.2-3.3c0.6,0.1,1.2,0.2,1.8,0.2c-0.1,0.9-0.2,1.7-0.3,2.5c-0.2,2.4-0.4,4.8-0.5,7.2c-0.1,2.2,1.6,3.9,3.8,3.9
		c3,0,4.3-1.3,4.5-4.3c0.2-2.6,0.5-5.2,0.7-7.8C188.3,378.1,188.5,377.9,188.5,377.6z"/>
	<path class="st3" d="M175.8,376.4c-0.1,0.5-0.2,1-0.3,1.6c-1.5-0.3-2.9-0.5-4.6-0.8c-0.8,4.3-1.5,8.6-2.3,13
		c-0.3-0.1-0.4-0.1-0.5-0.1c-1.3-0.4-1.3-0.4-1-1.8c0.5-2.6,0.9-5.2,1.4-7.8c0.2-1.2,0.4-2.3,0.7-3.6c-1.5-0.3-3-0.5-4.6-0.8
		c0.1-0.5,0.2-1,0.3-1.6C168.5,375.1,172.1,375.8,175.8,376.4z"/>
	<path class="st3" d="M95.6,360.9c-2.4-1.7-4.7-3.3-7-5c0.6-0.9,1.3-1.9,1.9-2.8c2-2.8,4.1-5.6,6.1-8.5c0.4-0.6,0.7-0.8,1.2-0.2
		c0.2,0.2,0.5,0.3,0.8,0.5c-2.5,3.6-5,7.1-7.6,10.7c1.8,1.3,3.7,2.6,5.6,4C96.2,360,95.9,360.4,95.6,360.9z"/>
	<path class="st3" d="M78.9,348.2c3.1-3.8,6.2-7.6,9.3-11.4c0.4,0.3,0.9,0.7,1.4,1.1c-2.8,3.4-5.5,6.8-8.3,10.2
		c1.7,1.4,3.5,2.8,5.3,4.3c-0.3,0.4-0.6,0.8-1,1.3C83.4,351.8,81.2,350,78.9,348.2z"/>
	<path class="st3" d="M83.9,332.9c0.5,0.4,1,0.8,1.4,1.1c-3.3,3.6-6.5,7.3-9.8,10.9c-0.5-0.4-0.9-0.7-1.4-1.1
		C77.3,340.2,80.6,336.6,83.9,332.9z"/>
	<path class="st3" d="M100.4,363.9c-0.5-0.3-1-0.6-1.5-1c2.6-4.1,5.3-8.3,7.9-12.4c0.5,0.3,1,0.6,1.5,0.9
		C105.7,355.6,103,359.7,100.4,363.9z"/>
	<path class="st3" d="M316.3,352.4c-0.5,0.4-1,1-1.5,0.9c-0.4-0.1-0.7-0.8-1.1-1.3c-1.6-2.1-3.2-4.1-4.8-6.2c-1-1.3-2.1-2.7-3.1-4
		c0.5-0.4,0.9-0.7,1.4-1.1C310.2,344.6,313.2,348.5,316.3,352.4z"/>
	<path class="st3" d="M244.1,166.9c0,8,0,15.8,0,23.7c1.2-0.9,2.3-1.8,3.4-2.6c3.6-2.3,7.4-4,11.6-4.6c2.2-0.4,4.5-0.7,6.8-0.7
		c5.8,0.1,11.3,1.4,16.4,4.4c2.6,1.5,5,3.3,7,5.5c3.6,4,6,8.6,7.2,13.8c0.8,3.4,1.1,6.9,0.9,10.5c-0.3,4.6-1.3,9.1-3.4,13.3
		c-1.2,2.3-2.7,4.5-4.4,6.5c-4.3,4.8-9.6,7.9-15.7,9.8c-3,1-6.1,1.7-9.4,1.9c-3.5,0.2-6.9,0.5-10.4,0.3c-3.3-0.1-6.6-0.6-9.9-1.2
		c-4.2-0.8-8.3-2.2-12.1-4.2c-3.1-1.6-6.1-3.5-8.6-5.8c-1.1-1-2.1-2-3.1-3c-0.4-0.3-0.5-0.6-0.1-1c1.3-1.6,2.6-3.3,3.9-4.9
		c2.4-3,4.7-5.9,7.1-8.9c0.1-0.1,0.2-0.3,0.3-0.5c1.2,1,2.3,2,3.5,3c2.7,2.3,5.7,3.9,9,5.3c2.9,1.2,5.9,1.9,8.9,2.2
		c5.2,0.6,10.3,0.5,15.1-1.9c4-2,6.8-5.1,7.7-9.6c0.9-4.3,0.1-8.3-2.8-11.7c-2.4-2.9-5.7-4.4-9.3-5.1c-2-0.4-4.1-0.6-6.2-0.5
		c-6.4,0.2-12.3,1.9-17.3,6c-0.7,0.6-1.3,1.1-2,1.7c-0.3,0.2-0.7,0.3-0.9,0.3c-4.7-1.2-9.4-2.5-14.1-3.8c0-18.9,0-37.7,0-56.7
		c22.6,0,45.1,0,67.7,0c0,6.1,0,12.2,0,18.5C275.2,166.9,259.7,166.9,244.1,166.9z"/>
	<path class="st3" d="M150.5,148.4c0,32.9,0,65.7,0,98.6c-7,0-13.9,0-21,0c0-23.7,0-47.3,0-71.2c-5.5,5.6-10.9,11.1-16.3,16.7
		c-4-4.2-8-8.4-12.2-12.8c0.4-0.3,0.8-0.5,1.1-0.8c9.9-9.9,19.7-19.8,29.6-29.8c0.4-0.4,0.8-0.6,1.5-0.6c5.5,0,11,0,16.5,0
		C149.8,148.4,150.1,148.4,150.5,148.4z"/>
	<path class="st3" d="M187.3,246.7c-2.2,0.4-4.2,0.5-6.2-0.2c-3.4-1.2-5.4-3.6-6.3-6.9c-0.8-3.1-0.5-6.1,1-8.9
		c2.2-3.9,5.5-6.1,10-6.2c3.8-0.1,7,1.3,9.6,4c1.9,2,3,4.5,3.5,7.2c1,5.7,0,11-2.3,16.3c-1.6,3.7-3.8,7-6.6,9.9
		c-1.8,1.8-3.7,3.4-5.6,5c-0.2,0.1-0.6,0.1-0.8,0c-2.3-1.8-4.6-3.7-6.8-5.6c-0.4-0.3-0.7-0.6-1.1-0.9
		C181.2,257.1,185.2,252.8,187.3,246.7z"/>
</g>
<g>
	<path class="st3" d="M-1079.4-119.5c1.3,0.4,2.6,0.7,3.8,1.2c5.5,2.1,8.8,6.1,9.8,11.9c0.9,5.1,0,9.8-3.2,14
		c-2.3,3-5.4,4.8-9.1,5.6c-4.3,0.9-8.5,0.4-12.4-1.7c-4.6-2.5-7.3-6.5-8.1-11.7c-0.7-4.6,0.2-8.8,2.9-12.7c2.4-3.5,5.8-5.5,10-6.3
		c0.2,0,0.4-0.2,0.6-0.3C-1083.2-119.5-1081.3-119.5-1079.4-119.5z M-1072.3-103.5c-0.1-0.7-0.1-1.6-0.3-2.5
		c-0.5-2.1-1.5-3.9-3.2-5.3c-2.2-1.8-4.7-2.4-7.4-2.1c-2.6,0.3-4.8,1.4-6.3,3.6c-1.9,2.7-2.5,5.7-2.1,9c0.9,6.8,7.7,10.1,13.6,7.5
		C-1073.9-95.2-1072.5-98.9-1072.3-103.5z"/>
	<path class="st3" d="M-1095.9,403c-1.5-2.4-3-4.9-4.5-7.3c-0.3-0.4-0.9-0.8-1.4-0.8c-0.9-0.1-1.9,0-3,0c-0.1,2.6-0.2,5.2-0.4,7.8
		c-0.7,0-1.4,0-2.1,0c0-6.5,0-13.1,0-19.8c3.7,0.1,7.2-0.4,10.7,0.5c1.8,0.5,3.4,2.8,3.5,4.8c0.1,3.8-1,5.3-4.6,6.5
		c-0.1,0-0.2,0.2-0.4,0.3c1.7,2.7,3.4,5.3,5.1,8C-1094,403-1095,403-1095.9,403z M-1104.8,392.7c2.1,0,4.1,0,6.1,0
		c1.7-0.1,3.3-2.1,3.2-3.9c-0.1-1.7-1.7-3.5-3.3-3.6c-0.6,0-1.2-0.2-1.9-0.2c-1.4,0-2.7,0-4.1,0
		C-1104.8,387.7-1104.8,390.1-1104.8,392.7z"/>
	<path class="st3" d="M-1315.3,138.5c0.1-43.6,14.4-88.9,44.5-128.8c31.5-41.7,72.8-68.8,123.7-81.1c17.6-4.2,35.5-6.1,53.7-5.5
		c54,1.7,101.1,20.7,140.9,57.3c32.9,30.2,54.3,67.3,64.9,110.7c4.8,19.9,6.8,40,5.9,60.4c-1.8,44.3-15.2,84.7-41.1,120.7
		c-31.7,44-74,72.6-126.8,85.3c-19.7,4.8-39.7,6.6-59.9,5.3c-62-3.9-113.3-29.7-153.6-76.8c-24-28-39.4-60.3-47.2-96.3
		C-1313.6,174.9-1315.2,159.9-1315.3,138.5z M-886.6,150.6c0-22.4-1.5-37.2-4.5-51.9c-8.8-41.5-27.7-77.6-57.6-107.7
		c-38.9-39.1-86-60.1-141.2-62.8c-18.8-0.9-37.4,0.8-55.7,5.2c-45.2,10.7-83,33.8-113.1,69.2c-31.5,37.1-48.3,80.1-51.2,128.7
		c-1.2,19.7,0.4,39.2,4.7,58.5c10.7,47.9,34.7,87.9,72.3,119.4c35.5,29.8,76.7,45.9,123,48.6c18.7,1.1,37.2-0.3,55.4-4.3
		c46.6-10.3,85.4-33.6,116.3-69.9C-903.8,243.2-887.2,196.1-886.6,150.6z"/>
	<path class="st3" d="M-1038.3-92.2c1.5,4.6,2.9,8.9,4.4,13.4c-2.6-0.6-5-1.1-7.6-1.7c-1.1-3.9-2.3-8-3.5-12
		c-0.1-0.3-0.4-0.6-0.7-0.6c-1.4-0.4-2.7-0.6-4.3-1c-0.8,3.7-1.7,7.3-2.6,11.1c-2.2-0.5-4.4-1-6.6-1.5c2.4-10.5,4.7-20.8,7.1-31.2
		c4.2,0.9,8.3,1.8,12.3,2.8c2.1,0.5,4.2,1.1,6,2.1c2.7,1.5,4.3,3.9,4.6,7.1c0.4,3.6-0.7,6.7-3.3,9.2c-1.3,1.3-3,2-4.8,2.1
		C-1037.6-92.3-1037.9-92.3-1038.3-92.2z M-1048.8-99.9c2.3,0.5,4.5,1,6.6,1.6c1.4,0.4,2.8,0.2,4.1-0.4c1.2-0.6,2.3-2.8,2.1-4
		c-0.4-1.8-1.3-3.3-3.2-3.8c-2.6-0.7-5.2-1.3-7.8-1.9c-0.3,1.5-0.6,2.9-0.9,4.2C-1048.1-102.7-1048.5-101.3-1048.8-99.9z"/>
	<path class="st3" d="M-1107-102c0,9.4-7.2,16.5-17.4,16.3c-9.2-0.2-15.9-6.7-16-16.8c-0.1-9.2,7-16.5,17.8-16.2
		C-1113.8-118.4-1107.1-111.6-1107-102z M-1133.4-102.6c-0.1,2.4,0.4,4.6,1.7,6.5c2.4,3.6,5.8,5,10.1,4.2c2-0.4,3.9-1.3,5.1-2.9
		c2.2-2.7,3-5.9,2.3-9.4c-0.6-2.8-1.7-5.2-4.1-6.9c-2.5-1.7-5.2-2.2-8-1.3c-1.6,0.5-3.3,1.4-4.5,2.6
		C-1132.7-107.9-1133.6-105.4-1133.4-102.6z"/>
	<path class="st3" d="M-1165.1-89.6c1,3.7,1.9,7.3,2.9,11c-2.2,0.6-4.3,1.2-6.5,1.8c-2.7-10.3-5.4-20.6-8.1-30.9
		c5.4-1.4,10.7-3.1,16.1-4.1c4.7-0.9,9.1,1.3,11,6.5c1.2,3.3,1.1,6.5-1,9.5c-1.7,2.4-4.2,3.8-7,4.5
		C-1160.1-90.9-1162.6-90.2-1165.1-89.6z M-1168.8-103.8c0.7,2.7,1.4,5.3,2.1,7.9c0,0.2,0.5,0.4,0.6,0.4c2.7-0.8,5.4-1.4,7.9-2.4
		c2-0.8,2.7-3.2,1.9-5.2c-0.8-2-2.9-3.1-5.1-2.5C-1163.7-105-1166.2-104.4-1168.8-103.8z"/>
	<path class="st3" d="M-1201.6,359.1c1.1,0.5,2.1,0.9,3.1,1.3c0,5.4,0,10.7,0,16.2c3.9-3.7,7.7-7.3,11.6-11c1,0.4,2.1,0.9,3.2,1.4
		c-2.7,6.1-5.4,12.2-8.1,18.3c-0.8-0.4-1.4-0.7-2.2-1.1c2.1-4.9,4.3-9.7,6.5-14.9c-0.4,0.3-0.5,0.3-0.6,0.4
		c-2.8,2.7-5.6,5.4-8.4,8.2c-1.1,1.1-2.2,2.1-3.4,3.2c-0.2,0.2-0.6,0.2-0.9,0.2c-0.2-0.1-0.4-0.4-0.4-0.7c0.1-3.7,0.3-7.5,0.4-11.2
		c0.1-1.8,0-3.7-0.2-5.6c-2.2,4.8-4.3,9.7-6.5,14.5c-0.8-0.3-1.4-0.6-2.2-0.9C-1207,371.2-1204.3,365.2-1201.6,359.1z"/>
	<path class="st3" d="M-1260.1,318.4c0.7,0.6,1.3,1.2,2,1.9c-6.2,3.3-12.3,6.5-18.4,9.8c-0.5-0.6-1.1-1.2-1.6-1.9
		c-0.1-0.2,0.1-0.6,0.2-0.9c2.6-4.3,5.1-8.6,7.7-12.9c0.1-0.1,0.1-0.2,0.2-0.6c-5,2.7-9.7,5.3-14.4,7.9c-0.6-0.7-1.2-1.3-1.9-2
		c3.4-5.9,6.9-11.8,10.2-17.6c0.7,0.6,1.3,1.1,2,1.7c-2.9,4.9-5.8,9.7-8.7,14.5c0.1,0.1,0.1,0.1,0.2,0.2c4.9-2.7,9.8-5.3,14.8-8
		c0.4,0.5,0.9,0.9,1.4,1.5c-2.9,4.8-5.7,9.7-8.6,14.5c0,0.1,0.1,0.1,0.1,0.2C-1269.9,323.8-1265,321.1-1260.1,318.4z"/>
	<path class="st3" d="M-923.8,333.2c-1.1,2.3-3,1.4-4.6,1.1c-5.1-1.1-10.1-2.2-15.1-3.3c-0.3-0.1-0.7-0.2-1.3-0.3
		c3.7,4.1,7.1,8,10.6,12c-0.6,0.6-1.2,1.1-1.8,1.7c-4.4-5-8.8-9.9-13.1-14.8c0.9-2.1,2.4-1.8,4.1-1.4c5.5,1.2,11,2.4,16.7,3.6
		c-3.5-4-6.9-7.8-10.3-11.6c0.6-0.6,1.1-1.2,1.7-1.7C-932.5,323.4-928.1,328.3-923.8,333.2z"/>
	<path class="st3" d="M-1071.4,401.4c-0.4,0.1-0.8,0.3-1.2,0.3c-0.6-0.1-1.3-0.2-1.7-0.6c-1.6-1.8-3.1-3.7-4.7-5.5
		c-2.1-2.5-4.2-5-6.3-7.5c-0.4-0.4-0.7-0.9-1-1.3c-0.1,0.1-0.2,0.2-0.3,0.2c0.4,5.2,0.8,10.3,1.2,15.6c-0.8,0-1.5,0-2.4,0
		c-0.5-6.5-1-13-1.5-19.6c1.7-0.5,2.8-0.3,3.9,1.2c1.3,1.9,2.9,3.5,4.4,5.2c1.9,2.2,3.8,4.4,5.7,6.7c0.3,0.4,0.6,0.8,0.8,1.1
		c0.1-0.1,0.2-0.2,0.3-0.2c-0.4-5-0.7-10-1.1-15c0.1-0.1,0.1-0.2,0.2-0.2c2.4-0.5,2.3-0.5,2.4,2c0.2,3.8,0.6,7.6,0.9,11.5
		C-1071.6,397.4-1071.5,399.4-1071.4,401.4z"/>
	<path class="st3" d="M-961.2,362.9c-3.9-5.7-7.6-11.1-11.4-16.6c2.3-1.6,4.4-3.2,6.8-4.6c4.3-2.5,9.4-1.4,12.5,2.5
		c1.3,1.7,2.2,3.6,2.4,5.8c0.1,2.8-0.7,5.4-2.9,7.2C-956.2,359.2-958.7,361-961.2,362.9z M-969.4,346.7c3,4.4,5.9,8.6,8.9,13
		c1.8-1.4,3.6-2.6,5.1-4.1c1.5-1.4,2-3.3,1.8-5.5c-0.2-1.9-1-3.4-2.2-4.7c-1.3-1.5-3-2.5-5-2.7C-964.3,342.5-966.6,345-969.4,346.7z
		"/>
	<path class="st3" d="M-1014.3,379.9c-0.1-0.8-0.5-1.6-0.2-2.1c0.3-0.5,1.2-0.6,1.9-0.8c2.2-0.8,4.3-1.6,6.5-2.4
		c0.8,2.1,1.5,4.1,2.2,6.1c0.1,0.3,0.2,0.8,0.1,1.1c-3,6.4-11.7,8.4-16.8,3.2c-3.1-3.2-4.2-8.4-1.9-12.5c2.5-4.4,8.4-6.7,13.2-4.3
		c0.3,0.1,0.6,0.2,0.9,0.4c-0.4,0.6-0.9,1.2-1.4,1.9c-2.3-1.4-4.7-1.5-7-0.3c-2.3,1.1-3.8,3-4.3,5.7c-0.8,4.9,3.1,10.2,8.1,9.9
		c2.6-0.2,4.8-1.3,6.2-3.6c0.3-0.5,0.2-1.2,0.2-1.9c0-0.2-0.1-0.4-0.2-0.5c-1-2.4-1-2.4-3.4-1.4
		C-1011.6,378.9-1012.8,379.4-1014.3,379.9z"/>
	<path class="st3" d="M-921.3,316.2c2.1-2.3,4.3-4.5,6.4-6.7c1.4,1.3,2.6,2.6,4.1,3.7c1.4,1.1,1.4,2.5,1.1,3.9c-1,4.7-4,7.7-8.7,8.6
		c-3,0.6-5.7-0.3-8-2.3c-2.5-2.2-4.1-4.9-4-8.4c0.1-4.4,3.9-9.1,8.2-9.6c0.9-0.1,1.8-0.2,2.8-0.3c-0.2,0.9-0.4,1.6-0.6,2.4
		c-2.3-0.2-4.2,0.6-5.8,2.2c-3.1,3.1-3,7.3-0.3,10.5c2.4,2.9,5.8,3.9,9.1,2.7c3-1.1,4.5-3.5,4.9-6.3c0.1-0.5-0.2-1.2-0.6-1.6
		c-0.7-0.8-1.5-1.5-2.3-2.3c-1.6,1.8-3.1,3.4-4.7,5C-920.2,317.2-920.7,316.7-921.3,316.2z"/>
	<path class="st3" d="M-1005.8,364c1.5-0.7,2.8-1.4,4.1-2c1.6-0.7,3.2-1.3,4.9-1.9c2.8-1,5.9,1.4,6.7,4c0.7,2.3,0.4,4.2-1.4,5.9
		c-0.3,0.3-0.5,0.6-0.9,1c2.8,1.7,5.5,3.4,8.2,5.1c-0.2,0.1-0.3,0.1-0.3,0.1c-2.4,2-4.1-0.2-5.9-1.2c-1.2-0.7-2.3-1.6-3.6-2.3
		c-0.4-0.2-1.1-0.3-1.6-0.1c-1,0.3-1.9,0.8-2.9,1.3c1.1,2.4,2.2,4.7,3.3,7.2c-0.7,0.4-1.4,0.7-2.2,1.1
		C-1000.1,376.1-1002.9,370.1-1005.8,364z M-999.4,371.9c1.6-0.8,3.2-1.5,4.7-2.2c0.6-0.3,1.2-0.8,1.7-1.3c1.1-1.2,1.1-3,0-4.6
		c-0.6-1-2.5-1.9-3.5-1.5c-2.1,0.8-4.1,1.7-6.2,2.6C-1001.5,367.3-1000.5,369.6-999.4,371.9z"/>
	<path class="st3" d="M-1039.8,387.8c2.3,2.2,4.6,4.3,6.8,6.4c-1.5,1-2.6,0.9-3.8-0.2c-1.7-1.7-3.4-3.3-5.2-4.9
		c-0.3-0.3-0.9-0.4-1.3-0.4c-1,0.2-2,0.5-3.1,0.8c0.6,2.6,1.2,5.2,1.8,7.7c-0.7,0.2-1.5,0.3-2.4,0.5c-1.5-6.5-3-12.9-4.6-19.5
		c2.9-0.6,5.7-1.3,8.6-1.9c3-0.6,5.9,1.2,6.7,4.4C-1035.6,383.3-1036.1,385.8-1039.8,387.8z M-1048.3,379.6
		c-0.1,0.3-0.2,0.4-0.1,0.5c0.5,2.2,0.9,4.4,1.5,6.6c0,0.2,0.5,0.5,0.7,0.4c2-0.5,3.9-0.9,5.9-1.6c1.4-0.5,2.2-2.4,1.8-4.1
		c-0.4-1.8-1.9-3.1-3.4-2.9C-1044.1,378.8-1046.2,379.3-1048.3,379.6z"/>
	<path class="st3" d="M-1171,380.6c-0.4-2.1-0.8-4,0.4-5.9c1.2-1.9,3-2.2,5-1.9c1.7,0.2,3,1.1,3.7,2.8c0.7,1.8-0.5,4.5-2.6,5.3
		c-0.9,0.3-1.9,0.5-2.8,0.8c-0.3,0.1-0.6,0.2-1,0.4c1,2.2,1.9,4.3,3,6.6c1.2-1.3,2.3-2.5,3.4-3.8c0.4,0.3,1,0.7,1.6,1.2
		c-1.2,1.2-2.2,2.3-3.4,3.4c-0.6,0.5-0.7,0.9-0.3,1.6c0.7,1.2,1.4,2.4,2.1,3.7c-2.3,0-3.6-1.3-4.2-3.4c-2.2,1.1-4.4,1.4-6.7,0.6
		c-2.5-0.9-4.3-3-4.4-5.3c0-2.4,1.8-4.8,4.4-5.6C-1172.3,381-1171.6,380.8-1171,380.6z M-1167.3,389.8c-1.1-2.5-2.2-5-3.3-7.4
		c-2,0.5-3.6,1.5-4,3.5c-0.3,1.6,0.1,3.1,1.7,4.1C-1171,391.2-1169.2,390.9-1167.3,389.8z M-1169.1,380.1c0.2,0.1,0.3,0.2,0.5,0.3
		c1.1-0.4,2.3-0.6,3.3-1.1c1.1-0.5,1.7-1.5,1.6-2.7c-0.1-1.1-0.9-1.9-2.2-2.1c-1-0.2-2.6,0.7-2.8,1.8
		C-1169.1,377.5-1169,378.8-1169.1,380.1z"/>
	<path class="st3" d="M-1213.4,375.4c-0.1,0-0.1,0-0.1,0c-2.4-1.3-2.6-1.8-1.8-5c0.2-0.7,0.1-1.1-0.6-1.4c-2.3-1.3-4.7-2.6-6.9-4
		c-0.8-0.5-1.4-0.3-2,0.1c-0.2,0.2-0.5,0.5-0.7,0.7c-2,1.9-2.2,1.9-4.5,0.3c5.6-4.5,11.1-9,16.7-13.5c0.2,0.1,0.3,0.3,0.5,0.4
		c1.8,0.5,2.3,1.5,1.9,3.4c-0.6,2.8-0.9,5.7-1.2,8.6c-0.4,2.8-0.7,5.6-1,8.4C-1213.2,374.1-1213.3,374.8-1213.4,375.4z
		 M-1214.8,367.2c0.5-3.9,1-7.6,1.6-11.5c-3.1,2.6-6,4.9-9,7.4C-1219.7,364.4-1217.3,365.7-1214.8,367.2z"/>
	<path class="st3" d="M-964.8,365c-0.8,0.5-1.5,1-2.2,1.3c-0.2,0.1-0.7-0.3-1-0.5c-0.8-0.6-1.6-1.4-2.5-2c-0.2-0.2-0.7-0.2-0.9-0.1
		c-2.5,1.4-5,2.8-7.4,4.3c-0.3,0.2-0.6,0.7-0.6,1.1c0,0.8,0,1.7,0.3,2.5c0.5,1.3,0.1,1.9-1.1,2.4c-0.3,0.1-0.6,0.3-1.1,0.6
		c-0.3-1.8-0.5-3.4-0.7-5.1c-0.4-2.7-0.8-5.4-1.2-8.2c-0.3-2.5-0.7-4.9-1-7.4c0-0.3,0.2-0.8,0.5-1c0.7-0.5,1.4-0.8,2.1-1.2
		C-976.1,356.1-970.6,360.5-964.8,365z M-972.7,361.9c-3.1-2.5-6-4.8-9.1-7.3c0.6,4,1.1,7.7,1.6,11.5
		C-977.6,364.7-975.2,363.4-972.7,361.9z"/>
	<path class="st3" d="M-1054,387.8c0.1,0.7,0.2,1.4,0.3,2.1c-3.4,0.5-6.7,1.1-10.3,1.6c0.4,2.3,0.7,4.5,1.1,6.9
		c3.2-0.5,6.5-1.1,9.7-1.6c0.3,0,0.8,0.4,1,0.7c0.2,0.3,0.1,0.8,0.1,1.4c-4.2,0.7-8.5,1.3-12.8,2c-1-6.6-2-13.1-3.1-19.7
		c4.3-0.7,8.5-1.4,12.8-2c0.1,0.7,0.3,1.3,0.4,2.1c-3.4,0.5-6.8,1.1-10.5,1.7c0.3,2,0.6,4.1,0.9,6.4
		C-1061,388.9-1057.5,388.3-1054,387.8z"/>
	<path class="st3" d="M-1128,381.1c0.9,0.1,1.7,0.2,2.5,0.4c-0.2,2.1-0.5,4.1-0.6,6.1c-0.2,2.4-0.4,4.8-0.5,7.2
		c-0.1,2.8,2.3,5.1,5.1,5.1c4.2,0,5.9-1.6,6.2-5.8c0.3-3.5,0.6-7,1-10.5c0-0.4,0.2-0.7,0.3-1.2c0.7,0.1,1.4,0.2,2.2,0.3
		c-0.1,1.2-0.1,2.4-0.2,3.6c-0.2,2.5-0.5,4.9-0.7,7.4c-0.2,2.2-0.6,4.4-2,6c-1.8,2.1-4.2,2.8-6.8,2.4c-1.7-0.2-3.5-0.6-4.9-1.8
		c-1.5-1.2-2.5-2.7-2.4-4.5c0.1-3.4,0.4-6.9,0.7-10.3C-1128.2,384.2-1128.1,382.8-1128,381.1z"/>
	<path class="st3" d="M-1140.5,381.4c-2-0.3-4-0.7-6.1-1.1c0.1-0.7,0.2-1.3,0.4-2.1c5,0.9,9.9,1.7,14.9,2.6
		c-0.1,0.7-0.2,1.3-0.3,2.1c-2.1-0.4-4-0.7-6.3-1.1c-1,5.8-2.1,11.7-3.1,17.6c-0.4-0.1-0.5-0.1-0.7-0.2c-1.8-0.5-1.7-0.5-1.3-2.5
		c0.9-4.7,1.7-9.5,2.5-14.2C-1140.5,382.2-1140.5,381.9-1140.5,381.4z"/>
	<path class="st3" d="M-1249.5,353c1.7-2.4,3.4-4.8,5.1-7.2c1.9-2.7,3.9-5.3,5.8-8c0.7-1,1.1-1,1.9-0.3c0.2,0.2,0.5,0.4,0.9,0.6
		c-3.4,4.8-6.8,9.6-10.3,14.5c2.5,1.8,5,3.6,7.6,5.4c-0.4,0.6-0.9,1.1-1.3,1.7C-1243.2,357.5-1246.3,355.3-1249.5,353z"/>
	<path class="st3" d="M-1252.2,348.3c-0.4,0.5-0.8,1.1-1.3,1.7c-3.1-2.5-6.1-4.9-9.1-7.4c4.2-5.1,8.3-10.2,12.6-15.4
		c0.6,0.5,1.2,0.9,1.9,1.5c-3.7,4.6-7.5,9.2-11.2,13.8C-1257,344.3-1254.6,346.3-1252.2,348.3z"/>
	<path class="st3" d="M-1255.8,321.9c0.7,0.6,1.3,1.1,1.9,1.6c-4.4,4.9-8.9,9.9-13.3,14.8c-0.7-0.5-1.3-1-1.9-1.5
		C-1264.7,331.8-1260.3,326.8-1255.8,321.9z"/>
	<path class="st3" d="M-1224.8,345.7c0.7,0.4,1.4,0.8,2.1,1.3c-3.6,5.6-7.1,11.2-10.7,16.8c-0.7-0.4-1.3-0.8-2.1-1.3
		C-1232,357-1228.4,351.4-1224.8,345.7z"/>
	<path class="st3" d="M-955.2,334c0.7-0.5,1.3-1,1.9-1.5c4.1,5.3,8.2,10.5,12.3,15.7c-0.6,0.5-1.3,1-1.9,1.5
		C-947,344.4-951.1,339.2-955.2,334z"/>
	<path class="st3" d="M-1081.9,207.6c-9.5,0-18.9,0-28.4,0c0-32.1,0-64.2,0-96.6c-7.5,7.7-14.8,15.1-22.2,22.6
		c-1.5-1.6-3-3.2-4.5-4.8c-0.1-0.1-0.3-0.3-0.4-0.4c-2.7-2.8-5.4-5.5-8.1-8.3c-1-1-2-2.1-2.9-3.2c-0.2-0.2-0.1-0.7,0-1.1
		c0.1-0.2,0.4-0.4,0.6-0.6c12-12,23.9-23.9,35.9-35.9c1.5-1.5,3-3.2,4.5-4.7c0.3-0.3,0.7-0.5,1.1-0.5c8,0,16.1,0,24.1,0
		c0.1,0,0.2,0,0.3,0.1C-1081.9,118.5-1081.9,163-1081.9,207.6z"/>
</g>
<g>
	<path class="st3" d="M-696-715.7c0.3,0.1,0.6,0.2,1,0.3c4.6,0.1,9.2,0.1,13.8,0.3c1.5,0,3.1,0.2,4.6,0.3c0,1.9,0,3.8,0,5.9
		c-5.4-0.2-10.6-0.3-15.9-0.5c-0.1,2.3-0.2,4.5-0.4,6.8c5.3,0.2,10.4,0.4,15.5,0.5c0,2,0,3.9,0,5.9c-5.3-0.2-10.4-0.3-15.7-0.5
		c0,2.4,0,4.8,0,7.3c5.1,0.2,10.3,0.3,15.5,0.5c0,1.9,0,3.8,0,5.7c-2.1,0-4.2,0-6.4,0c-0.3,0-0.5-0.1-0.8-0.1
		c-4.5-0.1-8.9-0.2-13.4-0.3c-0.7,0-1.3-0.1-2.1-0.2c0.1-1.3,0.3-2.5,0.3-3.6c0.1-4.5,0.2-8.9,0.3-13.4c0.1-2.6,0.2-5.2,0.2-7.8
		c0.1-2.4,0.1-4.8,0.2-7.2C-698.2-715.7-697.1-715.7-696-715.7z"/>
	<path class="st3" d="M-694.3-192.9c-1.5-2.4-3-4.9-4.5-7.3c-0.3-0.4-0.9-0.8-1.4-0.8c-0.9-0.1-1.9,0-3,0c-0.1,2.6-0.2,5.2-0.4,7.8
		c-0.7,0-1.4,0-2.1,0c0-6.5,0-13.1,0-19.8c3.7,0.1,7.2-0.4,10.7,0.5c1.8,0.5,3.4,2.8,3.5,4.8c0.1,3.8-1,5.3-4.6,6.5
		c-0.1,0-0.2,0.2-0.4,0.3c1.7,2.7,3.4,5.3,5.1,8C-692.4-192.9-693.3-192.9-694.3-192.9z M-703.2-203.2c2,0,4,0,5.9,0
		c1.8,0,3.5-2,3.5-3.9c-0.1-1.8-1.7-3.5-3.4-3.6c-0.6,0-1.2-0.2-1.8-0.2c-1.4,0-2.7,0-4.1,0C-703.2-208.3-703.2-205.8-703.2-203.2z"
		/>
	<path class="st3" d="M-913.7-459.8c0.5-44.4,15.9-90.6,47.8-130.8c31.2-39.3,71.4-65,120.3-76.7c17.6-4.2,35.5-6.1,53.7-5.5
		c52.6,1.6,98.8,19.7,138.1,54.7c34.4,30.6,56.8,68.6,67.7,113.4c4.8,19.8,6.7,39.9,5.9,60.3c-1.8,44.3-15.2,84.7-41.1,120.7
		c-31.7,44-74,72.6-126.8,85.4c-19.7,4.8-39.7,6.5-59.9,5.3c-58-3.5-106.9-26.6-146.6-68.9c-27.8-29.6-45.6-64.6-54.2-104.2
		C-912.1-421.6-913.6-437.1-913.7-459.8z M-484.9-454.7c-0.3-4.8-0.5-11.5-1.1-18.2c-1.2-14.2-3.8-28.1-7.9-41.7
		c-13.3-44.3-38.1-80.9-74.6-109.2c-35.2-27.3-75.2-41.9-119.7-43.8c-20.6-0.9-41,1.1-61,6.4c-46.7,12.3-84.8,37.7-114.3,75.8
		c-28.1,36.3-42.9,77.7-45,123.6c-0.8,18.2,0.6,36.3,4.5,54.1c10.5,48.6,34.6,89.1,72.7,121c35.5,29.8,76.7,45.9,123,48.6
		c18.7,1.1,37.2-0.3,55.4-4.3c46.6-10.3,85.4-33.6,116.3-69.9C-502.2-352.8-485.5-399.9-484.9-454.7z"/>
	<path class="st3" d="M-664.4-713.9c1.9,0.3,3.7,0.6,5.5,0.9c0.8,0.1,1.4,0.4,1.8,1.3c2.1,4.4,4.3,8.7,6.5,13
		c1.2,2.4,2.3,4.7,3.5,7.1c0.2,0.3,0.4,0.6,0.7,1.2c1.2-6.8,2.4-13.2,3.5-19.7c2.3,0.4,4.5,0.8,6.6,1.2c-1.9,10.5-3.7,20.9-5.6,31.4
		c-1.2-0.2-2.4-0.4-3.6-0.6c-0.1,0-0.1-0.1-0.2-0.1c-2.4,0.3-3.1-1.4-4-3.2c-2.6-5.4-5.2-10.7-7.9-16c-0.7-1.4-1.3-2.9-2.1-4.7
		c-1.3,7.1-2.5,13.8-3.7,20.7c-1.7-0.3-3.3-0.6-4.9-0.9c-1.8-0.4-1.7-0.4-1.3-2.3c0.7-3.4,1.2-6.8,1.8-10.2c0.5-2.7,1-5.5,1.5-8.2
		C-665.7-706.6-665.1-710.2-664.4-713.9z"/>
	<path class="st3" d="M-741.4-712c2.3-0.3,4.4-0.5,6.7-0.8c0.5,4.3,1,8.4,1.5,12.5c5-0.6,9.9-1.1,15-1.7c-0.5-4.1-0.9-8.3-1.4-12.5
		c2.3-0.3,4.4-0.5,6.7-0.8c1.2,10.6,2.5,21.1,3.7,31.7c-2.2,0.3-4.4,0.5-6.7,0.8c-0.5-4.4-1-8.8-1.6-13.4c-3.7,0.5-7.4,0.9-11,1.4
		c-1,0.1-2,0.2-3.1,0.2c-0.8,0-1,0.4-0.9,1.1c0.5,3.7,0.9,7.4,1.4,11.1c0.2,1.2-0.1,1.4-1.3,1.5c-1.7,0.1-3.4,0.4-5.3,0.6
		C-738.9-690.9-740.1-701.4-741.4-712z"/>
	<path class="st3" d="M-829.6-648.1c0.4,1.6,0.7,3.2,1.1,4.8c0.1,0.6-0.1,1-0.6,1.3c-1.9,1.2-3.8,2.4-5.7,3.6
		c-0.9-4.4-1.8-8.8-2.7-13.2c-1-4.9-2-9.8-3-14.7c-0.3-1.7-0.7-3.4-1-5.1c0-0.3,0.1-0.7,0.4-0.9c2.1-1.4,4.2-2.7,6.4-4
		c0.2-0.1,0.7-0.1,0.9,0.1c5,3.7,10,7.5,15.1,11.2c4,2.9,8,5.8,12,8.8c-2.1,1.3-4.1,2.6-6.1,3.8c-0.3,0.2-0.9,0-1.2-0.3
		c-1.1-0.8-2.2-1.7-3.3-2.5c-0.2-0.2-0.8-0.2-1-0.1C-822.2-652.9-825.8-650.5-829.6-648.1z M-834.5-668.5c1.1,4.9,2.2,9.6,3.2,14.4
		c2.9-1.9,5.6-3.6,8.4-5.5C-826.8-662.6-830.6-665.5-834.5-668.5z"/>
	<path class="st3" d="M-794.7-696.7c2.2-0.9,4.3-1.8,6.4-2.8c2.5,5.8,5.1,11.7,7.6,17.5c1.7,3.9,2.1,7.8,0,11.7
		c-1.1,2-2.7,3.5-4.6,4.7c-3.1,1.9-6.4,3.3-10.2,3.4c-5,0.1-8.7-2.3-10.8-6.7c-2.4-5-4.5-10.3-6.8-15.4c-0.5-1.2-1.1-2.3-1.7-3.6
		c2.1-0.9,4.2-1.8,6.3-2.8c1.7,3.8,3.3,7.6,5,11.4c1.1,2.5,2.1,5,3.4,7.4c1.9,3.5,5.4,4.1,8.8,2.8c2.8-1.1,4.8-3,5-6.2
		c0.1-1.3-0.4-2.6-0.8-3.9c-1.1-2.8-2.4-5.6-3.6-8.4C-792-690.6-793.3-693.6-794.7-696.7z"/>
	<path class="st3" d="M-553.3-664.7c-1.8-0.1-3.5-0.2-5.3-0.3c-0.8,0-1.1-0.2-1.1-1c0-4.8-4.5-8.2-8.7-8.4
		c-5.1-0.3-9.9,4.1-10.9,9.4c-1,5.6,3.4,11.5,9.3,11.3c1.5-0.1,2.9-0.7,4.4-1.1c1,1.5,2.2,3.3,3.3,5c-5.2,3.4-12,3.3-18.1-1.9
		c-6.5-5.5-7.4-13.2-4.2-19.6c4.2-8.5,12.2-10.9,19.1-8.9C-556.8-677.8-552.7-671.3-553.3-664.7z"/>
	<path class="st3" d="M-611.4-695c-2.8,8.2-5.6,16.4-8.3,24.7c-2.1-0.7-4.2-1.4-6.4-2.1c2.7-8.2,5.5-16.4,8.2-24.7
		c-2.9-1-5.8-2-8.8-3c0.6-1.9,1.3-3.7,1.9-5.6c8.1,2.7,16.1,5.4,24.2,8.1c-0.7,2-1.3,3.8-1.9,5.7C-605.6-693-608.5-694-611.4-695z"
		/>
	<path class="st3" d="M-777.3-703.2c8.3-2.2,16.4-4.4,24.6-6.6c0.5,1.9,1,3.7,1.6,5.7c-3,0.8-5.9,1.6-9,2.4c1,3.7,2,7.5,3,11.2
		c1.2,4.4,2.3,8.9,3.5,13.3c0.2,0.6,0.1,0.7-0.5,0.9c-2,0.5-3.9,1-5.9,1.6c-2.2-8.3-4.5-16.7-6.7-25.1c-2.6,0.7-5.3,1.4-7.9,2.2
		c-0.8,0.2-1.2,0.4-1.4-0.8C-776.2-700-776.8-701.5-777.3-703.2z"/>
	<path class="st3" d="M-591.6-693.6c2.1,1,4.1,1.9,6.2,2.8c-4.4,9.7-8.7,19.3-13.1,29.1c-2.1-0.9-4.1-1.8-6.2-2.8
		C-600.4-674.1-596-683.8-591.6-693.6z"/>
	<path class="st3" d="M-790.2-210.7c-0.8-0.4-1.5-0.7-2.2-1.1c2.1-4.9,4.3-9.7,6.5-14.9c-0.4,0.2-0.5,0.3-0.6,0.4
		c-2.8,2.7-5.7,5.5-8.5,8.2c-1.1,1-2.2,2.1-3.3,3.1c-0.2,0.2-0.7,0.4-0.9,0.2c-0.3-0.1-0.5-0.6-0.5-0.9c0.1-3.7,0.3-7.5,0.4-11.2
		c0.1-1.8,0-3.6-0.2-5.4c-2.1,4.8-4.3,9.6-6.4,14.5c-0.7-0.3-1.4-0.6-2.2-0.9c2.7-6.1,5.4-12.2,8.1-18.3c1.1,0.5,2.1,0.9,3.1,1.3
		c0,5.3,0,10.7,0,16.2c0.2-0.1,0.3-0.2,0.4-0.3c2.4-2.3,4.8-4.6,7.1-6.9c1.2-1.2,2.4-2.3,3.7-3.4c0.2-0.2,0.6-0.2,0.9-0.1
		c0.9,0.3,1.7,0.7,2.7,1.1C-784.8-222.9-787.5-216.8-790.2-210.7z"/>
	<path class="st3" d="M-868.2-282.2c-5,2.8-9.7,5.3-14.4,7.9c-0.6-0.7-1.2-1.3-1.9-2.1c3.3-5.7,6.8-11.7,10.2-17.5
		c0.7,0.6,1.4,1.1,2,1.7c-3,4.9-5.8,9.7-8.7,14.4c0,0.1,0.1,0.2,0.1,0.2c4.9-2.7,9.8-5.3,14.8-8.1c0.4,0.5,0.8,1,1.3,1.6
		c-2.8,4.7-5.6,9.6-8.5,14.4c0,0.1,0.1,0.1,0.1,0.2c4.9-2.7,9.8-5.4,14.7-8.2c0.6,0.6,1.2,1.3,1.9,1.9c-6,3.2-12.1,6.5-18.3,9.7
		c-0.5-0.6-1.1-1.2-1.6-1.8c-0.1-0.2,0-0.6,0.2-0.9c2.6-4.3,5.1-8.6,7.7-12.9C-868.4-281.7-868.4-281.8-868.2-282.2z"/>
	<path class="st3" d="M-547.5-266.5c0.9-1.7,2.2-1.8,3.9-1.4c5.4,1.2,10.8,2.3,16.2,3.4c0.1,0,0.3,0.1,0.5,0
		c-3.4-3.8-6.8-7.6-10.2-11.5c0.6-0.5,1.2-1.1,1.8-1.6c4.3,4.9,8.7,9.8,13.1,14.8c-0.8,1.1-1.7,1.7-3.3,1.4
		c-5.5-1.3-11-2.4-16.5-3.6c-0.3-0.1-0.7-0.2-1.3-0.3c3.7,4.1,7.1,8,10.6,12c-0.6,0.6-1.2,1.1-1.8,1.7
		C-538.7-256.6-543.1-261.5-547.5-266.5z"/>
	<path class="st3" d="M-684.9-208.9c0.4,5.2,0.8,10.3,1.2,15.6c-0.8,0-1.5,0-2.5,0c-0.5-6.5-1-13.1-1.4-19.5c2.8-1.4,3.6,1,4.9,2.3
		c1.7,1.8,3.3,3.9,4.9,5.8c1.5,1.8,3.1,3.6,4.7,5.4c0.2,0.2,0.4,0.4,0.8,0.7c-0.4-5.2-0.8-10.2-1.1-15.2c0.1-0.1,0.1-0.2,0.2-0.2
		c2.4-0.5,2.3-0.5,2.4,2c0.2,3.8,0.6,7.6,0.9,11.5c0.1,2,0.2,4,0.3,6c-0.4,0.1-0.9,0.4-1.3,0.3c-0.5-0.1-1.2-0.2-1.5-0.6
		c-1.6-1.8-3.1-3.7-4.6-5.5c-2.1-2.5-4.2-5-6.3-7.5c-0.4-0.4-0.7-0.9-1-1.3C-684.7-209-684.8-208.9-684.9-208.9z"/>
	<path class="st3" d="M-559.6-233.2c-3.8-5.5-7.6-11-11.3-16.4c2.3-1.6,4.4-3.2,6.8-4.6c4.3-2.5,9.4-1.4,12.5,2.5
		c1.4,1.7,2.3,3.7,2.4,5.9c0.2,3.4-1.3,6.1-3.9,8.1C-555.3-236.1-557.5-234.7-559.6-233.2z M-558.9-236.4c1-0.6,2-1.2,2.9-1.9
		c2.7-2,4.7-4.3,4-8c-0.6-3.3-3.4-6.4-6.8-6.9c-3.7-0.5-6.2,2.1-9,4C-564.7-244.8-561.8-240.6-558.9-236.4z"/>
	<path class="st3" d="M-604.5-221.4c0.8,2.1,1.5,4.1,2.2,6.2c0.1,0.3,0.2,0.8,0.1,1.1c-3,6.4-11.7,8.4-16.8,3.2
		c-3.1-3.2-4.2-8.4-1.9-12.5c2.5-4.4,8.4-6.7,13.2-4.3c0.3,0.1,0.6,0.2,0.9,0.4c-0.4,0.6-0.9,1.2-1.4,1.9c-2.3-1.4-4.7-1.5-7-0.3
		c-2.3,1.1-3.8,3-4.3,5.7c-0.8,4.9,3.1,10.2,8.1,9.9c2.6-0.2,4.8-1.3,6.2-3.6c0.3-0.5,0.2-1.2,0.2-1.9c0-0.2-0.1-0.4-0.2-0.5
		c-1-2.4-1-2.4-3.4-1.4c-1.3,0.5-2.6,1-3.8,1.4c-0.1,0-0.1-0.1-0.1-0.1c-0.1-0.7-0.5-1.5-0.2-1.9c0.3-0.4,1.2-0.5,1.8-0.8
		C-608.9-219.7-606.7-220.6-604.5-221.4z"/>
	<path class="st3" d="M-517.9-290.9c-0.2,0.9-0.4,1.7-0.6,2.4c-2.9-0.2-5,0.9-6.6,3.1c-2.1,2.9-2,6.5,0.4,9.4
		c2.1,2.6,5.8,4.3,9.3,2.9c2.9-1.1,4.5-3.4,5-6.3c0.1-0.5-0.3-1.2-0.6-1.6c-0.7-0.8-1.5-1.5-2.3-2.2c-1.6,1.8-3.1,3.4-4.7,5
		c-0.5-0.5-1.1-1-1.6-1.5c1-1.1,2-2.3,3.1-3.4c1.1-1.1,2.2-2.2,3.3-3.3c1.4,1.3,2.6,2.6,4.1,3.7c1.4,1.1,1.3,2.4,1,3.8
		c-1,4.7-3.9,7.7-8.7,8.7c-3,0.6-5.7-0.3-8.1-2.2c-2.6-2.2-4.1-5-4-8.5c0.2-4.5,3.9-9,8.2-9.5C-519.8-290.7-518.9-290.8-517.9-290.9
		z"/>
	<path class="st3" d="M-596.8-222.1c1.1,2.4,2.2,4.8,3.3,7.2c-0.7,0.4-1.3,0.7-2.2,1.1c-2.8-6-5.6-12-8.5-18.1
		c1.3-0.6,2.6-1.3,3.8-1.8c1.7-0.7,3.4-1.5,5.2-2.1c2.8-1,5.8,1.4,6.6,3.9c0.8,2.3,0.5,4.3-1.4,6c-0.3,0.3-0.5,0.6-0.9,1
		c2.8,1.7,5.5,3.4,8,4.9c-1.9,1.8-3.4,0.9-5.1-0.4c-1.4-1.1-3-2-4.6-2.9c-0.4-0.2-1.1-0.2-1.6-0.1
		C-595-223.1-595.9-222.6-596.8-222.1z M-597.7-224.1c1.6-0.8,3.1-1.4,4.6-2.2c0.6-0.3,1.2-0.8,1.7-1.3c1.1-1.2,1.1-2.9,0.1-4.6
		c-0.7-1.2-2.4-1.9-3.8-1.4c-2,0.7-4,1.6-6,2.4C-599.9-228.6-598.8-226.4-597.7-224.1z"/>
	<path class="st3" d="M-649.8-217.8c2.9-0.6,5.7-1.3,8.5-1.9c3-0.6,6.1,1.2,6.7,4.4c0.6,3.4-0.2,4.9-3.3,6.7
		c-0.1,0.1-0.2,0.2-0.3,0.3c2.3,2.1,4.6,4.3,6.9,6.4c-1.9,1-2.7,0.8-4.1-0.5c-1.7-1.6-3.4-3.3-5.1-4.8c-0.2-0.2-0.7-0.3-1-0.2
		c-1.1,0.2-2.1,0.5-3.2,0.8c0.6,2.6,1.2,5.2,1.8,7.7c-0.8,0.2-1.6,0.4-2.4,0.5C-646.7-204.8-648.3-211.3-649.8-217.8z M-646.9-216.3
		c0.6,2.6,1.1,4.9,1.6,7.1c0,0.2,0.5,0.4,0.7,0.4c1.8-0.4,3.6-0.9,5.3-1.4c1.7-0.5,2.7-2.4,2.3-4.3c-0.4-1.8-1.9-3.2-3.5-2.9
		C-642.5-217.1-644.6-216.7-646.9-216.3z"/>
	<path class="st3" d="M-766.7-213.9c1,2.3,2,4.4,3,6.6c1.2-1.3,2.3-2.5,3.4-3.8c0.4,0.3,1,0.8,1.7,1.3c-1.2,1.2-2.4,2.3-3.5,3.4
		c-0.5,0.5-0.6,0.8-0.3,1.4c0.7,1.2,1.4,2.5,2.2,4c-1.1-0.4-2.1-0.5-2.9-1.1c-0.7-0.5-1.1-1.5-1.4-2.1c-1.9,0.2-3.7,0.6-5.4,0.5
		c-2.9-0.3-5.4-2.2-5.7-5.4c-0.2-2.2,1.8-4.8,4.3-5.7c2.1-0.7,2-0.7,1.6-3c-0.5-2.6,1.5-5.4,4.3-5.5c1.9,0,3.5,0.4,4.7,1.9
		c1.5,1.9,0.3,5.3-2.2,6.2c-0.9,0.3-1.9,0.5-2.8,0.8C-766-214.2-766.3-214.1-766.7-213.9z M-769-213.5c-2,0.5-3.6,1.4-4,3.5
		c-0.4,1.9,0.3,3.4,1.9,4.2c1.7,1,4,0.8,5.4-0.4C-766.8-208.7-767.9-211.1-769-213.5z M-767.1-215.5c1.2-0.4,2.4-0.7,3.4-1.1
		c1.1-0.5,1.7-1.5,1.6-2.7c-0.1-1.1-0.9-1.9-2.2-2.1c-0.9-0.1-2.2,0.6-2.7,1.6C-767.8-218.6-767.6-217.2-767.1-215.5z"/>
	<path class="st3" d="M-811.7-243.3c0.7,0.4,1.3,0.7,1.9,1c0.6,0.3,0.8,0.7,0.7,1.3c-0.6,4.5-1.1,9-1.7,13.5c-0.3,2.3-0.7,4.7-1,7
		c0,0-0.1,0-0.2,0c-2.3-1.3-2.5-1.8-1.7-4.9c0.2-0.8,0.1-1.1-0.6-1.5c-2.3-1.3-4.7-2.6-7-3.9c-0.7-0.4-1.3-0.4-1.9,0.1
		c-0.3,0.2-0.5,0.5-0.8,0.8c-2,1.8-2.2,1.8-4.4,0.2C-822.8-234.3-817.3-238.8-811.7-243.3z M-813.1-228.8c0.5-3.9,1-7.6,1.6-11.5
		c-3.1,2.5-6,4.9-9,7.4C-818-231.5-815.6-230.2-813.1-228.8z"/>
	<path class="st3" d="M-579.8-221.4c-0.3-1.8-0.5-3.5-0.7-5.2c-0.4-2.7-0.8-5.4-1.2-8c-0.3-2.5-0.7-4.9-1-7.4c0-0.4,0.3-0.9,0.6-1.1
		c0.6-0.5,1.3-0.8,2-1.2c5.6,4.4,11.1,8.8,16.7,13.2c-1.2,1.5-2.2,1.6-3.5,0.5c-0.4-0.4-0.9-0.7-1.4-1.1c-0.7-0.6-1.3-0.8-2.3-0.2
		c-2.2,1.4-4.5,2.6-6.7,3.9c-0.3,0.2-0.6,0.7-0.6,1.1c0,0.9,0,1.8,0.3,2.6c0.4,1.1,0.1,1.8-1,2.2C-579-222-579.3-221.7-579.8-221.4z
		 M-578.5-229.8c2.5-1.4,4.9-2.8,7.5-4.2c-3-2.4-6-4.8-9.1-7.3C-579.6-237.3-579.1-233.6-578.5-229.8z"/>
	<path class="st3" d="M-653.6-216.7c0.1,0.8,0.3,1.4,0.4,2.1c-3.5,0.5-6.9,1.1-10.5,1.7c0.3,2.1,0.6,4.2,0.9,6.4
		c3.5-0.5,6.9-1.1,10.4-1.6c0.1,0.7,0.2,1.3,0.3,2.1c-3.4,0.5-6.8,1.1-10.3,1.6c0.4,2.3,0.7,4.6,1.1,6.9c3.3-0.5,6.5-1.1,9.7-1.6
		c0.3,0,0.8,0.3,0.9,0.6c0.2,0.4,0.1,0.8,0.1,1.4c-4.2,0.7-8.5,1.3-12.8,2c-1-6.6-2.1-13.1-3.1-19.7
		C-662.1-215.4-657.9-216.1-653.6-216.7z"/>
	<path class="st3" d="M-726.4-214.8c0.9,0.1,1.7,0.2,2.5,0.4c-0.1,1.2-0.3,2.3-0.4,3.4c-0.3,3.2-0.6,6.4-0.7,9.6
		c-0.1,3.2,2.2,5.4,5.4,5.4c3.9,0,5.7-1.8,6-5.7c0.2-2.9,0.6-5.9,0.9-8.8c0.1-1,0.1-1.9,0.2-3c0.9,0.1,1.6,0.2,2.5,0.3
		c-0.1,0.5-0.2,1-0.3,1.6c-0.2,2.2-0.3,4.3-0.5,6.5c-0.3,2.6-0.3,5.3-1.5,7.8c-1.4,2.9-5.5,4-7.9,3.5c-1.6-0.4-3.3-0.6-4.7-1.7
		c-1.5-1.2-2.4-2.7-2.4-4.5c0-2.6,0.3-5.2,0.4-7.7C-726.8-210.1-726.6-212.3-726.4-214.8z"/>
	<path class="st3" d="M-729.7-215.1c-0.1,0.7-0.2,1.4-0.4,2.1c-2.1-0.4-4-0.7-6.2-1.1c-1,5.8-2.1,11.7-3.1,17.6
		c-0.4-0.1-0.5-0.1-0.7-0.2c-1.8-0.5-1.7-0.5-1.3-2.5c0.9-4.7,1.7-9.5,2.5-14.2c0.1-0.3,0.1-0.7,0.1-1.1c-2-0.3-4-0.7-6.1-1.1
		c0.1-0.7,0.2-1.3,0.4-2.1C-739.6-216.9-734.7-216-729.7-215.1z"/>
	<path class="st3" d="M-838.3-236.2c-3.2-2.3-6.3-4.5-9.5-6.8c0.9-1.4,1.8-2.7,2.8-4c2.5-3.5,5-7,7.5-10.5c1.2-1.8,1.2-1.8,3.2-0.4
		c-1.7,2.4-3.3,4.8-5,7.2c-1.7,2.4-3.5,4.8-5.3,7.3c2.5,1.8,5,3.6,7.6,5.4C-837.5-237.3-837.9-236.8-838.3-236.2z"/>
	<path class="st3" d="M-857.7-253.5c2.3,1.9,4.7,3.8,7.1,5.8c-0.4,0.6-0.8,1.1-1.3,1.7c-3.1-2.5-6-4.9-9.1-7.4
		c4.2-5.1,8.3-10.2,12.6-15.4c0.6,0.5,1.3,0.9,1.9,1.5C-850.2-262.7-853.9-258.1-857.7-253.5z"/>
	<path class="st3" d="M-854.2-274.1c0.7,0.5,1.3,1,1.9,1.5c-4.5,5-8.9,9.9-13.3,14.8c-0.7-0.5-1.3-1-1.9-1.5
		C-863.1-264.2-858.6-269.1-854.2-274.1z"/>
	<path class="st3" d="M-823.2-250.2c0.7,0.5,1.4,0.8,2.1,1.3c-3.6,5.6-7.1,11.2-10.8,16.8c-0.7-0.4-1.3-0.8-2.1-1.3
		C-830.3-239-826.8-244.6-823.2-250.2z"/>
	<path class="st3" d="M-539.3-247.7c-0.7,0.5-1.4,1.4-2,1.3c-0.6-0.1-1-1.1-1.5-1.7c-2.2-2.8-4.4-5.6-6.6-8.3
		c-1.4-1.8-2.8-3.6-4.2-5.5c0.6-0.5,1.3-1,1.9-1.5C-547.5-258.2-543.4-253-539.3-247.7z"/>
	<path class="st3" d="M-766.4-385.7c2-5.1,3.9-10,5.8-14.9c2.3-5.9,4.6-11.9,6.8-17.8c2.2-5.6,4.4-11.3,6.5-16.9
		c2.3-5.9,4.5-11.7,6.8-17.6c2.8-7.3,5.7-14.6,8.5-22c2.5-6.4,4.9-12.8,7.3-19.1c3-7.7,6-15.4,9-23.1c0.8-2.2,0.9-2.2,3.2-2.2
		c10.7,0,21.4,0,32.2,0c0.8,0,1.2,0.2,1.5,1.1c4.2,11.1,8.6,22.1,12.8,33.2c4.1,10.8,8.2,21.6,12.3,32.3c3.2,8.3,6.5,16.6,9.7,24.9
		c2.6,6.6,5,13.3,7.6,19.9c2.6,6.9,5.3,13.8,8,20.6c0.2,0.5,0.3,1,0.5,1.6c-0.4,0-0.8,0-1.1,0c-10.1,0-20.2,0-30.2,0
		c-0.9,0-1.3-0.2-1.6-1.1c-1.6-4.4-3.2-8.9-4.8-13.3c-0.9-2.5-1.8-5-2.7-7.5c-0.3-0.8-0.9-0.7-1.4-0.7c-9.3,0-18.6,0-28,0
		c-8.8,0-17.7,0-26.5,0c-1,0-1.4,0.3-1.8,1.3c-2.4,6.8-5,13.6-7.5,20.3c-0.2,0.5-0.4,1-1.2,1c-10.4,0-20.8,0-31.2,0
		C-765.9-385.7-766-385.7-766.4-385.7z M-676.3-433.4c-6.8-18.9-13.6-37.8-20.5-56.9c-6.9,19.1-13.7,38-20.5,56.9
		C-703.7-433.4-690.1-433.4-676.3-433.4z"/>
</g>
</svg>
