<?xml version="1.0" encoding="utf-8"?>
<!-- Generator: Adobe Illustrator 24.1.3, SVG Export Plug-In . SVG Version: 6.00 Build 0)  -->
<svg version="1.1" id="Layer_1" xmlns="http://www.w3.org/2000/svg" xmlns:xlink="http://www.w3.org/1999/xlink" x="0px" y="0px"
	 viewBox="0 0 400 400" style="enable-background:new 0 0 400 400;" xml:space="preserve">
<style type="text/css">
	.st0{display:none;}
	.st1{display:inline;fill:#222222;}
	.st2{fill:#E5E5E5;}
	.st3{fill:#222222;}
</style>
<g class="st0">
	<path class="st1" d="M354,205.7c-0.1,1.6-0.2,3.1-0.3,4.7c-0.8,13.6-3.2,26.9-7.6,39.7c-14.4,42-41.6,72.7-81.7,91.9
		c-12.9,6.2-26.6,10.1-40.7,12.2c-10,1.5-20,2-30,1.4c-31.8-1.8-60.3-12.4-85.3-32c-27.7-21.8-45.8-49.9-54.7-84
		c-2.5-9.6-3.9-19.3-4.5-29.2c-0.6-9.2-0.3-18.4,0.8-27.6c3.4-28.5,13.7-54.3,31.3-77.1c20-25.8,45.6-43.6,76.9-53.2
		c10.3-3.1,20.9-5.1,31.6-5.9c46.3-3.5,91.2,14.1,122.7,48.2c18.8,20.4,31.3,44.1,37.6,71.1c2.2,9.6,3.5,19.3,3.8,29.1
		c0,0.4,0.1,0.8,0.1,1.2C354,199.4,354,202.6,354,205.7z M350.6,199.7c-0.2-3.4-0.4-8.2-0.8-12.9c-0.7-9.1-2.4-18-4.8-26.8
		c-12.1-43.7-42.8-78.9-81.9-96.9c-17.5-8-35.9-12.5-55.1-13.3c-13.4-0.6-26.7,0.5-39.8,3.6c-31.2,7.4-57.4,23.2-78.4,47.4
		c-23.9,27.5-36.1,59.7-37.3,96.1c-0.5,14.9,1.2,29.7,5.2,44.1c8.4,30.8,24.8,56.6,49.3,77c25.6,21.3,55.1,32.7,88.4,34.2
		c13.9,0.6,27.5-0.7,41-4c31.1-7.7,57.1-23.8,77.9-48.2C338.3,271.5,350.1,238.3,350.6,199.7z"/>
	<path class="st1" d="M46,100.5c0.7-1,1.5-2,2.2-2.9c1.8-2.5,3.5-5.2,5.6-7.5c2.1-2.5,5.7-2.8,8.2-0.5c1.6,1.5,2,3.2,1.6,5.2
		c0.9-0.3,1.8-0.5,2.7-0.8c1.5-0.5,2.9,0.2,4,1c1.3,0.9,2.2,2.1,2.5,3.8c0.3,1.7-0.2,3.2-1.1,4.5c-2.3,3.4-4.7,6.7-7.1,10
		c-0.3,0.4-0.5,0.3-0.8,0.1c-3-2.2-6-4.4-9.1-6.5c-2.8-2-5.6-4.1-8.5-6.1c-0.1-0.1-0.2,0-0.3-0.1C46,100.7,46,100.6,46,100.5z
		 M63.8,107.5c0.5-0.6,0.9-1.2,1.3-1.7c0.9-1.4,1.9-2.7,2.8-4.1c0.6-1.1,0.3-2.5-0.7-3.1c-1.1-0.7-2.3-1.1-3.4,0.2
		c-1.5,1.8-2.8,3.7-4.3,5.6C61,105.4,62.4,106.5,63.8,107.5z M56.2,101.9c0.1-0.1,0.3-0.2,0.4-0.4c1-1.4,2.1-2.8,3.1-4.3
		c0.4-0.6,0.7-1.3,0.7-2c-0.1-1-0.7-1.8-1.7-2.2c-0.9-0.3-2,0-2.7,0.9c-1.2,1.5-2.3,3.1-3.4,4.7c-0.2,0.3-0.2,0.6,0.1,0.8
		C53.8,100.3,55,101.1,56.2,101.9z"/>
	<path class="st1" d="M195.3,15.9c1,0.2,2,0.4,2.9,0.7c4.2,1.4,6.7,4.4,7.5,8.8c0.6,3.1,0.1,6.1-1.6,8.8c-1.8,2.8-4.4,4.3-7.6,4.8
		c-3.4,0.6-6.6,0.1-9.4-2c-2.5-1.8-3.9-4.3-4.4-7.3c-0.4-2.4-0.2-4.8,0.8-7.1c1.2-2.7,3.1-4.6,5.8-5.7c1.2-0.5,2.5-0.6,3.8-0.9
		c0.1,0,0.2-0.1,0.2-0.2C193.9,15.9,194.6,15.9,195.3,15.9z M201.1,27.5c0-0.3-0.1-0.8-0.2-1.3c-0.5-4.2-4.5-6.9-8.9-5.6
		c-2.7,0.8-4.1,2.9-4.5,5.7c-0.4,3.1,0.3,5.6,2.8,7.6c1.9,1.5,5.4,1.6,7.4,0.3C200,32.7,201,30.4,201.1,27.5z"/>
	<path class="st1" d="M199.8,384.1c-1.1-0.5-2.1-0.9-3.2-1.4c-0.1,0-0.2-0.1-0.3-0.2c-0.8-0.7-0.8-0.7-0.1-1.5
		c0.1-0.1,0.2-0.3,0.3-0.4c0.7,0.5,1.4,1.1,2.2,1.4c1.4,0.6,2.9,0.9,4.4,0.1c0.8-0.4,1.3-1,1.3-2c0-0.9-0.6-1.5-1.3-1.8
		c-1.4-0.6-2.8-1-4.2-1.5c-1.3-0.5-2.4-1.2-2.6-2.7c-0.3-2,0.6-3.4,2.5-4.1c2.4-0.9,5.7-0.3,7.3,1.7c-0.4,0.4-0.7,0.7-1.1,1.2
		c-0.9-1.1-2.1-1.5-3.5-1.7c-1-0.2-1.9,0-2.7,0.6c-1,0.8-1.3,2.2,0.2,3.1c0.8,0.5,1.8,0.7,2.7,1c0.7,0.2,1.4,0.4,2,0.7
		c2,0.8,2.7,2.5,2.5,3.8c-0.3,1.9-1,2.9-3.3,3.6c-0.1,0-0.3,0.1-0.4,0.2C201.6,384.1,200.7,384.1,199.8,384.1z"/>
	<path class="st1" d="M339.4,100.3c3.8-3,7.4-5.8,11.1-8.7c1,1.3,2,2.5,2.9,3.8c-5.9,4.6-11.7,9.2-17.7,13.8
		c-0.4-0.4-0.8-0.9-1.1-1.3c-0.3-0.4-0.7-0.9-1-1.3c-0.5-0.6-0.8-1.1-0.5-2c1.6-5.4,3.1-10.8,4.6-16.2c0,0,0-0.1-0.1-0.2
		c-3.8,3-7.6,6-11.4,8.9c-1-1.3-2-2.5-2.9-3.7c5.9-4.6,11.8-9.2,17.7-13.9c0.9,1.2,1.8,2.3,2.7,3.5c0.2,0.2,0.3,0.6,0.2,0.8
		c-1.4,5.3-2.9,10.5-4.4,15.7C339.5,99.7,339.5,99.9,339.4,100.3z"/>
	<path class="st1" d="M178.7,40.1c-1.4,0.3-2.7,0.4-4,0.9c-1.6,0.6-2.1-0.6-2.8-1.4c-1.2-1.4-2.5-2.7-3.5-4.2
		c-0.8-1.3-1.8-1.1-2.9-0.8c-0.5,0.1-1,0.2-1.6,0.4c0.5,2.6,1.1,5.2,1.6,7.8c-1.4,0.3-2.8,0.6-4.2,0.9c-0.2,0-0.5-0.3-0.6-0.5
		c-0.9-4.6-1.8-9.1-2.7-13.7c-0.5-2.4-1-4.8-1.5-7.2c0-0.2,0-0.3,0-0.6c2.7-0.5,5.3-1.1,8-1.6c1.2-0.2,2.3-0.6,3.5-0.6
		c2.3-0.1,4.4,0.5,6,2.4c1.7,2,2.5,5.8,1,8.2c-0.6,0.9-1.4,1.7-2.3,2.4c-0.5,0.4-0.5,0.6-0.1,1c1.3,1.4,2.6,2.8,3.9,4.3
		C177.1,38.4,177.8,39.2,178.7,40.1z M161.9,24.8c0.4,2,0.8,4,1.2,6c0.5-0.1,1.1-0.2,1.6-0.3c1.5-0.4,3.1-0.7,4.5-1.2
		c1.5-0.5,2-2.1,1.4-3.7c-0.4-1.2-2.2-2.1-3.5-1.8C165.4,24.1,163.7,24.4,161.9,24.8z"/>
	<path class="st1" d="M319,85c-6.4,0.1-12.3-5.8-12.1-12.1c0.2-6.2,5.4-11.7,11.8-11.6c6.4,0.1,11.9,5.5,12,11.9
		C330.7,79.5,325.2,84.9,319,85z M311.6,73.8c-0.3,3.5,3.3,6.8,6.8,6.7c3.3-0.1,6.6-3,7.4-6.5c1-4.2-2.8-8.8-7.8-8
		C314.8,66.5,311.4,70.1,311.6,73.8z"/>
	<path class="st1" d="M240.4,29.6c3.5,0.9,7,1.7,10.6,2.6c-0.3,1.2-0.6,2.4-0.9,3.6c-0.1,0.5-0.5,0.4-0.8,0.3
		c-3.3-0.8-6.6-1.6-9.9-2.4c-0.4,1.7-0.8,3.3-1.2,5c3.4,0.8,6.7,1.6,10.1,2.4c0.5,0.1,0.7,0.2,0.5,0.8c-0.3,1.1-0.5,2.2-0.8,3.4
		c-1.4-0.3-2.7-0.6-4.1-1c-3.6-0.9-7.2-1.8-10.8-2.6c-0.4-0.1-0.5-0.2-0.4-0.7c0.9-3.6,1.8-7.3,2.7-10.9c0.8-3.5,1.7-7,2.5-10.4
		c5,1.2,9.9,2.4,14.9,3.6c0.5,0.1,0.6,0.3,0.5,0.8c-0.3,1-0.5,1.9-0.7,2.9c-0.1,0.5-0.2,0.6-0.7,0.4c-3.2-0.8-6.4-1.5-9.6-2.3
		c-0.6-0.2-0.8,0-0.9,0.6C241.1,27,240.7,28.3,240.4,29.6z"/>
	<path class="st1" d="M79,88.2c2.7-2.8,5.3-5.5,8-8.4c0.9,1.1,1.7,2.1,2.7,3.2c-3.4,3.6-7,7.4-10.7,11.3c-0.1-0.1-0.2-0.1-0.3-0.2
		c-1.7-1.6-3.4-3.3-5.1-4.9c-2.6-2.5-5.1-4.9-7.7-7.4c-1.1-1-2.1-2-3.3-3c3.7-3.9,7.3-7.7,11-11.5c1,0.9,2.1,1.9,3.1,2.8
		c-2.6,2.7-5.1,5.4-7.4,7.7c1,1.3,2,2.5,3,3.7c2.7-2.8,5.1-5.4,7.6-7.9c1,0.9,2,1.9,3.1,2.8c-2.5,2.7-5,5.3-7.5,7.9
		C76.7,85.7,77.8,86.9,79,88.2z"/>
	<path class="st1" d="M90.8,73.3c2.1,0.2,4.1-0.2,5.9-1.3c1-0.6,1.9-1.5,2.7-2.4c0.6-0.6,0.8-1.5,0.5-2.4c-0.4-0.9-1.2-1.4-2.2-1.1
		c-1.2,0.4-2.3,0.9-3.5,1.3c-1.7,0.6-3.4,1.4-5.2,1.9c-3.4,0.8-6.2-1.7-6.9-4.6c-0.6-2.7,0.4-4.9,2.2-6.9c1.8-1.9,3.9-3.2,6.4-3.9
		c1.2-0.3,2.4-0.4,3.8-0.6c0,1.6,0,3.1,0,4.5c-2.9,0.1-5.5,0.9-7.5,3.3c-1.1,1.3-0.6,3.1,0.8,3.3c0.6,0.1,1.3-0.2,1.9-0.4
		c1.8-0.7,3.5-1.5,5.3-2.2c2-0.8,4-1.1,6-0.1c2.4,1.3,4.2,4.7,3.3,7.7c-0.8,2.3-2.3,4-4.2,5.5c-1.6,1.3-3.5,2.3-5.5,2.7
		c-1.1,0.2-2.2,0.2-3.3,0.3c-0.2,0-0.5-0.2-0.5-0.4C90.8,76,90.8,74.6,90.8,73.3z"/>
	<path class="st1" d="M131.8,29.6c2.9-1,5.7-2,8.5-3c1.6-0.6,3.1-1.2,4.8-1c2,0.2,3.7,1,5,2.6c1.1,1.5,1.7,3.1,1.6,4.9
		c-0.1,2.7-1.3,4.7-3.7,5.9c-2.2,1.1-4.5,1.8-6.9,2.7c0.9,2.4,1.7,4.9,2.6,7.5c-1.5,0.5-3,1.1-4.5,1.6
		C136.8,43.8,134.3,36.7,131.8,29.6z M139.8,37.8c1.9-0.7,3.8-1.4,5.6-2.2c1.3-0.6,1.9-2.3,1.3-3.7c-0.5-1.2-1.6-2.2-3.2-1.8
		c-1.8,0.5-3.6,1.1-5.4,1.7c-0.1,0-0.3,0.3-0.2,0.4C138.4,34.1,139.1,35.9,139.8,37.8z"/>
	<path class="st1" d="M278.7,38.4c-1.5,0.1-3,0.2-4.4,0.4c-0.6-2.7-2-4.6-4.7-5.3c-2.2-0.6-4.1-0.2-5.9,1.2c-2.6,2-3.8,5.6-2.7,8.7
		c1.2,3.5,5.2,5.6,8.8,4c0.5-0.2,0.9-0.6,1.4-0.9c1,1.1,2,2.2,3,3.3c-3.8,3.1-8.6,3.5-13.5,0.1c-4.4-3.1-6-8-4.2-13.3
		c0.9-2.5,2.4-4.6,4.7-6c1.9-1.2,4-1.9,6.2-1.7C274.5,29.4,277.9,33.2,278.7,38.4z"/>
	<path class="st1" d="M218.6,21.2c-2.2-0.2-4.3-0.5-6.5-0.7c0.1-1.3,0.3-2.7,0.4-4.2c5.9,0.6,11.8,1.3,17.8,1.9
		c-0.1,0.8-0.1,1.6-0.2,2.4c0,0.3-0.1,0.7-0.1,1c0.1,0.8-0.3,0.9-0.9,0.8c-1.7-0.2-3.5-0.5-5.2-0.6c-0.2,0-0.6,0.4-0.6,0.6
		c-0.2,1.2-0.2,2.4-0.4,3.6c-0.2,1.9-0.4,3.8-0.6,5.7c-0.1,1.3-0.2,2.5-0.4,3.8c-0.2,1.5-0.3,3-0.5,4.4c-1.6-0.2-3.1-0.3-4.8-0.5
		C217.3,33.3,218,27.3,218.6,21.2z"/>
	<path class="st1" d="M114,38c0.7,1.2,1.4,2.4,2.1,3.6c-1.7,1-3.3,2-4.9,3c-0.5,0.3-0.6,0.4-0.3,1c3,5,6,10,9.1,15.1
		c-1.3,0.8-2.7,1.6-4.1,2.5c-1.2-2-2.3-3.9-3.5-5.8c-1.9-3.1-3.7-6.2-5.6-9.3c-0.2-0.4-0.5-0.5-0.9-0.3c-1.7,1-3.4,2.1-5,3.1
		c-0.7-1.2-1.5-2.4-2.2-3.6C103.7,44.2,108.8,41.1,114,38z"/>
	<path class="st1" d="M284.9,61.7c-1.4-0.8-2.8-1.6-4.1-2.4c3.1-5.3,6.1-10.5,9.2-15.8c-1.9-1.1-3.8-2.2-5.7-3.3
		c0.7-1.2,1.4-2.4,2.1-3.6c5.2,3,10.3,6,15.5,9c-0.7,1.2-1.4,2.4-2.1,3.6c-1.9-1.1-3.7-2.1-5.7-3.3C291,51.2,288,56.5,284.9,61.7z"
		/>
	<path class="st1" d="M307.5,49.7c1.3,0.9,2.6,1.9,3.9,2.8c-2.9,4.1-5.8,8.1-8.7,12.2c-1.3,1.8-2.6,3.7-4,5.5
		c-0.3,0.4-0.6,0.5-1.1,0.1c-0.9-0.7-1.8-1.4-2.7-2c-0.4-0.3-0.4-0.5-0.1-0.9c1.3-1.8,2.6-3.6,3.9-5.4c2-2.7,3.9-5.5,5.9-8.2
		C305.5,52.4,306.5,51.1,307.5,49.7z"/>
	<path class="st1" d="M214.4,369.4c2.3-0.2,4.5-0.5,6.8-0.6c1.8-0.1,3.1,0.8,3.5,2.5c0.4,1.3,0.1,3.2-1.7,3.9c0,0,0,0.1-0.1,0.2
		c1.4,0.3,2.4,1.2,2.8,2.6c0.5,2.4-0.4,4-2.7,4.5c-2.2,0.5-4.5,0.6-6.7,0.9c-0.2,0-0.5-0.4-0.6-0.6c-0.3-2.3-0.5-4.6-0.7-7
		c-0.2-1.8-0.4-3.6-0.7-5.4C214.4,370.1,214.4,369.8,214.4,369.4z M217.4,381.6c1.5-0.1,2.8-0.3,4.2-0.4c1.4-0.2,2.5-0.9,2.4-2.7
		c-0.1-1.3-1.2-2.3-2.5-2.2c-1.5,0.1-3.1,0.3-4.7,0.5C217,378.5,217.2,380,217.4,381.6z M216.2,370.8c0.2,1.6,0.4,3,0.5,4.5
		c1.5-0.2,2.9-0.3,4.3-0.5c1.2-0.1,2.2-1.2,2.1-2.3c-0.1-1.4-1.3-2.4-2.6-2.3C219.1,370.4,217.7,370.6,216.2,370.8z"/>
	<path class="st1" d="M180.4,374.1c0,2.9-1,5.1-3.2,6.6c-4,2.8-10.3,0.2-10.7-5c-0.2-2.6,0.4-4.8,2.2-6.6c1.9-1.9,4.2-2.1,6.6-1.5
		C178.4,368.3,180.6,371,180.4,374.1z M173.5,368.8c-1.3-0.1-2.5,0.4-3.3,1.2c-1.7,1.8-2.4,4-1.7,6.4c0.9,3.5,5,4.9,7.7,2.9
		c2.1-1.5,2.6-3.7,2.4-6.1C178.3,370.5,176,368.8,173.5,368.8z"/>
	<path class="st1" d="M250.7,377.1c-3,0.8-6,1.5-8.9,2.3c-1.1-4.3-2.2-8.7-3.3-13c-0.1-0.5,0-0.6,0.4-0.7c2.8-0.7,5.5-1.4,8.3-2.1
		c0.1,0.5,0.2,1,0.3,1.5c-2.4,0.6-4.8,1.2-7.2,1.9c0.4,1.3,0.7,2.6,1,3.9c0.1,0.4,0.3,0.5,0.7,0.4c2.2-0.6,4.3-1.1,6.5-1.7
		c0.1,0.5,0.3,1,0.4,1.5c-2.4,0.6-4.7,1.2-7.1,1.8c0.4,1.6,0.8,3.1,1.2,4.7c2.4-0.6,4.7-1.2,7.2-1.8
		C250.4,376.1,250.5,376.5,250.7,377.1z"/>
	<path class="st1" d="M182.3,381c0.3-0.4,0.7-0.8,1-1.3c1.4,1.9,4.1,2.8,6.1,2.2c0.8-0.3,1.5-0.8,1.7-1.7c0.2-1-0.1-1.8-1.1-2.2
		c-1.2-0.5-2.4-1-3.6-1.6c-0.7-0.4-1.5-0.8-2.1-1.3c-1.7-1.4-1.1-4.2,0.8-5.3c2.3-1.4,6.4-0.6,8.1,1.6c-0.4,0.4-0.7,0.7-1.1,1.1
		c-1.3-1.6-3.1-2.1-5.1-1.8c-1,0.1-1.8,0.9-1.9,1.8c-0.1,0.8,0.6,1.6,1.6,2.1c1.5,0.6,3,1.2,4.5,2c1.4,0.7,1.8,2,1.7,3.5
		c-0.2,1.3-0.9,2.4-2.1,3C188.2,384.3,184,383.4,182.3,381z"/>
	<path class="st1" d="M156.5,363.6c2.1,0.6,4,1,5.8,1.6c1.9,0.6,3.2,2.3,3,4c-0.4,2.7-1.5,4-4,4.2c-1.1,0.1-2.3-0.4-3.5-0.7
		c-1.8-0.4-1.8-0.5-2.3,1.2c-0.4,1.2-0.6,2.5-1,3.7c-0.5-0.1-1.1-0.2-1.7-0.4C154.1,372.7,155.3,368.2,156.5,363.6z M156.4,370.7
		c1.3,0.3,2.5,0.5,3.6,0.9c1.4,0.4,2.8-0.3,3.3-1.7c0.5-1.5-0.2-3-1.8-3.4c-1.2-0.4-2.4-0.6-3.8-1
		C157.3,367.2,156.9,368.9,156.4,370.7z"/>
	<path class="st1" d="M231.6,379.7c1.5-0.3,2.9-0.5,4.4-0.8c0.3-0.1,0.7-0.1,1-0.2c1.1-0.3,1.4,0,1.3,1c0,0.1-0.2,0.3-0.4,0.4
		c-2.5,0.5-5,0.9-7.5,1.4c-0.1,0-0.2,0-0.3,0c-0.8-4.5-1.7-9.1-2.5-13.7c0.6-0.1,1.1-0.2,1.7-0.3
		C230.1,371.5,230.8,375.6,231.6,379.7z"/>
	<path class="st1" d="M209.1,369.6c0.6,0,1.1,0,1.7,0c0.1,1,0.2,2,0.2,3c0.1,1.8,0.1,3.5,0.2,5.3c0.1,1.7,0.2,3.3,0.3,5
		c0,0.2,0,0.4,0,0.6c-0.6,0-1,0-1.7,0C209.5,378.9,209.3,374.3,209.1,369.6z"/>
	<path class="st1" d="M133.1,123.9c5.5,4.4,11.4,7.5,17.8,9.8c7.3,2.6,14.8,3.6,22.6,2.7c10.2-1.3,19.1-5.4,27.2-11.7
		c0.2-0.1,0.4-0.3,0.5-0.4c0.3-0.4,0.5-0.3,0.9,0c4.6,3.9,9.8,6.8,15.3,9c3.5,1.4,7.1,2.4,10.8,3s7.5,0.7,11.2,0.3
		c10.3-1,19.5-4.7,28-10.6c0.9-0.6,1.7-1.3,2.7-2c0,0.4,0.1,0.6,0.1,0.9c0,31.9,0,63.8-0.1,95.7c0,4.7-0.6,9.3-1.5,13.9
		c-2.2,11.3-7.6,20.9-15,29.6c-9.9,11.6-21.9,20.5-35.8,26.9c-5,2.3-10.2,4.3-15.6,5.7c-0.4,0.1-1,0.1-1.4,0c-5-1.3-9.8-3-14.4-5.1
		c-14.3-6.4-26.7-15.5-36.9-27.5c-5.4-6.3-9.8-13.2-12.6-21.1c-1.4-3.9-2.3-7.9-2.9-11.9c-1-6.8-1-13.7-1-20.6c0-28.5,0-57,0-85.4
		C133,124.7,133.1,124.4,133.1,123.9z"/>
</g>
<circle class="st2" cx="200" cy="201.2" r="158.5"/>
<g>
	<path class="st3" d="M210.1,7.2c0.9,0.1,1.8,0.4,2.7,0.4c1.4,0,2.2,0.5,2.9,1.8c2.5,4.2,5.1,8.4,7.6,12.5c0.2,0.4,0.5,0.7,1.1,1.4
		c0.5-5.1,0.9-9.7,1.3-14.5c1.6,0.1,3.1,0.2,4.9,0.4c-0.7,7.8-1.4,15.5-2,23.3c-1.5-0.1-2.7-0.1-3.9-0.2c-0.9,0-1.3-0.8-1.6-1.4
		c-2.5-4.2-5.1-8.4-7.6-12.5c-0.4-0.6-0.8-1.3-1.4-1.9c-0.8,4.8-1,9.7-1.6,14.7c-1.6-0.1-3.2-0.3-4.8-0.4c0.2-2.2,0.3-4.2,0.4-6.2
		c0.3-3.8,0.7-7.6,1-11.4c0.2-2,0.4-4,0.6-5.9C209.9,7.2,210,7.2,210.1,7.2z"/>
	<path class="st3" d="M11.9,167.5c0.2-0.4,0.6-0.8,0.7-1.3c1-4.4,1.9-8.7,2.9-13.1c0.1-0.5,0.2-0.9,0.4-1.5c1.4,0.3,2.7,0.6,4.1,0.9
		c-0.8,3.8-1.6,7.5-2.4,11.4c1.6,0.4,3.1,0.7,4.9,1.1c0.8-3.7,1.6-7.3,2.4-10.9c1.5-0.2,2.8,0.4,4.2,0.6c-0.8,3.8-1.6,7.4-2.4,11.2
		c1.8,0.4,3.4,0.7,5.3,1.1c0.8-3.8,1.6-7.4,2.5-11.2c1.5-0.1,2.8,0.4,4.2,0.8c-1.2,5.4-2.3,10.7-3.5,16.1c-1.4-0.3-2.7-0.5-4.1-0.8
		c-6.3-1.4-12.5-2.7-18.8-4.1c-0.2,0-0.3,0-0.5,0C11.9,167.7,11.9,167.6,11.9,167.5z"/>
	<path class="st3" d="M388.1,157.5c-2.1,0.6-4.2,1.2-6.4,1.8c0.4,1.9,0.9,3.9,1.4,6c-0.8,0.2-1.5,0.4-2.5,0.7c-0.5-2-1-4-1.6-6.1
		c-2.3,0.5-4.5,1-6.9,1.6c-0.2-0.9-0.5-1.7-0.7-2.8c2.3-0.6,4.5-1.1,6.8-1.7c-0.1-2.1-1-4-1.3-6.1c0.8-0.2,1.6-0.5,2.5-0.7
		c0.5,2,1,4,1.6,6.1c2.2-0.5,4.4-1,6.5-1.5c0.2,0.6,0.4,1.1,0.7,1.7C388.1,156.8,388.1,157.2,388.1,157.5z"/>
	<path class="st3" d="M204.8,392.8c-1.1-1.9-2.2-3.9-3.3-5.8c-0.1-0.2-0.6-0.4-0.9-0.4c-0.6-0.1-1.3,0-2.1,0c-0.1,1-0.3,1.9-0.4,2.8
		c-0.1,0.9,0,1.9,0,2.9c-0.6,0-1,0.1-1.5,0.1c-0.5-4.8,0.3-9.6,0.1-14.6c2.6,0.1,5-0.3,7.5,0.3c1.8,0.4,2.7,1.8,2.8,3.6
		c0.1,2.3-0.7,3.7-2.5,4.4c-0.3,0.1-0.7,0.2-1.2,0.4c1.2,2.1,2.5,4.1,3.7,6.2C206.2,392.8,205.5,392.8,204.8,392.8z M198.4,385.1
		c0.9,0,1.5,0,2.1,0c0.7,0,1.4,0,2.1,0c1.4-0.1,2.4-1.1,2.5-2.5c0.1-1.3-0.5-2.6-1.8-2.9c-1.6-0.4-3.3-0.6-5-0.2
		C198.4,381.4,198.4,383.1,198.4,385.1z"/>
	<path class="st3" d="M362.9,201.1c0,59.6-32.1,114.2-83.9,142.7c-15.9,8.7-32.8,14.5-50.7,17.5c-11.5,1.9-23,2.6-34.6,1.7
		c-47.4-3.4-86-23.8-115.7-60.8c-16.7-20.7-27.1-44.5-32.1-70.6c-2.7-14.4-3.5-28.9-2.3-43.5c2.4-29.4,11.8-56.3,28.7-80.4
		c22.1-31.4,51.6-52.6,88.7-63.1c10.1-2.8,20.3-4.5,30.8-5.2c8.3-0.6,16.5-0.6,24.7,0.2c32.6,3,61.8,14.7,87,35.6
		c29.2,24.1,47.6,54.9,55.7,91.8C361.8,178.1,362.8,189.6,362.9,201.1z M202.3,359.7c3.9-0.2,7.1-0.3,10.3-0.4
		c11.1-0.6,22-2.5,32.7-5.6c27.1-7.8,50.4-21.9,69.8-42.3c25.9-27.2,40.3-59.7,43.6-97.1c1-11.6,0.7-23.2-0.9-34.8
		c-1.7-12.9-5-25.3-9.7-37.4C325.8,85.8,272.8,46,211.3,42.8c-12.9-0.7-25.7,0.1-38.4,2.7c-32.7,6.7-60.5,22.1-83.2,46.5
		C63.3,120.5,49.2,154.3,47,193c-0.8,13.8,0.3,27.6,3.2,41.1c6.4,30,20.1,56.2,41.5,78.1C122.2,343.3,159.4,358.9,202.3,359.7z"/>
	<path class="st3" d="M326.6,51.5c1.8,1.7,3.4,3.2,5,4.8c-1.8,4.7-3.6,9.3-5.6,14.2c4.9-2,9.3-4.3,14-6.3c1.6,1.6,3.3,3.1,5,4.8
		c-5.4,5.7-10.7,11.3-16.1,17c-1.3-1.2-2.4-2.2-3.6-3.4c3.6-3.9,7.2-7.6,11-11.6c-0.6,0.1-0.8,0.1-1,0.2c-4.4,2-8.9,4.1-13.3,6.1
		c-1.7,0.8-1.7,0.8-3-0.9c2-5.1,4-10.3,6-15.5c-4,3.4-7.3,7.4-11.1,11c-1.2-1.1-2.3-2.2-3.5-3.3C315.9,62.9,321.2,57.3,326.6,51.5z"
		/>
	<path class="st3" d="M125.1,33.6c1.9,4.5,3.8,8.9,5.7,13.5c-1.5,0.7-2.9,1.3-4.5,1.9c-3.1-7.2-6.1-14.3-9.2-21.5
		c1.4-0.6,2.7-1.3,4.1-1.8c0.5-0.2,1.3,0.1,1.8,0.4c2.9,1.7,5.8,3.4,8.7,5.1c1.6,1,3.2,1.9,4.9,2.8c0.2,0.1,0.5,0.2,1.1,0.5
		c-2-4.6-3.8-8.9-5.7-13.4c1.5-0.6,2.9-1.3,4.5-1.9c3.1,7.2,6.1,14.3,9.3,21.6c-1.3,0.6-2.6,1.1-3.8,1.7c-0.7,0.3-1.1-0.1-1.6-0.4
		c-4.1-2.4-8.2-4.8-12.3-7.3c-0.8-0.5-1.7-1-2.6-1.5C125.3,33.4,125.2,33.5,125.1,33.6z"/>
	<path class="st3" d="M343,104.2c-0.9-1.4-1.7-2.7-2.7-4.1c6.6-4.2,13.1-8.4,19.7-12.7c1,1.5,1.9,2.8,2.8,4.2
		c-2.1,5.6-4.2,11.2-6.3,16.8c0.1,0.1,0.2,0.1,0.3,0.2c3.9-2.5,7.9-5.1,12-7.7c0.9,1.4,1.7,2.7,2.7,4.1c-6.6,4.2-13.1,8.4-19.7,12.7
		c-0.8-1.3-1.7-2.3-2.3-3.5c-0.2-0.5,0-1.2,0.2-1.8c1.5-4,3.1-8,4.6-12c0.5-1.3,1-2.6,1.5-3.9c-0.1-0.1-0.2-0.2-0.3-0.3
		C351.4,98.9,347.3,101.5,343,104.2z"/>
	<path class="st3" d="M289.2,44.7c-1.4,2.4-2.8,4.7-4.2,7.2c-1.4-0.8-2.8-1.6-4.3-2.4c3.9-6.8,7.8-13.5,11.8-20.3
		c1.3,0.7,2.4,1.4,3.6,2.1c2,1.1,4,2.3,6,3.5c2,1.2,3.5,2.9,4,5.3c0.9,4.8-3.1,9.3-7.9,8.8c-0.3,0-0.6,0-1-0.1c0,3.4,0,6.7,0,10.3
		c-1.6-0.9-3-1.7-4.3-2.5c-0.3-0.2-0.5-0.9-0.5-1.3c0-2.3,0.1-4.6,0.2-6.9c0-0.5,0-0.9,0-1.6C291.5,46,290.5,45.4,289.2,44.7z
		 M294.7,35.3c-1.1,2-2.2,3.7-3.2,5.6c1.8,1,3.5,2,5.2,2.9c1.6,0.8,3.2,0.3,4.1-1.2c0.9-1.5,0.5-3.3-1-4.3
		C298.1,37.3,296.4,36.4,294.7,35.3z"/>
	<path class="st3" d="M277.2,47.4c-1.8-0.7-3.5-1.3-5.2-2c0-1.5,0-2.8,0-4.3c-3-1.2-5.8-2.3-8.6-3.5c-0.6-0.2-1,0-1.4,0.4
		c-0.7,0.8-1.4,1.6-2.2,2.4c-1.7-0.7-3.3-1.3-5.2-2c5.8-6.2,11.4-12.3,17.1-18.5c1.9,0.7,3.8,1.5,5.6,2.2
		C277.2,30.6,277.2,38.8,277.2,47.4z M272.7,26.3c-0.2-0.1-0.3-0.1-0.5-0.2c-2.2,2.5-4.4,5-6.7,7.5c2.1,1.2,5.6,2.5,6.8,2.4
		C272.5,32.9,272.6,29.6,272.7,26.3z"/>
	<path class="st3" d="M113.6,40c0.8,1.3,1.5,2.4,2.3,3.6c-3.2,2-6.3,3.9-9.7,6c0.9,1.5,1.8,3,2.8,4.6c3.3-2,6.6-4,9.9-6.1
		c0.8,1.2,1.5,2.4,2.3,3.7c-4.7,2.9-9.3,5.7-13.8,8.6c-1-0.9-11.2-17.1-12.5-19.9c4.6-2.8,9.2-5.7,14-8.6c0.8,1.2,1.5,2.4,2.3,3.7
		c-3.3,2.1-6.6,4.1-9.9,6.2c0.9,1.5,1.7,2.8,2.7,4.3C107.1,44,110.3,42.1,113.6,40z"/>
	<path class="st3" d="M240.8,30.8c3.8,0.9,7.5,1.8,11.3,2.8c-0.3,1.4-0.7,2.7-1,4.2c-5.4-1.3-10.6-2.5-16.1-3.8
		c1.7-7.7,3.6-15.2,5.4-22.9c5.4,1.3,10.7,2.5,16.1,3.8c-0.3,1.4-0.6,2.7-1,4.2c-3.8-0.9-7.5-1.7-11.3-2.6c-0.4,1.7-0.8,3.2-1.2,4.9
		c3.7,0.9,7.2,1.8,11,2.7c-0.3,1.4-0.6,2.7-0.9,4.2c-3.7-0.9-7.3-1.7-11.1-2.6C241.7,27.3,241.2,29,240.8,30.8z"/>
	<path class="st3" d="M54.1,77.3c1.2,0.9,2.2,1.7,3.4,2.6c-2.3,3.1-4.6,6.1-7,9.3c1.3,1,2.6,2,4,3.1c2.3-3,4.6-6,6.9-9
		c1.1,0.8,2.2,1.6,3.5,2.5c-2.3,3-4.5,6-6.9,9.1c1.4,1.1,2.7,2.1,4.3,3.3c2.4-3.2,4.7-6.2,7.1-9.3c1.1,0.9,2.2,1.7,3.4,2.6
		c-3.3,4.4-6.6,8.7-10,13.2c-6.3-4.8-12.5-9.5-18.7-14.2C47.4,86,50.7,81.7,54.1,77.3z"/>
	<path class="st3" d="M47.5,131c-0.7,1.8-1.2,3.4-1.8,4.9c-0.2,0.7-0.8,0.8-1.4,0.9c-2.6,0.6-5.1,1.3-7.7,2
		c-0.3,0.1-0.6,0.2-1.2,0.4c0.9,1.3,1.6,2.4,2.4,3.5c0.9,1.4,1.9,2.7,2.9,4c0.5,0.6,0.6,1.2,0.3,1.9c-0.6,1.4-1.1,2.8-1.7,4.5
		c-1.4-2-2.7-3.9-3.9-5.7c-1.2-1.7-2.3-3.4-3.5-5.1c-0.9-1.3-0.9-1.3-2.4-0.9c-1.9,0.5-3.9,1-5.8,1.5c-1.9,0.5-3.9,1-6,1.6
		c0.4-1.9,1.1-3.5,1.8-5.1c0.1-0.3,0.7-0.4,1-0.5c2.3-0.6,4.7-1.2,7-1.7c0.4-0.1,0.8-0.2,1.4-0.4c-1.6-2.2-3-4.3-4.6-6.3
		c-0.9-1.1-0.9-2-0.4-3.2c0.5-1.1,0.9-2.3,1.4-3.6c0.4,0.4,0.7,0.7,0.9,1c2.1,3,4.2,6,6.2,9c0.8,1.2,0.9,1.2,2.3,0.9
		c3.9-1,7.8-2.1,11.8-3.1C46.7,131.2,46.9,131.1,47.5,131z"/>
	<path class="st3" d="M43.8,100c0,1.2,0,2.3,0,3.5c0,0.8-0.3,1.2-1.1,1.3c-3.1,0.5-4.9,2.5-5.5,5.4c-0.6,3.1,0.7,5.5,3.1,7.3
		c3.5,2.6,8.1,2.1,10.6-1.1c1.5-1.9,1.9-4,1.1-6.3c-0.1-0.4-0.3-0.8-0.5-1.3c1.2-0.9,2.4-1.7,3.7-2.6c2.8,4.3,2.4,9.9-1.9,14.3
		c-3.5,3.6-8.8,5-14.3,2c-4.7-2.5-7.3-7.5-6.2-12.7C33.7,104.7,37.4,100.1,43.8,100z"/>
	<path class="st3" d="M162,36.1c-1.7,0.4-3.1,0.8-4.8,1.3c-1.6-6.2-3.2-12.2-4.9-18.5c-2.2,0.6-4.3,1.1-6.6,1.7
		c-0.4-1.3-0.7-2.6-1.1-4.2c6-1.6,11.9-3.2,18.1-4.8c0.4,1.5,0.7,2.7,1.1,4.2c-2.2,0.6-4.3,1.2-6.6,1.8
		C158.8,23.7,160.4,29.8,162,36.1z"/>
	<path class="st3" d="M379.4,131.5c-1-2.2-1.9-4.1-2.9-6.2c-5.8,2.6-11.5,5.2-17.4,7.9c-0.7-1.5-1.3-2.9-2.1-4.5
		c5.8-2.7,11.6-5.3,17.4-7.9c-0.9-2.1-1.8-4.1-2.8-6.2c1.3-0.6,2.5-1.2,3.9-1.9c2.6,5.7,5.1,11.3,7.7,17
		C381.9,130.2,380.7,130.8,379.4,131.5z"/>
	<path class="st3" d="M76.4,54.6c1.3-1.1,2.5-2,3.8-3c4,5,8,9.8,12,14.9c2.6-2.1,5.1-4.1,7.8-6.2c0.9,1.1,1.7,2.2,2.7,3.4
		c-3.9,3.1-7.6,6.2-11.5,9.3C86.2,66.8,81.3,60.8,76.4,54.6z"/>
	<path class="st3" d="M83.7,73.6c1.1,1,2.1,1.9,3.2,2.9c-3.5,3.6-6.8,7.2-10.3,10.8c-5.7-5.4-11.3-10.8-17-16.2
		c1.2-1.2,2.4-2.3,3.6-3.4c4.5,4.3,9,8.6,13.7,13C79.1,78.4,81.3,76.1,83.7,73.6z"/>
	<path class="st3" d="M336.3,95.1c-1.1-1.3-2.1-2.5-3.1-3.8c6-5,12-9.9,18.1-14.9c1,1.2,2,2.4,3.1,3.8
		C348.3,85.1,342.4,90,336.3,95.1z"/>
	<path class="st3" d="M122.6,374.4c-0.6-0.3-1-0.5-1.5-0.8c2-4.5,3.9-8.8,5.9-13.3c0.8,0.4,1.5,0.7,2.4,1.1
		c-0.1,3.8-0.2,7.6-0.3,11.8c3.3-2.6,5.8-5.6,8.9-8.1c0.7,0.3,1.4,0.6,2.2,1c-2,4.4-3.9,8.8-5.9,13.3c-0.6-0.3-1-0.5-1.6-0.7
		c1.5-3.5,3-7,4.5-10.4c-3.4,2.6-6.2,5.7-9.5,8.4c-0.7-1.6-0.1-3-0.2-4.4c-0.1-1.3,0-2.7,0-4.1c0-1.4,0.2-2.7,0.3-4.1
		c-0.2,0-0.3-0.1-0.5-0.1C125.7,367.5,124.2,370.8,122.6,374.4z"/>
	<path class="st3" d="M67.6,330.1c3.1-1.7,6.3-3.4,9.4-5.2c0.9-0.5,1.5-0.6,2.1,0.6c-2,3.4-4,6.9-6.1,10.4c0.1,0.1,0.2,0.2,0.2,0.2
		c3.5-1.9,7-3.9,10.7-5.9c0.4,0.4,0.8,0.8,1.3,1.4c-4.6,2.5-9,4.8-13.5,7.2c-0.4-0.5-0.8-1-1.3-1.5c2-3.4,3.9-6.7,5.9-10
		c-0.1-0.1-0.2-0.2-0.2-0.3c-3.4,1.8-6.7,3.7-10.2,5.5c-0.4-0.4-0.9-0.8-1.4-1.3c2.5-4.3,5-8.6,7.6-13.1c0.5,0.5,0.9,0.9,1.4,1.3
		c-2.1,3.5-4.1,6.9-6.2,10.3C67.4,329.9,67.5,330,67.6,330.1z"/>
	<path class="st3" d="M220.9,388.4c-0.3-3.8-0.5-7.4-0.7-10.9c1.5-0.8,1.7-0.7,1.8,0.8c0.2,3.6,0.5,7.3,0.8,10.9c0,0.7,0,1.4,0,2.1
		c-1.4,0.6-1.4,0.6-2.2-0.4c-2.6-3-5.1-6-7.7-9c-0.2-0.3-0.5-0.5-1.1-1.1c0.3,4.1,0.5,7.8,0.8,11.6c-0.6,0-1.1,0-1.7,0
		c-0.4-4.8-0.7-9.5-1.1-14.1c1.7-0.6,1.7-0.6,2.7,0.6c2.5,2.9,4.9,5.7,7.4,8.5C220.1,387.7,220.5,387.9,220.9,388.4z"/>
	<path class="st3" d="M328.3,340c-2.5-2.9-4.9-5.6-7.4-8.4c0.3-0.4,0.7-0.8,1.1-1.3c3.3,3.7,6.4,7.2,9.6,10.8c-0.9,1.3-1,1.4-2.6,1
		c-4-0.9-7.9-1.7-11.9-2.6c-0.2,0-0.3,0-0.9-0.1c2.6,3,5.1,5.8,7.8,8.8c-0.4,0.4-0.8,0.8-1.2,1.2c-3.4-3.8-6.6-7.4-9.7-10.9
		c1-1.4,1-1.4,2.6-1.1c3.8,0.8,7.7,1.7,11.6,2.5C327.6,340,327.8,340,328.3,340z"/>
	<path class="st3" d="M295.8,350.9c1.8-1.2,3.4-2.4,5.1-3.4c3.3-1.8,6.4-1,8.7,1.4c2.4,2.6,2.8,6.2,1,8.9c-0.5,0.7-1.1,1.4-1.8,1.9
		c-1.4,1.1-2.9,2-4.5,3.1C301.3,359,298.7,354.9,295.8,350.9z M304.7,360.6c0.9-0.6,1.8-1.2,2.6-1.7c0.4-0.3,0.8-0.7,1.2-1
		c1.8-2,2-4.6,0.4-7c-1.6-2.4-4.3-3.4-6.8-2.3c-1.4,0.6-2.6,1.6-4,2.5C300.4,354.4,302.5,357.5,304.7,360.6z"/>
	<path class="st3" d="M279.1,376.4c-0.5,0.3-0.9,0.5-1.5,0.7c-2.1-4.4-4.1-8.7-6.2-13.3c2.1-1,4.1-2,6.2-2.8
		c1.8-0.7,3.8,0.1,4.8,1.7c1.1,1.9,1.4,3.7-0.4,5.4c-0.2,0.2-0.4,0.4-0.7,0.8c1.9,1.2,3.8,2.4,5.7,3.6c-1,0.9-1.8,1-2.7,0.3
		c-1.1-0.7-2.2-1.3-3.2-2.1c-1-0.8-2-1-3-0.2c-0.3,0.2-0.6,0.3-1.2,0.5C277.5,372.8,278.3,374.5,279.1,376.4z M273.6,364.6
		c0.9,1.8,1.6,3.4,2.4,5.1c1.3-0.6,2.6-1.1,3.8-1.8c1.5-0.8,1.9-2.4,1.2-3.8c-0.7-1.4-2-1.9-3.6-1.3
		C276.2,363.3,275,363.9,273.6,364.6z"/>
	<path class="st3" d="M269.9,373.8c-1.7,0.6-3.1,1.1-4.7,1.7c-0.2-0.5-0.3-0.8-0.6-1.4c2.1-0.8,4.1-1.5,6.3-2.3
		c0.6,1.6,1.2,3,1.6,4.4c0.1,0.4,0,1.1-0.3,1.5c-1.6,2.9-5.3,4.5-8.5,3.7c-3.3-0.8-5.4-3.8-5.7-7.2c-0.4-5.3,5.3-9.1,9.8-7.4
		c0.4,0.1,0.7,0.4,1.2,0.6c-0.3,0.4-0.5,0.8-0.6,0.9c-1.5-0.1-2.8-0.4-4-0.2c-2.3,0.3-3.8,1.8-4.5,4c-1,3.4,1.6,7.4,5.1,7.9
		c1.8,0.2,4.5-1,5.3-2.6c0.2-0.4,0.2-1,0.1-1.5C270.6,375.3,270.2,374.6,269.9,373.8z"/>
	<path class="st3" d="M242.7,388.2c-0.5,0.2-1,0.3-1.6,0.5c-1.1-4.7-2.2-9.3-3.3-14c0.4-0.2,0.7-0.4,1.1-0.5
		c1.8-0.4,3.5-0.9,5.3-1.1c1.7-0.3,3.1,0.3,4.1,1.9c0.9,1.5,1.1,3.1,0.1,4.7c-0.5,0.7-1.2,1.2-2,2c1.5,1.5,3.1,3,4.8,4.6
		c-1.2,0.7-2.1,0.5-2.9-0.4c-1.2-1.3-2.6-2.5-3.9-3.8c-1,0.2-1.8,0.5-2.9,0.7C241.9,384.5,242.3,386.3,242.7,388.2z M241.1,381.1
		c1.6-0.4,3.1-0.7,4.5-1.2c1.2-0.4,1.8-1.8,1.6-3c-0.2-1.2-1.2-2.2-2.3-2.3c-1.8-0.1-3.4,0.4-5,1
		C240.2,377.5,240.6,379.1,241.1,381.1z"/>
	<path class="st3" d="M334.7,329.9c-0.4-0.6-0.6-0.9-0.9-1.4c1.4-1.5,2.9-3.1,4.5-4.7c1.1,1,2.1,1.9,3.1,2.8c0.5,0.5,0.7,1,0.7,1.7
		c0,5-5.5,8.8-10.1,6.9c-2.9-1.2-4.7-3.3-5.1-6.5c-0.3-3.2,1.2-5.6,3.8-7.2c1.2-0.7,2.5-1.1,3.8-0.8c0.3,1.1-0.1,1.4-1.1,1.5
		c-3,0.5-5.1,2.8-4.9,5.7c0.1,2.5,1.5,4.3,3.7,5.4c2.1,1,4.1,0.8,6-0.6c1.1-0.9,1.7-2,2.1-3.4c0.2-0.7,0.1-1.4-0.6-1.9
		c-0.5-0.4-0.9-0.9-1.5-1.4C337.1,327.3,336.1,328.5,334.7,329.9z"/>
	<path class="st3" d="M151.5,377.2c0.7,1.6,1.4,3.1,2.2,4.9c0.9-1,1.7-1.8,2.5-2.7c0.3,0.2,0.6,0.4,1.1,0.7c-1,1.1-1.9,2-2.9,3.2
		c0.4,0.9,0.9,1.9,1.5,3c-1.7,0.4-2.1-1-2.9-2c-0.6,0.1-1.1,0.3-1.7,0.4c-1.5,0.3-2.9,0.1-4.2-0.7c-1.3-0.8-2.1-1.9-2.1-3.5
		c0.1-1.6,0.8-2.9,2.4-3.6c0.6-0.3,1.3-0.5,2.1-0.8c-0.1-0.6-0.2-1.2-0.2-1.9c-0.1-3.1,2.3-4.7,5.4-3.5c1,0.4,1.6,1.2,1.6,2.3
		c0.1,1.3-0.5,2.3-1.6,2.9C153.8,376.5,152.7,376.8,151.5,377.2z M152.3,382.8c-0.9-1.9-1.7-3.6-2.4-5.3c-1.9,0.5-2.9,1.4-3.1,2.7
		c-0.2,1.1,0.2,2.1,1.1,2.8C149.3,383.9,150.7,383.9,152.3,382.8z M150.9,375.9c1.5-0.3,2.6-0.4,3.4-1.3c0.6-0.7,0.7-1.7,0.3-2.3
		c-0.5-0.7-1.6-0.9-2.4-0.6c-0.8,0.3-1.2,0.9-1.3,1.7C150.9,374.2,150.9,375,150.9,375.9z"/>
	<path class="st3" d="M106.2,365.4c4-3.3,8-6.5,12.1-9.8c0.6,0.3,1.2,0.6,2,1c-0.7,5.1-1.3,10.2-1.9,15.3c-1.7-0.3-1.7-0.3-1.6-1.8
		c0.1-0.7,0.2-1.4,0.3-2.2c-1.9-1.1-3.8-2.2-5.8-3.2c-0.3-0.2-0.9,0-1.3,0.1c-0.4,0.1-0.6,0.5-1,0.8
		C107.7,366.5,107.7,366.5,106.2,365.4z M118.4,358.1c-0.1-0.1-0.2-0.1-0.3-0.2c-2,1.7-4.1,3.4-6.3,5.2c2,1.1,3.7,2,5.6,3
		C117.7,363.3,118,360.7,118.4,358.1z"/>
	<path class="st3" d="M287.2,355.9c0.7-0.4,1.3-0.7,1.9-1.1c4.1,3.2,8.1,6.4,12.3,9.7c-0.6,0.4-1,0.7-1.6,1
		c-0.9-0.7-1.9-1.4-2.9-2.1c-1.8,1-3.6,2.1-5.4,3c-0.7,0.4-1,0.9-0.9,1.7c0.1,0.7,0.2,1.5,0.3,2.3c-0.5,0.3-1,0.6-1.7,1
		C288.6,366.3,287.9,361.2,287.2,355.9z M295.7,362.4c-2.3-1.9-4.3-3.7-6.7-5.3c0.4,3,0.8,5.6,1.2,8.4
		C292.2,364.4,293.8,363.5,295.7,362.4z"/>
	<path class="st3" d="M228.4,384.2c0.3,1.7,0.5,3.3,0.8,5c2.6-0.4,5.1-0.7,7.7-1.1c0,0.6,0.1,0.9,0.1,1.5c-3.1,0.5-6.1,1-9.3,1.5
		c-0.8-4.8-1.5-9.6-2.3-14.4c3.1-0.5,6.1-1,9.2-1.5c0.1,0.4,0.3,0.8,0.4,1.5c-2.6,0.4-5.1,0.8-7.7,1.3c0.2,1.6,0.5,3.1,0.7,4.7
		c2.6-0.4,5-0.7,7.6-1.1c0.1,0.5,0.1,0.9,0.2,1.5C233.4,383.4,230.9,383.8,228.4,384.2z"/>
	<path class="st3" d="M181.2,376.6c0.5,0.1,1,0.1,1.4,0.2c0.1,0.3,0.2,0.4,0.2,0.6c-0.2,2.5-0.4,4.9-0.6,7.4c0,0.5-0.1,0.9-0.1,1.4
		c0,3.9,3.1,4.8,5.8,4.1c1.3-0.3,2.1-1.3,2.3-2.6c0.3-1.7,0.5-3.4,0.6-5.1c0.2-1.6,0.3-3.1,0.5-4.8c0.6,0,1.1,0,1.7,0
		c-0.2,2.3-0.4,4.5-0.6,6.7c-0.1,1.2-0.2,2.3-0.5,3.5c-0.8,3-3.4,4.6-6.5,4c-2-0.4-3.8-1-4.6-3.1c-0.3-0.8-0.6-1.7-0.5-2.6
		C180.6,383.1,181,379.9,181.2,376.6z"/>
	<path class="st3" d="M172.1,376.8c-1.7-0.3-3-0.6-4.5-0.9c0.1-0.5,0.1-0.9,0.2-1.5c3.6,0.6,7.1,1.2,10.7,1.9c0,0.5-0.1,0.9-0.1,1.5
		c-1.6-0.2-3-0.5-4.6-0.7c-0.8,4.3-1.5,8.5-2.3,12.8c-0.6-0.1-1-0.2-1.7-0.3C170.6,385.4,171.3,381.2,172.1,376.8z"/>
	<path class="st3" d="M100.1,343.9c0.5,0.3,0.9,0.6,1.5,0.9c-2.5,3.6-5,7.1-7.5,10.7c1.8,1.3,3.6,2.6,5.4,4
		c-0.3,0.4-0.5,0.8-0.8,1.3c-2.3-1.7-4.6-3.3-7-5C94.5,351.8,97.3,347.9,100.1,343.9z"/>
	<path class="st3" d="M91.3,336.7c0.5,0.5,0.9,0.8,1.3,1.2c-2.7,3.4-5.4,6.7-8.2,10.1c1.7,1.5,3.4,2.8,5.1,4.2
		c-0.7,1.3-0.7,1.4-1.6,0.7c-1.9-1.5-3.8-3.1-5.8-4.8C85.1,344.3,88.2,340.6,91.3,336.7z"/>
	<path class="st3" d="M190.5,21.1c0.1,1.2,0.3,2.4,0.4,3.7c-2.8,0.3-5.5,0.5-8.3,0.8c-0.1-1.2-0.3-2.4-0.4-3.7
		C185.1,21.6,187.7,21.4,190.5,21.1z"/>
	<path class="st3" d="M109.8,350.5c0.6,0.4,1,0.6,1.5,0.9c-2.6,4.1-5.2,8.2-7.8,12.3c-0.5-0.3-0.9-0.6-1.4-0.9
		C104.6,358.6,107.2,354.6,109.8,350.5z"/>
	<path class="st3" d="M87,332.9c0.5,0.4,0.9,0.7,1.4,1.1c-3.2,3.6-6.4,7.1-9.7,10.8c-0.4-0.3-0.9-0.5-1.5-0.9
		C80.5,340.1,83.6,336.6,87,332.9z"/>
	<path class="st3" d="M319.1,352.2c-0.5,0.4-0.9,0.7-1.4,1c-3-3.8-5.9-7.5-9-11.5c0.4-0.4,0.7-0.7,1.2-1.3
		C313,344.5,316,348.3,319.1,352.2z"/>
	<path class="st3" d="M157.6,177.1c-1-0.8-1.8-1.6-2.7-2.2c-4.2-3.2-9-5-14.3-5.3c-4.3-0.3-8.5,0.2-12.4,2c-5.3,2.4-9,6.3-11.6,11.4
		c-2.5,4.8-3.5,9.9-3.2,15.6c0.4-0.4,0.7-0.6,1-0.9c5.6-6.5,12.8-10.2,21.3-11c9-0.8,17.5,1.1,24.8,6.7c6.1,4.6,9.7,10.6,11.1,18.1
		c1.4,7.8,0.7,15.2-2.9,22.3c-3.1,6.1-7.8,10.7-13.9,13.9c-6.2,3.3-12.8,4.7-19.7,4.7c-5.2,0-10.2-0.5-15.1-2.1
		c-9.1-2.9-15.8-8.6-20.6-16.8c-3.5-6-5.4-12.5-6.5-19.3c-0.8-5-1.1-10.1-0.9-15.1c0.4-10.5,2.7-20.5,8.5-29.5
		c5-7.6,11.7-13,20.3-16c6.3-2.2,12.8-3,19.5-2.7c6.6,0.3,12.8,1.7,18.7,4.7c2.5,1.3,4.9,3.1,7.3,4.7c0.3,0.2,0.6,0.4,0.9,0.7
		C164,166.4,160.8,171.7,157.6,177.1z M133.7,233.6c2.8,0.2,5.8-0.5,8.6-1.8c5.1-2.3,9.7-7.9,8.5-15c-0.6-3.6-2.4-6.5-5.3-8.6
		c-3.1-2.2-6.5-3.1-10.2-3.5c-8.4-0.7-15.3,2.2-21,8.3c-0.5,0.6-0.7,1.2-0.5,1.9c0.3,1.4,0.5,2.8,0.9,4.1c1.1,4.1,3.1,7.6,6.4,10.4
		C124.5,232.5,128.7,233.7,133.7,233.6z"/>
	<path class="st3" d="M236.3,237.6c3.9-4.8,7.7-9.7,11.6-14.5c1.7,1.4,3.3,2.8,5,4c5.9,4.3,12.5,6.4,19.8,6.6
		c3.8,0.1,7.5-0.3,11-1.8c10-4.5,10.6-15.8,5.3-21.8c-2.2-2.5-5.1-4-8.3-4.7c-9.4-1.8-18-0.1-25.4,6.3c-0.6,0.5-1.1,1-2,0.8
		c-4.5-1.2-9.1-2.4-13.7-3.6c0-18.9,0-37.6,0-56.6c22.5,0,44.9,0,67.3,0c0.4,1.2,0.6,14.4,0.2,18.4c-5.1,0-10.3,0-15.5,0
		c-5.1,0-10.3,0-15.4,0c-5.2,0-10.3,0-15.6,0c0,7.9,0,15.6,0,23.4c0.3-0.1,0.6-0.1,0.8-0.3c5.5-4.7,11.9-6.8,19-7.2
		c7.3-0.4,14,1.3,20.1,5.3c7.1,4.7,11.2,11.5,12.7,19.8c1.3,7.2,0.7,14.2-2.2,20.9c-2.8,6.5-7.5,11.3-13.8,14.6
		c-6.7,3.6-13.9,5-21.4,5.1c-6.5,0.1-12.9-0.5-19.2-2.3c-7.4-2.2-13.9-6-19.3-11.5C236.8,238.2,236.6,237.9,236.3,237.6z"/>
	<path class="st3" d="M192.4,264c5.2-3.5,9.2-7.6,11.2-13.5c-0.9,0-1.6,0-2.2,0c-4.4,0.4-9.1-2.5-10.2-8.1
		c-1.3-6.2,2.6-12.8,8.8-14.1c5.9-1.2,11.1,1.3,14,6.6c1.9,3.4,2.1,7.1,1.8,10.8c-0.6,7.2-3.7,13.4-8.4,18.9c-2,2.3-4.3,4.2-6.7,6.1
		C197.9,268.6,195.3,266.4,192.4,264z"/>
</g>
<g>
	<path class="st3" d="M-519.1-295.6c1.5,0.3,2.9,0.8,4.4,0.9c1.4,0.1,2.1,0.8,2.7,1.9c3.2,6.2,6.6,12.4,9.9,18.6
		c0.2,0.4,0.5,0.7,1.1,1.5c1-6.7,1.9-13,2.9-19.5c2.2,0.3,4.2,0.6,6.6,1c-1.5,10.6-3,20.8-4.6,31.4c-2-0.3-3.9-0.4-5.7-0.8
		c-0.6-0.1-1.1-0.9-1.4-1.4c-2-3.6-3.9-7.3-5.9-11c-1.6-3-3.2-6.1-4.8-9.1c-0.1-0.3-0.4-0.5-0.9-1.1c-1,7-2,13.5-3,20.3
		c-2.2-0.3-4.2-0.6-6.5-0.9c0.2-1.8,0.3-3.4,0.6-5.1c1.2-8,2.4-16.1,3.6-24.1c0.1-0.9,0-1.7,0.1-2.6
		C-519.7-295.6-519.4-295.6-519.1-295.6z"/>
	<path class="st3" d="M-567.1-295.6c0.2,1.9,0.3,3.8,0.5,5.9c-3,0.5-5.9,0.9-9,1.4c1.2,8.6,2.3,17,3.5,25.7
		c-2.3,0.3-4.3,0.6-6.6,0.9c-1.2-8.6-2.4-17-3.6-25.7c-3.2,0.4-6,0.8-9.2,1.2c-0.3-1.9-0.5-3.7-0.8-5.7c2.6-0.4,5-0.8,7.4-1.1
		c5.1-0.7,10.2-1.4,15.4-2.1c0.4-0.1,0.7-0.3,1.1-0.4C-568-295.6-567.6-295.6-567.1-295.6z"/>
	<path class="st3" d="M-294.6-116.1c-1.7,0.6-3.4,1.2-5.3,1.9c-1.1-2.8-2.2-5.5-3.4-8.6c-8.1,3.1-16,6.1-24.2,9.2
		c-0.8-2.1-1.6-4-2.5-6.2c8.1-3.1,16-6.2,24.2-9.4c-1.1-2.9-2.1-5.7-3.2-8.7c1.8-0.7,3.5-1.4,5.4-2.1c1.1,2.7,2.1,5.3,3.1,7.8
		c1.9,4.9,3.7,9.8,5.5,14.8c0,0.1,0.2,0.2,0.4,0.3C-294.6-116.8-294.6-116.4-294.6-116.1z"/>
	<path class="st3" d="M-533,226.1c-0.3-1.7-0.6-3.4-0.8-5.1c-0.4-4.2-0.7-8.4-1-12.6c0-0.6,0-1.3,0-1.8c1.6-0.9,2.6-0.4,3.6,0.8
		c3.3,3.9,6.6,7.8,9.9,11.6c0.4,0.5,0.9,0.8,1.5,1.5c-0.4-5.2-0.7-10-1-15.1c0.6-0.1,1.3-0.3,2.3-0.5c0.5,6.6,1,13,1.4,19.3
		c-2,1.1-2,1.1-3.2-0.4c-3.4-4-6.8-8-10.2-12c-0.4-0.4-0.7-0.8-1.4-1.5c-0.2,1.5-0.1,2.6,0,3.7c0.3,4,0.6,8.1,0.9,12.1
		C-531.7,226.1-532.4,226.1-533,226.1z"/>
	<path class="st3" d="M-552.7,226.1c-0.1-0.7-0.3-1.4-0.3-2.1c0.1-5.6,0.2-11.3,0.3-16.9c0-0.2,0.1-0.5,0.2-0.9
		c3.4-0.1,6.8-0.4,10.1,0.5c2,0.5,3.5,2.6,3.6,4.8c0.2,2.5-0.5,4.6-2.9,5.8c-0.6,0.3-1.3,0.5-2.2,0.8c1.7,2.7,3.4,5.3,5,8
		c-1,0-1.9,0-2.9,0c-1.4-2.4-2.8-4.8-4.3-7.1c-0.3-0.5-1.1-0.8-1.7-1c-0.8-0.2-1.7,0-2.8,0c-0.1,2.9-0.2,5.5-0.3,8.1
		C-551.4,226.1-552,226.1-552.7,226.1z M-550.3,216c1.7,0,3.2,0,4.6,0c0.4,0,0.8,0,1.2,0c1.9-0.2,3.2-1.6,3.4-3.4
		c0.2-1.9-0.8-3.7-2.6-4c-2.1-0.4-4.4-0.7-6.5-0.1C-550.3,211-550.3,213.4-550.3,216z"/>
	<path class="st3" d="M-327.3-35.1c0,79.3-40.2,150.8-106.5,190.8c-23.3,14.1-48.5,23.3-75.3,27.8c-15,2.5-30,3.5-45.2,2.6
		c-60.4-3.5-111-28-151.3-73.1c-26.9-30.1-43.8-65.5-51.4-105.2c-3.6-18.5-4.7-37.3-3.4-56.1c4.4-66.9,37.9-126,89.8-164
		c26.6-19.5,56.2-32.2,88.7-38c17.3-3.1,34.8-4.1,52.3-2.9c83.2,5.8,149.3,57.4,180.9,124.4c9.6,20.4,16,41.8,19.1,64.1
		C-328-54.4-327.4-44.1-327.3-35.1z M-549.6,181.5c18.2-0.1,30.8-1.1,43.2-3.4c38.3-7.2,72.3-23.4,101.3-49.5
		c45-40.4,69-91.1,72.6-151.4c1-17.5-0.2-34.8-3.6-52c-8.9-45.1-29.6-83.8-62.9-115.4c-36.7-34.9-80.4-54.3-131-57.9
		c-19.5-1.4-38.8-0.1-57.9,4.1c-49.4,11-89.9,36.4-121.3,76c-27.8,35.1-43,75.2-46,119.9c-1.3,19.1-0.2,38.1,3.6,56.8
		c8.4,41.8,27.2,78.4,57.2,108.9C-653.2,159.5-602.9,180.5-549.6,181.5z"/>
	<path class="st3" d="M-365.2-226.5c2.2,2.3,4.3,4.5,6.5,6.8c-2.8,6.1-5.6,12.2-8.6,18.8c6.8-2.3,12.8-5.1,19.4-7.4
		c2.1,2.2,4.3,4.5,6.5,6.8c-7.8,7.3-15.3,14.5-22.8,21.6c-1.7-1.5-3.3-2.9-5-4.5c5.2-5,10.2-9.8,15.3-14.5c-0.1-0.2-0.2-0.3-0.3-0.5
		c-7.1,2.5-14,5.5-21.2,8.3c-0.7-0.6-1.3-1.3-2-1.9c3.3-7.1,6.4-14,9.6-20.9c-0.1-0.1-0.2-0.2-0.4-0.3c-2.7,2.1-5,4.7-7.5,7
		c-2.6,2.4-5.1,4.8-7.8,7.4c-0.9-0.9-1.7-1.7-2.4-2.4c-0.7-0.8-1.3-1.6-2.1-2.4C-380.6-212-373-219.2-365.2-226.5z"/>
	<path class="st3" d="M-322.6-175.4c0.3,0.3,0.5,0.4,0.6,0.6c1,1.7,2.6,3.4,2.7,5.3c0.1,1.7-1.2,3.5-2,5.3
		c-2.1,4.9-4.3,9.8-6.5,14.7c-0.3,0.8-0.7,1.6-0.7,2.7c5.6-3.1,11.1-6.3,16.9-9.5c1.1,1.9,2.1,3.7,3.3,5.8
		c-9.2,5.2-18.3,10.4-27.7,15.7c-1-1.8-2-3.4-2.8-5.1c-0.3-0.6,0-1.5,0.3-2.2c2.4-5.5,4.9-10.9,7.4-16.4c0.7-1.6,1.4-3.2,1.9-5
		c-6,2.8-11.5,6.3-17.6,9.5c-1.1-1.8-2.1-3.6-3.4-5.7C-340.9-165-331.8-170.2-322.6-175.4z"/>
	<path class="st3" d="M-621.6-272.2c1.8,6.3,3.7,12.7,5.6,19.2c-2.2,0.6-4.2,1.2-6.4,1.8c-3-10.3-5.9-20.3-8.9-30.5
		c2.1-0.6,4-1.4,6-1.7c0.7-0.1,1.7,0.6,2.5,1.2c5.2,3.9,10.3,7.8,15.4,11.8c0.7,0.5,1.4,1,2.6,1.9c-1.9-6.7-3.7-12.9-5.5-19.2
		c2.2-0.6,4.1-1.2,6.4-1.9c3,10.2,5.9,20.3,8.9,30.5c-2,0.6-3.7,1.3-5.4,1.6c-0.6,0.1-1.5-0.3-2.1-0.8c-5.5-4.2-10.9-8.4-16.3-12.6
		c-0.7-0.6-1.5-1.1-2.3-1.7C-621.3-272.5-621.4-272.3-621.6-272.2z"/>
	<path class="st3" d="M-421.5-229.4c-1.9-1.3-3.6-2.5-5.5-3.7c5.9-8.9,11.6-17.6,17.5-26.5c1.9,1.2,3.7,2.4,5.4,3.5
		c2.5,1.7,5.1,3.3,7.6,5.1c3,2.2,4.8,5.1,4.5,9c-0.3,4.7-5,10.9-11.8,9.4c-0.3-0.1-0.6,0-1.1-0.1c-0.3,4.5-0.5,8.9-0.8,13.8
		c-2.2-1.5-4-2.6-5.8-4c-0.4-0.3-0.5-1.1-0.5-1.7c0.2-3.1,0.5-6.2,0.8-9.3c0.2-1.6-0.2-2.8-1.7-3.5c-0.8-0.4-1.5-0.9-2.4-1.4
		C-417.3-235.6-419.3-232.6-421.5-229.4z M-411.9-243.8c2.4,1.6,4.5,3.1,6.7,4.3c2.1,1.2,4.3,0.7,5.6-1.1c1.4-1.9,1.4-4.2-0.5-5.8
		c-2.1-1.7-4.5-3.1-6.9-4.7C-408.7-248.5-410.2-246.3-411.9-243.8z"/>
	<path class="st3" d="M-461.7-249.8c8.3-8,16.4-15.8,24.6-23.7c2.5,1.2,4.9,2.3,7.7,3.6c-0.8,11.2-1.5,22.4-2.3,34
		c-2.5-1.1-4.6-2.1-6.7-3.1c0-2,0-3.9,0-5.9c-4-1.9-8.1-3.8-12.6-5.9c-1.2,1.4-2.3,2.9-3.5,4.3
		C-457.1-247.6-459.2-248.6-461.7-249.8z M-437.5-251c0.3-2.6,0.5-4.9,0.8-7.3c0.3-2.3,0.4-6.1,0-6.9c-3.4,3.1-6.4,6.6-9.8,10.1
		C-443.3-253.7-440.6-252.4-437.5-251z"/>
	<path class="st3" d="M-477.3-268.4c-0.7,2.4-1.4,4.5-2.1,6.8c4.9,1.9,10,3,15.1,4.8c-0.5,1.7-1,3.4-1.5,5.1
		c-1.8,0-18.7-4.9-21.6-6.3c3-10,6-20,9.1-30.3c7.3,2.2,14.3,4.3,21.5,6.5c-0.5,1.9-1,3.6-1.6,5.6c-5.1-1.5-10-2.9-15.2-4.5
		c-0.7,2.3-1.3,4.3-2,6.5c5,1.5,9.7,3,14.7,4.5c-0.5,1.9-1,3.6-1.6,5.6C-467.4-265.5-472.2-266.9-477.3-268.4z"/>
	<path class="st3" d="M-782.5-129.2c-1.7,5-3.4,9.8-5.1,14.9c2.1,0.8,4.2,1.5,6.4,2.3c1.7-4.9,3.4-9.7,5.1-14.6
		c1.9,0.6,3.6,1.2,5.5,1.8c-1.7,4.9-3.3,9.6-5,14.6c2.3,0.8,4.4,1.6,6.8,2.5c1.8-5,3.5-9.9,5.3-14.9c1.9,0.6,3.6,1.2,5.5,1.9
		c-2.5,7.2-4.9,14.1-7.4,21.3c-10.1-3.5-20-7-30.1-10.5c2.5-7.2,4.9-14.1,7.4-21.3C-786.1-130.4-784.4-129.8-782.5-129.2z"/>
	<path class="st3" d="M-632.2-253.6c0.9,1.8,1.6,3.4,2.5,5.3c-6.8,3.1-13.5,6.2-20.4,9.4c-4.5-9.7-8.8-19.2-13.3-29
		c6.8-3.1,13.4-6.2,20.4-9.4c0.9,1.7,1.6,3.3,2.6,5.2c-4.8,2.2-9.5,4.4-14.3,6.7c0.9,2.1,1.8,4,2.8,6.2c4.7-2.1,9.2-4.2,14-6.4
		c0.8,1.7,1.6,3.3,2.5,5.2c-4.7,2.2-9.2,4.3-14,6.5c1,2.2,1.9,4.4,3,6.7C-641.7-249.2-637.1-251.3-632.2-253.6z"/>
	<path class="st3" d="M-716.7-195.3c3.6-3.8,7.2-7.5,10.8-11.2c1.3,1.5,2.5,2.9,3.8,4.4c-4.7,5-9.8,10.3-15,15.8
		c-7.8-7.4-15.4-14.7-23.1-22c5.2-5.5,10.3-10.8,15.5-16.2c1.4,1.3,2.8,2.5,4.3,3.9c-3.7,3.9-7.2,7.6-10.8,11.5c1.7,1.7,3,3.5,5,4.6
		c3.5-3.7,7-7.2,10.5-10.9c1.4,1.3,2.8,2.5,4.3,3.9c-3.5,3.8-7,7.5-10.4,11.1C-720.1-198.8-718.5-197.1-716.7-195.3z"/>
	<path class="st3" d="M-767.7-148.9c-0.5-0.9-0.8-1.7-1.2-2.5c-1.5-2.7-2.9-5.3-4.4-7.9c-0.4-0.6-0.7-1.2-0.2-2
		c1.1-1.9,2.1-3.9,3.3-6.2c0.9,1.6,1.7,3,2.5,4.5c1.8,3.4,3.6,6.8,5.3,10.2c1,1.9,1,1.9,3.1,1.6c5.1-0.7,10.2-1.5,15.4-2.2
		c0.6-0.1,1.3-0.1,2.2-0.2c-1.1,2.3-2.1,4.4-3.2,6.3c-0.3,0.5-1.2,0.8-1.8,0.8c-3.5,0.5-7.1,0.9-10.7,1.4c-0.5,0.1-1.1,0.2-1.8,0.3
		c1.3,2.6,2.6,5,3.8,7.3c0.5,1,0.9,2.1,1.6,2.9c1.3,1.7,1,3.2-0.1,4.8c-0.8,1.3-1.5,2.8-2.4,4.4c-3.1-6-6.1-11.7-9.2-17.6
		c-6.1,0.8-12.1,1.6-18.7,2.4c1.3-2.5,2.3-4.6,3.5-6.5c0.3-0.5,1.2-0.6,1.9-0.7C-775.3-148.1-771.6-148.5-767.7-148.9z"/>
	<path class="st3" d="M-741.7-195.9c-0.3,2.1-0.7,4-1,6.1c-3.5,0-6.5,1-8.5,4c-1.4,2.3-2,4.7-1.5,7.3c1.1,5.6,7.3,9.7,12.9,8.5
		c2.9-0.6,5.1-2.2,6.6-4.8c1.4-2.5,1.3-5.2,0.3-8c1.8-1,3.5-1.9,5.2-2.8c3.4,6,1.5,13-3.4,17.7c-5.6,5.4-13.6,6.3-20,2.3
		c-6.7-4.3-9.6-11.7-7.1-19C-755.9-191.9-749.6-197-741.7-195.9z"/>
	<path class="st3" d="M-683.4-225c1.3,1.6,2.3,2.9,3.6,4.6c-5.3,4.2-10.4,8.4-15.7,12.7c-6.7-8.3-13.2-16.5-19.9-24.9
		c1.8-1.4,3.4-2.7,5.2-4.2c5.5,6.8,10.8,13.4,16.3,20.2C-690.4-219.5-686.9-222.2-683.4-225z"/>
	<path class="st3" d="M-684.8-255.1c4.7,7.5,9.1,14.6,13.8,22c3.8-2.3,7.5-4.6,11.4-7.1c1,1.6,2,3.1,3.1,4.8
		c-5.6,3.8-11.3,7.1-17.1,10.8c-5.6-9-11.2-18-16.8-27C-688.6-252.8-686.8-253.9-684.8-255.1z"/>
	<path class="st3" d="M-333.7-191c1.3,1.8,2.5,3.5,3.9,5.4c-8.6,6.3-17.1,12.5-25.7,18.8c-1.3-1.8-2.6-3.5-4-5.4
		C-350.8-178.5-342.3-184.7-333.7-191z"/>
	<path class="st3" d="M-637.4,208.4c-0.8-0.4-1.3-0.7-2.1-1.1c2-4.6,3.9-9,5.9-13.5c-0.1-0.1-0.3-0.2-0.4-0.3
		c-4.3,3.4-7.8,7.7-12.4,11.3c-0.8-2.1-0.1-4-0.2-5.9c-0.1-1.8,0-3.7,0-5.5c0.1-1.9,0.2-3.7,0.1-5.7c-2.6,4.3-4.3,9-6.6,13.6
		c-0.7-0.3-1.3-0.5-2.1-0.9c2.7-6.1,5.3-12,8-18.1c1.1,0.5,2.1,1,3.2,1.5c-0.1,5.2-0.3,10.4-0.4,15.5c0.2,0.1,0.3,0.2,0.5,0.2
		c3.7-3.5,7.5-7,11.3-10.7c1,0.4,2,0.9,3.2,1.4C-632,196.3-634.6,202.2-637.4,208.4z"/>
	<path class="st3" d="M-730,144.8c-0.6-0.6-1.2-1.1-1.8-1.7c3.5-6,6.9-11.8,10.3-17.8c0.7,0.6,1.2,1.1,1.9,1.7
		c-2.8,4.7-5.5,9.3-8.3,13.9c0.1,0.1,0.2,0.2,0.2,0.3c0.6-0.2,1.2-0.4,1.8-0.7c3.7-2,7.4-4.1,11.1-6.1c1.4-0.8,1.4-0.8,2.7,0.8
		c-2.7,4.6-5.4,9.2-8.1,13.8c0.1,0.1,0.2,0.3,0.4,0.4c4.7-2.6,9.4-5.2,14.3-7.9c0.6,0.5,1.1,1.1,1.9,1.8c-6.3,3.4-12.3,6.6-18.4,9.9
		c-0.6-0.7-1.1-1.3-1.7-2c2.7-4.6,5.3-9,7.9-13.4C-720.7,139.6-725.1,142.5-730,144.8z"/>
	<path class="st3" d="M-384.3,143.2c0.6-0.6,1.1-1,1.7-1.5c4.4,4.9,8.7,9.8,13,14.6c-1.3,1.8-1.3,1.8-3.3,1.4
		c-5.3-1.2-10.6-2.3-15.9-3.5c-0.3-0.1-0.6-0.1-1.5-0.2c3.6,4.1,6.9,7.9,10.4,11.9c-0.5,0.6-1,1.1-1.6,1.7
		c-4.6-5.2-8.9-10-13.1-14.8c1.2-2,1.2-2,3.3-1.6c4.8,1,9.5,2.1,14.2,3.1c0.7,0.1,1.4,0.2,2.4-0.1
		C-377.8,150.7-380.9,147.1-384.3,143.2z"/>
	<path class="st3" d="M-418.2,169.6c2.5-1.7,4.6-3.3,7-4.6c4-2.2,8.8-1.3,11.8,2c3.1,3.5,3.7,8.2,1.2,11.9c-0.6,0.9-1.4,1.8-2.2,2.5
		c-2,1.6-4.1,3-6.4,4.6C-410.7,180.5-414.3,175.2-418.2,169.6z M-415.1,169.9c3.1,4.5,6,8.7,9,13c1.8-1.4,3.5-2.5,4.9-3.9
		c2.7-2.6,2.8-6.4,0.5-9.6c-2.3-3.2-5.9-4.4-9.2-2.8C-411.6,167.5-413.2,168.7-415.1,169.9z"/>
	<path class="st3" d="M-365.6,128.4c-0.1,0.8-0.1,1.3-0.2,2c-0.6,0.1-1.1,0.2-1.7,0.2c-5.2,0.9-7.9,6.2-5.7,11
		c2.3,4.8,8.1,6.5,12.3,3.5c1.6-1.1,2.4-2.8,2.9-4.6c0.3-1.1,0.1-2-0.8-2.8c-0.6-0.5-1.2-1.1-1.8-1.6c-1.6,1.6-3.1,3.2-4.6,4.8
		c-0.7-0.6-1.2-0.9-1.8-1.4c2.1-2.3,4.2-4.5,6.3-6.7c1.5,1.4,2.9,2.7,4.2,3.9c0.7,0.6,0.9,1.4,0.9,2.3c0,6.4-6.9,11.5-13.1,9.5
		c-4.2-1.4-6.9-4.4-7.5-8.8c-0.5-4.3,1.4-7.6,5-9.9C-369.5,128.7-367.7,128.4-365.6,128.4z"/>
	<path class="st3" d="M-443,205.2c-2.8-6-5.5-11.8-8.4-18c3-1.3,5.8-2.7,8.7-3.7c2.4-0.9,4.9,0.2,6.2,2.3c1.5,2.5,1.8,4.8-0.3,7
		c-0.4,0.4-0.7,0.8-1.2,1.4c2.6,1.6,5.1,3.2,7.6,4.7c-1.8,1.5-1.9,1.6-3.5,0.5c-1.6-1-3.3-2-4.8-3.1c-1.2-0.8-2.2-1.1-3.5-0.2
		c-0.5,0.4-1.1,0.5-1.9,0.9c1.1,2.4,2.1,4.7,3.2,7.2C-441.6,204.5-442.2,204.8-443,205.2z M-445,195.1c1.2-0.5,2.2-0.9,3.1-1.3
		c0.4-0.2,0.9-0.4,1.3-0.6c0.7-0.4,1.4-0.8,1.9-1.4c1.1-1.2,1.2-3,0.3-4.4c-0.9-1.4-2.5-2.2-4.1-1.6c-1.9,0.7-3.8,1.6-5.8,2.5
		C-447.2,190.6-446.2,192.7-445,195.1z"/>
	<path class="st3" d="M-454.2,191.9c-0.5,0.7-0.9,1.1-1.2,1.6c-1.9-0.5-3.6-1.1-5.6-0.6c-4,1.1-6.5,4.8-5.8,8.9
		c1,5.5,5.9,8.5,10.8,6.6c0.6-0.2,1.2-0.5,1.7-0.9c2-1.6,3.1-2.6,1.6-5.2c-0.2-0.4-0.4-0.9-0.6-1.5c-2.1,0.7-4.2,1.5-6.4,2.2
		c-0.2-0.6-0.4-1.1-0.7-1.9c2.9-1.1,5.7-2.1,8.6-3.2c0.8,2,1.5,3.8,2.1,5.7c0.2,0.7,0.1,1.6-0.3,2.2c-2.1,4-7,6.1-11.4,5
		c-4.6-1.1-7.6-5-7.8-9.7c-0.2-4.1,1.5-7.1,4.9-9.2C-461.1,190.1-457.8,190-454.2,191.9z"/>
	<path class="st3" d="M-497,201.4c3-0.7,5.7-1.3,8.5-1.9c2.8-0.6,5.3,0.8,6.4,3.4c1.1,2.7,0.4,5.3-1.9,7c-0.4,0.3-0.8,0.6-1.2,0.8
		c2,2.3,4,4.5,5.9,6.6c-1.8,0.8-1.8,0.8-3.2-0.6c-1.1-1.1-2.2-2.1-3.2-3.2c-1.7-2-3.6-2.4-6.1-0.9c0.5,2.4,1,4.8,1.6,7.4
		c-0.7,0.2-1.3,0.4-2.2,0.7C-493.9,214.4-495.4,208.1-497,201.4z M-492.4,210.6c2.2-0.6,4.1-1,6-1.6c1.7-0.6,2.6-2.5,2.3-4.2
		c-0.4-1.9-1.8-3.2-3.7-3.1c-2.1,0.1-4.2,0.6-6.3,1.5C-493.6,205.6-493,207.9-492.4,210.6z"/>
	<path class="st3" d="M-607.9,217.7c-2.4,0.4-2.9-1.4-3.9-2.8c-0.8,0.2-1.7,0.6-2.5,0.6c-1.6,0-3.2,0-4.7-0.5
		c-2.2-0.7-3.6-2.4-3.7-4.9c0-2.4,1.1-4.3,3.4-5.3c0.8-0.3,1.6-0.6,2.6-1c-0.1-0.8-0.2-1.7-0.2-2.5c-0.2-3.9,3-6.3,6.7-5
		c1.8,0.6,2.8,1.9,2.9,3.4c0.1,1.9-0.8,3.3-2.4,4.1c-1.2,0.6-2.5,0.9-3.9,1.4c0.1,0.5,0.2,1,0.4,1.4c0.7,1.7,1.5,3.3,2.4,5.5
		c1.2-1.4,2.2-2.6,3.3-3.8c0.4,0.3,0.9,0.6,1.5,1.1c-1.3,1.4-2.5,2.8-3.9,4.3C-609.3,214.9-608.7,216.2-607.9,217.7z M-612.8,213
		c-1.2-2.5-2.2-4.9-3.3-7.3c-2.2,0.3-3.6,1.4-4.1,3.3c-0.4,1.6,0,3,1.4,4C-616.9,214.4-615,214.3-612.8,213z M-614.7,203.3
		c0.2,0.1,0.5,0.3,0.7,0.4c1.3-0.6,2.6-1,3.8-1.8c1.1-0.8,1.2-2.3,0.5-3.2c-0.7-1-2.4-1.4-3.4-0.7c-0.7,0.5-1.3,1.4-1.5,2.2
		C-614.9,201.2-614.7,202.3-614.7,203.3z"/>
	<path class="st3" d="M-660.7,192.7c-2.9-1.6-5.7-3.2-8.7-4.9c-1.2,1-2.4,1.9-3.7,2.9c-0.7-0.3-1.4-0.6-2.5-1.2
		c5.7-4.6,11.1-9,16.6-13.5c0.8,0.4,1.7,0.8,2.7,1.4c-0.9,7-1.8,13.9-2.6,20.8c-2.3-0.5-2.3-0.6-2.2-2.4c0-0.5,0.1-1,0.1-1.4
		C-660.9,193.9-660.8,193.5-660.7,192.7z M-658.7,178.9c-3.3,2.6-6.2,4.7-9,7.4c2.6,1.4,4.9,2.7,7.4,4.1
		C-659.8,186.5-659.3,183-658.7,178.9z"/>
	<path class="st3" d="M-410.6,188.2c-0.9,0.5-1.6,0.9-2.3,1.3c-1.3-1-2.5-1.9-3.8-2.9c-2.5,1.4-4.9,2.8-7.4,4.2
		c-0.9,0.5-1.2,1.2-1.1,2.2c0.2,1,0.3,2,0.4,3.2c-0.6,0.4-1.3,0.8-2.3,1.4c-1-7.2-2-14.2-2.9-21.2c0.9-0.5,1.7-1,2.6-1.5
		C-421.9,179.3-416.4,183.6-410.6,188.2z M-418.4,185.2c-3.1-2.6-5.8-5-9.1-7.2c0.6,4,1.1,7.6,1.7,11.4
		C-423.2,187.9-420.9,186.7-418.4,185.2z"/>
	<path class="st3" d="M-513.7,204.5c4.2-0.7,8.3-1.4,12.6-2c0.2,0.7,0.3,1.2,0.6,2c-3.5,0.6-6.8,1.1-10.5,1.8c0.4,2.2,0.7,4.2,1,6.4
		c3.5-0.5,6.8-1,10.2-1.5c0.1,0.7,0.2,1.2,0.3,2c-3.4,0.6-6.7,1.1-10.2,1.7c0.4,2.3,0.7,4.5,1.1,6.8c3.5-0.5,6.9-1,10.4-1.5
		c0.1,0.7,0.1,1.2,0.2,2c-4.2,0.7-8.3,1.3-12.6,2C-511.6,217.6-512.6,211.2-513.7,204.5z"/>
	<path class="st3" d="M-573.5,204.6c0.7,0.1,1.3,0.1,2.2,0.2c-0.1,2-0.2,3.8-0.4,5.6c-0.2,2.2-0.5,4.4-0.6,6.7
		c-0.2,4.2,2.2,6.4,6.3,6.3c2.4-0.1,4.2-1.3,4.7-3.7c0.5-2.3,0.7-4.7,0.9-7.1c0.2-2.1,0.4-4.3,0.6-6.6c0.8,0.1,1.5,0.1,2.3,0.2
		c-0.4,4.3-0.7,8.6-1.2,12.7c-0.4,2.9-1.9,5.3-4.9,6.2c-3.3,1-6.4,0.4-9-1.8c-1.7-1.4-2.2-3.5-2.1-5.7c0.2-2.7,0.4-5.4,0.7-8.1
		C-573.9,207.9-573.7,206.3-573.5,204.6z"/>
	<path class="st3" d="M-586.7,222.5c-0.9-0.2-1.5-0.3-2.3-0.4c1-5.8,2-11.5,3-17.4c-2.1-0.4-4-0.8-6.1-1.3c0.1-0.7,0.2-1.2,0.4-1.9
		c4.9,0.9,9.6,1.7,14.3,2.5c0.4,1.5,0.1,2.1-1.3,1.9c-1.6-0.3-3.1-0.5-4.9-0.8C-584.6,210.9-585.6,216.6-586.7,222.5z"/>
	<path class="st3" d="M-691.7,175.9c2.5,1.8,4.9,3.6,7.4,5.4c-0.4,0.6-0.7,1-1.1,1.7c-3.2-2.3-6.2-4.5-9.5-6.8
		c3.9-5.5,7.6-10.7,11.4-16c0.7,0.4,1.2,0.7,1.8,1.1c-0.1,0.4-0.2,0.7-0.4,0.9c-2.8,3.9-5.5,7.8-8.3,11.7
		C-690.9,174.5-691.3,175.2-691.7,175.9z"/>
	<path class="st3" d="M-704.8,165.6c2.4,2,4.6,3.8,7,5.8c-0.4,0.5-0.7,1-1.2,1.7c-3-2.5-5.9-4.8-9-7.3c4.2-5.1,8.3-10.2,12.5-15.4
		c0.7,0.5,1.2,0.9,1.8,1.5C-697.4,156.5-701,160.9-704.8,165.6z"/>
	<path class="st3" d="M-531.3-278.1c-0.1,1.7-0.2,3.2-0.3,4.9c-3.7,0-7.3,0-11,0c-0.6-1.8-0.4-3.4,0.2-4.9
		C-538.7-278.1-535.1-278.1-531.3-278.1z"/>
	<path class="st3" d="M-679,187c-0.8-0.6-1.3-1-1.9-1.4c3.5-5.5,7-11,10.5-16.5c0.7,0.4,1.3,0.7,2.1,1.1
		C-671.9,175.8-675.4,181.3-679,187z"/>
	<path class="st3" d="M-712.8,161.4c-0.6-0.5-1.1-0.9-1.8-1.5c4.4-4.9,8.7-9.7,13.1-14.7c0.6,0.4,1.2,0.8,1.9,1.4
		C-703.9,151.5-708.2,156.4-712.8,161.4z"/>
	<path class="st3" d="M-400.7,157.3c0.6-0.5,1.1-0.9,1.8-1.5c4.1,5.2,8.1,10.3,12.2,15.5c-0.6,0.5-1.1,1-1.8,1.5
		C-392.7,167.6-396.7,162.5-400.7,157.3z"/>
	<path class="st3" d="M-568.6-37c0.3-0.4,0.5-0.8,0.8-1.2c7.2-8.4,16.4-13.5,27.4-14.8c12.9-1.6,24.9,1.1,35.5,9.1
		c8.1,6.1,12.8,14.4,14.7,24.2c1.4,7.2,1.3,14.4-0.6,21.6c-2.9,11.2-9.4,19.8-19.2,25.9c-7.5,4.7-15.8,7.1-24.6,7.9
		c-10,0.8-19.7-0.2-29.1-3.9c-10.9-4.3-19-11.9-24.7-22c-5-8.8-7.5-18.4-8.8-28.4c-0.8-6.4-1-12.9-0.7-19.4
		c0.6-13.5,3.8-26.4,11.2-37.9c8.2-12.8,19.9-20.7,34.6-24.2c4.2-1,8.5-1.4,12.8-1.7c9.7-0.6,19.1,0.9,28.1,4.5
		c5.4,2.2,10.4,5.1,15.1,9.2c-4.2,7.2-8.5,14.4-12.8,21.9c-4.6-4-9.4-7.4-15.2-8.9c-5.8-1.5-11.7-2.1-17.7-0.9
		c-6,1.2-11.2,3.8-15.6,8c-5.3,5-8.6,11.2-10.3,18.3c-1,4.1-1.5,8.2-1.2,12.4C-569-37.2-568.8-37.1-568.6-37z M-541.6,10.6
		c5,0.2,9.7-1.4,12.9-3.3c6.9-4.1,10.8-9.9,10.2-18.3c-0.5-6.6-3.9-11.4-9.7-14.4c-11.7-6.1-28-4.4-39,6.9c-1.4,1.5-2.3,3-1.5,5.1
		c0.4,1,0.4,2.2,0.7,3.3c1.5,5.5,3.9,10.5,8.2,14.4C-554.9,8.8-548.9,10.6-541.6,10.6z"/>
</g>
</svg>
