<?xml version="1.0" encoding="utf-8"?>
<!-- Generator: Adobe Illustrator 24.1.3, SVG Export Plug-In . SVG Version: 6.00 Build 0)  -->
<svg version="1.1" id="Layer_1" xmlns="http://www.w3.org/2000/svg" xmlns:xlink="http://www.w3.org/1999/xlink" x="0px" y="0px"
	 viewBox="0 0 400 400" style="enable-background:new 0 0 400 400;" xml:space="preserve">
<style type="text/css">
	.st0{display:none;}
	.st1{display:inline;fill:#222222;}
	.st2{fill:#222222;}
</style>
<g class="st0">
	<path class="st1" d="M354,205.7c-0.1,1.6-0.2,3.1-0.3,4.7c-0.8,13.6-3.2,26.9-7.6,39.7c-14.4,42-41.6,72.7-81.7,91.9
		c-12.9,6.2-26.6,10.1-40.7,12.2c-10,1.5-20,2-30,1.4c-31.8-1.8-60.3-12.4-85.3-32c-27.7-21.8-45.8-49.9-54.7-84
		c-2.5-9.6-3.9-19.3-4.5-29.2c-0.6-9.2-0.3-18.4,0.8-27.6c3.4-28.5,13.7-54.3,31.3-77.1c20-25.8,45.6-43.6,76.9-53.2
		c10.3-3.1,20.9-5.1,31.6-5.9c46.3-3.5,91.2,14.1,122.7,48.2c18.8,20.4,31.3,44.1,37.6,71.1c2.2,9.6,3.5,19.3,3.8,29.1
		c0,0.4,0.1,0.8,0.1,1.2C354,199.4,354,202.6,354,205.7z M350.6,199.7c-0.2-3.4-0.4-8.2-0.8-12.9c-0.7-9.1-2.4-18-4.8-26.8
		c-12.1-43.7-42.8-78.9-81.9-96.9c-17.5-8-35.9-12.5-55.1-13.3c-13.4-0.6-26.7,0.5-39.8,3.6c-31.2,7.4-57.4,23.2-78.4,47.4
		c-23.9,27.5-36.1,59.7-37.3,96.1c-0.5,14.9,1.2,29.7,5.2,44.1c8.4,30.8,24.8,56.6,49.3,77c25.6,21.3,55.1,32.7,88.4,34.2
		c13.9,0.6,27.5-0.7,41-4c31.1-7.7,57.1-23.8,77.9-48.2C338.3,271.5,350.1,238.3,350.6,199.7z"/>
	<path class="st1" d="M46,100.5c0.7-1,1.5-2,2.2-2.9c1.8-2.5,3.5-5.2,5.6-7.5c2.1-2.5,5.7-2.8,8.2-0.5c1.6,1.5,2,3.2,1.6,5.2
		c0.9-0.3,1.8-0.5,2.7-0.8c1.5-0.5,2.9,0.2,4,1c1.3,0.9,2.2,2.1,2.5,3.8c0.3,1.7-0.2,3.2-1.1,4.5c-2.3,3.4-4.7,6.7-7.1,10
		c-0.3,0.4-0.5,0.3-0.8,0.1c-3-2.2-6-4.4-9.1-6.5c-2.8-2-5.6-4.1-8.5-6.1c-0.1-0.1-0.2,0-0.3-0.1C46,100.7,46,100.6,46,100.5z
		 M63.8,107.5c0.5-0.6,0.9-1.2,1.3-1.7c0.9-1.4,1.9-2.7,2.8-4.1c0.6-1.1,0.3-2.5-0.7-3.1c-1.1-0.7-2.3-1.1-3.4,0.2
		c-1.5,1.8-2.8,3.7-4.3,5.6C61,105.4,62.4,106.5,63.8,107.5z M56.2,101.9c0.1-0.1,0.3-0.2,0.4-0.4c1-1.4,2.1-2.8,3.1-4.3
		c0.4-0.6,0.7-1.3,0.7-2c-0.1-1-0.7-1.8-1.7-2.2c-0.9-0.3-2,0-2.7,0.9c-1.2,1.5-2.3,3.1-3.4,4.7c-0.2,0.3-0.2,0.6,0.1,0.8
		C53.8,100.3,55,101.1,56.2,101.9z"/>
	<path class="st1" d="M195.3,15.9c1,0.2,2,0.4,2.9,0.7c4.2,1.4,6.7,4.4,7.5,8.8c0.6,3.1,0.1,6.1-1.6,8.8c-1.8,2.8-4.4,4.3-7.6,4.8
		c-3.4,0.6-6.6,0.1-9.4-2c-2.5-1.8-3.9-4.3-4.4-7.3c-0.4-2.4-0.2-4.8,0.8-7.1c1.2-2.7,3.1-4.6,5.8-5.7c1.2-0.5,2.5-0.6,3.8-0.9
		c0.1,0,0.2-0.1,0.2-0.2C193.9,15.9,194.6,15.9,195.3,15.9z M201.1,27.5c0-0.3-0.1-0.8-0.2-1.3c-0.5-4.2-4.5-6.9-8.9-5.6
		c-2.7,0.8-4.1,2.9-4.5,5.7c-0.4,3.1,0.3,5.6,2.8,7.6c1.9,1.5,5.4,1.6,7.4,0.3C200,32.7,201,30.4,201.1,27.5z"/>
	<path class="st1" d="M199.8,384.1c-1.1-0.5-2.1-0.9-3.2-1.4c-0.1,0-0.2-0.1-0.3-0.2c-0.8-0.7-0.8-0.7-0.1-1.5
		c0.1-0.1,0.2-0.3,0.3-0.4c0.7,0.5,1.4,1.1,2.2,1.4c1.4,0.6,2.9,0.9,4.4,0.1c0.8-0.4,1.3-1,1.3-2c0-0.9-0.6-1.5-1.3-1.8
		c-1.4-0.6-2.8-1-4.2-1.5c-1.3-0.5-2.4-1.2-2.6-2.7c-0.3-2,0.6-3.4,2.5-4.1c2.4-0.9,5.7-0.3,7.3,1.7c-0.4,0.4-0.7,0.7-1.1,1.2
		c-0.9-1.1-2.1-1.5-3.5-1.7c-1-0.2-1.9,0-2.7,0.6c-1,0.8-1.3,2.2,0.2,3.1c0.8,0.5,1.8,0.7,2.7,1c0.7,0.2,1.4,0.4,2,0.7
		c2,0.8,2.7,2.5,2.5,3.8c-0.3,1.9-1,2.9-3.3,3.6c-0.1,0-0.3,0.1-0.4,0.2C201.6,384.1,200.7,384.1,199.8,384.1z"/>
	<path class="st1" d="M339.4,100.3c3.8-3,7.4-5.8,11.1-8.7c1,1.3,2,2.5,2.9,3.8c-5.9,4.6-11.7,9.2-17.7,13.8
		c-0.4-0.4-0.8-0.9-1.1-1.3c-0.3-0.4-0.7-0.9-1-1.3c-0.5-0.6-0.8-1.1-0.5-2c1.6-5.4,3.1-10.8,4.6-16.2c0,0,0-0.1-0.1-0.2
		c-3.8,3-7.6,6-11.4,8.9c-1-1.3-2-2.5-2.9-3.7c5.9-4.6,11.8-9.2,17.7-13.9c0.9,1.2,1.8,2.3,2.7,3.5c0.2,0.2,0.3,0.6,0.2,0.8
		c-1.4,5.3-2.9,10.5-4.4,15.7C339.5,99.7,339.5,99.9,339.4,100.3z"/>
	<path class="st1" d="M178.7,40.1c-1.4,0.3-2.7,0.4-4,0.9c-1.6,0.6-2.1-0.6-2.8-1.4c-1.2-1.4-2.5-2.7-3.5-4.2
		c-0.8-1.3-1.8-1.1-2.9-0.8c-0.5,0.1-1,0.2-1.6,0.4c0.5,2.6,1.1,5.2,1.6,7.8c-1.4,0.3-2.8,0.6-4.2,0.9c-0.2,0-0.5-0.3-0.6-0.5
		c-0.9-4.6-1.8-9.1-2.7-13.7c-0.5-2.4-1-4.8-1.5-7.2c0-0.2,0-0.3,0-0.6c2.7-0.5,5.3-1.1,8-1.6c1.2-0.2,2.3-0.6,3.5-0.6
		c2.3-0.1,4.4,0.5,6,2.4c1.7,2,2.5,5.8,1,8.2c-0.6,0.9-1.4,1.7-2.3,2.4c-0.5,0.4-0.5,0.6-0.1,1c1.3,1.4,2.6,2.8,3.9,4.3
		C177.1,38.4,177.8,39.2,178.7,40.1z M161.9,24.8c0.4,2,0.8,4,1.2,6c0.5-0.1,1.1-0.2,1.6-0.3c1.5-0.4,3.1-0.7,4.5-1.2
		c1.5-0.5,2-2.1,1.4-3.7c-0.4-1.2-2.2-2.1-3.5-1.8C165.4,24.1,163.7,24.4,161.9,24.8z"/>
	<path class="st1" d="M319,85c-6.4,0.1-12.3-5.8-12.1-12.1c0.2-6.2,5.4-11.7,11.8-11.6c6.4,0.1,11.9,5.5,12,11.9
		C330.7,79.5,325.2,84.9,319,85z M311.6,73.8c-0.3,3.5,3.3,6.8,6.8,6.7c3.3-0.1,6.6-3,7.4-6.5c1-4.2-2.8-8.8-7.8-8
		C314.8,66.5,311.4,70.1,311.6,73.8z"/>
	<path class="st1" d="M240.4,29.6c3.5,0.9,7,1.7,10.6,2.6c-0.3,1.2-0.6,2.4-0.9,3.6c-0.1,0.5-0.5,0.4-0.8,0.3
		c-3.3-0.8-6.6-1.6-9.9-2.4c-0.4,1.7-0.8,3.3-1.2,5c3.4,0.8,6.7,1.6,10.1,2.4c0.5,0.1,0.7,0.2,0.5,0.8c-0.3,1.1-0.5,2.2-0.8,3.4
		c-1.4-0.3-2.7-0.6-4.1-1c-3.6-0.9-7.2-1.8-10.8-2.6c-0.4-0.1-0.5-0.2-0.4-0.7c0.9-3.6,1.8-7.3,2.7-10.9c0.8-3.5,1.7-7,2.5-10.4
		c5,1.2,9.9,2.4,14.9,3.6c0.5,0.1,0.6,0.3,0.5,0.8c-0.3,1-0.5,1.9-0.7,2.9c-0.1,0.5-0.2,0.6-0.7,0.4c-3.2-0.8-6.4-1.5-9.6-2.3
		c-0.6-0.2-0.8,0-0.9,0.6C241.1,27,240.7,28.3,240.4,29.6z"/>
	<path class="st1" d="M79,88.2c2.7-2.8,5.3-5.5,8-8.4c0.9,1.1,1.7,2.1,2.7,3.2c-3.4,3.6-7,7.4-10.7,11.3c-0.1-0.1-0.2-0.1-0.3-0.2
		c-1.7-1.6-3.4-3.3-5.1-4.9c-2.6-2.5-5.1-4.9-7.7-7.4c-1.1-1-2.1-2-3.3-3c3.7-3.9,7.3-7.7,11-11.5c1,0.9,2.1,1.9,3.1,2.8
		c-2.6,2.7-5.1,5.4-7.4,7.7c1,1.3,2,2.5,3,3.7c2.7-2.8,5.1-5.4,7.6-7.9c1,0.9,2,1.9,3.1,2.8c-2.5,2.7-5,5.3-7.5,7.9
		C76.7,85.7,77.8,86.9,79,88.2z"/>
	<path class="st1" d="M90.8,73.3c2.1,0.2,4.1-0.2,5.9-1.3c1-0.6,1.9-1.5,2.7-2.4c0.6-0.6,0.8-1.5,0.5-2.4c-0.4-0.9-1.2-1.4-2.2-1.1
		c-1.2,0.4-2.3,0.9-3.5,1.3c-1.7,0.6-3.4,1.4-5.2,1.9c-3.4,0.8-6.2-1.7-6.9-4.6c-0.6-2.7,0.4-4.9,2.2-6.9c1.8-1.9,3.9-3.2,6.4-3.9
		c1.2-0.3,2.4-0.4,3.8-0.6c0,1.6,0,3.1,0,4.5c-2.9,0.1-5.5,0.9-7.5,3.3c-1.1,1.3-0.6,3.1,0.8,3.3c0.6,0.1,1.3-0.2,1.9-0.4
		c1.8-0.7,3.5-1.5,5.3-2.2c2-0.8,4-1.1,6-0.1c2.4,1.3,4.2,4.7,3.3,7.7c-0.8,2.3-2.3,4-4.2,5.5c-1.6,1.3-3.5,2.3-5.5,2.7
		c-1.1,0.2-2.2,0.2-3.3,0.3c-0.2,0-0.5-0.2-0.5-0.4C90.8,76,90.8,74.6,90.8,73.3z"/>
	<path class="st1" d="M131.8,29.6c2.9-1,5.7-2,8.5-3c1.6-0.6,3.1-1.2,4.8-1c2,0.2,3.7,1,5,2.6c1.1,1.5,1.7,3.1,1.6,4.9
		c-0.1,2.7-1.3,4.7-3.7,5.9c-2.2,1.1-4.5,1.8-6.9,2.7c0.9,2.4,1.7,4.9,2.6,7.5c-1.5,0.5-3,1.1-4.5,1.6
		C136.8,43.8,134.3,36.7,131.8,29.6z M139.8,37.8c1.9-0.7,3.8-1.4,5.6-2.2c1.3-0.6,1.9-2.3,1.3-3.7c-0.5-1.2-1.6-2.2-3.2-1.8
		c-1.8,0.5-3.6,1.1-5.4,1.7c-0.1,0-0.3,0.3-0.2,0.4C138.4,34.1,139.1,35.9,139.8,37.8z"/>
	<path class="st1" d="M278.7,38.4c-1.5,0.1-3,0.2-4.4,0.4c-0.6-2.7-2-4.6-4.7-5.3c-2.2-0.6-4.1-0.2-5.9,1.2c-2.6,2-3.8,5.6-2.7,8.7
		c1.2,3.5,5.2,5.6,8.8,4c0.5-0.2,0.9-0.6,1.4-0.9c1,1.1,2,2.2,3,3.3c-3.8,3.1-8.6,3.5-13.5,0.1c-4.4-3.1-6-8-4.2-13.3
		c0.9-2.5,2.4-4.6,4.7-6c1.9-1.2,4-1.9,6.2-1.7C274.5,29.4,277.9,33.2,278.7,38.4z"/>
	<path class="st1" d="M218.6,21.2c-2.2-0.2-4.3-0.5-6.5-0.7c0.1-1.3,0.3-2.7,0.4-4.2c5.9,0.6,11.8,1.3,17.8,1.9
		c-0.1,0.8-0.1,1.6-0.2,2.4c0,0.3-0.1,0.7-0.1,1c0.1,0.8-0.3,0.9-0.9,0.8c-1.7-0.2-3.5-0.5-5.2-0.6c-0.2,0-0.6,0.4-0.6,0.6
		c-0.2,1.2-0.2,2.4-0.4,3.6c-0.2,1.9-0.4,3.8-0.6,5.7c-0.1,1.3-0.2,2.5-0.4,3.8c-0.2,1.5-0.3,3-0.5,4.4c-1.6-0.2-3.1-0.3-4.8-0.5
		C217.3,33.3,218,27.3,218.6,21.2z"/>
	<path class="st1" d="M114,38c0.7,1.2,1.4,2.4,2.1,3.6c-1.7,1-3.3,2-4.9,3c-0.5,0.3-0.6,0.4-0.3,1c3,5,6,10,9.1,15.1
		c-1.3,0.8-2.7,1.6-4.1,2.5c-1.2-2-2.3-3.9-3.5-5.8c-1.9-3.1-3.7-6.2-5.6-9.3c-0.2-0.4-0.5-0.5-0.9-0.3c-1.7,1-3.4,2.1-5,3.1
		c-0.7-1.2-1.5-2.4-2.2-3.6C103.7,44.2,108.8,41.1,114,38z"/>
	<path class="st1" d="M284.9,61.7c-1.4-0.8-2.8-1.6-4.1-2.4c3.1-5.3,6.1-10.5,9.2-15.8c-1.9-1.1-3.8-2.2-5.7-3.3
		c0.7-1.2,1.4-2.4,2.1-3.6c5.2,3,10.3,6,15.5,9c-0.7,1.2-1.4,2.4-2.1,3.6c-1.9-1.1-3.7-2.1-5.7-3.3C291,51.2,288,56.5,284.9,61.7z"
		/>
	<path class="st1" d="M307.5,49.7c1.3,0.9,2.6,1.9,3.9,2.8c-2.9,4.1-5.8,8.1-8.7,12.2c-1.3,1.8-2.6,3.7-4,5.5
		c-0.3,0.4-0.6,0.5-1.1,0.1c-0.9-0.7-1.8-1.4-2.7-2c-0.4-0.3-0.4-0.5-0.1-0.9c1.3-1.8,2.6-3.6,3.9-5.4c2-2.7,3.9-5.5,5.9-8.2
		C305.5,52.4,306.5,51.1,307.5,49.7z"/>
	<path class="st1" d="M214.4,369.4c2.3-0.2,4.5-0.5,6.8-0.6c1.8-0.1,3.1,0.8,3.5,2.5c0.4,1.3,0.1,3.2-1.7,3.9c0,0,0,0.1-0.1,0.2
		c1.4,0.3,2.4,1.2,2.8,2.6c0.5,2.4-0.4,4-2.7,4.5c-2.2,0.5-4.5,0.6-6.7,0.9c-0.2,0-0.5-0.4-0.6-0.6c-0.3-2.3-0.5-4.6-0.7-7
		c-0.2-1.8-0.4-3.6-0.7-5.4C214.4,370.1,214.4,369.8,214.4,369.4z M217.4,381.6c1.5-0.1,2.8-0.3,4.2-0.4c1.4-0.2,2.5-0.9,2.4-2.7
		c-0.1-1.3-1.2-2.3-2.5-2.2c-1.5,0.1-3.1,0.3-4.7,0.5C217,378.5,217.2,380,217.4,381.6z M216.2,370.8c0.2,1.6,0.4,3,0.5,4.5
		c1.5-0.2,2.9-0.3,4.3-0.5c1.2-0.1,2.2-1.2,2.1-2.3c-0.1-1.4-1.3-2.4-2.6-2.3C219.1,370.4,217.7,370.6,216.2,370.8z"/>
	<path class="st1" d="M180.4,374.1c0,2.9-1,5.1-3.2,6.6c-4,2.8-10.3,0.2-10.7-5c-0.2-2.6,0.4-4.8,2.2-6.6c1.9-1.9,4.2-2.1,6.6-1.5
		C178.4,368.3,180.6,371,180.4,374.1z M173.5,368.8c-1.3-0.1-2.5,0.4-3.3,1.2c-1.7,1.8-2.4,4-1.7,6.4c0.9,3.5,5,4.9,7.7,2.9
		c2.1-1.5,2.6-3.7,2.4-6.1C178.3,370.5,176,368.8,173.5,368.8z"/>
	<path class="st1" d="M250.7,377.1c-3,0.8-6,1.5-8.9,2.3c-1.1-4.3-2.2-8.7-3.3-13c-0.1-0.5,0-0.6,0.4-0.7c2.8-0.7,5.5-1.4,8.3-2.1
		c0.1,0.5,0.2,1,0.3,1.5c-2.4,0.6-4.8,1.2-7.2,1.9c0.4,1.3,0.7,2.6,1,3.9c0.1,0.4,0.3,0.5,0.7,0.4c2.2-0.6,4.3-1.1,6.5-1.7
		c0.1,0.5,0.3,1,0.4,1.5c-2.4,0.6-4.7,1.2-7.1,1.8c0.4,1.6,0.8,3.1,1.2,4.7c2.4-0.6,4.7-1.2,7.2-1.8
		C250.4,376.1,250.5,376.5,250.7,377.1z"/>
	<path class="st1" d="M182.3,381c0.3-0.4,0.7-0.8,1-1.3c1.4,1.9,4.1,2.8,6.1,2.2c0.8-0.3,1.5-0.8,1.7-1.7c0.2-1-0.1-1.8-1.1-2.2
		c-1.2-0.5-2.4-1-3.6-1.6c-0.7-0.4-1.5-0.8-2.1-1.3c-1.7-1.4-1.1-4.2,0.8-5.3c2.3-1.4,6.4-0.6,8.1,1.6c-0.4,0.4-0.7,0.7-1.1,1.1
		c-1.3-1.6-3.1-2.1-5.1-1.8c-1,0.1-1.8,0.9-1.9,1.8c-0.1,0.8,0.6,1.6,1.6,2.1c1.5,0.6,3,1.2,4.5,2c1.4,0.7,1.8,2,1.7,3.5
		c-0.2,1.3-0.9,2.4-2.1,3C188.2,384.3,184,383.4,182.3,381z"/>
	<path class="st1" d="M156.5,363.6c2.1,0.6,4,1,5.8,1.6c1.9,0.6,3.2,2.3,3,4c-0.4,2.7-1.5,4-4,4.2c-1.1,0.1-2.3-0.4-3.5-0.7
		c-1.8-0.4-1.8-0.5-2.3,1.2c-0.4,1.2-0.6,2.5-1,3.7c-0.5-0.1-1.1-0.2-1.7-0.4C154.1,372.7,155.3,368.2,156.5,363.6z M156.4,370.7
		c1.3,0.3,2.5,0.5,3.6,0.9c1.4,0.4,2.8-0.3,3.3-1.7c0.5-1.5-0.2-3-1.8-3.4c-1.2-0.4-2.4-0.6-3.8-1
		C157.3,367.2,156.9,368.9,156.4,370.7z"/>
	<path class="st1" d="M231.6,379.7c1.5-0.3,2.9-0.5,4.4-0.8c0.3-0.1,0.7-0.1,1-0.2c1.1-0.3,1.4,0,1.3,1c0,0.1-0.2,0.3-0.4,0.4
		c-2.5,0.5-5,0.9-7.5,1.4c-0.1,0-0.2,0-0.3,0c-0.8-4.5-1.7-9.1-2.5-13.7c0.6-0.1,1.1-0.2,1.7-0.3
		C230.1,371.5,230.8,375.6,231.6,379.7z"/>
	<path class="st1" d="M209.1,369.6c0.6,0,1.1,0,1.7,0c0.1,1,0.2,2,0.2,3c0.1,1.8,0.1,3.5,0.2,5.3c0.1,1.7,0.2,3.3,0.3,5
		c0,0.2,0,0.4,0,0.6c-0.6,0-1,0-1.7,0C209.5,378.9,209.3,374.3,209.1,369.6z"/>
	<path class="st1" d="M133.1,123.9c5.5,4.4,11.4,7.5,17.8,9.8c7.3,2.6,14.8,3.6,22.6,2.7c10.2-1.3,19.1-5.4,27.2-11.7
		c0.2-0.1,0.4-0.3,0.5-0.4c0.3-0.4,0.5-0.3,0.9,0c4.6,3.9,9.8,6.8,15.3,9c3.5,1.4,7.1,2.4,10.8,3s7.5,0.7,11.2,0.3
		c10.3-1,19.5-4.7,28-10.6c0.9-0.6,1.7-1.3,2.7-2c0,0.4,0.1,0.6,0.1,0.9c0,31.9,0,63.8-0.1,95.7c0,4.7-0.6,9.3-1.5,13.9
		c-2.2,11.3-7.6,20.9-15,29.6c-9.9,11.6-21.9,20.5-35.8,26.9c-5,2.3-10.2,4.3-15.6,5.7c-0.4,0.1-1,0.1-1.4,0c-5-1.3-9.8-3-14.4-5.1
		c-14.3-6.4-26.7-15.5-36.9-27.5c-5.4-6.3-9.8-13.2-12.6-21.1c-1.4-3.9-2.3-7.9-2.9-11.9c-1-6.8-1-13.7-1-20.6c0-28.5,0-57,0-85.4
		C133,124.7,133.1,124.4,133.1,123.9z"/>
</g>
<g>
	<path class="st2" d="M212.1,7.2c0.7,0.2,1.4,0.3,2.1,0.6c2.9,1,4.9,2.9,6.3,5.6c-1.5,0.6-2.9,1.3-4.4,1.9c-0.8-1.5-1.9-2.6-3.6-3.2
		c-2.6-0.9-4.9-0.3-7,1.4c-3,2.4-3.4,7.7-1.1,10.7c1.3,1.7,2.9,2.6,5,2.9c2,0.3,3.6-0.4,5.1-1.6c0.5-0.4,0.8-1,1.3-1.5
		c1.4,0.7,2.7,1.5,4.1,2.2c-2.3,3.6-5.5,5.5-9.8,5.4c-3.5-0.1-6.7-1.2-9.1-3.8c-2-2.1-3.1-4.7-3.1-7.6c-0.1-2.7,0.4-5.2,1.9-7.6
		c1.7-2.7,4.2-4.3,7.2-5c0.4-0.1,0.9-0.2,1.3-0.4C209.6,7.2,210.8,7.2,212.1,7.2z"/>
	<path class="st2" d="M202.5,392.8c-0.8-0.3-1.7-0.4-2.5-0.9c-1.5-0.8-2.3-2.2-2.4-3.9c-0.2-2.4-0.1-4.8-0.2-7.2c0-1-0.1-2-0.2-3
		c0.6,0,1.2,0,1.9,0c0,1.1,0,2.3,0,3.4c0,2.1,0,4.2,0.2,6.3c0.2,2.4,1.8,3.6,4.5,3.5c2.6-0.1,3.8-2.2,3.8-4.5c0-2.5-0.1-5-0.2-7.5
		c0-1.6,0-1.6,1.7-1.5c0.1,1,0.2,2.1,0.2,3.1c0,2,0,4.1,0,6.1c0,3.1-1.6,5.5-4.9,5.8c-0.1,0-0.1,0.1-0.2,0.2
		C203.7,392.8,203.1,392.8,202.5,392.8z"/>
	<path class="st2" d="M361.6,201.3c-0.2,10.2-1,20.4-2.9,30.4c-1.9,10.1-4.6,19.9-8.5,29.4c-2.2,5.4-4.6,10.6-7.3,15.8
		c-2.3,4.4-4.9,8.6-7.6,12.8c-1.7,2.7-3.6,5.3-5.6,7.9c-2.7,3.5-5.5,6.9-8.4,10.3c-1.9,2.3-3.9,4.5-6.1,6.6
		c-7.9,7.8-16.3,15-25.5,21.3c-18,12.2-37.6,20.5-59,24.6c-12.7,2.5-25.5,3.4-38.4,2.7c-22.8-1.2-44.3-7.1-64.6-17.5
		c-7.4-3.8-14.7-7.9-21.6-12.8c-3.4-2.4-6.9-4.9-10.1-7.6c-4.1-3.5-8.1-7.1-11.9-10.9c-3.2-3.2-6.2-6.7-9.1-10.1
		c-2.6-3.1-5-6.2-7.4-9.5c-2-2.8-3.9-5.7-5.8-8.7c-2-3.3-4-6.6-5.7-10c-2-4-4-8-5.6-12.2c-2-4.8-3.8-9.7-5.3-14.6
		c-3.7-12-5.9-24.4-6.7-37c-0.8-12.9-0.1-25.7,2.3-38.4c1.1-5.7,2.4-11.3,4-16.8c1.5-5.1,3.2-10,5.2-14.9c1.7-4.3,3.7-8.4,5.8-12.5
		c1.7-3.4,3.6-6.8,5.6-10.1c1.8-3.1,3.9-6,5.9-8.9c2.1-3,4.2-6,6.5-8.8c4.8-5.8,9.7-11.6,15.2-16.9c20.8-20.4,45.2-34.3,73.5-41.5
		c9.4-2.4,18.9-3.8,28.5-4.4c9.4-0.6,18.8-0.3,28.2,0.8c9.5,1.1,18.9,3,28.1,5.9c5.2,1.6,10.3,3.4,15.3,5.5c4.9,2,9.8,4.3,14.5,6.8
		c3.7,1.9,7.2,4.1,10.6,6.3c2.9,1.8,5.6,3.7,8.4,5.7c2.5,1.8,4.9,3.6,7.2,5.5c2.6,2.2,5.2,4.5,7.7,6.8c2.2,2.1,4.3,4.3,6.4,6.5
		c1.9,2,3.9,4,5.7,6.2c2.3,2.8,4.5,5.6,6.7,8.5c2.1,2.8,4.1,5.6,6,8.5c1.6,2.4,3.1,4.9,4.5,7.5c1.5,2.7,3,5.4,4.3,8.2
		c1.4,2.8,2.8,5.6,3.9,8.5c2,5.1,4,10.2,5.6,15.4c3.3,10.5,5.4,21.2,6.3,32.1C361,189.4,361.3,195.4,361.6,201.3z M184.2,251.7
		c0,6.6,0,13.2,0,19.8c0,0.8,0.2,1.1,1,1.1c4.1,0,8.2,0,12.3,0c0.9,0,1.1-0.3,1.1-1.1c0-3.8,0-7.6,0-11.4c0-0.8,0.2-1.1,1-1.1
		c4,0,7.9,0,11.9,0c0.9,0,1,0.3,1,1.1c0,4,0,8.1,0,12.1c0,0.8,0.2,1.1,1.1,1.1c4.1,0,8.2,0,12.3,0c0.9,0,1.1-0.3,1.1-1.1
		c0-4.1,0-8.1,0-12.2c0-1.1,0-1.1-1.1-1.1c-4,0-8.1,0-12.1,0c-0.7,0-1-0.2-1-1c0-3.8,0-7.7,0-11.5c0-0.8,0.2-1,1-1c4,0,8.1,0,12.1,0
		c1.1,0,1.2,0,1.2-1.1c0-4,0-8,0-11.9c0-0.8,0.2-1,1-1c4,0,7.9,0,11.9,0c1.2,0,1.2,0,1.2-1.2c0-6.3,0-12.7,0-19c0-0.7,0.2-1,1-1
		c4,0,8,0,12,0c0.8,0,1,0.3,1,1c0,4,0,8.1,0,12.1c0,0.8,0.3,1.1,1.1,1c5.8,0,11.5,0,17.3,0c0.8,0,1.1-0.3,1-1.1c0-4.1,0-8.1,0-12.2
		c0-0.9-0.2-1.2-1.1-1.2c-5.6,0-11.2,0-16.8,0c-0.9,0-1.2-0.2-1.2-1.1c0.1-4,0-8,0-11.9c0-0.8,0.2-1.1,1-1.1c4,0,8.1,0,12.1,0
		c0.7,0,1-0.2,1-1c0-4.2,0-8.3,0-12.5c0-0.8-0.2-1-1-1c-4.1,0-8.3,0-12.4,0c-0.8,0-1,0.3-1,1.1c0,4.1,0,8.2,0,12.3
		c0,0.7-0.2,1-0.9,1c-8.7,0-17.4,0-26.1,0c-0.8,0-1-0.3-1-1c0-4,0-8,0-12c0-1.2,0-1.2-1.2-1.2c-8.8,0-17.5,0-26.3,0
		c-0.8,0-1-0.2-1-1c0-6.3,0-12.7,0-19c0-0.9,0.2-1.1,1.1-1.1c7.4,0,14.9,0,22.3,0c0.8,0,1.1-0.2,1.1-1c0-4.1,0-8.3,0-12.4
		c0-0.9-0.3-1.1-1.1-1.1c-7.4,0-14.9,0-22.3,0c-0.8,0-1.1-0.2-1-1c0-4,0-8,0-11.9c0-0.8-0.2-1.1-1.1-1.1c-4.1,0-8.2,0-12.3,0
		c-0.9,0-1.1,0.3-1.1,1.1c0,4.1,0,8.1,0,12.2c0,0.8,0.2,1.1,1.1,1.1c4,0,8.1,0,12.1,0c0.7,0,1,0.2,0.9,1c0,4,0,8,0,11.9
		c0,0.9-0.3,1.1-1.1,1.1c-3.9,0-7.8,0-11.8,0c-1.3,0-1.3,0-1.3,1.3c0,8.7,0,17.3,0,26c0,1.1,0,1.1-1.2,1.1c-4,0-8,0-11.9,0
		c-0.8,0-1.1,0.3-1.1,1.1c0,2.4,0,4.9,0,7.3c0,0.8-0.2,1-1,1c-7.2,0-14.5,0-21.7,0c-0.8,0-1-0.2-1-1c0-4,0-8,0-12
		c0-0.8-0.2-1.1-1-1.1c-4.1,0-8.3,0-12.4,0c-0.8,0-1,0.2-1,1c0,4.1,0,8.3,0,12.4c0,0.8,0.3,1.1,1.1,1c4,0,7.9,0,11.9,0
		c1.2,0,1.2,0,1.2,1.2c0,8,0,16,0,24c0,0.7,0.2,1.1,1,1c4.2,0,8.4,0,12.6,0c0.7,0,1-0.2,0.9-1c0-3.4,0-6.7,0-10.1c0-0.8,0.2-1,1-1
		c3.7,0,7.5,0,11.2,0c0.7,0,1-0.3,1-1c0-2.5,0-5,0-7.5c0-0.7,0.2-0.9,0.9-0.9c2.9,0,5.8,0,8.8,0c0.8,0,0.9,0.3,0.9,1
		c0,4,0,8.1,0,12.1c0,1.2,0,1.2,1.2,1.2c4,0,8,0,12,0c0.8,0,1,0.2,1,1c0,3.9,0,7.8,0,11.7c0,0.8-0.2,1.1-1.1,1.1c-4,0-7.9,0-11.9,0
		c-0.9,0-1.1,0.3-1.1,1.2C184.2,238.6,184.2,245.2,184.2,251.7z M259.9,273.2c4.4,0,8.8,0,13.2,0c0.9,0,1.1-0.3,1.1-1.1
		c0-4.1,0-8.1,0-12.2c0-1.1,0-1.1-1.1-1.1c-3.9,0-7.8,0-11.8,0c-0.8,0-1.1-0.2-1.1-1.1c0-6.4,0-12.8,0-19.2c0-0.7-0.2-1-1-1
		c-8.6,0-17.2,0-25.7-0.1c-0.8,0-1,0.3-1,1.1c0,4.1,0,8.2,0,12.3c0,0.8,0.2,1.1,1.1,1.1c3.7,0,7.5,0,11.2,0c0.9,0,1,0.3,1,1
		c0,6.4,0,12.9,0,19.3c0,0.8,0.3,1,1.1,1C251.2,273.2,255.6,273.2,259.9,273.2z M276.5,152.9c0-7.1,0-14.2,0-21.2
		c0-1.2-1.1-2.3-2.3-2.3c-14.2,0-28.4,0-42.6,0c-0.4,0-0.8,0.2-1.2,0.4c-0.9,0.6-1.1,1.4-1.1,2.5c0,13.7,0,27.4,0,41.2
		c0,2.3,0.9,3.1,3.2,3.1c13.6,0,27.1,0,40.7,0c0.3,0,0.5,0,0.8,0c1.5-0.1,2.4-1.1,2.4-2.5C276.5,166.9,276.5,159.9,276.5,152.9z
		 M129.6,152.9c0,7.1,0,14.2,0,21.3c0,1.2,0.8,2.1,2,2.2c0.3,0,0.6,0,1,0c13.6,0,27.2,0,40.8,0c2.3,0,3.2-0.9,3.2-3.2
		c0-13.6,0-27.1,0-40.7c0-0.3,0-0.6,0-0.9c-0.1-1.4-1.2-2.4-2.5-2.4c-14,0-28,0-42,0c-1.6,0-2.4,0.8-2.4,2.4
		C129.6,138.8,129.6,145.9,129.6,152.9z M129.6,251.4c0,7,0,14.1,0,21.1c0,1.6,0.9,2.5,2.5,2.5c13.9,0,27.8,0,41.8,0
		c1.5,0,2.7-1.1,2.7-2.7c0-14,0-28,0-41.9c0-1.5-1.1-2.6-2.6-2.6c-14,0-28,0-41.9,0c-1.5,0-2.4,0.9-2.4,2.4
		C129.6,237.3,129.6,244.3,129.6,251.4z"/>
	<path class="st2" d="M322.4,60.8c-3.6,3.9-7,7.6-10.4,11.3c-1.2-1.1-2.4-2.2-3.7-3.3c0.6-0.7,1.1-1.3,1.7-1.9c1.9-2,3.8-4,5.7-6
		c2.1-2.3,4.2-4.5,6.3-6.8c0.8-0.9,1.6-1.7,2.4-2.6c1.2,1.1,2.3,2.1,3.4,3.2c0.6,0.6,0.2,1.3,0.2,2c-0.1,1.4-0.3,2.7-0.5,4.1
		c-0.2,1.9-0.5,3.8-0.7,5.7c-0.1,1.3-0.3,2.7-0.4,4c-0.1,0.9-0.2,1.8-0.3,2.9c3.4-3.7,6.7-7.3,10-10.9c1.2,1.1,2.4,2.2,3.7,3.4
		c-5.3,5.8-10.6,11.6-16,17.3c-0.9-0.8-1.7-1.7-2.7-2.4c-1-0.7-0.8-1.6-0.7-2.6c0.2-1.3,0.3-2.5,0.5-3.8c0.2-1.9,0.5-3.7,0.7-5.6
		c0.1-1,0.2-2.1,0.3-3.1C322.1,64,322.2,62.6,322.4,60.8z"/>
	<path class="st2" d="M119.1,41.6c3,1.8,5.9,3.5,8.9,5.3c-1.6,0.9-3.2,1.7-4.8,2.6c-0.2,0.1-0.5,0-0.7-0.1c-2.4-1.5-4.7-3-7.1-4.4
		c-0.3-0.2-0.8-0.2-1.2-0.1c-0.9,0.4-1.7,0.9-2.7,1.5c1.3,2.5,2.7,4.9,4,7.3c-1.5,0.8-2.9,1.6-4.4,2.4c-3.8-6.9-7.5-13.8-11.4-20.7
		c3.5-1.9,7-3.8,10.5-5.6c3-1.6,6-1,8.3,1.3c1.5,1.5,2.5,3.4,2.5,5.7C121.2,38.6,120.4,40.2,119.1,41.6z M106.4,36.9
		c1,1.8,2,3.6,3,5.4c0,0.1,0.4,0.1,0.5,0c1.5-0.8,3-1.6,4.4-2.4c1.4-0.8,2.1-2.3,1.7-3.5c-0.7-2.3-2.6-3.2-4.8-2.1
		C109.7,35,108.1,35.9,106.4,36.9z"/>
	<path class="st2" d="M300.6,60.9c-6.4,0.1-12.8-5.4-12.8-12.3c0.1-6.5,5.6-12.7,12.4-12.5c6.5,0.2,12.5,5.4,12.5,12.3
		C312.7,54.8,307.4,61.1,300.6,60.9z M292.8,49.2c0.2,1.3,0.2,2.5,1.4,4.1c1.6,2.1,4.5,3.5,7.3,2.8c2-0.5,3.6-1.7,4.8-3.4
		c1-1.5,1.7-3.2,1.6-5c-0.1-2.2-1-4.1-2.9-5.4c-2-1.4-4.1-1.8-6.4-1c-1.5,0.5-2.7,1.4-3.7,2.7C293.5,45.5,292.9,47.3,292.8,49.2z"/>
	<path class="st2" d="M222,31.7c4.5-7.1,9-14.2,13.5-21.3c1.9,0.4,3.7,0.7,5.5,1c0.5,0.1,0.7,0.3,0.8,0.8c0.4,2.5,0.9,5.1,1.3,7.6
		c0.4,2.5,0.9,5.1,1.3,7.6c0.4,2.1,0.7,4.3,1.1,6.4c0.1,0.8,0.3,1.6,0.5,2.6c-1.6-0.3-3.1-0.7-4.6-0.9c-1-0.1-1.1-0.7-1.2-1.5
		c-0.1-0.9-0.2-1.7-0.4-2.6c0-0.2-0.3-0.4-0.5-0.4c-2.9-0.6-5.9-1.2-8.8-1.7c-0.3-0.1-0.8,0.2-1,0.5c-0.6,0.8-1.1,1.7-1.7,2.6
		c-0.1,0.2-0.5,0.4-0.6,0.3C225.5,32.4,223.8,32,222,31.7z M237.7,15.8c-1.9,3.2-3.8,6.2-5.6,9.3c2.5,0.5,4.9,1,7.3,1.4
		C238.7,23,238.2,19.5,237.7,15.8z"/>
	<path class="st2" d="M95,43.7c-3,2.2-6,4.5-9,6.7c-0.1,0.1-0.2,0.2-0.3,0.4c0.9,1.3,1.9,2.6,2.9,4c3.1-2.3,6.1-4.6,9.2-6.8
		c0.9,1.2,1.7,2.3,2.6,3.5c-3,2.3-6,4.5-9.1,6.8c0.7,1,1.4,1.9,2.1,2.9c0.1,0.1,0.2,0.2,0.3,0.3c0.8,1.1,0.8,1.2,1.9,0.4
		c2.7-2,5.5-4.1,8.3-6.2c0.8,1.1,1.6,2.1,2.4,3.2c0.1,0.1-0.1,0.6-0.3,0.8c-2,1.6-4.1,3.1-6.2,4.6c-2.1,1.5-4.1,3.1-6.2,4.6
		C93.3,68.9,93.2,69,93,69c-4.7-6.3-9.3-12.5-14-18.9c1.4-1,2.7-2,4.1-3c2.9-2.2,5.8-4.3,8.7-6.5c0.5-0.3,0.7-0.4,1.1,0.1
		C93.4,41.8,94.2,42.8,95,43.7z"/>
	<path class="st2" d="M276,27.8c-1.5,0.1-2.9,0.3-4.3,0.4c-0.2,0-0.5-0.2-0.5-0.4c-0.5-2.7-2.8-4.5-5.2-5c-4.1-0.8-7.7,2.1-8.6,6
		c-0.5,2.1-0.4,4.3,0.9,6.1c2.3,3.3,6.4,4.4,10.1,1.5c1.1,1.1,2.2,2.3,3.2,3.4c-5.1,4.2-10.5,3.4-15,0c-4.6-3.5-5.9-8.9-3.6-14.3
		c2.4-5.7,7-7.7,11.5-7.4C271.4,18.8,275,22.1,276,27.8z"/>
	<path class="st2" d="M81.1,69.9c1.4-0.5,2.8-0.9,4.3-1.5c0.1,0.5,0.3,1,0.4,1.5c0.2,2.9-0.2,5.7-2,8c-2.7,3.4-6.2,5.3-10.6,5.3
		c-2.6,0-4.8-1-6.9-2.6c-2.7-2.1-4.4-4.8-4.8-8.2c-0.4-2.8,0.3-5.6,1.9-8c1.8-2.7,4.1-4.8,7.4-5.5c1.9-0.4,4.2-0.3,5.6,0.4
		c-0.4,1.1-0.8,2.3-1.2,3.4c-0.2,0.7-0.4,0.9-1.2,0.7c-2.3-0.4-4.4,0.3-6,2.2c-1.1,1.3-1.7,2.8-1.8,4.4c0,1.7,0.5,3.3,1.5,4.7
		c1.3,1.7,3,2.9,5.1,3.4c3.8,0.8,7.7-1.8,8.2-5.3C81.2,71.9,81.1,70.9,81.1,69.9z"/>
	<path class="st2" d="M178.5,12.9c-3.9,0.7-7.7,1.3-11.5,1.9c0.3,1.7,0.6,3.3,0.9,4.9c3.9-0.6,7.5-1.3,11.3-1.9
		c0.2,1.3,0.4,2.6,0.6,3.8c0.1,0.4-0.1,0.6-0.5,0.7c-3.4,0.5-6.7,1-10.1,1.6c-0.2,0-0.5,0.4-0.5,0.5c0.5,2.9,1,5.8,1.4,8.6
		c0,0.1,0.1,0.2,0.2,0.5c-1.7,0.3-3.3,0.6-5,0.9c-1.3-7.7-2.6-15.5-3.8-23.3c3-0.5,6-1,9-1.5c2.3-0.4,4.6-0.8,6.8-1.2
		c0.2,0,0.7,0.1,0.7,0.3C178.1,10.2,178.2,11.5,178.5,12.9z"/>
	<path class="st2" d="M131.3,24.8c-2.2,0.8-4.3,1.6-6.4,2.4c-0.5-1.4-1.1-2.7-1.6-4.1c5.8-2.2,11.7-4.4,17.6-6.7
		c0.5,1.4,1.1,2.7,1.6,4.1c-2.1,0.8-4.2,1.6-6.4,2.4c2.3,5.9,4.5,11.9,6.8,17.9c-1.5,0.6-3.1,1.2-4.7,1.8
		C135.8,36.8,133.6,30.8,131.3,24.8z"/>
	<path class="st2" d="M284.7,26.4c1.5,0.7,3,1.4,4.5,2.1c-3.5,7-6.9,14-10.5,21.2c-1.5-0.7-2.9-1.4-4.5-2.2
		C277.7,40.4,281.2,33.4,284.7,26.4z"/>
	<path class="st2" d="M154.1,37.3c-2-7.6-4.1-15.1-6.1-22.8c1.7-0.4,3.2-0.9,4.8-1.3c1.2,4.6,2.5,9.1,3.7,13.7
		c0.8,2.8,1.5,5.7,2.2,8.5c0,0.2-0.1,0.6-0.2,0.6C157.1,36.6,155.6,36.9,154.1,37.3z"/>
	<path class="st2" d="M192,31.1c-1.8,0.1-3.3,0.2-4.9,0.4c-0.1-0.9-0.2-1.7-0.3-2.5c-0.2-3.4-0.5-6.8-0.7-10.2
		c-0.1-1-0.1-1.9-0.2-2.9c-0.1-2.2-0.2-4.5-0.4-6.7c0-0.4-0.1-0.7-0.2-1.1c1.7-0.1,3.4-0.3,5-0.4c0.1,1,0.2,2,0.3,2.9
		c0.1,2.2,0.2,4.5,0.4,6.7c0.2,2.7,0.3,5.5,0.5,8.2C191.6,27.2,191.8,29.1,192,31.1z"/>
	<path class="st2" d="M214.6,380.2c0.4,4.1,0.9,7.9,1.3,11.8c-0.1,0.1-0.1,0.1-0.2,0.1c-1.8,0.2-1.7,0.1-1.9-2.2
		c-0.2-2.7-0.6-5.3-0.9-8c-0.1-1.4-0.2-2.8-0.4-4.2c0.4-0.1,0.7-0.2,1-0.2c1.2-0.3,1.6-0.1,2.2,1c1.7,3,3.3,6,5,9.1c0,0,0,0,0.2,0.1
		c0.4-1.3,0.8-2.6,1.2-4c0.7-2.2,1.3-4.4,1.9-6.7c0.2-0.7,0.6-0.8,1.2-0.9c0.5,0,1,0,1.6,0c0.5,4.7,1,9.5,1.6,14.5
		c-0.6,0.1-1.2,0.2-1.8,0.2c-0.4-4-0.8-7.8-1.3-11.6c-0.1,0-0.1,0-0.2,0c-1.1,3.9-2.3,7.7-3.4,11.6c-0.1,0.3-0.3,0.5-0.5,0.7
		c-0.2-0.2-0.5-0.3-0.7-0.6c-1.9-3.5-3.8-6.9-5.6-10.4C214.9,380.5,214.9,380.5,214.6,380.2z"/>
	<path class="st2" d="M134.5,380.1c-0.5,0.2-1,0.3-1.6,0.5c-0.3-0.7-0.5-1.3-0.8-2c-2.5,0.3-4.7-0.4-6.6-2.2c-1.2-1.2-1.9-2.7-2-4.4
		c-0.2-3.5,2.1-7.4,5.8-8.4c3-0.8,7.1,0.9,8.5,4.3c1.2,2.9,0.4,7.9-4.1,10.3c0.1,0.3,0.2,0.6,0.3,0.9
		C134.2,379.4,134.3,379.7,134.5,380.1z M133.1,376.6c3-1.8,4.3-5.9,2.9-8.6c-1.3-2.3-4.4-3.4-6.7-2.4c-3.1,1.4-4.5,5.1-3.6,8.1
		c0.7,2.2,3.6,3.8,5.8,3.3c-0.3-0.9-0.6-1.9-0.9-2.8c0.5-0.2,1-0.3,1.6-0.5C132.5,374.6,132.8,375.6,133.1,376.6z"/>
	<path class="st2" d="M181.8,377.3c2.1-0.8,2.5,0.9,3.2,2c2,3.2,4,6.4,6,9.6c0.1,0.1,0.2,0.3,0.4,0.4c0.3-3.8,0.6-7.6,0.8-11.5
		c0.6,0.1,1.2,0.1,1.8,0.2c-0.4,4.9-0.7,9.7-1.1,14.6c-0.9,0-1.7,0-2.3-1c-2.2-3.6-4.4-7.1-6.6-10.6c-0.1-0.2-0.3-0.4-0.6-0.8
		c-0.3,4-0.6,7.7-0.9,11.5c-0.6,0-1.1,0-1.8,0C181.1,386.9,181.4,382,181.8,377.3z"/>
	<path class="st2" d="M69.3,338.5c3.4-3.7,6.7-7.2,10.1-10.9c1.6,1.7,3.4,3.2,4.9,5.1c1.9,2.3,1.6,5.8-0.1,8.1
		c-1,1.3-2.2,2.3-3.7,2.9c-2.5,0.9-4.8,0.3-6.8-1.2C72.1,341.2,70.7,339.8,69.3,338.5z M71.7,338.5c1,0.9,1.9,1.9,3,2.7
		c0.9,0.6,1.9,0.9,3,1.1c1.7,0.3,3.2-0.6,4.4-1.7c1.6-1.6,2.2-3.3,1.6-5.6c-0.3-1.4-1.3-2.2-2.3-3.1c-0.6-0.6-1.2-1.1-1.8-1.7
		c-1.4,1.5-2.6,2.9-3.9,4.3C74.3,335.7,73,337,71.7,338.5z"/>
	<path class="st2" d="M264,366.1c4.2,0,7.3,3.7,7.3,8.1c0,4.1-3.1,7-7.4,7.1c-4.2,0.1-7.2-3.6-7.3-8
		C256.4,369.3,259.8,366.1,264,366.1z M258.4,372.3c0.1,3,0.9,4.7,2.4,6.2c2,1.8,4.9,1.5,6.8,0c1.9-1.6,2.2-3.7,1.6-5.9
		c-0.7-2.8-2.8-5.2-6.3-4.7C260.6,368.2,258.2,370.3,258.4,372.3z"/>
	<path class="st2" d="M102.3,360.8c0-4.1,3.4-8.1,7.6-8.1c4,0,7.5,3.2,7.4,7.2c-0.2,4.2-3.1,8-7.6,8
		C105.8,368,102.3,364.9,102.3,360.8z M115.4,359.7c0.3-3.1-2.9-5.4-5.3-5.3c-1.9,0.1-3.3,0.9-4.4,2.3c-2.1,2.7-2.4,6.3,0.6,8.5
		c1.2,0.9,2.6,1.3,4,1C113.5,365.6,115.5,362.2,115.4,359.7z"/>
	<path class="st2" d="M283.4,373.6c-2.4-4.4-4.7-8.8-7-13c1.4-0.7,2.8-1.4,4.2-2.2c3.8-2.3,8.3-1.2,10.4,2.7
		c1.8,3.4,1.2,7.2-2.2,9.4C287.1,371.7,285.2,372.6,283.4,373.6z M284.2,371.4c1.3-0.7,2.7-1.3,3.8-2.2c1.5-1.1,2.2-2.7,2.1-4.5
		c-0.1-1.8-0.9-3.4-2.3-4.5c-1-0.9-2.3-1.5-3.7-1.3c-2,0.2-3.6,1.4-5.4,2.3C280.6,364.6,282.4,367.9,284.2,371.4z"/>
	<path class="st2" d="M95.5,350.8c1.9,1.4,3.8,2.7,5.6,4.1c-0.9,1.2-1.8,2.3-2.5,3.5c-0.6,1-1.5,1-2.2,0.9c-3.8-0.2-7-2.6-7.7-6.6
		c-0.3-2,0.3-3.9,1.5-5.5c2.5-3.5,6.7-4.2,10.4-1.9c1.8,1.2,2.9,2.9,3.1,5.1c0,0.2,0.1,0.4,0.2,0.7c-0.6-0.1-1.1-0.2-1.7-0.2
		c-0.2-1.8-1-3.1-2.4-4.1c-1.8-1.3-4.2-1.5-6.3-0.1c-2,1.3-3.1,3.3-3,5.6c0,2.5,2.2,4.9,4.7,5.2c0.1,0,0.3,0.1,0.4,0.1
		c0.7,0.2,1.4,0.1,1.8-0.6c0.1-0.1,0.1-0.3,0.2-0.4c1.1-1.6,1.1-1.5-0.5-2.7c-0.8-0.6-1.6-1.2-2.5-1.8
		C95,351.7,95.2,351.3,95.5,350.8z"/>
	<path class="st2" d="M66.5,332.8c-3.6,0.4-7.3-3.6-7.2-7.4c0.1-3.6,4.1-7.9,8.2-7.6c3.6,0.2,7,3.4,7.1,7.3
		C74.5,329.1,70.4,333.1,66.5,332.8z M66.4,331.2c0.5-0.1,0.9-0.1,1.4-0.2c1.9-0.5,3.2-1.8,4.2-3.4c1-1.6,1.1-3.3,0.2-4.9
		c-0.9-1.8-2.4-3-4.5-3c-2.4-0.1-4.2,1.2-5.6,3.1c-1.3,1.7-1.5,3.6-0.6,5.4C62.5,329.9,64,331.2,66.4,331.2z"/>
	<path class="st2" d="M336.8,334.3c-0.5,0.5-0.9,0.9-1.3,1.4c-3.6-3.3-7.2-6.6-10.8-10c1-1,2-2.1,3-3.1c0.6-0.6,1.2-1.3,1.9-1.9
		c2.9-2.4,6.8,0.3,6.9,3c0,1-0.3,2-0.4,3.1c2.1,0.3,4.4,0.7,6.7,1.1c-0.8,1.3-1.3,1.6-2.8,1.3c-1.5-0.3-3.1-0.6-4.6-0.8
		c-0.4-0.1-1,0.1-1.3,0.4c-1.6,1.5-1.6,1.5-0.1,2.9c0.5,0.5,0.9,0.9,1.4,1.4C335.8,333.4,336.3,333.8,336.8,334.3z M334.8,324.3
		c-0.1-1-0.4-1.8-1.4-2.4c-1-0.6-2.1-0.7-3,0.1c-1.1,0.9-2,1.9-3,3c-0.1,0.1-0.1,0.6,0.1,0.7c1.1,1.1,2.2,2.2,3.4,3.2
		c0.1,0.1,0.5,0.1,0.7,0c0.6-0.6,1.2-1.1,1.7-1.8C334,326.3,334.8,325.6,334.8,324.3z"/>
	<path class="st2" d="M142.2,377c-0.6,1.9-1.2,3.7-1.8,5.6c-0.6-0.2-1.2-0.4-1.7-0.6c1.5-4.7,3-9.3,4.5-14c2.3,0.8,4.5,1.3,6.6,2.3
		c2.5,1.2,3,3.9,1.4,6.4c-0.9,1.6-2.5,1.9-4.3,1.7c0.3,1.1,0.6,2.3,0.9,3.4c0.3,1.1,0.6,2.3,0.9,3.4c-1.6-0.1-1.9-0.4-2.3-1.7
		c-0.5-1.6-0.9-3.2-1.4-4.8c-0.1-0.4-0.5-0.7-0.8-0.9C143.7,377.4,143,377.3,142.2,377z M142.7,375.4c0.1,0.1,0.3,0.2,0.4,0.2
		c1.1,0.4,2.2,0.8,3.4,1.1c0.5,0.1,1.1,0.1,1.7,0c1-0.2,2-1.5,2.1-2.7c0.1-0.8-0.6-2.1-1.4-2.4c-1.2-0.5-2.5-0.9-3.7-1.4
		c-0.6-0.2-0.7,0-0.9,0.5C143.7,372.3,143.2,373.9,142.7,375.4z"/>
	<path class="st2" d="M256.5,384.1c-2.2,0.8-1.8,0.8-3.3-0.5c-1.2-1.1-2.4-2.2-3.7-3.3c-0.1-0.1-0.4-0.1-0.6-0.1
		c-0.8,0.2-1.6,0.4-2.5,0.7c0.5,1.9,1,3.7,1.5,5.6c-0.6,0.2-1.1,0.3-1.7,0.5c-1.3-4.7-2.6-9.4-4-14.2c1-0.3,2-0.6,3-0.9
		c1.1-0.3,2.1-0.6,3.2-0.8c1.7-0.3,3.1,0.1,4.2,1.4c0.9,1.2,1.3,2.5,0.9,4c-0.3,1.4-1.2,2.3-2.6,2.9
		C252.9,381,254.7,382.6,256.5,384.1z M246.1,379.4c0.8-0.2,1.5-0.4,2.1-0.6c0.7-0.2,1.4-0.4,2.1-0.6c1.3-0.4,1.9-1.8,1.7-3.3
		c-0.2-1.1-1.4-2.2-2.5-2c-1.5,0.2-3,0.6-4.5,1c-0.1,0-0.3,0.4-0.3,0.5C245.1,376,245.6,377.7,246.1,379.4z"/>
	<path class="st2" d="M298,347.9c0.8,1.5,0.8,1.4-0.6,2.3c-1.7,1.1-3.4,2.2-5.2,3.3c0.9,1.3,1.7,2.7,2.6,4c2.2-1.4,4.3-2.7,6.5-4.1
		c0.3,0.4,0.6,0.9,0.9,1.3c-2,1.3-4,2.5-6,3.8c-0.3,0.2-0.6,0.3-0.3,0.8c0.8,1.2,1.6,2.5,2.5,3.9c2.2-1.4,4.4-2.8,6.7-4.3
		c0.3,0.5,0.5,0.9,0.8,1.4c-2.7,1.7-5.4,3.5-8.1,5.2c-2.7-4.1-5.3-8.3-7.9-12.4C292.5,351.4,295.2,349.7,298,347.9z"/>
	<path class="st2" d="M232.1,376.8c0.3,1.6,0.6,3.1,0.9,4.7c2.2-0.5,4.5-0.9,6.7-1.4c0.8-0.2,1.4,0.5,1.2,1.2c0,0.1-0.3,0.3-0.5,0.3
		c-2.2,0.4-4.3,0.8-6.5,1.3c-0.2,0-0.4,0.1-0.6,0.2c0.3,1.7,0.7,3.3,1,4.9c2.6-0.5,5.2-1,7.7-1.5c0.1,0.5,0.2,1,0.2,1.6
		c-3.2,0.6-6.3,1.3-9.4,1.9c-0.9-4.8-1.9-9.6-2.8-14.5c3.1-0.6,6.2-1.2,9.4-1.8c0.1,0.5,0.2,1,0.4,1.5
		C237.2,375.8,234.7,376.3,232.1,376.8z"/>
	<path class="st2" d="M339.8,310.4c1.2,0.9,2.3,1.8,3.5,2.7c0.1,0.1,0.6-0.1,0.7-0.2c1.4-1.9,2.8-3.8,4.2-5.6c0.1,0,0.1,0,0.2,0
		c1.1,0.9,1.1,0.9,0.3,2c-1,1.4-2.1,2.8-3.2,4.2c-0.2,0.2-0.3,0.5-0.5,0.8c1.3,1,2.6,2,4.1,3.1c1.5-2.1,3.1-4.2,4.6-6.2
		c0,0,0.1,0,0.2,0c1.1,0.8,1.2,0.8,0.4,2c-1.6,2.2-3.2,4.4-4.9,6.6c-3.9-2.9-7.8-5.8-11.8-8.8c1.9-2.6,3.8-5.1,5.8-7.8
		c0.5,0.4,0.9,0.7,1.3,1C342.9,306.3,341.4,308.3,339.8,310.4z"/>
	<path class="st2" d="M326.8,332.6c0.4,0.4,0.7,0.8,1.1,1.2c-1.9,1.7-3.7,3.4-5.6,5.2c1.2,1.2,2.3,2.4,3.5,3.7
		c1.9-1.7,3.7-3.5,5.6-5.3c0.3,0.3,0.7,0.7,1.1,1.1c-2.3,2.1-4.6,4.3-7,6.6c-3.3-3.6-6.7-7.1-10.1-10.8c2.4-2.2,4.7-4.4,7-6.6
		c0.4,0.4,0.7,0.8,1.1,1.2c-1.9,1.8-3.8,3.6-5.7,5.3c1.1,1.2,2.2,2.3,3.3,3.5C323,336,324.9,334.3,326.8,332.6z"/>
	<path class="st2" d="M314.1,337.9c0,0.6,0,1.1,0,1.7c-2-0.2-3.6,0.5-4.9,1.9c-0.8,0.9-1,2-0.5,2.8c0.5,0.9,1.4,1.1,2.6,0.7
		c1.1-0.4,2.2-0.9,3.3-1.3c2-0.8,3.9-0.7,5.1,0.5c1.5,1.7,1.5,3.9,0.2,5.6c-1.2,1.7-2.9,2.7-4.9,3.2c-0.8,0.2-1.6,0.1-2.4,0.1
		c0-0.6,0-1.1,0-1.6c1.1-0.2,2.2-0.2,3.2-0.6c1.4-0.5,2.6-1.4,3.1-2.9c0.3-0.9,0.1-1.7-0.5-2.3c-0.6-0.6-1.4-0.8-2.2-0.5
		c-1.3,0.5-2.6,1-4,1.5c-1.1,0.4-2.2,0.8-3.5,0.3c-1.6-0.7-2.9-2.8-1.8-5.2C308,339.8,311.1,337.3,314.1,337.9z"/>
	<path class="st2" d="M56.7,320.9c-3.1,0-5.5-1.6-6.7-4.7c-1.3-3.4,0-6.6,2.4-8.4c3.4-2.6,6.8-2.3,9.7-0.1c2.3,1.8,3.2,5.1,2.2,7.5
		c-0.5-0.2-1-0.4-1.5-0.7c0.8-3.8-1.4-6.5-4.9-6.8c-2.8-0.3-5.9,1.9-6.6,5c-0.6,2.5,1.1,6,4.4,6.4c0.9,0.1,1,0.6,1,1.3
		C56.6,320.6,56.7,320.7,56.7,320.9z"/>
	<path class="st2" d="M165.9,381.2c1.6-1.6,3.3-3.2,4.8-4.8c0.7-0.8,1.4-0.9,2.3-0.7c0.2,0.1,0.5,0.2,0.8,0.3
		c-1.3,1.2-2.5,2.3-3.7,3.5c-0.5,0.5-0.9,1-1.4,1.4c-1.6,1.3-2.6,2.9-2.8,5c-0.1,1.1-0.4,2.2-0.6,3.3c-0.6-0.1-1.2-0.2-1.8-0.3
		c0.3-1.8,0.6-3.6,1-5.3c0.3-1-0.3-1.7-0.6-2.5c-1-2.5-2.1-5.1-3.2-7.6c1.3-0.3,1.9,0.1,2.4,1.3c0.8,2,1.7,4,2.5,6
		C165.7,380.9,165.8,381,165.9,381.2z"/>
	<path class="st2" d="M346.3,323.4c-0.4,0.5-0.7,0.9-1.2,1.4c-2.1-1.8-4.2-3.5-6.3-5.2c-1.5-1.3-3.1-2.5-4.6-3.7
		c-0.3-0.3-0.4-0.6-0.1-0.8c0.3-0.3,0.7-0.5,1.1-0.8C338.8,317.1,342.5,320.2,346.3,323.4z"/>
	<path class="st2" d="M82.9,350.6c-0.4-0.3-0.9-0.7-1.4-1.1c1.4-1.7,2.8-3.4,4.1-5.1c1.5-1.9,3.1-3.8,4.6-5.7
		c0.3-0.4,0.6-0.8,1.1-0.2c0.4,0.4,1,0.6,0.3,1.4c-2.1,2.5-4.1,5-6.2,7.5C84.7,348.6,83.8,349.6,82.9,350.6z"/>
	<path class="st2" d="M316.2,36.4c-2.5,0.4-4.9,0.7-7.2,1c-0.2,0-0.4,0.1-0.5,0c-0.8-0.5-1.6-1-2.5-1.6c1.8-0.4,3.4-0.7,5-1.2
		c1.4-0.5,2.4-0.2,3.4,0.7C314.9,35.6,315.5,36,316.2,36.4z"/>
	<path class="st2" d="M78.2,320.1c-1.8-0.5-3.9,0.2-5.4-1.4c1.3,0.1,2.7,0,4,0.2C77.3,319,77.7,319.7,78.2,320.1z"/>
	<path class="st2" d="M206.7,373.6c-1.6,0.8-2.3,2.8-4.3,3c-0.1-0.1-0.1-0.1-0.2-0.2c1-0.9,1.9-1.9,2.9-2.8c0.3-0.3,1-0.2,1.5-0.3
		C206.6,373.4,206.6,373.5,206.7,373.6z"/>
	<path class="st2" d="M226.5,213.4c0,5.5,0,11,0,16.5c0,0.8-0.2,1.1-1,1.1c-4,0-7.9,0-11.9,0c-0.8,0-1-0.3-1-1.1c0-3.9,0-7.8,0-11.7
		c0-1.3,0-1.3-1.2-1.3c-4,0-7.9,0-11.9,0c-0.8,0-1.1-0.2-1-1c0-4,0-8.1,0-12.1c0-0.8-0.2-1-1-1c-4.1,0-8.1,0-12.2,0
		c-0.9,0-1.1-0.3-1.1-1.1c0-4,0-8,0-11.9c0-0.8,0.2-1.1,1-1.1c4,0,8.1,0,12.1,0c0.7,0,0.9,0.2,0.9,0.9c0,1.7,0,3.4,0,5.1
		c0,0.8,0.2,1.1,1.1,1.1c8.7,0,17.3,0,26,0c1.2,0,1.2,0,1.2,1.2C226.5,202.4,226.5,207.9,226.5,213.4z"/>
	<path class="st2" d="M205.5,244.6c-2,0-4.1,0-6.1,0c-0.6,0-0.8-0.2-0.8-0.8c0-3.9,0-7.8,0-11.7c0-0.6,0.2-0.8,0.8-0.8
		c4.1,0,8.2,0,12.3,0c0.6,0,0.8,0.2,0.8,0.8c0,3.9,0,7.8,0,11.8c0,0.7-0.3,0.8-0.9,0.8C209.6,244.6,207.6,244.6,205.5,244.6z"/>
	<path class="st2" d="M253,134.3c5.8,0,11.6,0,17.4,0c0.8,0,1.1,0.2,1.1,1.1c0,11.7,0,23.3,0,35c0,0.9-0.2,1.1-1.1,1.1
		c-11.7,0-23.3,0-35,0c-0.8,0-1.1-0.2-1.1-1.1c0-11.7,0-23.4,0-35c0-0.8,0.2-1.1,1-1.1C241.3,134.3,247.2,134.3,253,134.3z
		 M266.4,152.9c0-4.1,0-8.3,0-12.4c0-0.8-0.2-1.1-1-1.1c-8.3,0-16.5,0-24.8,0c-0.8,0-1,0.3-1,1.1c0,8.2,0,16.5,0,24.7
		c0,0.8,0.2,1.1,1.1,1.1c8.2,0,16.5,0,24.7,0c0.9,0,1.1-0.3,1.1-1.1C266.4,161.1,266.4,157,266.4,152.9z"/>
	<path class="st2" d="M134.4,152.8c0-5.8,0-11.7,0-17.5c0-0.8,0.2-1,1-1c11.7,0,23.4,0,35.1,0c0.8,0,1.1,0.2,1.1,1
		c0,11.7,0,23.4,0,35c0,0.9-0.3,1.1-1.1,1.1c-11.7,0-23.4,0-35,0c-0.8,0-1.1-0.2-1.1-1C134.4,164.6,134.4,158.7,134.4,152.8z
		 M152.9,139.5c-4.1,0-8.2,0-12.3,0c-0.8,0-1.1,0.2-1.1,1.1c0,8.3,0,16.5,0,24.8c0,0.7,0.2,1,1,1c8.3,0,16.6,0,24.9,0
		c0.8,0,1-0.3,1-1.1c0-8.2,0-16.4,0-24.7c0-0.9-0.3-1.1-1.2-1.1C161.1,139.5,157,139.5,152.9,139.5z"/>
	<path class="st2" d="M171.5,251.4c0,5.8,0,11.7,0,17.5c0,0.8-0.2,1.1-1,1.1c-11.7,0-23.4,0-35.1,0c-0.8,0-1-0.3-1-1.1
		c0-11.7,0-23.4,0-35.1c0-0.8,0.2-1,1-1c11.7,0,23.5,0,35.2,0c0.8,0,1,0.2,1,1C171.5,239.7,171.5,245.6,171.5,251.4z M166.4,251.4
		c0-4.1,0-8.3,0-12.4c0-0.8-0.2-1.1-1-1.1c-8.3,0-16.6,0-24.9,0c-0.8,0-1,0.3-1,1c0,8.3,0,16.6,0,24.9c0,0.7,0.2,1,0.9,1
		c8.3,0,16.6,0,24.9,0c0.8,0,1-0.3,1-1C166.4,259.7,166.4,255.5,166.4,251.4z"/>
</g>
</svg>
