<?xml version="1.0" encoding="utf-8"?>
<!-- Generator: Adobe Illustrator 24.1.3, SVG Export Plug-In . SVG Version: 6.00 Build 0)  -->
<svg version="1.1" id="Layer_1" xmlns="http://www.w3.org/2000/svg" xmlns:xlink="http://www.w3.org/1999/xlink" x="0px" y="0px"
	 viewBox="0 0 400 172" style="enable-background:new 0 0 400 172;" xml:space="preserve">
<style type="text/css">
	.st0{fill:#222222;}
</style>
<image style="overflow:visible;opacity:0.15;" width="2066" height="819" xlink:href="7ADAB30A.jpg"  transform="matrix(0.1827 0 0 0.1827 11.2236 11.1656)">
</image>
<g>
	<path class="st0" d="M397,169.1c-131.3,0-262.7,0-394,0C3,113.7,3,58.3,3,2.9c131.3,0,262.7,0,394,0C397,58.3,397,113.7,397,169.1z
		 M12.1,160c125.3,0,250.5,0,375.7,0c0-49.4,0-98.7,0-148c-125.3,0-250.5,0-375.7,0C12.1,61.4,12.1,110.6,12.1,160z"/>
	<path class="st0" d="M156,103.8c-2.7,0-5.2,0-7.8,0c0-12.1,0-24.2,0-36.5c0.3,0,0.6,0,1,0c5.5,0,11.1-0.1,16.6,0
		c5.8,0.1,10.3,3.1,11.5,9.2c0.8,4.1,0,7.9-3.2,10.9c-1.2,1.1-2.5,1.8-4,2.3c-0.2,0.1-0.3,0.1-0.5,0.2c2.7,4.6,5.4,9.2,8.2,13.9
		c-2.9,0-5.7,0-8.5,0c-0.2,0-0.5-0.2-0.6-0.4c-1.7-2.9-3.3-5.9-4.9-8.9c-0.5-0.9-1.2-1.8-1.6-2.8c-0.3-0.8-0.8-0.9-1.6-0.9
		c-1.5,0-3,0-4.6,0C156,95.2,156,99.5,156,103.8z M156,84c2.6,0,5.1,0,7.7,0c0.7,0,1.4,0,2.1-0.2c2.2-0.5,3.8-2.3,3.8-4.4
		c0-2.6-1.3-4.4-3.8-4.9c-1.1-0.2-2.2-0.2-3.2-0.2c-2.1,0-4.3,0-6.5,0C156,77.5,156,80.7,156,84z"/>
	<path class="st0" d="M216.1,103.9c4.7-12.2,9.4-24.3,14.1-36.5c3.1,0,6.2,0,9.3,0c0.3,0,0.6,0.4,0.7,0.7c1,2.5,1.9,5,2.8,7.4
		c2,5.3,4.1,10.5,6.1,15.8c1.5,4,3.1,8,4.6,11.9c0.1,0.2,0.1,0.4,0.1,0.6c-2.8,0-5.5,0-8.2,0c-0.5,0-0.7-0.2-0.8-0.6
		c-0.6-1.7-1.2-3.3-1.8-5c-0.2-0.5-0.4-0.6-0.9-0.6c-4.8,0-9.6,0-14.4,0c-0.5,0-0.7,0.2-0.8,0.6c-0.6,1.7-1.2,3.4-1.8,5
		c-0.2,0.4-0.4,0.6-0.9,0.6C221.7,103.9,219,103.9,216.1,103.9z M240.8,90.7c-1.9-5.2-3.8-10.3-5.6-15.4c-0.1,0-0.1,0-0.2,0.1
		c-1.9,5.1-3.7,10.2-5.6,15.3C233.3,90.7,237,90.7,240.8,90.7z"/>
	<path class="st0" d="M326.6,103.9c-8.6,0-17.2,0-25.8,0c0-12.1,0-24.2,0-36.4c8.6,0,17.2,0,25.8,0c0,2.2,0,4.5,0,6.8
		c-6,0-12,0-18,0c0,2.6,0,5,0,7.5c5.9,0,11.7,0,17.6,0c0,2.3,0,4.5,0,6.9c-5.8,0-11.7,0-17.6,0c0,2.8,0,5.5,0,8.3c6,0,12,0,18,0
		C326.6,99.3,326.6,101.5,326.6,103.9z"/>
	<path class="st0" d="M105.2,67.4c2.6,0,5.2,0,7.8,0c0,0.4,0,0.7,0,1.1c0,7.1,0,14.1,0,21.2c0,2.2,0.8,4.2,2.4,5.7
		c1.4,1.3,3.2,2,5.1,2.1c1.9,0.1,3.8,0.1,5.5-0.9c2.2-1.2,3.4-3,3.9-5.4c0.2-0.8,0.2-1.7,0.2-2.5c0-6.7,0-13.5,0-20.2
		c0-0.4,0-0.7,0-1.1c2.7,0,5.3,0,8,0c0,0.3,0,0.6,0,0.9c0,7.2,0.1,14.4,0,21.6c-0.1,3.9-1.2,7.6-4.1,10.4c-2.2,2.1-4.9,3.4-8,3.8
		c-2,0.3-4.1,0.5-6.1,0.4c-4.2-0.2-8.1-1.4-11.1-4.6c-1.8-2-2.9-4.3-3.3-6.9c-0.2-1.6-0.4-3.2-0.4-4.9c0-6.5,0-13,0-19.6
		C105.2,68.1,105.2,67.8,105.2,67.4z"/>
	<path class="st0" d="M92,77.6c-3.5-3-7.5-4.2-12-3.9c-1.6,0.1-3.1,0.8-3.8,2.5c-0.6,1.6,0.1,3,1.9,3.5c2.4,0.7,4.8,1.4,7.2,2
		c2.9,0.8,5.9,1.6,8.3,3.6c1.8,1.4,2.8,3.2,3.2,5.3c0.6,3.1,0,6.1-2,8.7c-1.7,2.2-3.9,3.6-6.6,4.3c-2.5,0.7-5.1,0.9-7.6,0.7
		c-5.2-0.4-10-1.9-13.8-5.9c1.4-1.9,2.7-3.8,4-5.6c1.7,1.1,3.3,2.2,5,3.1c3,1.5,6.3,1.8,9.6,1.2c1.5-0.3,2.8-1,3.5-2.6
		c0.5-1.2,0.2-2.5-0.9-3.3c-1.8-1.3-4-1.7-6.1-2.2c-3.5-0.8-7-1.6-10-3.6c-2.1-1.5-3.3-3.4-3.8-6c-0.8-4.7,2-9,5.8-11
		c3.1-1.6,6.4-2,9.8-1.8c3.9,0.3,7.6,1.4,10.8,3.8c0.5,0.4,1,0.8,1.6,1.3C94.8,73.8,93.4,75.7,92,77.6z"/>
	<path class="st0" d="M293.5,75.6c-2.5,1.2-4.7,2.3-6.9,3.4c-1.3-2.4-3.3-4.1-6-4.9c-3.7-1-7-0.2-9.9,2.2c-3.3,2.7-4.3,6.4-4.1,10.5
		c0.2,2.9,1.3,5.5,3.3,7.6c3.8,3.7,9.6,4.5,14.1,1.1c1-0.8,1.8-2,2.7-3.1c2,1,4.2,2,6.5,3.1c-1.2,2.1-2.7,3.9-4.5,5.3
		c-2.1,1.7-4.5,2.8-7.3,3.3c-2.6,0.5-5.2,0.4-7.7-0.1c-3.4-0.6-6.4-2-9-4.2c-2.9-2.5-4.9-5.8-5.7-9.6c-1-4.4-0.6-8.7,1.3-12.9
		c1.6-3.4,4.1-6,7.3-7.9c3.7-2.1,7.7-2.9,11.9-2.6c3.7,0.3,7.1,1.4,9.8,4.1C290.8,72.4,292,73.9,293.5,75.6z"/>
	<path class="st0" d="M194,103.9c-2.7,0-5.2,0-7.8,0c0-12.1,0-24.2,0-36.4c8.6,0,17.2,0,25.8,0c0,2.2,0,4.5,0,6.8c-6,0-12,0-18,0
		c0,2.6,0,5,0,7.5c5.9,0,11.7,0,17.6,0c0,2.3,0,4.5,0,6.9c-5.8,0-11.7,0-17.6,0C194,93.8,194,98.8,194,103.9z"/>
</g>
</svg>
