<?xml version="1.0" encoding="utf-8"?>
<!-- Generator: Adobe Illustrator 24.1.3, SVG Export Plug-In . SVG Version: 6.00 Build 0)  -->
<svg version="1.1" id="Layer_1" xmlns="http://www.w3.org/2000/svg" xmlns:xlink="http://www.w3.org/1999/xlink" x="0px" y="0px"
	 viewBox="0 0 400 172" style="enable-background:new 0 0 400 172;" xml:space="preserve">
<style type="text/css">
	.st0{fill:#222222;}
</style>
<image style="overflow:visible;opacity:0.15;" width="2066" height="819" xlink:href="35821CA5.jpg"  transform="matrix(0.1827 0 0 0.1827 11.2236 11.1656)">
</image>
<g>
	<path class="st0" d="M3,2.9c131.3,0,262.7,0,394,0c0,55.4,0,110.9,0,166.3c-131.3,0-262.7,0-394,0C3,113.7,3,58.3,3,2.9z M12.2,160
		c125.3,0,250.5,0,375.7,0c0-49.4,0-98.6,0-147.9c-125.3,0-250.4,0-375.7,0C12.2,61.4,12.2,110.6,12.2,160z"/>
	<path class="st0" d="M221.1,103.9c-2.4,0-4.7,0-7,0c-0.2,0-0.5-0.2-0.7-0.4c-1.7-2.3-3.4-4.7-5.1-7c-2.7-3.7-5.5-7.5-8.2-11.2
		c-1.2-1.6-2.4-3.3-3.7-5.1c0,8,0,15.8,0,23.7c-2.7,0-5.2,0-7.8,0c0-12.1,0-24.2,0-36.4c0.5,0,0.9,0,1.4,0c1.9,0,3.8,0,5.8,0
		c0.7,0,1,0.2,1.4,0.7c2.7,3.8,5.5,7.5,8.2,11.2c2.4,3.3,4.9,6.7,7.3,10c0.2,0.3,0.4,0.5,0.7,0.9c0-7.6,0-15.2,0-22.8
		c2.6,0,5.2,0,7.8,0C221.1,79.5,221.1,91.7,221.1,103.9z"/>
	<path class="st0" d="M150.6,67.4c6.1,0,12.2-0.1,18.2,0c3,0.1,5.8,1.2,7.9,3.5c1.7,1.8,2.6,4,3,6.5c0.4,2.5,0,4.8-1,7
		c-1.2,2.7-3.5,4.5-6.3,5.4c-0.2,0.1-0.3,0.1-0.6,0.2c2.7,4.6,5.4,9.2,8.2,13.9c-1,0-1.9,0-2.8,0c-1.8,0-3.6,0-5.4,0
		c-0.5,0-0.8-0.2-1.1-0.6c-2-3.7-4-7.3-6-10.9c-0.6-1-1.2-1.6-2.4-1.4c-1.3,0.1-2.7,0-4.1,0c0,4.3,0,8.6,0,12.9c-2.6,0-5.2,0-7.8,0
		C150.6,91.7,150.6,79.6,150.6,67.4z M158.4,84c2.7,0,5.4,0,8,0c0.6,0,1.1-0.1,1.7-0.2c2.6-0.6,4.2-2.7,3.8-5.5
		c-0.3-2.2-2.1-4-4.9-4.1c-2.6,0-5.2,0-7.8,0c-0.3,0-0.6,0-0.9,0C158.4,77.6,158.4,80.7,158.4,84z"/>
	<path class="st0" d="M266.1,67.4c6.1,0,12.2-0.1,18.2,0c3,0.1,5.8,1.2,7.9,3.5c1.7,1.8,2.6,4,3,6.5c0.4,2.5,0,4.8-1,7
		c-1.2,2.7-3.5,4.5-6.3,5.4c-0.2,0.1-0.3,0.1-0.6,0.2c2.7,4.6,5.4,9.2,8.2,13.9c-1,0-1.8,0-2.6,0c-1.9,0-3.7,0-5.6,0
		c-0.5,0-0.8-0.2-1.1-0.6c-2-3.7-4-7.3-6-10.9c-0.6-1-1.2-1.6-2.4-1.4c-1.3,0.1-2.7,0-4.1,0c0,4.3,0,8.6,0,12.9c-2.6,0-5.2,0-7.8,0
		C266.1,91.7,266.1,79.6,266.1,67.4z M273.9,74.3c0,3.3,0,6.5,0,9.7c2.7,0,5.4,0,8.1,0c0.6,0,1.2,0,1.8-0.2c2.5-0.8,4-2.5,3.6-5.4
		c-0.3-2.1-1.8-3.9-4.4-4C279.9,74.1,276.9,74.3,273.9,74.3z"/>
	<path class="st0" d="M123.2,104.6c-4.5-0.2-8.5-1.4-12.1-4.1c-2.7-2-4.6-4.7-5.7-7.9c-0.9-2.5-1.4-5.2-1.2-7.8
		c0.2-4.2,1.5-8.1,4.2-11.4c3.2-3.8,7.3-5.8,12.2-6.4c4.1-0.5,8,0.1,11.6,1.9c5.3,2.6,8.4,7,9.6,12.8c0.9,4.3,0.4,8.6-1.5,12.5
		c-2.5,5.2-6.7,8.4-12.2,9.7C126.5,104.2,124.8,104.4,123.2,104.6z M123.1,97.6c0.7-0.1,1.5-0.1,2.2-0.3c4-0.7,6.6-3.1,8-6.8
		c0.9-2.3,1.1-4.6,0.7-7c-0.5-3.4-1.9-6.1-4.8-8.1c-2.7-1.8-5.7-2.2-8.7-1.5c-3.5,0.7-6,2.8-7.4,6.2c-1.1,2.5-1.3,5.1-0.9,7.8
		c0.4,2.5,1.3,4.7,3,6.5C117.4,96.6,120,97.6,123.1,97.6z"/>
	<path class="st0" d="M231.3,103.8c0-12.2,0-24.2,0-36.4c8.6,0,17.2,0,25.8,0c0,2.2,0,4.5,0,6.8c-6,0-11.9,0-18,0c0,2.5,0,5,0,7.5
		c5.8,0,11.7,0,17.6,0c0,2.3,0,4.6,0,6.9c-5.9,0-11.7,0-17.6,0c0,2.8,0,5.5,0,8.3c6,0,12,0,18,0c0,2.3,0,4.5,0,6.9
		C248.6,103.8,240,103.8,231.3,103.8z"/>
	<path class="st0" d="M301.5,98.5c1.4-1.9,2.8-3.8,4-5.6c1.7,1.1,3.3,2.3,5.1,3.2c3.1,1.5,6.5,1.9,9.9,1c1.3-0.3,2.4-1.1,3-2.4
		c0.6-1.2,0.2-2.5-0.9-3.3c-1.8-1.3-3.9-1.7-6-2.2c-3.5-0.8-7.1-1.6-10.1-3.7c-2.1-1.4-3.3-3.4-3.7-6c-0.5-3.7,0.6-6.8,3.4-9.3
		c1.9-1.7,4.1-2.7,6.6-3.1c1.8-0.3,3.6-0.4,5.4-0.4c4.2,0.2,8,1.5,11.3,3.9c0.4,0.3,0.6,0.9,1.1,1.5c-1.1,1.5-2.5,3.4-4,5.3
		c-1.9-1.6-3.9-2.7-6.3-3.4c-2.4-0.6-4.8-0.9-7.2-0.1c-1.3,0.4-2.3,1.4-2.4,2.8c-0.1,1.3,0.6,2.4,2.1,2.8c2.7,0.8,5.3,1.5,8,2.2
		c3.1,0.9,6.1,1.8,8.4,4.2c2.1,2.2,2.8,5,2.4,8c-0.3,2.7-1.4,4.9-3.3,6.7c-1.9,1.8-4.3,2.8-6.8,3.2c-2,0.3-4.1,0.5-6.1,0.4
		C310,104,305.2,102.5,301.5,98.5z"/>
	<path class="st0" d="M98.4,75.7c-2.3,1.1-4.5,2.2-6.7,3.3c-1.6-2.9-4-4.7-7.2-5.2c-3.2-0.4-6.2,0.4-8.7,2.5
		c-3.2,2.8-4.3,6.4-4,10.5c0.2,2.9,1.3,5.5,3.3,7.5c2,2,4.5,3.1,7.5,3.2c3.1,0.1,5.7-0.9,7.8-3.1c0.6-0.6,1-1.4,1.6-2.1
		c2.1,1,4.3,2.1,6.6,3.2c-0.7,1-1.3,2.1-2.1,3c-2,2.3-4.5,4.2-7.5,5.1c-3.4,1-6.8,1.1-10.3,0.4c-4-0.8-7.4-2.7-10.2-5.7
		c-2.4-2.6-3.8-5.6-4.3-9.1c-0.2-1.4-0.4-2.8-0.3-4.1c0.1-2.6,0.6-5.1,1.7-7.5c1.7-3.8,4.5-6.6,8.1-8.5c2.1-1.1,4.4-1.7,6.8-2.1
		c2.3-0.3,4.6-0.2,6.9,0.2c2.5,0.5,4.8,1.6,6.8,3.2C95.9,71.9,97.2,73.7,98.4,75.7z"/>
</g>
</svg>
