<?xml version="1.0" encoding="utf-8"?>
<!-- Generator: Adobe Illustrator 24.1.3, SVG Export Plug-In . SVG Version: 6.00 Build 0)  -->
<svg version="1.1" id="Layer_1" xmlns="http://www.w3.org/2000/svg" xmlns:xlink="http://www.w3.org/1999/xlink" x="0px" y="0px"
	 viewBox="0 0 400 400" style="enable-background:new 0 0 400 400;" xml:space="preserve">
<style type="text/css">
	.st0{display:none;}
	.st1{display:inline;fill:#222222;}
	.st2{fill:#222222;}
	.st3{fill:#E5E5E5;}
</style>
<g class="st0">
	<path class="st1" d="M354,205.7c-0.1,1.6-0.2,3.1-0.3,4.7c-0.8,13.6-3.2,26.9-7.6,39.7c-14.4,42-41.6,72.7-81.7,91.9
		c-12.9,6.2-26.6,10.1-40.7,12.2c-10,1.5-20,2-30,1.4c-31.8-1.8-60.3-12.4-85.3-32c-27.7-21.8-45.8-49.9-54.7-84
		c-2.5-9.6-3.9-19.3-4.5-29.2c-0.6-9.2-0.3-18.4,0.8-27.6c3.4-28.5,13.7-54.3,31.3-77.1c20-25.8,45.6-43.6,76.9-53.2
		c10.3-3.1,20.9-5.1,31.6-5.9c46.3-3.5,91.2,14.1,122.7,48.2c18.8,20.4,31.3,44.1,37.6,71.1c2.2,9.6,3.5,19.3,3.8,29.1
		c0,0.4,0.1,0.8,0.1,1.2C354,199.4,354,202.6,354,205.7z M350.6,199.7c-0.2-3.4-0.4-8.2-0.8-12.9c-0.7-9.1-2.4-18-4.8-26.8
		c-12.1-43.7-42.8-78.9-81.9-96.9c-17.5-8-35.9-12.5-55.1-13.3c-13.4-0.6-26.7,0.5-39.8,3.6c-31.2,7.4-57.4,23.2-78.4,47.4
		c-23.9,27.5-36.1,59.7-37.3,96.1c-0.5,14.9,1.2,29.7,5.2,44.1c8.4,30.8,24.8,56.6,49.3,77c25.6,21.3,55.1,32.7,88.4,34.2
		c13.9,0.6,27.5-0.7,41-4c31.1-7.7,57.1-23.8,77.9-48.2C338.3,271.5,350.1,238.3,350.6,199.7z"/>
	<path class="st1" d="M46,100.5c0.7-1,1.5-2,2.2-2.9c1.8-2.5,3.5-5.2,5.6-7.5c2.1-2.5,5.7-2.8,8.2-0.5c1.6,1.5,2,3.2,1.6,5.2
		c0.9-0.3,1.8-0.5,2.7-0.8c1.5-0.5,2.9,0.2,4,1c1.3,0.9,2.2,2.1,2.5,3.8c0.3,1.7-0.2,3.2-1.1,4.5c-2.3,3.4-4.7,6.7-7.1,10
		c-0.3,0.4-0.5,0.3-0.8,0.1c-3-2.2-6-4.4-9.1-6.5c-2.8-2-5.6-4.1-8.5-6.1c-0.1-0.1-0.2,0-0.3-0.1C46,100.7,46,100.6,46,100.5z
		 M63.8,107.5c0.5-0.6,0.9-1.2,1.3-1.7c0.9-1.4,1.9-2.7,2.8-4.1c0.6-1.1,0.3-2.5-0.7-3.1c-1.1-0.7-2.3-1.1-3.4,0.2
		c-1.5,1.8-2.8,3.7-4.3,5.6C61,105.4,62.4,106.5,63.8,107.5z M56.2,101.9c0.1-0.1,0.3-0.2,0.4-0.4c1-1.4,2.1-2.8,3.1-4.3
		c0.4-0.6,0.7-1.3,0.7-2c-0.1-1-0.7-1.8-1.7-2.2c-0.9-0.3-2,0-2.7,0.9c-1.2,1.5-2.3,3.1-3.4,4.7c-0.2,0.3-0.2,0.6,0.1,0.8
		C53.8,100.3,55,101.1,56.2,101.9z"/>
	<path class="st1" d="M195.3,15.9c1,0.2,2,0.4,2.9,0.7c4.2,1.4,6.7,4.4,7.5,8.8c0.6,3.1,0.1,6.1-1.6,8.8c-1.8,2.8-4.4,4.3-7.6,4.8
		c-3.4,0.6-6.6,0.1-9.4-2c-2.5-1.8-3.9-4.3-4.4-7.3c-0.4-2.4-0.2-4.8,0.8-7.1c1.2-2.7,3.1-4.6,5.8-5.7c1.2-0.5,2.5-0.6,3.8-0.9
		c0.1,0,0.2-0.1,0.2-0.2C193.9,15.9,194.6,15.9,195.3,15.9z M201.1,27.5c0-0.3-0.1-0.8-0.2-1.3c-0.5-4.2-4.5-6.9-8.9-5.6
		c-2.7,0.8-4.1,2.9-4.5,5.7c-0.4,3.1,0.3,5.6,2.8,7.6c1.9,1.5,5.4,1.6,7.4,0.3C200,32.7,201,30.4,201.1,27.5z"/>
	<path class="st1" d="M199.8,384.1c-1.1-0.5-2.1-0.9-3.2-1.4c-0.1,0-0.2-0.1-0.3-0.2c-0.8-0.7-0.8-0.7-0.1-1.5
		c0.1-0.1,0.2-0.3,0.3-0.4c0.7,0.5,1.4,1.1,2.2,1.4c1.4,0.6,2.9,0.9,4.4,0.1c0.8-0.4,1.3-1,1.3-2c0-0.9-0.6-1.5-1.3-1.8
		c-1.4-0.6-2.8-1-4.2-1.5c-1.3-0.5-2.4-1.2-2.6-2.7c-0.3-2,0.6-3.4,2.5-4.1c2.4-0.9,5.7-0.3,7.3,1.7c-0.4,0.4-0.7,0.7-1.1,1.2
		c-0.9-1.1-2.1-1.5-3.5-1.7c-1-0.2-1.9,0-2.7,0.6c-1,0.8-1.3,2.2,0.2,3.1c0.8,0.5,1.8,0.7,2.7,1c0.7,0.2,1.4,0.4,2,0.7
		c2,0.8,2.7,2.5,2.5,3.8c-0.3,1.9-1,2.9-3.3,3.6c-0.1,0-0.3,0.1-0.4,0.2C201.6,384.1,200.7,384.1,199.8,384.1z"/>
	<path class="st1" d="M339.4,100.3c3.8-3,7.4-5.8,11.1-8.7c1,1.3,2,2.5,2.9,3.8c-5.9,4.6-11.7,9.2-17.7,13.8
		c-0.4-0.4-0.8-0.9-1.1-1.3c-0.3-0.4-0.7-0.9-1-1.3c-0.5-0.6-0.8-1.1-0.5-2c1.6-5.4,3.1-10.8,4.6-16.2c0,0,0-0.1-0.1-0.2
		c-3.8,3-7.6,6-11.4,8.9c-1-1.3-2-2.5-2.9-3.7c5.9-4.6,11.8-9.2,17.7-13.9c0.9,1.2,1.8,2.3,2.7,3.5c0.2,0.2,0.3,0.6,0.2,0.8
		c-1.4,5.3-2.9,10.5-4.4,15.7C339.5,99.7,339.5,99.9,339.4,100.3z"/>
	<path class="st1" d="M178.7,40.1c-1.4,0.3-2.7,0.4-4,0.9c-1.6,0.6-2.1-0.6-2.8-1.4c-1.2-1.4-2.5-2.7-3.5-4.2
		c-0.8-1.3-1.8-1.1-2.9-0.8c-0.5,0.1-1,0.2-1.6,0.4c0.5,2.6,1.1,5.2,1.6,7.8c-1.4,0.3-2.8,0.6-4.2,0.9c-0.2,0-0.5-0.3-0.6-0.5
		c-0.9-4.6-1.8-9.1-2.7-13.7c-0.5-2.4-1-4.8-1.5-7.2c0-0.2,0-0.3,0-0.6c2.7-0.5,5.3-1.1,8-1.6c1.2-0.2,2.3-0.6,3.5-0.6
		c2.3-0.1,4.4,0.5,6,2.4c1.7,2,2.5,5.8,1,8.2c-0.6,0.9-1.4,1.7-2.3,2.4c-0.5,0.4-0.5,0.6-0.1,1c1.3,1.4,2.6,2.8,3.9,4.3
		C177.1,38.4,177.8,39.2,178.7,40.1z M161.9,24.8c0.4,2,0.8,4,1.2,6c0.5-0.1,1.1-0.2,1.6-0.3c1.5-0.4,3.1-0.7,4.5-1.2
		c1.5-0.5,2-2.1,1.4-3.7c-0.4-1.2-2.2-2.1-3.5-1.8C165.4,24.1,163.7,24.4,161.9,24.8z"/>
	<path class="st1" d="M319,85c-6.4,0.1-12.3-5.8-12.1-12.1c0.2-6.2,5.4-11.7,11.8-11.6c6.4,0.1,11.9,5.5,12,11.9
		C330.7,79.5,325.2,84.9,319,85z M311.6,73.8c-0.3,3.5,3.3,6.8,6.8,6.7c3.3-0.1,6.6-3,7.4-6.5c1-4.2-2.8-8.8-7.8-8
		C314.8,66.5,311.4,70.1,311.6,73.8z"/>
	<path class="st1" d="M240.4,29.6c3.5,0.9,7,1.7,10.6,2.6c-0.3,1.2-0.6,2.4-0.9,3.6c-0.1,0.5-0.5,0.4-0.8,0.3
		c-3.3-0.8-6.6-1.6-9.9-2.4c-0.4,1.7-0.8,3.3-1.2,5c3.4,0.8,6.7,1.6,10.1,2.4c0.5,0.1,0.7,0.2,0.5,0.8c-0.3,1.1-0.5,2.2-0.8,3.4
		c-1.4-0.3-2.7-0.6-4.1-1c-3.6-0.9-7.2-1.8-10.8-2.6c-0.4-0.1-0.5-0.2-0.4-0.7c0.9-3.6,1.8-7.3,2.7-10.9c0.8-3.5,1.7-7,2.5-10.4
		c5,1.2,9.9,2.4,14.9,3.6c0.5,0.1,0.6,0.3,0.5,0.8c-0.3,1-0.5,1.9-0.7,2.9c-0.1,0.5-0.2,0.6-0.7,0.4c-3.2-0.8-6.4-1.5-9.6-2.3
		c-0.6-0.2-0.8,0-0.9,0.6C241.1,27,240.7,28.3,240.4,29.6z"/>
	<path class="st1" d="M79,88.2c2.7-2.8,5.3-5.5,8-8.4c0.9,1.1,1.7,2.1,2.7,3.2c-3.4,3.6-7,7.4-10.7,11.3c-0.1-0.1-0.2-0.1-0.3-0.2
		c-1.7-1.6-3.4-3.3-5.1-4.9c-2.6-2.5-5.1-4.9-7.7-7.4c-1.1-1-2.1-2-3.3-3c3.7-3.9,7.3-7.7,11-11.5c1,0.9,2.1,1.9,3.1,2.8
		c-2.6,2.7-5.1,5.4-7.4,7.7c1,1.3,2,2.5,3,3.7c2.7-2.8,5.1-5.4,7.6-7.9c1,0.9,2,1.9,3.1,2.8c-2.5,2.7-5,5.3-7.5,7.9
		C76.7,85.7,77.8,86.9,79,88.2z"/>
	<path class="st1" d="M90.8,73.3c2.1,0.2,4.1-0.2,5.9-1.3c1-0.6,1.9-1.5,2.7-2.4c0.6-0.6,0.8-1.5,0.5-2.4c-0.4-0.9-1.2-1.4-2.2-1.1
		c-1.2,0.4-2.3,0.9-3.5,1.3c-1.7,0.6-3.4,1.4-5.2,1.9c-3.4,0.8-6.2-1.7-6.9-4.6c-0.6-2.7,0.4-4.9,2.2-6.9c1.8-1.9,3.9-3.2,6.4-3.9
		c1.2-0.3,2.4-0.4,3.8-0.6c0,1.6,0,3.1,0,4.5c-2.9,0.1-5.5,0.9-7.5,3.3c-1.1,1.3-0.6,3.1,0.8,3.3c0.6,0.1,1.3-0.2,1.9-0.4
		c1.8-0.7,3.5-1.5,5.3-2.2c2-0.8,4-1.1,6-0.1c2.4,1.3,4.2,4.7,3.3,7.7c-0.8,2.3-2.3,4-4.2,5.5c-1.6,1.3-3.5,2.3-5.5,2.7
		c-1.1,0.2-2.2,0.2-3.3,0.3c-0.2,0-0.5-0.2-0.5-0.4C90.8,76,90.8,74.6,90.8,73.3z"/>
	<path class="st1" d="M131.8,29.6c2.9-1,5.7-2,8.5-3c1.6-0.6,3.1-1.2,4.8-1c2,0.2,3.7,1,5,2.6c1.1,1.5,1.7,3.1,1.6,4.9
		c-0.1,2.7-1.3,4.7-3.7,5.9c-2.2,1.1-4.5,1.8-6.9,2.7c0.9,2.4,1.7,4.9,2.6,7.5c-1.5,0.5-3,1.1-4.5,1.6
		C136.8,43.8,134.3,36.7,131.8,29.6z M139.8,37.8c1.9-0.7,3.8-1.4,5.6-2.2c1.3-0.6,1.9-2.3,1.3-3.7c-0.5-1.2-1.6-2.2-3.2-1.8
		c-1.8,0.5-3.6,1.1-5.4,1.7c-0.1,0-0.3,0.3-0.2,0.4C138.4,34.1,139.1,35.9,139.8,37.8z"/>
	<path class="st1" d="M278.7,38.4c-1.5,0.1-3,0.2-4.4,0.4c-0.6-2.7-2-4.6-4.7-5.3c-2.2-0.6-4.1-0.2-5.9,1.2c-2.6,2-3.8,5.6-2.7,8.7
		c1.2,3.5,5.2,5.6,8.8,4c0.5-0.2,0.9-0.6,1.4-0.9c1,1.1,2,2.2,3,3.3c-3.8,3.1-8.6,3.5-13.5,0.1c-4.4-3.1-6-8-4.2-13.3
		c0.9-2.5,2.4-4.6,4.7-6c1.9-1.2,4-1.9,6.2-1.7C274.5,29.4,277.9,33.2,278.7,38.4z"/>
	<path class="st1" d="M218.6,21.2c-2.2-0.2-4.3-0.5-6.5-0.7c0.1-1.3,0.3-2.7,0.4-4.2c5.9,0.6,11.8,1.3,17.8,1.9
		c-0.1,0.8-0.1,1.6-0.2,2.4c0,0.3-0.1,0.7-0.1,1c0.1,0.8-0.3,0.9-0.9,0.8c-1.7-0.2-3.5-0.5-5.2-0.6c-0.2,0-0.6,0.4-0.6,0.6
		c-0.2,1.2-0.2,2.4-0.4,3.6c-0.2,1.9-0.4,3.8-0.6,5.7c-0.1,1.3-0.2,2.5-0.4,3.8c-0.2,1.5-0.3,3-0.5,4.4c-1.6-0.2-3.1-0.3-4.8-0.5
		C217.3,33.3,218,27.3,218.6,21.2z"/>
	<path class="st1" d="M114,38c0.7,1.2,1.4,2.4,2.1,3.6c-1.7,1-3.3,2-4.9,3c-0.5,0.3-0.6,0.4-0.3,1c3,5,6,10,9.1,15.1
		c-1.3,0.8-2.7,1.6-4.1,2.5c-1.2-2-2.3-3.9-3.5-5.8c-1.9-3.1-3.7-6.2-5.6-9.3c-0.2-0.4-0.5-0.5-0.9-0.3c-1.7,1-3.4,2.1-5,3.1
		c-0.7-1.2-1.5-2.4-2.2-3.6C103.7,44.2,108.8,41.1,114,38z"/>
	<path class="st1" d="M284.9,61.7c-1.4-0.8-2.8-1.6-4.1-2.4c3.1-5.3,6.1-10.5,9.2-15.8c-1.9-1.1-3.8-2.2-5.7-3.3
		c0.7-1.2,1.4-2.4,2.1-3.6c5.2,3,10.3,6,15.5,9c-0.7,1.2-1.4,2.4-2.1,3.6c-1.9-1.1-3.7-2.1-5.7-3.3C291,51.2,288,56.5,284.9,61.7z"
		/>
	<path class="st1" d="M307.5,49.7c1.3,0.9,2.6,1.9,3.9,2.8c-2.9,4.1-5.8,8.1-8.7,12.2c-1.3,1.8-2.6,3.7-4,5.5
		c-0.3,0.4-0.6,0.5-1.1,0.1c-0.9-0.7-1.8-1.4-2.7-2c-0.4-0.3-0.4-0.5-0.1-0.9c1.3-1.8,2.6-3.6,3.9-5.4c2-2.7,3.9-5.5,5.9-8.2
		C305.5,52.4,306.5,51.1,307.5,49.7z"/>
	<path class="st1" d="M214.4,369.4c2.3-0.2,4.5-0.5,6.8-0.6c1.8-0.1,3.1,0.8,3.5,2.5c0.4,1.3,0.1,3.2-1.7,3.9c0,0,0,0.1-0.1,0.2
		c1.4,0.3,2.4,1.2,2.8,2.6c0.5,2.4-0.4,4-2.7,4.5c-2.2,0.5-4.5,0.6-6.7,0.9c-0.2,0-0.5-0.4-0.6-0.6c-0.3-2.3-0.5-4.6-0.7-7
		c-0.2-1.8-0.4-3.6-0.7-5.4C214.4,370.1,214.4,369.8,214.4,369.4z M217.4,381.6c1.5-0.1,2.8-0.3,4.2-0.4c1.4-0.2,2.5-0.9,2.4-2.7
		c-0.1-1.3-1.2-2.3-2.5-2.2c-1.5,0.1-3.1,0.3-4.7,0.5C217,378.5,217.2,380,217.4,381.6z M216.2,370.8c0.2,1.6,0.4,3,0.5,4.5
		c1.5-0.2,2.9-0.3,4.3-0.5c1.2-0.1,2.2-1.2,2.1-2.3c-0.1-1.4-1.3-2.4-2.6-2.3C219.1,370.4,217.7,370.6,216.2,370.8z"/>
	<path class="st1" d="M180.4,374.1c0,2.9-1,5.1-3.2,6.6c-4,2.8-10.3,0.2-10.7-5c-0.2-2.6,0.4-4.8,2.2-6.6c1.9-1.9,4.2-2.1,6.6-1.5
		C178.4,368.3,180.6,371,180.4,374.1z M173.5,368.8c-1.3-0.1-2.5,0.4-3.3,1.2c-1.7,1.8-2.4,4-1.7,6.4c0.9,3.5,5,4.9,7.7,2.9
		c2.1-1.5,2.6-3.7,2.4-6.1C178.3,370.5,176,368.8,173.5,368.8z"/>
	<path class="st1" d="M250.7,377.1c-3,0.8-6,1.5-8.9,2.3c-1.1-4.3-2.2-8.7-3.3-13c-0.1-0.5,0-0.6,0.4-0.7c2.8-0.7,5.5-1.4,8.3-2.1
		c0.1,0.5,0.2,1,0.3,1.5c-2.4,0.6-4.8,1.2-7.2,1.9c0.4,1.3,0.7,2.6,1,3.9c0.1,0.4,0.3,0.5,0.7,0.4c2.2-0.6,4.3-1.1,6.5-1.7
		c0.1,0.5,0.3,1,0.4,1.5c-2.4,0.6-4.7,1.2-7.1,1.8c0.4,1.6,0.8,3.1,1.2,4.7c2.4-0.6,4.7-1.2,7.2-1.8
		C250.4,376.1,250.5,376.5,250.7,377.1z"/>
	<path class="st1" d="M182.3,381c0.3-0.4,0.7-0.8,1-1.3c1.4,1.9,4.1,2.8,6.1,2.2c0.8-0.3,1.5-0.8,1.7-1.7c0.2-1-0.1-1.8-1.1-2.2
		c-1.2-0.5-2.4-1-3.6-1.6c-0.7-0.4-1.5-0.8-2.1-1.3c-1.7-1.4-1.1-4.2,0.8-5.3c2.3-1.4,6.4-0.6,8.1,1.6c-0.4,0.4-0.7,0.7-1.1,1.1
		c-1.3-1.6-3.1-2.1-5.1-1.8c-1,0.1-1.8,0.9-1.9,1.8c-0.1,0.8,0.6,1.6,1.6,2.1c1.5,0.6,3,1.2,4.5,2c1.4,0.7,1.8,2,1.7,3.5
		c-0.2,1.3-0.9,2.4-2.1,3C188.2,384.3,184,383.4,182.3,381z"/>
	<path class="st1" d="M156.5,363.6c2.1,0.6,4,1,5.8,1.6c1.9,0.6,3.2,2.3,3,4c-0.4,2.7-1.5,4-4,4.2c-1.1,0.1-2.3-0.4-3.5-0.7
		c-1.8-0.4-1.8-0.5-2.3,1.2c-0.4,1.2-0.6,2.5-1,3.7c-0.5-0.1-1.1-0.2-1.7-0.4C154.1,372.7,155.3,368.2,156.5,363.6z M156.4,370.7
		c1.3,0.3,2.5,0.5,3.6,0.9c1.4,0.4,2.8-0.3,3.3-1.7c0.5-1.5-0.2-3-1.8-3.4c-1.2-0.4-2.4-0.6-3.8-1
		C157.3,367.2,156.9,368.9,156.4,370.7z"/>
	<path class="st1" d="M231.6,379.7c1.5-0.3,2.9-0.5,4.4-0.8c0.3-0.1,0.7-0.1,1-0.2c1.1-0.3,1.4,0,1.3,1c0,0.1-0.2,0.3-0.4,0.4
		c-2.5,0.5-5,0.9-7.5,1.4c-0.1,0-0.2,0-0.3,0c-0.8-4.5-1.7-9.1-2.5-13.7c0.6-0.1,1.1-0.2,1.7-0.3
		C230.1,371.5,230.8,375.6,231.6,379.7z"/>
	<path class="st1" d="M209.1,369.6c0.6,0,1.1,0,1.7,0c0.1,1,0.2,2,0.2,3c0.1,1.8,0.1,3.5,0.2,5.3c0.1,1.7,0.2,3.3,0.3,5
		c0,0.2,0,0.4,0,0.6c-0.6,0-1,0-1.7,0C209.5,378.9,209.3,374.3,209.1,369.6z"/>
	<path class="st1" d="M133.1,123.9c5.5,4.4,11.4,7.5,17.8,9.8c7.3,2.6,14.8,3.6,22.6,2.7c10.2-1.3,19.1-5.4,27.2-11.7
		c0.2-0.1,0.4-0.3,0.5-0.4c0.3-0.4,0.5-0.3,0.9,0c4.6,3.9,9.8,6.8,15.3,9c3.5,1.4,7.1,2.4,10.8,3s7.5,0.7,11.2,0.3
		c10.3-1,19.5-4.7,28-10.6c0.9-0.6,1.7-1.3,2.7-2c0,0.4,0.1,0.6,0.1,0.9c0,31.9,0,63.8-0.1,95.7c0,4.7-0.6,9.3-1.5,13.9
		c-2.2,11.3-7.6,20.9-15,29.6c-9.9,11.6-21.9,20.5-35.8,26.9c-5,2.3-10.2,4.3-15.6,5.7c-0.4,0.1-1,0.1-1.4,0c-5-1.3-9.8-3-14.4-5.1
		c-14.3-6.4-26.7-15.5-36.9-27.5c-5.4-6.3-9.8-13.2-12.6-21.1c-1.4-3.9-2.3-7.9-2.9-11.9c-1-6.8-1-13.7-1-20.6c0-28.5,0-57,0-85.4
		C133,124.7,133.1,124.4,133.1,123.9z"/>
</g>
<g>
	<path class="st2" d="M210.2,7.2c0,4.7-0.1,9.4,0,14.2c0.1,2.9,0.1,5.9,0.1,8.8c0,0.6-0.1,0.8-0.8,0.8c-1-0.1-2-0.1-3,0
		c-0.8,0.1-1.3-0.2-1.8-0.9c-3.3-4.5-6.6-9.1-9.9-13.6c-0.2-0.3-0.5-0.6-0.8-0.9c0.1,2.4-0.1,4.7,0.1,7.1c0.2,2.6,0,5.2,0.1,7.9
		c0,0.3-0.2,0.4-0.4,0.4c-1.4,0-2.8,0-4.2,0c-0.4,0-0.5-0.1-0.4-0.5c0-0.4,0-0.8,0-1.2c0-7,0-14,0-21c0-0.7,0.2-0.9,0.9-0.9
		c1.3,0.1,2.5,0,3.8,0c0.3,0,0.6,0,0.8,0.3c3.4,4.6,6.8,9.3,10.2,13.9c0.1,0.1,0.2,0.2,0.4,0.3c0-5,0-9.9,0-14.7
		C206.9,7.2,208.5,7.2,210.2,7.2z"/>
	<path class="st2" d="M201.9,392.8c-1.1-1.8-2.2-3.6-3.3-5.4c-0.3-0.4-0.5-0.6-1-0.6c-2.3,0-2.3,0-2.4,2.4c0,0.9-0.1,1.9,0,2.8
		c0.1,0.7-0.3,0.7-0.8,0.6c-0.4-0.1-1,0.3-1-0.6c0-2.3-0.1-4.6,0.1-6.8c0.2-2.2,0.1-4.4,0.1-6.6c0-0.5,0.1-0.7,0.7-0.7
		c1.7,0,3.3-0.1,5,0c1.7,0.1,3.4,0.5,4.3,2.2c1.2,2.3,0.4,6-2.7,6.5c-0.5,0.1-0.5,0.3-0.2,0.7c1.1,1.6,2.1,3.3,3.2,4.9
		c0.1,0.2,0.3,0.3,0.1,0.6C203.2,392.8,202.5,392.8,201.9,392.8z M195.3,382.3c0,0.7,0,1.4,0,2.1c0,0.5,0.1,0.8,0.7,0.7
		c1.2-0.1,2.4,0,3.6,0c1.3,0,2.4-1.2,2.6-2.7c0.1-1.1-1.1-2.7-2.2-2.7c-1.4-0.1-2.7-0.3-4.1-0.2c-0.5,0-0.6,0.2-0.6,0.6
		C195.3,380.9,195.3,381.6,195.3,382.3z"/>
	<path class="st2" d="M268.6,54.3c3,1.6,6,3.1,8.9,4.7c31.2,17.8,54,43.2,68.7,76c5.3,11.9,9,24.3,11.3,37.1c2,11.6,2.9,23.2,2.4,35
		c-0.8,20.6-5.2,40.3-13.3,59.2c-5.7,13.3-13.2,25.6-22.2,36.9c-0.1,0.2-0.2,0.3-0.3,0.5c0,0,0,0,0,0c-0.3,0.2-0.6,0.5-0.7,0.9l0,0
		c-0.6,0.5-1,1.1-1.5,1.7l0.1,0.1c0,0-0.1,0-0.1,0c-0.2,0.3-0.5,0.6-0.7,0.8c0,0,0,0,0,0c-0.3,0.2-0.5,0.5-0.6,0.8
		c-2.7,3-5.5,6.1-8.4,9c-21.7,21.4-47.4,35.8-77.2,42.6c-14.3,3.3-28.7,4.5-43.3,3.7c-26.3-1.4-50.8-9-73.4-22.6
		c-0.4-0.2-0.7-0.4-1.1-0.6c-0.4-0.4-0.9-0.7-1.4-0.9l0,0c0,0,0,0,0,0c-0.1-0.2-0.4-0.3-0.6-0.4c0,0,0,0-0.1,0
		c-0.2-0.1-0.3-0.3-0.5-0.4c-11.5-7.4-21.9-16.1-31.1-26.2c-26.5-29-40.8-63.3-43.1-102.5c-0.8-13.4,0.2-26.7,2.8-39.9
		c3.7-19,10.5-36.9,20.5-53.5c2.3-3.8,4.8-7.5,7.4-11.2c0,0,0,0,0.1-0.1c0.7-0.9,1.4-1.9,2.1-2.8c0,0,0,0,0,0
		c0.2-0.2,0.5-0.5,0.6-0.8l0,0c0.2-0.1,0.3-0.3,0.4-0.5c2.4-2.9,4.7-5.8,7.2-8.6c21-23.4,46.6-39.5,77-48c9.6-2.7,19.4-4.3,29.3-5.1
		c8.7-0.7,17.3-0.7,26,0.1c17.4,1.5,34.1,5.7,50.1,12.8c0.2,0.1,0.5,0.2,0.7,0.3c0.5,0.3,1,0.6,1.6,0.7c0.1,0.1,0.2,0.1,0.4,0.2
		c0.5,0.4,1.2,0.6,1.8,0.9C268.3,54.1,268.4,54.2,268.6,54.3z M356.3,207.1c0-19.3-1.5-32.4-4.8-45.3c-9.8-37.7-30.4-68.1-62-90.8
		c-23.4-16.7-49.6-26-78.2-28.1c-9.1-0.7-18.2-0.5-27.3,0.5c-9,0.9-17.8,2.6-26.4,5.1c-29.1,8.5-53.7,24.1-73.7,46.8
		c-23.8,27-36.8,58.6-39.6,94.5c-0.8,10.9-0.4,21.7,1,32.6c1.5,11.5,4.2,22.8,8.2,33.7c10.6,28.8,27.9,52.8,52.2,71.5
		c26.1,20.1,55.7,30.8,88.7,32.2c13.7,0.6,27.3-0.7,40.6-3.8c33.3-7.9,61.1-24.9,83.3-50.9C343.5,275,355.8,240.2,356.3,207.1z"/>
	<path class="st2" d="M162.3,18.5c-0.1,1-0.3,2.1-0.4,3.1c-0.3,1.9-0.6,3.9-0.8,5.8c-0.2,1.4-0.4,2.9-0.6,4.3
		c-0.2,1.2-0.4,2.3-0.5,3.5c0,0.3-0.1,0.4-0.4,0.5c-1.7,0.6-1.7,0.6-3.1-1.3c-2.8-4-5.7-7.9-8.5-11.9c-0.1-0.1-0.2-0.2-0.5-0.4
		c0.2,1.1,0.4,2,0.6,2.9c1,4.1,2.1,8.1,3.1,12.2c0.1,0.4,0,0.7-0.4,0.8c-1.3,0.3-2.7,0.6-4,1c-0.4,0.1-0.4,0-0.5-0.3
		c-1.4-5.5-2.7-11-4.1-16.5c-0.4-1.8-0.9-3.6-1.3-5.3c-0.1-0.5-0.1-0.7,0.4-0.8c2-0.5,3.9-1,5.9-1.5c0.3-0.1,0.5,0,0.7,0.3
		c2.7,3.8,5.4,7.6,8.2,11.4c0.1,0.2,0.2,0.4,0.5,0.4c0.3-0.1,0.2-0.4,0.2-0.6c0.3-2,0.6-4,0.8-6c0.2-1.4,0.4-2.9,0.6-4.3
		c0.2-1.3,0.4-2.5,0.5-3.8c0.1-0.5,0.5-0.4,0.7-0.5c1.7-0.5,3.4-0.9,5.1-1.3c0.4-0.1,0.7-0.2,1.1-0.3c0.8,3.3,1.7,6.6,2.5,9.9
		c1,4.2,2,8.3,3.1,12.5c0.2,0.6-0.2,0.7-0.5,0.7c-1.3,0.3-2.6,0.6-3.8,0.9c-0.4,0.1-0.5,0.2-0.6-0.3c-1.2-5-2.5-10.1-3.8-15.1
		C162.4,18.5,162.4,18.5,162.3,18.5z"/>
	<path class="st2" d="M287.1,43.6c1.2-0.9,2.4-1.9,3.5-2.8c2.1-1.7,4.3-3.4,6.4-5.2c0.5-0.4,0.9-0.7,1.3-1.1c0.4-0.4,0.6-0.3,1-0.1
		c1.9,1.1,3.8,2.1,5.7,3.2c-2,3.6-4.1,7.3-6.1,10.9c-1.4,2.5-2.8,5-4.1,7.5c-0.2,0.3-0.3,0.6-0.5,0.8c-0.3,0.4-0.3,1.2-0.8,1.3
		c-0.4,0.1-1-0.4-1.4-0.7c-1-0.5-1.9-1.1-2.9-1.7c2.2-3.9,4.3-7.8,6.5-11.7c0.4-0.7,0.7-1.5,1.1-2.2c0.2-0.1,0.2-0.2,0.1-0.3
		c-0.1,0.1-0.2,0.1-0.2,0.2c-1.8,1.4-3.6,2.8-5.3,4.3c-2.1,1.7-4.1,3.4-6.2,5.1c-0.4,0.3-0.7,0.6-1.1,0.9c-0.7,0.7-1.3,0.1-1.9-0.1
		c-0.6-0.2-0.7-0.6-0.6-1.2c0.3-1.8,0.4-3.7,0.7-5.5c0.3-1.6,0.4-3.3,0.6-4.9c0.2-1.7,0.5-3.3,0.7-5c0.1-0.4,0-0.8,0-1.4
		c-1.2,2.1-2.3,4.1-3.3,6c-1.5,2.6-2.9,5.2-4.4,7.9c-0.1,0.2-0.1,0.4-0.5,0.2c-1.2-0.7-2.4-1.4-3.7-2.1c-0.3-0.2-0.4-0.3-0.2-0.6
		c1.4-2.5,2.8-5.1,4.2-7.7c1.1-2.1,2.3-4.1,3.4-6.2c1.1-2,2.2-4,3.4-6c0.1-0.2,0.2-0.5,0.6-0.3c1.8,1,3.6,2.1,5.4,3
		c0.4,0.2,0.5,0.5,0.4,0.8c-0.3,1.7-0.5,3.5-0.7,5.2c-0.2,1.7-0.5,3.3-0.7,5c-0.2,1.4-0.3,2.7-0.4,4.1c-0.2,0.1-0.2,0.2-0.1,0.3
		C287,43.7,287.1,43.7,287.1,43.6z"/>
	<path class="st2" d="M62,87.3c-2.2-1.7-4.1-3.2-6.1-4.7c-1.8-1.4-3.6-2.8-5.4-4.2c-0.3-0.3-0.2-0.3,0-0.5c1-1.2,1.9-2.5,2.8-3.7
		c2.9,2.3,5.9,4.7,8.9,7c2.2,1.7,4.3,3.3,6.5,5c0.9,0.7,1.9,1.5,2.8,2.2c0.4,0.3,0.3,0.6,0.1,0.9c-0.8,1-1.6,2-2.3,3
		c-0.2,0.3-0.4,0.3-0.7,0.3c-2.6-0.2-5.2-0.1-7.8-0.2c-0.9,0-1.9-0.2-2.8-0.1c-2.6,0.1-5.1-0.4-7.9-0.1c1.1,0.9,2,1.7,3,2.4
		c2.3,1.8,4.6,3.5,6.8,5.3c0.6,0.5,1.2,0.9,1.8,1.4c0.3,0.2,0.3,0.3,0.1,0.6c-0.8,1.3-1.9,2.3-2.7,3.6c-0.2,0.3-0.3-0.1-0.4-0.1
		c-1.2-0.9-2.4-1.8-3.6-2.8c-1.7-1.3-3.3-2.6-5-4c-2.3-1.8-4.6-3.5-6.9-5.3c-0.8-0.6-1.6-1.2-2.4-1.9c-0.4-0.3-0.4-0.6-0.1-1
		c0.8-1,1.6-1.9,2.3-3c0.2-0.3,0.5-0.4,0.9-0.5c4-0.1,7.9,0.2,11.9,0.2C57.8,87.1,59.8,87.1,62,87.3z"/>
	<path class="st2" d="M322.1,61.4c-2.2,2.4-4.2,4.7-6.3,6.9c-1.2,1.3-2.5,2.6-3.8,4c-0.2,0.2-0.3,0.3-0.5,0.1
		c-0.2-0.2-0.5-0.4-0.7-0.6c-0.5-0.5-1.1-1.1-1.6-1.6c-1.1-0.9-1-0.9-0.1-2c2.4-2.6,4.8-5.2,7.2-7.7c1.3-1.4,2.7-2.9,4-4.3
		c1.3-1.4,2.8-2.7,3.9-4.3c0.8,1,1.7,1.8,2.7,2.5c1.2,0.8,1,1.9,0.9,3.1c-0.1,1.3-0.3,2.6-0.5,3.9c-0.2,1.9-0.5,3.8-0.7,5.7
		c-0.1,1.1-0.2,2.1-0.4,3.2c-0.1,1.1-0.2,2.2-0.4,3.5c3.5-3.7,6.8-7.3,10.2-11c1.2,1.2,2.4,2.4,3.7,3.5c-2,2.1-3.9,4.1-5.8,6.1
		c-2.3,2.5-4.6,4.9-6.8,7.4c-1,1.1-2.2,2.1-3.1,3.4c-0.3,0.4-0.6,0.5-1,0c-0.7-0.8-1.4-1.6-2.4-2.2c-1.2-0.7-0.5-1.8-0.4-2.7
		c0.1-1.3,0.3-2.6,0.5-3.9c0.2-1.8,0.5-3.5,0.7-5.3c0.1-1,0.3-2,0.3-3C321.8,64.6,322.2,63.1,322.1,61.4z"/>
	<path class="st2" d="M122.6,39.5c2.9,1.8,5.8,3.7,8.7,5.5c-1.5,0.8-2.9,1.6-4.4,2.4c-0.4,0.2-0.8,0.3-1.3-0.1
		c-2.3-1.6-4.6-3.1-6.9-4.7c-0.3-0.2-0.5-0.3-0.9,0c-0.7,0.4-1.4,0.8-2.1,1.1c-0.6,0.2-0.6,0.5-0.4,1c1.1,2.1,2.1,4.1,3.2,6.2
		c0.3,0.5,0.3,0.7-0.2,0.9c-1.1,0.5-2.3,1.1-3.3,1.7c-0.4,0.3-0.6,0.3-0.9-0.2c-1.9-3.8-3.8-7.6-5.8-11.4c-1.4-2.8-2.9-5.6-4.4-8.4
		c-0.3-0.5-0.2-0.8,0.3-1c3.2-1.6,6.4-3.3,9.7-4.9c4.9-2.4,9.8,0.5,10.9,5.6C125.2,35.7,124.2,37.7,122.6,39.5z M119.7,34.6
		c0-1.6-1.6-3.7-3.9-3c-1.9,0.5-3.5,1.6-5.3,2.5c-0.6,0.3-0.5,0.6-0.2,1c0.9,1.4,1.5,2.9,2.2,4.3c0.2,0.4,0.4,0.6,0.9,0.3
		c1.5-0.8,3-1.5,4.4-2.3C119,36.8,119.7,35.9,119.7,34.6z"/>
	<path class="st2" d="M110.8,55.8c-1.4,1-2.9,2.1-4.3,3.2c-0.3,0.2-0.4,0.2-0.7,0c-0.9-0.6-1.8-1.2-2.7-1.9c-0.3-0.2-0.6-0.3-1,0
		c-2.5,1.8-4.9,3.6-7.4,5.4c-0.3,0.2-0.4,0.3-0.3,0.7c0.3,0.9,0.4,2,0.8,2.9c0.3,0.7,0,1.1-0.5,1.4c-1.3,0.9-2.6,1.8-3.9,2.8
		c-0.9-3.5-1.8-6.9-2.7-10.4c-1.1-4.4-2.3-8.7-3.5-13.1c-0.2-0.8-0.1-1.2,0.6-1.7c1.4-0.9,2.7-1.9,4-2.9c0.3-0.3,0.5-0.1,0.7,0.1
		c3.8,2.5,7.6,5,11.4,7.5C104.5,51.7,107.7,53.8,110.8,55.8z M90.2,48c0,0.2-0.1,0.4,0,0.5c0.9,3.1,1.8,6.2,2.6,9.3
		c0.1,0.5,0.4,0.3,0.6,0.2c1.8-1.3,3.6-2.6,5.5-4C96,52,93.1,50,90.2,48z"/>
	<path class="st2" d="M81.5,65.3c-2.5,2.7-5.2,5-7.7,7.5c-0.4,0.4-0.4,0.6,0,1c1.1,1.1,2,2.3,3.2,3.3c2.8-2.7,5.6-5.4,8.4-8.1
		c1.1,1,2.1,2,3.1,3c-4,4.1-8.2,7.9-12.2,11.8c-5.5-5.7-10.9-11.4-16.4-17c4-3.9,8.1-7.7,12-11.5c0.9,0.9,1.8,1.8,2.7,2.6
		c0.4,0.3,0.5,0.6,0,1c-2.4,2.3-4.7,4.6-7.1,6.9c-0.1,0.1-0.3,0.2-0.4,0.3c-0.5,0.3-0.6,0.6-0.1,1c1,1,2,2,3,3
		c0.7-0.6,1.4-1.2,2.1-1.9c1.9-1.9,3.9-3.7,5.8-5.6c0.3-0.3,0.5-0.3,0.8,0C79.8,63.4,80.5,64.5,81.5,65.3z"/>
	<path class="st2" d="M334.4,96.5c-0.9-1.1-1.7-2.2-2.6-3.2c-0.4-0.4-0.5-0.7,0-1.2c2-1.6,4-3.1,6-4.7c1.7-1.3,3.3-2.7,5-4.1
		c1-0.8,2-1.7,3-2.4c0.5-0.3,0.3-0.5,0.1-0.8c-1.1-1.3-2.2-2.7-3.3-4c-0.5-0.6-0.9-1,0.1-1.6c0.9-0.5,1.7-1.2,2.5-1.9
		c0.3-0.2,0.3-0.1,0.4,0.1c2.5,3.1,5,6.2,7.5,9.3c1.3,1.6,2.6,3.3,3.8,4.9c0.2,0.3,0.2,0.3-0.1,0.4c-1,0.8-2,1.5-2.9,2.4
		c-0.4,0.3-0.5,0-0.6-0.1c-1.2-1.6-2.4-3.1-3.7-4.7c-0.2-0.3-0.3-0.3-0.6-0.1c-1.4,1.1-2.8,2.2-4.2,3.3c-2,1.6-3.9,3.2-5.8,4.8
		C337.5,94.1,335.9,95.3,334.4,96.5z"/>
	<path class="st2" d="M236.7,15.1c-1.5-0.2-3-0.4-4.4-0.7c-0.6-0.1-1.3-0.1-1.9-0.3c-0.4-0.1-0.5,0-0.5,0.4
		c-0.4,2.8-0.8,5.5-1.2,8.3c-0.4,2.6-0.7,5.3-1.1,7.9c-0.1,0.6-0.1,1.3-0.3,1.9c-0.1,0.5-0.4,0.5-0.7,0.5c-1.3-0.2-2.6-0.4-3.9-0.5
		c-0.5,0-0.5-0.4-0.4-0.7c0.2-1.4,0.4-2.8,0.6-4.2c0.2-1.5,0.4-2.9,0.6-4.4c0.3-1.8,0.5-3.6,0.8-5.5c0.2-1.3,0.4-2.7,0.6-4
		c0-0.3-0.2-0.3-0.4-0.4c-1.4-0.2-2.9-0.5-4.3-0.7c-0.5-0.1-1.1-0.3-1.6-0.2c-0.4,0.1-0.4-0.2-0.3-0.5c0.2-1.2,0.4-2.4,0.5-3.7
		c0.1-0.5,0.4-0.3,0.6-0.3c1.3,0.2,2.6,0.4,3.9,0.6c1.5,0.2,3,0.4,4.4,0.7c2.2,0.3,4.4,0.7,6.7,1c0.7,0.1,1.4,0.2,2.1,0.2
		c0.6,0.1,1,0.3,0.9,1C237.1,12.8,236.9,14,236.7,15.1z"/>
	<path class="st2" d="M302.7,65.4c-1.1-0.8-2.1-1.7-3.2-2.4c-0.6-0.4-0.8-0.7-0.2-1.4c2.5-3.3,5-6.7,7.5-10.1
		c1.9-2.6,3.9-5.3,5.8-7.9c0.3-0.4,0.3-0.1,0.4,0c1.3,0.9,2.6,1.8,3.8,2.8C312,52.7,307.4,59.1,302.7,65.4z"/>
	<path class="st2" d="M178.5,32.3c-1.1,0.2-0.7-0.8-0.8-1.2c-0.3-2.3-0.5-4.6-0.8-6.9c-0.3-2.7-0.8-5.4-1-8.1
		c-0.2-1.8-0.5-3.6-0.6-5.4c0-0.6-0.5-1.3,0-1.7c0.4-0.3,1.1-0.2,1.7-0.3c0.8-0.1,1.7-0.1,2.5-0.3c0.4-0.1,0.6,0,0.7,0.5
		c0.2,2,0.4,4,0.7,5.9c0.3,2.3,0.6,4.6,0.9,6.9c0.2,1.8,0.3,3.5,0.6,5.3c0.2,1.2,0.2,2.5,0.5,3.7c0.2,0.9,0,1.2-1,1.3
		C180.6,32.1,179.6,32.2,178.5,32.3z"/>
	<path class="st2" d="M134,368.2c-2.1,2-4.2,4.1-6.3,6.1c-0.8,0.8-1.7,1.5-2.5,2.3c-0.2,0.2-0.4,0.3-0.7,0.2
		c-0.3-0.1-0.4-0.3-0.3-0.6c0.4-2.8,0-5.6,0.3-8.3c0.2-1.3,0-2.7,0-4.2c-0.6,1.4-1.2,2.6-1.8,3.9c-1,2.2-2,4.5-3,6.7
		c-0.1,0.2-0.1,0.4-0.5,0.2c-1.5-0.6-1.4-0.5-0.8-2c1.7-3.9,3.4-7.7,5.1-11.6c0.1-0.3,0.2-0.6,0.7-0.3c0.5,0.3,1.1,0.5,1.7,0.7
		c0.4,0.1,0.2,0.5,0.2,0.7c0.1,3.5-0.3,6.9-0.2,10.4c0,0.3,0,0.6,0,0.9c0.2-0.1,0.2-0.1,0.3-0.2c2-1.9,3.9-3.8,5.9-5.7
		c0.7-0.7,1.5-1.3,2.2-2c0.2-0.2,0.3-0.2,0.6-0.1c0.6,0.2,1.2,0.6,1.8,0.8c0.4,0.1,0.2,0.3,0.1,0.5c-1,2.1-1.9,4.3-2.9,6.4
		c-0.9,2-1.7,3.9-2.6,5.9c-0.1,0.3-0.2,0.8-0.5,0.8c-0.5-0.1-1-0.5-1.5-0.7c0,0,0-0.2,0.1-0.4c1.1-2.5,2.2-4.9,3.2-7.4
		c0.4-0.9,0.9-1.8,1.2-2.8c0.2-0.1,0.2-0.2,0.1-0.3C134.1,368.1,134,368.2,134,368.2z"/>
	<path class="st2" d="M70.2,336.2c1.4-0.5,2.6-1.4,3.9-2.1c2.2-1.2,4.3-2.4,6.5-3.7c0.3-0.2,0.4,0,0.5,0.1c1.4,1.1,1.3,1.1-0.2,1.9
		c-3.8,2-7.7,4.1-11.5,6.2c-0.7,0.4-1,0.2-1.4-0.3c-1-0.9-0.3-1.6,0.2-2.3c1.7-2.9,3.5-5.8,5.2-8.8c0,0,0-0.1,0-0.2
		c-1.8,1-3.6,1.9-5.3,2.9c-1.6,0.9-3.3,1.8-4.9,2.7c-0.3,0.2-0.5,0.2-0.7-0.1c-0.2-0.3-0.5-0.6-0.8-0.8c-0.2-0.2-0.2-0.4-0.1-0.7
		c1.4-2.3,2.7-4.6,4-7c1.1-2,2.3-3.9,3.5-5.9c0.2,0.2,0.3,0.4,0.5,0.6c0.9,1,0.9,0.9,0.2,2.1c-1.8,2.9-3.6,5.9-5.4,8.9
		c-0.1,0.2-0.2,0.3-0.3,0.7c1.3-0.7,2.5-1.3,3.7-1.9c1.8-1,3.5-2,5.3-3c0.5-0.3,1.1-0.6,1.7-0.9c0.3-0.2,0.5-0.1,0.7,0.1
		c0.7,0.5,0.6,1,0.2,1.7c-1.9,3.2-3.8,6.4-5.7,9.6c-0.1,0.1-0.1,0.2-0.2,0.2C70,336.4,70.1,336.3,70.2,336.2z"/>
	<path class="st2" d="M325.2,339.9c-2.5-2.8-4.9-5.5-7.4-8.3c0.4-0.4,0.9-0.9,1.3-1.3c3.2,3.7,6.5,7.3,9.7,11
		c-0.9,1.8-2.3,1-3.6,0.8c-3.5-0.7-6.9-1.5-10.4-2.2c-0.5-0.1-0.9-0.2-1.6-0.4c2.7,3,5.3,5.9,7.8,8.9c-0.4,0.4-0.8,1-1.3,1.1
		c-0.6,0.2-0.7-0.6-1-1c-2.2-2.4-4.3-4.9-6.6-7.4c-0.8-0.8-1.4-1.8-2.2-2.4c0.7-1.5,1.9-1.4,3.1-1.1c3.7,0.9,7.5,1.7,11.2,2.5
		c0.2,0,0.4,0,0.6,0c0.1,0.2,0.2,0.2,0.3,0.1C325.3,340.1,325.3,340,325.2,339.9z"/>
	<path class="st2" d="M208.8,380.8c0.2,2,0.3,3.9,0.5,5.7c0.1,0.9,0,1.7,0.2,2.6c0.1,0.9,0.1,1.9,0.2,2.9c0,0.2,0.2,0.7-0.3,0.6
		c-0.5-0.1-1.1,0.4-1.4-0.3c-0.1-0.3-0.1-0.6-0.2-0.9c-0.1-2-0.2-4-0.4-6c-0.2-2.2-0.3-4.4-0.5-6.6c-0.1-0.6,0.1-0.8,0.8-0.9
		c1-0.2,1.4,0.4,2,1.1c1.1,1.3,2.2,2.5,3.2,3.8c1.4,1.7,2.9,3.4,4.4,5.1c0.2,0.2,0.4,0.4,0.7,0.6c-0.1-0.9,0.1-1.8-0.1-2.6
		c-0.2-1.1-0.1-2.1-0.3-3.2c-0.2-1.6-0.2-3.2-0.4-4.9c-0.1-0.9,0.7-0.6,1-0.8c0.5-0.2,0.9,0,0.9,0.6c0,0.9,0.1,1.7,0.2,2.6
		c0.1,2.1,0.3,4.2,0.4,6.3c0.1,1.6,0.3,3.2,0.3,4.9c0,0.1,0.2,0.1,0,0.3c-0.4,0.4-1.8,0.2-2.2-0.2c-1.1-1.4-2.2-2.7-3.4-4.1
		c-1.6-1.9-3.2-3.6-4.7-5.6C209.5,381.5,209.2,381.2,208.8,380.8z"/>
	<path class="st2" d="M308.8,353.7c0,3-1.3,4.9-3.3,6.5c-1.2,1-2.5,1.8-3.8,2.6c-0.3,0.2-0.5,0.4-0.9-0.1c-2.6-3.8-5.2-7.6-7.8-11.3
		c-0.2-0.3-0.2-0.4,0.1-0.6c1.6-1,3-2.3,4.7-3.2c3.2-1.8,6.9-1,9.2,1.9C308.1,350.9,308.7,352.4,308.8,353.7z M307,354.1
		c-0.2-1.8-1.1-3.6-2.9-4.8c-1.2-0.8-2.5-1.1-4-0.8c-1.8,0.4-3,1.7-4.5,2.6c-0.3,0.2-0.2,0.4,0,0.6c2,2.9,4,5.8,6,8.8
		c0.2,0.3,0.3,0.2,0.5,0c0.9-0.6,1.8-1.1,2.6-1.8C306.1,357.6,307,356.2,307,354.1z"/>
	<path class="st2" d="M262.1,375.8c0-0.1-0.1-0.2,0-0.3c0.1-0.4-0.7-0.8-0.2-1.3c0.3-0.3,0.8-0.3,1.3-0.5c1.7-0.6,3.4-1.3,5.1-1.9
		c0.4,1.6,1.1,3.1,1.6,4.6c0.1,0.3,0.2,0.5,0,0.8c-2,4.2-7.2,5.8-11.1,3.4c-2.2-1.4-3.3-3.6-3.5-6.2c-0.2-2.2,0.5-4.2,2.1-5.7
		c2.3-2.2,5.6-3,8.6-1.5c0.2,0.1,0.4,0.1,0.6,0.2c-0.1,0.2-0.2,0.3-0.3,0.5c-0.4,0.6-0.6,1-1.6,0.6c-3.2-1.3-6.9,0.9-7.5,4.4
		c-0.5,3.5,2.2,7.4,5.9,7.2c1.9-0.1,3.5-0.9,4.6-2.6c0.3-0.5,0.3-0.9,0.1-1.4c-0.1-0.1-0.1-0.3-0.2-0.4c-0.3-0.5-0.1-1.4-0.8-1.6
		c-0.5-0.1-1.1,0.3-1.7,0.5C264.1,375,263.1,375.4,262.1,375.8z"/>
	<path class="st2" d="M331.9,320.6c0.2,1.6-0.7,1.6-1.9,1.9c-3.8,0.9-5.6,4.9-3.4,8.6c1.5,2.3,4.4,3.7,7.3,2.7
		c1.7-0.6,3.4-2.9,3.6-4.7c0.1-0.7-0.3-1-0.7-1.4c-0.5-0.4-0.8-1.2-1.4-1.2c-0.6,0-0.9,0.8-1.3,1.2c-0.7,0.7-1.4,1.4-2,2.1
		c-0.1,0.1-0.1,0.1-0.1,0.2c-0.5-0.3-0.7-0.9-1.4-1.1c1.7-1.6,3.1-3.5,4.9-5c1,0.9,1.8,2,3,2.8c1.1,0.7,1,1.8,0.8,2.8
		c-0.8,3.5-2.9,5.7-6.4,6.4c-2.2,0.4-4.2-0.2-6-1.7c-1.9-1.6-3-3.7-2.9-6.3c0.1-3.3,2.9-6.6,6.1-7
		C330.6,320.6,331.3,320.6,331.9,320.6z"/>
	<path class="st2" d="M284.5,372.9c-0.3,0-0.4,0-0.5,0.1c-1.2,1.1-2.3,0.5-3.3-0.3c-1.2-0.8-2.4-1.6-3.6-2.3c-0.3-0.2-0.6-0.3-1-0.1
		c-0.7,0.4-1.4,0.7-2.2,1c0.8,1.6,1.5,3.3,2.3,4.9c0.2,0.3,0.2,0.5-0.2,0.6c-0.3,0.1-0.6,0.3-0.8,0.4c-0.3,0.1-0.4,0.2-0.6-0.2
		c-1.1-2.4-2.2-4.8-3.3-7.1c-0.7-1.6-1.5-3.2-2.2-4.7c-0.6-1.2-0.5-1.1,0.6-1.7c1.5-0.7,3-1.4,4.6-2.1c2.8-1.3,5.4,0.5,6.1,3.2
		c0.4,1.6,0,2.8-1.2,3.9c-0.6,0.5-0.6,0.8,0.2,1.2C280.8,370.6,282.6,371.8,284.5,372.9z M278.4,366.1c0-2.3-1.6-3.6-3.4-3.2
		c-1.4,0.4-2.7,1.1-4,1.8c-0.3,0.2-0.2,0.3-0.1,0.4c0.7,1.5,1.4,2.9,2.1,4.4c0.1,0.3,0.2,0.3,0.5,0.2c1.1-0.6,2.3-1.1,3.4-1.6
		C277.8,367.5,278.3,366.7,278.4,366.1z"/>
	<path class="st2" d="M239.9,388.5c-0.6,0-1.2,0.2-1.8,0.4c-1.1-4.8-2.3-9.6-3.4-14.4c2.1-0.5,4.2-0.9,6.3-1.4c2.3-0.5,4.5,1,5,3.3
		c0.5,2.4-0.4,4.1-2.7,5.2c1.9,1.5,3.3,3.3,5.2,4.7c-1.1,0.8-2,0.7-2.8-0.1c-1.3-1.3-2.5-2.6-3.9-3.8c-0.2-0.2-0.4-0.3-0.7-0.2
		c-0.7,0.2-1.7,0.1-2.2,0.6c-0.4,0.5,0.1,1.4,0.3,2.1C239.3,386.1,239.6,387.3,239.9,388.5z M244.2,377.5c0-1.7-1.1-2.7-2.8-2.7
		c-1.4,0-2.8,0.5-4.2,0.9c-0.5,0.1-0.3,0.4-0.3,0.6c0.3,1.5,0.7,2.9,1,4.4c0.1,0.4,0.3,0.5,0.6,0.4c1.2-0.4,2.5-0.5,3.7-1
		C243.6,379.6,244.2,378.9,244.2,377.5z"/>
	<path class="st2" d="M150.6,382.1c0.9-0.7,1.6-1.6,2.3-2.4c0.5-0.6,0.7,0.1,0.9,0.2c0.2,0.1,0.7,0.4,0.2,0.8
		c-0.8,0.7-1.3,1.7-2.3,2.3c-0.4,0.2-0.4,0.5-0.2,1c0.6,0.9,1.1,1.9,1.6,2.9c-1.7-0.1-2.7-1-3.2-2.5c-2.6,1.4-5.6,0.7-7.1-1
		c-1.7-1.9-0.8-5.1,1.2-6c0.6-0.3,1.2-0.6,1.9-0.7c0.3,0,0.6-0.1,0.5-0.7c-0.5-2.2-0.2-3.9,1.6-4.9c1.3-0.7,2.7-0.6,4,0.2
		c1,0.6,1.6,1.5,1.4,2.7c-0.1,1.3-0.8,2.2-2,2.7c-0.7,0.3-1.4,0.6-2.1,0.6c-0.7,0-0.8,0.3-0.5,1C149.4,379.4,150,380.7,150.6,382.1z
		 M143.8,380.8c0,0.5,0,0.9,0.3,1.4c1.2,1.8,3.2,1.8,4.9,1c0.3-0.1,0.3-0.3,0.1-0.5c-0.8-1.5-1.5-3.1-2.1-4.7
		c-0.1-0.2-0.1-0.4-0.4-0.3C145.2,377.9,143.5,379.5,143.8,380.8z M147.9,374.5c-0.1,0.4,0.1,0.8,0.2,1.2c0,0.3,0.2,0.4,0.4,0.3
		c0.8-0.2,1.6-0.3,2.4-0.7c0.9-0.6,1.3-1.9,0.8-2.7c-0.5-0.8-1.9-1-2.8-0.5C148.1,372.7,147.8,373.5,147.9,374.5z"/>
	<path class="st2" d="M102.9,365.6c2.2-1.8,4.4-3.6,6.6-5.3c1.8-1.5,3.7-3,5.5-4.5c0.2-0.2,0.4-0.3,0.6,0c0,0,0.1,0.1,0.1,0.1
		c1.8,1.1,1.7,1.1,1.3,3.1c-0.2,1.1-0.3,2.3-0.4,3.4c-0.3,2.1-0.5,4.2-0.8,6.3c-0.2,1.2-0.3,2.5-0.4,3.7c0,0-0.1,0-0.1,0
		c-0.5-0.6-1.6-0.3-1.6-1.4c0-0.8,0.1-1.6,0.3-2.4c0.1-0.5,0.1-0.7-0.4-1c-1.8-1-3.5-1.9-5.2-3c-0.5-0.3-0.9-0.3-1.4,0.1
		c-0.1,0.1-0.2,0.3-0.4,0.4C104.4,366.8,105.3,367,102.9,365.6z M114.2,366.3c0.4-2.8,0.8-5.6,1.1-8.4c-1.1,0.9-2.1,1.6-3,2.4
		c-1,0.8-2.1,1.7-3.1,2.5c-0.2,0.2-0.6,0.5-0.1,0.7C110.8,364.5,112.5,365.3,114.2,366.3z"/>
	<path class="st2" d="M286.4,371.8c-0.4-1.3-0.4-2.5-0.6-3.8c-0.3-2-0.5-4-0.9-6c-0.3-1.8-0.4-3.6-0.7-5.4c-0.1-0.5,0.1-0.7,0.6-0.9
		c1.5-0.8,1.5-0.7,2.8,0.3c2,1.7,4.2,3.3,6.2,4.9c1.5,1.2,3,2.4,4.5,3.5c0.1,0.1,0.3,0.1,0.2,0.3c-0.1,0.4-1.6,1-2,0.8
		c-0.7-0.5-1.5-1.1-2.2-1.7c-0.3-0.2-0.5-0.2-0.7-0.1c-1.9,1.1-3.7,2.2-5.6,3.2c-0.3,0.2-0.4,0.3-0.4,0.7c0.1,0.7,0,1.4,0.2,2
		c0.3,0.8,0.1,1.3-0.7,1.6C287,371.4,286.7,371.6,286.4,371.8z M292.8,362.5c-2.2-1.8-4.4-3.5-6.7-5.3c0.4,2.9,0.8,5.6,1.2,8.5
		C289.1,364.6,290.9,363.5,292.8,362.5z"/>
	<path class="st2" d="M232.9,381.5c0,0.2,0,0.3,0,0.5c0,1.2,0,1.2-1.2,1.4c-1.9,0.3-3.9,0.6-5.8,0.9c-0.5,0.1-0.5,0.3-0.4,0.6
		c0.4,1.5,0.5,3,0.8,4.5c1.8-0.3,3.6-0.6,5.4-0.8c0.6-0.1,1.2-0.2,1.8-0.3c0.4-0.1,0.7,0.1,0.8,0.5c0.3,0.9,0,1.2-0.9,1.3
		c-1.7,0.2-3.4,0.5-5.1,0.8c-1,0.2-2,0.3-3,0.4c-0.3,0-0.5,0-0.5-0.5c-0.3-2.6-0.8-5.1-1.2-7.7c-0.3-1.9-0.5-3.9-0.9-5.8
		c-0.1-0.3,0-0.6,0.5-0.6c1.8-0.2,3.6-0.6,5.4-0.9c0.9-0.2,1.8-0.4,2.7-0.5c0.3,0,0.9-0.3,0.9,0.3c0,0.4,0.8,1.2-0.5,1.4
		c-1.7,0.2-3.4,0.6-5.1,0.8c-0.5,0.1-0.9,0.3-1.5,0.2c-0.4-0.1-0.4,0.3-0.4,0.5c0,1,0.3,2,0.5,3c0.1,0.4-0.2,1,0.3,1.3
		c0.4,0.2,0.8-0.1,1.3-0.2C228.6,382.2,230.7,381.9,232.9,381.5z"/>
	<path class="st2" d="M180.2,376.9c-0.5,0.9-0.3,1.8-0.4,2.6c-0.3,2.3-0.4,4.6-0.6,6.9c-0.1,2.6,1.8,4,4.1,4.1
		c3.1,0.1,4.1-2.1,4.3-4.2c0.2-2.2,0.3-4.3,0.7-6.5c0.1-0.6-0.1-1.2,0.1-1.8c0.1-0.4,0.2-0.4,0.6-0.4c1.2,0,1.3,0.4,1.1,1.5
		c-0.3,1.6-0.2,3.3-0.4,4.9c-0.2,2-0.2,4.1-1.3,5.9c-0.8,1.2-1.9,1.8-3.1,2.1c-2.1,0.5-4.1,0.1-5.9-1.2c-1.1-0.8-1.7-1.9-1.8-3.2
		c-0.3-2.6,0.2-5.1,0.5-7.7c0.1-0.8,0.2-1.7,0.2-2.5c0-0.8,0.3-0.9,1-0.8C179.4,376.8,179.7,376.9,180.2,376.9z"/>
	<path class="st2" d="M169.1,376.9c-1.4-0.3-2.7-0.6-4-0.7c-0.6-0.1-0.6-0.4-0.5-0.7c0.1-0.4,0-1.1,0.8-0.9c1.1,0.2,2.2,0.4,3.3,0.6
		c2.4,0.4,4.7,0.9,7.1,1.3c-0.1,0.5,0,1.2-0.4,1.5c-0.3,0.2-1-0.1-1.5-0.2c-0.8-0.1-1.7-0.2-2.5-0.4c-0.5-0.2-0.7,0.1-0.7,0.4
		c-0.3,1.8-0.6,3.7-0.9,5.5c-0.3,1.8-0.6,3.7-1,5.5c0,0.1-0.1,0.2-0.1,0.3c0,0.4,0,0.9-0.3,1c-0.4,0.1-1-0.1-1.4-0.2
		c-0.2-0.1-0.2-0.3-0.2-0.6c0.5-3,1-5.9,1.6-8.9C168.6,379.3,168.9,378.1,169.1,376.9z"/>
	<path class="st2" d="M95.6,360.9c-0.4-0.2-0.8-0.5-1.1-0.7c-1.8-1.3-3.6-2.7-5.5-4c-0.4-0.3-0.3-0.5-0.1-0.7
		c2.6-3.7,5.3-7.4,7.9-11.1c0.2-0.3,0.5-0.4,0.8-0.1c0.2,0.2,0.4,0.4,0.7,0.5c0.4,0.2,0.3,0.2,0.1,0.5c-1.5,2.1-3,4.3-4.5,6.5
		c-0.8,1.2-1.6,2.4-2.5,3.5c-0.3,0.4-0.3,0.5,0.1,0.8c1.6,1.1,3.1,2.2,4.6,3.3c0.2,0.1,0.6,0.2,0.4,0.5
		C96.2,360.2,96,360.6,95.6,360.9z"/>
	<path class="st2" d="M81.4,348.1c1.5,1.2,3,2.4,4.5,3.7c0.2,0.2,1.2,0.2,0.5,1c-0.7,0.9-0.7,0.9-1.6,0.2c-1.8-1.5-3.5-2.9-5.3-4.3
		c-0.3-0.3-0.6-0.4-0.1-0.9c2.6-3.2,5.2-6.4,7.8-9.6c0.2-0.2,0.3-0.6,0.6-0.7c0.2-0.1,0.1-0.7,0.6-0.5c0.5,0.2,0.8,0.7,1.2,0.9
		c0,0.1-0.1,0.2-0.1,0.3c-1.3,1.6-2.6,3.2-3.9,4.8C84.1,344.7,82.8,346.4,81.4,348.1z"/>
	<path class="st2" d="M251.2,27.8c2.5,0.8,5,1.6,7.5,2.4c0.6,0.2,0.7,0.4,0.5,1c-0.3,0.8-0.5,1.6-0.7,2.4c-0.1,0.4-0.3,0.5-0.7,0.4
		c-2.3-0.8-4.7-1.6-7-2.3c-0.5-0.2-0.5-0.4-0.4-0.8C250.6,29.8,250.9,28.8,251.2,27.8z"/>
	<path class="st2" d="M75.5,345c-0.5-0.4-0.9-0.8-1.4-1.1c0,0,0.1-0.2,0.1-0.3c1-1.2,2.1-2.3,3.1-3.4c2-2.3,4-4.5,6-6.8
		c0.4-0.4,0.6-0.5,1.1-0.1c0.8,0.8,0.8,0.8,0,1.6c-2.3,2.6-4.6,5.2-6.9,7.8c-0.6,0.7-1.3,1.2-1.8,1.9
		C75.8,344.8,75.6,344.9,75.5,345z"/>
	<path class="st2" d="M108.4,351.4c-0.1,0.2-0.1,0.3-0.2,0.4c-2.5,3.8-5,7.7-7.4,11.5c-0.3,0.5-0.5,0.4-0.9,0.2
		c-1-0.7-1-0.6-0.4-1.7c2.3-3.6,4.6-7.3,6.9-10.9c0.3-0.4,0.5-0.5,0.9-0.2C107.6,351.1,108,351.2,108.4,351.4z"/>
	<path class="st2" d="M305.6,341.8c0.2-0.1,0.3-0.1,0.4-0.2c1.1-0.8,1.1-0.8,1.9,0.2c1.8,2.4,3.7,4.7,5.5,7.1
		c0.9,1.2,1.8,2.3,2.7,3.5c-0.2,0.1-0.4,0.2-0.5,0.3c-1,0.8-1,0.7-1.8-0.3c-1.6-2.1-3.3-4.1-4.9-6.2
		C307.9,344.8,306.8,343.3,305.6,341.8z"/>
	<path class="st3" d="M73.1,102.2c-0.7,0.9-1.4,1.9-2.1,2.8c-0.1-0.9,0.6-1.4,1.1-2C72.3,102.8,72.3,102,73.1,102.2z"/>
	<path class="st3" d="M321.9,306.3c0.4-0.6,0.9-1.2,1.5-1.7C323.2,305.5,322.7,306.1,321.9,306.3z"/>
	<path class="st3" d="M268.1,54.1c-0.6-0.2-1.2-0.5-1.8-0.9C267.1,53.2,267.7,53.3,268.1,54.1z"/>
	<path class="st3" d="M266,53c-0.6-0.1-1.1-0.4-1.6-0.7C265,52.3,265.7,52.3,266,53z"/>
	<path class="st3" d="M115.7,339.1c0.5,0.2,1,0.5,1.4,0.9C116.5,340,115.9,339.8,115.7,339.1z"/>
	<path class="st3" d="M323.3,304.6c0.2-0.4,0.4-0.7,0.7-0.9C324,304.2,324,304.7,323.3,304.6z"/>
	<path class="st3" d="M321.1,307.2c0.2-0.3,0.5-0.6,0.7-0.8C321.8,306.8,321.8,307.3,321.1,307.2z"/>
	<path class="st3" d="M320.5,308c0.1-0.3,0.4-0.5,0.6-0.8C321.2,307.8,320.9,307.9,320.5,308z"/>
	<path class="st3" d="M73.7,101.4c-0.1,0.3-0.3,0.6-0.6,0.8C73,101.7,73.2,101.4,73.7,101.4z"/>
	<path class="st3" d="M115.1,338.7c0.2,0.1,0.5,0.2,0.6,0.4C115.5,339,114.9,339.4,115.1,338.7z"/>
	<path class="st3" d="M74.1,100.9c-0.1,0.2-0.2,0.4-0.4,0.5C73.7,101.1,73.7,100.9,74.1,100.9z"/>
	<path class="st3" d="M356.3,207.1c-0.4,33.1-12.7,67.9-38.1,97.8c-22.1,26-50,43-83.3,50.9c-13.4,3.2-26.9,4.4-40.6,3.8
		c-33-1.3-62.6-12.1-88.7-32.2c-24.3-18.7-41.6-42.7-52.2-71.5c-4-10.9-6.7-22.1-8.2-33.7c-1.4-10.8-1.8-21.7-1-32.6
		c2.7-35.8,15.8-67.5,39.6-94.5c20-22.7,44.6-38.3,73.7-46.8c8.6-2.5,17.5-4.2,26.4-5.1c9.1-1,18.2-1.1,27.3-0.5
		C239.8,45,266,54.2,289.4,71c31.7,22.7,52.2,53.1,62,90.8C354.8,174.6,356.3,187.8,356.3,207.1z M181,199.9
		c-5.5,2.2-10.4,5-14.4,9.4c-1.4,1.6-2.7,3.3-3.7,5.1c-2.5,4.7-3.2,9.7-2.3,14.9c0.7,4.3,2.6,8.1,5.6,11.4c2.3,2.6,5.1,4.5,8.1,6.2
		c3.8,2,7.9,3.4,12.1,4.3c3.1,0.7,6.3,1.1,9.4,1.2c3.7,0.1,7.4,0.2,11.2-0.3c2.4-0.3,4.9-0.6,7.3-1.2c5.5-1.3,10.7-3.3,15.3-6.7
		c2.8-2.1,5.2-4.5,7-7.6c2.6-4.5,3.4-9.4,2.8-14.6c-0.3-2.3-0.9-4.5-1.9-6.7c-1.6-3.3-3.7-6.1-6.5-8.5c-2.1-1.8-4.3-3.4-6.7-4.7
		c-1.7-0.9-3.5-1.7-5.3-2.4c0.1-0.3,0.3-0.3,0.5-0.4c1.9-0.7,3.8-1.5,5.5-2.5c3.4-1.8,6.4-4.1,8.8-7.2c2.5-3.3,3.9-7,4.2-11
		c0.2-2.1,0.1-4.3-0.3-6.4c-0.7-3.8-2.3-7-4.7-9.9c-3.5-4.1-8-6.7-13-8.5c-2.9-1.1-5.8-1.8-8.9-2.3c-3.3-0.6-6.7-0.8-10-1
		c-1.4-0.1-2.8,0.1-4.1,0.1c-2.2,0.1-4.5,0.3-6.7,0.6c-3.7,0.6-7.2,1.4-10.7,2.8c-4.9,1.9-9.4,4.5-12.8,8.7c-1.5,1.8-2.7,3.8-3.5,6
		c-1.1,3.1-1.6,6.2-1.3,9.5c0.2,1.7,0.4,3.4,0.9,5.1c1.1,3.7,3.2,6.8,6.1,9.4c2.6,2.4,5.5,4.2,8.8,5.6
		C178.8,198.9,179.9,199.4,181,199.9z"/>
	<path class="st2" d="M181,199.9c-1.1-0.5-2.2-1-3.3-1.4c-3.2-1.4-6.2-3.2-8.8-5.6c-2.9-2.6-5-5.7-6.1-9.4c-0.5-1.7-0.7-3.4-0.9-5.1
		c-0.3-3.3,0.2-6.4,1.3-9.5c0.8-2.2,2-4.2,3.5-6c3.4-4.2,7.9-6.8,12.8-8.7c3.5-1.3,7.1-2.2,10.7-2.8c2.2-0.3,4.4-0.5,6.7-0.6
		c1.4,0,2.8-0.2,4.1-0.1c3.4,0.2,6.7,0.4,10,1c3,0.5,6,1.3,8.9,2.3c5,1.8,9.5,4.5,13,8.5c2.4,2.9,4,6.2,4.7,9.9
		c0.4,2.1,0.5,4.3,0.3,6.4c-0.3,4.1-1.7,7.8-4.2,11c-2.4,3.1-5.4,5.4-8.8,7.2c-1.8,1-3.6,1.8-5.5,2.5c-0.2,0.1-0.4,0.1-0.5,0.4
		c1.8,0.7,3.6,1.5,5.3,2.4c2.4,1.3,4.6,2.9,6.7,4.7c2.8,2.4,4.9,5.2,6.5,8.5c1,2.1,1.7,4.3,1.9,6.7c0.6,5.2-0.2,10-2.8,14.6
		c-1.8,3-4.1,5.5-7,7.6c-4.6,3.4-9.8,5.4-15.3,6.7c-2.4,0.6-4.8,0.9-7.3,1.2c-3.7,0.4-7.4,0.4-11.2,0.3c-3.2-0.1-6.3-0.6-9.4-1.2
		c-4.2-0.9-8.3-2.2-12.1-4.3c-3-1.6-5.8-3.6-8.1-6.2c-2.9-3.3-4.8-7.1-5.6-11.4c-0.9-5.2-0.2-10.2,2.3-14.9c1-1.9,2.2-3.5,3.7-5.1
		C170.6,204.8,175.5,202,181,199.9z M218.2,222.5c0-0.4,0-0.9,0-1.3c0-0.1,0-0.2-0.1-0.3c-0.7-2.9-2.6-4.9-4.9-6.6
		c-3-2.1-6.3-3.4-9.8-4.2c-1.5-0.4-3-0.9-4.7-0.5c-3.4,0.8-6.7,1.8-9.8,3.4c-2.1,1.1-4,2.5-5.4,4.4c-1.6,2.1-2.2,4.4-1.6,7
		c0.8,3.3,3,5.5,5.9,7.1c3.7,2.1,7.8,2.7,11.9,2.8c2.1,0,4.2-0.2,6.2-0.7c3.8-0.9,7.2-2.2,9.9-5.2
		C217.3,226.7,218.2,224.8,218.2,222.5z M198.8,168.8c-1.3,0-3.7,0.3-6.1,0.9c-3.2,0.9-6.2,2.4-8,5.4c-1.4,2.3-1.9,4.7-0.9,7.3
		c1,2.6,3,4.2,5.3,5.5c2.4,1.4,5,2.3,7.7,2.9c1.1,0.3,2.3,0.7,3.4,0.6c1.8-0.2,3.5-0.6,5.2-1.2c3.3-1.1,6.5-2.5,9-5.1
		c1.8-1.9,2.4-4.3,2-6.8c-0.6-3.4-2.6-5.7-5.6-7.2C207.4,169.4,203.8,168.8,198.8,168.8z"/>
	<path class="st3" d="M218.2,222.5c0.1,2.3-0.8,4.3-2.3,6c-2.6,3-6.1,4.4-9.9,5.2c-2.1,0.5-4.1,0.7-6.2,0.7
		c-4.1-0.1-8.2-0.8-11.9-2.8c-2.9-1.6-5.1-3.8-5.9-7.1c-0.6-2.6,0-4.9,1.6-7c1.4-1.9,3.3-3.2,5.4-4.4c3.1-1.7,6.4-2.6,9.8-3.4
		c1.6-0.4,3.1,0.2,4.7,0.5c3.5,0.9,6.8,2.1,9.8,4.2c2.3,1.7,4.3,3.7,4.9,6.6c0,0.1,0.1,0.2,0.1,0.3
		C218.2,221.6,218.2,222,218.2,222.5z"/>
	<path class="st3" d="M198.8,168.8c5,0,8.6,0.6,11.9,2.3c3,1.5,5.1,3.9,5.6,7.2c0.4,2.5-0.2,4.8-2,6.8c-2.5,2.6-5.7,4-9,5.1
		c-1.7,0.6-3.4,1-5.2,1.2c-1.1,0.2-2.3-0.3-3.4-0.6c-2.7-0.6-5.3-1.6-7.7-2.9c-2.3-1.3-4.3-3-5.3-5.5c-1-2.6-0.5-5,0.9-7.3
		c1.8-3,4.7-4.5,8-5.4C195.1,169.1,197.5,168.8,198.8,168.8z"/>
</g>
<circle class="st3" cx="-1016.2" cy="248.2" r="157.3"/>
</svg>
