<?xml version="1.0" encoding="utf-8"?>
<!-- Generator: Adobe Illustrator 24.1.3, SVG Export Plug-In . SVG Version: 6.00 Build 0)  -->
<svg version="1.1" id="Layer_1" xmlns="http://www.w3.org/2000/svg" xmlns:xlink="http://www.w3.org/1999/xlink" x="0px" y="0px"
	 viewBox="0 0 400 400" style="enable-background:new 0 0 400 400;" xml:space="preserve">
<style type="text/css">
	.st0{display:none;}
	.st1{display:inline;fill:#222222;}
	.st2{fill:#222222;}
</style>
<g class="st0">
	<path class="st1" d="M354,205.7c-0.1,1.6-0.2,3.1-0.3,4.7c-0.8,13.6-3.2,26.9-7.6,39.7c-14.4,42-41.6,72.7-81.7,91.9
		c-12.9,6.2-26.6,10.1-40.7,12.2c-10,1.5-20,2-30,1.4c-31.8-1.8-60.3-12.4-85.3-32c-27.7-21.8-45.8-49.9-54.7-84
		c-2.5-9.6-3.9-19.3-4.5-29.2c-0.6-9.2-0.3-18.4,0.8-27.6c3.4-28.5,13.7-54.3,31.3-77.1c20-25.8,45.6-43.6,76.9-53.2
		c10.3-3.1,20.9-5.1,31.6-5.9c46.3-3.5,91.2,14.1,122.7,48.2c18.8,20.4,31.3,44.1,37.6,71.1c2.2,9.6,3.5,19.3,3.8,29.1
		c0,0.4,0.1,0.8,0.1,1.2C354,199.4,354,202.6,354,205.7z M350.6,199.7c-0.2-3.4-0.4-8.2-0.8-12.9c-0.7-9.1-2.4-18-4.8-26.8
		c-12.1-43.7-42.8-78.9-81.9-96.9c-17.5-8-35.9-12.5-55.1-13.3c-13.4-0.6-26.7,0.5-39.8,3.6c-31.2,7.4-57.4,23.2-78.4,47.4
		c-23.9,27.5-36.1,59.7-37.3,96.1c-0.5,14.9,1.2,29.7,5.2,44.1c8.4,30.8,24.8,56.6,49.3,77c25.6,21.3,55.1,32.7,88.4,34.2
		c13.9,0.6,27.5-0.7,41-4c31.1-7.7,57.1-23.8,77.9-48.2C338.3,271.5,350.1,238.3,350.6,199.7z"/>
	<path class="st1" d="M46,100.5c0.7-1,1.5-2,2.2-2.9c1.8-2.5,3.5-5.2,5.6-7.5c2.1-2.5,5.7-2.8,8.2-0.5c1.6,1.5,2,3.2,1.6,5.2
		c0.9-0.3,1.8-0.5,2.7-0.8c1.5-0.5,2.9,0.2,4,1c1.3,0.9,2.2,2.1,2.5,3.8c0.3,1.7-0.2,3.2-1.1,4.5c-2.3,3.4-4.7,6.7-7.1,10
		c-0.3,0.4-0.5,0.3-0.8,0.1c-3-2.2-6-4.4-9.1-6.5c-2.8-2-5.6-4.1-8.5-6.1c-0.1-0.1-0.2,0-0.3-0.1C46,100.7,46,100.6,46,100.5z
		 M63.8,107.5c0.5-0.6,0.9-1.2,1.3-1.7c0.9-1.4,1.9-2.7,2.8-4.1c0.6-1.1,0.3-2.5-0.7-3.1c-1.1-0.7-2.3-1.1-3.4,0.2
		c-1.5,1.8-2.8,3.7-4.3,5.6C61,105.4,62.4,106.5,63.8,107.5z M56.2,101.9c0.1-0.1,0.3-0.2,0.4-0.4c1-1.4,2.1-2.8,3.1-4.3
		c0.4-0.6,0.7-1.3,0.7-2c-0.1-1-0.7-1.8-1.7-2.2c-0.9-0.3-2,0-2.7,0.9c-1.2,1.5-2.3,3.1-3.4,4.7c-0.2,0.3-0.2,0.6,0.1,0.8
		C53.8,100.3,55,101.1,56.2,101.9z"/>
	<path class="st1" d="M195.3,15.9c1,0.2,2,0.4,2.9,0.7c4.2,1.4,6.7,4.4,7.5,8.8c0.6,3.1,0.1,6.1-1.6,8.8c-1.8,2.8-4.4,4.3-7.6,4.8
		c-3.4,0.6-6.6,0.1-9.4-2c-2.5-1.8-3.9-4.3-4.4-7.3c-0.4-2.4-0.2-4.8,0.8-7.1c1.2-2.7,3.1-4.6,5.8-5.7c1.2-0.5,2.5-0.6,3.8-0.9
		c0.1,0,0.2-0.1,0.2-0.2C193.9,15.9,194.6,15.9,195.3,15.9z M201.1,27.5c0-0.3-0.1-0.8-0.2-1.3c-0.5-4.2-4.5-6.9-8.9-5.6
		c-2.7,0.8-4.1,2.9-4.5,5.7c-0.4,3.1,0.3,5.6,2.8,7.6c1.9,1.5,5.4,1.6,7.4,0.3C200,32.7,201,30.4,201.1,27.5z"/>
	<path class="st1" d="M199.8,384.1c-1.1-0.5-2.1-0.9-3.2-1.4c-0.1,0-0.2-0.1-0.3-0.2c-0.8-0.7-0.8-0.7-0.1-1.5
		c0.1-0.1,0.2-0.3,0.3-0.4c0.7,0.5,1.4,1.1,2.2,1.4c1.4,0.6,2.9,0.9,4.4,0.1c0.8-0.4,1.3-1,1.3-2c0-0.9-0.6-1.5-1.3-1.8
		c-1.4-0.6-2.8-1-4.2-1.5c-1.3-0.5-2.4-1.2-2.6-2.7c-0.3-2,0.6-3.4,2.5-4.1c2.4-0.9,5.7-0.3,7.3,1.7c-0.4,0.4-0.7,0.7-1.1,1.2
		c-0.9-1.1-2.1-1.5-3.5-1.7c-1-0.2-1.9,0-2.7,0.6c-1,0.8-1.3,2.2,0.2,3.1c0.8,0.5,1.8,0.7,2.7,1c0.7,0.2,1.4,0.4,2,0.7
		c2,0.8,2.7,2.5,2.5,3.8c-0.3,1.9-1,2.9-3.3,3.6c-0.1,0-0.3,0.1-0.4,0.2C201.6,384.1,200.7,384.1,199.8,384.1z"/>
	<path class="st1" d="M339.4,100.3c3.8-3,7.4-5.8,11.1-8.7c1,1.3,2,2.5,2.9,3.8c-5.9,4.6-11.7,9.2-17.7,13.8
		c-0.4-0.4-0.8-0.9-1.1-1.3c-0.3-0.4-0.7-0.9-1-1.3c-0.5-0.6-0.8-1.1-0.5-2c1.6-5.4,3.1-10.8,4.6-16.2c0,0,0-0.1-0.1-0.2
		c-3.8,3-7.6,6-11.4,8.9c-1-1.3-2-2.5-2.9-3.7c5.9-4.6,11.8-9.2,17.7-13.9c0.9,1.2,1.8,2.3,2.7,3.5c0.2,0.2,0.3,0.6,0.2,0.8
		c-1.4,5.3-2.9,10.5-4.4,15.7C339.5,99.7,339.5,99.9,339.4,100.3z"/>
	<path class="st1" d="M178.7,40.1c-1.4,0.3-2.7,0.4-4,0.9c-1.6,0.6-2.1-0.6-2.8-1.4c-1.2-1.4-2.5-2.7-3.5-4.2
		c-0.8-1.3-1.8-1.1-2.9-0.8c-0.5,0.1-1,0.2-1.6,0.4c0.5,2.6,1.1,5.2,1.6,7.8c-1.4,0.3-2.8,0.6-4.2,0.9c-0.2,0-0.5-0.3-0.6-0.5
		c-0.9-4.6-1.8-9.1-2.7-13.7c-0.5-2.4-1-4.8-1.5-7.2c0-0.2,0-0.3,0-0.6c2.7-0.5,5.3-1.1,8-1.6c1.2-0.2,2.3-0.6,3.5-0.6
		c2.3-0.1,4.4,0.5,6,2.4c1.7,2,2.5,5.8,1,8.2c-0.6,0.9-1.4,1.7-2.3,2.4c-0.5,0.4-0.5,0.6-0.1,1c1.3,1.4,2.6,2.8,3.9,4.3
		C177.1,38.4,177.8,39.2,178.7,40.1z M161.9,24.8c0.4,2,0.8,4,1.2,6c0.5-0.1,1.1-0.2,1.6-0.3c1.5-0.4,3.1-0.7,4.5-1.2
		c1.5-0.5,2-2.1,1.4-3.7c-0.4-1.2-2.2-2.1-3.5-1.8C165.4,24.1,163.7,24.4,161.9,24.8z"/>
	<path class="st1" d="M319,85c-6.4,0.1-12.3-5.8-12.1-12.1c0.2-6.2,5.4-11.7,11.8-11.6c6.4,0.1,11.9,5.5,12,11.9
		C330.7,79.5,325.2,84.9,319,85z M311.6,73.8c-0.3,3.5,3.3,6.8,6.8,6.7c3.3-0.1,6.6-3,7.4-6.5c1-4.2-2.8-8.8-7.8-8
		C314.8,66.5,311.4,70.1,311.6,73.8z"/>
	<path class="st1" d="M240.4,29.6c3.5,0.9,7,1.7,10.6,2.6c-0.3,1.2-0.6,2.4-0.9,3.6c-0.1,0.5-0.5,0.4-0.8,0.3
		c-3.3-0.8-6.6-1.6-9.9-2.4c-0.4,1.7-0.8,3.3-1.2,5c3.4,0.8,6.7,1.6,10.1,2.4c0.5,0.1,0.7,0.2,0.5,0.8c-0.3,1.1-0.5,2.2-0.8,3.4
		c-1.4-0.3-2.7-0.6-4.1-1c-3.6-0.9-7.2-1.8-10.8-2.6c-0.4-0.1-0.5-0.2-0.4-0.7c0.9-3.6,1.8-7.3,2.7-10.9c0.8-3.5,1.7-7,2.5-10.4
		c5,1.2,9.9,2.4,14.9,3.6c0.5,0.1,0.6,0.3,0.5,0.8c-0.3,1-0.5,1.9-0.7,2.9c-0.1,0.5-0.2,0.6-0.7,0.4c-3.2-0.8-6.4-1.5-9.6-2.3
		c-0.6-0.2-0.8,0-0.9,0.6C241.1,27,240.7,28.3,240.4,29.6z"/>
	<path class="st1" d="M79,88.2c2.7-2.8,5.3-5.5,8-8.4c0.9,1.1,1.7,2.1,2.7,3.2c-3.4,3.6-7,7.4-10.7,11.3c-0.1-0.1-0.2-0.1-0.3-0.2
		c-1.7-1.6-3.4-3.3-5.1-4.9c-2.6-2.5-5.1-4.9-7.7-7.4c-1.1-1-2.1-2-3.3-3c3.7-3.9,7.3-7.7,11-11.5c1,0.9,2.1,1.9,3.1,2.8
		c-2.6,2.7-5.1,5.4-7.4,7.7c1,1.3,2,2.5,3,3.7c2.7-2.8,5.1-5.4,7.6-7.9c1,0.9,2,1.9,3.1,2.8c-2.5,2.7-5,5.3-7.5,7.9
		C76.7,85.7,77.8,86.9,79,88.2z"/>
	<path class="st1" d="M90.8,73.3c2.1,0.2,4.1-0.2,5.9-1.3c1-0.6,1.9-1.5,2.7-2.4c0.6-0.6,0.8-1.5,0.5-2.4c-0.4-0.9-1.2-1.4-2.2-1.1
		c-1.2,0.4-2.3,0.9-3.5,1.3c-1.7,0.6-3.4,1.4-5.2,1.9c-3.4,0.8-6.2-1.7-6.9-4.6c-0.6-2.7,0.4-4.9,2.2-6.9c1.8-1.9,3.9-3.2,6.4-3.9
		c1.2-0.3,2.4-0.4,3.8-0.6c0,1.6,0,3.1,0,4.5c-2.9,0.1-5.5,0.9-7.5,3.3c-1.1,1.3-0.6,3.1,0.8,3.3c0.6,0.1,1.3-0.2,1.9-0.4
		c1.8-0.7,3.5-1.5,5.3-2.2c2-0.8,4-1.1,6-0.1c2.4,1.3,4.2,4.7,3.3,7.7c-0.8,2.3-2.3,4-4.2,5.5c-1.6,1.3-3.5,2.3-5.5,2.7
		c-1.1,0.2-2.2,0.2-3.3,0.3c-0.2,0-0.5-0.2-0.5-0.4C90.8,76,90.8,74.6,90.8,73.3z"/>
	<path class="st1" d="M131.8,29.6c2.9-1,5.7-2,8.5-3c1.6-0.6,3.1-1.2,4.8-1c2,0.2,3.7,1,5,2.6c1.1,1.5,1.7,3.1,1.6,4.9
		c-0.1,2.7-1.3,4.7-3.7,5.9c-2.2,1.1-4.5,1.8-6.9,2.7c0.9,2.4,1.7,4.9,2.6,7.5c-1.5,0.5-3,1.1-4.5,1.6
		C136.8,43.8,134.3,36.7,131.8,29.6z M139.8,37.8c1.9-0.7,3.8-1.4,5.6-2.2c1.3-0.6,1.9-2.3,1.3-3.7c-0.5-1.2-1.6-2.2-3.2-1.8
		c-1.8,0.5-3.6,1.1-5.4,1.7c-0.1,0-0.3,0.3-0.2,0.4C138.4,34.1,139.1,35.9,139.8,37.8z"/>
	<path class="st1" d="M278.7,38.4c-1.5,0.1-3,0.2-4.4,0.4c-0.6-2.7-2-4.6-4.7-5.3c-2.2-0.6-4.1-0.2-5.9,1.2c-2.6,2-3.8,5.6-2.7,8.7
		c1.2,3.5,5.2,5.6,8.8,4c0.5-0.2,0.9-0.6,1.4-0.9c1,1.1,2,2.2,3,3.3c-3.8,3.1-8.6,3.5-13.5,0.1c-4.4-3.1-6-8-4.2-13.3
		c0.9-2.5,2.4-4.6,4.7-6c1.9-1.2,4-1.9,6.2-1.7C274.5,29.4,277.9,33.2,278.7,38.4z"/>
	<path class="st1" d="M218.6,21.2c-2.2-0.2-4.3-0.5-6.5-0.7c0.1-1.3,0.3-2.7,0.4-4.2c5.9,0.6,11.8,1.3,17.8,1.9
		c-0.1,0.8-0.1,1.6-0.2,2.4c0,0.3-0.1,0.7-0.1,1c0.1,0.8-0.3,0.9-0.9,0.8c-1.7-0.2-3.5-0.5-5.2-0.6c-0.2,0-0.6,0.4-0.6,0.6
		c-0.2,1.2-0.2,2.4-0.4,3.6c-0.2,1.9-0.4,3.8-0.6,5.7c-0.1,1.3-0.2,2.5-0.4,3.8c-0.2,1.5-0.3,3-0.5,4.4c-1.6-0.2-3.1-0.3-4.8-0.5
		C217.3,33.3,218,27.3,218.6,21.2z"/>
	<path class="st1" d="M114,38c0.7,1.2,1.4,2.4,2.1,3.6c-1.7,1-3.3,2-4.9,3c-0.5,0.3-0.6,0.4-0.3,1c3,5,6,10,9.1,15.1
		c-1.3,0.8-2.7,1.6-4.1,2.5c-1.2-2-2.3-3.9-3.5-5.8c-1.9-3.1-3.7-6.2-5.6-9.3c-0.2-0.4-0.5-0.5-0.9-0.3c-1.7,1-3.4,2.1-5,3.1
		c-0.7-1.2-1.5-2.4-2.2-3.6C103.7,44.2,108.8,41.1,114,38z"/>
	<path class="st1" d="M284.9,61.7c-1.4-0.8-2.8-1.6-4.1-2.4c3.1-5.3,6.1-10.5,9.2-15.8c-1.9-1.1-3.8-2.2-5.7-3.3
		c0.7-1.2,1.4-2.4,2.1-3.6c5.2,3,10.3,6,15.5,9c-0.7,1.2-1.4,2.4-2.1,3.6c-1.9-1.1-3.7-2.1-5.7-3.3C291,51.2,288,56.5,284.9,61.7z"
		/>
	<path class="st1" d="M307.5,49.7c1.3,0.9,2.6,1.9,3.9,2.8c-2.9,4.1-5.8,8.1-8.7,12.2c-1.3,1.8-2.6,3.7-4,5.5
		c-0.3,0.4-0.6,0.5-1.1,0.1c-0.9-0.7-1.8-1.4-2.7-2c-0.4-0.3-0.4-0.5-0.1-0.9c1.3-1.8,2.6-3.6,3.9-5.4c2-2.7,3.9-5.5,5.9-8.2
		C305.5,52.4,306.5,51.1,307.5,49.7z"/>
	<path class="st1" d="M214.4,369.4c2.3-0.2,4.5-0.5,6.8-0.6c1.8-0.1,3.1,0.8,3.5,2.5c0.4,1.3,0.1,3.2-1.7,3.9c0,0,0,0.1-0.1,0.2
		c1.4,0.3,2.4,1.2,2.8,2.6c0.5,2.4-0.4,4-2.7,4.5c-2.2,0.5-4.5,0.6-6.7,0.9c-0.2,0-0.5-0.4-0.6-0.6c-0.3-2.3-0.5-4.6-0.7-7
		c-0.2-1.8-0.4-3.6-0.7-5.4C214.4,370.1,214.4,369.8,214.4,369.4z M217.4,381.6c1.5-0.1,2.8-0.3,4.2-0.4c1.4-0.2,2.5-0.9,2.4-2.7
		c-0.1-1.3-1.2-2.3-2.5-2.2c-1.5,0.1-3.1,0.3-4.7,0.5C217,378.5,217.2,380,217.4,381.6z M216.2,370.8c0.2,1.6,0.4,3,0.5,4.5
		c1.5-0.2,2.9-0.3,4.3-0.5c1.2-0.1,2.2-1.2,2.1-2.3c-0.1-1.4-1.3-2.4-2.6-2.3C219.1,370.4,217.7,370.6,216.2,370.8z"/>
	<path class="st1" d="M180.4,374.1c0,2.9-1,5.1-3.2,6.6c-4,2.8-10.3,0.2-10.7-5c-0.2-2.6,0.4-4.8,2.2-6.6c1.9-1.9,4.2-2.1,6.6-1.5
		C178.4,368.3,180.6,371,180.4,374.1z M173.5,368.8c-1.3-0.1-2.5,0.4-3.3,1.2c-1.7,1.8-2.4,4-1.7,6.4c0.9,3.5,5,4.9,7.7,2.9
		c2.1-1.5,2.6-3.7,2.4-6.1C178.3,370.5,176,368.8,173.5,368.8z"/>
	<path class="st1" d="M250.7,377.1c-3,0.8-6,1.5-8.9,2.3c-1.1-4.3-2.2-8.7-3.3-13c-0.1-0.5,0-0.6,0.4-0.7c2.8-0.7,5.5-1.4,8.3-2.1
		c0.1,0.5,0.2,1,0.3,1.5c-2.4,0.6-4.8,1.2-7.2,1.9c0.4,1.3,0.7,2.6,1,3.9c0.1,0.4,0.3,0.5,0.7,0.4c2.2-0.6,4.3-1.1,6.5-1.7
		c0.1,0.5,0.3,1,0.4,1.5c-2.4,0.6-4.7,1.2-7.1,1.8c0.4,1.6,0.8,3.1,1.2,4.7c2.4-0.6,4.7-1.2,7.2-1.8
		C250.4,376.1,250.5,376.5,250.7,377.1z"/>
	<path class="st1" d="M182.3,381c0.3-0.4,0.7-0.8,1-1.3c1.4,1.9,4.1,2.8,6.1,2.2c0.8-0.3,1.5-0.8,1.7-1.7c0.2-1-0.1-1.8-1.1-2.2
		c-1.2-0.5-2.4-1-3.6-1.6c-0.7-0.4-1.5-0.8-2.1-1.3c-1.7-1.4-1.1-4.2,0.8-5.3c2.3-1.4,6.4-0.6,8.1,1.6c-0.4,0.4-0.7,0.7-1.1,1.1
		c-1.3-1.6-3.1-2.1-5.1-1.8c-1,0.1-1.8,0.9-1.9,1.8c-0.1,0.8,0.6,1.6,1.6,2.1c1.5,0.6,3,1.2,4.5,2c1.4,0.7,1.8,2,1.7,3.5
		c-0.2,1.3-0.9,2.4-2.1,3C188.2,384.3,184,383.4,182.3,381z"/>
	<path class="st1" d="M156.5,363.6c2.1,0.6,4,1,5.8,1.6c1.9,0.6,3.2,2.3,3,4c-0.4,2.7-1.5,4-4,4.2c-1.1,0.1-2.3-0.4-3.5-0.7
		c-1.8-0.4-1.8-0.5-2.3,1.2c-0.4,1.2-0.6,2.5-1,3.7c-0.5-0.1-1.1-0.2-1.7-0.4C154.1,372.7,155.3,368.2,156.5,363.6z M156.4,370.7
		c1.3,0.3,2.5,0.5,3.6,0.9c1.4,0.4,2.8-0.3,3.3-1.7c0.5-1.5-0.2-3-1.8-3.4c-1.2-0.4-2.4-0.6-3.8-1
		C157.3,367.2,156.9,368.9,156.4,370.7z"/>
	<path class="st1" d="M231.6,379.7c1.5-0.3,2.9-0.5,4.4-0.8c0.3-0.1,0.7-0.1,1-0.2c1.1-0.3,1.4,0,1.3,1c0,0.1-0.2,0.3-0.4,0.4
		c-2.5,0.5-5,0.9-7.5,1.4c-0.1,0-0.2,0-0.3,0c-0.8-4.5-1.7-9.1-2.5-13.7c0.6-0.1,1.1-0.2,1.7-0.3
		C230.1,371.5,230.8,375.6,231.6,379.7z"/>
	<path class="st1" d="M209.1,369.6c0.6,0,1.1,0,1.7,0c0.1,1,0.2,2,0.2,3c0.1,1.8,0.1,3.5,0.2,5.3c0.1,1.7,0.2,3.3,0.3,5
		c0,0.2,0,0.4,0,0.6c-0.6,0-1,0-1.7,0C209.5,378.9,209.3,374.3,209.1,369.6z"/>
	<path class="st1" d="M133.1,123.9c5.5,4.4,11.4,7.5,17.8,9.8c7.3,2.6,14.8,3.6,22.6,2.7c10.2-1.3,19.1-5.4,27.2-11.7
		c0.2-0.1,0.4-0.3,0.5-0.4c0.3-0.4,0.5-0.3,0.9,0c4.6,3.9,9.8,6.8,15.3,9c3.5,1.4,7.1,2.4,10.8,3s7.5,0.7,11.2,0.3
		c10.3-1,19.5-4.7,28-10.6c0.9-0.6,1.7-1.3,2.7-2c0,0.4,0.1,0.6,0.1,0.9c0,31.9,0,63.8-0.1,95.7c0,4.7-0.6,9.3-1.5,13.9
		c-2.2,11.3-7.6,20.9-15,29.6c-9.9,11.6-21.9,20.5-35.8,26.9c-5,2.3-10.2,4.3-15.6,5.7c-0.4,0.1-1,0.1-1.4,0c-5-1.3-9.8-3-14.4-5.1
		c-14.3-6.4-26.7-15.5-36.9-27.5c-5.4-6.3-9.8-13.2-12.6-21.1c-1.4-3.9-2.3-7.9-2.9-11.9c-1-6.8-1-13.7-1-20.6c0-28.5,0-57,0-85.4
		C133,124.7,133.1,124.4,133.1,123.9z"/>
</g>
<g>
	<path class="st2" d="M393.3,180.7c-2.1,0.3-4.3,0.5-6.4,0.8c-5.3,0.8-10.6,1.7-15.8,2.6c-0.2,0-0.5,0-0.9,0
		c-0.3-1.4-0.6-2.8-0.7-4.3c0-0.4,0.4-0.8,0.7-1.1c1.7-1.8,3.5-3.5,5.2-5.3c2.1-2.1,4.2-4.3,6.3-6.5c0.2-0.2,0.3-0.4,0.4-1
		c-4.8,0.8-9.5,1.5-14.5,2.3c-0.3-1.7-0.5-3.2-0.8-4.8c7.8-1.3,15.4-2.5,23.1-3.8c0.3,1.6,0.6,3.1,0.8,4.6c0,0.4-0.4,1-0.7,1.3
		c-1.5,1.5-3,3-4.5,4.5c-2.4,2.4-4.7,4.9-7.4,7.7c2.7-0.1,5-0.7,7.3-1c2.3-0.3,4.6-0.7,7.1-1.1c0.2,1,0.3,1.9,0.4,2.7
		c0.1,0.6,0.3,1.1,0.4,1.6C393.3,180.2,393.3,180.5,393.3,180.7z"/>
	<path class="st2" d="M6.7,186.4c0.2-0.8,0.6-1.6,0.7-2.5c0.4-2.9,0.6-5.9,1.2-8.7c0.5-2.7,2.1-4.8,4.9-5.6
		c5.6-1.5,10.2,2.1,9.9,7.3c-0.1,2.1-0.4,4.1-0.6,6.1c0,0.2,0,0.5,0,0.8c2.6,0.7,5.3,0.6,8.2,1.2c-0.2,1.5-0.3,3.1-0.5,4.8
		c-0.9-0.1-1.6-0.2-2.3-0.3c-5.6-0.6-11.2-1.3-16.8-1.9c-1.5-0.2-3-0.4-4.5-0.6C6.7,186.8,6.7,186.6,6.7,186.4z M18.3,183.5
		c0.2-2.1,0.6-4.2,0.6-6.2c0-1.7-1.1-2.8-2.7-3c-1.5-0.2-3,0.5-3.4,2c-0.6,2.1-0.7,4.2-0.8,6.5C14.2,183,16.1,183.3,18.3,183.5z"/>
	<path class="st2" d="M197.2,7.2c0.2,0.8,0.3,1.7,0.6,2.5c1.6,4.8,3.3,9.7,5,14.5c0.1,0.3,0.3,0.6,0.6,1.2
		c2.3-6.1,4.5-11.9,6.7-17.7c1.8,0,3.6,0,5.6,0c-3.2,7.9-6.2,15.5-9.3,23.2c-2.1,0-4.2,0-6.3,0c-0.8-2.1-1.6-4.3-2.4-6.4
		c-1.9-5.2-3.8-10.4-5.7-15.6c-0.2-0.5-0.3-1.1-0.4-1.7C193.4,7.2,195.3,7.2,197.2,7.2z"/>
	<path class="st2" d="M195,392.8c-0.4-1-0.8-2.1-1.2-3.3c-2.1-0.1-4.3-0.2-6.5-0.3c-0.6,0-1,0.2-1.2,0.8c-0.4,0.8-0.8,1.6-1.2,2.4
		c-0.6-0.1-1.1-0.2-1.8-0.3c2.2-4.7,4.3-9.3,6.5-14c0.7,0,1.4,0,2.2,0c0.3,0.6,0.5,1.3,0.8,2.1c1.4,4,2.7,7.9,4,11.9
		c0.1,0.3,0.1,0.6,0.1,0.9C196.2,392.8,195.6,392.8,195,392.8z M187.1,387.6c2.2-0.1,4.2,0.6,6.3,0.1c-0.9-2.6-1.7-5.1-2.5-7.5
		c-0.1,0-0.2,0-0.3,0C189.4,382.5,188.3,384.9,187.1,387.6z"/>
	<path class="st2" d="M200,392.8c-0.1-4-0.2-8-0.2-12c0-0.8,0-1.6,0-2.7c0.6,0,1.1-0.1,1.9-0.1c0,4.4,0,8.6,0,13c2.4,0,4.6,0,7.1,0
		c-0.1,0.7-0.2,1.2-0.3,1.7C205.7,392.8,202.8,392.8,200,392.8z"/>
	<path class="st2" d="M361.1,201.3c-0.1,18.3-2.9,36.2-9,53.5c-5.4,15.4-12.8,29.8-22.7,42.8c-19.4,25.7-44,44.7-74.2,56
		c-11.9,4.5-24.1,7.3-36.7,8.8c-11.6,1.3-23.2,1.4-34.8,0.2c-20.8-2.2-40.3-8.4-58.8-18.2c-8.3-4.4-16.3-9.3-23.8-14.9
		c-8.7-6.5-16.5-13.8-23.7-22c-11.2-12.7-20.1-26.9-26.7-42.5c-5.8-13.6-9.6-27.7-11.5-42.4c-1.3-10.3-1.6-20.7-0.9-31.1
		c0.8-11.6,2.8-23.1,6.1-34.3c4.8-16.4,12-31.7,21.8-45.6C81,90.7,98.8,73,121.1,60.1c17-9.8,35.1-16.3,54.5-19.4
		c11.6-1.8,23.3-2.4,35.1-1.6c20.7,1.4,40.4,6.6,59.2,15.5c10.4,4.9,20.1,10.9,29.2,17.9c9.1,7,17.3,14.9,24.7,23.7
		c11.9,14.2,21,30,27.4,47.4c4.7,12.8,7.7,26,8.9,39.6C360.5,189.2,360.7,195.3,361.1,201.3z M252,124.9c0,0.7,0.1,1.4,0.1,2
		c0,1.7,0,3.3,0,5c0.1,1.4,1.1,2.4,2.4,2.4c1.3,0,2.4-1,2.5-2.5c0-0.2,0-0.4,0-0.5c0-2.8,0-5.5,0-8.3c0-2.2-0.9-3-3-3.1
		c-0.3,0-0.6,0-0.9,0c-41.2,0-82.4,0-123.5,0c-0.4,0-0.7,0-1.1,0c-1.8,0.1-2.6,0.9-2.7,2.8c0,0.6,0,1.2,0,1.8
		c0,52.6,0,105.2,0,157.8c0,0.5,0,1.1,0,1.6c0.1,1.9,0.9,2.8,2.8,2.9c0.5,0,1.1,0,1.6,0c40.8,0,81.5,0,122.3,0c0.5,0,0.9,0,1.4,0
		c2.2,0,3.1-0.9,3.1-3.1c0-3.6,0-7.2,0-10.8c0-0.5,0-1-0.1-1.4c-0.3-1-1.2-1.7-2.2-1.7c-1.1,0-2,0.5-2.3,1.5
		c-0.2,0.5-0.2,1.2-0.2,1.7c0,2.3,0,4.6,0,6.9c0,0.6-0.1,1.2-0.1,1.8c-40.4,0-80.7,0-121,0c-0.4-2.1-0.3-155.4,0.1-156.7
		C171.3,124.9,211.5,124.9,252,124.9z M256.7,204.4c9.5-1,17.4-5,23.3-12.5c5.9-7.5,8.1-16.1,6.7-25.6
		c-2.4-15.9-16.5-27.7-32.8-27.6c-16.3,0.2-30.2,12.4-32.2,28.7c-1,8,0.7,15.5,5.3,22.3c6,8.8,14.4,13.5,25,14.7c0,1.4,0,2.8,0,4.1
		c0,1-0.3,1.6-1.3,2c-1.7,0.7-2.6,2-2.6,4c0,15.2,0,30.5,0,45.7c0,2.1,1,3.3,2.8,4.1c2,0.8,4,0.9,6.1,0.3c2.4-0.7,3.7-2.2,3.6-4.8
		c-0.1-4.3,0-8.6,0-12.9c0-10.6,0-21.2,0-31.9c0-2.3-0.9-3.8-3-4.7c-0.3-0.1-0.6-0.3-0.8-0.4C256.7,208.1,256.7,206.3,256.7,204.4z
		 M183.5,148.8C183.5,148.8,183.5,148.8,183.5,148.8c13.7,0,27.4,0,41,0c0.6,0,1.3,0,1.9-0.1c1.1-0.2,1.8-1.1,1.8-2.1
		c0-1.1-0.7-2.1-1.8-2.3c-0.5-0.1-1.1-0.1-1.6-0.1c-27.5,0-55.1,0-82.6,0c-0.5,0-1.1,0-1.6,0.1c-1.1,0.2-1.8,1.1-1.8,2.1
		c0,1.1,0.7,2.1,1.8,2.3c0.6,0.1,1.2,0.1,1.8,0.1C156.2,148.8,169.9,148.8,183.5,148.8z M183.7,140.8
		C183.7,140.8,183.7,140.8,183.7,140.8c13.6,0,27.2,0,40.9,0c0.6,0,1.2,0,1.8,0c1.1-0.1,1.8-0.9,2-2c0.1-1.1-0.5-2.1-1.6-2.4
		c-0.6-0.1-1.2-0.2-1.8-0.2c-27.6,0-55.2,0-82.8,0c-0.4,0-0.8,0-1.2,0.1c-1.2,0.2-2,1.2-2,2.3c0,1.1,0.9,2,2,2.1
		c0.6,0.1,1.2,0,1.8,0C156.4,140.8,170,140.8,183.7,140.8z M143.5,211.9c1,0,1.9,0,2.8,0c2.4,0,4.8,0,7.3,0c1.4,0,2.3-0.9,2.3-2.2
		c0.1-1.2-0.8-2.2-2.1-2.4c-0.2,0-0.4,0-0.5,0c-3.9,0-7.8,0-11.7,0c-1.9,0-2.7,0.8-2.7,2.7c0,6.7,0,13.5,0,20.2
		c0,1.8,0.8,2.6,2.6,2.6c5.9,0,11.8,0,17.7,0c1.8,0,2.6-0.8,2.6-2.6c0.1-3.5,0.1-7,0.1-10.4c0-0.3,0-0.6-0.1-0.9
		c-0.3-0.9-0.9-1.5-1.9-1.7c-1-0.1-1.9,0.3-2.3,1.2c-0.2,0.5-0.3,1.1-0.3,1.7c-0.1,2.1,0,4.2-0.1,6.4c0,0.5-0.1,1-0.1,1.5
		c-2.2,0.4-12.2,0.3-13.6-0.1C143.5,222.7,143.5,217.4,143.5,211.9z M143.5,191.6c0-5.5,0-10.8,0-16.2c0.6,0,1.2-0.1,1.8-0.1
		c2.3,0,4.6,0,6.9,0c0.5,0,0.9,0,1.4,0c1.4-0.1,2.3-1,2.3-2.2c0-1.3-0.9-2.3-2.4-2.3c-4.1,0-8.1-0.1-12.2,0c-1.7,0-2.5,0.9-2.5,2.6
		c0,6.8,0,13.6,0,20.3c0,1.7,0.8,2.6,2.5,2.6c6,0,11.9,0,17.9,0c1.7,0,2.5-0.8,2.6-2.5c0.1-3.6,0.1-7.2,0.1-10.8
		c0-0.2,0-0.5-0.1-0.7c-0.3-0.9-1.1-1.6-2.1-1.7c-1,0-1.8,0.4-2.1,1.3c-0.2,0.5-0.3,1.1-0.3,1.7c0,2.2,0,4.4-0.1,6.5
		c0,0.5-0.1,0.9-0.2,1.5C152.5,191.6,148,191.6,143.5,191.6z M143.4,248.5c0.8,0,1.5,0,2.1,0c2.7,0,5.3,0,8,0c1.5,0,2.4-1,2.4-2.3
		c0-1.2-0.9-2.1-2.3-2.2c-0.1,0-0.2,0-0.4,0c-3.9,0-7.8,0-11.7,0c-1.9,0-2.7,0.8-2.7,2.7c0,6.7,0,13.4,0,20.2c0,1.8,0.8,2.6,2.6,2.6
		c5.9,0,11.8,0,17.7,0c1.8,0,2.6-0.8,2.7-2.6c0.1-3.5,0.1-7.1,0.1-10.6c0-1.5-1-2.4-2.2-2.5c-1.3,0-2.3,0.9-2.3,2.4
		c-0.1,2.2-0.1,4.4-0.1,6.5c0,0.6,0,1.3,0,1.8c-1.9,0.5-12.4,0.4-13.7-0.1C143.4,259.3,143.4,254,143.4,248.5z M200.4,231
		C200.4,231,200.4,231.1,200.4,231c8.3,0,16.6,0,24.9,0c0.5,0,1.1,0,1.6,0c1.1-0.1,1.8-0.9,2-2c0.1-1.1-0.5-2.1-1.6-2.4
		c-0.6-0.2-1.2-0.2-1.7-0.2c-16.9,0-33.7,0-50.6,0c-0.6,0-1.2,0-1.7,0.2c-1,0.3-1.6,1.3-1.6,2.3c0.1,1,0.8,1.9,1.9,2.1
		c0.5,0.1,1.1,0.1,1.6,0.1C183.5,231,191.9,231,200.4,231z M200.2,222.2C200.2,222.2,200.2,222.2,200.2,222.2c8.4,0,16.7,0,25.1,0
		c0.6,0,1.2,0,1.8-0.1c1-0.2,1.7-1,1.8-2c0.1-1-0.5-2-1.5-2.3c-0.5-0.2-1.2-0.2-1.7-0.2c-16.9,0-33.8,0-50.8,0c-0.4,0-0.8,0-1.2,0
		c-1.2,0.2-2,1.1-2,2.3c0,1.2,0.8,2.1,2.1,2.2c0.5,0.1,1.1,0,1.6,0C183.6,222.2,191.9,222.2,200.2,222.2z M200.2,213.4
		C200.2,213.4,200.2,213.4,200.2,213.4c8.4,0,16.7,0,25.1,0c0.6,0,1.2,0,1.8-0.1c1-0.2,1.7-1,1.8-1.9c0.1-1-0.5-2-1.5-2.4
		c-0.5-0.2-1.2-0.2-1.7-0.2c-17,0-34,0-50.9,0c-0.4,0-0.7,0-1.1,0c-1.2,0.2-2,1.1-2,2.3c0,1.2,0.8,2.1,2.1,2.2c0.5,0.1,1.1,0,1.6,0
		C183.6,213.4,191.9,213.4,200.2,213.4z M200.2,263.4C200.2,263.4,200.2,263.4,200.2,263.4c-8.3,0-16.6,0-24.9,0
		c-0.6,0-1.2,0-1.8,0.1c-1.2,0.2-1.9,1.1-1.9,2.2c0,1.1,0.8,2,1.9,2.2c0.5,0.1,0.9,0.1,1.4,0.1c16.9,0,33.7,0,50.6,0
		c0.5,0,1.1,0,1.6-0.1c1.1-0.2,1.8-1.1,1.8-2.1c0-1.1-0.7-2.1-1.8-2.3c-0.6-0.1-1.2-0.1-1.8-0.1
		C216.9,263.4,208.5,263.4,200.2,263.4z M200,259.1C200,259.1,200,259.1,200,259.1c8.4,0,16.9,0,25.3,0c0.6,0,1.3,0,1.9-0.1
		c1-0.2,1.7-1.2,1.7-2.2c0-1-0.7-1.9-1.8-2.1c-0.5-0.1-0.9-0.1-1.4-0.1c-16.9,0-33.8,0-50.8-0.1c-0.5,0-1.1,0-1.6,0.1
		c-1.1,0.2-1.7,1.1-1.7,2.2c0,1.1,0.7,2,1.9,2.2c0.6,0.1,1.2,0.1,1.8,0.1C183.5,259.1,191.7,259.1,200,259.1z M200.4,245.7
		C200.4,245.7,200.4,245.7,200.4,245.7c-8.4-0.1-16.7-0.1-25.1-0.1c-0.6,0-1.3,0-1.9,0.1c-1,0.2-1.6,1-1.7,2c-0.1,1.1,0.5,2,1.6,2.3
		c0.5,0.1,1,0.2,1.6,0.2c17,0,34,0,50.9,0.1c0.5,0,1,0,1.4-0.1c1.1-0.3,1.8-1.2,1.8-2.3c0-1.1-0.8-2-2-2.1c-0.5-0.1-1.1,0-1.6,0
		C217,245.7,208.7,245.7,200.4,245.7z M198.4,195.4C198.4,195.5,198.4,195.5,198.4,195.4c7.7,0,15.4,0,23.2,0c0.6,0,1.2,0,1.8-0.1
		c1.1-0.2,1.8-1.1,1.8-2.1c0-1.1-0.7-2-1.9-2.2c-0.6-0.1-1.2-0.1-1.8-0.1c-15.6,0-31.1,0-46.7,0c-0.4,0-0.7,0-1.1,0
		c-1.3,0.2-2.1,1.1-2.1,2.2c0,1.1,0.8,2,2,2.1c0.5,0.1,1.1,0,1.6,0C183,195.4,190.7,195.4,198.4,195.4z M196.3,182.1
		C196.3,182.1,196.3,182.1,196.3,182.1c-7.1,0-14.1,0-21.2,0c-0.5,0-1.1,0-1.6,0.1c-1,0.2-1.7,1-1.7,2c-0.1,1,0.7,1.9,1.7,2.1
		c0.5,0.1,0.9,0.1,1.4,0.1c14.3,0,28.5,0,42.8,0c0.5,0,1,0,1.4-0.1c1.1-0.2,1.8-1,1.8-2.1c0-1-0.7-1.9-1.8-2.1
		c-0.5-0.1-1.1-0.1-1.6-0.1C210.4,182.1,203.3,182.1,196.3,182.1z M195.2,173.2C195.2,173.2,195.2,173.2,195.2,173.2
		c-6.8,0-13.6,0-20.3,0c-0.4,0-0.8,0-1.2,0c-1.1,0.2-1.7,0.9-1.8,1.9c0,1,0.5,1.8,1.6,2.1c0.5,0.1,1.1,0.1,1.6,0.1
		c13.5,0,27,0,40.5,0c0.5,0,1,0,1.4-0.1c1-0.2,1.7-1,1.7-2c0-0.9-0.7-1.8-1.7-2c-0.6-0.1-1.2-0.1-1.8-0.1
		C208.5,173.2,201.9,173.2,195.2,173.2z M150.9,253.9c-0.1,0-0.3-0.1-0.4-0.1c0-0.6,0-1.3,0-1.9c-0.1-1.6-0.8-2.5-2.1-2.5
		c-1.4-0.1-2.3,0.8-2.4,2.4c-0.1,1.4-0.1,2.7-0.1,4.1c0,1.5,0,3.1,0,4.6c0,1.1,0.5,1.8,1.5,2.2c0.9,0.4,1.7,0.1,2.4-0.6
		c0.2-0.2,0.4-0.4,0.6-0.6c4.4-4.8,8.7-9.6,13.1-14.4c1.3-1.4,1.4-2.7,0.4-3.7c-1.1-1-2.4-0.8-3.8,0.7c-2,2.2-4.1,4.4-6.1,6.7
		C152.9,251.7,151.9,252.8,150.9,253.9z M150.8,180.7c-0.1,0-0.3-0.1-0.4-0.1c0-0.8,0.1-1.6,0-2.4c-0.1-1.2-0.9-2-2-2.1
		c-1.2-0.1-2.2,0.6-2.4,1.8c-0.1,0.5-0.1,0.9-0.1,1.4c0,2.2-0.1,4.5-0.1,6.7c0,0.5,0,0.9,0,1.4c0.2,1.9,2.2,2.7,3.7,1.5
		c0.4-0.3,0.7-0.7,1-1c4.2-4.7,8.5-9.3,12.7-14c0.4-0.4,0.7-0.8,1-1.2c0.5-0.9,0.3-2.1-0.5-2.7c-0.8-0.7-1.9-0.8-2.8-0.2
		c-0.4,0.3-0.7,0.6-1,1c-1.5,1.6-3,3.3-4.5,5C153.9,177.4,152.3,179.1,150.8,180.7z M150.8,217.3c-0.1-0.1-0.3-0.1-0.4-0.2
		c0-0.8,0.1-1.6,0-2.5c-0.1-1-0.7-1.6-1.6-1.9c-0.9-0.3-1.7-0.1-2.2,0.7c-0.4,0.5-0.6,1.3-0.7,1.9c-0.1,1.8-0.1,3.5-0.1,5.3
		c0,1.1,0,2.1,0,3.2c0,1,0.5,1.7,1.4,2.1c0.9,0.4,1.7,0.2,2.5-0.5c0.3-0.2,0.5-0.5,0.7-0.8c4.3-4.7,8.7-9.5,13-14.2
		c0.3-0.3,0.6-0.6,0.8-1c0.6-1,0.4-2.2-0.4-2.9c-0.8-0.7-2-0.8-2.9-0.1c-0.4,0.3-0.7,0.7-1,1c-2.5,2.8-5.1,5.6-7.6,8.4
		C151.7,216.4,151.3,216.9,150.8,217.3z"/>
	<path class="st2" d="M126.8,21.6c3.3-1.2,6.4-2.4,9.5-3.3c3.8-1.1,7.5-1,10.8,1.4c3,2.2,4.5,5.3,4.8,8.9c0.5,5.1-1.9,8.8-6.3,11
		c-2.3,1.1-4.7,1.9-7.1,2.8c-1.2,0.5-2.4,0.8-3.9,1.3C132,36.4,129.4,29,126.8,21.6z M137.8,38.1c1.9-0.7,3.7-1.3,5.4-2.1
		c2.6-1.3,4-4.1,3.7-7c-0.4-3.1-2.5-5.8-5.1-6.6c-3.2-0.9-5.9,0.8-8.8,1.7C134.6,28.8,136.1,33.4,137.8,38.1z"/>
	<path class="st2" d="M35,161.5c-0.4,1.5-0.8,3-1.2,4.4c-1.4,0.1-20.7-5-22.7-5.9c0.7-2.5,1.3-5.1,2-7.6c0.3-1.3,0.6-2.6,1.1-3.9
		c2.6-6.6,10-5.8,12.8-2.3c0.9,1.2,1.3,2.7,2.1,4.3c1.3-0.4,2.9-0.8,4.5-1.3c1.6-0.4,3.1-0.8,4.9-1.3c-0.4,1.6-0.8,2.9-1.1,4.2
		c-0.2,0.9-0.7,1.4-1.6,1.6c-2.6,0.6-5.2,1.3-8,2c-0.3,1.2-0.6,2.3-1,3.6C29.6,160,32.2,160.8,35,161.5z M22.7,158.1
		c0.5-2,1.1-3.9,1.4-5.9c0.3-1.7-0.8-3.1-2.3-3.5c-1.6-0.4-3.2,0.4-3.8,2.1c-0.6,1.8-1,3.7-1.6,5.7c1.5,0.4,2.7,0.8,4,1.1
		C21.2,157.8,21.8,157.9,22.7,158.1z"/>
	<path class="st2" d="M33.9,115.2c5.2-0.1,12.5,4,12.5,11.8c0,6.4-4.7,12.9-12,12.9c-5.8,0-12.6-4.1-12.5-11.9
		C21.8,120.6,27.3,115,33.9,115.2z M33.4,120.1c-4.7-0.3-8,4.9-6.9,8.9c0.9,3.4,5.5,6.5,9.6,5.7c3.9-0.7,6.6-4.9,5.5-8.8
		C40.6,122.6,37.2,120.2,33.4,120.1z"/>
	<path class="st2" d="M248.3,13.1c4,1.3,7.9,2.4,11.6,3.7c2.6,0.9,4.1,2.9,4.5,5.6c0.6,4.6-2.5,8.1-5.6,8.5
		c-0.5,0.1-0.9,0.2-1.5,0.3c0.8,3.2,1.5,6.4,2.3,9.9c-1.8-0.6-3.4-0.9-4.9-1.5c-0.4-0.2-0.7-1-0.8-1.6c-0.6-2.4-1-4.8-1.6-7.2
		c0-0.2-0.1-0.3-0.2-0.6c-1.1-0.3-2.2-0.7-3.5-1.1c-0.8,2.6-1.6,5.2-2.5,7.9c-1.6-0.5-3.1-0.9-4.7-1.4
		C243.8,28.1,246,20.8,248.3,13.1z M251.8,18.7c-0.7,2.2-1.2,4.1-1.8,6.2c1.9,0.6,3.6,1.2,5.4,1.6c0.9,0.3,1.9,0.2,2.7-0.4
		c1-0.7,1.5-1.6,1.4-2.9c-0.1-1.4-0.9-2.3-2.2-2.8C255.6,19.9,253.8,19.4,251.8,18.7z"/>
	<path class="st2" d="M103.4,35.1c6.4-0.3,12.1,6.1,12.1,12.5c0,5.6-5.1,12-12.7,12.2c-6.4,0.2-12-5.8-12-12.6
		C90.6,40.1,97.6,34.9,103.4,35.1z M103.3,55.1c1.9,0.1,3.6-0.6,5-1.9c2.3-2,2.8-4.6,1.9-7.4c-1-3.2-3-5.5-6.4-6.1
		c-5.1-0.9-9.3,4-7.9,9C97.1,52.9,100.6,55.4,103.3,55.1z"/>
	<path class="st2" d="M373,130.4c7.2,0,11.9,5.9,12,12.7c0.1,7.3-6,11.9-12.4,12c-7.3,0.1-12-5.9-12.1-12.8
		C360.4,135.7,366.1,130.4,373,130.4z M372.2,150.2c1.3-0.3,2.7-0.5,3.9-1.1c2.6-1.2,4.3-3.1,4.5-6.1c0.2-2.9-0.9-5.4-3.6-6.8
		c-3-1.6-6-1.1-8.8,0.8c-2.8,1.9-3.8,4.9-2.8,8C366.3,148.2,368.8,150,372.2,150.2z"/>
	<path class="st2" d="M325.3,85.2c-1.2-1.4-2.3-2.7-3.6-4.1c0.4-0.2,0.7-0.4,1.1-0.5c7-2.5,14.1-5,21.1-7.5c1.4-0.5,1.4-0.5,2.5,0.7
		c1,1.2,2,2.3,3,3.5c-4,7.4-7.9,14.7-11.9,22.2c-1.3-1.5-2.5-2.9-3.6-4.2c0.7-1.3,1.3-2.5,2-3.8c-0.9-1-1.8-2.1-2.7-3.1
		c-1-1.2-2.1-2.4-3.1-3.6c-0.6-0.8-1.2-0.9-2.1-0.5C327.2,84.6,326.3,84.9,325.3,85.2z M343.5,78.6c-0.1-0.1-0.2-0.2-0.3-0.3
		c-3.1,1.2-6.2,2.4-9.6,3.7c1.7,1.9,3.2,3.7,4.9,5.7C340.2,84.5,341.8,81.5,343.5,78.6z"/>
	<path class="st2" d="M49.6,79.3c3.7-4.2,7.3-8.3,11-12.5c1.1,1,2.1,1.8,3.2,2.8c-2.6,2.9-5,5.8-7.6,8.8c1.3,1.1,2.4,2.2,3.8,3.4
		c2.5-2.8,5-5.6,7.5-8.5c1.1,0.9,2.1,1.8,3.3,2.8c-2.5,2.9-5,5.7-7.5,8.6c1.3,1.2,2.6,2.3,4,3.6c2.6-2.9,5.1-5.8,7.7-8.7
		c1.1,1,2.2,1.9,3.2,2.8c-3.7,4.2-7.2,8.2-11,12.5C61.4,89.7,55.6,84.6,49.6,79.3z"/>
	<path class="st2" d="M176,28.1c0.3,1.4,0.5,2.7,0.8,4.2c-5.4,1.2-10.8,2.1-16.3,3.2c-1.5-7.7-2.9-15.3-4.4-23.1
		c5.4-1,10.7-2.1,16.2-3.1c0.3,1.4,0.6,2.7,0.9,4.2c-3.8,0.8-7.5,1.5-11.5,2.3c0.3,1.7,0.6,3.2,0.9,4.9c3.8-0.7,7.4-1.4,11.2-2.1
		c0.3,1.4,0.5,2.7,0.8,4.2c-3.8,0.7-7.4,1.5-11.2,2.2c0.4,1.8,0.7,3.5,1,5.3C168.4,29.5,172,28.8,176,28.1z"/>
	<path class="st2" d="M223,8.6c5.5,0.9,10.8,1.7,16.3,2.6c-0.2,1.4-0.4,2.7-0.6,4.2c-3.8-0.6-7.5-1.1-11.2-1.7
		c-0.8,1.4-1.1,3.2-0.8,5c3.5,0.6,7.1,1.1,10.9,1.8c-0.2,1.4-0.4,2.7-0.6,4.2c-3.8-0.6-7.5-1.1-11.3-1.7c-0.3,1.8-0.5,3.5-0.8,5.3
		c3.8,0.6,7.6,1.2,11.5,1.9c-0.2,1.4-0.4,2.7-0.6,4.2c-5.4-0.9-10.8-1.7-16.3-2.6C220.4,24.1,221.7,16.4,223,8.6z"/>
	<path class="st2" d="M81.7,51.5c0.1,1.5,0.2,2.8,0.3,4.3c-2.4,0.2-4.5,0.8-6.2,2.2c-0.7,0.6-1.4,1.4-1.9,2.2
		c-0.5,0.7-0.3,1.5,0.2,2.1c0.6,0.6,1.2,0.9,2.1,0.5c1.1-0.5,2.2-1,3.4-1.5c1.8-0.7,3.5-1.7,5.4-2.1c3.6-0.8,6.8,1.4,7.7,5
		c0.5,2,0.1,3.8-0.9,5.4c-2.5,4-6.1,6.3-10.7,7.1c-0.3,0.1-0.7,0-1.1,0c-0.3,0-0.6-0.1-1-0.1c-0.2-1.4-0.3-2.8-0.5-4.2
		c1.1-0.2,2.1-0.3,3.1-0.5c2-0.4,3.6-1.3,5-2.7c0.6-0.6,1-1.3,1.3-2.1c0.6-1.7-0.5-3-2.2-2.7c-0.9,0.1-1.7,0.5-2.5,0.9
		c-1.9,0.8-3.7,1.8-5.6,2.6c-2.4,0.9-4.8,0.6-6.7-1.4c-2-2.1-2.5-4.7-1.3-7.4c2.2-4.7,6-7.1,11-7.7C81,51.4,81.3,51.5,81.7,51.5z"/>
	<path class="st2" d="M55.7,98.1c1.3-0.8,2.5-1.5,3.8-2.3c2.6,4.3,1.7,9.7-2.4,13.8c-4.1,4-10.1,4.5-14.9,1.4
		c-4.9-3.2-6.8-8.7-4.9-14.2C39,92,43,88.2,48.8,88.9c-0.1,0.7-0.2,1.5-0.3,2.2c-0.1,0.7-0.1,1.4-0.2,2.2c-0.3,0.1-0.6,0.2-0.8,0.2
		c-4.9-0.1-7.9,5.9-5.5,10.1c2.3,4.1,7.2,5.7,11,3.6c2.9-1.6,4.1-4.7,3.1-7.9C55.9,98.9,55.8,98.6,55.7,98.1z"/>
	<path class="st2" d="M321.4,71.2c0.6,1.5,1.2,2.8,1.7,4c-4.3,2.2-9.9,0.3-13-3.9c-3.7-4.9-3.6-10.6,0.3-15.2
		c3.8-4.6,9.7-5.7,15-2.9c4.6,2.5,7.6,7.5,6.1,12.4c-1.4-0.4-2.8-0.7-4.3-1.1c0.3-2.5-0.2-4.7-2.2-6.3c-1.6-1.3-3.4-1.9-5.4-1.7
		c-3.7,0.4-7.4,3.8-7.3,8.4c0.1,2.2,1.1,4.1,2.9,5.4C317,71.6,319.1,71.8,321.4,71.2z"/>
	<path class="st2" d="M355,113.6c0.2,1.4,0.3,2.8,0.4,4.1c-1.2,0.4-2.3,0.2-3.4,0c-7.3-1.6-12-12.4-6-19.4
		c3.8-4.4,10.3-5.9,15.2-3.1c4.6,2.7,7.9,8,6,13.9c-0.2,0.6-0.5,1.3-0.9,2.1c-1.4-0.9-2.6-1.7-3.8-2.4c1.3-5.3-0.5-9-4.7-10
		c-4.3-1-9,2.1-9.8,6.5C347.3,109.4,350,112.7,355,113.6z"/>
	<path class="st2" d="M294.3,47.3c-3.4-1.8-6.6-3.6-10-5.4c-1.6,2.8-3.1,5.6-4.7,8.5c-1.4-0.8-2.8-1.5-4.3-2.3
		c3.8-6.9,7.5-13.7,11.3-20.6c4.9,2.7,9.6,5.3,14.5,7.9c-0.7,1.3-1.3,2.5-2,3.8c-3.4-1.9-6.8-3.7-10.3-5.6c-0.8,1.4-1.6,2.8-2.4,4.4
		c3.4,1.9,6.6,3.7,10,5.5C295.7,44.8,295.1,46,294.3,47.3z"/>
	<path class="st2" d="M269.3,45.5c-1.6-0.7-3-1.3-4.5-1.9c3.1-7.2,6.1-14.3,9.2-21.6c1.5,0.6,2.9,1.2,4.5,1.9
		C275.5,31.1,272.4,38.2,269.3,45.5z"/>
	<path class="st2" d="M355,130c-0.7-1.5-1.4-2.9-2.1-4.4c7.1-3.4,14.1-6.7,21.2-10.1c0.7,1.5,1.4,2.8,2.2,4.4
		C369.1,123.2,362.1,126.6,355,130z"/>
	<path class="st2" d="M298.4,61.8c-1.4-1-2.7-1.9-4.1-2.8c4.4-6.5,8.8-12.9,13.2-19.4c1.4,0.9,2.6,1.8,4.1,2.8
		C307.2,48.9,302.9,55.2,298.4,61.8z"/>
	<path class="st2" d="M178.6,388.3c0.6-3.9,1.1-7.4,1.6-11.1c0.5,0.1,1,0.1,1.7,0.2c-0.7,4.8-1.4,9.6-2,14.3c-1.2,0.3-1.8-0.1-2.3-1
		c-1.8-3.5-3.7-7-5.6-10.4c-0.2-0.3-0.4-0.6-0.8-1.3c-0.6,4.1-1.1,7.7-1.7,11.4c-0.6-0.1-1.1-0.1-1.7-0.2c0.7-4.9,1.4-9.6,2.1-14.4
		c1.4-0.2,2,0.4,2.6,1.5c1.6,3.2,3.4,6.3,5.1,9.5C177.8,387.2,178.1,387.6,178.6,388.3z"/>
	<path class="st2" d="M160.2,373.5c0.8,0.2,1.4,0.3,2.2,0.5c0.8,5.1,1.6,10.2,2.4,15.5c-0.7-0.1-1.2-0.2-1.8-0.3
		c-0.2-1.1-0.4-2.1-0.6-3.5c-2.2-0.5-4.6-1.1-7.1-1.7c-0.7,0.9-1.3,1.8-2.1,2.8c-0.5-0.1-1.1-0.2-1.9-0.4
		C154.2,382,157.2,377.8,160.2,373.5z M161,376c-0.1,0-0.3-0.1-0.4-0.1c-1.5,2.2-3,4.3-4.6,6.7c2.1,0.5,4,0.9,5.9,1.4
		c0.1-0.3,0.2-0.4,0.2-0.5C161.7,380.9,161.4,378.4,161,376z"/>
	<path class="st2" d="M226.9,378.1c-0.3,0.4-0.5,0.8-0.7,1.1c-0.2,0-0.3,0-0.4,0c-1.3-1-2.9-1-4.4-0.9c-0.5,0-1,0.3-1.5,0.5
		c-0.7,0.5-1.3,1.1-1.1,2.1c0.2,0.9,0.8,1.4,1.7,1.6c0.7,0.2,1.5,0.3,2.2,0.5c0.9,0.2,1.9,0.3,2.8,0.6c1.6,0.5,2.6,1.5,2.8,3.2
		c0.2,1.9-0.6,3.4-2.3,4.2c-2.4,1.2-6.3,1.1-8.2-0.9c0.2-0.4,0.4-0.8,0.6-1.2c0.2,0,0.4,0.1,0.6,0.1c1.2,0.6,2.3,1.2,3.7,1.1
		c0.5,0,0.9,0,1.4-0.1c1.6-0.3,2.6-1.4,2.6-2.7c0-1.1-0.9-1.9-2.6-2.3c-1.3-0.3-2.7-0.4-4-0.7c-1.8-0.4-2.8-1.5-3-3.1
		c-0.1-1.7,0.6-3,2.1-3.8C221.5,376.1,224.5,376.3,226.9,378.1z"/>
	<path class="st2" d="M245.6,374.3c-0.2,0.4-0.4,0.8-0.5,1c-1.4-0.2-2.6-0.5-3.8-0.4c-0.8,0-1.7,0.4-2.4,0.8
		c-0.7,0.4-1.1,1.2-0.9,2.1c0.2,0.8,0.8,1.3,1.6,1.5c0.7,0.2,1.5,0.1,2.3,0.2c1.1,0.1,2.1,0.1,3.1,0.3c1.6,0.3,2.8,1.3,3.1,3
		c0.3,1.6-0.2,3-1.6,4c-2.4,1.7-6.1,1.9-8.6,0.2c0.2-0.4,0.3-0.8,0.5-1.2c0.2,0,0.4-0.1,0.6,0c1.5,0.8,3.1,1.2,4.8,0.6
		c0.6-0.2,1.2-0.5,1.7-0.9c1.5-1.3,1.1-3.3-0.8-3.9c-0.8-0.2-1.6-0.3-2.4-0.3c-1.1-0.1-2.2-0.1-3.3-0.3c-2.7-0.6-3.7-3.5-2.1-5.7
		C238.4,373.4,243.2,372.1,245.6,374.3z"/>
	<path class="st2" d="M211.7,377.8c0.4,0,0.9-0.1,1.6-0.1c0.3,4.9,0.6,9.6,1,14.4c-1.6,0.3-1.7,0.2-1.8-0.9
		c-0.3-4.4-0.6-8.8-0.9-13.1C211.5,378.1,211.6,378,211.7,377.8z"/>
	<path class="st2" d="M234.5,389.7c-0.7,0.1-1.1,0.2-1.7,0.3c-0.9-4.8-1.7-9.4-2.6-14.2c0.5-0.1,1-0.2,1.7-0.4
		C232.8,380.2,233.6,384.9,234.5,389.7z"/>
	<path class="st2" d="M385.4,136.3c1.8,0.8,3.2,1.5,4.7,2.1c1.1,0.4,1.7,1.1,1.9,2.2c0.1,0.6,0.4,1.2,0.6,2.1
		c-2.2-1.2-4.1-2.3-5.9-3.4C385.7,138.8,385.7,137.6,385.4,136.3z"/>
	<path class="st2" d="M190.1,376.5c1.2-1,1.9-2.8,4-2.6C192.9,374.9,191.9,376.3,190.1,376.5z"/>
	<path class="st2" d="M226,171.4c0.2-15.8,12.9-28.2,28.7-28c15.6,0.2,28,12.9,27.8,28.6c-0.2,15.6-13,28-28.6,27.9
		C238.4,199.7,225.8,186.9,226,171.4z M241.9,181.7c0-0.8-0.1-1.3-0.1-1.7c0-3.1,0.1-6.3,0.2-9.4c0-0.5,0-1.1,0-1.6
		c-0.2-1.3-1.1-2.1-2.2-2.1c-1.2,0-2.1,0.8-2.2,2.1c-0.1,0.3,0,0.7-0.1,1.1c-0.1,5.7-0.2,11.3-0.3,17c0,0.5,0,1,0.1,1.4
		c0.3,1.6,2.1,2.3,3.5,1.4c0.4-0.3,0.7-0.6,1-1c9.6-10.5,19.2-21,28.7-31.5c0.3-0.3,0.6-0.6,0.8-1c0.6-1,0.4-2.2-0.4-2.9
		c-0.8-0.7-2-0.8-2.9,0c-0.4,0.3-0.8,0.7-1.1,1.1c-7.8,8.5-15.6,17.1-23.4,25.6C242.9,180.7,242.5,181,241.9,181.7z"/>
	<path class="st2" d="M256.2,260.3c-1.3,0.6-2.5,0.6-3.7,0c0-15.2,0-30.4,0-45.7c1.2-0.7,2.4-0.6,3.7,0
		C256.2,229.7,256.2,244.9,256.2,260.3z"/>
</g>
</svg>
