<?xml version="1.0" encoding="utf-8"?>
<!-- Generator: Adobe Illustrator 24.1.3, SVG Export Plug-In . SVG Version: 6.00 Build 0)  -->
<svg version="1.1" id="Layer_1" xmlns="http://www.w3.org/2000/svg" xmlns:xlink="http://www.w3.org/1999/xlink" x="0px" y="0px"
	 viewBox="0 0 400 400" style="enable-background:new 0 0 400 400;" xml:space="preserve">
<style type="text/css">
	.st0{display:none;}
	.st1{display:inline;fill:#222222;}
	.st2{fill:#E5E5E5;}
	.st3{fill:#222222;}
</style>
<g class="st0">
	<path class="st1" d="M354,205.7c-0.1,1.6-0.2,3.1-0.3,4.7c-0.8,13.6-3.2,26.9-7.6,39.7c-14.4,42-41.6,72.7-81.7,91.9
		c-12.9,6.2-26.6,10.1-40.7,12.2c-10,1.5-20,2-30,1.4c-31.8-1.8-60.3-12.4-85.3-32c-27.7-21.8-45.8-49.9-54.7-84
		c-2.5-9.6-3.9-19.3-4.5-29.2c-0.6-9.2-0.3-18.4,0.8-27.6c3.4-28.5,13.7-54.3,31.3-77.1c20-25.8,45.6-43.6,76.9-53.2
		c10.3-3.1,20.9-5.1,31.6-5.9c46.3-3.5,91.2,14.1,122.7,48.2c18.8,20.4,31.3,44.1,37.6,71.1c2.2,9.6,3.5,19.3,3.8,29.1
		c0,0.4,0.1,0.8,0.1,1.2C354,199.4,354,202.6,354,205.7z M350.6,199.7c-0.2-3.4-0.4-8.2-0.8-12.9c-0.7-9.1-2.4-18-4.8-26.8
		c-12.1-43.7-42.8-78.9-81.9-96.9c-17.5-8-35.9-12.5-55.1-13.3c-13.4-0.6-26.7,0.5-39.8,3.6c-31.2,7.4-57.4,23.2-78.4,47.4
		c-23.9,27.5-36.1,59.7-37.3,96.1c-0.5,14.9,1.2,29.7,5.2,44.1c8.4,30.8,24.8,56.6,49.3,77c25.6,21.3,55.1,32.7,88.4,34.2
		c13.9,0.6,27.5-0.7,41-4c31.1-7.7,57.1-23.8,77.9-48.2C338.3,271.5,350.1,238.3,350.6,199.7z"/>
	<path class="st1" d="M46,100.5c0.7-1,1.5-2,2.2-2.9c1.8-2.5,3.5-5.2,5.6-7.5c2.1-2.5,5.7-2.8,8.2-0.5c1.6,1.5,2,3.2,1.6,5.2
		c0.9-0.3,1.8-0.5,2.7-0.8c1.5-0.5,2.9,0.2,4,1c1.3,0.9,2.2,2.1,2.5,3.8c0.3,1.7-0.2,3.2-1.1,4.5c-2.3,3.4-4.7,6.7-7.1,10
		c-0.3,0.4-0.5,0.3-0.8,0.1c-3-2.2-6-4.4-9.1-6.5c-2.8-2-5.6-4.1-8.5-6.1c-0.1-0.1-0.2,0-0.3-0.1C46,100.7,46,100.6,46,100.5z
		 M63.8,107.5c0.5-0.6,0.9-1.2,1.3-1.7c0.9-1.4,1.9-2.7,2.8-4.1c0.6-1.1,0.3-2.5-0.7-3.1c-1.1-0.7-2.3-1.1-3.4,0.2
		c-1.5,1.8-2.8,3.7-4.3,5.6C61,105.4,62.4,106.5,63.8,107.5z M56.2,101.9c0.1-0.1,0.3-0.2,0.4-0.4c1-1.4,2.1-2.8,3.1-4.3
		c0.4-0.6,0.7-1.3,0.7-2c-0.1-1-0.7-1.8-1.7-2.2c-0.9-0.3-2,0-2.7,0.9c-1.2,1.5-2.3,3.1-3.4,4.7c-0.2,0.3-0.2,0.6,0.1,0.8
		C53.8,100.3,55,101.1,56.2,101.9z"/>
	<path class="st1" d="M195.3,15.9c1,0.2,2,0.4,2.9,0.7c4.2,1.4,6.7,4.4,7.5,8.8c0.6,3.1,0.1,6.1-1.6,8.8c-1.8,2.8-4.4,4.3-7.6,4.8
		c-3.4,0.6-6.6,0.1-9.4-2c-2.5-1.8-3.9-4.3-4.4-7.3c-0.4-2.4-0.2-4.8,0.8-7.1c1.2-2.7,3.1-4.6,5.8-5.7c1.2-0.5,2.5-0.6,3.8-0.9
		c0.1,0,0.2-0.1,0.2-0.2C193.9,15.9,194.6,15.9,195.3,15.9z M201.1,27.5c0-0.3-0.1-0.8-0.2-1.3c-0.5-4.2-4.5-6.9-8.9-5.6
		c-2.7,0.8-4.1,2.9-4.5,5.7c-0.4,3.1,0.3,5.6,2.8,7.6c1.9,1.5,5.4,1.6,7.4,0.3C200,32.7,201,30.4,201.1,27.5z"/>
	<path class="st1" d="M199.8,384.1c-1.1-0.5-2.1-0.9-3.2-1.4c-0.1,0-0.2-0.1-0.3-0.2c-0.8-0.7-0.8-0.7-0.1-1.5
		c0.1-0.1,0.2-0.3,0.3-0.4c0.7,0.5,1.4,1.1,2.2,1.4c1.4,0.6,2.9,0.9,4.4,0.1c0.8-0.4,1.3-1,1.3-2c0-0.9-0.6-1.5-1.3-1.8
		c-1.4-0.6-2.8-1-4.2-1.5c-1.3-0.5-2.4-1.2-2.6-2.7c-0.3-2,0.6-3.4,2.5-4.1c2.4-0.9,5.7-0.3,7.3,1.7c-0.4,0.4-0.7,0.7-1.1,1.2
		c-0.9-1.1-2.1-1.5-3.5-1.7c-1-0.2-1.9,0-2.7,0.6c-1,0.8-1.3,2.2,0.2,3.1c0.8,0.5,1.8,0.7,2.7,1c0.7,0.2,1.4,0.4,2,0.7
		c2,0.8,2.7,2.5,2.5,3.8c-0.3,1.9-1,2.9-3.3,3.6c-0.1,0-0.3,0.1-0.4,0.2C201.6,384.1,200.7,384.1,199.8,384.1z"/>
	<path class="st1" d="M339.4,100.3c3.8-3,7.4-5.8,11.1-8.7c1,1.3,2,2.5,2.9,3.8c-5.9,4.6-11.7,9.2-17.7,13.8
		c-0.4-0.4-0.8-0.9-1.1-1.3c-0.3-0.4-0.7-0.9-1-1.3c-0.5-0.6-0.8-1.1-0.5-2c1.6-5.4,3.1-10.8,4.6-16.2c0,0,0-0.1-0.1-0.2
		c-3.8,3-7.6,6-11.4,8.9c-1-1.3-2-2.5-2.9-3.7c5.9-4.6,11.8-9.2,17.7-13.9c0.9,1.2,1.8,2.3,2.7,3.5c0.2,0.2,0.3,0.6,0.2,0.8
		c-1.4,5.3-2.9,10.5-4.4,15.7C339.5,99.7,339.5,99.9,339.4,100.3z"/>
	<path class="st1" d="M178.7,40.1c-1.4,0.3-2.7,0.4-4,0.9c-1.6,0.6-2.1-0.6-2.8-1.4c-1.2-1.4-2.5-2.7-3.5-4.2
		c-0.8-1.3-1.8-1.1-2.9-0.8c-0.5,0.1-1,0.2-1.6,0.4c0.5,2.6,1.1,5.2,1.6,7.8c-1.4,0.3-2.8,0.6-4.2,0.9c-0.2,0-0.5-0.3-0.6-0.5
		c-0.9-4.6-1.8-9.1-2.7-13.7c-0.5-2.4-1-4.8-1.5-7.2c0-0.2,0-0.3,0-0.6c2.7-0.5,5.3-1.1,8-1.6c1.2-0.2,2.3-0.6,3.5-0.6
		c2.3-0.1,4.4,0.5,6,2.4c1.7,2,2.5,5.8,1,8.2c-0.6,0.9-1.4,1.7-2.3,2.4c-0.5,0.4-0.5,0.6-0.1,1c1.3,1.4,2.6,2.8,3.9,4.3
		C177.1,38.4,177.8,39.2,178.7,40.1z M161.9,24.8c0.4,2,0.8,4,1.2,6c0.5-0.1,1.1-0.2,1.6-0.3c1.5-0.4,3.1-0.7,4.5-1.2
		c1.5-0.5,2-2.1,1.4-3.7c-0.4-1.2-2.2-2.1-3.5-1.8C165.4,24.1,163.7,24.4,161.9,24.8z"/>
	<path class="st1" d="M319,85c-6.4,0.1-12.3-5.8-12.1-12.1c0.2-6.2,5.4-11.7,11.8-11.6c6.4,0.1,11.9,5.5,12,11.9
		C330.7,79.5,325.2,84.9,319,85z M311.6,73.8c-0.3,3.5,3.3,6.8,6.8,6.7c3.3-0.1,6.6-3,7.4-6.5c1-4.2-2.8-8.8-7.8-8
		C314.8,66.5,311.4,70.1,311.6,73.8z"/>
	<path class="st1" d="M240.4,29.6c3.5,0.9,7,1.7,10.6,2.6c-0.3,1.2-0.6,2.4-0.9,3.6c-0.1,0.5-0.5,0.4-0.8,0.3
		c-3.3-0.8-6.6-1.6-9.9-2.4c-0.4,1.7-0.8,3.3-1.2,5c3.4,0.8,6.7,1.6,10.1,2.4c0.5,0.1,0.7,0.2,0.5,0.8c-0.3,1.1-0.5,2.2-0.8,3.4
		c-1.4-0.3-2.7-0.6-4.1-1c-3.6-0.9-7.2-1.8-10.8-2.6c-0.4-0.1-0.5-0.2-0.4-0.7c0.9-3.6,1.8-7.3,2.7-10.9c0.8-3.5,1.7-7,2.5-10.4
		c5,1.2,9.9,2.4,14.9,3.6c0.5,0.1,0.6,0.3,0.5,0.8c-0.3,1-0.5,1.9-0.7,2.9c-0.1,0.5-0.2,0.6-0.7,0.4c-3.2-0.8-6.4-1.5-9.6-2.3
		c-0.6-0.2-0.8,0-0.9,0.6C241.1,27,240.7,28.3,240.4,29.6z"/>
	<path class="st1" d="M79,88.2c2.7-2.8,5.3-5.5,8-8.4c0.9,1.1,1.7,2.1,2.7,3.2c-3.4,3.6-7,7.4-10.7,11.3c-0.1-0.1-0.2-0.1-0.3-0.2
		c-1.7-1.6-3.4-3.3-5.1-4.9c-2.6-2.5-5.1-4.9-7.7-7.4c-1.1-1-2.1-2-3.3-3c3.7-3.9,7.3-7.7,11-11.5c1,0.9,2.1,1.9,3.1,2.8
		c-2.6,2.7-5.1,5.4-7.4,7.7c1,1.3,2,2.5,3,3.7c2.7-2.8,5.1-5.4,7.6-7.9c1,0.9,2,1.9,3.1,2.8c-2.5,2.7-5,5.3-7.5,7.9
		C76.7,85.7,77.8,86.9,79,88.2z"/>
	<path class="st1" d="M90.8,73.3c2.1,0.2,4.1-0.2,5.9-1.3c1-0.6,1.9-1.5,2.7-2.4c0.6-0.6,0.8-1.5,0.5-2.4c-0.4-0.9-1.2-1.4-2.2-1.1
		c-1.2,0.4-2.3,0.9-3.5,1.3c-1.7,0.6-3.4,1.4-5.2,1.9c-3.4,0.8-6.2-1.7-6.9-4.6c-0.6-2.7,0.4-4.9,2.2-6.9c1.8-1.9,3.9-3.2,6.4-3.9
		c1.2-0.3,2.4-0.4,3.8-0.6c0,1.6,0,3.1,0,4.5c-2.9,0.1-5.5,0.9-7.5,3.3c-1.1,1.3-0.6,3.1,0.8,3.3c0.6,0.1,1.3-0.2,1.9-0.4
		c1.8-0.7,3.5-1.5,5.3-2.2c2-0.8,4-1.1,6-0.1c2.4,1.3,4.2,4.7,3.3,7.7c-0.8,2.3-2.3,4-4.2,5.5c-1.6,1.3-3.5,2.3-5.5,2.7
		c-1.1,0.2-2.2,0.2-3.3,0.3c-0.2,0-0.5-0.2-0.5-0.4C90.8,76,90.8,74.6,90.8,73.3z"/>
	<path class="st1" d="M131.8,29.6c2.9-1,5.7-2,8.5-3c1.6-0.6,3.1-1.2,4.8-1c2,0.2,3.7,1,5,2.6c1.1,1.5,1.7,3.1,1.6,4.9
		c-0.1,2.7-1.3,4.7-3.7,5.9c-2.2,1.1-4.5,1.8-6.9,2.7c0.9,2.4,1.7,4.9,2.6,7.5c-1.5,0.5-3,1.1-4.5,1.6
		C136.8,43.8,134.3,36.7,131.8,29.6z M139.8,37.8c1.9-0.7,3.8-1.4,5.6-2.2c1.3-0.6,1.9-2.3,1.3-3.7c-0.5-1.2-1.6-2.2-3.2-1.8
		c-1.8,0.5-3.6,1.1-5.4,1.7c-0.1,0-0.3,0.3-0.2,0.4C138.4,34.1,139.1,35.9,139.8,37.8z"/>
	<path class="st1" d="M278.7,38.4c-1.5,0.1-3,0.2-4.4,0.4c-0.6-2.7-2-4.6-4.7-5.3c-2.2-0.6-4.1-0.2-5.9,1.2c-2.6,2-3.8,5.6-2.7,8.7
		c1.2,3.5,5.2,5.6,8.8,4c0.5-0.2,0.9-0.6,1.4-0.9c1,1.1,2,2.2,3,3.3c-3.8,3.1-8.6,3.5-13.5,0.1c-4.4-3.1-6-8-4.2-13.3
		c0.9-2.5,2.4-4.6,4.7-6c1.9-1.2,4-1.9,6.2-1.7C274.5,29.4,277.9,33.2,278.7,38.4z"/>
	<path class="st1" d="M218.6,21.2c-2.2-0.2-4.3-0.5-6.5-0.7c0.1-1.3,0.3-2.7,0.4-4.2c5.9,0.6,11.8,1.3,17.8,1.9
		c-0.1,0.8-0.1,1.6-0.2,2.4c0,0.3-0.1,0.7-0.1,1c0.1,0.8-0.3,0.9-0.9,0.8c-1.7-0.2-3.5-0.5-5.2-0.6c-0.2,0-0.6,0.4-0.6,0.6
		c-0.2,1.2-0.2,2.4-0.4,3.6c-0.2,1.9-0.4,3.8-0.6,5.7c-0.1,1.3-0.2,2.5-0.4,3.8c-0.2,1.5-0.3,3-0.5,4.4c-1.6-0.2-3.1-0.3-4.8-0.5
		C217.3,33.3,218,27.3,218.6,21.2z"/>
	<path class="st1" d="M114,38c0.7,1.2,1.4,2.4,2.1,3.6c-1.7,1-3.3,2-4.9,3c-0.5,0.3-0.6,0.4-0.3,1c3,5,6,10,9.1,15.1
		c-1.3,0.8-2.7,1.6-4.1,2.5c-1.2-2-2.3-3.9-3.5-5.8c-1.9-3.1-3.7-6.2-5.6-9.3c-0.2-0.4-0.5-0.5-0.9-0.3c-1.7,1-3.4,2.1-5,3.1
		c-0.7-1.2-1.5-2.4-2.2-3.6C103.7,44.2,108.8,41.1,114,38z"/>
	<path class="st1" d="M284.9,61.7c-1.4-0.8-2.8-1.6-4.1-2.4c3.1-5.3,6.1-10.5,9.2-15.8c-1.9-1.1-3.8-2.2-5.7-3.3
		c0.7-1.2,1.4-2.4,2.1-3.6c5.2,3,10.3,6,15.5,9c-0.7,1.2-1.4,2.4-2.1,3.6c-1.9-1.1-3.7-2.1-5.7-3.3C291,51.2,288,56.5,284.9,61.7z"
		/>
	<path class="st1" d="M307.5,49.7c1.3,0.9,2.6,1.9,3.9,2.8c-2.9,4.1-5.8,8.1-8.7,12.2c-1.3,1.8-2.6,3.7-4,5.5
		c-0.3,0.4-0.6,0.5-1.1,0.1c-0.9-0.7-1.8-1.4-2.7-2c-0.4-0.3-0.4-0.5-0.1-0.9c1.3-1.8,2.6-3.6,3.9-5.4c2-2.7,3.9-5.5,5.9-8.2
		C305.5,52.4,306.5,51.1,307.5,49.7z"/>
	<path class="st1" d="M214.4,369.4c2.3-0.2,4.5-0.5,6.8-0.6c1.8-0.1,3.1,0.8,3.5,2.5c0.4,1.3,0.1,3.2-1.7,3.9c0,0,0,0.1-0.1,0.2
		c1.4,0.3,2.4,1.2,2.8,2.6c0.5,2.4-0.4,4-2.7,4.5c-2.2,0.5-4.5,0.6-6.7,0.9c-0.2,0-0.5-0.4-0.6-0.6c-0.3-2.3-0.5-4.6-0.7-7
		c-0.2-1.8-0.4-3.6-0.7-5.4C214.4,370.1,214.4,369.8,214.4,369.4z M217.4,381.6c1.5-0.1,2.8-0.3,4.2-0.4c1.4-0.2,2.5-0.9,2.4-2.7
		c-0.1-1.3-1.2-2.3-2.5-2.2c-1.5,0.1-3.1,0.3-4.7,0.5C217,378.5,217.2,380,217.4,381.6z M216.2,370.8c0.2,1.6,0.4,3,0.5,4.5
		c1.5-0.2,2.9-0.3,4.3-0.5c1.2-0.1,2.2-1.2,2.1-2.3c-0.1-1.4-1.3-2.4-2.6-2.3C219.1,370.4,217.7,370.6,216.2,370.8z"/>
	<path class="st1" d="M180.4,374.1c0,2.9-1,5.1-3.2,6.6c-4,2.8-10.3,0.2-10.7-5c-0.2-2.6,0.4-4.8,2.2-6.6c1.9-1.9,4.2-2.1,6.6-1.5
		C178.4,368.3,180.6,371,180.4,374.1z M173.5,368.8c-1.3-0.1-2.5,0.4-3.3,1.2c-1.7,1.8-2.4,4-1.7,6.4c0.9,3.5,5,4.9,7.7,2.9
		c2.1-1.5,2.6-3.7,2.4-6.1C178.3,370.5,176,368.8,173.5,368.8z"/>
	<path class="st1" d="M250.7,377.1c-3,0.8-6,1.5-8.9,2.3c-1.1-4.3-2.2-8.7-3.3-13c-0.1-0.5,0-0.6,0.4-0.7c2.8-0.7,5.5-1.4,8.3-2.1
		c0.1,0.5,0.2,1,0.3,1.5c-2.4,0.6-4.8,1.2-7.2,1.9c0.4,1.3,0.7,2.6,1,3.9c0.1,0.4,0.3,0.5,0.7,0.4c2.2-0.6,4.3-1.1,6.5-1.7
		c0.1,0.5,0.3,1,0.4,1.5c-2.4,0.6-4.7,1.2-7.1,1.8c0.4,1.6,0.8,3.1,1.2,4.7c2.4-0.6,4.7-1.2,7.2-1.8
		C250.4,376.1,250.5,376.5,250.7,377.1z"/>
	<path class="st1" d="M182.3,381c0.3-0.4,0.7-0.8,1-1.3c1.4,1.9,4.1,2.8,6.1,2.2c0.8-0.3,1.5-0.8,1.7-1.7c0.2-1-0.1-1.8-1.1-2.2
		c-1.2-0.5-2.4-1-3.6-1.6c-0.7-0.4-1.5-0.8-2.1-1.3c-1.7-1.4-1.1-4.2,0.8-5.3c2.3-1.4,6.4-0.6,8.1,1.6c-0.4,0.4-0.7,0.7-1.1,1.1
		c-1.3-1.6-3.1-2.1-5.1-1.8c-1,0.1-1.8,0.9-1.9,1.8c-0.1,0.8,0.6,1.6,1.6,2.1c1.5,0.6,3,1.2,4.5,2c1.4,0.7,1.8,2,1.7,3.5
		c-0.2,1.3-0.9,2.4-2.1,3C188.2,384.3,184,383.4,182.3,381z"/>
	<path class="st1" d="M156.5,363.6c2.1,0.6,4,1,5.8,1.6c1.9,0.6,3.2,2.3,3,4c-0.4,2.7-1.5,4-4,4.2c-1.1,0.1-2.3-0.4-3.5-0.7
		c-1.8-0.4-1.8-0.5-2.3,1.2c-0.4,1.2-0.6,2.5-1,3.7c-0.5-0.1-1.1-0.2-1.7-0.4C154.1,372.7,155.3,368.2,156.5,363.6z M156.4,370.7
		c1.3,0.3,2.5,0.5,3.6,0.9c1.4,0.4,2.8-0.3,3.3-1.7c0.5-1.5-0.2-3-1.8-3.4c-1.2-0.4-2.4-0.6-3.8-1
		C157.3,367.2,156.9,368.9,156.4,370.7z"/>
	<path class="st1" d="M231.6,379.7c1.5-0.3,2.9-0.5,4.4-0.8c0.3-0.1,0.7-0.1,1-0.2c1.1-0.3,1.4,0,1.3,1c0,0.1-0.2,0.3-0.4,0.4
		c-2.5,0.5-5,0.9-7.5,1.4c-0.1,0-0.2,0-0.3,0c-0.8-4.5-1.7-9.1-2.5-13.7c0.6-0.1,1.1-0.2,1.7-0.3
		C230.1,371.5,230.8,375.6,231.6,379.7z"/>
	<path class="st1" d="M209.1,369.6c0.6,0,1.1,0,1.7,0c0.1,1,0.2,2,0.2,3c0.1,1.8,0.1,3.5,0.2,5.3c0.1,1.7,0.2,3.3,0.3,5
		c0,0.2,0,0.4,0,0.6c-0.6,0-1,0-1.7,0C209.5,378.9,209.3,374.3,209.1,369.6z"/>
	<path class="st1" d="M133.1,123.9c5.5,4.4,11.4,7.5,17.8,9.8c7.3,2.6,14.8,3.6,22.6,2.7c10.2-1.3,19.1-5.4,27.2-11.7
		c0.2-0.1,0.4-0.3,0.5-0.4c0.3-0.4,0.5-0.3,0.9,0c4.6,3.9,9.8,6.8,15.3,9c3.5,1.4,7.1,2.4,10.8,3s7.5,0.7,11.2,0.3
		c10.3-1,19.5-4.7,28-10.6c0.9-0.6,1.7-1.3,2.7-2c0,0.4,0.1,0.6,0.1,0.9c0,31.9,0,63.8-0.1,95.7c0,4.7-0.6,9.3-1.5,13.9
		c-2.2,11.3-7.6,20.9-15,29.6c-9.9,11.6-21.9,20.5-35.8,26.9c-5,2.3-10.2,4.3-15.6,5.7c-0.4,0.1-1,0.1-1.4,0c-5-1.3-9.8-3-14.4-5.1
		c-14.3-6.4-26.7-15.5-36.9-27.5c-5.4-6.3-9.8-13.2-12.6-21.1c-1.4-3.9-2.3-7.9-2.9-11.9c-1-6.8-1-13.7-1-20.6c0-28.5,0-57,0-85.4
		C133,124.7,133.1,124.4,133.1,123.9z"/>
</g>
<circle class="st2" cx="200" cy="201.2" r="158.5"/>
<g>
	<path class="st3" d="M196.2,7.2c1.1,0.4,2.2,0.6,3.2,1.1c1.8,0.8,3.3,2.1,4.3,3.8c-1.3,0.8-2.7,1.6-4,2.4c-1-1.3-2.3-2.3-4-2.7
		c-2.9-0.6-5.9,0.6-7.6,3c-2,3-1.6,7.9,1.1,10.4c2,1.9,5.6,2.5,8,1.3c2.4-1.2,2.6-1,2.1-4.2c-2,0-4,0-6.1,0
		c-0.1-1.3-0.1-2.6-0.2-4.2c3.7-0.1,7.4-0.3,11.2-0.4c0,0.1,0.1,0.1,0.1,0.2c0.1,2.3,0.1,4.7,0.2,7c0,0.4,0.2,0.7,0.1,1.1
		c0,0.3-0.1,0.8-0.3,1c-2.4,2.6-5.3,4.1-8.8,4.4c-3,0.3-5.7-0.3-8.2-1.8c-3.3-2.1-5.1-5.2-5.4-9.2c-0.3-3.9,0.8-7.2,3.6-9.9
		c1.8-1.7,4-2.8,6.5-3.1c0.1,0,0.2-0.1,0.3-0.2C193.6,7.2,194.9,7.2,196.2,7.2z"/>
	<path class="st3" d="M201.9,392.8c-1.1-1.8-2.2-3.6-3.3-5.4c-0.2-0.3-0.6-0.6-1-0.6c-0.7-0.1-1.4,0-2.2,0c-0.1,1.9-0.2,3.8-0.3,5.8
		c-0.5,0-1,0-1.5,0c0-4.8,0-9.6,0-14.6c2.7,0.1,5.3-0.3,7.9,0.4c1.3,0.4,2.5,2.1,2.6,3.5c0.1,2.8-0.7,3.9-3.4,4.8
		c-0.1,0-0.2,0.1-0.3,0.3c1.3,2,2.5,3.9,3.8,5.9C203.3,392.8,202.6,392.8,201.9,392.8z M195.3,385.1c0.1,0,0.2,0.1,0.2,0.1
		c1.3,0,2.6,0,3.9,0c1.5,0,2.5-0.9,2.7-2.7c0.2-1.1-0.8-2.6-2-2.8c-1.6-0.2-3.2-0.2-4.8-0.3C195.3,381.4,195.3,383.3,195.3,385.1z"
		/>
	<path class="st3" d="M359.9,208.1c-0.8,35.8-14.5,72.3-42.4,103.2c-21.7,24-48.4,39.9-79.9,47.7c-9.1,2.3-18.4,3.6-27.8,4.2
		c-8.9,0.6-17.8,0.4-26.7-0.6c-28.6-3.2-54.6-13.3-77.7-30.6c-31.2-23.5-51.4-54.5-60.8-92.5c-3.6-14.6-5-29.4-4.4-44.5
		c1.4-34.1,12.1-65,32.7-92.3C96.2,72,126.6,52.1,164.1,43c8.7-2.1,17.5-3.3,26.4-3.8c9.4-0.6,18.8-0.3,28.2,0.8
		c21.2,2.5,41.1,8.9,59.5,19.6c39.5,23.1,65,56.9,76.7,101.1C358.5,174.3,360,188.3,359.9,208.1z M43.8,195.8
		c0,17.6,1.3,29.6,4.1,41.5c8.2,34.7,25.7,63.6,53.1,86.4c26.8,22.4,57.8,34.3,92.8,35.9c13.1,0.6,26-0.5,38.7-3.3
		c34.3-7.6,62.9-24.8,85.7-51.5c23.8-27.9,36.2-60.4,37.9-97c0.7-16.4-1-32.6-5.4-48.5c-8.8-32.2-25.9-59.2-51.5-80.6
		c-26.8-22.4-57.9-34.4-92.8-35.9c-13.9-0.6-27.6,0.6-41.2,3.8c-33.3,7.9-61.2,24.9-83.3,51C56.5,127.4,44.2,162.1,43.8,195.8z"/>
	<path class="st3" d="M266.6,44.3c3.5-7.1,7-14.1,10.5-21.1c3,1.5,6,2.9,9,4.5c3,1.6,5.2,3.9,6.2,7.2c0.8,2.6,0.5,5.2-0.5,7.7
		c-1.3,3.2-3.5,5.6-6.9,6.8c-2.4,0.8-4.9,1-7.2,0c-3.2-1.3-6.3-2.9-9.5-4.3C267.7,44.9,267.2,44.6,266.6,44.3z M273.1,42.7
		c1.5,0.8,3,1.6,4.5,2.2c0.8,0.3,1.6,0.5,2.4,0.5c3.2,0.2,5.8-1.7,7-4.7c1.5-3.4,0.6-6.8-2.5-8.7c-1.4-0.9-3-1.6-4.4-2.4
		c-0.6-0.3-0.6,0.1-0.8,0.4c-2,3.9-4,7.9-5.9,11.8C273.3,42.1,273.2,42.4,273.1,42.7z"/>
	<path class="st3" d="M116.9,26.1c3.6-1.5,7.1-3,10.6-4.4c2.9-1.1,5.7-0.8,8,1.4c1.2,1.2,1.9,2.7,2.3,4.4c0.5,2.7-0.5,4.9-2.6,6.7
		c2.8,2.1,5.6,4.1,8.4,6.2c-1.5,0.6-2.9,1.1-4.2,1.8c-0.7,0.3-1.1,0.5-1.8-0.1c-2.2-1.8-4.5-3.6-6.8-5.4c-1.1,0.5-2.2,1-3.4,1.5
		c1.1,2.6,2.1,5.1,3.2,7.7c-1.5,0.6-3,1.3-4.6,1.9C123,40.6,119.9,33.4,116.9,26.1z M123.2,28.2c0.8,2,1.7,4,2.5,5.9
		c0.4-0.2,0.7-0.3,0.9-0.4c1.7-0.8,3.3-1.4,4.9-2.3c1.1-0.6,1.5-2,1.2-3.1c-0.6-2-2.2-3.1-4.4-2.3C126.7,26.8,125,27.5,123.2,28.2z"
		/>
	<path class="st3" d="M253.9,39.6c-6.7,0-13.3-5.1-12.7-12.8c0.5-6.4,5.1-11.8,11.9-11.7c7.3,0.1,12.8,5,12.8,11.9
		C265.8,33.9,261.1,39.5,253.9,39.6z M246.3,27.9c0,0.5-0.1,1,0,1.4c0.9,4.9,6.1,6.9,10.1,5.1c2.5-1.1,4.8-5,4.3-8.8
		c-0.6-4.9-6.3-7.3-10-5.4C247.6,21.8,246.3,24.5,246.3,27.9z"/>
	<path class="st3" d="M211.1,21c-0.3-6.8,5-13,13-12.4c6,0.4,12,4.9,11.6,12.6c-0.3,6.8-5,11.7-12,11.8C216.7,33,211,28.2,211.1,21z
		 M223.3,28.4c1.8,0.1,3.4-0.5,4.8-1.8c1.4-1.4,2.2-3.2,2.4-5.1c0.3-2.3-0.2-4.5-1.9-6.3c-1.7-1.8-3.8-2.4-6.2-2.2
		c-1.7,0.1-3.2,0.9-4.2,2.2c-1.5,1.8-2.1,3.8-2.1,6.1C216.2,25.1,219.1,28.7,223.3,28.4z"/>
	<path class="st3" d="M108.7,30.1c0.8,1.3,1.5,2.5,2.2,3.8c-3.3,2-6.7,4-10,6c0.7,1.2,1.5,2.5,2.2,3.8c0.3,0.5,0.6,0.4,1,0.2
		c2.9-1.7,5.8-3.5,8.6-5.2c0.2-0.1,0.4-0.2,0.6-0.3c0.7,1.3,1.5,2.5,2.2,3.8c-3.3,1.9-6.5,3.9-9.8,5.9c0.9,1.6,1.8,3,2.8,4.6
		c3.4-2,6.7-3.9,10-5.9c0.8,1.3,1.5,2.5,2.3,3.8c-4.8,2.8-9.5,5.7-14.3,8.5c-4-6.8-8-13.5-12-20.3C99.2,35.8,103.9,32.9,108.7,30.1z
		"/>
	<path class="st3" d="M69.1,57.9c1.5-1.2,2.9-2.4,4.4-3.6c5.4,3.3,10.8,6.6,16.5,10c-0.3-0.9-0.4-1.5-0.6-2.2c-1.4-4-2.8-8-4.2-12
		c-0.4-1.1-0.8-2.3-1.2-3.4c-0.1-0.3,0-0.8,0.2-1c1.3-1.1,2.6-2.1,4-3.2c1.5,4.7,3,9.4,4.6,14.1c1,3.1,2,6.2,3,9.3
		c0.2,0.5,0,0.8-0.3,1.1c-1.3,1.1-2.6,2.2-3.9,3.2c-0.2,0.2-0.7,0.2-0.9,0.1c-4.7-2.7-9.5-5.5-14.2-8.2c-2.2-1.2-4.3-2.5-6.5-3.7
		C69.6,58.2,69.3,58.1,69.1,57.9z"/>
	<path class="st3" d="M140.4,16.6c1.9-0.5,3.6-1,5.3-1.4c0.2,0,0.5,0.2,0.7,0.4c2.3,2.2,4.6,4.5,7,6.8c0.1,0.1,0.3,0.3,0.6,0.5
		c0.3-1,0.7-2,1-2.9c0.7-2.4,1.4-4.7,2.1-7.1c0.1-0.5,0.3-0.6,0.8-0.7c1.5-0.3,2.9-0.8,4.3-1.2c0.1,0,0.3,0,0.5,0
		c-1.1,3.2-2.1,6.2-3.1,9.3c-0.6,1.8-1.3,3.6-1.8,5.4c-0.2,0.7-0.1,1.5,0.1,2.3c0.6,2.6,1.3,5.3,2,7.9c-1.5,0.4-3,0.8-4.5,1.1
		c-0.1,0-0.5-0.2-0.5-0.4c-0.7-2.7-1.4-5.4-2.2-8.1c-0.2-0.6-0.7-1.2-1.2-1.7c-0.9-0.9-1.8-1.6-2.7-2.4c-1.8-1.7-3.6-3.4-5.4-5
		C142.6,18.5,141.5,17.6,140.4,16.6z"/>
	<path class="st3" d="M126.2,373.3c2.9-2.7,5.7-5.4,8.5-8.1c0.8,0.3,1.5,0.7,2.4,1c-2,4.5-4,9-6,13.5c-0.6-0.3-1-0.5-1.6-0.8
		c1.6-3.6,3.2-7.2,4.8-11c-0.3,0.2-0.4,0.2-0.5,0.3c-2.1,2-4.2,4.1-6.3,6.1c-0.8,0.8-1.6,1.5-2.5,2.3c-0.1,0.1-0.5,0.2-0.7,0.1
		c-0.1,0-0.3-0.3-0.3-0.5c0.1-2.7,0.2-5.5,0.3-8.2c0-1.3,0-2.7-0.1-4.1c-1.6,3.5-3.2,7.1-4.8,10.7c-0.5-0.2-1-0.4-1.7-0.7
		c2-4.5,4-9,6-13.5c0.8,0.3,1.6,0.7,2.3,1C126.2,365.4,126.2,369.3,126.2,373.3z"/>
	<path class="st3" d="M73.7,327c-3.7,2-7.2,3.9-10.6,5.8c-0.1,0-0.2,0-0.2-0.1c-1.3-1.2-1.4-1.2-0.5-2.7c2-3.4,4-6.8,6-10.3
		c0.3-0.5,0.6-1,0.8-1.4c0.5,0.4,1,0.8,1.5,1.2c-2.2,3.6-4.3,7.1-6.4,10.6c0,0.1,0.1,0.1,0.1,0.2c3.6-2,7.2-3.9,10.9-5.9
		c0.3,0.4,0.6,0.7,1,1.2c-2,3.5-4.2,7-6.3,10.6c0,0,0,0.1,0.1,0.1c3.6-2,7.2-4,10.8-6c0.5,0.5,0.9,0.9,1.4,1.4
		c-4.4,2.4-8.9,4.8-13.5,7.2c-0.4-0.4-0.8-0.9-1.1-1.4c-0.1-0.1,0-0.5,0.1-0.7c1.9-3.2,3.8-6.4,5.7-9.5
		C73.5,327.4,73.5,327.3,73.7,327z"/>
	<path class="st3" d="M319.2,61.6c-0.6,0.8-1.1,1.4-1.7,2.2c-1.6-1.3-3.2-2.5-4.9-3.9c-1.5,1.9-3,3.7-4.5,5.6
		c-0.7-0.6-1.5-1.2-2.4-1.9c1.5-1.9,2.9-3.7,4.4-5.7c-1.7-1.3-3.4-2.6-5-3.9c0.6-0.7,1.2-1.4,1.7-2.2c1.6,1.3,3.2,2.6,5,3.9
		c0.8-1,1.6-2.1,2.4-3.1c0.5-0.7,1-1.3,1.6-2c0.1-0.1,0.5-0.1,0.7,0c0.6,0.4,1.1,0.8,1.6,1.2c0.3,0.3,0.3,0.5,0,0.8
		c-1.2,1.5-2.3,2.9-3.5,4.3c-0.4,0.5-0.3,0.8,0.1,1.1c1.1,0.9,2.3,1.8,3.4,2.7C318.5,61.1,318.8,61.3,319.2,61.6z"/>
	<path class="st3" d="M313.3,339.5c2.7,3.1,5.3,5.9,7.8,8.9c-0.4,0.4-0.9,0.8-1.3,1.2c-3.2-3.6-6.5-7.3-9.7-11c0,0,0-0.1,0-0.1
		c0.7-1.1,1.7-1.2,2.9-0.9c4,0.9,8,1.7,11.9,2.5c0.1,0,0.2,0.1,0.4,0c-2.5-2.8-5-5.6-7.5-8.5c0.4-0.4,0.9-0.8,1.3-1.2
		c3.2,3.6,6.4,7.3,9.7,10.9c-0.6,0.8-1.3,1.3-2.5,1c-4-1-8.1-1.8-12.2-2.7C314,339.6,313.7,339.6,313.3,339.5z"/>
	<path class="st3" d="M206.8,378.2c2.1-1,2.7,0.8,3.6,1.7c1.3,1.3,2.4,2.8,3.6,4.3c1.1,1.3,2.3,2.6,3.4,4c0.1,0.1,0.3,0.3,0.5,0.5
		c-0.3-3.8-0.6-7.5-0.8-11.2c1.9-0.5,1.8-0.5,1.9,1.4c0.2,2.8,0.5,5.7,0.7,8.5c0.1,1.5,0.2,2.9,0.2,4.4c-0.3,0.1-0.6,0.3-0.9,0.2
		c-0.4,0-0.9-0.1-1.1-0.4c-1.2-1.3-2.3-2.7-3.4-4.1c-1.6-1.9-3.1-3.7-4.7-5.6c-0.2-0.3-0.5-0.6-0.7-0.9c-0.1,0-0.1,0.1-0.2,0.1
		c0.3,3.8,0.6,7.6,0.9,11.5c-0.6,0-1.1,0-1.8,0C207.5,387.7,207.1,382.9,206.8,378.2z"/>
	<path class="st3" d="M292.8,351c1.7-1.2,3.3-2.4,5-3.4c3.2-1.8,6.9-1.1,9.2,1.8c1,1.3,1.6,2.7,1.7,4.3c0.1,2.1-0.5,4-2.1,5.3
		c-1.7,1.4-3.6,2.8-5.4,4.1C298.3,359,295.6,355,292.8,351z M301.7,360.8c0.7-0.5,1.4-1,2.1-1.4c3.1-2,4.1-4.9,2.2-8
		c-1-1.6-2.4-2.8-4.3-3c-2.7-0.3-4.4,1.6-6.5,2.9C297.4,354.5,299.5,357.6,301.7,360.8z"/>
	<path class="st3" d="M262.1,375.8c-0.1-0.6-0.4-1.2-0.2-1.6c0.2-0.4,0.9-0.4,1.4-0.6c1.6-0.6,3.2-1.2,4.8-1.8
		c0.6,1.5,1.1,3,1.6,4.5c0.1,0.3,0.1,0.6,0,0.8c-1.9,4.1-7.2,5.8-11.1,3.3c-2.2-1.4-3.3-3.6-3.5-6.2c-0.4-4.1,2.6-7.1,6.3-7.8
		c1.3-0.3,2.7-0.1,4,0.5c0.3,0.1,0.6,0.3,0.9,0.4c-0.3,0.4-0.6,0.9-1,1.4c-1.9-1.1-3.8-1.1-5.7,0c-1.7,1-2.7,2.6-2.8,4.5
		c-0.1,3.4,2.2,6.8,6.1,6.7c1.9-0.1,3.5-0.9,4.6-2.6c0.2-0.4,0.1-0.9,0.1-1.4c0-0.1-0.1-0.3-0.2-0.4c-0.3-0.5-0.4-1.4-0.8-1.6
		c-0.4-0.2-1.1,0.3-1.7,0.5C264.1,375,263.1,375.4,262.1,375.8z"/>
	<path class="st3" d="M330.6,328.8c1.6-1.7,3.1-3.3,4.7-5c1.2,1.1,2.5,2.2,3.6,3.4c0.4,0.4,0.4,1.4,0.2,2.1
		c-0.7,3.5-2.9,5.8-6.4,6.4c-2.1,0.4-4.2-0.2-5.9-1.6c-1.9-1.6-3-3.6-3-6c0-3.3,2.9-6.9,6.1-7.3c0.6-0.1,1.3-0.2,2-0.2
		c-0.1,0.7-0.3,1.2-0.4,1.8c-2.1-0.2-3.7,0.7-4.9,2.3c-1.6,2.1-1.5,4.9,0.3,7c1.6,1.9,4.3,3.1,6.9,2.1c2.1-0.8,3.2-2.5,3.7-4.7
		c0.1-0.7-0.3-1-0.7-1.4c-1.5-1.4-1.4-1.4-2.8,0c-0.7,0.8-1.5,1.4-2.2,2.2C331.5,329.5,331.1,329.2,330.6,328.8z"/>
	<path class="st3" d="M273.7,371.3c0.8,1.8,1.6,3.5,2.5,5.3c-0.5,0.3-1,0.5-1.6,0.8c-2.1-4.5-4.2-8.9-6.2-13.3c1-0.5,2-1,3-1.4
		c1.2-0.5,2.4-1,3.7-1.5c2-0.7,4.3,1.1,4.9,2.9c0.5,1.7,0.3,3.1-1.1,4.3c-0.2,0.2-0.3,0.3-0.5,0.5c0,0,0,0.1-0.1,0.3
		c2,1.2,3.9,2.4,6,3.7c-0.1,0.1-0.2,0.1-0.2,0.1c-1.8,1.5-3-0.1-4.3-0.9c-0.9-0.5-1.7-1.2-2.6-1.7c-0.3-0.2-0.8-0.2-1.2-0.1
		C275.1,370.6,274.5,370.9,273.7,371.3z M273.1,369.8c0.9-0.4,1.6-0.7,2.3-1.1c0.8-0.4,1.7-0.9,2.3-1.5c0.8-0.8,1-1.9,0.1-3.4
		c-0.5-0.9-1.8-1.4-2.8-1.1c-1.5,0.5-2.9,1.2-4.4,1.8C271.5,366.5,272.3,368.1,273.1,369.8z"/>
	<path class="st3" d="M234.7,374.5c2.1-0.5,4.2-1,6.3-1.4c2.2-0.5,4.4,0.9,4.9,3.2c0.6,2.4-0.3,4.1-2.7,5.2c1.7,1.6,3.4,3.2,5.1,4.8
		c-1.1,0.7-1.9,0.7-2.8-0.2c-1.3-1.2-2.6-2.5-3.9-3.7c-0.2-0.2-0.6-0.3-0.8-0.2c-0.8,0.1-1.6,0.4-2.4,0.6c0.5,1.9,0.9,3.8,1.3,5.7
		c-0.6,0.1-1.2,0.3-1.8,0.4C236.9,384.1,235.8,379.3,234.7,374.5z M237,375.5c-0.1,0.2-0.1,0.3-0.1,0.3c0.4,1.7,0.7,3.3,1.1,5
		c0,0.1,0.4,0.3,0.6,0.3c1.3-0.3,2.6-0.6,3.9-1c1.2-0.4,1.9-1.7,1.6-3.1c-0.2-1.3-1.3-2.3-2.5-2.2
		C240.1,374.9,238.5,375.3,237,375.5z"/>
	<path class="st3" d="M148.5,377.3c0.7,1.7,1.4,3.2,2.2,4.9c0.8-0.9,1.7-1.8,2.5-2.8c0.3,0.3,0.7,0.6,1.2,0.9
		c-0.9,0.9-1.8,1.7-2.6,2.6c-0.2,0.2-0.3,0.7-0.2,0.9c0.5,1,1,1.9,1.5,2.8c-1.7,0.1-2.6-1-3.1-2.4c-1.6,0.8-3.2,1-4.9,0.4
		c-1.9-0.6-3.2-2.2-3.2-3.9c-0.1-1.7,1.4-3.5,3.2-4.2c0.5-0.2,0.9-0.3,1.2-0.4c0-1.1-0.1-2.1,0-3.1c0.1-1.4,1.5-2.6,2.7-2.7
		c2.6-0.2,3.7,0.9,4.2,2.2c0.5,1.3-0.6,3.3-2.1,3.8C150.4,376.8,149.5,377,148.5,377.3z M146.8,377.6c-1.5,0.4-2.7,1.1-3,2.6
		c-0.3,1.4,0.2,2.5,1.4,3.1c1.2,0.7,2.9,0.6,4-0.3C148.4,381.2,147.6,379.4,146.8,377.6z M148.2,376.1c0.9-0.3,1.7-0.5,2.5-0.8
		c0.8-0.4,1.3-1.1,1.2-2c-0.1-0.8-0.7-1.4-1.6-1.5c-0.7-0.1-1.6,0.5-2,1.1C147.7,373.9,147.8,374.9,148.2,376.1z"/>
	<path class="st3" d="M115.3,355.7c0.5,0.3,0.9,0.5,1.4,0.7c0.5,0.2,0.6,0.6,0.5,1c-0.4,3.2-0.8,6.5-1.2,9.7
		c-0.2,1.8-0.5,3.5-0.8,5.2c0,0-0.1,0-0.1,0c-1.7-1-1.9-1.3-1.3-3.6c0.2-0.7,0-0.9-0.5-1.2c-1.7-0.9-3.4-1.9-5.1-2.9
		c-0.5-0.3-0.9-0.3-1.4,0.1c-0.2,0.2-0.3,0.3-0.5,0.5c-1.5,1.4-1.7,1.4-3.4,0.2C107.1,362.3,111.2,359,115.3,355.7z M115.4,357.8
		c-2.3,1.9-4.4,3.6-6.7,5.5c1.9,1.1,3.7,2,5.5,3.1C114.6,363.5,115,360.8,115.4,357.8z"/>
	<path class="st3" d="M286.3,371.8c-0.2-1.3-0.4-2.5-0.5-3.7c-0.3-2-0.6-4-0.9-6c-0.2-1.8-0.5-3.6-0.7-5.3c0-0.3,0.3-0.7,0.5-0.9
		c0.4-0.3,0.9-0.6,1.4-0.8c4.1,3.3,8.2,6.5,12.4,9.8c-0.6,0.4-1.1,0.7-1.6,1c-0.2,0.1-0.5-0.2-0.8-0.4c-0.6-0.5-1.2-1-1.8-1.5
		c-0.2-0.1-0.5-0.2-0.6-0.1c-1.8,1-3.7,2.1-5.5,3.2c-0.2,0.1-0.4,0.5-0.4,0.8c0,0.6,0,1.3,0.2,1.8c0.4,0.9,0,1.4-0.8,1.7
		C286.9,371.4,286.7,371.6,286.3,371.8z M287.3,365.6c1.9-1.1,3.6-2.1,5.5-3.1c-2.3-1.8-4.4-3.5-6.7-5.4
		C286.5,360,286.8,362.8,287.3,365.6z"/>
	<path class="st3" d="M226.2,389.4c2.4-0.4,4.8-0.8,7.2-1.2c0.2,0,0.6,0.2,0.7,0.5c0.1,0.3,0.1,0.6,0.1,1.1c-3.1,0.5-6.3,1-9.5,1.5
		c-0.8-4.9-1.5-9.7-2.3-14.5c3.2-0.5,6.3-1,9.5-1.5c0.1,0.6,0.2,1,0.3,1.6c-2.5,0.4-5.1,0.8-7.7,1.2c0.2,1.5,0.4,3.1,0.7,4.7
		c2.5-0.4,5.1-0.8,7.6-1.2c0.1,0.5,0.1,1,0.2,1.6c-2.5,0.4-5,0.8-7.6,1.2C225.7,386,225.9,387.7,226.2,389.4z"/>
	<path class="st3" d="M178.2,376.7c0.7,0.1,1.2,0.2,1.8,0.3c-0.2,1.8-0.3,3.5-0.5,5.2c-0.1,1.5-0.3,3-0.3,4.5
		c-0.1,2.2,1.6,3.8,3.8,3.8c3,0,4.3-1.2,4.5-4.3c0.2-2.6,0.5-5.2,0.7-7.7c0-0.3,0.1-0.6,0.2-0.9c0.5,0.1,1,0.1,1.6,0.2
		c0,0.9-0.1,1.8-0.1,2.6c-0.2,1.8-0.3,3.7-0.5,5.5c-0.2,1.3-0.5,2.7-1.1,3.9c-0.9,2-3.7,2.7-5.4,2.4c-1.3-0.2-2.5-0.4-3.6-1.3
		c-1.1-0.9-1.8-2-1.8-3.3c0-2.5,0.3-5.1,0.5-7.6C178.1,378.9,178.1,377.9,178.2,376.7z"/>
	<path class="st3" d="M169,376.9c-1.4-0.3-2.9-0.5-4.5-0.8c0.1-0.5,0.2-1,0.3-1.6c3.7,0.6,7.3,1.3,11,1.9c-0.1,0.5-0.2,1-0.3,1.6
		c-1.5-0.3-3-0.5-4.6-0.8c-0.8,4.3-1.5,8.6-2.3,13c-0.3-0.1-0.4-0.1-0.5-0.1c-1.3-0.4-1.3-0.3-1-1.8c0.7-3.5,1.3-7,1.9-10.5
		C169,377.5,169,377.2,169,376.9z"/>
	<path class="st3" d="M88.6,355.9c1.3-1.8,2.5-3.5,3.7-5.3c1.4-2,2.9-3.9,4.2-5.9c0.5-0.8,0.9-0.7,1.5-0.2c0.2,0.1,0.4,0.3,0.6,0.4
		c-2.5,3.5-5,7.1-7.6,10.7c1.8,1.3,3.7,2.6,5.6,4c-0.3,0.4-0.6,0.8-0.9,1.3C93.3,359.3,91,357.6,88.6,355.9z"/>
	<path class="st3" d="M79,348.2c3.1-3.8,6.1-7.5,9.3-11.4c0.5,0.3,0.9,0.7,1.4,1.1c-2.8,3.4-5.5,6.8-8.3,10.2
		c1.7,1.4,3.5,2.8,5.3,4.3c-0.3,0.4-0.6,0.8-1,1.3C83.5,351.9,81.3,350.1,79,348.2z"/>
	<path class="st3" d="M75.6,345c-0.5-0.4-1-0.8-1.4-1.1c3.3-3.7,6.5-7.3,9.8-10.9c0.5,0.4,0.9,0.8,1.4,1.1
		C82.1,337.8,78.8,341.4,75.6,345z"/>
	<path class="st3" d="M106.9,350.5c0.5,0.3,1,0.6,1.5,0.9c-2.6,4.1-5.3,8.3-7.9,12.4c-0.5-0.3-1-0.6-1.5-1
		C101.6,358.8,104.2,354.7,106.9,350.5z"/>
	<path class="st3" d="M305.6,341.9c0.5-0.4,0.9-0.7,1.4-1.1c3,3.9,6.1,7.7,9.1,11.6c-0.5,0.4-0.9,0.7-1.4,1.1
		C311.7,349.6,308.7,345.8,305.6,341.9z"/>
	<path class="st3" d="M243.5,222.9c2.1,2.3,4.4,4.1,6.9,5.7c3.5,2.2,7.3,3.6,11.3,4.4c3.3,0.7,6.7,0.9,10.1,0.7
		c4.9-0.4,9.4-1.9,12.8-5.8c2-2.3,3.1-5,3.1-8c0.1-2.3-0.2-4.4-1.2-6.6c-1.2-2.7-3.1-4.7-5.6-6.1c-2.7-1.5-5.6-2.1-8.6-2.4
		c-4.4-0.3-8.6,0.2-12.7,1.6c-3.5,1.2-6.5,3.1-9.2,5.6c-0.4,0.4-0.8,0.7-1.5,0.5c-4.5-1.2-8.9-2.4-13.4-3.5c-0.2,0-0.3-0.1-0.6-0.1
		c0-18.9,0-37.7,0-56.7c22.5,0,45.1,0,67.7,0c0,6.1,0,12.3,0,18.5c-15.5,0-31.1,0-46.6,0c0,8,0,15.9,0,23.8c1.2-0.9,2.4-1.9,3.7-2.8
		c3.4-2.3,7.2-3.8,11.3-4.5c2.4-0.4,4.8-0.7,7.2-0.7c6.1,0.1,11.8,1.7,17,5c3.9,2.5,7.1,5.6,9.5,9.5c2,3.3,3.3,6.9,4,10.7
		c0.6,3.3,0.7,6.5,0.5,9.8c-0.5,6.4-2.5,12.3-6.5,17.4c-2.7,3.5-6.1,6.3-10,8.4c-4.3,2.3-8.8,3.7-13.6,4.5
		c-4.4,0.7-8.8,0.8-13.1,0.6c-3.6-0.1-7.2-0.7-10.8-1.5c-4.4-1-8.5-2.6-12.5-4.7c-2.8-1.5-5.3-3.3-7.7-5.4c-0.9-0.9-1.9-1.8-2.8-2.6
		c-0.4-0.4-0.3-0.6,0-1c2-2.5,3.9-5,5.9-7.4C239.8,227.5,241.6,225.2,243.5,222.9z"/>
	<path class="st3" d="M144.3,200c3.4,0.5,6.5,1.5,9.3,3.2c1.8,1,3.5,2.3,5.1,3.6c2.3,1.8,3.9,4.1,5.2,6.6c1.4,2.8,2.1,5.7,2.3,8.9
		c0.1,3.2-0.2,6.3-1.1,9.4c-0.9,2.9-2.4,5.5-4.3,7.9c-2.1,2.6-4.5,4.7-7.3,6.5c-3.9,2.4-8.1,4.2-12.7,5.1c-2.4,0.5-4.7,0.9-7.1,1.2
		c-2.2,0.2-4.3,0.2-6.5,0.2c-7,0.1-13.7-1-20.3-3.3c-4.6-1.6-8.8-3.8-12.6-6.9c-1.7-1.4-3.3-3-5-4.6c-0.4-0.4-0.9-0.8-0.2-1.7
		c2.3-2.8,4.4-5.6,6.6-8.5c1.3-1.7,2.6-3.3,3.9-5c0.9,0.8,1.7,1.6,2.6,2.3c2.6,2.3,5.5,4,8.7,5.4c2.6,1.1,5.2,2,8,2.7
		c3.6,0.9,7.2,1,10.9,0.8c3-0.2,5.9-0.8,8.6-2.2c3.5-1.7,6-4.3,6.7-8.2c0.6-3.3-0.1-6.4-2.4-8.8c-1.8-1.9-4.2-2.9-6.7-3.4
		c-2.4-0.4-4.8-0.7-7.2-0.9c-2.3-0.2-4.7-0.2-7-0.2c-2.3,0-4.5,0.1-6.8,0.2c-0.5,0-1,0.1-1.6,0.2c0-6.4,0-12.6,0-19c0.3,0,0.6,0,1,0
		c4.7,0,9.4,0.1,14.2,0c3.4-0.1,6.8-0.7,9.9-2.3c2.6-1.3,4.4-3.2,5.1-6.2c0.7-3.4-0.7-7.3-3.5-9.4c-3-2.3-6.4-3.3-10.1-3.7
		c-1.8-0.2-3.6-0.4-5.3-0.3c-3.1,0.1-6.2,0.6-9.3,1.5c-4.1,1.2-7.9,3.2-11.3,5.8c-1.2,0.9-2.3,2-3.5,3c-3.5-4.4-7-8.8-10.7-13.4
		c2.3-2,4.4-4.2,6.8-5.9c2.4-1.8,5.1-3.3,7.8-4.7c3.9-1.9,8-3.2,12.3-3.9c2.8-0.5,5.6-0.9,8.5-0.9c2.5,0,5.1-0.1,7.6,0
		c4.3,0.3,8.5,1,12.6,2.4c4.4,1.5,8.4,3.5,11.9,6.7c3.9,3.6,6.4,8,7.2,13.3c0.9,5.5,0.1,10.8-3,15.6c-1.9,2.9-4.5,5.3-7.5,7.1
		c-2.9,1.8-6.1,3.2-9.5,3.8C144.5,199.8,144.4,199.8,144.3,200z"/>
	<path class="st3" d="M196.1,270.9c-2.8-2.3-5.5-4.5-8.3-6.8c5.2-3.4,9.3-7.6,11.4-13.7c-2,0.3-3.7,0.4-5.5-0.1
		c-3.6-1-5.8-3.4-6.8-6.8c-0.9-3-0.7-5.9,0.7-8.7c1.7-3.4,4.3-5.7,8.2-6.4c7.1-1.3,13.1,3.4,14.8,9.5c0.8,2.9,0.8,5.8,0.5,8.7
		c-0.5,5.2-2.4,9.9-5.3,14.3c-1.7,2.5-3.6,4.8-5.8,6.8C198.7,268.8,197.4,269.8,196.1,270.9z"/>
</g>
<g>
	<path class="st3" d="M-38.7-640.8c1.2,0.4,2.5,0.7,3.7,1.2c3.1,1.3,5.4,3.5,7.1,6.5c-1.9,0.9-3.8,1.8-5.7,2.7
		c-1.4-2.1-3.2-3.7-5.8-4.3c-4.5-1-9.2,1.1-11.1,5.2c-1.8,3.9-1.7,7.7,0.7,11.3c2.1,3.2,6.5,5,10.2,4c1.3-0.3,2.5-0.8,3.7-1.4
		c0.4-0.2,0.7-0.8,0.8-1.2c0.1-0.9,0-1.9,0-3.2c-1.2,0-2.6,0-4-0.1c-1.4-0.1-2.8-0.2-4.3-0.3c0.1-1.9,0.2-3.8,0.3-5.8
		c5.1,0.3,10,0.5,15.2,0.8c-0.1,1.2-0.1,2.4-0.2,3.5c0,0.3-0.1,0.5-0.1,0.8c-0.1,2.4-0.1,4.9-0.3,7.3c-0.1,0.7-0.9,1.4-1.5,1.9
		c-2.7,2.2-5.9,3.5-9.4,3.9c-5,0.6-9.5-0.7-13.4-3.7c-3.2-2.6-5.1-6-5.7-10.2c-0.4-2.8,0-5.4,0.7-8c0.9-3.1,2.7-5.5,5.1-7.5
		c2.2-1.8,4.8-2.9,7.6-3.2c0.1,0,0.2-0.1,0.2-0.2C-42.7-640.8-40.7-640.8-38.7-640.8z"/>
	<path class="st3" d="M-53.3-118.3c-1.5-2.4-3-4.9-4.5-7.3c-0.3-0.4-0.9-0.8-1.4-0.8c-0.9-0.1-1.9,0-3,0c-0.1,2.6-0.2,5.2-0.4,7.8
		c-0.7,0-1.4,0-2.1,0c0-6.5,0-13.1,0-19.8c3.7,0.1,7.2-0.4,10.7,0.5c1.8,0.5,3.4,2.8,3.5,4.8c0.1,3.8-1,5.3-4.6,6.5
		c-0.1,0-0.2,0.2-0.4,0.3c1.7,2.7,3.4,5.3,5.1,8C-51.4-118.3-52.4-118.3-53.3-118.3z M-62.1-136.4c0,2.7,0,5.2,0,7.7
		c0.2,0,0.2,0.1,0.3,0.1c1.8,0,3.6,0,5.4,0c1.9,0,3.5-1.6,3.6-3.8c0.1-1.5-1.4-3.5-2.9-3.7C-57.9-136.2-60-136.3-62.1-136.4z"/>
	<path class="st3" d="M161.1-380.2c-0.1,50.2-14.4,95.5-44.5,135.4C85.1-203.2,43.8-176-7.1-163.8c-17.6,4.2-35.5,6.1-53.6,5.5
		c-60.4-2-111.4-25.1-152.8-69.1c-26.5-28.1-43.9-61.2-53-98.7c-3.1-12.7-4.9-25.6-5.7-38.7c-0.8-13.9-0.4-27.7,1.3-41.4
		c4.9-38.5,18.8-73.4,42-104.5c24.9-33.4,56.7-57.8,95.5-73.1c14.9-5.8,30.2-9.9,46-12.2c14.2-2.1,28.4-2.9,42.7-2.1
		c46.2,2.6,87.5,18.3,123.5,47.3c38.1,30.8,63.1,70.1,75.4,117.5c3.5,13.6,5.6,27.4,6.4,41.4C160.8-387.8,160.9-383.8,161.1-380.2z
		 M156-378.2c0-15.2-1.5-30.2-4.7-45c-8.8-41.2-27.7-77.1-57.4-107C55-569.3,7.9-590.4-47.2-593c-18.8-0.9-37.5,0.8-55.8,5.2
		c-51.9,12.5-93.4,40.5-124.4,83.8c-25.1,34.9-38.1,74.1-40,117c-0.8,18.2,0.6,36.2,4.5,54c10.5,48.5,34.6,89.1,72.6,121
		c35.6,29.8,76.8,46,123.2,48.7c18.6,1.1,37.1-0.3,55.3-4.3c46.6-10.3,85.4-33.6,116.3-69.9C138.8-278.1,155.4-325.3,156-378.2z"/>
	<path class="st3" d="M70.1-609.2c4.1,2.6,8.2,5,12.1,7.6c4.7,3.2,7.4,7.7,7.2,13.6c-0.1,3.7-1.6,6.9-3.8,9.8
		c-2.6,3.3-6,5.2-10.1,5.7c-3.6,0.5-7.1-0.4-10.2-2.2c-4-2.3-8-4.9-11.9-7.3C58.9-591.1,64.5-600.1,70.1-609.2z M62.2-583.5
		c2.1,1.3,3.9,2.5,5.9,3.6c1.9,1,4.1,1.4,6.3,1c3.8-0.8,6.1-3.2,7.5-6.6c1.6-3.7,0.7-7.9-2-10.1c-2.2-1.8-4.6-3.3-7.1-5
		C69.2-594.9,65.8-589.2,62.2-583.5z"/>
	<path class="st3" d="M-147.1-624.7c5.2-1.6,10.3-3.3,15.4-4.7c5.4-1.5,10.3,1.3,12.1,6.5c1.2,3.4,0.9,6.7-1.5,9.5
		c-0.6,0.7-1.4,1.3-2.2,2c3.5,3.1,6.9,6.2,10.5,9.4c-2.2,0.7-4.4,1.4-6.5,2c-0.4,0.1-1,0-1.3-0.2c-2.8-2.6-5.5-5.1-8.3-7.8
		c-0.5-0.5-0.9-0.7-1.6-0.4c-1.3,0.5-2.6,0.9-3.9,1.3c1.1,3.6,2.3,7.2,3.4,10.8c-2.2,0.7-4.3,1.3-6.5,2
		C-140.6-604.4-143.8-614.5-147.1-624.7z M-136.2-612.7c2.8-1,5.5-1.8,8.1-3c2-0.9,2.5-2.8,1.9-4.9c-0.6-1.9-2.3-3.4-4.3-2.9
		c-2.8,0.6-5.6,1.5-8.5,2.3C-137.9-618.3-137.1-615.7-136.2-612.7z"/>
	<path class="st3" d="M20.6-606.4c0.3-9.5,7-17,16.2-16.9c9.2,0.1,17.7,6.7,17.4,16.8c-0.3,9-6.8,16.7-16.3,16.5
		C28.6-590.1,20.5-596.8,20.6-606.4z M27.5-607c0,5.4,1.9,8.3,5.7,10c2.9,1.3,5.7,1.3,8.4-0.4c3.9-2.4,5.6-6,5.6-10.5
		c0.1-6.6-7.1-10.7-12.5-8.8C30.3-615.3,27.3-610.2,27.5-607z"/>
	<path class="st3" d="M-2.9-635.7c9.7,0.3,17.3,6.7,17.2,16.4c-0.1,9.8-6.8,16.8-16.1,16.8c-9.8,0-17.5-6.4-17.4-16.4
		C-19-628.4-12.5-635.5-2.9-635.7z M-2.4-629.5c-2.9-0.2-5.3,1-7.1,3.1c-2.3,2.9-3.3,6.4-2.6,10.2c1.1,5.5,6,8.4,11.1,7.5
		c6.7-1.1,9.3-8.4,8-13.9C6-626.8,1.6-629.9-2.4-629.5z"/>
	<path class="st3" d="M-144.5-591.5c-6.8,3.2-13.5,6.5-20.4,9.8c-4.6-9.6-9.2-19.2-13.8-28.8c6.8-3.2,13.6-6.5,20.4-9.8
		c0.8,1.8,1.6,3.5,2.5,5.4c-4.7,2.3-9.5,4.5-14.3,6.8c1,2,1.9,4,2.9,6.1c4.7-2.2,9.4-4.5,14-6.7c0.9,1.8,1.7,3.5,2.6,5.3
		c-4.6,2.2-9.3,4.5-14,6.7c1.1,2.2,2.1,4.3,3.1,6.6c4.8-2.3,9.6-4.6,14.3-6.8C-146.3-595-145.4-593.3-144.5-591.5z"/>
	<path class="st3" d="M-215.3-587.3c1.9-1.3,3.8-2.5,5.6-3.8c0.5-0.3,0.9-0.4,1.4,0c4.1,3.1,8.2,6,12.3,9.1c2.6,1.9,5.1,3.8,8,5.5
		c-0.2-0.9-0.3-1.8-0.5-2.6c-1.8-7.2-3.7-14.3-5.4-21.5c-0.1-0.4,0-1,0.3-1.2c1.8-1.3,3.7-2.5,5.6-3.7c0.1-0.1,0.2,0,0.4-0.1
		c0.8,3.4,1.5,6.8,2.3,10.2c1.7,7.4,3.4,14.7,5,22.1c0.1,0.6,0.1,1.1-0.6,1.5c-1.9,1.1-3.7,2.4-5.5,3.7c-0.5,0.4-0.9,0.4-1.5,0
		c-6.7-4.7-13.4-9.4-20-14.1C-210.4-583.9-212.8-585.6-215.3-587.3z"/>
	<path class="st3" d="M-113.9-634.9c2.6-0.4,5.1-0.8,7.6-1.2c3.3,3.7,6.5,7.5,10,11.4c0.9-2.1,1.7-4,2.5-5.9c1-2.4,2-4.7,2.8-7.1
		c0.4-1.1,1.1-1,1.9-1.2c2-0.3,3.9-0.7,6.1-1c-1,2.4-2,4.7-3,6.9c-1.9,4.4-3.9,8.8-5.7,13.3c-0.3,0.7-0.1,1.6,0,2.4
		c0.5,3.2,1.1,6.3,1.6,9.5c0.1,0.9,0.2,1.6-1.2,1.7c-1.7,0.1-3.4,0.5-5.2,0.9c-0.2-1.3-0.5-2.6-0.7-3.9c-0.5-2.8-0.9-5.6-1.5-8.5
		c-0.1-0.5-0.3-1-0.7-1.3c-2.2-2.4-4.5-4.8-6.7-7.3C-108.7-629.1-111.2-631.9-113.9-634.9z"/>
	<path class="st3" d="M-158.4-157.5c-2.1,4.8-4.3,9.6-6.4,14.5c-0.7-0.3-1.4-0.6-2.2-0.9c2.7-6.1,5.4-12.2,8.1-18.3
		c1.1,0.5,2.1,0.9,3.1,1.3c0,5.4,0,10.7,0,16.2c0.3-0.3,0.6-0.6,0.9-0.8c2.6-2.5,5.2-5.1,7.8-7.6c0.8-0.8,1.6-1.5,2.5-2.2
		c0.2-0.2,0.7-0.2,1-0.1c0.9,0.3,1.7,0.7,2.6,1.1c-2.7,6.1-5.4,12.1-8.1,18.3c-0.7-0.4-1.4-0.7-2.2-1.1c2.2-4.9,4.3-9.7,6.5-14.9
		c-0.4,0.2-0.5,0.3-0.6,0.4c-2.5,2.4-5,4.9-7.6,7.3c-1.4,1.4-2.8,2.7-4.3,4c-0.2,0.2-0.7,0.4-0.9,0.3c-0.3-0.1-0.5-0.6-0.5-0.9
		c0.1-3.7,0.3-7.5,0.4-11.2c0.1-1.8,0-3.6,0-5.4C-158.3-157.5-158.3-157.5-158.4-157.5z"/>
	<path class="st3" d="M-233.4-219.2c0.7,0.6,1.4,1.1,2,1.6c-3,4.9-5.8,9.7-8.7,14.5c0,0.1,0.1,0.2,0.1,0.2c4.9-2.7,9.8-5.3,14.8-8
		c0.4,0.5,0.8,1,1.3,1.6c-2.7,4.7-5.6,9.5-8.5,14.4c0,0.1,0.1,0.1,0.1,0.2c4.9-2.7,9.8-5.4,14.6-8.1c0.6,0.6,1.2,1.2,1.9,1.9
		c-6,3.2-12.1,6.5-18.3,9.8c-0.5-0.6-1.1-1.2-1.6-1.8c-0.1-0.2,0.1-0.6,0.2-0.9c2.6-4.4,5.3-8.8,7.7-13.4c-4.7,2.6-9.4,5.2-14.1,7.7
		c-0.6-0.7-1.2-1.3-1.9-2C-240.2-207.5-236.7-213.4-233.4-219.2z"/>
	<path class="st3" d="M97.9-190.5c3.5,3.9,6.9,7.8,10.5,11.8c-0.6,0.6-1.2,1.1-1.8,1.7c-4.4-5-8.8-9.9-13.2-14.9c0,0,0,0,0-0.1
		c1-1.4,2.1-1.7,3.9-1.3c5.5,1.3,11.1,2.4,16.9,3.7c-3.5-4-6.9-7.8-10.3-11.7c0.6-0.6,1.2-1.1,1.8-1.7c4.4,5,8.8,9.9,13.2,14.8
		c-1.2,2.5-3.2,1.3-4.9,1c-5.3-1.1-10.6-2.3-15.8-3.4C98.1-190.5,98-190.5,97.9-190.5z"/>
	<path class="st3" d="M-46.7-138.1c2.9-1.4,3.6,1,4.9,2.3c1.7,1.8,3.3,3.9,4.9,5.8c1.5,1.8,3.1,3.6,4.7,5.4c0.2,0.2,0.4,0.4,0.7,0.7
		c-0.4-5.2-0.8-10.2-1.1-15.2c0.1-0.1,0.1-0.2,0.2-0.2c2.4-0.5,2.3-0.5,2.4,1.9c0.2,3.9,0.6,7.7,0.9,11.6c0.1,2,0.2,4,0.3,6
		c-0.4,0.1-0.9,0.4-1.3,0.3c-0.5-0.1-1.2-0.2-1.5-0.6c-1.6-1.8-3.1-3.7-4.7-5.5c-2.1-2.5-4.2-5-6.3-7.5c-0.4-0.4-0.7-0.9-1-1.3
		c-0.1,0.1-0.2,0.2-0.3,0.3c0.4,5.2,0.8,10.3,1.2,15.6c-0.8,0-1.5,0-2.4,0C-45.7-125.1-46.2-131.7-46.7-138.1z"/>
	<path class="st3" d="M70-175c2.3-1.5,4.4-3.1,6.6-4.4c4.3-2.7,9.7-1.5,12.6,2.4c1.3,1.7,2.2,3.7,2.3,5.8c0.1,2.8-0.8,5.3-2.9,7.2
		c-0.7,0.6-1.4,1.3-2.1,1.9c-1.7,1.2-3.5,2.4-5.2,3.5C77.5-164.1,73.8-169.5,70-175z M82.1-161.7c1.4-0.9,2.7-1.8,4-2.7
		c2-1.5,3.3-3.6,3.1-6.1c-0.1-2.7-1.5-5-3.7-6.6c-1.7-1.2-3.5-1.9-5.5-1.1c-1.7,0.6-3.2,1.6-4.8,2.4c-0.7,0.4-1.2,0.9-1.9,1.3
		C76.3-170.2,79.2-166,82.1-161.7z"/>
	<path class="st3" d="M36.5-146.7c0.8,2.1,1.5,4.2,2.3,6.2c0.1,0.3,0.2,0.8,0,1.1c-3,6.5-11.8,8.4-16.8,3.1
		c-3.2-3.3-4.1-8.6-1.8-12.6c2.6-4.3,8.3-6.6,13.1-4.1c0.3,0.1,0.6,0.2,0.9,0.4c-0.5,0.6-0.9,1.3-1.4,1.9
		c-4.6-2.8-10.5,0.3-11.3,5.3c-0.8,5.2,3.3,10.3,8.1,10c2.6-0.2,4.8-1.3,6.2-3.6c0.3-0.5,0.3-1.2,0.1-1.7c-0.2-1-0.7-1.9-1.1-2.9
		c-2.2,0.8-4.3,1.6-6.5,2.4c0-0.1-0.1-0.2-0.1-0.3c-0.4-1.8-0.4-1.8,1.5-2.5C32.1-145.1,34.3-145.9,36.5-146.7z"/>
	<path class="st3" d="M127.7-211.8c1.4,1.3,2.6,2.6,4,3.6c1.4,1,1.4,2.4,1.1,3.7c-1,4.8-4.1,8-8.8,8.8c-4,0.7-7.3-1-9.8-4.2
		c-1.5-1.9-2.3-4.1-2.2-6.6c0.2-4.4,3.9-9,8.2-9.5c0.9-0.1,1.8-0.2,2.8-0.3c-0.2,0.9-0.4,1.6-0.5,2.1c-1.4,0.4-2.7,0.5-3.8,1.1
		c-4.4,2.1-5.9,7.6-2.3,11.9c2.4,2.9,5.8,3.9,9.1,2.7c3-1.1,4.5-3.5,5-6.3c0.1-0.5-0.2-1.2-0.6-1.6c-0.7-0.8-1.6-1.5-2.4-2.3
		c-1.6,1.8-3.2,3.4-4.9,5.2c-0.4-0.6-0.8-1.2-1.3-1.8C123.4-207.3,125.6-209.6,127.7-211.8z"/>
	<path class="st3" d="M58.2-145.4c-1.9,1.9-3.4,0.9-5-0.3c-1.4-1.1-3-2-4.6-2.9c-0.5-0.3-1.2-0.2-1.7-0.1c-0.9,0.3-1.8,0.8-2.8,1.2
		c1.1,2.4,2.2,4.7,3.3,7.2c-0.7,0.4-1.4,0.7-2.2,1.1c-2.8-6-5.6-12-8.5-18.1c1.4-0.7,2.7-1.4,4-1.9c1.7-0.7,3.4-1.4,5.1-2
		c2.5-0.9,5.6,1.2,6.5,3.9c0.8,2.3,0.5,4.3-1.4,6c-0.3,0.3-0.5,0.6-0.9,1C53-148.7,55.6-147,58.2-145.4z M43.3-149.4
		c1.6-0.8,3.1-1.4,4.6-2.2c0.6-0.3,1.2-0.8,1.7-1.3c1.1-1.2,1.1-2.9,0.1-4.6c-0.7-1.2-2.4-1.9-3.8-1.4c-2,0.7-4,1.6-6,2.4
		C41.1-154,42.2-151.7,43.3-149.4z"/>
	<path class="st3" d="M-3.7-131.9c0.6,2.7,1.2,5.2,1.8,7.7c-0.8,0.2-1.5,0.3-2.4,0.5c-1.5-6.5-3-13-4.6-19.5
		c2.8-0.6,5.7-1.2,8.5-1.9c3-0.7,6.1,1.3,6.8,4.5c0.7,3.3-0.6,5.5-3.7,6.9c2.4,2.2,4.6,4.3,6.9,6.5c-1.6,1-2.6,0.9-3.9-0.3
		c-1.7-1.6-3.4-3.3-5.1-4.8c-0.3-0.3-0.9-0.4-1.3-0.4C-1.6-132.5-2.6-132.2-3.7-131.9z M-5.9-141.7c0.6,2.5,1,4.8,1.6,7
		c0.1,0.2,0.6,0.5,0.8,0.5c1.8-0.4,3.6-0.9,5.3-1.4c1.7-0.5,2.6-2.2,2.3-4.2c-0.3-1.7-1.8-3.3-3.5-3C-1.5-142.5-3.7-142-5.9-141.7z"
		/>
	<path class="st3" d="M-125.7-139.2c1,2.3,2,4.4,3,6.6c1.2-1.3,2.3-2.5,3.4-3.8c0.4,0.3,1,0.8,1.6,1.3c-1.2,1.2-2.4,2.3-3.5,3.4
		c-0.5,0.5-0.6,0.8-0.3,1.4c0.7,1.2,1.4,2.5,2.1,3.8c-2.1-0.3-2.5-0.6-4.4-3.3c-1.6,0.8-3.4,1.2-5.2,0.9c-2.9-0.5-5.3-2.2-5.7-5.5
		c-0.2-2.2,1.8-4.8,4.3-5.7c2.1-0.7,2-0.7,1.6-3c-0.5-2.6,1.5-5.4,4.3-5.5c1.9,0,3.5,0.4,4.7,1.9c1.5,1.9,0.3,5.3-2.2,6.2
		c-0.9,0.3-1.9,0.5-2.8,0.8C-125-139.6-125.3-139.4-125.7-139.2z M-124.7-131.5c-1.1-2.6-2.2-5-3.3-7.4c-2,0.5-3.6,1.5-4,3.5
		c-0.3,1.6,0.1,3.1,1.7,4.1C-128.4-130.1-126.5-130.5-124.7-131.5z M-126.3-141.1c1.8,0,3.6-0.7,4.5-1.6c1.2-1.4,0.8-3.2-1-3.8
		c-1.9-0.6-3.7,0.7-3.8,2.8C-126.6-142.9-126.4-142-126.3-141.1z"/>
	<path class="st3" d="M-170.8-145.9c-2.1-0.4-2.7-1.7-2.1-3.7c0.2-0.5,0.2-1,0.2-1.5c0-0.4-0.2-0.9-0.5-1c-2.4-1.4-4.9-2.8-7.4-4.2
		c-0.6-0.3-1-0.3-1.4,0.1c-0.6,0.5-1.3,0.9-1.8,1.5c-0.8,1-1.7,1-2.6,0.2c-0.3-0.2-0.7-0.4-1-0.6c5.6-4.5,11.1-9,16.7-13.5
		c0.2,0.1,0.4,0.3,0.6,0.4c1.7,0.5,2.2,1.5,1.8,3.3c-0.6,2.9-0.9,5.8-1.2,8.7c-0.4,2.8-0.7,5.6-1,8.4
		C-170.5-147.1-170.7-146.5-170.8-145.9z M-170.6-165.7c-3.2,2.6-6,4.9-9.1,7.4c2.6,1.5,5,2.8,7.5,4.1
		C-171.6-158-171.1-161.7-170.6-165.7z"/>
	<path class="st3" d="M61.2-146.8c-0.3-1.8-0.5-3.4-0.7-5.1c-0.4-2.7-0.8-5.4-1.2-8.2c-0.3-2.5-0.7-4.9-1-7.4c0-0.3,0.2-0.8,0.5-1
		c0.7-0.5,1.4-0.8,2.1-1.2c5.6,4.4,11.1,8.8,16.8,13.3c-0.8,0.5-1.4,1-2.2,1.3c-0.3,0.1-0.8-0.3-1.1-0.6c-0.8-0.6-1.6-1.3-2.4-1.9
		c-0.2-0.2-0.7-0.2-0.9-0.1c-2.5,1.4-5,2.9-7.5,4.4c-0.3,0.2-0.5,0.6-0.5,0.9c0,0.9,0,1.8,0.3,2.6c0.5,1.3,0.1,1.9-1.1,2.4
		C61.9-147.3,61.7-147.1,61.2-146.8z M60.8-166.7c0.6,4,1.1,7.7,1.6,11.6c2.5-1.4,4.9-2.8,7.4-4.2C66.9-161.8,64-164.1,60.8-166.7z"
		/>
	<path class="st3" d="M-12.7-142.1c0.2,0.8,0.3,1.4,0.4,2.1c-3.4,0.5-6.8,1.1-10.4,1.7c0.3,2,0.6,4.1,0.9,6.4
		c3.4-0.5,6.9-1.1,10.4-1.6c0.1,0.7,0.2,1.4,0.3,2.1c-3.4,0.5-6.7,1.1-10.3,1.6c0.3,2.3,0.7,4.5,1.1,6.9c3.2-0.5,6.4-1.1,9.7-1.6
		c0.3,0,0.8,0.4,1,0.7c0.2,0.3,0.1,0.8,0.1,1.4c-4.2,0.7-8.5,1.3-12.8,2c-1-6.6-2-13.1-3.1-19.7C-21.2-140.7-17-141.4-12.7-142.1z"
		/>
	<path class="st3" d="M-85.4-140.2c0.9,0.1,1.7,0.3,2.5,0.4c-0.1,1.2-0.3,2.3-0.4,3.4c-0.3,3.3-0.6,6.5-0.7,9.8
		c-0.1,3,2.2,5.2,5.2,5.2c4.1,0,5.8-1.7,6.1-5.8c0.2-3.5,0.6-7.1,1-10.6c0-0.4,0.2-0.7,0.3-1.1c0.7,0.1,1.4,0.2,2.2,0.3
		c-0.1,1.2-0.1,2.4-0.2,3.7c-0.2,2.4-0.5,4.8-0.7,7.2c-0.2,2-0.6,4-1.7,5.8c-1.4,2.2-5.2,3.2-7.2,2.8c-1.7-0.4-3.4-0.6-4.8-1.8
		c-1.5-1.2-2.5-2.7-2.5-4.6c0.1-3.4,0.4-6.8,0.7-10.2C-85.6-137.1-85.5-138.5-85.4-140.2z"/>
	<path class="st3" d="M-98.5-121.8c-0.4-0.1-0.5-0.2-0.6-0.2c-0.5-0.2-1.4-0.2-1.6-0.5c-0.2-0.6,0.1-1.3,0.2-1.9
		c0.6-3.5,1.2-7,1.8-10.5c0.3-1.6,0.6-3.2,0.9-4.9c-2-0.4-4.1-0.7-6.2-1.1c0.1-0.7,0.2-1.3,0.4-2.1c5,0.9,9.9,1.7,14.9,2.6
		c-0.1,0.7-0.2,1.4-0.3,2.1c-1.9-0.3-3.7-0.5-5.4-0.9c-0.8-0.2-1,0.2-1.1,0.7c-0.7,3.9-1.3,7.7-2,11.6
		C-97.8-125.3-98.1-123.6-98.5-121.8z"/>
	<path class="st3" d="M-193.3-183.2c-3.4,4.8-6.8,9.6-10.3,14.5c2.5,1.8,5,3.6,7.6,5.4c-0.4,0.6-0.8,1.1-1.3,1.7
		c-3.2-2.3-6.3-4.5-9.5-6.8c0.9-1.3,1.8-2.6,2.7-3.9c2.7-3.8,5.5-7.6,8.2-11.5c0.5-0.8,0.9-0.9,1.5-0.2
		C-194.1-183.6-193.7-183.4-193.3-183.2z"/>
	<path class="st3" d="M-207.4-194.2c0.6,0.5,1.2,0.9,1.9,1.5c-3.7,4.6-7.5,9.2-11.2,13.8c2.4,1.9,4.7,3.8,7.2,5.8
		c-0.4,0.6-0.8,1.1-1.3,1.7c-3.1-2.5-6.1-4.9-9.1-7.4C-215.8-183.9-211.6-189-207.4-194.2z"/>
	<path class="st3" d="M-226.5-184.6c4.5-5,8.9-9.9,13.3-14.8c0.7,0.5,1.3,1,1.9,1.5c-4.4,4.9-8.9,9.9-13.3,14.8
		C-225.3-183.6-225.9-184.1-226.5-184.6z"/>
	<path class="st3" d="M-190.9-157.5c-0.7-0.4-1.3-0.8-2.1-1.3c3.6-5.6,7.1-11.2,10.7-16.8c0.7,0.4,1.4,0.8,2.1,1.3
		C-183.7-168.7-187.3-163.1-190.9-157.5z"/>
	<path class="st3" d="M101.7-173.1c-0.7,0.5-1.3,1-1.9,1.5c-4.1-5.3-8.2-10.5-12.3-15.7c0.7-0.5,1.3-1,1.9-1.5
		C93.5-183.5,97.5-178.3,101.7-173.1z"/>
	<path class="st3" d="M-33-378.1c4.3,0.7,8.4,2,12.1,4c6.4,3.4,11.5,8.2,14.7,14.8c1.4,2.9,2.2,5.9,2.6,9.1c0.7,6,0,11.8-2.2,17.3
		c-1.3,3.3-3.2,6.3-5.5,9.1c-4,4.8-9,8.3-14.6,10.9c-4.5,2.1-9.2,3.5-14.1,4.5c-6.9,1.4-13.8,1.7-20.7,1.4
		c-4.5-0.2-8.9-0.9-13.3-1.7c-6.4-1.2-12.6-3.4-18.4-6.5c-4-2.2-7.9-4.7-11.2-7.8c-1.5-1.4-2.9-3-4.5-4.4c-0.6-0.6-0.5-1.1-0.1-1.7
		c3.6-4.5,7.1-9,10.7-13.6c1.2-1.5,2.4-3.1,3.5-4.6c3,2.3,5.8,4.7,8.9,6.7c5.2,3.4,11,5.6,17.1,7.1c4.9,1.2,9.9,1.5,14.9,1.1
		c5.2-0.4,10.3-1.5,14.8-4.7c4.1-2.9,6.3-6.8,6.4-11.9c0.1-4.1-1.1-7.6-4.3-10.2c-2.4-2-5.1-3.3-8.2-3.8c-3.3-0.6-6.5-1-9.8-1.2
		c-3.1-0.2-6.3-0.3-9.4-0.3c-3.1,0-6.1,0.1-9.2,0.2c-0.7,0-1.5,0.2-2.3,0.3c0-8.6,0-17.1,0-25.7c0.4,0,0.9,0,1.3,0
		c6.1,0,12.2,0.1,18.4,0c5.2-0.1,10.4-0.9,15-3.6c4-2.3,6.3-5.6,6.3-10.3c0.1-3.9-1.3-7-4-9.6c-2.3-2.2-5.2-3.6-8.3-4.6
		c-4.3-1.3-8.7-1.8-13.2-1.7c-6.1,0.2-12.1,1.3-17.8,3.8c-5.2,2.3-9.9,5.3-14.1,9.2c-0.3,0.3-0.7,0.5-1.1,0.8
		c-4.8-6-9.5-11.9-14.5-18.1c2.2-2,4.2-4.1,6.4-5.9c2.5-2,5.1-3.9,7.8-5.7c4.8-3.1,10.1-5.3,15.6-6.8c3.4-0.9,6.8-1.5,10.2-2.1
		c2-0.3,4-0.4,6-0.5c1.9-0.1,3.7-0.3,5.6-0.2c8.9,0.2,17.6,1.1,26,4.3c4.5,1.7,8.6,3.9,12.4,7c4.6,3.7,7.9,8.3,9.9,13.9
		c1.6,4.5,2.1,9.2,1.7,13.9c-0.6,5.9-2.9,11.2-6.9,15.7c-3.6,4.1-8,7.2-13.1,9.3C-27.8-379.8-30.3-379-33-378.1z"/>
</g>
</svg>
