<?xml version="1.0" encoding="utf-8"?>
<!-- Generator: Adobe Illustrator 24.1.3, SVG Export Plug-In . SVG Version: 6.00 Build 0)  -->
<svg version="1.1" id="Layer_1" xmlns="http://www.w3.org/2000/svg" xmlns:xlink="http://www.w3.org/1999/xlink" x="0px" y="0px"
	 viewBox="0 0 400 400" style="enable-background:new 0 0 400 400;" xml:space="preserve">
<style type="text/css">
	.st0{fill:#FFFFFF;}
	.st1{fill:#EFEFEF;}
	.st2{display:none;}
	.st3{display:inline;fill:#222222;}
	.st4{fill:#222222;}
</style>
<circle class="st0" cx="200" cy="200" r="152.5"/>
<path class="st1" d="M169.8,248v3.8h-1.7v-3.7C168.7,248.1,169.2,248.1,169.8,248z"/>
<path class="st1" d="M168.1,255.8c0.5,0,1.1-0.1,1.8-0.1v3.7h-1.8V255.8z"/>
<path class="st1" d="M175.2,260.6v1.8c-1.1-0.1-2.3-0.1-3.7-0.1c0-0.6-0.1-1.1-0.1-1.6C172.7,260.3,173.9,260.4,175.2,260.6z"/>
<path class="st1" d="M182.9,260.5c0,0.6,0.1,1.1,0.1,1.7c-1.3,0.4-2.5,0.3-3.8,0.1v-1.8L182.9,260.5L182.9,260.5z"/>
<path class="st1" d="M188.4,167.1h16.1v2.4c-1.1-0.1-2.3-0.1-3.9-0.1v11.4h-2.9v-11.2h-6.6c-1.1,3.7-2.1,7.4-3.3,11.2h-3.2
	c-0.8-2.9-1.5-5.9-2.4-9.2c-0.8,1.7-1,3.3-1.4,4.7c-0.4,1.5-0.8,2.9-1.2,4.5h-3.2c-1.3-4.5-2.6-9.1-4-13.8h3.3
	c0.8,3.2,1.5,6.3,2.3,9.4c1.3-3,1.9-6.2,2.9-9.3h2.3c0.8,3.1,1.7,6.3,2.6,9.4h0.3C186.9,173.4,187.6,170.3,188.4,167.1z"/>
<path class="st1" d="M227.8,173.2c0,1.7,0.1,3.3,0,4.9c0,0.4-0.5,0.9-0.8,1.2c-2.3,1.9-5,2.2-7.8,1.3c-0.5-0.1-0.9-0.4-1.5-0.6
	c-0.8,1.2-1.9,0.8-3.2,0.7c-0.1-4.6,0-9.1,0-13.8c1.2-0.1,2.4-0.6,3.2,0.6c4.6-1.6,8-0.9,9.8,2.3c-0.7,0.4-1.4,0.8-2.1,1.2
	c-0.3-0.3-0.7-0.6-1-0.8c-1.4-1.1-2.9-1.2-4.5-0.5c-2.3,1-3.2,4.1-2,6.4c1.1,2.2,3.8,3.1,6.1,1.9c1-0.5,1.1-1.2,0.7-2.3h-3.4v-2.5
	L227.8,173.2L227.8,173.2z"/>
<path class="st1" d="M168.1,160.5c-0.3,3.9-0.2,25.5,0.2,26.9h1.8c20.7,0,41.3-0.1,62-0.1l0.1-0.1c0-0.1,0-0.1,0.1-0.2v-26.7
	C228.7,159.9,169.2,160,168.1,160.5z M230.2,185.2H170v-22.9h60.1C230.5,163.6,230.6,183.4,230.2,185.2z"/>
<path class="st1" d="M136.7,216.1c-0.7,0.1-1.2,0.2-1.9,0.4c0.4,1.3,0.7,2.5,1,3.7c0.8-0.2,1.3-0.3,2-0.5
	C137.4,218.4,137,217.3,136.7,216.1z M138.7,223.6c-0.7,0.1-1.2,0.2-2,0.4c0.4,1.3,0.7,2.5,1.1,3.7c0.7-0.2,1.2-0.3,1.9-0.5
	C139.3,225.9,139,224.8,138.7,223.6z M140.7,231c-0.7,0.1-1.3,0.3-2,0.4c0.4,1.3,0.7,2.4,1,3.6c0.6-0.1,1.1-0.2,1.9-0.3
	C141.2,233.4,140.9,232.3,140.7,231z M142.5,238.4c-0.7,0.2-1.3,0.3-2,0.4c0.4,1.3,0.7,2.4,1,3.6c0.7-0.1,1.2-0.2,2-0.3
	C143.1,240.8,142.8,239.7,142.5,238.4z M144.4,245.9c-0.7,0.1-1.2,0.2-1.9,0.4c0.4,1.3,0.4,2.6,1.2,3.7c0.6-0.2,1.1-0.3,1.7-0.5
	C145,248.2,144.7,247.1,144.4,245.9z M146,253.1c-0.7,0.2-1.2,0.3-1.9,0.5c0.4,1.3,0.7,2.4,1,3.6c0.7-0.1,1.3-0.2,2-0.4
	C146.7,255.4,146.4,254.3,146,253.1z M148,260.6c-0.7,0.2-1.2,0.3-1.9,0.5c0.3,1.2,0.6,2.3,0.9,3.6c0.7-0.2,1.3-0.3,2-0.5
	C148.6,262.9,148.3,261.8,148,260.6z M149.9,268c-0.7,0.2-1.2,0.3-1.9,0.5c0.3,1.3,0.7,2.4,1,3.7c0.8-0.3,1.3-0.4,1.9-0.6
	C150.6,270.4,150.3,269.3,149.9,268z M151.8,275.4c-0.7,0.2-1.2,0.4-1.9,0.6c0.5,1.3,0.4,2.5,1.3,3.5c0.5-0.2,1-0.3,1.6-0.5
	C152.4,277.8,152.1,276.7,151.8,275.4z M151.8,275.4c-0.7,0.2-1.2,0.4-1.9,0.6c0.5,1.3,0.4,2.5,1.3,3.5c0.5-0.2,1-0.3,1.6-0.5
	C152.4,277.8,152.1,276.7,151.8,275.4z M149.9,268c-0.7,0.2-1.2,0.3-1.9,0.5c0.3,1.3,0.7,2.4,1,3.7c0.8-0.3,1.3-0.4,1.9-0.6
	C150.6,270.4,150.3,269.3,149.9,268z M148,260.6c-0.7,0.2-1.2,0.3-1.9,0.5c0.3,1.2,0.6,2.3,0.9,3.6c0.7-0.2,1.3-0.3,2-0.5
	C148.6,262.9,148.3,261.8,148,260.6z M146,253.1c-0.7,0.2-1.2,0.3-1.9,0.5c0.4,1.3,0.7,2.4,1,3.6c0.7-0.1,1.3-0.2,2-0.4
	C146.7,255.4,146.4,254.3,146,253.1z M144.4,245.9c-0.7,0.1-1.2,0.2-1.9,0.4c0.4,1.3,0.4,2.6,1.2,3.7c0.6-0.2,1.1-0.3,1.7-0.5
	C145,248.2,144.7,247.1,144.4,245.9z M142.5,238.4c-0.7,0.2-1.3,0.3-2,0.4c0.4,1.3,0.7,2.4,1,3.6c0.7-0.1,1.2-0.2,2-0.3
	C143.1,240.8,142.8,239.7,142.5,238.4z M140.7,231c-0.7,0.1-1.3,0.3-2,0.4c0.4,1.3,0.7,2.4,1,3.6c0.6-0.1,1.1-0.2,1.9-0.3
	C141.2,233.4,140.9,232.3,140.7,231z M138.7,223.6c-0.7,0.1-1.2,0.2-2,0.4c0.4,1.3,0.7,2.5,1.1,3.7c0.7-0.2,1.2-0.3,1.9-0.5
	C139.3,225.9,139,224.8,138.7,223.6z M136.7,216.1c-0.7,0.1-1.2,0.2-1.9,0.4c0.4,1.3,0.7,2.5,1,3.7c0.8-0.2,1.3-0.3,2-0.5
	C137.4,218.4,137,217.3,136.7,216.1z M232.9,49.5c-0.1,0-0.2-0.1-0.3-0.1C222.1,47.2,211.2,46,200,46c-85,0-154,69-154,154
	s69,154,154,154c43.6,0,83-18.1,111-47.2l0,0c26.6-27.7,43-65.3,43-106.8C354,126.3,302.2,64.6,232.9,49.5z M157.2,164.8v93.6
	c0,1.6,0.1,3.2,0.5,4.7c1.4,6,6.7,10,12.9,10h41.2v0.3c-0.4,0.2-0.7,0.3-0.9,0.6c-18.4,4.5-36.9,9.1-55.3,13.7
	c-5.1,1.2-9.8-1.4-11.1-6.6c-2.7-10.2-5.2-20.4-7.8-30.6c-5.5-21.7-11-43.3-16.5-65c-0.2-0.6-0.4-1.2-0.5-1.8
	c-1.1-5.1,1.5-9.7,6.5-11.1c3.6-1,7.3-1.9,11-2.8c6-1.6,12.1-3.1,18.1-4.6C155.9,165.1,156.4,165,157.2,164.8z M171.6,269.4
	c-1.1,0-2.2-0.1-3.2-0.3c-4.3-0.9-7.2-4.6-7.3-8.9v-99.3c0-1.2,0-2.5,0.3-3.7c0.9-4,4.5-6.7,8.6-6.9h62c0.9,0,1.8,0,2.7,0.2
	c5.1,1,7.6,5.5,7.6,9.3v50c0,16.5,0,32.9,0.1,49.3c0,1.2,0,2.3-0.3,3.4c-1.1,4-4.4,6.7-8.5,6.9H171.6z M149.9,276
	c0.5,1.3,0.4,2.5,1.3,3.5c0.5-0.2,1-0.3,1.6-0.5c-0.4-1.2-0.7-2.3-1-3.6C151.1,275.6,150.6,275.8,149.9,276z M149.9,268
	c-0.7,0.2-1.2,0.3-1.9,0.5c0.3,1.3,0.7,2.4,1,3.7c0.8-0.3,1.3-0.4,1.9-0.6C150.6,270.4,150.3,269.3,149.9,268z M148,260.6
	c-0.7,0.2-1.2,0.3-1.9,0.5c0.3,1.2,0.6,2.3,0.9,3.6c0.7-0.2,1.3-0.3,2-0.5C148.6,262.9,148.3,261.8,148,260.6z M146,253.1
	c-0.7,0.2-1.2,0.3-1.9,0.5c0.4,1.3,0.7,2.4,1,3.6c0.7-0.1,1.3-0.2,2-0.4C146.7,255.4,146.4,254.3,146,253.1z M144.4,245.9
	c-0.7,0.1-1.2,0.2-1.9,0.4c0.4,1.3,0.4,2.6,1.2,3.7c0.6-0.2,1.1-0.3,1.7-0.5C145,248.2,144.7,247.1,144.4,245.9z M142.5,238.4
	c-0.7,0.2-1.3,0.3-2,0.4c0.4,1.3,0.7,2.4,1,3.6c0.7-0.1,1.2-0.2,2-0.3C143.1,240.8,142.8,239.7,142.5,238.4z M140.7,231
	c-0.7,0.1-1.3,0.3-2,0.4c0.4,1.3,0.7,2.4,1,3.6c0.6-0.1,1.1-0.2,1.9-0.3C141.2,233.4,140.9,232.3,140.7,231z M138.7,223.6
	c-0.7,0.1-1.2,0.2-2,0.4c0.4,1.3,0.7,2.5,1.1,3.7c0.7-0.2,1.2-0.3,1.9-0.5C139.3,225.9,139,224.8,138.7,223.6z M136.7,216.1
	c-0.7,0.1-1.2,0.2-1.9,0.4c0.4,1.3,0.7,2.5,1,3.7c0.8-0.2,1.3-0.3,2-0.5C137.4,218.4,137,217.3,136.7,216.1z"/>
<g class="st2">
	<path class="st3" d="M354,205.7c-0.1,1.6-0.2,3.1-0.3,4.7c-0.8,13.6-3.2,26.9-7.6,39.7c-14.4,42-41.6,72.7-81.7,91.9
		c-12.9,6.2-26.6,10.1-40.7,12.2c-10,1.5-20,2-30,1.4c-31.8-1.8-60.3-12.4-85.3-32c-27.7-21.8-45.8-49.9-54.7-84
		c-2.5-9.6-3.9-19.3-4.5-29.2c-0.6-9.2-0.3-18.4,0.8-27.6c3.4-28.5,13.7-54.3,31.3-77.1c20-25.8,45.6-43.6,76.9-53.2
		c10.3-3.1,20.9-5.1,31.6-5.9c46.3-3.5,91.2,14.1,122.7,48.2c18.8,20.4,31.3,44.1,37.6,71.1c2.2,9.6,3.5,19.3,3.8,29.1
		c0,0.4,0.1,0.8,0.1,1.2C354,199.4,354,202.6,354,205.7z M350.6,199.7c-0.2-3.4-0.4-8.2-0.8-12.9c-0.7-9.1-2.4-18-4.8-26.8
		c-12.1-43.7-42.8-78.9-81.9-96.9c-17.5-8-35.9-12.5-55.1-13.3c-13.4-0.6-26.7,0.5-39.8,3.6c-31.2,7.4-57.4,23.2-78.4,47.4
		c-23.9,27.5-36.1,59.7-37.3,96.1c-0.5,14.9,1.2,29.7,5.2,44.1c8.4,30.8,24.8,56.6,49.3,77c25.6,21.3,55.1,32.7,88.4,34.2
		c13.9,0.6,27.5-0.7,41-4c31.1-7.7,57.1-23.8,77.9-48.2C338.3,271.5,350.1,238.3,350.6,199.7z"/>
	<path class="st3" d="M46,100.5c0.7-1,1.5-2,2.2-2.9c1.8-2.5,3.5-5.2,5.6-7.5c2.1-2.5,5.7-2.8,8.2-0.5c1.6,1.5,2,3.2,1.6,5.2
		c0.9-0.3,1.8-0.5,2.7-0.8c1.5-0.5,2.9,0.2,4,1c1.3,0.9,2.2,2.1,2.5,3.8c0.3,1.7-0.2,3.2-1.1,4.5c-2.3,3.4-4.7,6.7-7.1,10
		c-0.3,0.4-0.5,0.3-0.8,0.1c-3-2.2-6-4.4-9.1-6.5c-2.8-2-5.6-4.1-8.5-6.1c-0.1-0.1-0.2,0-0.3-0.1C46,100.7,46,100.6,46,100.5z
		 M63.8,107.5c0.5-0.6,0.9-1.2,1.3-1.7c0.9-1.4,1.9-2.7,2.8-4.1c0.6-1.1,0.3-2.5-0.7-3.1c-1.1-0.7-2.3-1.1-3.4,0.2
		c-1.5,1.8-2.8,3.7-4.3,5.6C61,105.4,62.4,106.5,63.8,107.5z M56.2,101.9c0.1-0.1,0.3-0.2,0.4-0.4c1-1.4,2.1-2.8,3.1-4.3
		c0.4-0.6,0.7-1.3,0.7-2c-0.1-1-0.7-1.8-1.7-2.2c-0.9-0.3-2,0-2.7,0.9c-1.2,1.5-2.3,3.1-3.4,4.7c-0.2,0.3-0.2,0.6,0.1,0.8
		C53.8,100.3,55,101.1,56.2,101.9z"/>
	<path class="st3" d="M195.3,15.9c1,0.2,2,0.4,2.9,0.7c4.2,1.4,6.7,4.4,7.5,8.8c0.6,3.1,0.1,6.1-1.6,8.8c-1.8,2.8-4.4,4.3-7.6,4.8
		c-3.4,0.6-6.6,0.1-9.4-2c-2.5-1.8-3.9-4.3-4.4-7.3c-0.4-2.4-0.2-4.8,0.8-7.1c1.2-2.7,3.1-4.6,5.8-5.7c1.2-0.5,2.5-0.6,3.8-0.9
		c0.1,0,0.2-0.1,0.2-0.2C193.9,15.9,194.6,15.9,195.3,15.9z M201.1,27.5c0-0.3-0.1-0.8-0.2-1.3c-0.5-4.2-4.5-6.9-8.9-5.6
		c-2.7,0.8-4.1,2.9-4.5,5.7c-0.4,3.1,0.3,5.6,2.8,7.6c1.9,1.5,5.4,1.6,7.4,0.3C200,32.7,201,30.4,201.1,27.5z"/>
	<path class="st3" d="M199.8,384.1c-1.1-0.5-2.1-0.9-3.2-1.4c-0.1,0-0.2-0.1-0.3-0.2c-0.8-0.7-0.8-0.7-0.1-1.5
		c0.1-0.1,0.2-0.3,0.3-0.4c0.7,0.5,1.4,1.1,2.2,1.4c1.4,0.6,2.9,0.9,4.4,0.1c0.8-0.4,1.3-1,1.3-2c0-0.9-0.6-1.5-1.3-1.8
		c-1.4-0.6-2.8-1-4.2-1.5c-1.3-0.5-2.4-1.2-2.6-2.7c-0.3-2,0.6-3.4,2.5-4.1c2.4-0.9,5.7-0.3,7.3,1.7c-0.4,0.4-0.7,0.7-1.1,1.2
		c-0.9-1.1-2.1-1.5-3.5-1.7c-1-0.2-1.9,0-2.7,0.6c-1,0.8-1.3,2.2,0.2,3.1c0.8,0.5,1.8,0.7,2.7,1c0.7,0.2,1.4,0.4,2,0.7
		c2,0.8,2.7,2.5,2.5,3.8c-0.3,1.9-1,2.9-3.3,3.6c-0.1,0-0.3,0.1-0.4,0.2C201.6,384.1,200.7,384.1,199.8,384.1z"/>
	<path class="st3" d="M339.4,100.3c3.8-3,7.4-5.8,11.1-8.7c1,1.3,2,2.5,2.9,3.8c-5.9,4.6-11.7,9.2-17.7,13.8
		c-0.4-0.4-0.8-0.9-1.1-1.3c-0.3-0.4-0.7-0.9-1-1.3c-0.5-0.6-0.8-1.1-0.5-2c1.6-5.4,3.1-10.8,4.6-16.2c0,0,0-0.1-0.1-0.2
		c-3.8,3-7.6,6-11.4,8.9c-1-1.3-2-2.5-2.9-3.7c5.9-4.6,11.8-9.2,17.7-13.9c0.9,1.2,1.8,2.3,2.7,3.5c0.2,0.2,0.3,0.6,0.2,0.8
		c-1.4,5.3-2.9,10.5-4.4,15.7C339.5,99.7,339.5,99.9,339.4,100.3z"/>
	<path class="st3" d="M178.7,40.1c-1.4,0.3-2.7,0.4-4,0.9c-1.6,0.6-2.1-0.6-2.8-1.4c-1.2-1.4-2.5-2.7-3.5-4.2
		c-0.8-1.3-1.8-1.1-2.9-0.8c-0.5,0.1-1,0.2-1.6,0.4c0.5,2.6,1.1,5.2,1.6,7.8c-1.4,0.3-2.8,0.6-4.2,0.9c-0.2,0-0.5-0.3-0.6-0.5
		c-0.9-4.6-1.8-9.1-2.7-13.7c-0.5-2.4-1-4.8-1.5-7.2c0-0.2,0-0.3,0-0.6c2.7-0.5,5.3-1.1,8-1.6c1.2-0.2,2.3-0.6,3.5-0.6
		c2.3-0.1,4.4,0.5,6,2.4c1.7,2,2.5,5.8,1,8.2c-0.6,0.9-1.4,1.7-2.3,2.4c-0.5,0.4-0.5,0.6-0.1,1c1.3,1.4,2.6,2.8,3.9,4.3
		C177.1,38.4,177.8,39.2,178.7,40.1z M161.9,24.8c0.4,2,0.8,4,1.2,6c0.5-0.1,1.1-0.2,1.6-0.3c1.5-0.4,3.1-0.7,4.5-1.2
		c1.5-0.5,2-2.1,1.4-3.7c-0.4-1.2-2.2-2.1-3.5-1.8C165.4,24.1,163.7,24.4,161.9,24.8z"/>
	<path class="st3" d="M319,85c-6.4,0.1-12.3-5.8-12.1-12.1c0.2-6.2,5.4-11.7,11.8-11.6c6.4,0.1,11.9,5.5,12,11.9
		C330.7,79.5,325.2,84.9,319,85z M311.6,73.8c-0.3,3.5,3.3,6.8,6.8,6.7c3.3-0.1,6.6-3,7.4-6.5c1-4.2-2.8-8.8-7.8-8
		C314.8,66.5,311.4,70.1,311.6,73.8z"/>
	<path class="st3" d="M240.4,29.6c3.5,0.9,7,1.7,10.6,2.6c-0.3,1.2-0.6,2.4-0.9,3.6c-0.1,0.5-0.5,0.4-0.8,0.3
		c-3.3-0.8-6.6-1.6-9.9-2.4c-0.4,1.7-0.8,3.3-1.2,5c3.4,0.8,6.7,1.6,10.1,2.4c0.5,0.1,0.7,0.2,0.5,0.8c-0.3,1.1-0.5,2.2-0.8,3.4
		c-1.4-0.3-2.7-0.6-4.1-1c-3.6-0.9-7.2-1.8-10.8-2.6c-0.4-0.1-0.5-0.2-0.4-0.7c0.9-3.6,1.8-7.3,2.7-10.9c0.8-3.5,1.7-7,2.5-10.4
		c5,1.2,9.9,2.4,14.9,3.6c0.5,0.1,0.6,0.3,0.5,0.8c-0.3,1-0.5,1.9-0.7,2.9c-0.1,0.5-0.2,0.6-0.7,0.4c-3.2-0.8-6.4-1.5-9.6-2.3
		c-0.6-0.2-0.8,0-0.9,0.6C241.1,27,240.7,28.3,240.4,29.6z"/>
	<path class="st3" d="M79,88.2c2.7-2.8,5.3-5.5,8-8.4c0.9,1.1,1.7,2.1,2.7,3.2c-3.4,3.6-7,7.4-10.7,11.3c-0.1-0.1-0.2-0.1-0.3-0.2
		c-1.7-1.6-3.4-3.3-5.1-4.9c-2.6-2.5-5.1-4.9-7.7-7.4c-1.1-1-2.1-2-3.3-3c3.7-3.9,7.3-7.7,11-11.5c1,0.9,2.1,1.9,3.1,2.8
		c-2.6,2.7-5.1,5.4-7.4,7.7c1,1.3,2,2.5,3,3.7c2.7-2.8,5.1-5.4,7.6-7.9c1,0.9,2,1.9,3.1,2.8c-2.5,2.7-5,5.3-7.5,7.9
		C76.7,85.7,77.8,86.9,79,88.2z"/>
	<path class="st3" d="M90.8,73.3c2.1,0.2,4.1-0.2,5.9-1.3c1-0.6,1.9-1.5,2.7-2.4c0.6-0.6,0.8-1.5,0.5-2.4c-0.4-0.9-1.2-1.4-2.2-1.1
		c-1.2,0.4-2.3,0.9-3.5,1.3c-1.7,0.6-3.4,1.4-5.2,1.9c-3.4,0.8-6.2-1.7-6.9-4.6c-0.6-2.7,0.4-4.9,2.2-6.9c1.8-1.9,3.9-3.2,6.4-3.9
		c1.2-0.3,2.4-0.4,3.8-0.6c0,1.6,0,3.1,0,4.5c-2.9,0.1-5.5,0.9-7.5,3.3c-1.1,1.3-0.6,3.1,0.8,3.3c0.6,0.1,1.3-0.2,1.9-0.4
		c1.8-0.7,3.5-1.5,5.3-2.2c2-0.8,4-1.1,6-0.1c2.4,1.3,4.2,4.7,3.3,7.7c-0.8,2.3-2.3,4-4.2,5.5c-1.6,1.3-3.5,2.3-5.5,2.7
		c-1.1,0.2-2.2,0.2-3.3,0.3c-0.2,0-0.5-0.2-0.5-0.4C90.8,76,90.8,74.6,90.8,73.3z"/>
	<path class="st3" d="M131.8,29.6c2.9-1,5.7-2,8.5-3c1.6-0.6,3.1-1.2,4.8-1c2,0.2,3.7,1,5,2.6c1.1,1.5,1.7,3.1,1.6,4.9
		c-0.1,2.7-1.3,4.7-3.7,5.9c-2.2,1.1-4.5,1.8-6.9,2.7c0.9,2.4,1.7,4.9,2.6,7.5c-1.5,0.5-3,1.1-4.5,1.6
		C136.8,43.8,134.3,36.7,131.8,29.6z M139.8,37.8c1.9-0.7,3.8-1.4,5.6-2.2c1.3-0.6,1.9-2.3,1.3-3.7c-0.5-1.2-1.6-2.2-3.2-1.8
		c-1.8,0.5-3.6,1.1-5.4,1.7c-0.1,0-0.3,0.3-0.2,0.4C138.4,34.1,139.1,35.9,139.8,37.8z"/>
	<path class="st3" d="M278.7,38.4c-1.5,0.1-3,0.2-4.4,0.4c-0.6-2.7-2-4.6-4.7-5.3c-2.2-0.6-4.1-0.2-5.9,1.2c-2.6,2-3.8,5.6-2.7,8.7
		c1.2,3.5,5.2,5.6,8.8,4c0.5-0.2,0.9-0.6,1.4-0.9c1,1.1,2,2.2,3,3.3c-3.8,3.1-8.6,3.5-13.5,0.1c-4.4-3.1-6-8-4.2-13.3
		c0.9-2.5,2.4-4.6,4.7-6c1.9-1.2,4-1.9,6.2-1.7C274.5,29.4,277.9,33.2,278.7,38.4z"/>
	<path class="st3" d="M218.6,21.2c-2.2-0.2-4.3-0.5-6.5-0.7c0.1-1.3,0.3-2.7,0.4-4.2c5.9,0.6,11.8,1.3,17.8,1.9
		c-0.1,0.8-0.1,1.6-0.2,2.4c0,0.3-0.1,0.7-0.1,1c0.1,0.8-0.3,0.9-0.9,0.8c-1.7-0.2-3.5-0.5-5.2-0.6c-0.2,0-0.6,0.4-0.6,0.6
		c-0.2,1.2-0.2,2.4-0.4,3.6c-0.2,1.9-0.4,3.8-0.6,5.7c-0.1,1.3-0.2,2.5-0.4,3.8c-0.2,1.5-0.3,3-0.5,4.4c-1.6-0.2-3.1-0.3-4.8-0.5
		C217.3,33.3,218,27.3,218.6,21.2z"/>
	<path class="st3" d="M114,38c0.7,1.2,1.4,2.4,2.1,3.6c-1.7,1-3.3,2-4.9,3c-0.5,0.3-0.6,0.4-0.3,1c3,5,6,10,9.1,15.1
		c-1.3,0.8-2.7,1.6-4.1,2.5c-1.2-2-2.3-3.9-3.5-5.8c-1.9-3.1-3.7-6.2-5.6-9.3c-0.2-0.4-0.5-0.5-0.9-0.3c-1.7,1-3.4,2.1-5,3.1
		c-0.7-1.2-1.5-2.4-2.2-3.6C103.7,44.2,108.8,41.1,114,38z"/>
	<path class="st3" d="M284.9,61.7c-1.4-0.8-2.8-1.6-4.1-2.4c3.1-5.3,6.1-10.5,9.2-15.8c-1.9-1.1-3.8-2.2-5.7-3.3
		c0.7-1.2,1.4-2.4,2.1-3.6c5.2,3,10.3,6,15.5,9c-0.7,1.2-1.4,2.4-2.1,3.6c-1.9-1.1-3.7-2.1-5.7-3.3C291,51.2,288,56.5,284.9,61.7z"
		/>
	<path class="st3" d="M307.5,49.7c1.3,0.9,2.6,1.9,3.9,2.8c-2.9,4.1-5.8,8.1-8.7,12.2c-1.3,1.8-2.6,3.7-4,5.5
		c-0.3,0.4-0.6,0.5-1.1,0.1c-0.9-0.7-1.8-1.4-2.7-2c-0.4-0.3-0.4-0.5-0.1-0.9c1.3-1.8,2.6-3.6,3.9-5.4c2-2.7,3.9-5.5,5.9-8.2
		C305.5,52.4,306.5,51.1,307.5,49.7z"/>
	<path class="st3" d="M214.4,369.4c2.3-0.2,4.5-0.5,6.8-0.6c1.8-0.1,3.1,0.8,3.5,2.5c0.4,1.3,0.1,3.2-1.7,3.9c0,0,0,0.1-0.1,0.2
		c1.4,0.3,2.4,1.2,2.8,2.6c0.5,2.4-0.4,4-2.7,4.5c-2.2,0.5-4.5,0.6-6.7,0.9c-0.2,0-0.5-0.4-0.6-0.6c-0.3-2.3-0.5-4.6-0.7-7
		c-0.2-1.8-0.4-3.6-0.7-5.4C214.4,370.1,214.4,369.8,214.4,369.4z M217.4,381.6c1.5-0.1,2.8-0.3,4.2-0.4c1.4-0.2,2.5-0.9,2.4-2.7
		c-0.1-1.3-1.2-2.3-2.5-2.2c-1.5,0.1-3.1,0.3-4.7,0.5C217,378.5,217.2,380,217.4,381.6z M216.2,370.8c0.2,1.6,0.4,3,0.5,4.5
		c1.5-0.2,2.9-0.3,4.3-0.5c1.2-0.1,2.2-1.2,2.1-2.3c-0.1-1.4-1.3-2.4-2.6-2.3C219.1,370.4,217.7,370.6,216.2,370.8z"/>
	<path class="st3" d="M180.4,374.1c0,2.9-1,5.1-3.2,6.6c-4,2.8-10.3,0.2-10.7-5c-0.2-2.6,0.4-4.8,2.2-6.6c1.9-1.9,4.2-2.1,6.6-1.5
		C178.4,368.3,180.6,371,180.4,374.1z M173.5,368.8c-1.3-0.1-2.5,0.4-3.3,1.2c-1.7,1.8-2.4,4-1.7,6.4c0.9,3.5,5,4.9,7.7,2.9
		c2.1-1.5,2.6-3.7,2.4-6.1C178.3,370.5,176,368.8,173.5,368.8z"/>
	<path class="st3" d="M250.7,377.1c-3,0.8-6,1.5-8.9,2.3c-1.1-4.3-2.2-8.7-3.3-13c-0.1-0.5,0-0.6,0.4-0.7c2.8-0.7,5.5-1.4,8.3-2.1
		c0.1,0.5,0.2,1,0.3,1.5c-2.4,0.6-4.8,1.2-7.2,1.9c0.4,1.3,0.7,2.6,1,3.9c0.1,0.4,0.3,0.5,0.7,0.4c2.2-0.6,4.3-1.1,6.5-1.7
		c0.1,0.5,0.3,1,0.4,1.5c-2.4,0.6-4.7,1.2-7.1,1.8c0.4,1.6,0.8,3.1,1.2,4.7c2.4-0.6,4.7-1.2,7.2-1.8
		C250.4,376.1,250.5,376.5,250.7,377.1z"/>
	<path class="st3" d="M182.3,381c0.3-0.4,0.7-0.8,1-1.3c1.4,1.9,4.1,2.8,6.1,2.2c0.8-0.3,1.5-0.8,1.7-1.7c0.2-1-0.1-1.8-1.1-2.2
		c-1.2-0.5-2.4-1-3.6-1.6c-0.7-0.4-1.5-0.8-2.1-1.3c-1.7-1.4-1.1-4.2,0.8-5.3c2.3-1.4,6.4-0.6,8.1,1.6c-0.4,0.4-0.7,0.7-1.1,1.1
		c-1.3-1.6-3.1-2.1-5.1-1.8c-1,0.1-1.8,0.9-1.9,1.8c-0.1,0.8,0.6,1.6,1.6,2.1c1.5,0.6,3,1.2,4.5,2c1.4,0.7,1.8,2,1.7,3.5
		c-0.2,1.3-0.9,2.4-2.1,3C188.2,384.3,184,383.4,182.3,381z"/>
	<path class="st3" d="M156.5,363.6c2.1,0.6,4,1,5.8,1.6c1.9,0.6,3.2,2.3,3,4c-0.4,2.7-1.5,4-4,4.2c-1.1,0.1-2.3-0.4-3.5-0.7
		c-1.8-0.4-1.8-0.5-2.3,1.2c-0.4,1.2-0.6,2.5-1,3.7c-0.5-0.1-1.1-0.2-1.7-0.4C154.1,372.7,155.3,368.2,156.5,363.6z M156.4,370.7
		c1.3,0.3,2.5,0.5,3.6,0.9c1.4,0.4,2.8-0.3,3.3-1.7c0.5-1.5-0.2-3-1.8-3.4c-1.2-0.4-2.4-0.6-3.8-1
		C157.3,367.2,156.9,368.9,156.4,370.7z"/>
	<path class="st3" d="M231.6,379.7c1.5-0.3,2.9-0.5,4.4-0.8c0.3-0.1,0.7-0.1,1-0.2c1.1-0.3,1.4,0,1.3,1c0,0.1-0.2,0.3-0.4,0.4
		c-2.5,0.5-5,0.9-7.5,1.4c-0.1,0-0.2,0-0.3,0c-0.8-4.5-1.7-9.1-2.5-13.7c0.6-0.1,1.1-0.2,1.7-0.3
		C230.1,371.5,230.8,375.6,231.6,379.7z"/>
	<path class="st3" d="M209.1,369.6c0.6,0,1.1,0,1.7,0c0.1,1,0.2,2,0.2,3c0.1,1.8,0.1,3.5,0.2,5.3c0.1,1.7,0.2,3.3,0.3,5
		c0,0.2,0,0.4,0,0.6c-0.6,0-1,0-1.7,0C209.5,378.9,209.3,374.3,209.1,369.6z"/>
	<path class="st3" d="M133.1,123.9c5.5,4.4,11.4,7.5,17.8,9.8c7.3,2.6,14.8,3.6,22.6,2.7c10.2-1.3,19.1-5.4,27.2-11.7
		c0.2-0.1,0.4-0.3,0.5-0.4c0.3-0.4,0.5-0.3,0.9,0c4.6,3.9,9.8,6.8,15.3,9c3.5,1.4,7.1,2.4,10.8,3s7.5,0.7,11.2,0.3
		c10.3-1,19.5-4.7,28-10.6c0.9-0.6,1.7-1.3,2.7-2c0,0.4,0.1,0.6,0.1,0.9c0,31.9,0,63.8-0.1,95.7c0,4.7-0.6,9.3-1.5,13.9
		c-2.2,11.3-7.6,20.9-15,29.6c-9.9,11.6-21.9,20.5-35.8,26.9c-5,2.3-10.2,4.3-15.6,5.7c-0.4,0.1-1,0.1-1.4,0c-5-1.3-9.8-3-14.4-5.1
		c-14.3-6.4-26.7-15.5-36.9-27.5c-5.4-6.3-9.8-13.2-12.6-21.1c-1.4-3.9-2.3-7.9-2.9-11.9c-1-6.8-1-13.7-1-20.6c0-28.5,0-57,0-85.4
		C133,124.7,133.1,124.4,133.1,123.9z"/>
</g>
<g>
	<path class="st4" d="M196.8,15.1c0.1,2.5,0.2,4.9,0.3,7.4c0.1,2.2,0.3,4.4,0.4,6.6c0.3,5.3-2.8,8.7-7.8,9.5c-2.4,0.4-4.7,0.4-7-0.5
		c-3.4-1.3-5.1-4-5.4-7.5c-0.3-2.6-0.3-5.3-0.5-7.9c-0.1-1.6-0.2-3.3-0.3-4.9c0-0.3,0-0.7,0.1-1.2c1.4-0.1,2.9-0.2,4.4-0.3
		c0.1,0.4,0.2,0.7,0.3,1.1c0.2,3.9,0.4,7.8,0.7,11.6c0.1,0.8,0.2,1.6,0.5,2.3c0.9,2.7,2.7,3.4,5.1,3.3c3.7-0.1,5.6-2.7,5.3-6.4
		c-0.3-3.2-0.5-6.4-0.7-9.6c-0.1-1-0.1-2-0.2-3.1c1.1-0.1,2-0.1,2.8-0.2c0.5-0.1,1-0.2,1.4-0.3C196.3,15.1,196.5,15.1,196.8,15.1z"
		/>
	<path class="st4" d="M366.6,122.4c-0.8,0.3-1.7,0.6-2.5,0.9c-3.4,1.5-6.8,3-10.3,4.4c-0.3,0.1-0.6,0.2-1,0.4
		c-0.5-1.1-1-2.1-1.6-3.3c4.4-2.4,8.7-4.8,13.2-7.3c0.7,1.4,1.4,2.8,2.1,4.1C366.6,121.9,366.6,122.2,366.6,122.4z"/>
	<path class="st4" d="M210.4,384.9c-0.4-0.2-0.7-0.4-1.1-0.6c-3.9-1.3-5.2-5.9-4.4-8.8c1.1-3.8,4.7-5.7,8.2-5.1
		c1.4,0.2,2.6,0.9,3.6,2.2c-0.4,0.3-0.7,0.5-1,0.8c-3.5-2.3-6.2-2-8.2,0.6c-1.8,2.3-1.3,6.1,0.9,8c2.3,2,5.1,1.7,7.7-0.8
		c0.4,0.1,0.8,0.3,1.2,0.4c0,0.2,0,0.4-0.1,0.5c-0.8,1.2-1.9,1.9-3.2,2.4c-0.3,0.1-0.6,0.3-0.9,0.4
		C212.2,384.9,211.3,384.9,210.4,384.9z"/>
	<path class="st4" d="M189,384.9c0-1.6,0-3.3,0.2-4.9c0.1-0.8-0.1-1.3-0.4-1.9c-1.5-2.4-2.9-4.8-4.4-7.2c1.6-0.4,1.6-0.4,2.3,0.7
		c0.8,1.3,1.6,2.7,2.4,4.1c0.3,0.5,0.7,1,1.1,1.7c1.4-1.8,2.7-3.5,3.9-5.3c0.6-0.9,1.3-1.3,2.5-0.9c-0.2,0.4-0.4,0.8-0.7,1.1
		c-1.2,1.5-2.2,3.1-3.5,4.6c-1.3,1.4-1.7,3.1-1.7,4.9c0,1,0,2,0,3C190.1,384.9,189.5,384.9,189,384.9z"/>
	<path class="st4" d="M349.5,174.8c-3.6-21.2-11.2-40.9-22.9-59c-21.4-33-54.5-57.1-93.7-66.3c-0.1,0-0.2-0.1-0.3-0.1
		c-8.8-2-17.9-3.3-27.2-3.8c-10.6-0.5-21.1,0.2-31.6,1.9c-19.7,3.3-38.2,10.1-55.2,20.7C72.8,96.8,45,147,45,201.3
		c0.1,10.4,1,20.8,2.9,30.9c6.4,31.1,20.7,58.1,43.3,80.4c26.9,26.4,59.3,41.1,97,43.9c11.7,0.9,23.4,0.2,34.9-1.7
		c18.3-3,35.6-9.2,51.6-18.6c13.5-7.9,25.8-17.9,36.3-29.4l0,0c23.1-25.4,38-58.6,40.4-95.5C352.2,199.1,351.5,186.9,349.5,174.8z
		 M347.7,215.9c-0.2,2.1-0.4,4.1-0.7,6.2c-0.2,1.4-0.4,2.8-0.6,4.1c-0.1,0.6-0.2,1.3-0.3,1.9c-0.4,2.2-0.8,4.4-1.3,6.5
		c-3.2,15.1-8.7,29.4-16.3,42.7l0,0c-0.6,1.1-1.3,2.2-1.9,3.2c-0.3,0.5-0.7,1.1-1,1.6c-1.7,2.7-3.5,5.4-5.4,8
		c-1.3,1.8-2.6,3.5-3.9,5.2c-2,2.6-4.2,5.2-6.4,7.7c-0.6,0.7-1.2,1.3-1.8,2c-0.6,0.6-1.2,1.3-1.8,1.9c-0.6,0.6-1.2,1.2-1.7,1.8
		c-18.1,18.6-39.8,31.6-65.1,39c-1.1,0.3-2.2,0.6-3.3,0.9c-0.6,0.2-1.2,0.3-1.8,0.5c-7,1.8-14.2,2.9-21.4,3.6
		c-6,0.6-11.8,0.8-17.7,0.7c-1,0-2,0-2.9-0.1c-0.6,0-1.3,0-1.9-0.1c-4.9-0.3-9.8-0.8-14.5-1.5c-1.7-0.3-3.4-0.5-5.1-0.8
		c-0.6-0.1-1.3-0.2-1.9-0.4c-1.9-0.4-3.8-0.8-5.6-1.2c-4.1-1-8.2-2.1-12.2-3.5c-0.8-0.3-1.6-0.5-2.4-0.8l0,0
		c-1.6-0.6-3.2-1.2-4.7-1.8c-2.4-0.9-4.7-1.9-7-3c-6.5-3-12.9-6.5-19-10.6c-2.2-1.4-4.3-2.9-6.4-4.4c-7.3-5.3-13.9-11-19.9-17.2
		c-1.7-1.7-3.4-3.5-5-5.3l0,0c-1.3-1.5-2.6-3-3.9-4.5c-0.7-0.9-1.4-1.7-2.1-2.6c-4.1-5.2-7.8-10.7-11.2-16.5c-0.5-1-1.1-1.9-1.6-2.9
		c-0.5-0.9-0.9-1.8-1.4-2.6c-0.9-1.8-1.8-3.5-2.7-5.3c-0.9-1.8-1.7-3.6-2.5-5.5c-3.9-9.1-7-18.7-9.3-28.9c-2.3-10-3.4-20.1-3.5-30.3
		c0-1.3,0-2.6,0-3.8c0-0.8,0-1.7,0-2.5c0-1.4,0.1-2.8,0.2-4.2c2.8-54.9,34.9-104.4,84-128.7c14-6.9,28.7-11.6,44.2-13.8
		c7.2-1,14.4-1.5,24.8-1.6c38.5,0.7,74.2,15.6,103.4,45.4c21.1,21.5,34.4,47.2,40.4,76.7c2.5,12.6,3.4,25.4,2.7,38.2
		C348.1,211.5,347.9,213.7,347.7,215.9z"/>
	<path class="st4" d="M119.3,53c-0.9-2.7-3.1-4.3-5.9-4.2h-0.8c0-0.1,0-0.2,0-0.2c0.1-0.2,0.2-0.4,0.3-0.6c1.1-2.1,0.8-4.1-0.6-5.9
		c-1.4-1.9-3.4-2.6-5.7-2c-0.9,0.2-1.8,0.6-2.6,1.1c-1.7,1-3.4,2.1-5.1,3.1c-1.6,1-3.1,2-4.8,3c4,6.5,7.9,12.8,11.5,19.1
		c0.4,0,0.5,0,0.6-0.1c2.3-1.4,4.5-2.7,6.7-4.1c1.4-0.8,2.9-1.6,4.2-2.6C119.3,58,120.1,55.4,119.3,53z M100.3,48.4
		c2-1.2,4-2.4,6-3.5c0.9-0.5,1.9-0.1,2.6,0.7c0.6,0.8,0.8,1.8,0.3,2.7c-0.3,0.4-0.5,0.8-0.9,1c-1.7,1.1-3.5,2.1-5.4,3.3
		C102,51.1,101.2,49.8,100.3,48.4z M113.3,57.2c-1.8,1.1-3.6,2.2-5.5,3.4c-0.9-1.5-1.8-3-2.7-4.6c1.9-1.2,3.7-2.3,5.5-3.3
		c1.4-0.8,2.9-0.4,3.7,0.9C115.1,54.9,114.8,56.2,113.3,57.2z"/>
	<path class="st4" d="M52.2,111.1c0-0.5,0.1-0.8,0.1-1.1c0.3-4.5-4.2-8.4-8.7-7.4c-2.3,0.5-3.8,2-5,4c-1.7,2.9-3.4,5.9-5.2,9
		c6.6,3.8,13,7.5,19.6,11.1c0.9-1.5,1.6-2.7,2.4-4.1c-2.3-1.3-4.6-2.6-6.9-4c0.4-0.6,0.7-1.2,1-1.8c0.8-1.4,1-1.4,2.7-1.3
		c2.1,0.2,4.3,0.2,6.4,0.2c0.3,0,0.8-0.1,1-0.4c0.8-1.3,1.6-2.6,2.5-4.2C62.1,111.1,52.2,111.1,52.2,111.1z M47.6,111.6
		c-0.8,1.7-1.8,3.3-2.8,5.1c-1.9-1.1-3.6-2-5.4-3.2c1-1.6,1.8-3.2,2.8-4.7s2.6-1.9,4-1.1C47.7,108.5,48.3,110,47.6,111.6z"/>
	<path class="st4" d="M304.4,48.6c-2.9-2.2-6-4.1-9.1-6.2c-4.2,6.3-8.3,12.4-12.6,18.7c1.4,0.9,2.6,1.7,3.9,2.6
		c1.5-2.3,3-4.4,4.5-6.6c0.5,0.3,0.9,0.6,1.3,1c1.3,0.6,1.7,1.5,1.5,3c-0.4,2.4-0.5,4.8-0.7,7.3c1.5,0.8,2.8,2.1,4.5,2.8
		c0.2-3.4,0.4-6.5,0.6-9.5c1,0,1.9,0.1,2.7,0c1-0.2,2.1-0.4,2.9-0.9C307.6,58.7,309.7,52.5,304.4,48.6z M302.2,55.9
		c-1,1.4-2.6,1.8-4.3,0.7c-1.5-0.9-2.9-2-4.5-3c1.2-1.7,2.3-3.3,3.5-5.1c1.7,1.1,3.1,2,4.4,3.1C302.9,52.8,303.2,54.4,302.2,55.9z"
		/>
	<path class="st4" d="M339.1,79.8c-7.6,2.6-15.1,5.2-22.9,7.8c1.3,1.5,2.4,2.8,3.3,4c1.4-0.4,2.6-0.8,3.7-1.2
		c0.2,0.1,0.4,0.2,0.5,0.3c1.9,2.2,3.7,4.4,5.5,6.5c0.4,0.5,0.3,1,0,1.5c-0.5,0.9-1,1.8-1.5,2.7c1.2,1.4,2.3,2.7,3.5,4.1
		c4-7.2,7.8-14.1,11.7-21.1C341.6,82.8,340.4,81.4,339.1,79.8z M332.1,94c-1.5-1.8-2.9-3.4-4.5-5.3c3.1-1.4,6.2-2.4,9.3-3.5
		C336.7,86.5,334.1,91.3,332.1,94z"/>
	<path class="st4" d="M275.9,32.3c-5.9,5.6-11.7,11-17.6,16.6c1.7,0.8,3.2,1.5,4.8,2.3c1.1-1,2.1-1.9,3.2-2.7
		c2.6,1.3,5.1,2.5,7.7,3.7c0.8,0.3,1.1,0.8,0.9,1.7s-0.2,1.9-0.3,2.8c1.6,0.7,3.1,1.5,4.8,2.3c0.7-8.2,1.3-16.2,1.9-24.1
		C279.4,34,277.7,33.1,275.9,32.3z M275.5,48.1c-2.3-0.7-4.2-1.8-6-2.7l7-7C276.2,41.4,275.9,44.7,275.5,48.1z"/>
	<path class="st4" d="M118,33.7c5-2.1,9.7-4.2,14.6-6.3c0.6,1.3,1.1,2.5,1.6,3.8c-3.5,1.5-6.8,3-10.2,4.5c0.7,1.5,1.3,2.9,1.9,4.4
		c3.3-1.4,6.6-2.8,10-4.3c0.6,1.3,1.1,2.5,1.6,3.8c-3.4,1.5-6.6,2.9-10,4.4c0.7,1.6,1.3,3.1,2,4.8c3.5-1.5,6.8-2.9,10.3-4.4
		c0.5,1.3,1,2.4,1.6,3.8c-4.9,2.1-9.6,4.2-14.6,6.3C124,47.6,121,40.8,118,33.7z"/>
	<path class="st4" d="M64.1,86.2c1.1,0.9,2.1,1.6,3.2,2.5c-2.2,2.9-4.4,5.7-6.7,8.7c1.4,1.1,2.7,2.1,4.1,3.2c2.3-3,4.6-5.8,6.9-8.8
		c1.1,0.9,2.1,1.7,3.2,2.5c-3.3,4.2-6.5,8.3-9.8,12.5c-6-4.7-11.8-9.2-17.8-13.9c3.3-4.2,6.5-8.3,9.8-12.5c1.1,0.8,2.1,1.6,3.3,2.5
		c-2.3,3-4.5,5.8-6.8,8.8c1.2,1,2.4,1.9,3.8,3C59.6,91.9,61.8,89.1,64.1,86.2z"/>
	<path class="st4" d="M358.8,112.4c-1.5-0.1-2.8-0.2-4.1-0.4c-0.1-1.2-0.1-2.3-0.2-3.4c-0.2-1.5-0.8-2.8-1.7-4
		c-0.3-0.4-0.8-0.9-1.2-1.1c-0.7-0.4-1.4-0.4-2.1,0.1c-0.7,0.4-0.7,1.1-0.6,1.8c0.1,0.9,0.4,1.8,0.6,2.6c0.4,1.6,1,3.2,1.3,4.9
		c0.6,2.9-0.3,5.2-2.5,6.7c-2.4,1.6-5.4,1.6-7.6-0.1c-3.1-2.3-4.8-5.5-5.5-9.2c-0.2-1.3,0-2.8,0-4.1c1.6-0.6,2.9,0.1,4.3,0
		c0,1.1,0,2,0,3c0.1,2.3,0.8,4.3,2.5,6c0.3,0.3,0.6,0.5,0.9,0.7c0.8,0.4,1.6,0.5,2.4,0c0.7-0.5,0.9-1.3,0.7-2.1
		c-0.3-1.2-0.7-2.4-1-3.6c-0.4-1.5-0.8-2.9-1.1-4.4c-0.9-4.9,4.1-7.6,7.4-6.7c2,0.5,3.5,1.6,4.7,3.1c1.9,2.3,2.9,5,3.1,7.9
		C359.1,110.7,358.9,111.5,358.8,112.4z"/>
	<path class="st4" d="M222.4,19.6c-0.4,0.5-0.9,1.1-1.3,1.6c-0.4,0.5-0.9,1-1.4,1.6c-1.6-1.4-3.3-2.4-5.3-2.8
		c-0.8-0.1-1.6-0.2-2.3-0.1c-1.4,0.2-2,0.7-2.1,1.8c-0.1,0.9,0.4,1.6,1.6,2.1c1.4,0.6,2.8,1,4.1,1.5c1,0.4,2,0.8,2.9,1.3
		c2.4,1.3,3.6,3.2,3.4,5.9c-0.2,2.6-1.5,4.6-3.9,5.7c-2.4,1-4.8,1-7.3,0.6c-2.8-0.5-5.4-1.7-7.5-4.1c0.9-1.1,1.8-2.2,2.6-3.2
		c1.4,0.9,2.6,1.8,3.9,2.6c1.4,0.8,3,0.9,4.6,0.8c0.5,0,1-0.2,1.4-0.4c1.7-0.9,1.8-2.6,0.1-3.5c-1.5-0.8-3.2-1.3-4.9-1.9
		c-1-0.4-2.1-0.8-3.1-1.4c-4.7-2.8-3.5-8.7,0.3-10.7c1.7-0.9,3.5-1.2,5.4-1.1c2.8,0.1,5.3,0.9,7.6,2.6c0.3,0.2,0.5,0.4,0.8,0.7
		C222.1,19.2,222.2,19.4,222.4,19.6z"/>
	<path class="st4" d="M260.9,31.4c-1.4,0.2-2.7,0.5-4,0.7c-0.2-0.2-0.3-0.2-0.3-0.3c-1.1-3.2-3.5-4.8-7.1-4.5
		c-2.8,0.2-5.3,2.5-6.1,5.6c-1,4,0.7,7.2,3.8,8.6c2,0.9,3.9,0.8,5.8-0.3c0.4-0.2,0.7-0.5,1.2-0.8c1,0.9,2.1,1.9,3.1,2.8
		c-2.5,3.2-7.7,4.4-12.7,1.8c-5-2.6-7.4-7.9-6-13.4c1.5-5.6,6.2-9,12-8.6C255.8,23.2,260.2,26.4,260.9,31.4z"/>
	<path class="st4" d="M85.6,73.7c1.3-0.4,2.6-0.9,4-1.3c0.8,2.5,0.6,4.8-0.4,6.9c-2,4.2-5.4,6.6-9.9,7c-4.6,0.5-8.3-1.6-10.8-5.5
		C63.2,72.7,70,63.4,77.1,63c1.3-0.1,2.6-0.1,3.9,0.6c-0.5,1.3-1,2.6-1.4,3.8c-1.3,0.1-2.3,0-3.4,0.2c-4,0.9-6.2,5.3-4.4,9.4
		c1.2,2.8,4,4.9,7.5,4.8c3.2-0.1,7.1-3.5,6.1-7.5C85.5,74.2,85.5,74.1,85.6,73.7z"/>
	<path class="st4" d="M161.9,42.2c-1.3-6.1-2.6-12-3.9-18c-2.2,0.5-4.2,0.9-6.2,1.3c-0.7-1.2-0.8-2.5-1-4c5.8-1.2,11.5-2.5,17.4-3.7
		c0.3,1.3,0.6,2.6,0.9,4c-2.1,0.5-4.2,1-6.4,1.5c1.3,6,2.5,11.8,3.8,17.9C165,41.6,163.6,41.9,161.9,42.2z"/>
	<path class="st4" d="M318.2,64.5c-1.7-1.5-3.2-2.9-4.9-4.4c0.9-1,1.8-2,2.8-3c4.5,4,8.8,7.9,13.3,12c-0.9,1-1.7,2-2.7,3.1
		c-1.6-1.4-3.2-2.8-5-4.3c-4.1,4.6-8.1,9-12.3,13.6c-1.2-1-2.3-2-3.6-3.1C310,73.6,314.1,69.1,318.2,64.5z"/>
	<path class="st4" d="M101,70.4c-1.3,1-2.4,1.9-3.7,2.9c-4.6-6-9.1-11.8-13.8-17.8c1.2-1,2.4-1.8,3.7-2.9
		C91.8,58.4,96.3,64.4,101,70.4z"/>
	<path class="st4" d="M88.7,330.9c-3.8,0.1-7.3,3.8-7.3,7.7c0,3.7,3.2,6.9,6.9,6.9c3.8,0,7.5-3.7,7.5-7.6
		C95.8,334.2,92.4,330.9,88.7,330.9z M89.9,343.6c-3.3,1.2-6.9-1.3-6.9-4.8c0-2.7,2.3-5.5,4.9-6.1c3.7-0.9,7.4,2.9,6.1,6.4
		C93.2,341.2,92,342.8,89.9,343.6z"/>
	<path class="st4" d="M56.2,134.8c-0.7,1.6-1.3,3-2.1,4.6c-4.6-2.1-8.9-4.5-13.5-6.8c0.4-1,0.9-2,1.4-3.1c0.3,0,0.7-0.1,1,0.1
		C47.3,131.3,51.6,133,56.2,134.8z"/>
	<path class="st4" d="M313.5,335c-2.3-3.2-5.7-3.9-8.7-2.4c-2,0.9-3.6,2.6-5.4,4.1c3,3.7,6,7.2,9,10.9c1.5-1.3,3-2.4,4.3-3.7
		C315.3,341.4,315.6,337.8,313.5,335z M310.9,343.5c-0.7,0.6-1.4,1.1-2.2,1.8c-2.4-2.8-4.7-5.6-7.1-8.5c1.2-0.9,2-1.7,3-2.4
		c1.7-1.3,3.5-1.3,5.4-0.3C313.1,335.8,314.9,340.3,310.9,343.5z"/>
	<path class="st4" d="M145.9,362.6c-1.9-1-4-1.6-6.2-2.4c-1.6,4.7-3,9-4.5,13.3c2,0.7,3.9,1.3,5.8,1.8c3.4,0.8,6.3-0.9,7.7-4.2
		C150.2,367.5,148.5,364,145.9,362.6z M147.1,370.1c-0.9,2.7-3,4.2-5.6,3.9c-0.4-0.1-0.9-0.2-1.3-0.3c-0.9-0.3-1.9-0.6-3-1
		c1.2-3.5,2.4-6.9,3.6-10.5c1.5,0.6,2.8,1,4,1.5C147.1,364.9,148,367.4,147.1,370.1z"/>
	<path class="st4" d="M129,363.4c-0.7,1.4-1.3,2.7-2,3.9c-0.6,1.1-1.9,1.1-2.9,1.1c-2.9-0.1-5.6-1.4-7-4.5c-1.6-3.7,0.5-8.3,4.3-9.8
		c3.4-1.3,8.1,0.5,9.3,4.6c0,0.1,0,0.2,0,0.4c-0.4,0.1-0.8,0.1-1.1,0.2c-0.7-1-1.3-1.9-2-2.6c-2.2-2.1-5.6-1.8-7.5,0.4
		c-1.4,1.6-2.1,3.5-1.5,5.6c0.6,2.3,2.5,3.9,4.9,4.1c1.5,0.1,2.1-0.2,2.8-1.6c0.2-0.4,0.3-0.8,0.5-1.4c-1.4-0.7-2.8-1.4-4.3-2.1
		c0.2-0.5,0.4-0.8,0.7-1.3C125,361.5,126.9,362.4,129,363.4z"/>
	<path class="st4" d="M83.7,324.9c-1.3-1.9-3.2-3.3-4.4-4.6c-3.5,3.3-6.9,6.4-10.4,9.6c0.5,0.5,0.8,0.9,1.2,1.3
		c1.5-1.5,2.8-2.7,4.1-4c0.4,0.3,0.7,0.6,0.9,0.8c0.9,0.7,1.2,1.4,0.8,2.5c-0.4,1.3-0.5,2.7-0.8,4c-0.2,1.3-0.2,1.3,1.2,2.2
		c0.4-2.1,0.9-4.2,1.3-6.3c0.5,0.2,0.8,0.4,1.1,0.5c1.8,0.7,3.4,0.2,4.6-1.2C84.6,328.2,84.8,326.5,83.7,324.9z M81.8,328.9
		c-1.2,1-2.6,1-3.8-0.2c-0.9-0.8-1.8-1.7-2.6-2.6c1.3-1.3,2.5-2.6,4-4c0.9,1,1.8,1.9,2.6,2.9C83,326.3,82.9,327.9,81.8,328.9z"/>
	<path class="st4" d="M239.3,374.7c0.2-0.2,0.5-0.5,0.9-0.7c1.7-1.1,1.7-3.3,1.2-4.7c-0.7-1.8-2.3-2.9-4.1-2.6
		c-2.1,0.3-4.2,0.8-6.4,1.3c1,4.6,2.1,9,3.1,13.6c0.6-0.1,1-0.2,1.6-0.3c-0.4-1.8-0.8-3.6-1.1-5.2c1.9-1.1,3.3-0.6,4.5,0.8
		c0.6,0.7,1.3,1.3,2,2c1.1,1.1,1.1,1.1,2.5,0.4C242.1,377.8,240.7,376.3,239.3,374.7z M237.9,373.5c-1.2,0.3-2.4,0.6-3.8,0.9
		c-0.5-1.8-0.9-3.5-1.3-5.4c1.5-0.3,2.8-0.6,4-0.7c1.7-0.2,2.8,0.7,3.1,2.2C240.2,371.9,239.5,373,237.9,373.5z"/>
	<path class="st4" d="M315.2,322.7c-0.5,0.5-1,1-1.5,1.4c1.9,4.8,3.8,9.4,5.8,14.1c0.5-0.4,0.8-0.8,1.3-1.2c-0.4-1.1-0.8-2.1-1-2.9
		c1.8-1.8,3.5-3.5,5.2-5.2c0.8,0.3,1.8,0.8,2.8,1.2c0.4-0.5,0.8-0.9,1.2-1.4C324.3,326.7,319.8,324.7,315.2,322.7z M318.8,332.3
		c-1-2.4-2-4.7-3.1-7.4c2.8,0.9,4.9,2.1,7.3,3.1C321.5,329.6,320.2,330.9,318.8,332.3z"/>
	<path class="st4" d="M293.5,341.2c-0.6,0.4-1.2,0.8-1.8,1.2c1.1,4.9,2.2,9.7,3.3,14.7c1.6-0.8,1.6-0.8,1.3-2.2
		c-0.1-0.6-0.3-1.3-0.4-2c2-1.4,3.9-2.7,5.8-4c1.1,0.6,1.9,1.2,2.9,1.8c0.5-0.4,1-0.8,1.5-1.2C301.8,346.6,297.6,343.9,293.5,341.2z
		 M295.4,351.3c-0.7-2.7-1.2-5.1-1.8-7.6c0.1-0.1,0.2-0.1,0.3-0.2c2.1,1.3,4.1,2.7,6.5,4.3C298.7,349,297.1,350,295.4,351.3z"/>
	<path class="st4" d="M161.6,379.2c-0.5-3.7-1-7.3-1.5-10.9c-0.3-1.8-0.2-1.8-2.4-2.3c-2.9,4.1-5.8,8.1-8.7,12.2
		c0.7,0.1,1.2,0.3,1.8,0.4c0.6-0.9,1.3-1.8,2-2.7c2.3,0.6,4.6,1.2,6.8,1.7c0.2,1.3,0.4,2.3,0.6,3.4c0.5,0.1,1,0.2,1.6,0.3
		C161.7,380.5,161.7,379.9,161.6,379.2z M153.6,374.6c1.5-2.2,3-4.3,4.5-6.3c0.1,0,0.3,0.1,0.4,0.1c0.3,2.5,0.6,5,1,7.6
		C157.5,375.5,155.7,375.1,153.6,374.6z"/>
	<path class="st4" d="M118.5,350.4c-0.3,0.5-0.5,0.8-0.8,1.2c-2.1-1.3-4.2-2.5-6.4-3.7c-0.8,1.3-1.5,2.5-2.4,3.9
		c2.1,1.3,4.1,2.5,6.2,3.8c-0.2,0.4-0.4,0.7-0.6,1.3c-2.1-1.2-4.1-2.4-6.4-3.7c-0.8,1.4-1.6,2.7-2.5,4.2c2.2,1.3,4.2,2.5,6.4,3.8
		c-0.2,0.4-0.4,0.8-0.7,1.3c-2.6-1.5-5.2-3-7.9-4.7c2.4-4,4.7-8,7.2-12.1C113.2,347.3,115.8,348.8,118.5,350.4z"/>
	<path class="st4" d="M220.8,371c0.2,1.5,0.4,2.9,0.6,4.4c2.5,0,4.7-0.7,7.2-0.9c0.1,0.4,0.2,0.8,0.4,1.3c-2.4,0.4-4.8,0.8-7.2,1.2
		c0.2,1.6,0.4,3.2,0.7,4.9c2.1-0.3,4.2-0.7,6.2-1c1.1-0.2,1.2-0.1,1.2,1.4c-2.9,0.4-5.8,0.9-8.9,1.3c-0.7-4.6-1.4-9.2-2.1-13.9
		c3.1-0.5,6-0.9,9-1.4c0,0.5,0.1,0.9,0.1,1.4C225.7,370.2,223.3,370.6,220.8,371z"/>
	<path class="st4" d="M329.1,325.9c-0.1-0.4-0.2-0.8-0.2-1.3c0.5-0.2,1-0.3,1.4-0.4c1.7-0.5,2.9-1.5,3.7-3c0.6-1.1,0.4-2-0.4-2.8
		c-0.7-0.8-1.6-0.8-2.5-0.3c-0.8,0.4-1.6,0.9-2.4,1.3c-0.8,0.5-1.7,1-2.5,1.3c-2.3,1-4.4-1.1-4.5-3.2c-0.1-2.9,3.1-6,6.2-5.8
		c0.1,0.3,0.1,0.7,0.2,1.2c-1.5,0.4-2.9,0.9-3.8,2.1c-0.4,0.6-0.9,1.4-1,2.1c-0.2,1.5,1.2,2.4,2.6,1.8c1.1-0.5,2.2-1.2,3.2-1.9
		c0.9-0.5,1.9-0.9,3-1.1c2.3-0.2,4.4,2.7,3.5,5C334.9,323.1,332.1,326.1,329.1,325.9z"/>
	<path class="st4" d="M164.5,379.9c0.4-0.3,0.7-0.5,1-0.8c0.2,0.1,0.3,0.2,0.4,0.3c1,1.1,2.2,1.9,3.7,2.2c0.6,0.1,1.1,0.1,1.7,0
		c1-0.2,1.8-0.7,2-1.8c0.3-1.1-0.3-1.8-1.1-2.3c-0.7-0.5-1.6-0.9-2.4-1.3c-0.6-0.3-1.3-0.6-1.9-1.1c-1.5-1-2-2.2-1.7-3.7
		c0.3-1.4,1.7-2.6,3.3-2.8c2.6-0.3,4.8,0.4,6.6,2.8c-0.3,0.3-0.7,0.5-0.9,0.7c-1.3-0.7-2.6-1.3-3.8-1.9c-0.3-0.1-0.7-0.2-1-0.2
		c-1.3,0-2.4,0.8-2.5,1.8c-0.2,1.2,0.7,1.7,1.5,2.2c1.2,0.7,2.6,1.2,3.7,2c2.9,1.9,2.1,4.9,0.4,6.2c-0.6,0.4-1.4,0.8-2.2,0.9
		C169.4,383.4,165.9,382.5,164.5,379.9z"/>
	<path class="st4" d="M74.3,315.1c-1.2-1.5-2.5-2.9-3.8-4.4c-3.5,3.1-7,6.2-10.6,9.3c0.5,0.4,0.8,0.7,1.2,1.1
		c1.4-1.2,2.7-2.4,4.2-3.6c1,1.1,1.8,2.1,2.7,3.1c1.7,1.8,4.1,1.9,5.9,0.4C75.7,319.5,75.9,317.1,74.3,315.1z M72.8,319.6
		c-1.4,1.1-2.4,1.1-3.9-0.2c-0.1-0.1-0.1-0.2-0.2-0.3c-0.7-0.8-1.4-1.7-2.3-2.7c1.4-1.2,2.7-2.3,4.1-3.5c0.9,1.1,1.8,2.1,2.6,3.1
		C74.1,317.3,73.9,318.7,72.8,319.6z"/>
	<path class="st4" d="M287.4,348.1c-0.2,0.5-0.4,0.8-0.6,1.2c-1.9-0.4-3.8-0.5-5.4,1c-1,0.9-1.6,2-1.8,3.4c-0.4,3,1.8,6.1,4.8,6.7
		c2.7,0.6,5.2-1.1,6.1-4.2c0.4,0,0.8-0.1,1.2-0.1c0.1,0.2,0.2,0.4,0.1,0.5c-0.3,2.3-1.7,3.7-3.7,4.7c-3.1,1.5-6,0.6-8-1.4
		c-2.3-2.3-2.9-5.9-1.5-8.6C280.3,348.2,283.9,346.8,287.4,348.1z"/>
	<path class="st4" d="M264.2,364.1c2.3-1,4.4-1.9,6.6-2.8c0.2,0.4,0.4,0.7,0.7,1.2c-2.2,1-4.4,1.9-6.7,3c0.8,1.9,1.6,3.8,2.4,5.8
		c-0.4,0.3-0.8,0.5-1.4,0.8c-1.9-4.4-3.7-8.6-5.6-12.9c2.8-1.2,5.5-2.4,8.4-3.6c0.2,0.5,0.4,0.8,0.6,1.3c-2.3,1-4.5,2-6.8,3
		C263,361.3,263.5,362.5,264.2,364.1z"/>
	<path class="st4" d="M102.7,342.2c-1.2-0.9-2.3-1.7-3.5-2.6c0.2-0.4,0.4-0.7,0.7-1.2c2.9,2,5.7,4,8.6,6c-0.3,0.4-0.5,0.8-0.8,1.2
		c-1.2-0.8-2.4-1.6-3.7-2.4c-2.4,3.4-4.8,6.8-7.2,10.2c-0.5-0.4-0.9-0.6-1.3-1C98,349,100.3,345.6,102.7,342.2z"/>
	<path class="st4" d="M248.8,364.8c1.2,4,2.4,7.8,3.7,11.8c-0.4,0.2-0.9,0.4-1.5,0.7c-1.3-4-2.5-7.9-3.8-12
		c-1.5,0.4-2.8,0.8-4.2,1.2c-0.1-0.5-0.3-0.9-0.4-1.4c3.4-1,6.7-2.1,10-3.1c0.2,0.5,0.3,0.8,0.4,1.3
		C251.6,363.9,250.3,364.3,248.8,364.8z"/>
	<path class="st4" d="M271.1,354.4c0.5-0.3,0.9-0.5,1.4-0.8c2.1,4.1,4.1,8.2,6.2,12.4c-0.5,0.3-0.9,0.6-1.4,0.9
		C275.3,362.7,273.2,358.7,271.1,354.4z"/>
	<path class="st4" d="M134.9,358.4c0.6,0.3,1,0.5,1.5,0.7c-1.8,4.3-3.5,8.5-5.3,12.8c-0.5-0.2-0.9-0.3-1.6-0.5
		C131.3,367,133,362.8,134.9,358.4z"/>
	<path class="st4" d="M261.6,373.6c-0.6,0.2-1,0.4-1.6,0.6c-1.6-4.4-3.2-8.6-4.8-13c0.5-0.2,0.9-0.4,1.5-0.7
		C258.4,364.9,260,369.2,261.6,373.6z"/>
	<path class="st4" d="M36.8,126.2c1.4,0.1,2.7,1.4,2.6,2.8c-0.1,1.5-1.4,2.6-2.9,2.5s-2.5-1.2-2.5-2.7
		C34.1,127.4,35.3,126.2,36.8,126.2z"/>
	<path class="st4" d="M347.5,126.1c1.4,0,2.6,1.2,2.6,2.5c0,1.4-1.3,2.8-2.7,2.8c-1.5,0-2.7-1.2-2.7-2.7
		C344.9,127.2,346,126.1,347.5,126.1z"/>
	<path class="st4" d="M328.7,307.9c0.4-0.6,0.7-1,1.1-1.5c2.6,2.2,5.1,4.3,7.7,6.4c-0.2,0.3-0.4,0.6-0.7,1
		C334.1,311.8,331.4,309.9,328.7,307.9z"/>
	<path class="st4" d="M54.3,318.9c-0.4-0.5-0.8-0.9-1.2-1.4c2.7-2,5.3-3.9,8-5.9c0.3,0.2,0.5,0.5,0.9,0.8
		C59.4,314.6,56.9,316.7,54.3,318.9z"/>
	<path class="st4" d="M339.6,316.3c-0.6,0-1.1-0.5-1-1.1c0-0.7,0.5-1,1.1-1.1c0.5-0.1,1.1,0.6,1,1.1
		C340.6,315.9,340.3,316.3,339.6,316.3z"/>
	<path class="st4" d="M64.3,311.2c-0.9-0.2-1.3-0.4-1.3-1.1s0.4-1,1.1-1.1c0.5,0,1.2,0.7,1.1,1.1C65,310.5,64.5,310.9,64.3,311.2z"
		/>
	<path class="st1" d="M345.5,171.1c-6-29.5-19.3-55.2-40.4-76.7C275.9,64.6,240.2,49.7,201.7,49c-10.4,0.1-17.6,0.6-24.8,1.6
		c-15.5,2.2-30.2,6.9-44.2,13.8c-49.1,24.3-81.2,73.8-84,128.7c-0.1,1.4-0.1,2.8-0.2,4.2c0,0.8,0,1.7,0,2.5c0,1.3,0,2.6,0,3.8
		c0.1,10.2,1.3,20.3,3.5,30.3c2.3,10.2,5.4,19.8,9.3,28.9c0.8,1.8,1.6,3.7,2.5,5.5s1.7,3.6,2.7,5.3c0.5,0.9,0.9,1.8,1.4,2.6
		c0.5,1,1.1,1.9,1.6,2.9c3.4,5.7,7.1,11.2,11.2,16.5c0.7,0.9,1.4,1.7,2.1,2.6c1.3,1.5,2.5,3,3.9,4.5l0,0c1.6,1.8,3.3,3.6,5,5.3
		c6,6.1,12.7,11.9,19.9,17.2c2.1,1.5,4.2,3,6.4,4.4c6.2,4.1,12.5,7.6,19,10.6c2.3,1.1,4.7,2.1,7,3c1.6,0.6,3.2,1.2,4.7,1.8l0,0
		c0.8,0.3,1.6,0.6,2.4,0.8c4,1.4,8.1,2.5,12.2,3.5c1.8,0.5,3.7,0.9,5.6,1.2c0.6,0.1,1.3,0.3,1.9,0.4c1.7,0.3,3.4,0.6,5.1,0.8
		c4.8,0.7,9.6,1.2,14.5,1.5c0.6,0,1.3,0.1,1.9,0.1c1,0,2,0.1,2.9,0.1c5.9,0.1,11.8-0.1,17.7-0.7c7.3-0.6,14.4-1.9,21.4-3.6
		c0.6-0.1,1.2-0.3,1.8-0.5c1.1-0.3,2.2-0.6,3.3-0.9c25.2-7.5,47-20.5,65.1-39c0.6-0.6,1.2-1.2,1.7-1.8c0.6-0.6,1.2-1.3,1.8-1.9
		c0.6-0.7,1.2-1.3,1.8-2c2.2-2.5,4.3-5.1,6.4-7.7c1.3-1.7,2.6-3.5,3.9-5.2c1.9-2.6,3.7-5.3,5.4-8c0.3-0.5,0.7-1.1,1-1.6
		c0.7-1.1,1.3-2.2,1.9-3.2l0,0c7.6-13.3,13.1-27.6,16.3-42.7c0.5-2.2,0.9-4.3,1.3-6.5c0.1-0.6,0.2-1.3,0.3-1.9
		c0.2-1.4,0.4-2.8,0.6-4.1c0.3-2,0.5-4.1,0.7-6.2c0.2-2.2,0.4-4.4,0.5-6.6C349,196.5,348.1,183.7,345.5,171.1z M244.7,124.2
		c0.8-2.6,1.6-5,2.4-7.4v-0.1h0.3c0.6,1.8,1.3,3.5,1.9,5.2c0.2,0.5,0.4,0.9,0.5,1.3c0.2,0.8,0.7,1,1.5,1h5.6c0.5,0,1,0.1,1.6,0.4
		l-0.1,0.1c-0.5,0.4-1,0.8-1.5,1.2c-0.2,0.2-0.4,0.3-0.6,0.5c-1.1,0.9-2.2,1.8-3.4,2.6c0,0-0.1,0.1-0.2,0.1
		c-0.3,0.2-0.5,0.4-0.8,0.6l0,0c0.8,2.5,1.5,4.9,2.3,7.4c0,0-0.1,0-0.2-0.1c-2.4-1.2-4.5-2.8-6.8-4.3c-0.4,0.3-0.7,0.5-1.1,0.8l0,0
		c-1,0.8-2,1.5-3,2.3c-0.2,0.2-0.4,0.3-0.7,0.5c-0.5,0.4-1,0.7-1.5,1.1c-0.1-0.1-0.2-0.1-0.3-0.2c0.8-2.4,1.5-4.9,2.3-7.4
		c-1.1-0.8-2.2-1.7-3.3-2.5c0,0-0.1-0.1-0.2-0.1c-1-0.8-2-1.6-2.9-2.5c0-0.1,0-0.2,0.1-0.3v-0.1h8.1V124.2z M223.9,113.3
		c0.5-1.2,1-2.3,1.5-3.4c0-0.1,0.1-0.1,0.1-0.1c0.1,0,0.1,0,0.2,0c0.9,2.9,1.8,5.6,2.8,8.6v0.1h9.4c0,0.1,0.1,0.3,0.1,0.4
		c-2.6,1.8-5.2,3.6-7.9,5.5c1.1,3.1,2.1,6,3.1,9c-0.1,0-0.2,0.1-0.3,0.2c-0.1,0-0.1-0.1-0.2-0.1c-2.4-1.7-4.8-3.5-7.3-5.3l0,0
		c-2.6,1.8-5.3,3.7-7.9,5.5c-0.1-0.1-0.1-0.1-0.2-0.1c0,0-0.1,0-0.1-0.1c1-3,2-6,3.1-9.1c-2.5-1.9-4.9-3.8-7.4-5.6
		c0-0.1,0.1-0.2,0.1-0.3h9C222.6,116.7,223.3,115,223.9,113.3z M183.9,112.2h11.9l3.6-11.1h0.4v0.1c1.2,3.7,2.4,7.3,3.6,11h11.9v0.1
		c0.1,0.1,0.1,0.1,0.1,0.2v0.1c-3.1,2.4-6.2,4.7-9.4,7.2c1.2,3.7,2.4,7.4,3.7,11.5l0,0c-0.1,0-0.1-0.1-0.2-0.1
		c-0.3-0.2-0.6-0.3-0.8-0.5c-0.2-0.1-0.3-0.2-0.5-0.3c-0.1,0-0.2-0.1-0.2-0.2c-0.7-0.5-1.2-0.9-1.8-1.4c-1-0.7-2.1-1.5-3.1-2.3
		c-0.4-0.3-0.9-0.7-1.3-1c-0.3-0.2-0.6-0.5-1-0.7c-0.3-0.2-0.6-0.4-0.9-0.6c0,0-0.1-0.1-0.2-0.1c-3.2,2.4-6.3,4.7-9.5,7.1l0,0
		c0,0,0,0-0.1,0s-0.1-0.1-0.2-0.1c0,0-0.1,0-0.1-0.1c0.4-1.1,0.7-2.1,1.1-3.1c0.9-2.6,1.8-5.3,2.6-8.1c-3.3-2.4-6.6-4.8-9.9-7.2
		C183.8,112.4,183.9,112.3,183.9,112.2z M171.9,118.5c1-3,1.9-5.9,2.8-8.7h0.3c0.5,1.4,0.9,2.8,1.4,4.3s0.9,2.9,1.4,4.4
		c3.2,0,6.2,0,9.6,0.1h0.1c-1.2,1.5-2.6,2.2-3.8,3.1s-2.4,1.8-3.8,2.8l0,0c0.9,3,1.8,5.9,2.7,8.9c0,0,0,0,0,0.1
		c-0.1,0.1-0.2,0.1-0.3,0.2l-7.5-5.4c-2.5,1.8-5,3.7-7.5,5.5c-0.1-0.1-0.2-0.1-0.3-0.2c0,0,0,0,0-0.1c0.2-0.6,0.4-1.2,0.5-1.8l0,0
		c0.2-0.6,0.4-1.2,0.5-1.8c0.4-1.5,0.8-3,1.3-4.4c0.1-0.3,0.1-0.5,0.1-0.7l0,0c0-0.4-0.3-0.7-0.7-1.1c-1.9-1.4-3.8-2.8-5.7-4.2
		c-0.2-0.1-0.4-0.4-1-0.9h9.9V118.5z M144.9,124.4c0.3,0,0.6,0,0.9,0c1.4,0,2.7,0,4.1-0.1h0.1c0.8-2.4,1.6-4.9,2.4-7.3h0.4
		c0.1,0.4,0.3,0.9,0.4,1.3c0.1,0.2,0.2,0.4,0.2,0.6c0.2,0.4,0.3,0.8,0.5,1.2c0.4,1.1,0.8,2.2,1.2,3.3c0.3,0.7,0.7,1,1.4,1h5.9
		c0.3,0,0.6,0,1.3,0.1c-1.1,1-2.2,1.8-3.3,2.7c-1,0.9-2.1,1.7-3.1,2.6c0.7,2.5,1.5,4.9,2.3,7.6h-0.1c-1.4-0.5-2.4-1.6-3.5-2.3
		s-2.2-1.5-3.4-2.3l0,0c-2.3,1.6-4.4,3.1-6.6,4.6l0,0c-0.1-0.1-0.2-0.1-0.3-0.2c0.7-2.4,1.8-4.8,2.6-7.4c-2.2-1.7-4.3-3.3-6.5-5
		c0.5-0.1,1.1-0.2,1.6-0.3C144,124.5,144.5,124.5,144.9,124.4z M284.7,185.7c0,0.2,0,0.3,0,0.5c-0.1,1-0.2,2-0.5,3
		c-3.7,14.7-7.5,29.4-11.2,44.1c-4.3,17-8.6,34-12.9,51c-0.8,3.4-2.3,6.2-5,8.2l0,0c-0.3,0.3-0.7,0.5-1.1,0.7
		c-3.3,2.1-6.9,2.6-10.6,1.7c-7.3-1.9-14.6-3.7-21.9-5.6c-8.6-2.2-17.3-4.4-25.9-6.7c-1.3-0.3-2.5-0.2-3.8,0.1
		c-11.6,2.9-23.2,5.8-34.8,8.8c-7.4,1.9-14.7-2.6-16.5-9.6c-0.9-3.2-1.7-6.5-2.5-9.7c-7.3-28.9-14.7-57.8-22-86.7
		c-0.9-3.2-0.8-6.3,0.6-9.4c0.6-1.2,1.3-2.3,2.1-3.3c0.3-0.3,0.6-0.7,0.9-1c0.2-0.2,0.4-0.4,0.6-0.6c1.5-1.3,3.4-2.2,5.5-2.7
		l29.4-7.5c0.1,0,0.1,0,0.2,0c0.5-0.1,1.1-0.3,1.7-0.5c0-0.6,0.1-1.1,0.2-1.6s0.1-1,0.2-1.5c0.4-2.7,1.6-5.2,3.4-7.1
		c0.2-0.2,0.4-0.4,0.7-0.6c2-1.8,4.5-3.1,7.3-3.4c0.9-0.1,1.8-0.2,2.7-0.2h60.6c2.5,0,5,0.3,7.2,1.6c4.6,2.6,6.9,6.6,7.1,11.8
		c0.1,1.8,0,3.5,0,5.4c0.7,0.2,1.4,0.4,2,0.6c8.9,2.3,17.7,4.5,26.5,6.8c4.9,1.2,8,4.5,9.4,9.3c0.3,1.2,0.5,2.3,0.4,3.5
		C284.7,185.4,284.7,185.5,284.7,185.7z"/>
	<path class="st4" d="M284.2,181.8c-1.4-4.8-4.5-8-9.4-9.3c-8.8-2.3-17.7-4.6-26.5-6.8c-0.7-0.2-1.3-0.4-2-0.6c0-1.9,0.1-3.7,0-5.4
		c-0.2-5.2-2.5-9.2-7.1-11.8c-2.2-1.3-4.7-1.6-7.2-1.6h-60.6c-0.9,0-1.8,0.1-2.7,0.2c-2.7,0.3-5.2,1.5-7.2,3.3
		c-0.2,0.2-0.5,0.4-0.7,0.6c-1.9,2-3.2,4.5-3.5,7.2c0,0.5-0.1,0.9-0.1,1.4c-0.1,0.5-0.1,1-0.2,1.6c-0.7,0.1-1.2,0.2-1.7,0.5
		c-0.1,0-0.2,0.1-0.3,0.1c-9.8,2.5-19.6,5-29.4,7.5c-2.1,0.5-3.9,1.4-5.4,2.6c-0.2,0.2-0.4,0.4-0.6,0.6c-0.3,0.3-0.6,0.6-0.9,1
		c-0.9,1-1.6,2.1-2.2,3.3c-1.4,3-1.4,6.2-0.6,9.4c7.4,28.9,14.7,57.8,22,86.7c0.8,3.2,1.7,6.5,2.5,9.7c1.8,7,9.1,11.5,16.5,9.6
		c11.6-3,23.2-5.9,34.8-8.8c1.3-0.4,2.5-0.4,3.8-0.1c8.6,2.3,17.3,4.5,25.9,6.7c7.3,1.9,14.6,3.8,21.9,5.6c3.8,0.9,7.3,0.4,10.6-1.7
		c0.4-0.3,0.8-0.5,1.2-0.8l0,0c2.5-2.1,4-4.8,4.9-8.1c4.2-17,8.6-34,12.9-51c3.7-14.7,7.5-29.4,11.2-44.1c0.3-1,0.5-2.1,0.6-3.1
		c0-0.2,0-0.3,0-0.5s0-0.3,0-0.5C284.7,184.1,284.6,182.9,284.2,181.8z M161.1,160.9c0-1.2,0-2.5,0.3-3.7c0.9-4,4.5-6.7,8.6-6.9h62
		c0.9,0,1.8,0,2.7,0.2c5.1,1,7.6,5.5,7.6,9.3v50c0,16.5,0,32.9,0.1,49.3c0,1.2,0,2.3-0.3,3.4c-1.1,4-4.4,6.7-8.5,6.9h-62
		c-1.1,0-2.2-0.1-3.2-0.3c-4.3-0.9-7.2-4.6-7.3-8.9L161.1,160.9L161.1,160.9z M126.2,172.6c3.6-1,7.3-1.9,11-2.8
		c6-1.6,12.1-3.1,18.1-4.6c0.6-0.1,1.1-0.2,1.9-0.4v93.6c0,1.6,0.1,3.2,0.5,4.7c1.4,6,6.7,10,12.9,10h41.2v0.3
		c-0.4,0.2-0.7,0.3-0.9,0.6c-18.4,4.5-36.9,9.1-55.3,13.7c-5.1,1.2-9.8-1.4-11.1-6.6c-2.7-10.2-5.2-20.4-7.8-30.6
		c-5.5-21.7-11-43.3-16.5-65c-0.2-0.6-0.4-1.2-0.5-1.8C118.6,178.6,121.2,174,126.2,172.6z"/>
	<path class="st4" d="M190,130.9c1.3-3.7,2.6-7.3,3.9-11.1c-3.3-2.4-6.6-4.8-9.9-7.2c0-0.1,0.1-0.2,0.1-0.3c3.9,0,7.9,0,11.9,0
		c1.2-3.8,2.4-7.5,3.6-11.1c0.1,0,0.3,0,0.4,0c1.2,3.7,2.4,7.3,3.6,11.1c4,0,8,0,11.9,0c0.1,0.2,0.1,0.2,0.1,0.3v0.1
		c-3.1,2.4-6.2,4.7-9.4,7.2c1.2,3.7,2.3,7.4,3.7,11.5c-1.5-0.8-2.5-1.7-3.5-2.5c-1.1-0.8-2.1-1.6-3.1-2.3c-1.1-0.8-2.2-1.6-3.3-2.5
		c-3.2,2.4-6.4,4.8-9.5,7.1C190.2,131,190.1,131,190,130.9z"/>
	<path class="st4" d="M177.8,118.4c3.2,0,6.3,0,9.7,0c-1.2,1.4-2.6,2.2-3.8,3.1s-2.4,1.8-3.8,2.8c0.9,3,1.8,6,2.7,9
		c-0.1,0.1-0.2,0.1-0.3,0.2c-2.5-1.8-5-3.6-7.5-5.4c-2.6,1.9-5,3.7-7.5,5.5c-0.1-0.1-0.2-0.1-0.3-0.2c0.4-1.2,0.7-2.4,1.1-3.7
		c0.4-1.5,0.8-2.9,1.3-4.4c0.3-0.8,0.1-1.3-0.6-1.8c-1.9-1.4-3.8-2.8-5.7-4.2c-0.3-0.2-0.5-0.4-1-0.9c3.5,0,6.6,0,9.8,0
		c1-3,1.9-5.8,2.8-8.7c0.1,0,0.2,0,0.3,0C175.9,112.6,176.8,115.5,177.8,118.4z"/>
	<path class="st4" d="M222,118.5c1.1-3.1,2.2-5.9,3.2-8.7c0.1,0,0.2,0,0.3-0.1c0.9,2.8,1.9,5.7,2.8,8.7c3.2,0,6.3,0,9.4,0
		c0,0.1,0.1,0.3,0.1,0.4c-2.6,1.8-5.2,3.7-7.9,5.5c1.1,3.1,2.1,6,3.1,9c-0.1,0.1-0.2,0.2-0.3,0.2c-2.5-1.7-4.9-3.6-7.5-5.4
		c-2.7,1.9-5.3,3.7-7.9,5.5c-0.1-0.1-0.2-0.1-0.3-0.2c1-3,2.1-6,3.1-9.1c-2.5-1.9-5-3.7-7.4-5.6c0-0.1,0.1-0.2,0.1-0.3
		C215.9,118.5,218.9,118.5,222,118.5z"/>
	<path class="st4" d="M242.9,129.8c-2.2-1.7-4.4-3.4-6.5-5.1c0-0.1,0.1-0.2,0.1-0.4c2.7,0,5.4,0,8.1,0c0.8-2.6,1.6-5,2.4-7.5
		c0.1,0,0.2,0,0.3,0c0.6,1.7,1.3,3.4,1.9,5.2c0.2,0.4,0.4,0.8,0.5,1.3c0.2,0.8,0.7,1,1.5,1c1.9,0,3.7,0,5.6,0c0.5,0,1,0.1,1.6,0.4
		c-2.2,1.7-4.3,3.3-6.6,5.1c0.8,2.5,1.5,5,2.3,7.4c-2.4-1.2-4.6-2.8-7-4.4c-2.1,1.5-4.2,3.1-6.3,4.7c-0.1-0.1-0.2-0.1-0.3-0.2
		C241.3,134.8,242.1,132.3,242.9,129.8z"/>
	<path class="st4" d="M163.8,124.5c-2.3,1.9-4.3,3.5-6.5,5.3c0.8,2.5,1.5,4.9,2.3,7.6c-1.5-0.5-2.5-1.5-3.6-2.3
		c-1.1-0.7-2.2-1.5-3.4-2.3c-2.2,1.6-4.4,3.1-6.6,4.6c-0.1-0.1-0.2-0.1-0.3-0.2c0.7-2.4,1.8-4.8,2.6-7.4c-2.2-1.7-4.3-3.3-6.5-5
		c2.7-0.6,5.4-0.3,8.2-0.5c0.8-2.4,1.6-4.9,2.4-7.3c0.1,0,0.2,0,0.4,0c0.4,1,0.8,2,1.1,3.1c0.4,1.1,0.9,2.2,1.2,3.3
		c0.2,0.8,0.7,1.1,1.5,1c1.9,0,3.8,0,5.8,0C162.8,124.3,163.1,124.4,163.8,124.5z"/>
	<path class="st4" d="M168.1,160.5c-0.3,3.9-0.2,25.5,0.2,26.9h1.8c20.7,0,41.3-0.1,62-0.1l0.1-0.1c0-0.1,0-0.1,0.1-0.2v-26.7
		C228.7,159.9,169.2,160,168.1,160.5z M230.2,185.2H170v-22.9h60.1C230.5,163.6,230.6,183.4,230.2,185.2z"/>
	<path class="st4" d="M169.9,255.7v3.7h-1.8v-3.6C168.6,255.8,169.2,255.7,169.9,255.7z"/>
	<path class="st4" d="M175.2,260.6v1.8c-1.1-0.1-2.3-0.1-3.7-0.1c0-0.6-0.1-1.1-0.1-1.6C172.7,260.3,173.9,260.4,175.2,260.6z"/>
	<path class="st4" d="M183,262.2c-1.3,0.4-2.5,0.3-3.8,0.1v-1.8h3.7C182.9,261.1,183,261.6,183,262.2z"/>
	<path class="st4" d="M169.8,248v3.8h-1.7v-3.7C168.7,248.1,169.2,248.1,169.8,248z"/>
	<path class="st4" d="M147.1,256.8c-0.7,0.2-1.3,0.3-2,0.4c-0.3-1.2-0.6-2.3-1-3.6c0.7-0.2,1.2-0.3,1.9-0.5
		C146.4,254.3,146.7,255.4,147.1,256.8z"/>
	<path class="st4" d="M137.8,219.7c-0.7,0.2-1.2,0.3-2,0.5c-0.3-1.2-0.6-2.4-1-3.7c0.7-0.2,1.2-0.3,1.9-0.4
		C137,217.3,137.4,218.4,137.8,219.7z"/>
	<path class="st4" d="M145.4,249.5c-0.6,0.2-1.1,0.3-1.7,0.5c-0.8-1.1-0.8-2.4-1.2-3.7c0.7-0.2,1.2-0.3,1.9-0.4
		C144.7,247.1,145,248.2,145.4,249.5z"/>
	<path class="st4" d="M139.7,227.2c-0.7,0.2-1.2,0.3-1.9,0.5c-0.4-1.2-0.7-2.4-1.1-3.7c0.8-0.2,1.3-0.3,2-0.4
		C139,224.8,139.3,225.9,139.7,227.2z"/>
	<path class="st4" d="M149,264.2c-0.7,0.2-1.3,0.3-2,0.5c-0.3-1.3-0.6-2.4-0.9-3.6c0.7-0.2,1.2-0.3,1.9-0.5
		C148.3,261.8,148.6,262.9,149,264.2z"/>
	<path class="st4" d="M141.6,234.7c-0.8,0.1-1.3,0.2-1.9,0.3c-0.3-1.2-0.6-2.3-1-3.6c0.7-0.1,1.3-0.3,2-0.4
		C140.9,232.3,141.2,233.4,141.6,234.7z"/>
	<path class="st4" d="M143.5,242.1c-0.8,0.1-1.3,0.2-2,0.3c-0.3-1.2-0.6-2.3-1-3.6c0.7-0.1,1.3-0.2,2-0.4
		C142.8,239.7,143.1,240.8,143.5,242.1z"/>
	<path class="st4" d="M150.9,271.6c-0.6,0.2-1.1,0.3-1.9,0.6c-0.3-1.3-0.7-2.4-1-3.7c0.7-0.2,1.2-0.3,1.9-0.5
		C150.3,269.3,150.6,270.4,150.9,271.6z"/>
	<path class="st4" d="M152.8,279c-0.6,0.2-1.1,0.3-1.6,0.5c-0.9-1-0.8-2.2-1.3-3.5c0.7-0.2,1.2-0.4,1.9-0.6
		C152.1,276.7,152.4,277.8,152.8,279z"/>
	<path class="st4" d="M204.5,167.1v2.4c-1.1-0.1-2.3-0.1-3.9-0.1v11.4h-2.9v-11.2h-6.6c-1.1,3.7-2.1,7.4-3.3,11.2h-3.2
		c-0.8-2.9-1.5-5.9-2.4-9.2c-0.8,1.7-1,3.3-1.4,4.7c-0.4,1.5-0.8,2.9-1.2,4.5h-3.2c-1.3-4.5-2.6-9.1-4-13.8h3.3
		c0.8,3.2,1.5,6.3,2.3,9.4c1.3-3,1.9-6.2,2.9-9.3h2.3c0.8,3.1,1.7,6.3,2.6,9.4h0.3c0.8-3.1,1.5-6.2,2.3-9.4L204.5,167.1L204.5,167.1
		z"/>
	<path class="st4" d="M227.8,178.1c0,0.4-0.5,0.9-0.8,1.2c-2.3,1.9-5,2.2-7.8,1.3c-0.5-0.1-0.9-0.4-1.5-0.6
		c-0.8,1.2-1.9,0.8-3.2,0.7c-0.1-4.6,0-9.1,0-13.8c1.2-0.1,2.4-0.6,3.2,0.6c4.6-1.6,8-0.9,9.8,2.3c-0.7,0.4-1.4,0.8-2.1,1.2
		c-0.3-0.3-0.7-0.6-1-0.8c-1.4-1.1-2.9-1.2-4.5-0.5c-2.3,1-3.2,4.1-2,6.4c1.1,2.2,3.8,3.1,6.1,1.9c1-0.5,1.1-1.2,0.7-2.3h-3.4v-2.5
		h6.5C227.8,174.9,227.9,176.5,227.8,178.1z"/>
</g>
</svg>
