<?xml version="1.0" encoding="utf-8"?>
<!-- Generator: Adobe Illustrator 24.1.3, SVG Export Plug-In . SVG Version: 6.00 Build 0)  -->
<svg version="1.1" id="Layer_1" xmlns="http://www.w3.org/2000/svg" xmlns:xlink="http://www.w3.org/1999/xlink" x="0px" y="0px"
	 viewBox="0 0 400 400" style="enable-background:new 0 0 400 400;" xml:space="preserve">
<style type="text/css">
	.st0{display:none;}
	.st1{display:inline;fill:#222222;}
	.st2{fill:#222222;}
	.st3{fill:#E5E5E5;}
</style>
<g class="st0">
	<path class="st1" d="M354,205.7c-0.1,1.6-0.2,3.1-0.3,4.7c-0.8,13.6-3.2,26.9-7.6,39.7c-14.4,42-41.6,72.7-81.7,91.9
		c-12.9,6.2-26.6,10.1-40.7,12.2c-10,1.5-20,2-30,1.4c-31.8-1.8-60.3-12.4-85.3-32c-27.7-21.8-45.8-49.9-54.7-84
		c-2.5-9.6-3.9-19.3-4.5-29.2c-0.6-9.2-0.3-18.4,0.8-27.6c3.4-28.5,13.7-54.3,31.3-77.1c20-25.8,45.6-43.6,76.9-53.2
		c10.3-3.1,20.9-5.1,31.6-5.9c46.3-3.5,91.2,14.1,122.7,48.2c18.8,20.4,31.3,44.1,37.6,71.1c2.2,9.6,3.5,19.3,3.8,29.1
		c0,0.4,0.1,0.8,0.1,1.2C354,199.4,354,202.6,354,205.7z M350.6,199.7c-0.2-3.4-0.4-8.2-0.8-12.9c-0.7-9.1-2.4-18-4.8-26.8
		c-12.1-43.7-42.8-78.9-81.9-96.9c-17.5-8-35.9-12.5-55.1-13.3c-13.4-0.6-26.7,0.5-39.8,3.6c-31.2,7.4-57.4,23.2-78.4,47.4
		c-23.9,27.5-36.1,59.7-37.3,96.1c-0.5,14.9,1.2,29.7,5.2,44.1c8.4,30.8,24.8,56.6,49.3,77c25.6,21.3,55.1,32.7,88.4,34.2
		c13.9,0.6,27.5-0.7,41-4c31.1-7.7,57.1-23.8,77.9-48.2C338.3,271.5,350.1,238.3,350.6,199.7z"/>
	<path class="st1" d="M46,100.5c0.7-1,1.5-2,2.2-2.9c1.8-2.5,3.5-5.2,5.6-7.5c2.1-2.5,5.7-2.8,8.2-0.5c1.6,1.5,2,3.2,1.6,5.2
		c0.9-0.3,1.8-0.5,2.7-0.8c1.5-0.5,2.9,0.2,4,1c1.3,0.9,2.2,2.1,2.5,3.8c0.3,1.7-0.2,3.2-1.1,4.5c-2.3,3.4-4.7,6.7-7.1,10
		c-0.3,0.4-0.5,0.3-0.8,0.1c-3-2.2-6-4.4-9.1-6.5c-2.8-2-5.6-4.1-8.5-6.1c-0.1-0.1-0.2,0-0.3-0.1C46,100.7,46,100.6,46,100.5z
		 M63.8,107.5c0.5-0.6,0.9-1.2,1.3-1.7c0.9-1.4,1.9-2.7,2.8-4.1c0.6-1.1,0.3-2.5-0.7-3.1c-1.1-0.7-2.3-1.1-3.4,0.2
		c-1.5,1.8-2.8,3.7-4.3,5.6C61,105.4,62.4,106.5,63.8,107.5z M56.2,101.9c0.1-0.1,0.3-0.2,0.4-0.4c1-1.4,2.1-2.8,3.1-4.3
		c0.4-0.6,0.7-1.3,0.7-2c-0.1-1-0.7-1.8-1.7-2.2c-0.9-0.3-2,0-2.7,0.9c-1.2,1.5-2.3,3.1-3.4,4.7c-0.2,0.3-0.2,0.6,0.1,0.8
		C53.8,100.3,55,101.1,56.2,101.9z"/>
	<path class="st1" d="M195.3,15.9c1,0.2,2,0.4,2.9,0.7c4.2,1.4,6.7,4.4,7.5,8.8c0.6,3.1,0.1,6.1-1.6,8.8c-1.8,2.8-4.4,4.3-7.6,4.8
		c-3.4,0.6-6.6,0.1-9.4-2c-2.5-1.8-3.9-4.3-4.4-7.3c-0.4-2.4-0.2-4.8,0.8-7.1c1.2-2.7,3.1-4.6,5.8-5.7c1.2-0.5,2.5-0.6,3.8-0.9
		c0.1,0,0.2-0.1,0.2-0.2C193.9,15.9,194.6,15.9,195.3,15.9z M201.1,27.5c0-0.3-0.1-0.8-0.2-1.3c-0.5-4.2-4.5-6.9-8.9-5.6
		c-2.7,0.8-4.1,2.9-4.5,5.7c-0.4,3.1,0.3,5.6,2.8,7.6c1.9,1.5,5.4,1.6,7.4,0.3C200,32.7,201,30.4,201.1,27.5z"/>
	<path class="st1" d="M199.8,384.1c-1.1-0.5-2.1-0.9-3.2-1.4c-0.1,0-0.2-0.1-0.3-0.2c-0.8-0.7-0.8-0.7-0.1-1.5
		c0.1-0.1,0.2-0.3,0.3-0.4c0.7,0.5,1.4,1.1,2.2,1.4c1.4,0.6,2.9,0.9,4.4,0.1c0.8-0.4,1.3-1,1.3-2c0-0.9-0.6-1.5-1.3-1.8
		c-1.4-0.6-2.8-1-4.2-1.5c-1.3-0.5-2.4-1.2-2.6-2.7c-0.3-2,0.6-3.4,2.5-4.1c2.4-0.9,5.7-0.3,7.3,1.7c-0.4,0.4-0.7,0.7-1.1,1.2
		c-0.9-1.1-2.1-1.5-3.5-1.7c-1-0.2-1.9,0-2.7,0.6c-1,0.8-1.3,2.2,0.2,3.1c0.8,0.5,1.8,0.7,2.7,1c0.7,0.2,1.4,0.4,2,0.7
		c2,0.8,2.7,2.5,2.5,3.8c-0.3,1.9-1,2.9-3.3,3.6c-0.1,0-0.3,0.1-0.4,0.2C201.6,384.1,200.7,384.1,199.8,384.1z"/>
	<path class="st1" d="M339.4,100.3c3.8-3,7.4-5.8,11.1-8.7c1,1.3,2,2.5,2.9,3.8c-5.9,4.6-11.7,9.2-17.7,13.8
		c-0.4-0.4-0.8-0.9-1.1-1.3c-0.3-0.4-0.7-0.9-1-1.3c-0.5-0.6-0.8-1.1-0.5-2c1.6-5.4,3.1-10.8,4.6-16.2c0,0,0-0.1-0.1-0.2
		c-3.8,3-7.6,6-11.4,8.9c-1-1.3-2-2.5-2.9-3.7c5.9-4.6,11.8-9.2,17.7-13.9c0.9,1.2,1.8,2.3,2.7,3.5c0.2,0.2,0.3,0.6,0.2,0.8
		c-1.4,5.3-2.9,10.5-4.4,15.7C339.5,99.7,339.5,99.9,339.4,100.3z"/>
	<path class="st1" d="M178.7,40.1c-1.4,0.3-2.7,0.4-4,0.9c-1.6,0.6-2.1-0.6-2.8-1.4c-1.2-1.4-2.5-2.7-3.5-4.2
		c-0.8-1.3-1.8-1.1-2.9-0.8c-0.5,0.1-1,0.2-1.6,0.4c0.5,2.6,1.1,5.2,1.6,7.8c-1.4,0.3-2.8,0.6-4.2,0.9c-0.2,0-0.5-0.3-0.6-0.5
		c-0.9-4.6-1.8-9.1-2.7-13.7c-0.5-2.4-1-4.8-1.5-7.2c0-0.2,0-0.3,0-0.6c2.7-0.5,5.3-1.1,8-1.6c1.2-0.2,2.3-0.6,3.5-0.6
		c2.3-0.1,4.4,0.5,6,2.4c1.7,2,2.5,5.8,1,8.2c-0.6,0.9-1.4,1.7-2.3,2.4c-0.5,0.4-0.5,0.6-0.1,1c1.3,1.4,2.6,2.8,3.9,4.3
		C177.1,38.4,177.8,39.2,178.7,40.1z M161.9,24.8c0.4,2,0.8,4,1.2,6c0.5-0.1,1.1-0.2,1.6-0.3c1.5-0.4,3.1-0.7,4.5-1.2
		c1.5-0.5,2-2.1,1.4-3.7c-0.4-1.2-2.2-2.1-3.5-1.8C165.4,24.1,163.7,24.4,161.9,24.8z"/>
	<path class="st1" d="M319,85c-6.4,0.1-12.3-5.8-12.1-12.1c0.2-6.2,5.4-11.7,11.8-11.6c6.4,0.1,11.9,5.5,12,11.9
		C330.7,79.5,325.2,84.9,319,85z M311.6,73.8c-0.3,3.5,3.3,6.8,6.8,6.7c3.3-0.1,6.6-3,7.4-6.5c1-4.2-2.8-8.8-7.8-8
		C314.8,66.5,311.4,70.1,311.6,73.8z"/>
	<path class="st1" d="M240.4,29.6c3.5,0.9,7,1.7,10.6,2.6c-0.3,1.2-0.6,2.4-0.9,3.6c-0.1,0.5-0.5,0.4-0.8,0.3
		c-3.3-0.8-6.6-1.6-9.9-2.4c-0.4,1.7-0.8,3.3-1.2,5c3.4,0.8,6.7,1.6,10.1,2.4c0.5,0.1,0.7,0.2,0.5,0.8c-0.3,1.1-0.5,2.2-0.8,3.4
		c-1.4-0.3-2.7-0.6-4.1-1c-3.6-0.9-7.2-1.8-10.8-2.6c-0.4-0.1-0.5-0.2-0.4-0.7c0.9-3.6,1.8-7.3,2.7-10.9c0.8-3.5,1.7-7,2.5-10.4
		c5,1.2,9.9,2.4,14.9,3.6c0.5,0.1,0.6,0.3,0.5,0.8c-0.3,1-0.5,1.9-0.7,2.9c-0.1,0.5-0.2,0.6-0.7,0.4c-3.2-0.8-6.4-1.5-9.6-2.3
		c-0.6-0.2-0.8,0-0.9,0.6C241.1,27,240.7,28.3,240.4,29.6z"/>
	<path class="st1" d="M79,88.2c2.7-2.8,5.3-5.5,8-8.4c0.9,1.1,1.7,2.1,2.7,3.2c-3.4,3.6-7,7.4-10.7,11.3c-0.1-0.1-0.2-0.1-0.3-0.2
		c-1.7-1.6-3.4-3.3-5.1-4.9c-2.6-2.5-5.1-4.9-7.7-7.4c-1.1-1-2.1-2-3.3-3c3.7-3.9,7.3-7.7,11-11.5c1,0.9,2.1,1.9,3.1,2.8
		c-2.6,2.7-5.1,5.4-7.4,7.7c1,1.3,2,2.5,3,3.7c2.7-2.8,5.1-5.4,7.6-7.9c1,0.9,2,1.9,3.1,2.8c-2.5,2.7-5,5.3-7.5,7.9
		C76.7,85.7,77.8,86.9,79,88.2z"/>
	<path class="st1" d="M90.8,73.3c2.1,0.2,4.1-0.2,5.9-1.3c1-0.6,1.9-1.5,2.7-2.4c0.6-0.6,0.8-1.5,0.5-2.4c-0.4-0.9-1.2-1.4-2.2-1.1
		c-1.2,0.4-2.3,0.9-3.5,1.3c-1.7,0.6-3.4,1.4-5.2,1.9c-3.4,0.8-6.2-1.7-6.9-4.6c-0.6-2.7,0.4-4.9,2.2-6.9c1.8-1.9,3.9-3.2,6.4-3.9
		c1.2-0.3,2.4-0.4,3.8-0.6c0,1.6,0,3.1,0,4.5c-2.9,0.1-5.5,0.9-7.5,3.3c-1.1,1.3-0.6,3.1,0.8,3.3c0.6,0.1,1.3-0.2,1.9-0.4
		c1.8-0.7,3.5-1.5,5.3-2.2c2-0.8,4-1.1,6-0.1c2.4,1.3,4.2,4.7,3.3,7.7c-0.8,2.3-2.3,4-4.2,5.5c-1.6,1.3-3.5,2.3-5.5,2.7
		c-1.1,0.2-2.2,0.2-3.3,0.3c-0.2,0-0.5-0.2-0.5-0.4C90.8,76,90.8,74.6,90.8,73.3z"/>
	<path class="st1" d="M131.8,29.6c2.9-1,5.7-2,8.5-3c1.6-0.6,3.1-1.2,4.8-1c2,0.2,3.7,1,5,2.6c1.1,1.5,1.7,3.1,1.6,4.9
		c-0.1,2.7-1.3,4.7-3.7,5.9c-2.2,1.1-4.5,1.8-6.9,2.7c0.9,2.4,1.7,4.9,2.6,7.5c-1.5,0.5-3,1.1-4.5,1.6
		C136.8,43.8,134.3,36.7,131.8,29.6z M139.8,37.8c1.9-0.7,3.8-1.4,5.6-2.2c1.3-0.6,1.9-2.3,1.3-3.7c-0.5-1.2-1.6-2.2-3.2-1.8
		c-1.8,0.5-3.6,1.1-5.4,1.7c-0.1,0-0.3,0.3-0.2,0.4C138.4,34.1,139.1,35.9,139.8,37.8z"/>
	<path class="st1" d="M278.7,38.4c-1.5,0.1-3,0.2-4.4,0.4c-0.6-2.7-2-4.6-4.7-5.3c-2.2-0.6-4.1-0.2-5.9,1.2c-2.6,2-3.8,5.6-2.7,8.7
		c1.2,3.5,5.2,5.6,8.8,4c0.5-0.2,0.9-0.6,1.4-0.9c1,1.1,2,2.2,3,3.3c-3.8,3.1-8.6,3.5-13.5,0.1c-4.4-3.1-6-8-4.2-13.3
		c0.9-2.5,2.4-4.6,4.7-6c1.9-1.2,4-1.9,6.2-1.7C274.5,29.4,277.9,33.2,278.7,38.4z"/>
	<path class="st1" d="M218.6,21.2c-2.2-0.2-4.3-0.5-6.5-0.7c0.1-1.3,0.3-2.7,0.4-4.2c5.9,0.6,11.8,1.3,17.8,1.9
		c-0.1,0.8-0.1,1.6-0.2,2.4c0,0.3-0.1,0.7-0.1,1c0.1,0.8-0.3,0.9-0.9,0.8c-1.7-0.2-3.5-0.5-5.2-0.6c-0.2,0-0.6,0.4-0.6,0.6
		c-0.2,1.2-0.2,2.4-0.4,3.6c-0.2,1.9-0.4,3.8-0.6,5.7c-0.1,1.3-0.2,2.5-0.4,3.8c-0.2,1.5-0.3,3-0.5,4.4c-1.6-0.2-3.1-0.3-4.8-0.5
		C217.3,33.3,218,27.3,218.6,21.2z"/>
	<path class="st1" d="M114,38c0.7,1.2,1.4,2.4,2.1,3.6c-1.7,1-3.3,2-4.9,3c-0.5,0.3-0.6,0.4-0.3,1c3,5,6,10,9.1,15.1
		c-1.3,0.8-2.7,1.6-4.1,2.5c-1.2-2-2.3-3.9-3.5-5.8c-1.9-3.1-3.7-6.2-5.6-9.3c-0.2-0.4-0.5-0.5-0.9-0.3c-1.7,1-3.4,2.1-5,3.1
		c-0.7-1.2-1.5-2.4-2.2-3.6C103.7,44.2,108.8,41.1,114,38z"/>
	<path class="st1" d="M284.9,61.7c-1.4-0.8-2.8-1.6-4.1-2.4c3.1-5.3,6.1-10.5,9.2-15.8c-1.9-1.1-3.8-2.2-5.7-3.3
		c0.7-1.2,1.4-2.4,2.1-3.6c5.2,3,10.3,6,15.5,9c-0.7,1.2-1.4,2.4-2.1,3.6c-1.9-1.1-3.7-2.1-5.7-3.3C291,51.2,288,56.5,284.9,61.7z"
		/>
	<path class="st1" d="M307.5,49.7c1.3,0.9,2.6,1.9,3.9,2.8c-2.9,4.1-5.8,8.1-8.7,12.2c-1.3,1.8-2.6,3.7-4,5.5
		c-0.3,0.4-0.6,0.5-1.1,0.1c-0.9-0.7-1.8-1.4-2.7-2c-0.4-0.3-0.4-0.5-0.1-0.9c1.3-1.8,2.6-3.6,3.9-5.4c2-2.7,3.9-5.5,5.9-8.2
		C305.5,52.4,306.5,51.1,307.5,49.7z"/>
	<path class="st1" d="M214.4,369.4c2.3-0.2,4.5-0.5,6.8-0.6c1.8-0.1,3.1,0.8,3.5,2.5c0.4,1.3,0.1,3.2-1.7,3.9c0,0,0,0.1-0.1,0.2
		c1.4,0.3,2.4,1.2,2.8,2.6c0.5,2.4-0.4,4-2.7,4.5c-2.2,0.5-4.5,0.6-6.7,0.9c-0.2,0-0.5-0.4-0.6-0.6c-0.3-2.3-0.5-4.6-0.7-7
		c-0.2-1.8-0.4-3.6-0.7-5.4C214.4,370.1,214.4,369.8,214.4,369.4z M217.4,381.6c1.5-0.1,2.8-0.3,4.2-0.4c1.4-0.2,2.5-0.9,2.4-2.7
		c-0.1-1.3-1.2-2.3-2.5-2.2c-1.5,0.1-3.1,0.3-4.7,0.5C217,378.5,217.2,380,217.4,381.6z M216.2,370.8c0.2,1.6,0.4,3,0.5,4.5
		c1.5-0.2,2.9-0.3,4.3-0.5c1.2-0.1,2.2-1.2,2.1-2.3c-0.1-1.4-1.3-2.4-2.6-2.3C219.1,370.4,217.7,370.6,216.2,370.8z"/>
	<path class="st1" d="M180.4,374.1c0,2.9-1,5.1-3.2,6.6c-4,2.8-10.3,0.2-10.7-5c-0.2-2.6,0.4-4.8,2.2-6.6c1.9-1.9,4.2-2.1,6.6-1.5
		C178.4,368.3,180.6,371,180.4,374.1z M173.5,368.8c-1.3-0.1-2.5,0.4-3.3,1.2c-1.7,1.8-2.4,4-1.7,6.4c0.9,3.5,5,4.9,7.7,2.9
		c2.1-1.5,2.6-3.7,2.4-6.1C178.3,370.5,176,368.8,173.5,368.8z"/>
	<path class="st1" d="M250.7,377.1c-3,0.8-6,1.5-8.9,2.3c-1.1-4.3-2.2-8.7-3.3-13c-0.1-0.5,0-0.6,0.4-0.7c2.8-0.7,5.5-1.4,8.3-2.1
		c0.1,0.5,0.2,1,0.3,1.5c-2.4,0.6-4.8,1.2-7.2,1.9c0.4,1.3,0.7,2.6,1,3.9c0.1,0.4,0.3,0.5,0.7,0.4c2.2-0.6,4.3-1.1,6.5-1.7
		c0.1,0.5,0.3,1,0.4,1.5c-2.4,0.6-4.7,1.2-7.1,1.8c0.4,1.6,0.8,3.1,1.2,4.7c2.4-0.6,4.7-1.2,7.2-1.8
		C250.4,376.1,250.5,376.5,250.7,377.1z"/>
	<path class="st1" d="M182.3,381c0.3-0.4,0.7-0.8,1-1.3c1.4,1.9,4.1,2.8,6.1,2.2c0.8-0.3,1.5-0.8,1.7-1.7c0.2-1-0.1-1.8-1.1-2.2
		c-1.2-0.5-2.4-1-3.6-1.6c-0.7-0.4-1.5-0.8-2.1-1.3c-1.7-1.4-1.1-4.2,0.8-5.3c2.3-1.4,6.4-0.6,8.1,1.6c-0.4,0.4-0.7,0.7-1.1,1.1
		c-1.3-1.6-3.1-2.1-5.1-1.8c-1,0.1-1.8,0.9-1.9,1.8c-0.1,0.8,0.6,1.6,1.6,2.1c1.5,0.6,3,1.2,4.5,2c1.4,0.7,1.8,2,1.7,3.5
		c-0.2,1.3-0.9,2.4-2.1,3C188.2,384.3,184,383.4,182.3,381z"/>
	<path class="st1" d="M156.5,363.6c2.1,0.6,4,1,5.8,1.6c1.9,0.6,3.2,2.3,3,4c-0.4,2.7-1.5,4-4,4.2c-1.1,0.1-2.3-0.4-3.5-0.7
		c-1.8-0.4-1.8-0.5-2.3,1.2c-0.4,1.2-0.6,2.5-1,3.7c-0.5-0.1-1.1-0.2-1.7-0.4C154.1,372.7,155.3,368.2,156.5,363.6z M156.4,370.7
		c1.3,0.3,2.5,0.5,3.6,0.9c1.4,0.4,2.8-0.3,3.3-1.7c0.5-1.5-0.2-3-1.8-3.4c-1.2-0.4-2.4-0.6-3.8-1
		C157.3,367.2,156.9,368.9,156.4,370.7z"/>
	<path class="st1" d="M231.6,379.7c1.5-0.3,2.9-0.5,4.4-0.8c0.3-0.1,0.7-0.1,1-0.2c1.1-0.3,1.4,0,1.3,1c0,0.1-0.2,0.3-0.4,0.4
		c-2.5,0.5-5,0.9-7.5,1.4c-0.1,0-0.2,0-0.3,0c-0.8-4.5-1.7-9.1-2.5-13.7c0.6-0.1,1.1-0.2,1.7-0.3
		C230.1,371.5,230.8,375.6,231.6,379.7z"/>
	<path class="st1" d="M209.1,369.6c0.6,0,1.1,0,1.7,0c0.1,1,0.2,2,0.2,3c0.1,1.8,0.1,3.5,0.2,5.3c0.1,1.7,0.2,3.3,0.3,5
		c0,0.2,0,0.4,0,0.6c-0.6,0-1,0-1.7,0C209.5,378.9,209.3,374.3,209.1,369.6z"/>
	<path class="st1" d="M133.1,123.9c5.5,4.4,11.4,7.5,17.8,9.8c7.3,2.6,14.8,3.6,22.6,2.7c10.2-1.3,19.1-5.4,27.2-11.7
		c0.2-0.1,0.4-0.3,0.5-0.4c0.3-0.4,0.5-0.3,0.9,0c4.6,3.9,9.8,6.8,15.3,9c3.5,1.4,7.1,2.4,10.8,3s7.5,0.7,11.2,0.3
		c10.3-1,19.5-4.7,28-10.6c0.9-0.6,1.7-1.3,2.7-2c0,0.4,0.1,0.6,0.1,0.9c0,31.9,0,63.8-0.1,95.7c0,4.7-0.6,9.3-1.5,13.9
		c-2.2,11.3-7.6,20.9-15,29.6c-9.9,11.6-21.9,20.5-35.8,26.9c-5,2.3-10.2,4.3-15.6,5.7c-0.4,0.1-1,0.1-1.4,0c-5-1.3-9.8-3-14.4-5.1
		c-14.3-6.4-26.7-15.5-36.9-27.5c-5.4-6.3-9.8-13.2-12.6-21.1c-1.4-3.9-2.3-7.9-2.9-11.9c-1-6.8-1-13.7-1-20.6c0-28.5,0-57,0-85.4
		C133,124.7,133.1,124.4,133.1,123.9z"/>
</g>
<g>
	<path class="st2" d="M35.6,105.6c0.8-1.3,1.7-2.6,2.5-3.8c0.2-0.3,0.3-0.4,0.7-0.4c0.7,0,1.5-0.1,2.2-0.1c1.4,0,2.8-0.2,4.2-0.2
		c3-0.1,6.1-0.5,9.1-0.7c0.8-0.1,1.5,0,2.4,0c-1.1-1-2.3-1.6-3.4-2.3c-2.8-1.8-5.5-3.6-8.3-5.3c-0.6-0.4-0.7-0.6-0.3-1.2
		c0.7-1,1.4-2.1,2.1-3.1c0.1-0.2,0.1-0.4,0.6-0.2c3.6,2.4,7.2,4.7,10.8,7c2.7,1.7,5.4,3.5,8.2,5.2c0.5,0.3,0.5,0.5,0.2,1
		c-0.7,0.9-1.3,1.9-1.9,2.9c-0.3,0.5-0.7,0.7-1.3,0.7c-2.5,0.1-5,0.2-7.5,0.4c-1.8,0.1-3.7,0.2-5.5,0.4c-1.6,0.2-3.3,0-4.9,0.4
		c1,0.7,2.1,1.3,3.1,2c3,1.9,6,3.8,9,5.7c0.4,0.3,0.6,0.5,0.2,1c-0.7,1.1-1.4,2.2-2.1,3.3c-0.2,0.3-0.3,0.4-0.7,0.1
		c-3.6-2.4-7.2-4.7-10.9-7c-2.8-1.8-5.7-3.6-8.5-5.4C35.6,105.7,35.6,105.6,35.6,105.6z"/>
	<path class="st2" d="M207.1,7.2c0,0.1,0.1,0.2,0.3,0.2c1.5-0.1,3,0.2,4.5,0.2c2.6,0,5.2,0.3,7.8,0.4c1.5,0.1,3-0.1,4.5,0.3
		c0.3,0.1,0.4,0,0.3,0.4c-0.2,1.1,0,2.2-0.2,3.3c-0.1,0.9-0.5,0.8-1,0.7c-1.7-0.3-3.4-0.2-5-0.3c-0.7-0.1-0.9,0.1-0.9,0.9
		c0,2.7-0.3,5.4-0.4,8.1c-0.1,2-0.2,4.1-0.4,6.1c-0.1,1.2-0.2,2.3-0.1,3.5c0,0.4-0.1,0.5-0.5,0.5c-1.4-0.2-2.7-0.2-4.1-0.2
		c-0.4,0-0.6-0.2-0.5-0.6c0.2-1.6,0.1-3.1,0.3-4.7c0-0.1,0-0.3,0-0.4c0.1-1.8,0.1-3.5,0.2-5.3c0.2-2.2,0.3-4.4,0.3-6.6
		c0-0.5,0.4-1.2,0.1-1.6c-0.4-0.4-1.1,0-1.6-0.1c-1.6-0.3-3.2-0.1-4.8-0.3c-0.5-0.1-0.4-0.3-0.4-0.6c0.1-1.3,0.2-2.6,0.2-3.8
		C206.1,7.2,206.6,7.2,207.1,7.2z"/>
	<path class="st2" d="M206.2,392.8c-1.1-1.8-2.2-3.6-3.3-5.4c-0.3-0.4-0.5-0.6-1-0.6c-2.3,0-2.3,0-2.4,2.4c0,0.9-0.1,1.9,0,2.8
		c0.1,0.7-0.3,0.7-0.8,0.6c-0.4-0.1-1,0.3-1-0.6c0-2.3-0.1-4.6,0.1-6.8c0.2-2.2,0.1-4.4,0.1-6.6c0-0.5,0.1-0.7,0.7-0.7
		c1.7,0,3.3-0.1,5,0c1.7,0.1,3.4,0.5,4.3,2.2c1.2,2.3,0.4,6-2.7,6.5c-0.5,0.1-0.5,0.3-0.2,0.7c1.1,1.6,2.1,3.3,3.2,4.9
		c0.1,0.2,0.3,0.3,0.1,0.6C207.5,392.8,206.9,392.8,206.2,392.8z M199.7,382.4c0,0.8,0,1.5,0,2.3c0,0.4,0.1,0.6,0.5,0.5
		c1.3,0,2.6,0,3.9,0c1.3,0,2.5-1.5,2.5-2.8c0-1.3-1.3-2.6-2.5-2.6c-0.4,0-0.8,0-1.1-0.1c-0.9-0.2-2-0.3-2.8,0
		c-1.1,0.4-0.2,1.6-0.5,2.4C199.6,382.1,199.7,382.2,199.7,382.4z"/>
	<path class="st2" d="M272.9,54.5c3,1.6,6,3.1,8.9,4.7c31.2,17.8,54,43.2,68.6,76c5.3,11.9,9,24.3,11.3,37.1
		c2,11.6,2.8,23.2,2.4,34.9c-0.8,20.6-5.2,40.3-13.3,59.2c-5.7,13.3-13.2,25.6-22.2,36.9c-0.1,0.2-0.2,0.3-0.3,0.5c0,0,0,0,0,0
		c-0.3,0.2-0.5,0.4-0.6,0.7c0,0.1-0.1,0.1-0.1,0.2c-0.6,0.5-1,1.1-1.5,1.7l0.1,0.1c0,0-0.1,0-0.1,0c-0.2,0.3-0.5,0.6-0.7,0.8
		c0,0,0,0,0,0c-0.3,0.2-0.5,0.5-0.6,0.8c-2.7,3-5.4,5.9-8.2,8.8c-21.8,21.5-47.5,35.9-77.4,42.8c-13.4,3.1-27,4.3-40.8,3.7
		c-27.4-1.1-52.7-8.8-76.2-22.9c-0.2-0.1-0.4-0.2-0.6-0.3c-0.4-0.4-0.9-0.7-1.4-0.9l0,0c0,0,0,0,0,0c-0.1-0.2-0.4-0.3-0.6-0.4
		c0,0,0,0-0.1,0c-0.2-0.1-0.3-0.3-0.5-0.4c-11.5-7.4-21.9-16.1-31.1-26.2c-26.5-29-40.8-63.2-43.1-102.4
		c-0.8-13.4,0.2-26.7,2.8-39.9c3.7-19,10.5-36.8,20.5-53.4c2.3-3.8,4.8-7.5,7.4-11.2c0,0,0,0,0.1-0.1c0.5-0.6,1.1-1.2,1.4-2
		c2.4-2.8,4.6-5.8,7.1-8.6c16.7-19.2,36.7-33.9,60.2-43.6c11.9-4.9,24.2-8.3,37-10.2c11.8-1.7,23.7-2.2,35.6-1.2
		c18,1.4,35.2,5.7,51.6,13c0.1,0.1,0.3,0.1,0.4,0.1c0.5,0.3,1,0.6,1.6,0.7c0.1,0.1,0.2,0.1,0.4,0.2c0.5,0.4,1.2,0.6,1.8,0.9
		C272.6,54.3,272.7,54.4,272.9,54.5z M360.5,207.2c0-19.3-1.5-32.5-4.8-45.4c-9.8-37.7-30.4-68.1-62.1-90.8
		c-23.3-16.7-49.5-25.9-78.1-28.1c-9.1-0.7-18.2-0.5-27.3,0.4c-9,0.9-17.8,2.6-26.4,5.1c-29.1,8.5-53.7,24.1-73.7,46.8
		c-23.8,27-36.8,58.6-39.5,94.4c-0.8,10.9-0.4,21.7,1,32.6c1.5,11.5,4.2,22.7,8.2,33.6c10.5,28.8,27.8,52.7,52.1,71.4
		c26.1,20.1,55.7,30.9,88.7,32.2c13.7,0.6,27.3-0.7,40.6-3.8c33.3-7.9,61.1-24.9,83.2-50.9C347.8,275.1,360.1,240.3,360.5,207.2z"/>
	<path class="st2" d="M277.1,36.7c3.1-3,6.3-6,9.3-9.1c1.4-1.4,1.4-1.4,3.2-0.6c1.4,0.6,2.9,1.2,4.3,1.9c0.3,0.1,0.4,0.2,0.2,0.6
		c-1.6,3.5-3.1,7-4.6,10.5c-1.5,3.5-3.1,6.9-4.6,10.4c-0.1,0.3-0.1,0.3-0.4,0.2c-1.3-0.6-2.6-1.2-4-1.7c-0.4-0.2-0.4-0.3-0.2-0.6
		c1.7-3.7,3.3-7.4,5-11.2c0.4-1,0.8-1.9,1.2-2.9c0.2-0.1,0.2-0.2,0.1-0.3c-0.1,0.1-0.2,0.1-0.2,0.2c-2.9,2.9-5.8,5.7-8.8,8.6
		c-1.1,1-2.2,2-3.2,3.1c-0.4,0.4-0.6,0.1-1,0c-1-0.2-1.3-0.7-1.3-1.8c0-3.1,0.2-6.1,0.3-9.2c0-1.8,0.1-3.7,0.1-5.5
		c0-0.6,0.3-1.1,0.1-1.8c-0.7,1.6-1.4,3.1-2,4.6c-1.4,3.3-2.9,6.6-4.3,9.9c-0.2,0.4-0.3,0.6-0.9,0.3c-1.3-0.7-2.6-1.2-4-1.8
		c1.2-2.7,2.4-5.4,3.6-8.2c1.9-4.3,3.7-8.6,5.6-12.8c0.2-0.4,0.3-0.6,0.9-0.4c1.7,0.9,3.5,1.6,5.2,2.4c0.4,0.2,0.6,0.4,0.6,0.9
		c0.1,2.8-0.2,5.7-0.3,8.5c-0.1,1.9,0,3.9-0.1,5.8c-0.2,0.1-0.2,0.2-0.1,0.3C276.9,36.8,277,36.8,277.1,36.7z"/>
	<path class="st2" d="M136.1,27.8c0.5,1.5,1.1,3,1.6,4.5c1.2,3.4,2.3,6.8,3.5,10.2c0.2,0.5,0,0.6-0.4,0.7c-1.2,0.4-2.5,0.9-3.7,1.3
		c-0.4,0.1-0.6,0.1-0.7-0.4c-1.3-3.8-2.6-7.7-3.9-11.5c-1.1-3.3-2.3-6.6-3.5-9.9c-0.1-0.3-0.2-0.4,0.3-0.5c2-0.6,3.9-1.3,5.9-2
		c0.4-0.1,0.5,0.1,0.7,0.3c1.4,1.6,2.8,3.3,4.2,4.9c0.8,1,1.7,1.9,2.5,2.9c0.8,0.9,1.6,1.9,2.5,2.8c0.1,0.1,0.2,0.4,0.5,0.3
		c0.2-0.1,0.2-0.3,0.2-0.5c-0.1-1.9,0.2-3.8,0.2-5.7c0.1-2.6,0.3-5.2,0.3-7.8c0-0.7,0.3-1.2,1.1-1.4c1.9-0.6,3.8-1.3,5.8-2
		c2,5.9,4,11.9,6.1,17.8c0.5,1.3,0.9,2.6,1.4,3.9c0.2,0.4,0.2,0.6-0.3,0.7c-1.2,0.4-2.5,0.7-3.7,1.3c-0.4,0.2-0.6,0.1-0.7-0.4
		c-1.2-3.5-2.3-6.9-3.5-10.3c-0.5-1.5-1.1-3-1.8-4.5c0,0.3,0,0.5,0,0.8c0,3.2-0.3,6.3-0.4,9.5c0,2.2-0.3,4.4-0.3,6.6
		c0,0.5-0.2,0.7-0.7,0.9c-1.1,0.6-1.7,0.4-2.5-0.6c-1.7-2.1-3.5-4.2-5.3-6.2c-1-1.1-2-2.2-3-3.3c-0.7-0.8-1.4-1.6-2.1-2.5
		C136.2,27.8,136.1,27.8,136.1,27.8z"/>
	<path class="st2" d="M318.2,63.1c1.7-2.2,3.2-4.2,4.8-6.2c1.3-1.7,2.7-3.4,4-5.1c0.3-0.4,0.4-0.5,0.9-0.1c1.1,1,2.3,1.8,3.5,2.8
		c-3.1,4-6.2,8-9.3,12c-1.6,2-3.1,4.1-4.7,6.1c-0.3,0.5-0.7,0.5-1.1,0.2c-1-0.8-2.1-1.6-3-2.5c-0.6-0.5-0.3-1.3-0.2-1.9
		c0.2-1.5,0.1-2.9,0.1-4.4c0.2-2.7,0.1-5.4,0.2-8.1c0.1-1.5,0.1-3,0.1-4.6c-0.8,0.5-1.1,1.3-1.6,1.9c-2.4,3-4.7,6.1-7,9.1
		c-0.7,1-0.7,1-1.7,0.2c-1-0.8-2-1.5-3.1-2.3c1.1-1.5,2.3-3.1,3.5-4.6c1.7-2.3,3.5-4.5,5.2-6.8c1.8-2.3,3.7-4.7,5.5-7
		c0.3-0.4,0.5-0.1,0.6,0c1.2,0.9,2.3,1.8,3.4,2.6c0.3,0.2,0.2,0.5,0.3,0.8c0.1,3.9-0.2,7.9-0.2,11.8
		C318.3,58.9,318.3,60.9,318.2,63.1z"/>
	<path class="st2" d="M193.7,22.3c-0.2-1.7-0.4-3.4-0.6-5.2c-0.1-0.7-0.1-1.4-0.1-2.1c-0.2-2.1-0.4-4.2-0.6-6.3c-0.1-0.8,0.2-1,1-1
		c1.2,0,2.3-0.1,3.5-0.3c0.3-0.1,0.5,0,0.5,0.4c0.1,2,0.3,4,0.5,6c0.3,2.9,0.6,5.7,0.9,8.6c0.2,1.6,0.2,3.3,0.4,4.9
		c0.1,0.9,0,1.8,0.3,2.8c0.1,0.5,0.2,0.9-0.7,1c-1.2,0.1-2.4,0.3-3.6,0.3c-0.3,0-0.6,0-0.8-0.3c-1.5-1.7-2.9-3.3-4.4-5
		c-1-1.1-1.9-2.3-2.9-3.4c-1.6-1.8-3.1-3.5-4.8-5.4c-0.2,1.2,0.1,2.3,0.2,3.4c0.1,0.9,0.1,1.7,0.2,2.6c0.3,2.3,0.4,4.6,0.6,6.9
		c0,0.5,0.2,0.9,0.2,1.4c0.1,0.7-0.3,1-0.9,1c-1.2,0-2.5,0.1-3.7,0.4c-0.3,0.1-0.3-0.1-0.4-0.3c-0.1-1.1-0.3-2.2-0.3-3.4
		c-0.2-2.5-0.4-5-0.7-7.5c-0.2-1.6-0.2-3.2-0.4-4.9c-0.2-2.2-0.5-4.5-0.7-6.7c0-0.4,0-0.7,0.5-0.7c1.5-0.1,2.9-0.4,4.4-0.4
		c0.6,0,0.9,0.7,1.3,1.2c1.2,1.3,2.3,2.6,3.4,3.9c2.2,2.5,4.3,4.9,6.5,7.4c0.3,0.4,0.6,0.7,0.9,1C193.5,22.4,193.6,22.3,193.7,22.3z
		"/>
	<path class="st2" d="M122,52c-1.5,1-3,1.9-4.4,2.9c-0.3,0.2-0.4,0.1-0.7,0c-2.5-1.4-5-2.7-7.4-4.1c-0.4-0.2-0.7-0.3-1.1,0
		c-0.5,0.3-1.1,0.7-1.6,1c-1,0.7-1,0.7-0.4,1.7c1.2,1.9,2.4,3.7,3.6,5.6c0.1,0.2,0.3,0.4-0.1,0.7c-1.2,0.7-2.3,1.4-3.5,2.2
		c-0.3,0.2-0.4,0.3-0.6-0.1c-2.2-3.5-4.5-7-6.7-10.6c-1.7-2.7-3.5-5.5-5.2-8.2c-0.4-0.6-0.5-1,0.2-1.4c3.4-2,6.5-4.4,10.1-6.2
		c3.2-1.5,6.6-0.6,8.8,2.3c1.2,1.6,1.8,3.3,1.6,5.2c-0.1,1.3-0.5,2.5-1.4,3.5c-0.5,0.5-0.3,0.6,0.2,0.9c2.8,1.4,5.5,2.8,8.2,4.2
		C121.7,51.9,121.8,51.9,122,52z M109.6,42.8c-0.2-2.1-2.3-3.6-4.4-2.7c-1.8,0.8-3.4,2-5.1,3c-0.2,0.1-0.2,0.2-0.1,0.5
		c1,1.6,2,3.2,3,4.8c0.2,0.3,0.2,0.3,0.6,0.1c1.2-0.8,2.4-1.5,3.6-2.3C108.4,45.4,109.4,44.5,109.6,42.8z"/>
	<path class="st2" d="M102.5,64.6c-1.1,1-2.2,1.9-3.3,2.9c-0.6,0.5-1,1-1.9,0.3c-0.7-0.6-1.7-0.9-2.5-1.4c-0.3-0.2-0.5-0.2-0.8,0.1
		c-2.1,1.8-4.2,3.7-6.3,5.5c-1,0.8-1,0.9-0.5,2.1c0.3,0.8,0.6,1.6,0.9,2.4c0.1,0.2,0.3,0.4,0,0.6c-1.4,1.1-2.7,2.3-4.1,3.6
		c-0.8-2.1-1.5-4.2-2.3-6.4c-2-5.7-4.1-11.4-6.2-17.1c-0.1-0.4,0-0.5,0.2-0.6c1.4-1.2,2.8-2.4,4.2-3.7c0.3-0.3,0.5,0,0.8,0.1
		c2.2,1.1,4.3,2.3,6.4,3.4c4.7,2.5,9.4,5,14.1,7.5C101.6,64.1,102,64.3,102.5,64.6z M81.3,58.6c0,0.2-0.1,0.4,0,0.5
		c1.1,2.9,2.3,5.9,3.4,8.8c0.2,0.6,0.4,0.6,0.8,0.3c1.7-1.5,3.3-2.9,5-4.4C87.4,62,84.4,60.3,81.3,58.6z"/>
	<path class="st2" d="M78.5,80c1.1,1,2.2,1.9,3.4,2.9c-3.6,4.2-7.3,8.4-11,12.6C65,90.3,59.1,85.2,53.2,80c3.7-4.2,7.3-8.4,11-12.7
		c1,1,2,1.9,3.1,2.7c0.2,0.2,0.1,0.3,0,0.5c-0.6,0.7-1.1,1.4-1.7,2.1c-1.8,2.1-3.6,4.1-5.4,6.1c-0.3,0.3-0.2,0.5,0.1,0.7
		c1.1,1,2.2,2,3.4,3c2.5-2.9,5-5.8,7.6-8.7c0.9,0.9,1.8,1.7,2.8,2.5c0.4,0.3,0.5,0.6,0.1,1c-1.4,1.6-2.8,3.2-4.2,4.8
		c-0.9,1-1.8,2-2.7,3c-0.2,0.3-0.2,0.4,0,0.6c1.1,1,2.3,1.9,3.4,2.9c0.4,0.3,0.5,0.2,0.8-0.1c1.7-2.1,3.5-4.1,5.3-6.1
		C77.3,81.5,77.9,80.8,78.5,80z"/>
	<path class="st2" d="M328.7,85.1c-1.1-1.1-2.1-2.2-3.2-3.2c-0.3-0.3-0.3-0.4,0-0.7c2.7-2.7,5.5-5.4,8.3-8c0.5-0.4,0.9-0.9,1.3-1.3
		c0.9-0.9,1.9-1.9,2.8-2.8c0.3-0.3,1.1-0.5,1-1c-0.1-0.4-0.6-0.7-1-1.1c-1.1-1.2-2.4-2.2-3.4-3.6c-0.2-0.3-0.2-0.4,0-0.6
		c0.9-0.9,1.8-1.8,2.8-2.8c2.1,2.6,4.7,4.8,6.8,7.3c0.3,0.3,0.6,0.6,0.9,0.9c1.7,1.7,3.4,3.3,5,5.1c0.3,0.3,0.4,0.5,0,0.8
		c-1.1,0.7-1.8,1.8-2.8,2.6c-1.7-1.5-3.2-3.3-4.7-4.9C338,76.2,333.4,80.6,328.7,85.1z"/>
	<path class="st2" d="M294.4,56.9c-1.3-0.8-2.6-1.6-3.9-2.4c-0.4-0.2-0.4-0.3-0.1-0.6c3.8-6.3,7.6-12.6,11.4-18.9
		c0.4-0.6,0.7-0.9,1.5-0.4c1,0.7,2,1.3,3.1,1.9c0.2,0.1,0.4,0.2,0.2,0.6c-2.6,4.2-5.1,8.3-7.6,12.5
		C297.4,51.9,295.9,54.4,294.4,56.9z"/>
	<path class="st2" d="M172,34c0.1,0.3-0.1,0.2-0.3,0.2c-1.3,0.3-2.7,0.6-4,0.9c-0.5,0.1-0.7-0.2-0.8-0.6c-1.2-5.8-2.4-11.6-3.6-17.4
		c-0.3-1.5-0.6-3-1-4.5c-0.1-0.4,0-0.6,0.4-0.7c1.3-0.3,2.7-0.6,4-0.8c0.3-0.1,0.4-0.1,0.5,0.3c0.9,4.3,1.8,8.7,2.6,13
		c0.6,3.1,1.3,6.2,2,9.3C171.9,33.9,172,33.9,172,34z"/>
	<path class="st2" d="M138.3,368.2c-2.1,2-4.2,4.1-6.3,6.1c-0.8,0.8-1.7,1.5-2.5,2.3c-0.2,0.2-0.4,0.3-0.7,0.2
		c-0.3-0.1-0.4-0.3-0.3-0.6c0.4-2.8,0-5.6,0.3-8.3c0.2-1.3,0-2.7,0-4.2c-0.6,1.4-1.2,2.6-1.8,3.9c-1,2.2-2,4.5-2.9,6.7
		c-0.1,0.2-0.1,0.4-0.5,0.2c-1.5-0.6-1.4-0.5-0.8-2c1.7-3.8,3.4-7.7,5.1-11.6c0.1-0.3,0.2-0.6,0.7-0.3c0.5,0.3,1.1,0.5,1.7,0.7
		c0.4,0.1,0.2,0.5,0.2,0.7c0.1,3.5-0.3,6.9-0.2,10.4c0,0.3,0,0.6,0,0.9c0.2-0.1,0.2-0.1,0.3-0.2c2-1.9,3.9-3.8,5.9-5.7
		c0.7-0.7,1.5-1.3,2.2-2c0.2-0.2,0.3-0.2,0.6-0.1c0.6,0.2,1.2,0.6,1.8,0.8c0.4,0.1,0.2,0.3,0.1,0.5c-1,2.1-1.9,4.3-2.9,6.4
		c-0.9,2-1.7,3.9-2.6,5.9c-0.1,0.3-0.2,0.8-0.5,0.8c-0.5-0.1-1-0.5-1.5-0.7c0,0,0-0.2,0.1-0.4c1.1-2.5,2.2-4.9,3.2-7.4
		c0.4-0.9,0.9-1.8,1.2-2.8c0.2-0.1,0.2-0.2,0.1-0.3C138.5,368.1,138.4,368.2,138.3,368.2z"/>
	<path class="st2" d="M74.6,336.2c1.4-0.5,2.6-1.4,3.9-2.1c2.2-1.2,4.3-2.4,6.5-3.7c0.3-0.2,0.4,0,0.5,0.1c1.4,1.1,1.3,1.1-0.2,1.9
		c-3.8,2-7.7,4.1-11.5,6.2c-0.7,0.4-1,0.2-1.4-0.3c-1-0.9-0.3-1.6,0.2-2.3c1.7-2.9,3.5-5.8,5.2-8.8c0,0,0-0.1,0-0.2
		c-1.8,1-3.6,1.9-5.3,2.9c-1.6,0.9-3.3,1.8-4.9,2.7c-0.3,0.2-0.5,0.2-0.7-0.1c-0.2-0.3-0.5-0.6-0.8-0.8c-0.2-0.2-0.2-0.4-0.1-0.7
		c1.4-2.3,2.7-4.6,4-7c1.1-2,2.3-3.9,3.5-5.9c0.2,0.2,0.3,0.4,0.5,0.6c0.9,1,0.9,0.9,0.2,2.1c-1.8,2.9-3.6,5.9-5.4,8.9
		c-0.1,0.2-0.2,0.3-0.3,0.7c1.3-0.7,2.5-1.3,3.7-1.9c1.8-1,3.5-2,5.3-3c0.5-0.3,1.1-0.6,1.7-0.9c0.3-0.2,0.5-0.1,0.7,0.1
		c0.7,0.5,0.6,1,0.2,1.7c-1.9,3.2-3.8,6.4-5.7,9.6c-0.1,0.1-0.1,0.2-0.2,0.2C74.4,336.4,74.5,336.4,74.6,336.2z"/>
	<path class="st2" d="M350.5,107.5c-0.2,0-0.2-0.2-0.3-0.3c-0.4-0.6-0.7-1.2-1.1-1.7c-0.3-0.4-0.3-0.5,0.1-0.8
		c1.7-1.1,3.3-2.2,5-3.3c0.5-0.3,0.5-0.5,0.2-0.9c-1-1.4-1.9-2.9-2.8-4.4c-0.2-0.3-0.2-0.4,0.1-0.6c0.4-0.2,0.7-0.5,1.1-0.7
		c1-0.6,1-0.6,1.5,0.3c0.7,1.4,1.7,2.6,2.5,3.9c0.3,0.5,0.4,0.5,0.9,0.2c1.6-1.1,3.3-2.1,4.9-3.2c0.3-0.2,0.3-0.3,0.5,0.1
		c0.1,0.3,0.4,0.5,0.6,0.8c1.1,1.6,1,1.6-0.6,2.6c-1.2,0.8-2.5,1.5-3.7,2.3c-0.3,0.2-0.5,0.4-0.2,0.9c1,1.4,1.9,3,2.9,4.4
		c0.2,0.3,0.2,0.4-0.1,0.5c-0.6,0.4-1.2,0.8-1.8,1.2c-0.4,0.2-0.4-0.2-0.5-0.3c-1-1.4-1.9-2.9-2.8-4.4c-0.2-0.4-0.3-0.5-0.8-0.2
		c-1.6,1.1-3.3,2.2-5,3.3C350.9,107.3,350.7,107.4,350.5,107.5z"/>
	<path class="st2" d="M329.5,340c-2.5-2.8-4.9-5.5-7.4-8.3c0.4-0.4,0.9-0.9,1.3-1.3c3.2,3.7,6.5,7.3,9.7,11c-0.9,1.8-2.3,1-3.6,0.8
		c-3.5-0.7-6.9-1.5-10.4-2.2c-0.5-0.1-0.9-0.2-1.6-0.4c2.7,3,5.3,5.9,7.8,8.8c-0.4,0.4-0.8,1-1.3,1.1c-0.6,0.2-0.7-0.6-1-1
		c-2.2-2.4-4.4-4.9-6.5-7.4c-0.8-0.8-1.5-1.7-2.2-2.4c0.7-1.5,1.8-1.3,3.1-1c3.7,0.9,7.5,1.7,11.2,2.5c0.2,0,0.4,0,0.6,0
		c0.1,0.2,0.2,0.2,0.3,0.1C329.6,340.1,329.6,340,329.5,340z"/>
	<path class="st2" d="M222.1,388.6c0-2.6-0.2-5-0.4-7.5c-0.1-1.1,0-2.1-0.3-3.2c-0.3-0.9,0.6-0.7,1-0.8c0.6-0.2,0.9,0.1,0.9,0.7
		c0,0.8,0.1,1.6,0.2,2.4c0.2,2.1,0.2,4.2,0.4,6.3c0.2,1.7,0.3,3.4,0.4,5.2c-0.3,0.1-0.6,0.1-1,0.2c-0.4,0.1-0.8,0.1-1.2-0.3
		c-1.1-1.4-2.2-2.7-3.4-4.1c-1.6-1.9-3.3-3.7-4.8-5.6c-0.2-0.3-0.5-0.6-0.9-0.8c0.1,0.8-0.1,1.7,0.1,2.4c0.3,1.1,0.1,2.2,0.3,3.3
		c0.2,1.8,0.2,3.5,0.4,5.3c0,0.2,0.1,0.7-0.4,0.6c-0.5-0.1-1.1,0.5-1.4-0.3c-0.1-0.3-0.1-0.7-0.2-1c-0.1-2-0.2-4-0.4-5.9
		c-0.2-2.2-0.4-4.4-0.5-6.6c0-0.6,0.1-0.7,0.7-0.8c1-0.2,1.5,0.4,2,1.1c1.1,1.5,2.4,2.8,3.6,4.2c1.3,1.5,2.5,3,3.7,4.4
		C221.6,388,221.9,388.3,222.1,388.6z"/>
	<path class="st2" d="M313.1,353.7c0,3-1.4,4.9-3.3,6.5c-1.2,0.9-2.5,1.7-3.7,2.6c-0.3,0.2-0.5,0.4-0.9-0.1
		c-2.6-3.8-5.2-7.6-7.8-11.3c-0.1-0.2-0.5-0.3,0-0.6c1.6-1.1,3.1-2.3,4.8-3.3c3.2-1.7,6.9-0.9,9.1,2
		C312.4,350.9,313,352.4,313.1,353.7z M305.5,348.4c-0.2,0.1-0.6,0-0.9,0.1c-1.8,0.3-3.1,1.7-4.6,2.5c-0.3,0.2-0.3,0.4-0.1,0.8
		c2,2.9,4,5.8,5.9,8.7c0.2,0.2,0.2,0.3,0.5,0.1c0.6-0.4,1.3-0.8,1.9-1.2c2-1.4,3.4-3.1,3-5.8C310.7,351,308.3,348.3,305.5,348.4z"/>
	<path class="st2" d="M270.8,367.4c-0.1,0.1-0.2,0.2-0.2,0.3c-0.8,1.1-0.8,1.2-2,0.7c-3.2-1.2-6.8,1.3-7.2,4.3
		c-0.5,3.3,1.6,6.7,4.9,7.3c2,0.4,4.6-0.8,5.6-2.6c0.2-0.4,0.4-0.8,0.1-1.2c-0.1-0.2-0.1-0.4-0.2-0.6c-0.7-1.7-0.7-1.7-2.4-1
		c-1,0.4-2,0.8-3,1.1c0-0.2,0-0.3,0-0.4c-0.3-1.2-0.3-1.2,1-1.7c1.5-0.5,3-1.1,4.5-1.7c0.5-0.2,0.7-0.3,0.9,0.4
		c0.4,1.3,0.9,2.6,1.4,3.9c0.1,0.3,0.1,0.6,0,0.9c-2,4.1-7.2,5.7-11.1,3.3c-2.2-1.4-3.3-3.6-3.5-6.2c-0.2-2.2,0.4-4.1,2-5.7
		c2.3-2.2,5.7-3.1,8.7-1.5C270.4,367.3,270.5,367.3,270.8,367.4z"/>
	<path class="st2" d="M336.3,320.6c-0.1,0.2-0.2,0.4-0.2,0.6c0,0.9-0.3,1.1-1.2,1.2c-2.1,0-4.2,1.8-4.8,4.2c-0.8,3,1.5,6.5,4.8,7.3
		c3.4,0.8,6.2-1.4,6.9-4.7c0.1-0.5,0.1-1-0.5-1.4c-0.3-0.2-0.6-0.5-0.9-0.9c-0.5-0.7-1-0.7-1.5,0c-0.7,1-1.6,1.7-2.4,2.6
		c-0.1,0.1-0.2,0.3-0.3,0.4c-0.5-0.3-0.7-0.9-1.3-1.1c1.8-1.6,3.1-3.5,4.9-5c1,0.9,1.8,2,2.9,2.7c1.1,0.7,1,1.8,0.8,2.8
		c-0.8,3.5-2.9,5.8-6.5,6.5c-2.1,0.4-4.2-0.2-5.9-1.7c-1.9-1.6-3.1-3.7-3-6.3c0.1-3.3,2.9-6.6,6-7.1
		C334.9,320.6,335.5,320.6,336.3,320.6z"/>
	<path class="st2" d="M288.7,372.9c-0.2,0.1-0.4,0-0.5,0.1c-1.2,0.9-2.2,0.5-3.2-0.3c-1.2-0.9-2.4-1.6-3.7-2.4
		c-0.4-0.3-0.8-0.3-1.2,0c-0.2,0.1-0.4,0.2-0.6,0.3c-0.5,0.2-1.2,0.2-1.3,0.7c-0.1,0.4,0.4,1,0.6,1.5c0.5,1.1,1,2.2,1.6,3.2
		c0.2,0.4,0.1,0.6-0.3,0.8c-0.2,0.1-0.5,0.2-0.7,0.3c-0.3,0.1-0.4,0.2-0.6-0.2c-1.1-2.4-2.2-4.8-3.3-7.2c-0.7-1.6-1.5-3.1-2.2-4.6
		c-0.5-1.1-0.5-1.1,0.6-1.6c1.5-0.7,3-1.4,4.6-2.1c2.8-1.3,5.3,0.4,6.1,3.1c0.4,1.6,0.1,2.9-1.2,4c-0.6,0.5-0.7,0.8,0.1,1.2
		C285.1,370.6,286.9,371.8,288.7,372.9z M282.7,366c0-2.3-1.6-3.5-3.4-3.1c-1.4,0.4-2.7,1.1-4,1.7c-0.4,0.2-0.2,0.3-0.1,0.5
		c0.7,1.4,1.3,2.8,2,4.3c0.1,0.2,0.1,0.5,0.6,0.3c1.1-0.6,2.2-1,3.3-1.6C282.1,367.5,282.6,366.7,282.7,366z"/>
	<path class="st2" d="M247.6,381.6c1.9,1.4,3.3,3.3,5.2,4.7c-1.4,0.8-2,0.7-3-0.2c-1.3-1.2-2.4-2.5-3.8-3.7
		c-0.3-0.2-0.5-0.2-0.7-0.2c-0.4,0.1-0.9,0.3-1.3,0.3c-1,0-1.1,0.5-0.9,1.3c0.4,1.6,0.8,3.1,1.2,4.7c-0.3,0.1-0.6,0-1,0.2
		c-0.6,0.3-1,0.1-1.1-0.7c-0.6-2.9-1.3-5.8-1.9-8.7c-0.4-1.6-0.8-3.2-1.2-4.8c2.1-0.5,4.2-1.1,6.4-1.4c2.2-0.4,4.2,0.9,4.9,3.2
		c0.3,1.3,0.1,2.4-0.5,3.6C249.3,380.7,248.4,381,247.6,381.6z M246.5,374.7c-2.1,0.2-3.5,0.6-4.9,0.9c-0.5,0.1-0.4,0.4-0.3,0.6
		c0.3,1.5,0.7,2.9,1,4.4c0.1,0.4,0.3,0.6,0.6,0.5c1.2-0.4,2.5-0.6,3.7-1c1.6-0.5,2.1-1.9,1.9-3.2
		C248.3,375.8,247.2,374.6,246.5,374.7z"/>
	<path class="st2" d="M155,382.1c0.9-0.7,1.6-1.6,2.3-2.4c0.5-0.6,0.6,0.2,0.9,0.2c0.2,0,0.8,0.3,0.3,0.8c-0.8,0.7-1.3,1.8-2.3,2.3
		c-0.3,0.2-0.4,0.5-0.2,0.9c0.5,1,1.1,1.9,1.7,3c-1.3-0.3-2.6-0.5-3-2c-0.1-0.3-0.3-0.6-0.9-0.4c-2.6,1.1-5.1,0.3-6.6-1.3
		c-1.6-1.8-0.7-5.1,1.2-6c0.6-0.3,1.2-0.6,1.8-0.7c0.4-0.1,0.6-0.1,0.5-0.8c-0.5-2.2-0.2-3.8,1.6-4.8c1.3-0.7,2.7-0.6,3.9,0.1
		c1,0.6,1.6,1.4,1.5,2.6c-0.1,1.2-1,2.4-2.2,2.8c-0.7,0.2-1.3,0.5-2.1,0.6c-0.4,0-0.7,0.2-0.4,0.8
		C153.7,379.3,154.3,380.7,155,382.1z M148.2,380.9c0,0.5,0,0.9,0.3,1.4c1.2,1.8,3.2,1.8,4.9,1c0.3-0.1,0.2-0.3,0.1-0.5
		c-0.8-1.5-1.5-3.1-2.1-4.7c-0.1-0.2-0.1-0.4-0.4-0.3C149.5,377.9,147.9,379.5,148.2,380.9z M152.2,374.5c-0.1,0.4,0.2,0.8,0.2,1.2
		c0,0.3,0.3,0.3,0.4,0.3c0.8-0.2,1.6-0.3,2.3-0.7c0.9-0.6,1.4-1.9,0.9-2.6c-0.5-0.8-1.9-1.1-2.8-0.5
		C152.4,372.6,152.2,373.5,152.2,374.5z"/>
	<path class="st2" d="M119.6,372.6c-0.3-0.2-0.5-0.3-0.8-0.5c-1.1-0.6-1.2-0.7-0.9-1.9c0.2-0.6,0-1.2,0.2-1.8
		c0.1-0.3-0.2-0.4-0.4-0.6c-1.8-1-3.6-2-5.3-3c-0.5-0.3-0.9-0.3-1.3,0.1c-0.2,0.1-0.3,0.3-0.5,0.4c-2,1.5-1.1,1.8-3.5,0.3
		c2.8-2.3,5.6-4.5,8.3-6.8c1.3-1,2.5-2,3.8-3.1c0.2-0.2,0.3-0.2,0.5,0c0,0,0.1,0.1,0.1,0.1c0.5,0.4,1.5,0.3,1.5,1.2
		c0.1,0.6-0.2,1.3-0.3,2c-0.1,1.2-0.3,2.4-0.4,3.5c-0.3,2.1-0.6,4.2-0.8,6.3C119.9,370,119.8,371.3,119.6,372.6z M118.6,366.3
		c0.4-2.8,0.8-5.5,1.2-8.4c-1.1,0.9-2.1,1.7-3.1,2.5c-1,0.8-1.9,1.5-2.9,2.4c-0.2,0.2-0.8,0.5-0.2,0.8
		C115.1,364.5,116.8,365.4,118.6,366.3z"/>
	<path class="st2" d="M290.7,371.8c-0.4-1.2-0.4-2.5-0.6-3.7c-0.3-2-0.5-4-0.9-6c-0.3-1.4-0.4-2.9-0.6-4.4c0,0,0-0.1,0-0.1
		c-0.5-1.2,0-1.8,1.1-2.3c0.5-0.2,0.7-0.3,1.2,0.1c2.3,1.9,4.8,3.7,7.1,5.6c1.5,1.2,2.9,2.4,4.4,3.5c0.1,0.1,0.2,0.2,0.2,0.3
		c0,0.3-1.6,1-1.9,0.8c-0.8-0.6-1.5-1.1-2.3-1.7c-0.3-0.3-0.5-0.2-0.7,0c-1.8,1-3.6,2.1-5.4,3.1c-0.3,0.2-0.5,0.4-0.5,0.8
		c0.1,0.6,0,1.3,0.2,1.9c0.3,0.9,0.1,1.4-0.8,1.7C291.2,371.4,291,371.6,290.7,371.8z M297,362.5c-2.2-1.8-4.4-3.5-6.7-5.4
		c0.4,2.9,0.8,5.6,1.2,8.5C293.4,364.6,295.2,363.5,297,362.5z"/>
	<path class="st2" d="M237.2,381.6c0,0.2,0,0.3,0,0.5c0,1.2,0,1.2-1.2,1.4c-1.9,0.3-3.9,0.6-5.8,0.9c-0.4,0.1-0.5,0.2-0.4,0.5
		c0.4,1.5,0.5,3.1,0.8,4.6c1.4-0.2,2.8-0.4,4.2-0.7c0.9-0.1,1.9-0.2,2.8-0.5c0.5-0.1,0.9,0,0.9,0.4c0,0.4,0.5,1.1-0.4,1.2
		c-1.3,0.2-2.6,0.4-3.8,0.6c-1.3,0.2-2.7,0.4-4,0.6c-1.1,0.2-1.1,0.2-1.3-0.8c-0.4-2.7-1-5.5-1.4-8.2c-0.2-1.6-0.4-3.2-0.7-4.8
		c0-0.3-0.1-0.5,0.4-0.6c1.8-0.2,3.6-0.6,5.4-0.9c0.9-0.1,1.8-0.3,2.7-0.5c0.3-0.1,0.8-0.2,0.9,0c0.2,0.4,0.3,0.9,0.2,1.3
		c-0.1,0.3-0.6,0.3-1,0.3c-2.1,0.3-4.2,0.6-6.2,0.9c-0.4,0.1-0.4,0.3-0.3,0.5c0.1,1,0.4,2,0.4,3c0,1.2,0.5,1.3,1.6,1.1
		C232.9,382.1,235,381.9,237.2,381.6z"/>
	<path class="st2" d="M187.8,390.5c2.8,0.2,3.9-1.9,4.1-3.9c0.2-2.7,0.5-5.4,0.7-8.1c0-0.3-0.1-0.9,0.6-0.8c1.4,0.2,1.4,0.3,1.3,1.2
		c-0.2,1-0.2,2-0.3,2.9c-0.2,2.1-0.3,4.2-0.7,6.3c-0.6,3.1-3.5,4.7-6.6,4.1c-1.2-0.2-2.3-0.5-3.2-1.2c-1.2-0.9-1.8-2-1.9-3.4
		c-0.2-2.5,0.3-5,0.5-7.6c0.1-0.9,0.2-1.7,0.2-2.6c0-0.5,0.1-0.7,0.6-0.7c0.4,0,0.8,0.1,1.1,0.2c0.6,0.2,0,0.6,0,0.9
		c-0.1,2.4-0.4,4.8-0.6,7.3c-0.2,1.9-0.1,3.8,1.8,4.9C186.2,390.4,187,390.6,187.8,390.5z"/>
	<path class="st2" d="M180.1,376.3c-0.1,0.6,0,1.3-0.3,1.6c-0.3,0.3-1-0.1-1.5-0.2c-0.8-0.1-1.7-0.2-2.5-0.4
		c-0.6-0.2-0.7,0.1-0.8,0.5c-0.4,2.5-0.8,5-1.3,7.6c-0.2,1.4-0.5,2.8-0.7,4.2c-0.1,0.3-0.2,0.8-0.7,0.5c-0.2-0.1-0.5-0.1-0.7-0.1
		c-0.4,0-0.5-0.2-0.5-0.6c0.6-3,1.1-6,1.6-9c0.1-0.8,0.3-1.6,0.5-2.3c0.2-1,0-1.2-1-1.3c-1-0.1-2-0.4-3-0.5
		c-0.5-0.1-0.6-0.4-0.4-0.6c0.2-0.3-0.2-1.1,0.6-1c0.8,0.1,1.6,0.2,2.5,0.4c2.3,0.4,4.5,0.8,6.8,1.2
		C179.2,376.3,179.6,376.4,180.1,376.3z"/>
	<path class="st2" d="M100,360.9c-0.4-0.2-0.8-0.5-1.1-0.7c-1.8-1.3-3.6-2.7-5.5-4c-0.4-0.3-0.3-0.5-0.1-0.7
		c2.6-3.7,5.3-7.4,7.9-11.1c0.2-0.3,0.5-0.4,0.8-0.1c0.2,0.2,0.4,0.4,0.7,0.5c0.4,0.2,0.3,0.3,0.1,0.5c-1.5,2.1-3,4.3-4.5,6.5
		c-0.8,1.2-1.7,2.4-2.5,3.6c-0.3,0.4-0.2,0.4,0.1,0.7c1.6,1.1,3.1,2.3,4.7,3.4c0.2,0.1,0.6,0.2,0.4,0.5
		C100.6,360.2,100.4,360.7,100,360.9z"/>
	<path class="st2" d="M85.8,348.1c1.4,1.2,2.9,2.3,4.3,3.5c0.1,0.1,0.2,0.2,0.2,0.3c0.2,0.3,0.8,0.2,0.6,0.6c-0.1,0.4-0.5,0.7-0.8,1
		c-0.2,0.2-0.3,0-0.4-0.1c-1.1-0.9-2.3-1.8-3.4-2.7c-0.9-0.7-1.8-1.4-2.6-2.1c-0.3-0.2-0.5-0.4-0.1-0.8c2.4-2.8,4.7-5.7,7-8.6
		c0.5-0.7,1.1-1.3,1.6-2c0.3-0.4,0.5-0.3,0.7-0.1c1,0.6,1.1,0.9,0.4,1.7c-1.3,1.6-2.7,3.3-4,4.9C88.2,345.2,87,346.7,85.8,348.1z"/>
	<path class="st2" d="M239.1,27.8c0.2-1.1,0.5-2.1,0.7-3.1c0.1-0.6,0.4-0.6,0.8-0.5c2.3,0.5,4.6,1,6.9,1.6c0.5,0.1,0.8,0.3,0.6,0.9
		c-0.3,0.8-0.5,1.7-0.7,2.6c-0.1,0.4-0.2,0.4-0.6,0.3C244.3,29,241.7,28.4,239.1,27.8z"/>
	<path class="st2" d="M89.7,334.2c-0.1,0.1-0.1,0.1-0.2,0.2c-1,1.1-2,2.3-3,3.4c-2,2.3-4.1,4.5-6.1,6.8c-0.4,0.5-0.6,0.5-1.1,0
		c-0.8-0.8-0.8-0.7-0.1-1.6c2.3-2.6,4.6-5.2,6.9-7.8c0.6-0.6,1.2-1.2,1.7-1.9c0.3-0.4,0.6-0.5,0.9,0C89,333.7,89.5,333.7,89.7,334.2
		z"/>
	<path class="st2" d="M112.7,351.5c-0.1,0.2-0.1,0.3-0.2,0.4c-2.5,3.8-5,7.7-7.4,11.5c-0.3,0.5-0.5,0.4-0.9,0.2
		c-1-0.7-1-0.6-0.4-1.7c2.3-3.6,4.6-7.3,6.9-10.9c0.3-0.4,0.5-0.5,0.9-0.2C112,351.1,112.4,351.3,112.7,351.5z"/>
	<path class="st2" d="M320.5,352.4c-0.6,0.2-0.9,1.1-1.5,1c-0.4-0.1-0.7-0.8-1.1-1.3c-1.6-2.1-3.2-4.2-4.9-6.3
		c-1-1.3-2.1-2.6-3.1-3.9c0.1-0.2,0.3-0.2,0.5-0.3c1.1-0.8,1.1-0.8,1.9,0.3c2.3,3,4.6,6,7,8.9C319.7,351.3,320.1,351.8,320.5,352.4z
		"/>
	<path class="st3" d="M76.8,103.1c-0.3,0.8-0.9,1.4-1.4,2C75.4,104.4,76.1,103.3,76.8,103.1z"/>
	<path class="st3" d="M326.1,306.4c0.4-0.6,0.9-1.2,1.5-1.7C327.5,305.6,327,306.1,326.1,306.4z"/>
	<path class="st3" d="M272.4,54.2c-0.6-0.2-1.2-0.5-1.8-0.9C271.4,53.3,272,53.4,272.4,54.2z"/>
	<path class="st3" d="M270.3,53.2c-0.6-0.1-1.1-0.4-1.6-0.7C269.3,52.5,270,52.5,270.3,53.2z"/>
	<path class="st3" d="M120.1,339.1c0.5,0.2,1,0.5,1.4,0.9C120.8,340.1,120.4,339.7,120.1,339.1z"/>
	<path class="st3" d="M325.4,307.2c0.2-0.3,0.5-0.6,0.7-0.8C326.1,306.9,326.1,307.3,325.4,307.2z"/>
	<path class="st3" d="M324.7,308c0.1-0.3,0.4-0.5,0.6-0.8C325.5,307.8,325.2,308,324.7,308z"/>
	<path class="st3" d="M327.7,304.5c0.1-0.3,0.3-0.5,0.6-0.7C328.3,304.2,328.2,304.5,327.7,304.5z"/>
	<path class="st3" d="M119.5,338.7c0.2,0.1,0.5,0.2,0.6,0.4C119.8,339.1,119.3,339.5,119.5,338.7z"/>
	<path class="st3" d="M360.5,207.2c-0.4,33.1-12.7,67.9-38.1,97.7c-22.1,26-50,43-83.2,50.9c-13.3,3.2-26.9,4.4-40.6,3.8
		c-33-1.3-62.6-12.1-88.7-32.2c-24.3-18.7-41.6-42.6-52.1-71.4c-4-10.9-6.7-22.1-8.2-33.6c-1.4-10.8-1.8-21.7-1-32.6
		c2.7-35.8,15.8-67.4,39.5-94.4c20-22.7,44.6-38.3,73.7-46.8c8.6-2.5,17.5-4.2,26.4-5.1c9.1-0.9,18.2-1.1,27.3-0.4
		c28.6,2.1,54.8,11.4,78.1,28.1c31.7,22.7,52.3,53.1,62.1,90.8C359,174.7,360.5,187.9,360.5,207.2z M152,200
		c1.5-0.6,2.9-1.1,4.2-1.8c2.6-1.3,5.1-2.8,7.4-4.7c2.1-1.8,3.8-3.8,5.1-6.2c2-3.7,2.8-7.7,2.5-12c-0.2-3.5-1.1-6.7-2.8-9.7
		c-1.6-2.8-3.8-5.1-6.4-7c-3.3-2.4-6.9-4.1-10.8-5.3c-5.5-1.8-11.2-2.5-17-2.6c-2.3-0.1-4.5,0.2-6.8,0.3c-1.7,0.1-3.4,0.3-5,0.6
		c-4.1,0.8-8.1,1.8-11.9,3.6c-3.3,1.5-6.3,3.4-8.9,5.9c-1.4,1.3-2.5,2.9-3.5,4.5c-1.7,2.8-2.6,5.9-2.8,9.1c-0.1,1.7-0.1,3.5,0.1,5.3
		c0.3,2.1,0.8,4.2,1.7,6.2c1.5,3.1,3.5,5.6,6.2,7.8c2.6,2.1,5.4,3.7,8.4,4.9c0.8,0.3,1.6,0.7,2.5,1.1c-1.1,0.5-2.1,0.8-3.1,1.3
		c-2.9,1.4-5.7,3-8.2,5.1c-2.6,2.2-4.8,4.6-6.5,7.6c-2.5,4.5-3.3,9.2-2.7,14.3c0.3,2.6,1,5,2.1,7.3c1.3,2.7,3.1,4.9,5.3,7
		c2.1,1.9,4.4,3.4,6.8,4.7c3.4,1.7,6.9,2.9,10.6,3.8c3.5,0.8,7,1.4,10.6,1.5c3.7,0.2,7.4,0.2,11.2-0.3c2.3-0.3,4.6-0.6,6.9-1.1
		c3.7-0.8,7.3-2,10.7-3.7c3.3-1.7,6.4-3.8,8.9-6.6c1.2-1.3,2.3-2.7,3.2-4.3c2.5-4.6,3.3-9.5,2.5-14.7c-0.5-3.4-1.8-6.4-3.6-9.2
		c-1.8-2.7-4-4.9-6.5-6.9C159.3,203.2,155.8,201.4,152,200z M261.6,194.7c0-0.4,0-0.7,0-0.9c0-7.3,0-14.7,0-22c0-0.8,0.2-1,1-1
		c15,0,29.9,0,44.9,0c0.7,0,0.9-0.1,0.9-0.8c0-5.6,0-11.2,0-16.8c0-0.8-0.2-1-1-1c-22,0-43.9,0-65.9,0c-0.8,0-0.9,0.2-0.9,1
		c0,18.3,0,36.6,0,54.9c0,0.2,0,0.4,0,0.5c0,0.2,0.1,0.3,0.3,0.4c4.5,1.2,9,2.3,13.4,3.5c0.8,0.2,1.4,0,1.9-0.6
		c2.4-2.3,5.2-4.1,8.4-5.2c4.3-1.6,8.7-2.3,13.4-1.9c2.3,0.2,4.6,0.6,6.8,1.5c2.8,1.1,5.2,2.9,6.8,5.5c1.8,3,2.4,6.3,1.8,9.8
		c-0.5,3.3-2.3,6-4.8,8.1c-3.1,2.5-6.8,3.7-10.7,4c-3.3,0.2-6.7,0-10-0.6c-4.2-0.9-8.2-2.4-11.8-4.6c-2.4-1.5-4.6-3.3-6.7-5.5
		c-1,1.3-2,2.5-3,3.8c-2.8,3.5-5.5,7-8.3,10.4c-0.5,0.6-0.3,0.8,0.1,1.2c1.3,1.3,2.6,2.5,3.9,3.6c2,1.7,4.2,3.1,6.4,4.3
		c3.9,2.2,8.1,3.7,12.5,4.7c3.6,0.8,7.2,1.3,10.8,1.5c5,0.2,10.1,0.1,15.1-1c3.9-0.8,7.7-2,11.2-3.9c3.6-1.9,6.8-4.3,9.4-7.4
		c2.5-2.9,4.3-6.1,5.6-9.6c1-2.7,1.5-5.5,1.8-8.4c0.3-2.8,0.2-5.6-0.1-8.4c-0.3-2.7-1-5.3-1.9-7.8c-1.3-3.4-3.2-6.5-5.7-9.3
		c-3.1-3.4-6.9-5.9-11.1-7.6c-3-1.2-6.1-1.9-9.2-2.2c-1.8-0.2-3.6-0.3-5.4-0.1c-2,0.2-3.9,0.3-5.8,0.8
		C270.3,188.7,265.5,190.8,261.6,194.7z M217,243.7c-0.1-1.3,0-2.3-0.2-3.3c-0.6-4.1-2.3-7.5-5.7-9.9c-3.2-2.3-6.8-2.9-10.6-1.9
		c-3.6,1-6.1,3.4-7.6,6.9c-1,2.3-1.1,4.7-0.6,7.2c0.5,2.7,1.9,4.8,4.1,6.3c2.3,1.6,4.8,2.1,7.5,1.5c0.9-0.2,1-0.1,0.7,0.8
		c-1,2.9-2.7,5.3-4.7,7.6c-1.7,1.9-3.7,3.6-5.9,4.9c-0.3,0.2-0.5,0.4-0.1,0.7c2.5,2.1,5.1,4.1,7.6,6.2c0.2,0.2,0.3,0.2,0.6,0
		c1.3-1.1,2.6-2,3.8-3.1c2-1.8,3.7-3.9,5.3-6.1C214.9,256,217,250.1,217,243.7z"/>
	<path class="st2" d="M152,200c3.9,1.4,7.3,3.3,10.5,5.7c2.5,1.9,4.8,4.2,6.5,6.9c1.8,2.8,3.1,5.8,3.6,9.2c0.8,5.2,0,10.1-2.5,14.7
		c-0.8,1.6-2,3-3.2,4.3c-2.5,2.8-5.6,4.9-8.9,6.6c-3.4,1.7-7,2.9-10.7,3.7c-2.3,0.5-4.6,0.8-6.9,1.1c-3.7,0.5-7.4,0.4-11.2,0.3
		c-3.6-0.1-7.1-0.7-10.6-1.5c-3.7-0.9-7.2-2-10.6-3.8c-2.5-1.3-4.8-2.8-6.8-4.7c-2.2-2-4-4.3-5.3-7c-1.1-2.3-1.8-4.7-2.1-7.3
		c-0.6-5.1,0.2-9.8,2.7-14.3c1.7-2.9,3.9-5.4,6.5-7.6c2.5-2.1,5.2-3.7,8.2-5.1c1-0.5,2-0.8,3.1-1.3c-0.9-0.4-1.7-0.8-2.5-1.1
		c-3-1.2-5.9-2.9-8.4-4.9c-2.6-2.1-4.7-4.7-6.2-7.8c-0.9-2-1.4-4-1.7-6.2c-0.3-1.8-0.2-3.5-0.1-5.3c0.2-3.2,1.1-6.3,2.8-9.1
		c1-1.7,2.1-3.2,3.5-4.5c2.6-2.5,5.6-4.4,8.9-5.9c3.8-1.7,7.8-2.8,11.9-3.6c1.6-0.3,3.3-0.5,5-0.6c2.3-0.1,4.5-0.4,6.8-0.3
		c5.8,0.2,11.4,0.9,17,2.6c3.9,1.2,7.5,2.9,10.8,5.3c2.6,1.9,4.8,4.2,6.4,7c1.7,3,2.6,6.2,2.8,9.7c0.3,4.3-0.5,8.3-2.5,12
		c-1.3,2.4-3,4.4-5.1,6.2c-2.3,1.9-4.8,3.4-7.4,4.7C154.8,198.8,153.5,199.3,152,200z M115,222.4c0.1,0.7,0,1.3,0.1,1.8
		c0.8,3.6,3.1,5.9,6.2,7.6c4.1,2.1,8.6,2.8,13.2,2.6c1.9-0.1,3.7-0.3,5.5-0.7c3.7-0.9,7.1-2.4,9.5-5.5c1.8-2.4,2.5-5.1,1.5-8
		c-0.9-2.6-2.7-4.3-4.8-5.7c-2.9-2-6.2-3.1-9.5-4.1c-2.2-0.6-4.3-0.8-6.5-0.1c-4.2,1.2-8.2,2.6-11.6,5.5
		C116.4,217.5,115.1,219.7,115,222.4z M133.7,168.9c-1.4,0-2.3,0.1-3.3,0.2c-3.1,0.3-6,1-8.8,2.6c-2.4,1.4-4.1,3.4-4.7,6
		c-0.6,2.5-0.3,4.8,1.4,7c1.3,1.6,3,2.8,4.7,3.7c2.3,1.3,4.9,2.1,7.5,2.7c1.1,0.2,2.1,0.7,3.2,0.5c1.2-0.2,2.5-0.5,3.7-0.9
		c3.7-1.1,7.3-2.4,10.1-5.4c1.9-2.1,2.7-4.5,2.1-7.2c-0.7-3-2.6-5.2-5.3-6.6C140.8,169.5,137.1,169,133.7,168.9z"/>
	<path class="st2" d="M261.6,194.7c3.9-3.9,8.7-6,13.8-7.3c1.9-0.5,3.9-0.6,5.8-0.8c1.8-0.2,3.6-0.1,5.4,0.1c3.2,0.3,6.3,1,9.2,2.2
		c4.3,1.8,8,4.2,11.1,7.6c2.5,2.7,4.4,5.8,5.7,9.3c1,2.5,1.6,5.1,1.9,7.8c0.3,2.8,0.3,5.6,0.1,8.4c-0.3,2.9-0.8,5.7-1.8,8.4
		c-1.3,3.6-3.1,6.8-5.6,9.6c-2.7,3.1-5.8,5.5-9.4,7.4c-3.5,1.9-7.3,3.1-11.2,3.9c-5,1.1-10,1.2-15.1,1c-3.6-0.1-7.2-0.6-10.8-1.5
		c-4.4-1-8.6-2.5-12.5-4.7c-2.3-1.2-4.4-2.7-6.4-4.3c-1.4-1.1-2.7-2.4-3.9-3.6c-0.4-0.4-0.6-0.6-0.1-1.2c2.8-3.4,5.6-6.9,8.3-10.4
		c1-1.3,2-2.5,3-3.8c2,2.1,4.2,4,6.7,5.5c3.7,2.3,7.6,3.8,11.8,4.6c3.3,0.7,6.7,0.9,10,0.6c3.9-0.3,7.6-1.4,10.7-4
		c2.5-2.1,4.3-4.8,4.8-8.1c0.6-3.5,0-6.8-1.8-9.8c-1.6-2.6-3.9-4.4-6.8-5.5c-2.2-0.9-4.5-1.3-6.8-1.5c-4.6-0.4-9.1,0.3-13.4,1.9
		c-3.1,1.2-5.9,2.9-8.4,5.2c-0.5,0.5-1.1,0.8-1.9,0.6c-4.5-1.2-9-2.4-13.4-3.5c-0.3-0.1-0.3-0.2-0.3-0.4c0-0.2,0-0.4,0-0.5
		c0-18.3,0-36.6,0-54.9c0-0.7,0.1-1,0.9-1c22,0,43.9,0,65.9,0c0.8,0,1,0.2,1,1c0,5.6,0,11.2,0,16.8c0,0.7-0.2,0.8-0.9,0.8
		c-15,0-29.9,0-44.9,0c-0.8,0-1,0.1-1,1c0,7.3,0,14.7,0,22C261.6,194,261.6,194.2,261.6,194.7z"/>
	<path class="st2" d="M217,243.7c0,6.4-2.2,12.3-5.9,17.7c-1.5,2.2-3.3,4.3-5.3,6.1c-1.2,1.1-2.6,2.1-3.8,3.1
		c-0.2,0.2-0.4,0.1-0.6,0c-2.5-2.1-5.1-4.1-7.6-6.2c-0.4-0.3-0.2-0.5,0.1-0.7c2.2-1.3,4.1-3,5.9-4.9c2-2.2,3.7-4.7,4.7-7.6
		c0.3-0.9,0.3-1-0.7-0.8c-2.7,0.5-5.2,0.1-7.5-1.5c-2.2-1.5-3.5-3.6-4.1-6.3c-0.5-2.5-0.3-4.9,0.6-7.2c1.4-3.5,3.9-5.9,7.6-6.9
		c3.8-1.1,7.4-0.4,10.6,1.9c3.4,2.4,5.1,5.9,5.7,9.9C217,241.5,216.9,242.5,217,243.7z"/>
	<path class="st3" d="M115,222.4c0-2.7,1.4-4.9,3.5-6.8c3.4-2.9,7.4-4.3,11.6-5.5c2.2-0.6,4.3-0.5,6.5,0.1c3.3,1,6.6,2.1,9.5,4.1
		c2.1,1.4,4,3.2,4.8,5.7c1,3,0.3,5.6-1.5,8c-2.4,3.1-5.8,4.6-9.5,5.5c-1.8,0.5-3.6,0.6-5.5,0.7c-4.6,0.2-9.1-0.4-13.2-2.6
		c-3.1-1.6-5.4-4-6.2-7.6C115,223.6,115.1,223.1,115,222.4z"/>
	<path class="st3" d="M133.7,168.9c3.4,0.1,7.2,0.6,10.6,2.5c2.7,1.5,4.6,3.6,5.3,6.6c0.6,2.7-0.1,5.2-2.1,7.2
		c-2.7,3-6.4,4.3-10.1,5.4c-1.2,0.4-2.4,0.6-3.7,0.9c-1.1,0.2-2.2-0.3-3.2-0.5c-2.6-0.6-5.2-1.4-7.5-2.7c-1.8-1-3.4-2.1-4.7-3.7
		c-1.7-2.1-2-4.5-1.4-7c0.7-2.7,2.3-4.6,4.7-6c2.7-1.6,5.6-2.3,8.8-2.6C131.3,169,132.3,169,133.7,168.9z"/>
</g>
</svg>
