<?xml version="1.0" encoding="utf-8"?>
<!-- Generator: Adobe Illustrator 24.1.3, SVG Export Plug-In . SVG Version: 6.00 Build 0)  -->
<svg version="1.1" id="Layer_1" xmlns="http://www.w3.org/2000/svg" xmlns:xlink="http://www.w3.org/1999/xlink" x="0px" y="0px"
	 viewBox="0 0 400 400" style="enable-background:new 0 0 400 400;" xml:space="preserve">
<style type="text/css">
	.st0{display:none;}
	.st1{display:inline;fill:#222222;}
	.st2{fill:#E5E5E5;}
	.st3{fill:#222222;}
</style>
<g class="st0">
	<path class="st1" d="M354,205.7c-0.1,1.6-0.2,3.1-0.3,4.7c-0.8,13.6-3.2,26.9-7.6,39.7c-14.4,42-41.6,72.7-81.7,91.9
		c-12.9,6.2-26.6,10.1-40.7,12.2c-10,1.5-20,2-30,1.4c-31.8-1.8-60.3-12.4-85.3-32c-27.7-21.8-45.8-49.9-54.7-84
		c-2.5-9.6-3.9-19.3-4.5-29.2c-0.6-9.2-0.3-18.4,0.8-27.6c3.4-28.5,13.7-54.3,31.3-77.1c20-25.8,45.6-43.6,76.9-53.2
		c10.3-3.1,20.9-5.1,31.6-5.9c46.3-3.5,91.2,14.1,122.7,48.2c18.8,20.4,31.3,44.1,37.6,71.1c2.2,9.6,3.5,19.3,3.8,29.1
		c0,0.4,0.1,0.8,0.1,1.2C354,199.4,354,202.6,354,205.7z M350.6,199.7c-0.2-3.4-0.4-8.2-0.8-12.9c-0.7-9.1-2.4-18-4.8-26.8
		c-12.1-43.7-42.8-78.9-81.9-96.9c-17.5-8-35.9-12.5-55.1-13.3c-13.4-0.6-26.7,0.5-39.8,3.6c-31.2,7.4-57.4,23.2-78.4,47.4
		c-23.9,27.5-36.1,59.7-37.3,96.1c-0.5,14.9,1.2,29.7,5.2,44.1c8.4,30.8,24.8,56.6,49.3,77c25.6,21.3,55.1,32.7,88.4,34.2
		c13.9,0.6,27.5-0.7,41-4c31.1-7.7,57.1-23.8,77.9-48.2C338.3,271.5,350.1,238.3,350.6,199.7z"/>
	<path class="st1" d="M46,100.5c0.7-1,1.5-2,2.2-2.9c1.8-2.5,3.5-5.2,5.6-7.5c2.1-2.5,5.7-2.8,8.2-0.5c1.6,1.5,2,3.2,1.6,5.2
		c0.9-0.3,1.8-0.5,2.7-0.8c1.5-0.5,2.9,0.2,4,1c1.3,0.9,2.2,2.1,2.5,3.8c0.3,1.7-0.2,3.2-1.1,4.5c-2.3,3.4-4.7,6.7-7.1,10
		c-0.3,0.4-0.5,0.3-0.8,0.1c-3-2.2-6-4.4-9.1-6.5c-2.8-2-5.6-4.1-8.5-6.1c-0.1-0.1-0.2,0-0.3-0.1C46,100.7,46,100.6,46,100.5z
		 M63.8,107.5c0.5-0.6,0.9-1.2,1.3-1.7c0.9-1.4,1.9-2.7,2.8-4.1c0.6-1.1,0.3-2.5-0.7-3.1c-1.1-0.7-2.3-1.1-3.4,0.2
		c-1.5,1.8-2.8,3.7-4.3,5.6C61,105.4,62.4,106.5,63.8,107.5z M56.2,101.9c0.1-0.1,0.3-0.2,0.4-0.4c1-1.4,2.1-2.8,3.1-4.3
		c0.4-0.6,0.7-1.3,0.7-2c-0.1-1-0.7-1.8-1.7-2.2c-0.9-0.3-2,0-2.7,0.9c-1.2,1.5-2.3,3.1-3.4,4.7c-0.2,0.3-0.2,0.6,0.1,0.8
		C53.8,100.3,55,101.1,56.2,101.9z"/>
	<path class="st1" d="M195.3,15.9c1,0.2,2,0.4,2.9,0.7c4.2,1.4,6.7,4.4,7.5,8.8c0.6,3.1,0.1,6.1-1.6,8.8c-1.8,2.8-4.4,4.3-7.6,4.8
		c-3.4,0.6-6.6,0.1-9.4-2c-2.5-1.8-3.9-4.3-4.4-7.3c-0.4-2.4-0.2-4.8,0.8-7.1c1.2-2.7,3.1-4.6,5.8-5.7c1.2-0.5,2.5-0.6,3.8-0.9
		c0.1,0,0.2-0.1,0.2-0.2C193.9,15.9,194.6,15.9,195.3,15.9z M201.1,27.5c0-0.3-0.1-0.8-0.2-1.3c-0.5-4.2-4.5-6.9-8.9-5.6
		c-2.7,0.8-4.1,2.9-4.5,5.7c-0.4,3.1,0.3,5.6,2.8,7.6c1.9,1.5,5.4,1.6,7.4,0.3C200,32.7,201,30.4,201.1,27.5z"/>
	<path class="st1" d="M199.8,384.1c-1.1-0.5-2.1-0.9-3.2-1.4c-0.1,0-0.2-0.1-0.3-0.2c-0.8-0.7-0.8-0.7-0.1-1.5
		c0.1-0.1,0.2-0.3,0.3-0.4c0.7,0.5,1.4,1.1,2.2,1.4c1.4,0.6,2.9,0.9,4.4,0.1c0.8-0.4,1.3-1,1.3-2c0-0.9-0.6-1.5-1.3-1.8
		c-1.4-0.6-2.8-1-4.2-1.5c-1.3-0.5-2.4-1.2-2.6-2.7c-0.3-2,0.6-3.4,2.5-4.1c2.4-0.9,5.7-0.3,7.3,1.7c-0.4,0.4-0.7,0.7-1.1,1.2
		c-0.9-1.1-2.1-1.5-3.5-1.7c-1-0.2-1.9,0-2.7,0.6c-1,0.8-1.3,2.2,0.2,3.1c0.8,0.5,1.8,0.7,2.7,1c0.7,0.2,1.4,0.4,2,0.7
		c2,0.8,2.7,2.5,2.5,3.8c-0.3,1.9-1,2.9-3.3,3.6c-0.1,0-0.3,0.1-0.4,0.2C201.6,384.1,200.7,384.1,199.8,384.1z"/>
	<path class="st1" d="M339.4,100.3c3.8-3,7.4-5.8,11.1-8.7c1,1.3,2,2.5,2.9,3.8c-5.9,4.6-11.7,9.2-17.7,13.8
		c-0.4-0.4-0.8-0.9-1.1-1.3c-0.3-0.4-0.7-0.9-1-1.3c-0.5-0.6-0.8-1.1-0.5-2c1.6-5.4,3.1-10.8,4.6-16.2c0,0,0-0.1-0.1-0.2
		c-3.8,3-7.6,6-11.4,8.9c-1-1.3-2-2.5-2.9-3.7c5.9-4.6,11.8-9.2,17.7-13.9c0.9,1.2,1.8,2.3,2.7,3.5c0.2,0.2,0.3,0.6,0.2,0.8
		c-1.4,5.3-2.9,10.5-4.4,15.7C339.5,99.7,339.5,99.9,339.4,100.3z"/>
	<path class="st1" d="M178.7,40.1c-1.4,0.3-2.7,0.4-4,0.9c-1.6,0.6-2.1-0.6-2.8-1.4c-1.2-1.4-2.5-2.7-3.5-4.2
		c-0.8-1.3-1.8-1.1-2.9-0.8c-0.5,0.1-1,0.2-1.6,0.4c0.5,2.6,1.1,5.2,1.6,7.8c-1.4,0.3-2.8,0.6-4.2,0.9c-0.2,0-0.5-0.3-0.6-0.5
		c-0.9-4.6-1.8-9.1-2.7-13.7c-0.5-2.4-1-4.8-1.5-7.2c0-0.2,0-0.3,0-0.6c2.7-0.5,5.3-1.1,8-1.6c1.2-0.2,2.3-0.6,3.5-0.6
		c2.3-0.1,4.4,0.5,6,2.4c1.7,2,2.5,5.8,1,8.2c-0.6,0.9-1.4,1.7-2.3,2.4c-0.5,0.4-0.5,0.6-0.1,1c1.3,1.4,2.6,2.8,3.9,4.3
		C177.1,38.4,177.8,39.2,178.7,40.1z M161.9,24.8c0.4,2,0.8,4,1.2,6c0.5-0.1,1.1-0.2,1.6-0.3c1.5-0.4,3.1-0.7,4.5-1.2
		c1.5-0.5,2-2.1,1.4-3.7c-0.4-1.2-2.2-2.1-3.5-1.8C165.4,24.1,163.7,24.4,161.9,24.8z"/>
	<path class="st1" d="M319,85c-6.4,0.1-12.3-5.8-12.1-12.1c0.2-6.2,5.4-11.7,11.8-11.6c6.4,0.1,11.9,5.5,12,11.9
		C330.7,79.5,325.2,84.9,319,85z M311.6,73.8c-0.3,3.5,3.3,6.8,6.8,6.7c3.3-0.1,6.6-3,7.4-6.5c1-4.2-2.8-8.8-7.8-8
		C314.8,66.5,311.4,70.1,311.6,73.8z"/>
	<path class="st1" d="M240.4,29.6c3.5,0.9,7,1.7,10.6,2.6c-0.3,1.2-0.6,2.4-0.9,3.6c-0.1,0.5-0.5,0.4-0.8,0.3
		c-3.3-0.8-6.6-1.6-9.9-2.4c-0.4,1.7-0.8,3.3-1.2,5c3.4,0.8,6.7,1.6,10.1,2.4c0.5,0.1,0.7,0.2,0.5,0.8c-0.3,1.1-0.5,2.2-0.8,3.4
		c-1.4-0.3-2.7-0.6-4.1-1c-3.6-0.9-7.2-1.8-10.8-2.6c-0.4-0.1-0.5-0.2-0.4-0.7c0.9-3.6,1.8-7.3,2.7-10.9c0.8-3.5,1.7-7,2.5-10.4
		c5,1.2,9.9,2.4,14.9,3.6c0.5,0.1,0.6,0.3,0.5,0.8c-0.3,1-0.5,1.9-0.7,2.9c-0.1,0.5-0.2,0.6-0.7,0.4c-3.2-0.8-6.4-1.5-9.6-2.3
		c-0.6-0.2-0.8,0-0.9,0.6C241.1,27,240.7,28.3,240.4,29.6z"/>
	<path class="st1" d="M79,88.2c2.7-2.8,5.3-5.5,8-8.4c0.9,1.1,1.7,2.1,2.7,3.2c-3.4,3.6-7,7.4-10.7,11.3c-0.1-0.1-0.2-0.1-0.3-0.2
		c-1.7-1.6-3.4-3.3-5.1-4.9c-2.6-2.5-5.1-4.9-7.7-7.4c-1.1-1-2.1-2-3.3-3c3.7-3.9,7.3-7.7,11-11.5c1,0.9,2.1,1.9,3.1,2.8
		c-2.6,2.7-5.1,5.4-7.4,7.7c1,1.3,2,2.5,3,3.7c2.7-2.8,5.1-5.4,7.6-7.9c1,0.9,2,1.9,3.1,2.8c-2.5,2.7-5,5.3-7.5,7.9
		C76.7,85.7,77.8,86.9,79,88.2z"/>
	<path class="st1" d="M90.8,73.3c2.1,0.2,4.1-0.2,5.9-1.3c1-0.6,1.9-1.5,2.7-2.4c0.6-0.6,0.8-1.5,0.5-2.4c-0.4-0.9-1.2-1.4-2.2-1.1
		c-1.2,0.4-2.3,0.9-3.5,1.3c-1.7,0.6-3.4,1.4-5.2,1.9c-3.4,0.8-6.2-1.7-6.9-4.6c-0.6-2.7,0.4-4.9,2.2-6.9c1.8-1.9,3.9-3.2,6.4-3.9
		c1.2-0.3,2.4-0.4,3.8-0.6c0,1.6,0,3.1,0,4.5c-2.9,0.1-5.5,0.9-7.5,3.3c-1.1,1.3-0.6,3.1,0.8,3.3c0.6,0.1,1.3-0.2,1.9-0.4
		c1.8-0.7,3.5-1.5,5.3-2.2c2-0.8,4-1.1,6-0.1c2.4,1.3,4.2,4.7,3.3,7.7c-0.8,2.3-2.3,4-4.2,5.5c-1.6,1.3-3.5,2.3-5.5,2.7
		c-1.1,0.2-2.2,0.2-3.3,0.3c-0.2,0-0.5-0.2-0.5-0.4C90.8,76,90.8,74.6,90.8,73.3z"/>
	<path class="st1" d="M131.8,29.6c2.9-1,5.7-2,8.5-3c1.6-0.6,3.1-1.2,4.8-1c2,0.2,3.7,1,5,2.6c1.1,1.5,1.7,3.1,1.6,4.9
		c-0.1,2.7-1.3,4.7-3.7,5.9c-2.2,1.1-4.5,1.8-6.9,2.7c0.9,2.4,1.7,4.9,2.6,7.5c-1.5,0.5-3,1.1-4.5,1.6
		C136.8,43.8,134.3,36.7,131.8,29.6z M139.8,37.8c1.9-0.7,3.8-1.4,5.6-2.2c1.3-0.6,1.9-2.3,1.3-3.7c-0.5-1.2-1.6-2.2-3.2-1.8
		c-1.8,0.5-3.6,1.1-5.4,1.7c-0.1,0-0.3,0.3-0.2,0.4C138.4,34.1,139.1,35.9,139.8,37.8z"/>
	<path class="st1" d="M278.7,38.4c-1.5,0.1-3,0.2-4.4,0.4c-0.6-2.7-2-4.6-4.7-5.3c-2.2-0.6-4.1-0.2-5.9,1.2c-2.6,2-3.8,5.6-2.7,8.7
		c1.2,3.5,5.2,5.6,8.8,4c0.5-0.2,0.9-0.6,1.4-0.9c1,1.1,2,2.2,3,3.3c-3.8,3.1-8.6,3.5-13.5,0.1c-4.4-3.1-6-8-4.2-13.3
		c0.9-2.5,2.4-4.6,4.7-6c1.9-1.2,4-1.9,6.2-1.7C274.5,29.4,277.9,33.2,278.7,38.4z"/>
	<path class="st1" d="M218.6,21.2c-2.2-0.2-4.3-0.5-6.5-0.7c0.1-1.3,0.3-2.7,0.4-4.2c5.9,0.6,11.8,1.3,17.8,1.9
		c-0.1,0.8-0.1,1.6-0.2,2.4c0,0.3-0.1,0.7-0.1,1c0.1,0.8-0.3,0.9-0.9,0.8c-1.7-0.2-3.5-0.5-5.2-0.6c-0.2,0-0.6,0.4-0.6,0.6
		c-0.2,1.2-0.2,2.4-0.4,3.6c-0.2,1.9-0.4,3.8-0.6,5.7c-0.1,1.3-0.2,2.5-0.4,3.8c-0.2,1.5-0.3,3-0.5,4.4c-1.6-0.2-3.1-0.3-4.8-0.5
		C217.3,33.3,218,27.3,218.6,21.2z"/>
	<path class="st1" d="M114,38c0.7,1.2,1.4,2.4,2.1,3.6c-1.7,1-3.3,2-4.9,3c-0.5,0.3-0.6,0.4-0.3,1c3,5,6,10,9.1,15.1
		c-1.3,0.8-2.7,1.6-4.1,2.5c-1.2-2-2.3-3.9-3.5-5.8c-1.9-3.1-3.7-6.2-5.6-9.3c-0.2-0.4-0.5-0.5-0.9-0.3c-1.7,1-3.4,2.1-5,3.1
		c-0.7-1.2-1.5-2.4-2.2-3.6C103.7,44.2,108.8,41.1,114,38z"/>
	<path class="st1" d="M284.9,61.7c-1.4-0.8-2.8-1.6-4.1-2.4c3.1-5.3,6.1-10.5,9.2-15.8c-1.9-1.1-3.8-2.2-5.7-3.3
		c0.7-1.2,1.4-2.4,2.1-3.6c5.2,3,10.3,6,15.5,9c-0.7,1.2-1.4,2.4-2.1,3.6c-1.9-1.1-3.7-2.1-5.7-3.3C291,51.2,288,56.5,284.9,61.7z"
		/>
	<path class="st1" d="M307.5,49.7c1.3,0.9,2.6,1.9,3.9,2.8c-2.9,4.1-5.8,8.1-8.7,12.2c-1.3,1.8-2.6,3.7-4,5.5
		c-0.3,0.4-0.6,0.5-1.1,0.1c-0.9-0.7-1.8-1.4-2.7-2c-0.4-0.3-0.4-0.5-0.1-0.9c1.3-1.8,2.6-3.6,3.9-5.4c2-2.7,3.9-5.5,5.9-8.2
		C305.5,52.4,306.5,51.1,307.5,49.7z"/>
	<path class="st1" d="M214.4,369.4c2.3-0.2,4.5-0.5,6.8-0.6c1.8-0.1,3.1,0.8,3.5,2.5c0.4,1.3,0.1,3.2-1.7,3.9c0,0,0,0.1-0.1,0.2
		c1.4,0.3,2.4,1.2,2.8,2.6c0.5,2.4-0.4,4-2.7,4.5c-2.2,0.5-4.5,0.6-6.7,0.9c-0.2,0-0.5-0.4-0.6-0.6c-0.3-2.3-0.5-4.6-0.7-7
		c-0.2-1.8-0.4-3.6-0.7-5.4C214.4,370.1,214.4,369.8,214.4,369.4z M217.4,381.6c1.5-0.1,2.8-0.3,4.2-0.4c1.4-0.2,2.5-0.9,2.4-2.7
		c-0.1-1.3-1.2-2.3-2.5-2.2c-1.5,0.1-3.1,0.3-4.7,0.5C217,378.5,217.2,380,217.4,381.6z M216.2,370.8c0.2,1.6,0.4,3,0.5,4.5
		c1.5-0.2,2.9-0.3,4.3-0.5c1.2-0.1,2.2-1.2,2.1-2.3c-0.1-1.4-1.3-2.4-2.6-2.3C219.1,370.4,217.7,370.6,216.2,370.8z"/>
	<path class="st1" d="M180.4,374.1c0,2.9-1,5.1-3.2,6.6c-4,2.8-10.3,0.2-10.7-5c-0.2-2.6,0.4-4.8,2.2-6.6c1.9-1.9,4.2-2.1,6.6-1.5
		C178.4,368.3,180.6,371,180.4,374.1z M173.5,368.8c-1.3-0.1-2.5,0.4-3.3,1.2c-1.7,1.8-2.4,4-1.7,6.4c0.9,3.5,5,4.9,7.7,2.9
		c2.1-1.5,2.6-3.7,2.4-6.1C178.3,370.5,176,368.8,173.5,368.8z"/>
	<path class="st1" d="M250.7,377.1c-3,0.8-6,1.5-8.9,2.3c-1.1-4.3-2.2-8.7-3.3-13c-0.1-0.5,0-0.6,0.4-0.7c2.8-0.7,5.5-1.4,8.3-2.1
		c0.1,0.5,0.2,1,0.3,1.5c-2.4,0.6-4.8,1.2-7.2,1.9c0.4,1.3,0.7,2.6,1,3.9c0.1,0.4,0.3,0.5,0.7,0.4c2.2-0.6,4.3-1.1,6.5-1.7
		c0.1,0.5,0.3,1,0.4,1.5c-2.4,0.6-4.7,1.2-7.1,1.8c0.4,1.6,0.8,3.1,1.2,4.7c2.4-0.6,4.7-1.2,7.2-1.8
		C250.4,376.1,250.5,376.5,250.7,377.1z"/>
	<path class="st1" d="M182.3,381c0.3-0.4,0.7-0.8,1-1.3c1.4,1.9,4.1,2.8,6.1,2.2c0.8-0.3,1.5-0.8,1.7-1.7c0.2-1-0.1-1.8-1.1-2.2
		c-1.2-0.5-2.4-1-3.6-1.6c-0.7-0.4-1.5-0.8-2.1-1.3c-1.7-1.4-1.1-4.2,0.8-5.3c2.3-1.4,6.4-0.6,8.1,1.6c-0.4,0.4-0.7,0.7-1.1,1.1
		c-1.3-1.6-3.1-2.1-5.1-1.8c-1,0.1-1.8,0.9-1.9,1.8c-0.1,0.8,0.6,1.6,1.6,2.1c1.5,0.6,3,1.2,4.5,2c1.4,0.7,1.8,2,1.7,3.5
		c-0.2,1.3-0.9,2.4-2.1,3C188.2,384.3,184,383.4,182.3,381z"/>
	<path class="st1" d="M156.5,363.6c2.1,0.6,4,1,5.8,1.6c1.9,0.6,3.2,2.3,3,4c-0.4,2.7-1.5,4-4,4.2c-1.1,0.1-2.3-0.4-3.5-0.7
		c-1.8-0.4-1.8-0.5-2.3,1.2c-0.4,1.2-0.6,2.5-1,3.7c-0.5-0.1-1.1-0.2-1.7-0.4C154.1,372.7,155.3,368.2,156.5,363.6z M156.4,370.7
		c1.3,0.3,2.5,0.5,3.6,0.9c1.4,0.4,2.8-0.3,3.3-1.7c0.5-1.5-0.2-3-1.8-3.4c-1.2-0.4-2.4-0.6-3.8-1
		C157.3,367.2,156.9,368.9,156.4,370.7z"/>
	<path class="st1" d="M231.6,379.7c1.5-0.3,2.9-0.5,4.4-0.8c0.3-0.1,0.7-0.1,1-0.2c1.1-0.3,1.4,0,1.3,1c0,0.1-0.2,0.3-0.4,0.4
		c-2.5,0.5-5,0.9-7.5,1.4c-0.1,0-0.2,0-0.3,0c-0.8-4.5-1.7-9.1-2.5-13.7c0.6-0.1,1.1-0.2,1.7-0.3
		C230.1,371.5,230.8,375.6,231.6,379.7z"/>
	<path class="st1" d="M209.1,369.6c0.6,0,1.1,0,1.7,0c0.1,1,0.2,2,0.2,3c0.1,1.8,0.1,3.5,0.2,5.3c0.1,1.7,0.2,3.3,0.3,5
		c0,0.2,0,0.4,0,0.6c-0.6,0-1,0-1.7,0C209.5,378.9,209.3,374.3,209.1,369.6z"/>
	<path class="st1" d="M133.1,123.9c5.5,4.4,11.4,7.5,17.8,9.8c7.3,2.6,14.8,3.6,22.6,2.7c10.2-1.3,19.1-5.4,27.2-11.7
		c0.2-0.1,0.4-0.3,0.5-0.4c0.3-0.4,0.5-0.3,0.9,0c4.6,3.9,9.8,6.8,15.3,9c3.5,1.4,7.1,2.4,10.8,3s7.5,0.7,11.2,0.3
		c10.3-1,19.5-4.7,28-10.6c0.9-0.6,1.7-1.3,2.7-2c0,0.4,0.1,0.6,0.1,0.9c0,31.9,0,63.8-0.1,95.7c0,4.7-0.6,9.3-1.5,13.9
		c-2.2,11.3-7.6,20.9-15,29.6c-9.9,11.6-21.9,20.5-35.8,26.9c-5,2.3-10.2,4.3-15.6,5.7c-0.4,0.1-1,0.1-1.4,0c-5-1.3-9.8-3-14.4-5.1
		c-14.3-6.4-26.7-15.5-36.9-27.5c-5.4-6.3-9.8-13.2-12.6-21.1c-1.4-3.9-2.3-7.9-2.9-11.9c-1-6.8-1-13.7-1-20.6c0-28.5,0-57,0-85.4
		C133,124.7,133.1,124.4,133.1,123.9z"/>
</g>
<circle class="st2" cx="200" cy="201.2" r="158.5"/>
<g>
	<path class="st3" d="M903,7.2c0.6,0.1,1.1,0.3,1.7,0.3c3.4,0.1,6.7,0.1,10.1,0.2c0.5,0,1,0.1,1.6,0.1c0,1.4,0,2.7,0,4.1
		c-3.8,0.5-7.6-0.3-11.5,0c-0.4,1.6-0.2,3.1-0.2,4.9c3.7,0.1,7.4,0.3,11.2,0.4c0,1.5,0,2.8,0,4.2c-3.8,0-7.5,0-11.4,0
		c0,1.7,0,3.3,0,5.2c3.7,0.1,7.5,0.3,11.4,0.4c0,1.4,0,2.7,0,4.2c-5.5,0.1-11-0.3-16.5-0.4c-0.1-0.4-0.2-0.7-0.2-0.9
		c0.1-4.5,0.2-8.9,0.3-13.4c0.1-3.1,0.2-6.2,0.2-9.3C900.9,7.2,902,7.2,903,7.2z"/>
	<path class="st3" d="M1091.4,178.9c-2.2-0.2-4.3,0.3-6.6,0.7c0.2,2.1,0.4,4,0.6,6.2c-0.8,0.1-1.6,0.2-2.5,0.3c-0.6-1.9-0.5-3.9-1-6
		c-2.3-0.2-4.6,0.7-7.1,0.6c-0.1-0.8-0.2-1.7-0.3-2.8c2.3-0.3,4.5-0.7,7-1c-0.1-1.1-0.2-2-0.4-3c-0.1-1-0.2-2-0.3-3.2
		c0.8-0.1,1.6-0.2,2.6-0.3c0.3,2.1,0.6,4,0.9,6.2c2.2-0.3,4.4-0.5,6.4-0.7c0.2,0.4,0.4,0.7,0.5,1
		C1091.4,177.5,1091.4,178.2,1091.4,178.9z"/>
	<path class="st3" d="M910.5,392.8c-0.2-2.9-0.5-5.7-0.7-8.6c-0.1-1.3-0.2-2.7-0.3-4c0-0.6,0-1.3,0-1.9c1.1-0.5,1.8-0.2,2.5,0.6
		c2.4,2.9,4.9,5.8,7.4,8.7c0.2,0.3,0.4,0.6,0.8,0.8c0.2-3.7-0.4-7.3-0.4-11c0.5-0.1,1-0.1,1.6-0.2c0.4,4.9,0.7,9.6,1.1,14.3
		c-1.2,0.8-1.6,0.6-2.5-0.5c-2.5-3-5-5.9-7.5-8.9c-0.3-0.3-0.6-0.6-1.2-1.2c0.3,3.8,0.6,7.3,0.9,10.8c0,0.3-0.1,0.7-0.2,1
		C911.4,392.8,911,392.8,910.5,392.8z"/>
	<path class="st3" d="M896,392.8c0-4.8,0-9.6,0-14.7c2.9-0.1,5.5-0.4,8,0.4c1.6,0.6,2.4,2,2.5,3.7c0.1,1.8-0.8,3.4-2.3,4.1
		c-0.4,0.2-0.9,0.3-1.5,0.5c1.2,2,2.3,4,3.5,5.9c-0.7,0-1.4,0-2.1,0c-1.1-1.9-2.1-3.8-3.2-5.6c-0.1-0.2-0.6-0.4-0.9-0.4
		c-0.7-0.1-1.4,0-2.1,0c-0.1,1.2-0.1,2.2-0.2,3.2c-0.1,0.9-0.2,1.9-0.2,2.8C896.9,392.8,896.4,392.8,896,392.8z M897.9,385.3
		c1.5,0,2.9,0.1,4.2,0c1.4-0.1,2.3-1.1,2.5-2.5c0.2-1.4-0.6-2.7-1.9-3c-1.6-0.3-3.2-0.5-5,0c0,1.5,0,2.9,0,4.3
		C897.8,384.4,897.8,384.8,897.9,385.3z"/>
	<path class="st3" d="M742.6,201.1c0-55.9,28-107.4,74.8-137.4c18.2-11.6,37.9-19.2,59.2-22.8c12.1-2,24.3-2.7,36.5-1.8
		c42.3,3.2,78,20.5,106.7,51.7c20.9,22.7,34,49.4,39.8,79.7c2.4,12.6,3.3,25.3,2.7,38c-3.1,67.9-46.6,123.4-104.8,145
		c-11.9,4.4-24.2,7.4-36.9,8.8c-10.3,1.2-20.6,1.4-30.9,0.5c-34.7-3-65.3-15.9-91.4-38.8c-27.5-24-44.8-54.1-52.3-89.8
		C743.6,223.4,742.5,212.3,742.6,201.1z M746.2,201.1c0,11,1.1,22,3.5,33c7.9,36.6,26.1,66.9,55,90.6c26.4,21.6,56.8,33.2,90.9,34.8
		c14.2,0.7,28.2-0.6,42-3.8c32.1-7.6,59.2-23.9,81.1-48.6c24-27.1,37.1-59,39.7-95.1c1.1-14.5,0.1-28.9-2.8-43.1
		c-6.3-30.5-20.2-57.2-42.1-79.4c-28.3-28.8-62.8-44.5-103.2-46.9c-12.2-0.7-24.4,0.1-36.5,2.5c-33.2,6.5-61.6,22-84.6,46.8
		C760.6,122.7,746.8,159.4,746.2,201.1z"/>
	<path class="st3" d="M1065.9,114.1c-4.4,2.1-8.7,4.3-13.2,6.5c-0.7-1.4-1.4-2.8-2.2-4.3c7-3.5,13.9-6.9,21-10.5
		c0.7,1.5,1.5,2.8,2.1,4.2c0.1,0.3-0.1,0.9-0.2,1.3c-1.9,3.7-3.8,7.3-5.6,11c-0.6,1.3-1.3,2.5-2.1,4.2c2.6-0.8,4.6-2,6.7-3
		c2.1-1,4.1-2,6.3-3.1c1.1,1.2,1.5,2.7,2.3,4.3c-7,3.5-13.9,6.9-20.8,10.4c-1-1.1-1.5-2.5-2.1-3.8c-0.2-0.3,0.1-0.9,0.3-1.3
		c2-3.9,4.1-7.9,6.1-11.8c0.6-1.2,1.3-2.5,1.9-3.7C1066.1,114.3,1066,114.2,1065.9,114.1z"/>
	<path class="st3" d="M839.6,42.9c-2.5-7.6-4.9-14.9-7.3-22.2c0.2-0.2,0.2-0.3,0.3-0.3c3.5-1.1,7-2.5,10.6-3.3
		c6.8-1.5,12.6,2.7,13.8,9.8c1.1,6.3-2.8,10.6-6.6,12.2C846.9,40.4,843.3,41.5,839.6,42.9z M842.9,37.1c1.8-0.6,3.3-1,4.8-1.7
		c2.7-1.1,4.3-3.2,4.4-6.1c0.1-3.1-1.1-5.6-3.8-7.3c-0.5-0.3-1.1-0.5-1.6-0.6c-3.1-0.5-5.7,0.6-8.5,1.7
		C839.8,27.8,841.3,32.4,842.9,37.1z"/>
	<path class="st3" d="M772,64.3c-0.4,1.6-0.8,2.9-1.2,4.3c-0.4,0-0.8,0.1-1.1,0.1c-4.8-0.3-8.7,5.2-6.3,10.2c1.8,3.9,6.2,5.9,10,4.4
		c2.3-0.9,3.8-2.7,4.6-5.1c0.5-1.7,0.2-2.2-1.8-3.5c-1.5,1.3-3,2.7-4.6,4.1c-0.8-0.9-1.6-1.9-2.6-3c2.3-2.5,4.8-5.1,7.4-7.9
		c1.4,1.3,2.7,2.5,4.1,3.8c0.4,0.4,0.7,0.8,1.1,1.1c1.5,0.9,1.5,2.2,1.4,3.7c-0.6,7.2-7.3,12.9-14.2,12c-4.7-0.6-8-3.3-9.9-7.6
		c-1.9-4.4-0.9-8.4,1.8-12.1c2.2-3,5.2-4.5,8.9-4.8C770.3,64,771.1,64.2,772,64.3z"/>
	<path class="st3" d="M749,126.9c-0.6,1.6-1.2,2.9-1.7,4.2c-0.3,0.7-0.8,1.1-1.6,1.1c-2.1,0.2-4.2,0.4-6.3,0.7
		c-0.7,0.1-1.4,0.2-2.1,0.3c-0.5,1.1-0.9,2.2-1.4,3.4c2.6,1.1,5.1,2.1,7.7,3.2c-0.6,1.5-1.2,2.9-1.9,4.5c-7.2-3-14.4-5.9-21.7-9
		c0.5-1.3,1-2.5,1.5-3.7c0.9-2.2,1.8-4.5,2.7-6.7c2.2-4.9,7.4-6.3,11.7-3.2c1.7,1.2,2.6,2.9,2.7,4.9c0,0.5,0.1,0.9,0.1,1.5
		c1.7-0.2,3.4-0.5,5-0.7C745.5,127.4,747.1,127.1,749,126.9z M731.7,134.9c0.2-0.2,0.3-0.3,0.4-0.4c0.5-1.2,1.1-2.5,1.6-3.7
		c0.2-0.6,0.5-1.2,0.5-1.8c0.2-1.8-0.6-3-2-3.5c-1.5-0.5-3,0-3.8,1.5c-0.9,1.7-1.6,3.6-2.5,5.5C728,133.3,729.9,134.1,731.7,134.9z"
		/>
	<path class="st3" d="M804.4,56.7C804.1,63.9,798,69,791.8,69c-7.7,0-12.2-6.8-12.2-12.4c-0.1-6.2,5.5-12.3,12.5-12.4
		C799.3,44.2,804.1,50.2,804.4,56.7z M784.4,56c0,3.5,2.9,7.3,6.3,8.1c5,1.2,9.5-3.3,8.7-7.8c-0.4-2.8-1.9-4.8-4.1-6.3
		c-2.3-1.5-4.7-1.6-7.2-0.2C785.8,51.2,784.5,53.2,784.4,56z"/>
	<path class="st3" d="M818.4,27.8c6.6-0.1,12,5.6,12,12.5c0,8-7.4,12.1-12.9,12.1c-5.9,0-11.7-5.1-11.9-12.5
		C805.3,33.5,811.4,27.8,818.4,27.8z M825.3,40.8c0-2-0.5-3.5-1.8-5.2c-1.9-2.7-5.2-3.8-8.1-2.8c-3.1,1.1-5.2,3.7-4.9,7.1
		c0.1,1.8,0.8,3.4,1.8,4.9c2,2.8,5,3.8,8,2.8C823.5,46.5,825.3,44,825.3,40.8z"/>
	<path class="st3" d="M955.6,24.7c3.7,1.2,7.2,2.3,10.9,3.5c-0.5,1.4-0.9,2.7-1.3,4.1c-3.6-1.1-7.2-2.2-10.8-3.4
		c-0.6,1.7-1.1,3.3-1.7,5.1c3.7,1.2,7.3,2.4,11.1,3.6c-0.5,1.4-0.9,2.7-1.3,4.1c-5.3-1.7-10.4-3.3-15.8-5c2.4-7.5,4.7-14.8,7.1-22.4
		c5.3,1.7,10.5,3.3,15.8,5c-0.4,1.4-0.8,2.7-1.3,4.1c-3.7-1.2-7.4-2.3-11.1-3.5C956.7,21.5,956.2,23,955.6,24.7z"/>
	<path class="st3" d="M991.2,55.7c4.5-6.6,8.8-13,13.2-19.5c4.6,3.1,9.2,6.2,13.8,9.3c-0.8,1.2-1.6,2.3-2.4,3.6
		c-3.2-2.2-6.4-4.3-9.7-6.5c-0.9,1.4-1.8,2.7-2.8,4.2c3.1,2.1,6.2,4.3,9.4,6.5c-0.8,1.2-1.6,2.3-2.4,3.5c-3.1-2.1-6.2-4.1-9.4-6.3
		c-1.1,1.4-2,2.8-3,4.5c3.2,2.2,6.3,4.3,9.6,6.5c-0.8,1.2-1.6,2.4-2.4,3.6C1000.3,61.9,995.8,58.8,991.2,55.7z"/>
	<path class="st3" d="M713.1,160.2c1.4-5.5,2.8-10.7,4.2-16.1c1.5,0.4,2.8,0.7,4.2,1.1c-1,3.8-1.9,7.5-2.9,11.3
		c1.6,0.4,3.2,0.8,4.9,1.3c1-3.7,1.9-7.3,2.9-11c1.4,0.4,2.7,0.7,4.1,1.1c-1,3.7-1.9,7.3-2.8,11c1.8,0.5,3.4,0.9,5.2,1.4
		c1-3.8,2-7.4,3-11.2c1.4,0.3,2.7,0.7,4.2,1c-1.4,5.4-2.7,10.6-4.1,16C728.2,164.2,720.8,162.2,713.1,160.2z"/>
	<path class="st3" d="M1057.1,84.1c3.2,4.6,6.3,9.1,9.5,13.6c-1.2,0.8-2.2,1.6-3.5,2.5c-2.2-3.2-4.4-6.3-6.7-9.6
		c-1.4,1-2.7,1.9-4.1,2.9c2.2,3.2,4.3,6.2,6.5,9.4c-1.2,0.8-2.2,1.6-3.5,2.5c-2.2-3.1-4.3-6.1-6.5-9.2c-1.6,0.8-2.9,1.9-4.5,3
		c2.2,3.2,4.3,6.3,6.6,9.5c-1.2,0.8-2.3,1.6-3.5,2.5c-3.2-4.6-6.3-9-9.5-13.6C1044.3,93.1,1050.6,88.7,1057.1,84.1z"/>
	<path class="st3" d="M923.9,8.3c2,0.3,3.8,0.6,5.7,0.9c1.3,2.8,2.6,5.7,4,8.8c0.9-0.9,1.6-1.6,2.3-2.3c1.2-1.2,2.3-2.5,3.5-3.8
		c0.6-0.7,1.2-0.9,2-0.7c1.4,0.3,2.8,0.5,4.5,0.8c-3,3.6-6.4,6.6-9.5,10c2.1,4.3,4.1,8.6,6.4,13.3c-2-0.3-3.7-0.5-5.4-0.9
		c-0.4-0.1-0.7-0.7-0.9-1.2c-1.2-2.5-2.3-5-3.5-7.5c-0.1-0.2-0.2-0.4-0.3-0.5c-2,1.9-4.1,3.7-6,5.7c-1,1-1.8,1.6-3.3,1.2
		c-1.2-0.3-2.4-0.4-3.8-0.7c0.6-0.6,1-1.1,1.4-1.5c2.5-2.5,5.1-5.1,7.6-7.6c1.3-1.3,1.3-1.3,0.5-3C927.4,15.6,925.7,12.1,923.9,8.3z
		"/>
	<path class="st3" d="M733.8,179.1c-0.2,2.1-0.5,4.1-0.7,6.2c-8.1,2.1-16.1,4.2-24.4,6.4c0.2-1.8,0.4-3.4,0.6-4.9
		c0.1-0.9,0.9-0.9,1.5-1c3.1-0.8,6.3-1.5,9.4-2.2c2.5-0.6,4.9-1.2,7.4-1.9c-5.5-3.1-11.2-5.6-16.8-8.5c0.2-1.8,0.4-3.5,0.6-5.5
		C718.9,171.3,726.2,175.2,733.8,179.1z"/>
	<path class="st3" d="M986.5,44.6c0.9,1.1,1.8,2.2,2.8,3.5c-0.6,0.4-1.1,0.8-1.6,1c-3.7,1.8-7.3,1.4-10.8-0.7
		c-4.3-2.6-6.6-6.5-6-11.5c0.6-5,3.3-8.8,8.2-10.6c5.4-2,13.3,1,15.3,7c0.1,0.4,0.2,0.8,0.3,1.2c0.1,0.6,0.2,1.2,0.3,2
		c-1.6,0-3,0-4.6,0c-0.1-0.4-0.2-0.9-0.4-1.3c-1.3-4.7-6.9-6.3-10.7-3.6c-3.2,2.3-4.5,6.8-2.8,10.2c1.5,3,5.5,5.2,9.1,3.2
		C985.9,44.8,986.2,44.7,986.5,44.6z"/>
	<path class="st3" d="M739.1,97.1c0.9-1.5,1.8-3,2.7-4.6c0.3,0.5,0.6,0.8,0.8,1.2c2,4,4,8,6,12c0.5,1,1.1,1.7,2.1,2.3
		c2.2,1.3,4.4,2.6,6.8,4c-0.8,1.4-1.6,2.8-2.5,4.2c-1.9-1.1-3.8-2.1-5.5-3.3c-2-1.4-4.1-1.9-6.5-1.4c-1.3,0.3-2.7,0.1-4.1,0.1
		c-2.5,0.1-4.9,0.2-7.4,0.3c-0.3,0-0.7,0-1.3-0.1c0.9-1.6,1.7-2.9,2.5-4.2c0.2-0.3,0.8-0.4,1.2-0.4c2.7-0.1,5.4-0.1,8.1-0.1
		c0.6,0,1.1-0.1,2-0.1C742.5,103.5,740.8,100.3,739.1,97.1z"/>
	<path class="st3" d="M1089.7,150.3c-1.4,0.5-2.7,0.9-4.1,1.3c-0.7-2.1-1.4-4.2-2.2-6.5c-3.1,1-6.1,2-9.1,2.9c-3,1-5.9,1.9-9.1,2.9
		c-0.5-1.5-1-3-1.6-4.7c6.1-2,12-3.9,18.2-5.9c-0.7-2.2-1.3-4.3-2-6.5c1.3-0.5,2.6-0.9,4.1-1.4
		C1085.9,138.5,1087.8,144.3,1089.7,150.3z"/>
	<path class="st3" d="M1016,68.5c2.6,2.3,5,4.4,7.5,6.6c-0.9,1.1-1.8,2.1-2.8,3.2c-3.7-3.3-7.4-6.5-11.2-9.8
		c5.2-5.9,10.2-11.7,15.5-17.7c1.2,1,2.4,2.1,3.7,3.2C1024.4,58.9,1020.3,63.6,1016,68.5z"/>
	<path class="st3" d="M1024.4,82.2c5.9-5.3,11.6-10.5,17.5-15.7c1.1,1.3,2.2,2.4,3.3,3.7c-4.7,4.3-9.4,8.5-14.2,12.8
		c2.2,2.5,4.3,4.9,6.6,7.4c-1,0.9-2,1.9-3.2,2.9C1031.1,89.5,1027.8,85.9,1024.4,82.2z"/>
	<path class="st3" d="M822.1,374.5c-0.5-0.2-1-0.4-1.6-0.6c2-4.5,3.9-8.8,5.9-13.4c0.8,0.3,1.4,0.6,2.2,1c0,3.8,0,7.7,0,11.9
		c3-2.8,5.7-5.4,8.5-8c0.7,0.3,1.5,0.6,2.3,1c-2,4.5-3.9,8.9-5.9,13.4c-0.5-0.3-0.9-0.5-1.5-0.8c1.5-3.5,3-6.9,4.5-10.3
		c-3.4,2.6-6.2,5.6-9.6,8.2c-0.2-4.1,0-8.2-0.2-12.3C825,367.7,823.8,371.2,822.1,374.5z"/>
	<path class="st3" d="M767.1,330.3c1.7-0.9,3.5-1.9,5.2-2.8c1.4-0.8,2.9-1.6,4.3-2.4c0.8-0.5,1.4-0.4,1.9,0.7
		c-1.9,3.3-3.9,6.7-6,10.2c0.1,0.1,0.2,0.2,0.3,0.3c3.5-1.7,6.9-3.9,10.5-5.7c0.4,0.4,0.8,0.8,1.4,1.3c-4.7,2.5-9.1,4.8-13.6,7.3
		c-0.4-0.5-0.8-1-1.2-1.5c2-3.4,4-6.7,5.9-10c-0.1-0.1-0.2-0.2-0.2-0.3c-3.4,1.8-6.8,3.7-10.4,5.6c-0.4-0.5-0.8-0.9-1.2-1.4
		c2.5-4.3,5-8.6,7.6-13c0.5,0.4,0.9,0.8,1.4,1.2c-2.1,3.5-4.1,6.9-6.2,10.3C766.9,330.1,767,330.2,767.1,330.3z"/>
	<path class="st3" d="M1027.6,339.8c-2.3-2.7-4.7-5.4-7.1-8.1c0.4-0.4,0.7-0.8,1.1-1.3c3.2,3.7,6.4,7.2,9.6,10.8
		c-0.5,1.2-1.3,1.3-2.3,1.1c-4-0.9-7.9-1.7-11.9-2.6c-0.2,0-0.5-0.1-1.1-0.1c2.7,3,5.1,5.8,7.6,8.7c-0.4,0.4-0.8,0.7-1.3,1.2
		c-3.2-3.7-6.4-7.2-9.5-10.8c0.5-1.3,1.3-1.4,2.4-1.2c3.5,0.8,7,1.5,10.5,2.3c0.5,0.1,1.1,0.2,1.7,0.3
		C1027.5,340,1027.5,339.9,1027.6,339.8z"/>
	<path class="st3" d="M1003.7,363.1c-2.8-4.1-5.5-8-8.3-12.1c1.9-1.2,3.5-2.6,5.4-3.5c5.1-2.5,10.1,1.3,10.5,6.5
		c0.2,2.5-1.2,4.5-3.1,6C1006.8,361.1,1005.3,362,1003.7,363.1z M1004.3,360.9c1.3-1,2.5-1.8,3.5-2.7c1.9-1.8,2.2-4.2,0.8-6.6
		c-1.3-2.4-3.7-3.7-6.1-3.1c-1.9,0.4-3.3,1.7-4.8,2.9C1000,354.6,1002,357.7,1004.3,360.9z"/>
	<path class="st3" d="M968.9,367.3c-0.4,0.6-0.6,1-0.8,1.2c-1.2-0.2-2.4-0.6-3.5-0.5c-4.6,0.6-6.6,5.4-4,9.4c2,3,5.9,3.5,8.6,1.1
		c1.3-1.1,1.4-1.7,0.8-3.2c-0.2-0.4-0.4-0.8-0.6-1.4c-1.5,0.6-3,1.1-4.6,1.6c-0.2-0.4-0.4-0.8-0.6-1.4c2.1-0.8,4.2-1.6,6.4-2.4
		c0.6,1.5,1.1,3,1.6,4.4c0.1,0.4,0.1,0.9-0.1,1.3c-1.4,2.5-3.6,3.9-6.4,4c-2.9,0.2-5.2-1-6.7-3.5c-1.5-2.6-1.9-5.4-0.2-8
		c1.6-2.6,4.1-3.8,7.2-3.6C966.8,366.7,967.7,367,968.9,367.3z"/>
	<path class="st3" d="M937.3,374.6c2.3-0.5,4.4-1.1,6.6-1.5c1.8-0.3,3.7,0.9,4.4,2.6c0.8,1.9,0.3,3.9-1.2,5.1
		c-0.3,0.2-0.7,0.5-1.2,0.8c1.6,1.6,3.2,3.1,4.8,4.6c-1.4,0.8-1.6,0.8-2.6-0.1c-0.9-0.9-1.8-1.8-2.7-2.7c-0.9-1-1.9-1.5-3.3-0.8
		c-0.3,0.1-0.5,0.2-1,0.4c0.4,1.8,0.8,3.5,1.2,5.4c-0.4,0.2-0.9,0.4-1.6,0.7C939.5,384.1,938.4,379.4,937.3,374.6z M940.7,381.3
		c1.6-0.4,3.1-0.7,4.5-1.2c1.2-0.4,1.7-1.6,1.5-3.1c-0.2-1.2-1.1-2.2-2.4-2.2c-1.7,0-3.3,0.4-5,1.1
		C939.8,377.7,940.2,379.4,940.7,381.3z"/>
	<path class="st3" d="M1034.4,320.8c-0.1,0.6-0.2,1-0.4,1.5c-1.5,0-2.9,0.5-4,1.4c-2.7,2.4-2.6,6.5,0.4,8.9c3.4,2.8,8,1.5,9.4-2.7
		c0.3-1,0.2-1.8-0.6-2.5c-0.5-0.4-0.9-0.8-1.4-1.2c-1.2,1.2-2.3,2.4-3.6,3.7c-0.4-0.4-0.7-0.8-1-1.2c1.4-1.5,2.7-2.9,4-4.2
		c0.2-0.2,0.4-0.4,0.7-0.6c1.1,1,2.2,2,3.3,3c0.6,0.6,0.5,1.3,0.5,2c-0.4,3.2-2.9,5.9-6,6.7c-3,0.7-6.1-0.6-8-3.4
		c-1.7-2.5-1.8-5-0.4-7.7C1028.9,322,1031.3,320.6,1034.4,320.8z"/>
	<path class="st3" d="M976.3,371.4c0.8,1.8,1.5,3.4,2.4,5.2c-0.5,0.3-0.9,0.5-1.5,0.8c-2.1-4.4-4.1-8.7-6.2-13.2
		c2.4-1.2,4.6-2.5,7.1-3.1c1.4-0.3,3.2,0.7,3.9,2.1c0.8,1.5,1.2,3.1,0,4.6c-0.3,0.4-0.7,0.8-1.2,1.3c1.9,1.2,3.8,2.4,5.7,3.6
		c-0.9,0.8-1.6,1.1-2.6,0.4c-1.1-0.8-2.3-1.4-3.4-2.2c-1-0.8-1.9-0.9-3-0.2C977.2,371,976.8,371.1,976.3,371.4z M975.6,369.9
		c0.7-0.3,1.2-0.5,1.6-0.8c0.8-0.4,1.7-0.7,2.5-1.3c1.2-0.9,1.5-2.3,0.8-3.6c-0.7-1.3-2-1.9-3.4-1.3c-1.3,0.5-2.6,1.2-4,1.8
		C974,366.6,974.8,368.2,975.6,369.9z"/>
	<path class="st3" d="M848.9,376.3c0-1.1-0.1-2.2,0-3.2c0.2-1.4,1.4-2.4,2.8-2.5c1.6-0.1,2.9,0.3,3.8,1.7c0.8,1.3,0.1,3.2-1.5,4
		c-0.9,0.4-1.9,0.7-2.9,1c0.2,1.7,1.2,3.1,2,4.9c0.9-0.9,1.7-1.7,2.6-2.6c0.3,0.3,0.6,0.5,1,0.8c-1,1.1-1.9,2-2.9,3.1
		c0.5,1,1,1.9,1.6,3c-1.7,0.3-2.2-1-2.9-2c-1,0.2-1.9,0.4-2.8,0.5c-1.7,0.1-3.3-0.4-4.4-1.8c-1.4-1.7-1-4.5,0.9-5.7
		C847,377.1,847.9,376.8,848.9,376.3z M851.8,383.1c-0.5-1-0.9-1.8-1.3-2.7c-0.4-0.8-0.7-1.7-1.1-2.5c-1.6,0.2-2.7,0.9-3,2
		c-0.4,1.2,0,2.5,0.9,3.2C848.7,384.2,850.2,384.1,851.8,383.1z M850.9,376.2c0.8-0.3,1.7-0.5,2.4-0.9c0.9-0.5,1.2-1.4,1-2.2
		c-0.2-0.8-0.8-1.1-1.6-1.2c-0.9-0.1-1.8,0.4-2.1,1.2C850.2,374.1,850.1,375.1,850.9,376.2z"/>
	<path class="st3" d="M817.7,372.4c-1.8-0.8-1.7-0.8-1.5-2.3c0.1-0.6,0.1-1.3,0.2-2c-2.1-1.2-4.2-2.4-6.3-3.6
		c-0.9,0.7-1.8,1.4-2.7,2.1c-0.5-0.3-1-0.5-1.8-0.9c4.2-3.4,8.3-6.7,12.3-9.9c0.7,0.4,1.3,0.7,1.9,1.1
		C819.1,362.1,818.4,367.2,817.7,372.4z M817.8,358.5c-0.1-0.1-0.3-0.1-0.4-0.2c-2,1.6-4,3.3-6.3,5.1c1.9,1.1,3.6,2,5.5,3.1
		C817.1,363.6,817.5,361,817.8,358.5z"/>
	<path class="st3" d="M1001,364.8c-0.7,0.4-1.1,0.7-1.6,1c-0.9-0.7-1.9-1.4-2.9-2.1c-1.8,1-3.6,2.1-5.4,3c-0.8,0.4-1.1,1-0.8,1.9
		c0.1,0.3,0.1,0.7,0.2,1c0.1,1.4,0.1,1.4-1.6,1.8c-0.7-5.1-1.4-10.1-2.1-15.2c0.6-0.4,1.2-0.7,1.9-1.2
		C992.7,358.3,996.7,361.5,1001,364.8z M989,357.5c-0.1,0.1-0.3,0.2-0.4,0.3c0.4,2.6,0.8,5.1,1.2,7.9c1.9-1.1,3.6-2.1,5.5-3.1
		C993.1,360.8,991,359.1,989,357.5z"/>
	<path class="st3" d="M935.2,381.7c0.1,0.5,0.1,0.9,0.2,1.4c-2.5,0.4-4.9,0.8-7.5,1.3c0.3,1.7,0.5,3.3,0.8,5c2.5-0.4,5-0.7,7.6-1.1
		c0.1,0.5,0.2,0.9,0.3,1.5c-3.2,0.5-6.2,1-9.4,1.5c-0.8-4.8-1.5-9.5-2.3-14.3c3.1-0.8,6.2-1.1,9.3-1.6c0.1,0.5,0.2,0.8,0.4,1.4
		c-2.5,0.4-4.9,0.8-7.4,1.2c-0.4,1.6,0.3,3.1,0.4,4.8C930.1,382.5,932.6,382.1,935.2,381.7z"/>
	<path class="st3" d="M880.8,376.8c0.7,0.1,1.1,0.1,1.7,0.2c-0.2,2-0.3,3.9-0.5,5.8c-0.1,1.3-0.3,2.6-0.2,3.9c0,2.3,1.4,3.8,3.7,4
		c2.5,0.2,4.2-0.9,4.6-3.3c0.4-2.6,0.5-5.3,0.8-7.9c0.1-0.5,0.1-1,0.2-1.6c0.6,0.1,1.1,0.2,1.7,0.3c-0.3,3.2-0.6,6.3-1,9.4
		c-0.4,3.8-3.9,5.4-6.9,4.7c-3.7-0.8-5-2.5-4.8-6.4c0.1-1.5,0.2-2.9,0.4-4.4C880.5,379.9,880.6,378.5,880.8,376.8z"/>
	<path class="st3" d="M871.1,390.1c-0.6-0.1-1-0.1-1.7-0.2c0.7-4.3,1.5-8.5,2.2-12.9c-1.6-0.3-3-0.6-4.6-0.9
		c0.1-0.5,0.2-0.9,0.4-1.4c3.6,0.6,7.1,1.3,10.6,1.9c0.2,1-0.1,1.5-1,1.4c-1.2-0.2-2.3-0.4-3.7-0.6
		C872.6,381.5,871.9,385.7,871.1,390.1z"/>
	<path class="st3" d="M783.9,348.2c1.7,1.4,3.4,2.8,5.2,4.3c-0.3,0.4-0.5,0.7-0.9,1.2c-2.2-1.8-4.4-3.5-6.6-5.4
		c3.1-3.8,6.1-7.4,9.2-11.3c0.5,0.3,0.9,0.6,1.4,0.9C789.3,341.4,786.7,344.7,783.9,348.2z"/>
	<path class="st3" d="M791.1,356c2.9-4,5.6-7.9,8.4-11.8c0.5,0.3,0.9,0.5,1.5,0.9c-2.5,3.6-5,7.1-7.5,10.7c1.8,1.3,3.6,2.6,5.4,4
		c-0.2,0.4-0.5,0.8-0.8,1.3C795.8,359.3,793.5,357.7,791.1,356z"/>
	<path class="st3" d="M873.9,26.5c-0.2-1.3-0.3-2.4-0.5-3.7c2.7-0.4,5.4-0.8,8.3-1.2c0.2,1.2,0.4,2.4,0.6,3.7
		C879.4,25.7,876.8,26.1,873.9,26.5z"/>
	<path class="st3" d="M1018.6,352.4c-0.5,0.4-0.9,0.7-1.3,1.1c-3-3.9-6-7.6-9-11.5c0.4-0.3,0.7-0.6,1.3-1.1
		C1012.7,344.6,1015.5,348.5,1018.6,352.4z"/>
	<path class="st3" d="M778,345c-0.5-0.4-0.9-0.7-1.4-1.1c3.3-3.6,6.5-7.2,9.7-10.8c0.5,0.4,0.9,0.7,1.3,1.1
		C784.5,337.9,781.3,341.4,778,345z"/>
	<path class="st3" d="M809.3,350.7c0.5,0.3,0.9,0.6,1.5,0.9c-2.6,4.1-5.2,8.1-7.8,12.2c-0.5-0.3-0.9-0.5-1.5-0.8
		C804.1,358.9,806.7,354.8,809.3,350.7z"/>
	<path class="st3" d="M935,237.7c3.9-4.9,7.7-9.7,11.6-14.6c0.5,0.4,0.9,0.7,1.2,1c5.7,5.6,12.6,8.5,20.5,9.5
		c4,0.5,7.9,0.4,11.7-0.8c4.3-1.3,7.8-3.7,9.7-7.9c2.9-6.2,0.8-14.3-5.8-17.8c-3.9-2-8.1-2.6-12.3-2.3c-6.9,0.3-13,2.6-18.1,7.4
		c-0.5,0.5-1,0.5-1.6,0.4c-4.5-1.2-9-2.4-13.6-3.6c0-18.8,0-37.6,0-56.5c0,0,0.1,0,0.1-0.1c0,0,0.1-0.1,0.1-0.1
		c0.5,0,0.9-0.1,1.4-0.1c21.8,0,43.5,0,65.3,0.1c0.1,0,0.2,0.1,0.4,0.2c0,6,0,12,0,18.3c-15.4,0-30.8,0-46.3,0c0,7.9,0,15.6,0,23.5
		c1.4-1,2.7-2,4-2.8c4.7-2.8,9.7-4.4,15.2-4.7c5.7-0.4,11.1,0.6,16.3,2.9c7.3,3.4,12.5,8.8,15.3,16.3c3.1,8.4,3,16.9,0,25.2
		c-2.5,6.8-7.1,11.9-13.3,15.6c-4.7,2.8-9.8,4.3-15.1,5.2c-4,0.6-8,0.8-12,0.6c-9.4-0.5-18.5-2.4-26.5-7.7c-2.6-1.7-4.9-3.9-7.3-5.8
		C935.7,238.6,935.5,238.2,935,237.7z"/>
	<path class="st3" d="M859,152.2c0,19.9,0,39.6,0,59.6c4.3,0,8.4,0,12.4,0c0.4,1.4,0.5,16,0.1,18.5c-4.1,0-8.2,0-12.5,0
		c-0.1,3.5,0,6.9,0,10.2c0,3.3,0,6.7,0,10.2c-7.1,0-14,0-21.1,0c0-6.7,0-13.4,0-20.3c-15.7,0-31.1,0-46.7,0c-0.1-0.6-0.2-1-0.2-1.5
		c0-4.7,0-9.4,0-14.2c0-0.7,0.3-1.5,0.6-2.1c6.5-10.3,13.1-20.6,19.6-30.9c5.8-9.2,11.7-18.4,17.5-27.6c0.3-0.4,0.5-1,0.9-1.3
		c0.3-0.3,0.7-0.4,1.2-0.6c0.1-0.1,0.3,0,0.5,0c8.7,0,17.5,0,26.2,0C858,152.1,858.4,152.1,859,152.2z M837.9,172.1
		c-0.1,0-0.2-0.1-0.3-0.1c-0.2,0.3-0.5,0.6-0.7,0.9c-6,9.3-12,18.6-18,27.9c-2.1,3.3-4.2,6.5-6.3,9.8c-0.2,0.3-0.3,0.7-0.4,1.1
		c4.6,0.4,24.4,0.2,25.8-0.2C837.9,198.4,837.9,185.3,837.9,172.1z"/>
	<path class="st3" d="M899.2,270.8c-2.7-2.2-5.3-4.3-8.1-6.7c2.7-1.6,5-3.6,6.9-5.9c1.9-2.2,3.6-4.6,4.3-7.6c-1.5,0-3,0.2-4.3,0
		c-4.5-0.8-7.7-4.2-8.2-8.8c-0.5-5.1,1.3-9.3,5.8-12c4.3-2.7,10.5-1.8,14.1,1.5c3.6,3.2,4.9,7.4,4.9,12c0,4.9-1.1,9.6-3.4,13.9
		C908.6,262.4,903.7,268,899.2,270.8z"/>
</g>
<g>
	<path class="st3" d="M229,7.2c1.6,0.4,3.2,0.8,4.8,1.1c3.4,0.6,6.7,1.2,10.1,1.8c0.3,0.1,0.7,0.2,1.1,0.4c-0.3,1.4-0.5,2.7-0.8,4.1
		c-3.8-0.7-7.5-1.4-11.5-2.1c-0.3,1.6-0.6,3.1-1,4.9c3.7,1,7.4,1.3,11.2,2.3c-0.2,1.4-0.4,2.7-0.7,4.2c-3.8-0.7-7.5-1.3-11.3-2
		c-0.3,1.8-0.6,3.4-1,5.2c3.7,1.1,7.6,1.3,11.5,2.4c-0.2,1.4-0.5,2.7-0.7,4.2c-5.5-1-10.8-2-16.4-3c1.4-7.9,2.9-15.6,4.3-23.4
		C228.8,7.2,228.9,7.2,229,7.2z"/>
	<path class="st3" d="M9.9,160.5c0.4-0.9,0.8-1.7,1.1-2.6c0.3-0.9,0.5-1.8,0.8-2.7c6.3-0.5,12.5-1,18.7-1.5c0-0.1,0.1-0.3,0.1-0.4
		c-5.1-3.6-10.2-7.2-15.4-10.8c0.5-1.7,0.9-3.4,1.5-5.4c6.9,5,13.5,10,20.4,15c-0.5,1.8-1,3.6-1.5,5.4c-0.2,0.7-0.8,0.7-1.4,0.8
		c-2.8,0.3-5.6,0.6-8.5,0.8c-4.9,0.5-9.7,1-14.6,1.5c-0.4,0-0.8,0.2-1.2,0.3C9.9,160.8,9.9,160.6,9.9,160.5z"/>
	<path class="st3" d="M390.1,153.8c-1.3,0.4-2.6,0.8-4,1.2c-0.7-2.3-1.3-4.3-2-6.6c-6.2,1.8-12.2,3.6-18.5,5.5
		c-0.5-1.6-0.9-3.1-1.4-4.8c6.2-1.8,12.2-3.7,18.4-5.5c-0.6-2.2-1.3-4.3-1.9-6.6c1.4-0.4,2.7-0.8,4.1-1.2c0.2,0.8,0.4,1.4,0.6,2.1
		c1.5,5,2.9,10,4.4,15c0,0.1,0.2,0.2,0.3,0.2C390.1,153.3,390.1,153.5,390.1,153.8z"/>
	<path class="st3" d="M209.1,392.8c-0.2-2.9-0.5-5.7-0.7-8.6c-0.1-1.4-0.2-2.7-0.3-4.1c0-0.6,0-1.3,0-1.9c1.1-0.5,1.8-0.2,2.5,0.6
		c2.4,3,5,5.8,7.5,8.8c0.2,0.3,0.4,0.6,0.8,0.8c0.2-3.7-0.4-7.3-0.4-11c0.5-0.1,1-0.1,1.6-0.2c0.4,4.9,0.7,9.7,1.1,14.3
		c-1.2,0.8-1.6,0.6-2.5-0.5c-2.5-3-5-5.9-7.6-8.9c-0.3-0.3-0.6-0.6-1.2-1.2c0.3,3.8,0.6,7.4,0.9,10.9c0,0.3-0.1,0.7-0.2,1
		C210,392.8,209.5,392.8,209.1,392.8z"/>
	<path class="st3" d="M194.5,392.8c0-4.8,0-9.7,0-14.7c2.9-0.2,5.5-0.5,8.1,0.4c1.7,0.6,2.4,2,2.5,3.7c0.1,1.8-0.8,3.4-2.3,4.1
		c-0.4,0.2-0.9,0.3-1.5,0.5c1.2,2,2.3,4,3.5,5.9c-0.7,0-1.4,0-2.1,0c-1.1-1.9-2.1-3.8-3.3-5.6c-0.1-0.2-0.6-0.4-0.9-0.4
		c-0.7-0.1-1.4,0-2.1,0c-0.1,1.2-0.1,2.2-0.2,3.2c-0.1,0.9-0.2,1.9-0.2,2.8C195.4,392.8,195,392.8,194.5,392.8z M196.3,385.3
		c1.7,0,3.2,0.1,4.6,0c1.3-0.1,2.2-1.2,2.3-2.5c0.1-1.3-0.5-2.6-1.8-2.9c-1.6-0.4-3.3-0.5-5.1-0.1c0,0.6,0,1.2,0,1.7
		C196.3,382.6,196.3,383.8,196.3,385.3z"/>
	<path class="st3" d="M40.4,200.6c0-56.7,28.2-108.4,75.2-138.4c18.3-11.7,38.1-19.3,59.5-22.8c12.1-2,24.3-2.6,36.5-1.8
		c53.5,3.6,98.4,33,124.8,74.9c12.1,19.1,19.8,39.9,23.3,62.3c2.1,13.5,2.5,27.1,1.3,40.8c-4.6,51.1-33,97.7-77.7,124.8
		c-17.4,10.6-36.2,17.5-56.3,20.9c-11.1,1.8-22.3,2.6-33.5,1.9c-44.1-2.5-81.1-20.2-110.9-52.7c-20.5-22.4-33.4-48.7-39.3-78.5
		C41.4,221.5,40.3,210.8,40.4,200.6z M358.1,203.6c-0.1-14.5-1.1-25.5-3.5-36.5c-7.6-35.3-24.8-64.9-52.1-88.4
		c-26.2-22.5-56.6-35-91.1-37.4c-15.6-1.1-31,0.1-46.2,3.8c-31.9,7.8-58.9,23.9-80.7,48.5c-24.2,27.3-37.3,59.3-40,95.6
		c-1.1,14.6-0.1,29,2.9,43.3c6,29.2,19,55,39.4,76.8c28,30,62.6,46.6,103.5,49.9c13.7,1.1,27.3,0.2,40.7-2.5
		c33-6.6,61.1-22.2,84-46.8C343.6,279.1,357.5,242.3,358.1,203.6z"/>
	<path class="st3" d="M375.2,112.9c-2.9,5.3-5.7,10.5-8.5,15.8c0.1,0.1,0.2,0.2,0.3,0.3c4.3-2,8.5-3.9,12.9-6
		c0.7,1.5,1.3,2.9,2.1,4.4c-7.1,3.3-14.2,6.6-21.4,10c-0.7-1.5-1.4-2.8-2.1-4.3c3-5.5,6-10.9,9-16.4c-0.1-0.1-0.2-0.2-0.2-0.3
		c-4.5,2.1-8.9,4.1-13.5,6.3c-0.7-1.5-1.3-2.8-2.1-4.4c7.1-3.3,14.2-6.6,21.4-10C373.7,109.8,374.4,111.3,375.2,112.9z"/>
	<path class="st3" d="M163.2,33.3c-1.3-8-2.6-15.6-3.8-23.4c1.4-0.2,2.6-0.5,3.9-0.7c2.4-0.4,4.8-0.8,7.2-1
		c4.4-0.3,8.1,1.1,10.5,4.9c2.5,4,2.9,8.3,0.6,12.6c-1.4,2.7-3.8,4.5-6.7,5.2C171.1,31.9,167.2,32.5,163.2,33.3z M167.3,28.1
		c1.7-0.3,3.3-0.5,4.8-0.8c5.9-1.3,6.8-7.2,4.7-11.2c-1-1.9-2.6-3.1-4.7-3.4c-2.4-0.4-4.8,0.3-7.2,0.8
		C165.7,18.4,166.5,23.1,167.3,28.1z"/>
	<path class="st3" d="M30.3,106.7c2.2-3.5,4.1-6.9,6.3-10.1c3.3-4.8,10.4-4.3,13,1c0.8,1.5,0.9,3.2,0.4,4.9
		c3.4,0.4,6.8-0.2,10.3,0.4c-0.9,1.5-1.7,2.8-2.5,4c-0.2,0.3-0.8,0.6-1.2,0.6c-2.3,0-4.6,0-6.9-0.3c-1.4-0.2-2.3,0.1-2.8,1.4
		c-0.2,0.6-0.6,1.1-1.1,1.8c2.4,1.5,4.7,2.9,7.1,4.4c-0.8,1.4-1.6,2.7-2.5,4.2C43.8,114.9,37.1,110.9,30.3,106.7z M42.2,108.2
		c1.1-1.8,2.1-3.5,3-5.2c0.8-1.6,0.3-3.2-1-4.1c-1.5-1-3.1-0.8-4.2,0.7c-1.2,1.6-2.2,3.3-3.3,5.1C38.5,105.9,40.2,107,42.2,108.2z"
		/>
	<path class="st3" d="M113.5,52c-7.2,0-12-6.2-12.1-12.4c-0.1-7.1,6.1-12.3,12.8-12.3c7.3-0.1,12,5.9,12.2,12.7
		C126.6,46.3,120.3,52,113.5,52z M121.3,40.4c0-2.4-0.9-4.5-2.5-6.2c-2-2.1-4.6-2.9-7.4-1.9c-2.7,1-4.5,2.9-4.9,5.9
		c-0.2,2.3,0.5,4.3,1.8,6.1c1.9,2.7,5,3.7,8,2.8C119.5,46.1,121.3,43.6,121.3,40.4z"/>
	<path class="st3" d="M142.8,15c6.7,0,11.8,5.5,11.9,12.5c0,7-6,12.1-12.9,12.1c-7.3,0-11.9-6-11.9-12.7
		C129.9,19.5,136.3,14.9,142.8,15z M135,26.6c0,2.3,0.6,4.1,2,5.9c3.2,4.2,9.6,2.9,11.7-0.9c1.5-2.8,1.1-5.6-0.4-8.3
		c-1.8-3.3-4.8-4.3-8.1-3.5C136.5,20.6,134.8,23.8,135,26.6z"/>
	<path class="st3" d="M90.5,58.7c-0.9-1.2-1.7-2.2-2.6-3.4c2.9-2.3,5.8-4.5,8.8-6.9c1.8,2.3,3.6,4.5,5.3,6.8c0.2,0.3,0.3,0.7,0.2,1
		c-0.7,7-7,11.5-12.4,11.9c-6.5,0.4-12.2-5.1-12.9-11.3c-0.3-2.7,0.5-5.3,2-7.6c1.4-2,3.1-3.7,5.4-4.8c2.7-1.3,5.5-1.4,8.5-0.4
		c-0.6,1.4-1.1,2.7-1.7,4.1c-0.7-0.1-1.3-0.2-1.8-0.2C84,47.8,81,53,81.9,56.6c0.9,3.5,2.9,5.9,6.5,6.7c3.4,0.8,7.2-1.5,8.5-5.2
		c0.1-0.4,0-1-0.2-1.5c-0.3-0.6-0.8-1-1.3-1.6c-0.8,0.6-1.6,1.2-2.4,1.8C92.2,57.4,91.4,58,90.5,58.7z"/>
	<path class="st3" d="M293.7,56.1c4.6-6.5,9.1-12.8,13.7-19.3c4.6,3.3,9,6.4,13.6,9.7c-0.9,1.2-1.7,2.3-2.5,3.5
		c-3.2-2.3-6.3-4.4-9.5-6.7c-1,1.3-1.9,2.6-3,4.1c3.1,2.2,6.1,4.4,9.3,6.7c-0.8,1.2-1.6,2.3-2.5,3.5c-3.1-2.2-6.1-4.3-9.4-6.6
		c-1,1.4-2,2.8-3.2,4.4c3.2,2.3,6.3,4.5,9.5,6.8c-0.8,1.2-1.6,2.3-2.5,3.5C302.7,62.6,298.3,59.4,293.7,56.1z"/>
	<path class="st3" d="M38.6,120.5c-1.5,3.6-3,7-4.5,10.5c1.7,0.8,3.2,1.4,4.9,2.2c1.6-3.6,3.1-7.1,4.7-10.7c1.3,0.6,2.5,1.1,4,1.7
		c-2.2,5.1-4.4,10.1-6.6,15.3c-7.3-3.1-14.4-6.2-21.7-9.4c2.2-5.1,4.4-10.1,6.6-15.3c1.3,0.6,2.5,1,3.9,1.6c-1.3,3.7-3,7-4.5,10.8
		c1.5,0.7,3,1.3,4.6,2c1.5-3.5,3-6.9,4.6-10.5C35.9,119.4,37.2,119.9,38.6,120.5z"/>
	<path class="st3" d="M359.2,86.4c3.1,4.7,6.1,9.2,9.2,13.9c-1.2,0.8-2.4,1.5-3.6,2.4c-2.2-3.2-4.3-6.4-6.5-9.7
		c-1.4,0.9-2.7,1.8-4.2,2.8c2.1,3.2,4.2,6.3,6.3,9.6c-1.2,0.8-2.3,1.6-3.6,2.4c-2.1-3.2-4.2-6.3-6.4-9.5c-1.6,1-3,1.9-4.5,3
		c2.2,3.3,4.2,6.4,6.4,9.7c-1.2,0.8-2.3,1.6-3.6,2.5c-3.1-4.7-6.1-9.2-9.2-13.9C346,95.1,352.5,90.8,359.2,86.4z"/>
	<path class="st3" d="M262.5,27.6c1.4,4.7,2.8,9.3,4.2,14.1c-1.9-0.3-3.5-1-5.2-1.6c-0.4-0.1-0.6-0.8-0.7-1.3
		c-0.8-2.6-1.5-5.2-2.3-7.8c-0.1-0.2-0.1-0.4-0.3-0.9c-0.5,0.3-1,0.5-1.3,0.8c-2,1.5-4.1,3-6.1,4.6c-0.7,0.6-1.4,0.8-2.3,0.4
		c-1.3-0.5-2.7-0.9-4.4-1.5c4.1-3,7.9-5.8,11.9-8.8c-1.3-4.3-2.5-8.7-3.9-13.4c1.8,0.6,3.4,1,4.9,1.7c0.4,0.2,0.8,0.8,0.9,1.4
		c0.7,2.1,1.2,4.3,1.8,6.5c0.1,0.5,0.3,1,0.6,1.7c2.1-1.6,4.1-3.1,6-4.7c1.1-1,2.1-1.3,3.5-0.7c1.1,0.5,2.2,0.8,3.6,1.3
		c-1.7,1.7-3.7,2.9-5.5,4.3C266.3,24.8,264.5,26.1,262.5,27.6z"/>
	<path class="st3" d="M297.8,37c-1.6,0-3,0-4.4,0c-0.4-1-0.6-2-1-2.9c-1.8-3.2-5.9-4.4-9.2-2.7c-2.9,1.5-4.4,4.1-4.5,7.3
		c-0.1,2.8,1.2,5,3.6,6.5c1.7,1,3.5,1.1,5.3,0.5c0.5-0.2,1-0.4,1.7-0.7c0.9,1.2,1.8,2.4,2.7,3.6c-3.6,2.9-9.3,2.8-13.8-0.9
		c-4.3-3.6-5.8-9.2-3.5-14.2c2.4-5.3,7.4-8.2,12.7-7.3C293.2,27.1,297.6,31.1,297.8,37z"/>
	<path class="st3" d="M58.7,82.1c-0.3-0.9-0.5-1.6-0.8-2.3c-0.8-2.4-1.6-4.7-2.4-7.1c-0.3-0.8-0.2-1.4,0.4-2.1c0.9-1,1.8-2,2.8-3.3
		c0.6,1.8,1.1,3.4,1.6,5c1,3.2,2,6.3,2.9,9.5c0.3,0.9,0.8,1.6,1.5,2.1c2.1,1.7,4.2,3.5,6.4,5.3C70,90.7,69,91.9,68,93.1
		c-2.1-1.8-4.2-3.4-6.2-5.2c-0.9-0.7-1.8-1.1-2.9-1.2c-4.7-0.5-9.4-1.1-14.1-1.7c-0.2,0-0.3-0.1-0.7-0.2c1-1.3,2-2.4,2.9-3.6
		c0.6-0.7,1.3-0.5,2-0.4c2.9,0.4,5.7,0.8,8.6,1.2C57.9,82.2,58.2,82.1,58.7,82.1z"/>
	<path class="st3" d="M322.6,79.8c-3.7-3.4-7.3-6.7-11-10.1c5.3-5.8,10.6-11.5,16-17.4c1.2,1.1,2.4,2.2,3.7,3.3
		c-4.4,4.8-8.6,9.4-13,14.2c2.5,2.3,4.9,4.6,7.3,6.8C324.6,77.8,323.7,78.7,322.6,79.8z"/>
	<path class="st3" d="M326.4,83.8c6-5.2,11.9-10.2,17.9-15.4c1.1,1.2,2.1,2.4,3.2,3.7c-4.9,4.2-9.6,8.3-14.6,12.6
		c2.1,2.5,4.2,5,6.5,7.6c-1.1,0.9-2.1,1.8-3.3,2.8C332.9,91.4,329.7,87.6,326.4,83.8z"/>
	<path class="st3" d="M131.9,379.7c-0.6-0.3-1-0.5-1.5-0.8c1.5-3.5,3-6.9,4.5-10.3c-3.4,2.5-6.2,5.7-9.6,8.2
		c-0.2-4.1,0.1-8.2-0.2-12.4c-1.9,3.2-3.1,6.6-4.8,10c-0.5-0.2-1-0.4-1.6-0.6c2-4.5,3.9-8.9,5.9-13.4c0.8,0.3,1.4,0.6,2.3,1
		c0,3.8,0,7.7,0,11.9c3-2.8,5.7-5.4,8.6-8.1c0.7,0.3,1.5,0.6,2.4,1C135.8,370.7,133.9,375.1,131.9,379.7z"/>
	<path class="st3" d="M63.2,332.6c-0.4-0.5-0.7-1-1.1-1.6c2.4-4.2,4.9-8.5,7.5-12.9c0.5,0.4,0.9,0.8,1.4,1.2
		c-2.1,3.5-4.2,7-6.4,10.7c0.7-0.3,1.2-0.4,1.5-0.6c2.8-1.5,5.6-3.1,8.4-4.6c0.8-0.5,1.5-0.7,2.1,0.6c-2,3.3-4,6.8-6,10.2
		c0.1,0.1,0.2,0.2,0.3,0.3c3.5-1.9,6.9-3.8,10.5-5.8c0.4,0.5,0.8,0.9,1.2,1.4c-4.5,2.4-8.9,4.8-13.5,7.2c-0.4-0.5-0.8-1-1.2-1.5
		c2-3.4,4-6.7,5.9-10c-0.1-0.1-0.2-0.2-0.2-0.3C70.2,328.8,66.8,330.7,63.2,332.6z"/>
	<path class="st3" d="M311.8,338.5c0.7-1.4,1.6-1.3,2.6-1.1c3.5,0.8,7,1.6,10.6,2.3c0.5,0.1,1,0.1,1.9,0.2c-1.5-1.7-2.7-3-3.9-4.4
		c-1.2-1.3-2.3-2.7-3.5-4.1c0.4-0.4,0.7-0.8,1.1-1.3c3.3,3.7,6.5,7.3,9.7,10.9c-0.9,1.3-1,1.4-2.3,1.1c-4-0.9-8-1.7-12-2.6
		c-0.2,0-0.5-0.1-1.1-0.1c2.7,3.1,5.1,5.9,7.7,8.8c-0.4,0.4-0.8,0.7-1.3,1.2C318.2,345.6,315,342.1,311.8,338.5z"/>
	<path class="st3" d="M302.7,363c-2.8-4.1-5.5-8-8.4-12.1c1.9-1.2,3.5-2.6,5.4-3.5c5.1-2.5,10.2,1.3,10.5,6.5
		c0.2,2.5-1.2,4.5-3.2,6.1C305.8,361,304.3,361.9,302.7,363z M303.3,360.8c1.3-1,2.6-1.8,3.6-2.8c1.5-1.3,1.9-3.1,1.4-5
		c-0.7-2.7-3.7-5.9-7.6-4.4c-1.5,0.6-2.8,1.5-4,2.7C298.9,354.4,301,357.5,303.3,360.8z"/>
	<path class="st3" d="M267.7,367.2c-0.4,0.6-0.7,1-0.8,1.2c-1.3-0.2-2.5-0.6-3.6-0.4c-4.5,0.7-6.5,5.4-3.9,9.3c2,3.2,6.2,3.6,8.9,1
		c0.9-0.9,1.3-1.8,0.6-3c-0.2-0.4-0.4-0.9-0.6-1.5c-1.5,0.6-3,1.1-4.6,1.7c-0.2-0.4-0.4-0.8-0.6-1.4c1.2-0.4,2.2-0.8,3.2-1.2
		c1-0.4,2-0.7,3.2-1.1c0.6,1.5,1.2,3,1.6,4.5c0.1,0.4,0,0.9-0.2,1.3c-1.6,2.7-3.9,4-7,4c-3-0.1-5.2-1.5-6.5-4.2
		c-2.7-5.5,1-11.2,7.1-11C265.5,366.5,266.5,366.9,267.7,367.2z"/>
	<path class="st3" d="M244.6,381.6c1.6,1.6,3.2,3.1,4.8,4.6c-1.3,0.9-1.6,0.9-2.6-0.1c-0.9-0.8-1.7-1.6-2.5-2.5
		c-1.3-1.5-2.7-1.8-4.5-0.6c0.4,1.7,0.7,3.4,1.2,5.3c-0.4,0.2-0.9,0.4-1.6,0.7c-1.1-4.9-2.3-9.6-3.4-14.5c2.4-0.5,4.6-1.1,6.8-1.5
		c1.7-0.3,3.7,1.1,4.3,2.8c0.7,1.9,0.2,3.8-1.2,4.9C245.4,381,245,381.3,244.6,381.6z M238.1,375.8c0.5,1.9,0.9,3.6,1.3,5.4
		c1.6-0.4,3-0.7,4.4-1.2c1.4-0.5,2-1.8,1.6-3.3c-0.3-1.3-1.3-2.1-2.7-2C241.2,374.8,239.7,375.1,238.1,375.8z"/>
	<path class="st3" d="M333.4,320.5c0,0.2,0,0.4,0,0.6c0,0.2-0.2,0.4-0.2,0.7c-0.2,0.1-0.3,0.2-0.5,0.2c-2.6,0.1-4.9,2-5.4,4.8
		c-0.6,3,2.1,6.5,5.4,7c3.3,0.5,5.8-1.5,6.5-4.9c0.1-0.4-0.1-0.9-0.4-1.3c-0.5-0.6-1.1-1.1-1.7-1.7c-1.2,1.3-2.4,2.4-3.6,3.6
		c-0.4-0.4-0.7-0.7-1.1-1c1.5-1.6,3-3.2,4.6-4.9c1.2,1.1,2.4,2,3.4,3.2c0.4,0.4,0.5,1.3,0.4,2c-0.4,3.1-2.8,5.8-5.9,6.6
		c-3,0.7-6.2-0.5-8-3.3c-1.6-2.3-1.9-4.8-0.7-7.4c1.3-2.6,3.4-4.2,6.4-4.4c0.1,0,0.2,0,0.4,0C333.1,320.4,333.2,320.5,333.4,320.5z"
		/>
	<path class="st3" d="M269.8,364c2-0.9,3.8-1.7,5.6-2.5c2.9-1.4,5.4,0.5,6.1,2.9c0.4,1.4,0.2,2.7-0.9,3.8c-0.3,0.3-0.5,0.6-0.8,1
		c1.9,1.2,3.8,2.4,5.6,3.5c-1.4,1.1-1.4,1.1-2.6,0.4c-1.2-0.7-2.4-1.4-3.4-2.2c-1-0.7-1.9-0.9-2.9-0.2c-0.3,0.2-0.7,0.4-1.2,0.6
		c0.8,1.8,1.5,3.5,2.3,5.3c-0.5,0.3-0.9,0.5-1.5,0.8C273.9,372.8,271.9,368.5,269.8,364z M272,364.6c0.8,1.8,1.6,3.4,2.5,5.2
		c1.4-0.7,2.8-1.2,3.9-1.9c1.4-0.8,1.7-2.3,1-3.7c-0.7-1.4-2-1.9-3.5-1.4C274.7,363.4,273.5,364,272,364.6z"/>
	<path class="st3" d="M149.2,377.4c0.8,1.7,1.4,3.1,2.3,5c0.9-1,1.6-1.9,2.4-2.8c0.4,0.3,0.7,0.5,1.2,0.8c-1,1.1-1.9,2-2.9,3.2
		c0.5,0.9,1,2,1.6,3c-1.7,0.3-2.2-1.1-3-2c-1,0.2-1.9,0.4-2.8,0.5c-2.3,0.1-4.4-1.1-5-2.9c-0.6-1.7,0.2-3.8,1.8-4.7
		c0.7-0.4,1.5-0.7,2.5-1.1c0-0.4,0-1-0.1-1.6c-0.4-2.9,2-4.9,4.8-4c1.4,0.5,2.3,1.5,2.3,2.6c0,1.3-0.6,2.4-1.9,3
		C151.4,376.7,150.4,377,149.2,377.4z M150,383c-0.8-1.7-1.6-3.5-2.3-5.2c-1.7,0.2-2.8,1-3.1,2.3c-0.2,1.1-0.1,2.2,0.9,3
		C146.9,384.1,148.2,384.1,150,383z M149.2,376.1c0.7-0.2,1.3-0.4,2-0.5c0.2,0,0.3-0.1,0.5-0.2c0.8-0.5,1.2-1.4,1-2.2
		c-0.2-0.9-0.9-1.2-1.7-1.3c-0.9-0.1-1.7,0.5-2.1,1.3C148.5,374.1,148.4,375,149.2,376.1z"/>
	<path class="st3" d="M115.9,355.6c0.7,0.4,1.3,0.7,2,1.1c-0.7,5.2-1.3,10.3-2,15.5c-1.8-0.5-1.8-0.5-1.6-2.2
		c0.1-0.3,0.1-0.7,0.1-1.1c0-0.3,0-0.6,0.1-1c-2.1-1.2-4.2-2.4-6.4-3.6c-0.9,0.7-1.8,1.4-2.8,2.1c-0.5-0.2-1-0.5-1.8-0.9
		C107.8,362.2,111.9,358.9,115.9,355.6z M114.6,366.2c0.7-1.8,1.3-6.9,1-8.2c-2.1,1.7-4.1,3.4-6.3,5.2
		C111.2,364.3,112.9,365.2,114.6,366.2z"/>
	<path class="st3" d="M287.8,371.4c-0.7-5.1-1.4-10.1-2.1-15.3c0.6-0.4,1.2-0.7,1.9-1.2c4.1,3.2,8.2,6.5,12.3,9.7
		c-0.2,0.3-0.3,0.4-0.5,0.5c-0.4,0.2-0.7,0.4-1.1,0.6c-0.9-0.7-1.8-1.4-2.8-2.1c-1.9,1.1-3.7,2.1-5.5,3.1c-0.7,0.4-0.9,0.9-0.8,1.6
		c0.1,0.4,0.2,0.8,0.2,1.2C289.5,370.9,289.5,370.9,287.8,371.4z M288.7,365.6c2-1.2,3.8-2,5.5-3.2c-2.2-1.8-4.3-3.4-6.3-5
		c-0.1,0.1-0.2,0.1-0.3,0.2C287.9,360.1,288.3,362.7,288.7,365.6z"/>
	<path class="st3" d="M227.3,389.5c2.6-0.4,5-0.7,7.7-1.1c0.1,0.5,0.2,0.9,0.3,1.5c-3.2,0.5-6.2,1-9.4,1.5
		c-0.8-4.8-1.5-9.5-2.3-14.4c3.1-0.8,6.2-1,9.3-1.6c0.1,0.5,0.2,0.9,0.4,1.5c-2.5,0.4-4.9,0.8-7.3,1.2c-0.3,1.4-0.3,1.9,0.5,4.8
		c2.4-0.4,4.8-0.7,7.4-1.1c0.1,0.5,0.2,0.9,0.3,1.4c-2.5,0.4-5,0.8-7.6,1.3C226.8,386.1,227.1,387.7,227.3,389.5z"/>
	<path class="st3" d="M189.6,377.7c0.6,0.1,1,0.2,1.6,0.3c-0.3,3.2-0.6,6.3-1,9.4c-0.4,3.9-3.9,5.4-6.9,4.8c-1.9-0.4-3.6-1-4.3-2.9
		c-0.3-0.9-0.5-1.8-0.6-2.7c0-1.2,0.1-2.4,0.2-3.5c0.2-2,0.4-4,0.6-6c0.5,0,1,0,1.7,0c-0.2,2.1-0.4,4-0.5,6
		c-0.1,1.3-0.2,2.6-0.2,3.9c0,2.2,1.5,3.6,3.6,3.8c2.4,0.2,4-0.8,4.6-3c0.2-0.9,0.3-1.9,0.4-2.8c0.2-2.1,0.3-4.1,0.5-6.2
		C189.3,378.4,189.4,378.1,189.6,377.7z"/>
	<path class="st3" d="M176.5,376.5c0.2,1-0.1,1.5-1,1.4c-1.2-0.2-2.3-0.4-3.7-0.6c-0.8,4.2-1.5,8.5-2.3,12.8c-0.5,0-1,0-1.7-0.1
		c0.7-4.4,1.5-8.6,2.2-13c-1.6-0.3-3-0.6-4.4-0.9c-0.1-0.3-0.2-0.4-0.1-0.5c0.1-0.3,0.2-0.5,0.4-1
		C169.4,375.2,173,375.8,176.5,376.5z"/>
	<path class="st3" d="M88.8,336.7c0.5,0.5,0.9,0.8,1.3,1.1c-2.7,3.4-5.4,6.7-8.2,10.2c1.7,1.4,3.4,2.9,5.2,4.4
		c-0.3,0.4-0.5,0.7-0.9,1.2c-2.2-1.8-4.4-3.5-6.7-5.4C82.6,344.3,85.6,340.6,88.8,336.7z"/>
	<path class="st3" d="M89.2,355.8c2.9-4,5.6-7.9,8.4-11.9c0.5,0.3,0.9,0.5,1.5,0.9c-2.6,3.6-5,7.2-7.6,10.7c1.9,1.4,3.7,2.7,5.5,4
		c-0.3,0.4-0.6,0.8-0.9,1.3C93.8,359.1,91.5,357.5,89.2,355.8z"/>
	<path class="st3" d="M200,22.7c0-1.2,0-2.3,0-3.6c2.7-0.2,5.4-0.1,8.2,0.1c0.3,1.2,0.2,2.3,0,3.5C205.5,22.7,202.9,22.7,200,22.7z"
		/>
	<path class="st3" d="M316.4,353.3c-3.1-3.9-6-7.7-9.1-11.6c0.5-0.4,0.9-0.7,1.4-1.1c3,3.8,6,7.6,9,11.4
		C317.2,352.5,316.9,352.9,316.4,353.3z"/>
	<path class="st3" d="M84.4,332.8c0.5,0.4,0.9,0.7,1.4,1.1c-3.3,3.6-6.4,7.2-9.7,10.8c-0.4-0.3-0.9-0.6-1.4-1
		C77.9,340,81.1,336.5,84.4,332.8z"/>
	<path class="st3" d="M101,363.8c-0.6-0.4-0.9-0.6-1.5-0.9c2.6-4.1,5.2-8.2,7.9-12.3c0.5,0.3,0.9,0.6,1.5,0.9
		C106.3,355.5,103.7,359.6,101,363.8z"/>
	<path class="st3" d="M222.2,147.4c0,20.1,0,39.9,0,60c4.3,0,8.4,0,12.7,0c0,6.3,0,12.3,0,18.6c-4.2,0-8.3,0-12.6,0
		c0,6.9,0,13.5,0,20.1c-1.4,0.5-18.9,0.6-21.2,0.2c0-6.6,0-13.3,0-20.2c-2.4,0-4.6,0-6.8,0c-2.3,0-4.5,0-6.8,0c-2.3,0-4.5,0-6.8,0
		c-2.2,0-4.4,0-6.6,0c-2.3,0-4.5,0-6.8,0c-2.3,0-4.5,0-6.8,0c-2.2,0-4.5,0-6.8,0c0-0.7-0.1-1.2-0.1-1.8c0-4.4,0-8.9,0-13.3
		c0-0.9,0.2-1.7,0.7-2.5c5.4-8.5,10.8-17,16.2-25.5c7-11,14-22,20.9-33c1.1-1.8,2.3-2.6,4.5-2.5c8,0.2,16,0.1,24,0.1
		C220.6,147.4,221.2,147.4,222.2,147.4z M200.8,207.3c0.1-0.4,0.1-0.7,0.1-0.9c0-13,0-25.9-0.1-38.9c0,0-0.1-0.1-0.1-0.1
		c0,0-0.1,0-0.2,0c-4.4,6-25.2,38.5-25.5,40C183.7,207.3,192.2,207.3,200.8,207.3z"/>
</g>
</svg>
