<?xml version="1.0" encoding="utf-8"?>
<!-- Generator: Adobe Illustrator 24.1.3, SVG Export Plug-In . SVG Version: 6.00 Build 0)  -->
<svg version="1.1" id="Layer_1" xmlns="http://www.w3.org/2000/svg" xmlns:xlink="http://www.w3.org/1999/xlink" x="0px" y="0px"
	 viewBox="0 0 400 400" style="enable-background:new 0 0 400 400;" xml:space="preserve">
<style type="text/css">
	.st0{fill:#EFEFEF;}
	.st1{display:none;}
	.st2{display:inline;fill:#222222;}
	.st3{fill:#222222;}
</style>
<circle class="st0" cx="200" cy="200" r="154"/>
<g class="st1">
	<path class="st2" d="M354,205.7c-0.1,1.6-0.2,3.1-0.3,4.7c-0.8,13.6-3.2,26.9-7.6,39.7c-14.4,42-41.6,72.7-81.7,91.9
		c-12.9,6.2-26.6,10.1-40.7,12.2c-10,1.5-20,2-30,1.4c-31.8-1.8-60.3-12.4-85.3-32c-27.7-21.8-45.8-49.9-54.7-84
		c-2.5-9.6-3.9-19.3-4.5-29.2c-0.6-9.2-0.3-18.4,0.8-27.6c3.4-28.5,13.7-54.3,31.3-77.1c20-25.8,45.6-43.6,76.9-53.2
		c10.3-3.1,20.9-5.1,31.6-5.9c46.3-3.5,91.2,14.1,122.7,48.2c18.8,20.4,31.3,44.1,37.6,71.1c2.2,9.6,3.5,19.3,3.8,29.1
		c0,0.4,0.1,0.8,0.1,1.2C354,199.4,354,202.6,354,205.7z M350.6,199.7c-0.2-3.4-0.4-8.2-0.8-12.9c-0.7-9.1-2.4-18-4.8-26.8
		c-12.1-43.7-42.8-78.9-81.9-96.9c-17.5-8-35.9-12.5-55.1-13.3c-13.4-0.6-26.7,0.5-39.8,3.6c-31.2,7.4-57.4,23.2-78.4,47.4
		c-23.9,27.5-36.1,59.7-37.3,96.1c-0.5,14.9,1.2,29.7,5.2,44.1c8.4,30.8,24.8,56.6,49.3,77c25.6,21.3,55.1,32.7,88.4,34.2
		c13.9,0.6,27.5-0.7,41-4c31.1-7.7,57.1-23.8,77.9-48.2C338.3,271.5,350.1,238.3,350.6,199.7z"/>
	<path class="st2" d="M46,100.5c0.7-1,1.5-2,2.2-2.9c1.8-2.5,3.5-5.2,5.6-7.5c2.1-2.5,5.7-2.8,8.2-0.5c1.6,1.5,2,3.2,1.6,5.2
		c0.9-0.3,1.8-0.5,2.7-0.8c1.5-0.5,2.9,0.2,4,1c1.3,0.9,2.2,2.1,2.5,3.8c0.3,1.7-0.2,3.2-1.1,4.5c-2.3,3.4-4.7,6.7-7.1,10
		c-0.3,0.4-0.5,0.3-0.8,0.1c-3-2.2-6-4.4-9.1-6.5c-2.8-2-5.6-4.1-8.5-6.1c-0.1-0.1-0.2,0-0.3-0.1C46,100.7,46,100.6,46,100.5z
		 M63.8,107.5c0.5-0.6,0.9-1.2,1.3-1.7c0.9-1.4,1.9-2.7,2.8-4.1c0.6-1.1,0.3-2.5-0.7-3.1c-1.1-0.7-2.3-1.1-3.4,0.2
		c-1.5,1.8-2.8,3.7-4.3,5.6C61,105.4,62.4,106.5,63.8,107.5z M56.2,101.9c0.1-0.1,0.3-0.2,0.4-0.4c1-1.4,2.1-2.8,3.1-4.3
		c0.4-0.6,0.7-1.3,0.7-2c-0.1-1-0.7-1.8-1.7-2.2c-0.9-0.3-2,0-2.7,0.9c-1.2,1.5-2.3,3.1-3.4,4.7c-0.2,0.3-0.2,0.6,0.1,0.8
		C53.8,100.3,55,101.1,56.2,101.9z"/>
	<path class="st2" d="M195.3,15.9c1,0.2,2,0.4,2.9,0.7c4.2,1.4,6.7,4.4,7.5,8.8c0.6,3.1,0.1,6.1-1.6,8.8c-1.8,2.8-4.4,4.3-7.6,4.8
		c-3.4,0.6-6.6,0.1-9.4-2c-2.5-1.8-3.9-4.3-4.4-7.3c-0.4-2.4-0.2-4.8,0.8-7.1c1.2-2.7,3.1-4.6,5.8-5.7c1.2-0.5,2.5-0.6,3.8-0.9
		c0.1,0,0.2-0.1,0.2-0.2C193.9,15.9,194.6,15.9,195.3,15.9z M201.1,27.5c0-0.3-0.1-0.8-0.2-1.3c-0.5-4.2-4.5-6.9-8.9-5.6
		c-2.7,0.8-4.1,2.9-4.5,5.7c-0.4,3.1,0.3,5.6,2.8,7.6c1.9,1.5,5.4,1.6,7.4,0.3C200,32.7,201,30.4,201.1,27.5z"/>
	<path class="st2" d="M199.8,384.1c-1.1-0.5-2.1-0.9-3.2-1.4c-0.1,0-0.2-0.1-0.3-0.2c-0.8-0.7-0.8-0.7-0.1-1.5
		c0.1-0.1,0.2-0.3,0.3-0.4c0.7,0.5,1.4,1.1,2.2,1.4c1.4,0.6,2.9,0.9,4.4,0.1c0.8-0.4,1.3-1,1.3-2c0-0.9-0.6-1.5-1.3-1.8
		c-1.4-0.6-2.8-1-4.2-1.5c-1.3-0.5-2.4-1.2-2.6-2.7c-0.3-2,0.6-3.4,2.5-4.1c2.4-0.9,5.7-0.3,7.3,1.7c-0.4,0.4-0.7,0.7-1.1,1.2
		c-0.9-1.1-2.1-1.5-3.5-1.7c-1-0.2-1.9,0-2.7,0.6c-1,0.8-1.3,2.2,0.2,3.1c0.8,0.5,1.8,0.7,2.7,1c0.7,0.2,1.4,0.4,2,0.7
		c2,0.8,2.7,2.5,2.5,3.8c-0.3,1.9-1,2.9-3.3,3.6c-0.1,0-0.3,0.1-0.4,0.2C201.6,384.1,200.7,384.1,199.8,384.1z"/>
	<path class="st2" d="M339.4,100.3c3.8-3,7.4-5.8,11.1-8.7c1,1.3,2,2.5,2.9,3.8c-5.9,4.6-11.7,9.2-17.7,13.8
		c-0.4-0.4-0.8-0.9-1.1-1.3c-0.3-0.4-0.7-0.9-1-1.3c-0.5-0.6-0.8-1.1-0.5-2c1.6-5.4,3.1-10.8,4.6-16.2c0,0,0-0.1-0.1-0.2
		c-3.8,3-7.6,6-11.4,8.9c-1-1.3-2-2.5-2.9-3.7c5.9-4.6,11.8-9.2,17.7-13.9c0.9,1.2,1.8,2.3,2.7,3.5c0.2,0.2,0.3,0.6,0.2,0.8
		c-1.4,5.3-2.9,10.5-4.4,15.7C339.5,99.7,339.5,99.9,339.4,100.3z"/>
	<path class="st2" d="M178.7,40.1c-1.4,0.3-2.7,0.4-4,0.9c-1.6,0.6-2.1-0.6-2.8-1.4c-1.2-1.4-2.5-2.7-3.5-4.2
		c-0.8-1.3-1.8-1.1-2.9-0.8c-0.5,0.1-1,0.2-1.6,0.4c0.5,2.6,1.1,5.2,1.6,7.8c-1.4,0.3-2.8,0.6-4.2,0.9c-0.2,0-0.5-0.3-0.6-0.5
		c-0.9-4.6-1.8-9.1-2.7-13.7c-0.5-2.4-1-4.8-1.5-7.2c0-0.2,0-0.3,0-0.6c2.7-0.5,5.3-1.1,8-1.6c1.2-0.2,2.3-0.6,3.5-0.6
		c2.3-0.1,4.4,0.5,6,2.4c1.7,2,2.5,5.8,1,8.2c-0.6,0.9-1.4,1.7-2.3,2.4c-0.5,0.4-0.5,0.6-0.1,1c1.3,1.4,2.6,2.8,3.9,4.3
		C177.1,38.4,177.8,39.2,178.7,40.1z M161.9,24.8c0.4,2,0.8,4,1.2,6c0.5-0.1,1.1-0.2,1.6-0.3c1.5-0.4,3.1-0.7,4.5-1.2
		c1.5-0.5,2-2.1,1.4-3.7c-0.4-1.2-2.2-2.1-3.5-1.8C165.4,24.1,163.7,24.4,161.9,24.8z"/>
	<path class="st2" d="M319,85c-6.4,0.1-12.3-5.8-12.1-12.1c0.2-6.2,5.4-11.7,11.8-11.6c6.4,0.1,11.9,5.5,12,11.9
		C330.7,79.5,325.2,84.9,319,85z M311.6,73.8c-0.3,3.5,3.3,6.8,6.8,6.7c3.3-0.1,6.6-3,7.4-6.5c1-4.2-2.8-8.8-7.8-8
		C314.8,66.5,311.4,70.1,311.6,73.8z"/>
	<path class="st2" d="M240.4,29.6c3.5,0.9,7,1.7,10.6,2.6c-0.3,1.2-0.6,2.4-0.9,3.6c-0.1,0.5-0.5,0.4-0.8,0.3
		c-3.3-0.8-6.6-1.6-9.9-2.4c-0.4,1.7-0.8,3.3-1.2,5c3.4,0.8,6.7,1.6,10.1,2.4c0.5,0.1,0.7,0.2,0.5,0.8c-0.3,1.1-0.5,2.2-0.8,3.4
		c-1.4-0.3-2.7-0.6-4.1-1c-3.6-0.9-7.2-1.8-10.8-2.6c-0.4-0.1-0.5-0.2-0.4-0.7c0.9-3.6,1.8-7.3,2.7-10.9c0.8-3.5,1.7-7,2.5-10.4
		c5,1.2,9.9,2.4,14.9,3.6c0.5,0.1,0.6,0.3,0.5,0.8c-0.3,1-0.5,1.9-0.7,2.9c-0.1,0.5-0.2,0.6-0.7,0.4c-3.2-0.8-6.4-1.5-9.6-2.3
		c-0.6-0.2-0.8,0-0.9,0.6C241.1,27,240.7,28.3,240.4,29.6z"/>
	<path class="st2" d="M79,88.2c2.7-2.8,5.3-5.5,8-8.4c0.9,1.1,1.7,2.1,2.7,3.2c-3.4,3.6-7,7.4-10.7,11.3c-0.1-0.1-0.2-0.1-0.3-0.2
		c-1.7-1.6-3.4-3.3-5.1-4.9c-2.6-2.5-5.1-4.9-7.7-7.4c-1.1-1-2.1-2-3.3-3c3.7-3.9,7.3-7.7,11-11.5c1,0.9,2.1,1.9,3.1,2.8
		c-2.6,2.7-5.1,5.4-7.4,7.7c1,1.3,2,2.5,3,3.7c2.7-2.8,5.1-5.4,7.6-7.9c1,0.9,2,1.9,3.1,2.8c-2.5,2.7-5,5.3-7.5,7.9
		C76.7,85.7,77.8,86.9,79,88.2z"/>
	<path class="st2" d="M90.8,73.3c2.1,0.2,4.1-0.2,5.9-1.3c1-0.6,1.9-1.5,2.7-2.4c0.6-0.6,0.8-1.5,0.5-2.4c-0.4-0.9-1.2-1.4-2.2-1.1
		c-1.2,0.4-2.3,0.9-3.5,1.3c-1.7,0.6-3.4,1.4-5.2,1.9c-3.4,0.8-6.2-1.7-6.9-4.6c-0.6-2.7,0.4-4.9,2.2-6.9c1.8-1.9,3.9-3.2,6.4-3.9
		c1.2-0.3,2.4-0.4,3.8-0.6c0,1.6,0,3.1,0,4.5c-2.9,0.1-5.5,0.9-7.5,3.3c-1.1,1.3-0.6,3.1,0.8,3.3c0.6,0.1,1.3-0.2,1.9-0.4
		c1.8-0.7,3.5-1.5,5.3-2.2c2-0.8,4-1.1,6-0.1c2.4,1.3,4.2,4.7,3.3,7.7c-0.8,2.3-2.3,4-4.2,5.5c-1.6,1.3-3.5,2.3-5.5,2.7
		c-1.1,0.2-2.2,0.2-3.3,0.3c-0.2,0-0.5-0.2-0.5-0.4C90.8,76,90.8,74.6,90.8,73.3z"/>
	<path class="st2" d="M131.8,29.6c2.9-1,5.7-2,8.5-3c1.6-0.6,3.1-1.2,4.8-1c2,0.2,3.7,1,5,2.6c1.1,1.5,1.7,3.1,1.6,4.9
		c-0.1,2.7-1.3,4.7-3.7,5.9c-2.2,1.1-4.5,1.8-6.9,2.7c0.9,2.4,1.7,4.9,2.6,7.5c-1.5,0.5-3,1.1-4.5,1.6
		C136.8,43.8,134.3,36.7,131.8,29.6z M139.8,37.8c1.9-0.7,3.8-1.4,5.6-2.2c1.3-0.6,1.9-2.3,1.3-3.7c-0.5-1.2-1.6-2.2-3.2-1.8
		c-1.8,0.5-3.6,1.1-5.4,1.7c-0.1,0-0.3,0.3-0.2,0.4C138.4,34.1,139.1,35.9,139.8,37.8z"/>
	<path class="st2" d="M278.7,38.4c-1.5,0.1-3,0.2-4.4,0.4c-0.6-2.7-2-4.6-4.7-5.3c-2.2-0.6-4.1-0.2-5.9,1.2c-2.6,2-3.8,5.6-2.7,8.7
		c1.2,3.5,5.2,5.6,8.8,4c0.5-0.2,0.9-0.6,1.4-0.9c1,1.1,2,2.2,3,3.3c-3.8,3.1-8.6,3.5-13.5,0.1c-4.4-3.1-6-8-4.2-13.3
		c0.9-2.5,2.4-4.6,4.7-6c1.9-1.2,4-1.9,6.2-1.7C274.5,29.4,277.9,33.2,278.7,38.4z"/>
	<path class="st2" d="M218.6,21.2c-2.2-0.2-4.3-0.5-6.5-0.7c0.1-1.3,0.3-2.7,0.4-4.2c5.9,0.6,11.8,1.3,17.8,1.9
		c-0.1,0.8-0.1,1.6-0.2,2.4c0,0.3-0.1,0.7-0.1,1c0.1,0.8-0.3,0.9-0.9,0.8c-1.7-0.2-3.5-0.5-5.2-0.6c-0.2,0-0.6,0.4-0.6,0.6
		c-0.2,1.2-0.2,2.4-0.4,3.6c-0.2,1.9-0.4,3.8-0.6,5.7c-0.1,1.3-0.2,2.5-0.4,3.8c-0.2,1.5-0.3,3-0.5,4.4c-1.6-0.2-3.1-0.3-4.8-0.5
		C217.3,33.3,218,27.3,218.6,21.2z"/>
	<path class="st2" d="M114,38c0.7,1.2,1.4,2.4,2.1,3.6c-1.7,1-3.3,2-4.9,3c-0.5,0.3-0.6,0.4-0.3,1c3,5,6,10,9.1,15.1
		c-1.3,0.8-2.7,1.6-4.1,2.5c-1.2-2-2.3-3.9-3.5-5.8c-1.9-3.1-3.7-6.2-5.6-9.3c-0.2-0.4-0.5-0.5-0.9-0.3c-1.7,1-3.4,2.1-5,3.1
		c-0.7-1.2-1.5-2.4-2.2-3.6C103.7,44.2,108.8,41.1,114,38z"/>
	<path class="st2" d="M284.9,61.7c-1.4-0.8-2.8-1.6-4.1-2.4c3.1-5.3,6.1-10.5,9.2-15.8c-1.9-1.1-3.8-2.2-5.7-3.3
		c0.7-1.2,1.4-2.4,2.1-3.6c5.2,3,10.3,6,15.5,9c-0.7,1.2-1.4,2.4-2.1,3.6c-1.9-1.1-3.7-2.1-5.7-3.3C291,51.2,288,56.5,284.9,61.7z"
		/>
	<path class="st2" d="M307.5,49.7c1.3,0.9,2.6,1.9,3.9,2.8c-2.9,4.1-5.8,8.1-8.7,12.2c-1.3,1.8-2.6,3.7-4,5.5
		c-0.3,0.4-0.6,0.5-1.1,0.1c-0.9-0.7-1.8-1.4-2.7-2c-0.4-0.3-0.4-0.5-0.1-0.9c1.3-1.8,2.6-3.6,3.9-5.4c2-2.7,3.9-5.5,5.9-8.2
		C305.5,52.4,306.5,51.1,307.5,49.7z"/>
	<path class="st2" d="M214.4,369.4c2.3-0.2,4.5-0.5,6.8-0.6c1.8-0.1,3.1,0.8,3.5,2.5c0.4,1.3,0.1,3.2-1.7,3.9c0,0,0,0.1-0.1,0.2
		c1.4,0.3,2.4,1.2,2.8,2.6c0.5,2.4-0.4,4-2.7,4.5c-2.2,0.5-4.5,0.6-6.7,0.9c-0.2,0-0.5-0.4-0.6-0.6c-0.3-2.3-0.5-4.6-0.7-7
		c-0.2-1.8-0.4-3.6-0.7-5.4C214.4,370.1,214.4,369.8,214.4,369.4z M217.4,381.6c1.5-0.1,2.8-0.3,4.2-0.4c1.4-0.2,2.5-0.9,2.4-2.7
		c-0.1-1.3-1.2-2.3-2.5-2.2c-1.5,0.1-3.1,0.3-4.7,0.5C217,378.5,217.2,380,217.4,381.6z M216.2,370.8c0.2,1.6,0.4,3,0.5,4.5
		c1.5-0.2,2.9-0.3,4.3-0.5c1.2-0.1,2.2-1.2,2.1-2.3c-0.1-1.4-1.3-2.4-2.6-2.3C219.1,370.4,217.7,370.6,216.2,370.8z"/>
	<path class="st2" d="M180.4,374.1c0,2.9-1,5.1-3.2,6.6c-4,2.8-10.3,0.2-10.7-5c-0.2-2.6,0.4-4.8,2.2-6.6c1.9-1.9,4.2-2.1,6.6-1.5
		C178.4,368.3,180.6,371,180.4,374.1z M173.5,368.8c-1.3-0.1-2.5,0.4-3.3,1.2c-1.7,1.8-2.4,4-1.7,6.4c0.9,3.5,5,4.9,7.7,2.9
		c2.1-1.5,2.6-3.7,2.4-6.1C178.3,370.5,176,368.8,173.5,368.8z"/>
	<path class="st2" d="M250.7,377.1c-3,0.8-6,1.5-8.9,2.3c-1.1-4.3-2.2-8.7-3.3-13c-0.1-0.5,0-0.6,0.4-0.7c2.8-0.7,5.5-1.4,8.3-2.1
		c0.1,0.5,0.2,1,0.3,1.5c-2.4,0.6-4.8,1.2-7.2,1.9c0.4,1.3,0.7,2.6,1,3.9c0.1,0.4,0.3,0.5,0.7,0.4c2.2-0.6,4.3-1.1,6.5-1.7
		c0.1,0.5,0.3,1,0.4,1.5c-2.4,0.6-4.7,1.2-7.1,1.8c0.4,1.6,0.8,3.1,1.2,4.7c2.4-0.6,4.7-1.2,7.2-1.8
		C250.4,376.1,250.5,376.5,250.7,377.1z"/>
	<path class="st2" d="M182.3,381c0.3-0.4,0.7-0.8,1-1.3c1.4,1.9,4.1,2.8,6.1,2.2c0.8-0.3,1.5-0.8,1.7-1.7c0.2-1-0.1-1.8-1.1-2.2
		c-1.2-0.5-2.4-1-3.6-1.6c-0.7-0.4-1.5-0.8-2.1-1.3c-1.7-1.4-1.1-4.2,0.8-5.3c2.3-1.4,6.4-0.6,8.1,1.6c-0.4,0.4-0.7,0.7-1.1,1.1
		c-1.3-1.6-3.1-2.1-5.1-1.8c-1,0.1-1.8,0.9-1.9,1.8c-0.1,0.8,0.6,1.6,1.6,2.1c1.5,0.6,3,1.2,4.5,2c1.4,0.7,1.8,2,1.7,3.5
		c-0.2,1.3-0.9,2.4-2.1,3C188.2,384.3,184,383.4,182.3,381z"/>
	<path class="st2" d="M156.5,363.6c2.1,0.6,4,1,5.8,1.6c1.9,0.6,3.2,2.3,3,4c-0.4,2.7-1.5,4-4,4.2c-1.1,0.1-2.3-0.4-3.5-0.7
		c-1.8-0.4-1.8-0.5-2.3,1.2c-0.4,1.2-0.6,2.5-1,3.7c-0.5-0.1-1.1-0.2-1.7-0.4C154.1,372.7,155.3,368.2,156.5,363.6z M156.4,370.7
		c1.3,0.3,2.5,0.5,3.6,0.9c1.4,0.4,2.8-0.3,3.3-1.7c0.5-1.5-0.2-3-1.8-3.4c-1.2-0.4-2.4-0.6-3.8-1
		C157.3,367.2,156.9,368.9,156.4,370.7z"/>
	<path class="st2" d="M231.6,379.7c1.5-0.3,2.9-0.5,4.4-0.8c0.3-0.1,0.7-0.1,1-0.2c1.1-0.3,1.4,0,1.3,1c0,0.1-0.2,0.3-0.4,0.4
		c-2.5,0.5-5,0.9-7.5,1.4c-0.1,0-0.2,0-0.3,0c-0.8-4.5-1.7-9.1-2.5-13.7c0.6-0.1,1.1-0.2,1.7-0.3
		C230.1,371.5,230.8,375.6,231.6,379.7z"/>
	<path class="st2" d="M209.1,369.6c0.6,0,1.1,0,1.7,0c0.1,1,0.2,2,0.2,3c0.1,1.8,0.1,3.5,0.2,5.3c0.1,1.7,0.2,3.3,0.3,5
		c0,0.2,0,0.4,0,0.6c-0.6,0-1,0-1.7,0C209.5,378.9,209.3,374.3,209.1,369.6z"/>
	<path class="st2" d="M133.1,123.9c5.5,4.4,11.4,7.5,17.8,9.8c7.3,2.6,14.8,3.6,22.6,2.7c10.2-1.3,19.1-5.4,27.2-11.7
		c0.2-0.1,0.4-0.3,0.5-0.4c0.3-0.4,0.5-0.3,0.9,0c4.6,3.9,9.8,6.8,15.3,9c3.5,1.4,7.1,2.4,10.8,3s7.5,0.7,11.2,0.3
		c10.3-1,19.5-4.7,28-10.6c0.9-0.6,1.7-1.3,2.7-2c0,0.4,0.1,0.6,0.1,0.9c0,31.9,0,63.8-0.1,95.7c0,4.7-0.6,9.3-1.5,13.9
		c-2.2,11.3-7.6,20.9-15,29.6c-9.9,11.6-21.9,20.5-35.8,26.9c-5,2.3-10.2,4.3-15.6,5.7c-0.4,0.1-1,0.1-1.4,0c-5-1.3-9.8-3-14.4-5.1
		c-14.3-6.4-26.7-15.5-36.9-27.5c-5.4-6.3-9.8-13.2-12.6-21.1c-1.4-3.9-2.3-7.9-2.9-11.9c-1-6.8-1-13.7-1-20.6c0-28.5,0-57,0-85.4
		C133,124.7,133.1,124.4,133.1,123.9z"/>
</g>
<g>
	<path class="st3" d="M196.8,15.1c0.1,2.5,0.2,4.9,0.3,7.4c0.1,2.2,0.3,4.4,0.4,6.6c0.3,5.3-2.8,8.7-7.8,9.5c-2.4,0.4-4.7,0.4-7-0.5
		c-3.4-1.3-5.1-4-5.4-7.5c-0.3-2.6-0.3-5.3-0.5-7.9c-0.1-1.6-0.2-3.3-0.3-4.9c0-0.3,0-0.7,0.1-1.2c1.4-0.1,2.9-0.2,4.4-0.3
		c0.1,0.4,0.2,0.7,0.3,1.1c0.2,3.9,0.4,7.8,0.7,11.6c0.1,0.8,0.2,1.6,0.5,2.3c0.9,2.7,2.7,3.4,5.1,3.3c3.7-0.1,5.6-2.7,5.3-6.4
		c-0.3-3.2-0.5-6.4-0.7-9.6c-0.1-1-0.1-2-0.2-3.1c1.1-0.1,2-0.1,2.8-0.2c0.5-0.1,1-0.2,1.4-0.3C196.3,15.1,196.5,15.1,196.8,15.1z"
		/>
	<path class="st3" d="M366.6,122.4c-0.8,0.3-1.7,0.6-2.5,0.9c-3.4,1.5-6.8,3-10.3,4.4c-0.3,0.1-0.6,0.2-1,0.4
		c-0.5-1.1-1-2.1-1.6-3.3c4.4-2.4,8.7-4.8,13.2-7.3c0.7,1.4,1.4,2.8,2.1,4.1C366.6,121.9,366.6,122.2,366.6,122.4z"/>
	<path class="st3" d="M210.4,384.9c-0.4-0.2-0.7-0.4-1.1-0.6c-3.9-1.3-5.2-5.9-4.4-8.8c1.1-3.8,4.7-5.7,8.2-5.1
		c1.4,0.2,2.6,0.9,3.6,2.2c-0.4,0.3-0.7,0.5-1,0.8c-3.5-2.3-6.2-2-8.2,0.6c-1.8,2.3-1.3,6.1,0.9,8c2.3,2,5.1,1.7,7.7-0.8
		c0.4,0.1,0.8,0.3,1.2,0.4c0,0.2,0,0.4-0.1,0.5c-0.8,1.2-1.9,1.9-3.2,2.4c-0.3,0.1-0.6,0.3-0.9,0.4
		C212.2,384.9,211.3,384.9,210.4,384.9z"/>
	<path class="st3" d="M189,384.9c0-1.6,0-3.3,0.2-4.9c0.1-0.8-0.1-1.3-0.4-1.9c-1.5-2.4-2.9-4.8-4.4-7.2c1.6-0.4,1.6-0.4,2.3,0.7
		c0.8,1.3,1.6,2.7,2.4,4.1c0.3,0.5,0.7,1,1.1,1.7c1.4-1.8,2.7-3.5,3.9-5.3c0.6-0.9,1.3-1.3,2.5-0.9c-0.2,0.4-0.4,0.8-0.7,1.1
		c-1.2,1.5-2.2,3.1-3.5,4.6c-1.3,1.4-1.7,3.1-1.7,4.9c0,1,0,2,0,3C190.1,384.9,189.5,384.9,189,384.9z"/>
	<path class="st3" d="M45,201.3C45,147,72.8,96.8,118.6,68.3c17-10.6,35.5-17.4,55.2-20.7c10.5-1.7,21-2.4,31.6-1.9
		c51.1,2.5,95,29.6,121.2,70.1c11.7,18.1,19.3,37.8,22.9,59c2,12.1,2.7,24.3,1.9,36.5c-3.5,53.6-33.4,99.5-76.7,124.9
		c-16,9.4-33.3,15.6-51.6,18.6c-11.5,1.9-23.2,2.6-34.9,1.7c-37.7-2.8-70.1-17.5-97-43.9c-22.6-22.3-36.9-49.3-43.3-80.4
		C46,222.1,45.1,211.7,45,201.3z M201.7,49c-10.4,0.1-17.6,0.6-24.8,1.6c-15.5,2.2-30.2,6.9-44.2,13.8
		c-49.1,24.3-81.2,73.8-84,128.7c-0.7,13.7,0.2,27.4,3.3,40.8c9.2,40.7,31.1,72.6,65.9,95.7c21.9,14.5,46.3,22.2,72.5,23.7
		c7.5,0.4,15,0.3,22.6-0.5c9-0.9,17.8-2.5,26.5-5c27.8-8.1,51.3-23,70.4-44.7c23.7-26.8,36.3-58.2,38.3-93.8
		c0.7-12.8-0.2-25.6-2.7-38.2c-6-29.5-19.3-55.2-40.4-76.7C275.9,64.6,240.2,49.7,201.7,49z"/>
	<path class="st3" d="M94.1,47.3c1.7-1,3.2-2,4.8-3c1.7-1,3.4-2.1,5.1-3.1c0.8-0.5,1.7-0.9,2.6-1.1c2.3-0.6,4.3,0.1,5.7,2
		c1.4,1.8,1.7,3.8,0.6,5.9c-0.1,0.2-0.2,0.4-0.3,0.6c0,0,0,0.1,0,0.2c0.3,0,0.5,0,0.8,0c2.8-0.1,5,1.5,5.9,4.2c0.8,2.4,0,5-2.2,6.6
		c-1.3,1-2.8,1.8-4.2,2.6c-2.2,1.4-4.4,2.7-6.7,4.1c-0.1,0.1-0.2,0.1-0.6,0.1C102,60.1,98.1,53.8,94.1,47.3z M107.8,60.6
		c1.9-1.2,3.7-2.3,5.5-3.4c1.5-1,1.8-2.3,1-3.6c-0.8-1.3-2.3-1.7-3.7-0.9c-1.8,1-3.6,2.1-5.5,3.3C106,57.6,106.9,59.1,107.8,60.6z
		 M102.9,52.6c1.9-1.2,3.7-2.2,5.4-3.3c0.4-0.2,0.6-0.6,0.9-1c0.5-0.9,0.3-1.9-0.3-2.7c-0.7-0.8-1.7-1.2-2.6-0.7c-2,1.1-4,2.3-6,3.5
		C101.2,49.8,102,51.1,102.9,52.6z"/>
	<path class="st3" d="M33.4,115.6c1.8-3.1,3.5-6.1,5.2-9c1.2-2,2.7-3.5,5-4c4.5-1,9,2.9,8.7,7.4c0,0.3-0.1,0.6-0.1,1.1
		c3.2,0,6.4,0,9.9,0c-0.9,1.6-1.7,2.9-2.5,4.2c-0.2,0.3-0.7,0.4-1,0.4c-2.1,0-4.3,0-6.4-0.2c-1.7-0.1-1.9-0.1-2.7,1.3
		c-0.3,0.6-0.6,1.2-1,1.8c2.3,1.4,4.6,2.7,6.9,4c-0.8,1.4-1.5,2.6-2.4,4.1C46.4,123.1,40,119.4,33.4,115.6z M44.8,116.7
		c1-1.8,2-3.4,2.8-5.1c0.7-1.6,0.1-3.1-1.4-3.9c-1.4-0.8-3-0.4-4,1.1c-1,1.5-1.8,3.1-2.8,4.7C41.2,114.7,42.9,115.6,44.8,116.7z"/>
	<path class="st3" d="M291.1,57.1c-1.5,2.2-3,4.3-4.5,6.6c-1.3-0.9-2.5-1.7-3.9-2.6c4.3-6.3,8.4-12.4,12.6-18.7
		c3.1,2.1,6.2,4,9.1,6.2c5.3,3.9,3.2,10.1-0.5,12.2c-0.8,0.5-1.9,0.7-2.9,0.9c-0.8,0.1-1.7,0-2.7,0c-0.2,3-0.4,6.1-0.6,9.5
		c-1.7-0.7-3-2-4.5-2.8c0.2-2.5,0.3-4.9,0.7-7.3c0.2-1.5-0.2-2.4-1.5-3C292,57.7,291.6,57.4,291.1,57.1z M296.9,48.5
		c-1.2,1.8-2.3,3.4-3.5,5.1c1.6,1,3,2.1,4.5,3c1.7,1.1,3.3,0.7,4.3-0.7c1-1.5,0.7-3.1-0.9-4.3C300,50.5,298.6,49.6,296.9,48.5z"/>
	<path class="st3" d="M316.2,87.6c7.8-2.6,15.3-5.2,22.9-7.8c1.3,1.6,2.5,3,3.8,4.6c-3.9,7-7.7,13.9-11.7,21.1
		c-1.2-1.4-2.3-2.7-3.5-4.1c0.5-0.9,1-1.8,1.5-2.7c0.3-0.5,0.4-1,0-1.5c-1.8-2.1-3.6-4.3-5.5-6.5c-0.1-0.1-0.3-0.2-0.5-0.3
		c-1.1,0.4-2.3,0.8-3.7,1.2C318.6,90.4,317.5,89.1,316.2,87.6z M332.1,94c2-2.7,4.6-7.5,4.8-8.8c-3.1,1.1-6.2,2.1-9.3,3.5
		C329.2,90.6,330.6,92.2,332.1,94z"/>
	<path class="st3" d="M263.1,51.2c-1.6-0.8-3.1-1.5-4.8-2.3c5.9-5.6,11.7-11,17.6-16.6c1.8,0.8,3.5,1.7,5.4,2.6
		c-0.6,7.9-1.2,15.9-1.9,24.1c-1.7-0.8-3.2-1.6-4.8-2.3c0.1-0.9,0.1-1.9,0.3-2.8c0.2-0.9-0.1-1.4-0.9-1.7c-2.6-1.2-5.1-2.4-7.7-3.7
		C265.2,49.3,264.2,50.2,263.1,51.2z M276.5,38.4c-2.3,2.3-4.6,4.6-7,7c1.8,0.9,3.7,2,6,2.7C275.9,44.7,276.2,41.4,276.5,38.4z"/>
	<path class="st3" d="M118,33.7c5-2.1,9.7-4.2,14.6-6.3c0.6,1.3,1.1,2.5,1.6,3.8c-3.5,1.5-6.8,3-10.2,4.5c0.7,1.5,1.3,2.9,1.9,4.4
		c3.3-1.4,6.6-2.8,10-4.3c0.6,1.3,1.1,2.5,1.6,3.8c-3.4,1.5-6.6,2.9-10,4.4c0.7,1.6,1.3,3.1,2,4.8c3.5-1.5,6.8-2.9,10.3-4.4
		c0.5,1.3,1,2.4,1.6,3.8c-4.9,2.1-9.6,4.2-14.6,6.3C124,47.6,121,40.8,118,33.7z"/>
	<path class="st3" d="M64.1,86.2c1.1,0.9,2.1,1.6,3.2,2.5c-2.2,2.9-4.4,5.7-6.7,8.7c1.4,1.1,2.7,2.1,4.1,3.2c2.3-3,4.6-5.8,6.9-8.8
		c1.1,0.9,2.1,1.7,3.2,2.5c-3.3,4.2-6.5,8.3-9.8,12.5c-6-4.7-11.8-9.2-17.8-13.9c3.3-4.2,6.5-8.3,9.8-12.5c1.1,0.8,2.1,1.6,3.3,2.5
		c-2.3,3-4.5,5.8-6.8,8.8c1.2,1,2.4,1.9,3.8,3C59.6,91.9,61.8,89.1,64.1,86.2z"/>
	<path class="st3" d="M358.8,112.4c-1.5-0.1-2.8-0.2-4.1-0.4c-0.1-1.2-0.1-2.3-0.2-3.4c-0.2-1.5-0.8-2.8-1.7-4
		c-0.3-0.4-0.8-0.9-1.2-1.1c-0.7-0.4-1.4-0.4-2.1,0.1c-0.7,0.4-0.7,1.1-0.6,1.8c0.1,0.9,0.4,1.8,0.6,2.6c0.4,1.6,1,3.2,1.3,4.9
		c0.6,2.9-0.3,5.2-2.5,6.7c-2.4,1.6-5.4,1.6-7.6-0.1c-3.1-2.3-4.8-5.5-5.5-9.2c-0.2-1.3,0-2.8,0-4.1c1.6-0.6,2.9,0.1,4.3,0
		c0,1.1,0,2,0,3c0.1,2.3,0.8,4.3,2.5,6c0.3,0.3,0.6,0.5,0.9,0.7c0.8,0.4,1.6,0.5,2.4,0c0.7-0.5,0.9-1.3,0.7-2.1
		c-0.3-1.2-0.7-2.4-1-3.6c-0.4-1.5-0.8-2.9-1.1-4.4c-0.9-4.9,4.1-7.6,7.4-6.7c2,0.5,3.5,1.6,4.7,3.1c1.9,2.3,2.9,5,3.1,7.9
		C359.1,110.7,358.9,111.5,358.8,112.4z"/>
	<path class="st3" d="M222.4,19.6c-0.4,0.5-0.9,1.1-1.3,1.6c-0.4,0.5-0.9,1-1.4,1.6c-1.6-1.4-3.3-2.4-5.3-2.8
		c-0.8-0.1-1.6-0.2-2.3-0.1c-1.4,0.2-2,0.7-2.1,1.8c-0.1,0.9,0.4,1.6,1.6,2.1c1.4,0.6,2.8,1,4.1,1.5c1,0.4,2,0.8,2.9,1.3
		c2.4,1.3,3.6,3.2,3.4,5.9c-0.2,2.6-1.5,4.6-3.9,5.7c-2.4,1-4.8,1-7.3,0.6c-2.8-0.5-5.4-1.7-7.5-4.1c0.9-1.1,1.8-2.2,2.6-3.2
		c1.4,0.9,2.6,1.8,3.9,2.6c1.4,0.8,3,0.9,4.6,0.8c0.5,0,1-0.2,1.4-0.4c1.7-0.9,1.8-2.6,0.1-3.5c-1.5-0.8-3.2-1.3-4.9-1.9
		c-1-0.4-2.1-0.8-3.1-1.4c-4.7-2.8-3.5-8.7,0.3-10.7c1.7-0.9,3.5-1.2,5.4-1.1c2.8,0.1,5.3,0.9,7.6,2.6c0.3,0.2,0.5,0.4,0.8,0.7
		C222.1,19.2,222.2,19.4,222.4,19.6z"/>
	<path class="st3" d="M260.9,31.4c-1.4,0.2-2.7,0.5-4,0.7c-0.2-0.2-0.3-0.2-0.3-0.3c-1.1-3.2-3.5-4.8-7.1-4.5
		c-2.8,0.2-5.3,2.5-6.1,5.6c-1,4,0.7,7.2,3.8,8.6c2,0.9,3.9,0.8,5.8-0.3c0.4-0.2,0.7-0.5,1.2-0.8c1,0.9,2.1,1.9,3.1,2.8
		c-2.5,3.2-7.7,4.4-12.7,1.8c-5-2.6-7.4-7.9-6-13.4c1.5-5.6,6.2-9,12-8.6C255.8,23.2,260.2,26.4,260.9,31.4z"/>
	<path class="st3" d="M85.6,73.7c1.3-0.4,2.6-0.9,4-1.3c0.8,2.5,0.6,4.8-0.4,6.9c-2,4.2-5.4,6.6-9.9,7c-4.6,0.5-8.3-1.6-10.8-5.5
		C63.2,72.7,70,63.4,77.1,63c1.3-0.1,2.6-0.1,3.9,0.6c-0.5,1.3-1,2.6-1.4,3.8c-1.3,0.1-2.3,0-3.4,0.2c-4,0.9-6.2,5.3-4.4,9.4
		c1.2,2.8,4,4.9,7.5,4.8c3.2-0.1,7.1-3.5,6.1-7.5C85.5,74.2,85.5,74.1,85.6,73.7z"/>
	<path class="st3" d="M161.9,42.2c-1.3-6.1-2.6-12-3.9-18c-2.2,0.5-4.2,0.9-6.2,1.3c-0.7-1.2-0.8-2.5-1-4c5.8-1.2,11.5-2.5,17.4-3.7
		c0.3,1.3,0.6,2.6,0.9,4c-2.1,0.5-4.2,1-6.4,1.5c1.3,6,2.5,11.8,3.8,17.9C165,41.6,163.6,41.9,161.9,42.2z"/>
	<path class="st3" d="M318.2,64.5c-1.7-1.5-3.2-2.9-4.9-4.4c0.9-1,1.8-2,2.8-3c4.5,4,8.8,7.9,13.3,12c-0.9,1-1.7,2-2.7,3.1
		c-1.6-1.4-3.2-2.8-5-4.3c-4.1,4.6-8.1,9-12.3,13.6c-1.2-1-2.3-2-3.6-3.1C310,73.6,314.1,69.1,318.2,64.5z"/>
	<path class="st3" d="M101,70.4c-1.3,1-2.4,1.9-3.7,2.9c-4.6-6-9.1-11.8-13.8-17.8c1.2-1,2.4-1.8,3.7-2.9
		C91.8,58.4,96.3,64.4,101,70.4z"/>
	<path class="st3" d="M81.4,338.6c0-3.9,3.5-7.6,7.3-7.7c3.7,0,7.1,3.3,7.1,7c0,3.9-3.7,7.6-7.5,7.6
		C84.6,345.5,81.4,342.3,81.4,338.6z M83,338.8c0,3.5,3.6,6,6.9,4.8c2.1-0.8,3.3-2.4,4.1-4.5c1.3-3.5-2.4-7.3-6.1-6.4
		C85.3,333.3,83,336.1,83,338.8z"/>
	<path class="st3" d="M56.2,134.8c-0.7,1.6-1.3,3-2.1,4.6c-4.6-2.1-8.9-4.5-13.5-6.8c0.4-1,0.9-2,1.4-3.1c0.3,0,0.7-0.1,1,0.1
		C47.3,131.3,51.6,133,56.2,134.8z"/>
	<path class="st3" d="M299.4,336.7c1.8-1.5,3.4-3.2,5.4-4.1c3-1.5,6.4-0.8,8.7,2.4c2.1,2.8,1.8,6.4-0.8,8.9
		c-1.3,1.3-2.8,2.4-4.3,3.7C305.4,343.9,302.4,340.4,299.4,336.7z M301.6,336.8c2.4,2.9,4.7,5.7,7.1,8.5c0.8-0.7,1.5-1.2,2.2-1.8
		c4-3.2,2.2-7.7-0.9-9.4c-1.9-1-3.7-1-5.4,0.3C303.6,335.1,302.8,335.9,301.6,336.8z"/>
	<path class="st3" d="M139.7,360.2c2.2,0.8,4.3,1.4,6.2,2.4c2.6,1.4,4.3,4.9,2.8,8.5c-1.4,3.3-4.3,5-7.7,4.2
		c-1.9-0.5-3.8-1.1-5.8-1.8C136.7,369.2,138.1,364.9,139.7,360.2z M140.8,362.2c-1.2,3.6-2.4,7-3.6,10.5c1.1,0.4,2.1,0.7,3,1
		c0.4,0.1,0.9,0.2,1.3,0.3c2.6,0.3,4.7-1.2,5.6-3.9c0.9-2.7,0-5.2-2.3-6.4C143.6,363.2,142.3,362.8,140.8,362.2z"/>
	<path class="st3" d="M129,363.4c-0.7,1.4-1.3,2.7-2,3.9c-0.6,1.1-1.9,1.1-2.9,1.1c-2.9-0.1-5.6-1.4-7-4.5c-1.6-3.7,0.5-8.3,4.3-9.8
		c3.4-1.3,8.1,0.5,9.3,4.6c0,0.1,0,0.2,0,0.4c-0.4,0.1-0.8,0.1-1.1,0.2c-0.7-1-1.3-1.9-2-2.6c-2.2-2.1-5.6-1.8-7.5,0.4
		c-1.4,1.6-2.1,3.5-1.5,5.6c0.6,2.3,2.5,3.9,4.9,4.1c1.5,0.1,2.1-0.2,2.8-1.6c0.2-0.4,0.3-0.8,0.5-1.4c-1.4-0.7-2.8-1.4-4.3-2.1
		c0.2-0.5,0.4-0.8,0.7-1.3C125,361.5,126.9,362.4,129,363.4z"/>
	<path class="st3" d="M74.2,327.2c-1.3,1.3-2.6,2.5-4.1,4c-0.4-0.4-0.7-0.8-1.2-1.3c3.5-3.2,6.9-6.3,10.4-9.6
		c1.2,1.3,3.1,2.7,4.4,4.6c1.1,1.6,0.9,3.3-0.4,4.8c-1.2,1.4-2.8,1.9-4.6,1.2c-0.3-0.1-0.6-0.3-1.1-0.5c-0.4,2.1-0.9,4.2-1.3,6.3
		c-1.4-0.9-1.4-0.9-1.2-2.2c0.3-1.3,0.4-2.7,0.8-4c0.4-1.1,0.1-1.8-0.8-2.5C74.9,327.8,74.6,327.5,74.2,327.2z M75.4,326.1
		c0.8,0.9,1.7,1.8,2.6,2.6c1.2,1.2,2.6,1.2,3.8,0.2c1.1-1,1.2-2.6,0.2-3.9c-0.8-1-1.7-1.9-2.6-2.9C77.9,323.5,76.7,324.8,75.4,326.1
		z"/>
	<path class="st3" d="M239.3,374.7c1.4,1.6,2.8,3.1,4.2,4.6c-1.4,0.7-1.4,0.7-2.5-0.4c-0.7-0.7-1.4-1.3-2-2
		c-1.2-1.4-2.6-1.9-4.5-0.8c0.3,1.6,0.7,3.4,1.1,5.2c-0.6,0.1-1,0.2-1.6,0.3c-1-4.6-2.1-9-3.1-13.6c2.2-0.5,4.3-1,6.4-1.3
		c1.8-0.3,3.4,0.8,4.1,2.6c0.5,1.4,0.5,3.6-1.2,4.7C239.8,374.2,239.5,374.5,239.3,374.7z M232.8,369c0.4,1.9,0.8,3.6,1.3,5.4
		c1.4-0.3,2.6-0.6,3.8-0.9c1.6-0.5,2.3-1.6,2-3c-0.3-1.5-1.4-2.4-3.1-2.2C235.6,368.4,234.3,368.7,232.8,369z"/>
	<path class="st3" d="M320.8,337c-0.5,0.4-0.8,0.8-1.3,1.2c-2-4.7-3.9-9.3-5.8-14.1c0.5-0.4,1-0.9,1.5-1.4c4.6,2,9.1,4,13.8,6
		c-0.4,0.5-0.8,0.9-1.2,1.4c-1-0.4-2-0.9-2.8-1.2c-1.7,1.7-3.4,3.4-5.2,5.2C320,334.9,320.4,335.9,320.8,337z M323,328
		c-2.4-1-4.5-2.2-7.3-3.1c1.1,2.7,2.1,5,3.1,7.4C320.2,330.9,321.5,329.6,323,328z"/>
	<path class="st3" d="M291.7,342.4c0.6-0.4,1.2-0.8,1.8-1.2c4.1,2.7,8.3,5.4,12.6,8.3c-0.5,0.4-1,0.8-1.5,1.2
		c-1-0.6-1.8-1.2-2.9-1.8c-1.9,1.3-3.8,2.6-5.8,4c0.1,0.7,0.3,1.4,0.4,2c0.3,1.4,0.3,1.4-1.3,2.2
		C293.9,352.1,292.8,347.3,291.7,342.4z M300.4,347.8c-2.4-1.6-4.4-3-6.5-4.3c-0.1,0.1-0.2,0.1-0.3,0.2c0.6,2.5,1.1,4.9,1.8,7.6
		C297.1,350,298.7,349,300.4,347.8z"/>
	<path class="st3" d="M157.7,366c2.2,0.5,2.1,0.5,2.4,2.3c0.5,3.6,1,7.2,1.5,10.9c0.1,0.7,0.1,1.3,0.2,2.1c-0.6-0.1-1.1-0.2-1.6-0.3
		c-0.2-1.1-0.4-2.1-0.6-3.4c-2.2-0.5-4.5-1.1-6.8-1.7c-0.7,0.9-1.4,1.8-2,2.7c-0.6-0.1-1.1-0.3-1.8-0.4
		C151.9,374.1,154.8,370.1,157.7,366z M158.5,368.4c-0.1,0-0.3-0.1-0.4-0.1c-1.5,2-3,4.1-4.5,6.3c2.1,0.5,3.9,0.9,5.9,1.4
		C159.1,373.4,158.8,370.9,158.5,368.4z"/>
	<path class="st3" d="M118.5,350.4c-0.3,0.5-0.5,0.8-0.8,1.2c-2.1-1.3-4.2-2.5-6.4-3.7c-0.8,1.3-1.5,2.5-2.4,3.9
		c2.1,1.3,4.1,2.5,6.2,3.8c-0.2,0.4-0.4,0.7-0.6,1.3c-2.1-1.2-4.1-2.4-6.4-3.7c-0.8,1.4-1.6,2.7-2.5,4.2c2.2,1.3,4.2,2.5,6.4,3.8
		c-0.2,0.4-0.4,0.8-0.7,1.3c-2.6-1.5-5.2-3-7.9-4.7c2.4-4,4.7-8,7.2-12.1C113.2,347.3,115.8,348.8,118.5,350.4z"/>
	<path class="st3" d="M220.8,371c0.2,1.5,0.4,2.9,0.6,4.4c2.5,0,4.7-0.7,7.2-0.9c0.1,0.4,0.2,0.8,0.4,1.3c-2.4,0.4-4.8,0.8-7.2,1.2
		c0.2,1.6,0.4,3.2,0.7,4.9c2.1-0.3,4.2-0.7,6.2-1c1.1-0.2,1.2-0.1,1.2,1.4c-2.9,0.4-5.8,0.9-8.9,1.3c-0.7-4.6-1.4-9.2-2.1-13.9
		c3.1-0.5,6-0.9,9-1.4c0,0.5,0.1,0.9,0.1,1.4C225.7,370.2,223.3,370.6,220.8,371z"/>
	<path class="st3" d="M329.1,325.9c-0.1-0.4-0.2-0.8-0.2-1.3c0.5-0.2,1-0.3,1.4-0.4c1.7-0.5,2.9-1.5,3.7-3c0.6-1.1,0.4-2-0.4-2.8
		c-0.7-0.8-1.6-0.8-2.5-0.3c-0.8,0.4-1.6,0.9-2.4,1.3c-0.8,0.5-1.7,1-2.5,1.3c-2.3,1-4.4-1.1-4.5-3.2c-0.1-2.9,3.1-6,6.2-5.8
		c0.1,0.3,0.1,0.7,0.2,1.2c-1.5,0.4-2.9,0.9-3.8,2.1c-0.4,0.6-0.9,1.4-1,2.1c-0.2,1.5,1.2,2.4,2.6,1.8c1.1-0.5,2.2-1.2,3.2-1.9
		c0.9-0.5,1.9-0.9,3-1.1c2.3-0.2,4.4,2.7,3.5,5C334.9,323.1,332.1,326.1,329.1,325.9z"/>
	<path class="st3" d="M164.5,379.9c0.4-0.3,0.7-0.5,1-0.8c0.2,0.1,0.3,0.2,0.4,0.3c1,1.1,2.2,1.9,3.7,2.2c0.6,0.1,1.1,0.1,1.7,0
		c1-0.2,1.8-0.7,2-1.8c0.3-1.1-0.3-1.8-1.1-2.3c-0.7-0.5-1.6-0.9-2.4-1.3c-0.6-0.3-1.3-0.6-1.9-1.1c-1.5-1-2-2.2-1.7-3.7
		c0.3-1.4,1.7-2.6,3.3-2.8c2.6-0.3,4.8,0.4,6.6,2.8c-0.3,0.3-0.7,0.5-0.9,0.7c-1.3-0.7-2.6-1.3-3.8-1.9c-0.3-0.1-0.7-0.2-1-0.2
		c-1.3,0-2.4,0.8-2.5,1.8c-0.2,1.2,0.7,1.7,1.5,2.2c1.2,0.7,2.6,1.2,3.7,2c2.9,1.9,2.1,4.9,0.4,6.2c-0.6,0.4-1.4,0.8-2.2,0.9
		C169.4,383.4,165.9,382.5,164.5,379.9z"/>
	<path class="st3" d="M65.3,317.5c-1.5,1.2-2.8,2.4-4.2,3.6c-0.4-0.4-0.7-0.7-1.2-1.1c3.6-3.1,7.1-6.2,10.6-9.3
		c1.3,1.5,2.6,2.9,3.8,4.4c1.6,2,1.4,4.4-0.4,5.9c-1.8,1.5-4.2,1.4-5.9-0.4C67.1,319.6,66.3,318.6,65.3,317.5z M66.4,316.4
		c0.9,1,1.6,1.9,2.3,2.7c0.1,0.1,0.1,0.2,0.2,0.3c1.5,1.3,2.5,1.3,3.9,0.2c1.1-0.9,1.3-2.3,0.3-3.6c-0.8-1-1.7-2-2.6-3.1
		C69.1,314.1,67.8,315.2,66.4,316.4z"/>
	<path class="st3" d="M287.4,348.1c-0.2,0.5-0.4,0.8-0.6,1.2c-1.9-0.4-3.8-0.5-5.4,1c-1,0.9-1.6,2-1.8,3.4c-0.4,3,1.8,6.1,4.8,6.7
		c2.7,0.6,5.2-1.1,6.1-4.2c0.4,0,0.8-0.1,1.2-0.1c0.1,0.2,0.2,0.4,0.1,0.5c-0.3,2.3-1.7,3.7-3.7,4.7c-3.1,1.5-6,0.6-8-1.4
		c-2.3-2.3-2.9-5.9-1.5-8.6C280.3,348.2,283.9,346.8,287.4,348.1z"/>
	<path class="st3" d="M264.2,364.1c2.3-1,4.4-1.9,6.6-2.8c0.2,0.4,0.4,0.7,0.7,1.2c-2.2,1-4.4,1.9-6.7,3c0.8,1.9,1.6,3.8,2.4,5.8
		c-0.4,0.3-0.8,0.5-1.4,0.8c-1.9-4.4-3.7-8.6-5.6-12.9c2.8-1.2,5.5-2.4,8.4-3.6c0.2,0.5,0.4,0.8,0.6,1.3c-2.3,1-4.5,2-6.8,3
		C263,361.3,263.5,362.5,264.2,364.1z"/>
	<path class="st3" d="M102.7,342.2c-1.2-0.9-2.3-1.7-3.5-2.6c0.2-0.4,0.4-0.7,0.7-1.2c2.9,2,5.7,4,8.6,6c-0.3,0.4-0.5,0.8-0.8,1.2
		c-1.2-0.8-2.4-1.6-3.7-2.4c-2.4,3.4-4.8,6.8-7.2,10.2c-0.5-0.4-0.9-0.6-1.3-1C98,349,100.3,345.6,102.7,342.2z"/>
	<path class="st3" d="M248.8,364.8c1.2,4,2.4,7.8,3.7,11.8c-0.4,0.2-0.9,0.4-1.5,0.7c-1.3-4-2.5-7.9-3.8-12
		c-1.5,0.4-2.8,0.8-4.2,1.2c-0.1-0.5-0.3-0.9-0.4-1.4c3.4-1,6.7-2.1,10-3.1c0.2,0.5,0.3,0.8,0.4,1.3
		C251.6,363.9,250.3,364.3,248.8,364.8z"/>
	<path class="st3" d="M271.1,354.4c0.5-0.3,0.9-0.5,1.4-0.8c2.1,4.1,4.1,8.2,6.2,12.4c-0.5,0.3-0.9,0.6-1.4,0.9
		C275.3,362.7,273.2,358.7,271.1,354.4z"/>
	<path class="st3" d="M134.9,358.4c0.6,0.3,1,0.5,1.5,0.7c-1.8,4.3-3.5,8.5-5.3,12.8c-0.5-0.2-0.9-0.3-1.6-0.5
		C131.3,367,133,362.8,134.9,358.4z"/>
	<path class="st3" d="M261.6,373.6c-0.6,0.2-1,0.4-1.6,0.6c-1.6-4.4-3.2-8.6-4.8-13c0.5-0.2,0.9-0.4,1.5-0.7
		C258.4,364.9,260,369.2,261.6,373.6z"/>
	<path class="st3" d="M36.8,126.2c1.4,0.1,2.7,1.4,2.6,2.8c-0.1,1.5-1.4,2.6-2.9,2.5c-1.5-0.1-2.5-1.2-2.5-2.7
		C34.1,127.4,35.3,126.2,36.8,126.2z"/>
	<path class="st3" d="M347.5,126.1c1.4,0,2.6,1.2,2.6,2.5c0,1.4-1.3,2.8-2.7,2.8c-1.5,0-2.7-1.2-2.7-2.7
		C344.9,127.2,346,126.1,347.5,126.1z"/>
	<path class="st3" d="M328.7,307.9c0.4-0.6,0.7-1,1.1-1.5c2.6,2.2,5.1,4.3,7.7,6.4c-0.2,0.3-0.4,0.6-0.7,1
		C334.1,311.8,331.4,309.9,328.7,307.9z"/>
	<path class="st3" d="M54.3,318.9c-0.4-0.5-0.8-0.9-1.2-1.4c2.7-2,5.3-3.9,8-5.9c0.3,0.2,0.5,0.5,0.9,0.8
		C59.4,314.6,56.9,316.7,54.3,318.9z"/>
	<path class="st3" d="M339.6,316.3c-0.6,0-1.1-0.5-1-1.1c0-0.7,0.5-1,1.1-1.1c0.5-0.1,1.1,0.6,1,1.1
		C340.6,315.9,340.3,316.3,339.6,316.3z"/>
	<path class="st3" d="M64.3,311.2c-0.9-0.2-1.3-0.4-1.3-1.1c0-0.7,0.4-1,1.1-1.1c0.5,0,1.2,0.7,1.1,1.1
		C65,310.5,64.5,310.9,64.3,311.2z"/>
	<path class="st0" d="M201.7,49c38.5,0.7,74.2,15.6,103.4,45.4c21.1,21.5,34.4,47.2,40.4,76.7c2.6,12.6,3.5,25.4,2.7,38.2
		c-2,35.6-14.7,67.1-38.3,93.8c-19.1,21.6-42.7,36.5-70.4,44.7c-8.7,2.5-17.5,4.2-26.5,5c-7.5,0.7-15,0.9-22.6,0.5
		c-26.3-1.5-50.6-9.2-72.5-23.7c-34.7-23-56.7-55-65.9-95.7c-3-13.4-4-27.1-3.3-40.8c2.8-54.9,34.9-104.4,84-128.7
		c14-6.9,28.7-11.6,44.2-13.8C184.1,49.6,191.3,49.1,201.7,49z M157,160.7c-0.7,0.2-1.3,0.4-1.9,0.5c-9.8,2.5-19.6,5-29.4,7.5
		c-4.2,1.1-7.3,3.6-9.1,7.5c-1.4,3.1-1.5,6.2-0.6,9.4c7.3,28.9,14.7,57.8,22,86.7c0.8,3.2,1.6,6.5,2.5,9.7c1.8,7,9.1,11.5,16.5,9.6
		c11.6-3,23.2-5.9,34.8-8.8c1.3-0.3,2.5-0.4,3.8-0.1c8.6,2.3,17.3,4.5,25.9,6.7c7.3,1.9,14.6,3.7,21.9,5.6c3.7,0.9,7.3,0.4,10.6-1.7
		c3.4-2.1,5.2-5.2,6.1-9c4.3-17,8.6-34,12.9-51c3.7-14.7,7.5-29.4,11.2-44.1c0.6-2.5,0.8-5,0.1-7.5c-1.4-4.8-4.5-8.1-9.4-9.3
		c-8.8-2.3-17.6-4.5-26.5-6.8c-0.6-0.2-1.3-0.4-2-0.6c0-1.9,0.1-3.6,0-5.4c-0.2-5.2-2.5-9.2-7.1-11.8c-2.2-1.3-4.7-1.6-7.2-1.6
		c-20.2,0-40.4,0-60.6,0c-0.9,0-1.8,0.1-2.7,0.2c-5.8,0.7-10.6,5.4-11.4,11.2C157.2,158.6,157.1,159.6,157,160.7z M190,130.9
		c0.1,0.1,0.2,0.1,0.3,0.2c3.2-2.4,6.3-4.7,9.5-7.1c1.2,0.9,2.3,1.7,3.3,2.5c1,0.8,2.1,1.6,3.1,2.3c1,0.8,2,1.6,3.5,2.5
		c-1.3-4.1-2.5-7.8-3.7-11.5c3.2-2.5,6.3-4.8,9.4-7.2c0,0,0-0.1,0-0.1c0-0.1,0-0.1-0.1-0.3c-3.9,0-7.9,0-11.9,0
		c-1.2-3.7-2.4-7.4-3.6-11.1c-0.1,0-0.3,0-0.4,0c-1.2,3.7-2.4,7.4-3.6,11.1c-4,0-7.9,0-11.9,0c0,0.1-0.1,0.2-0.1,0.3
		c3.3,2.4,6.6,4.8,9.9,7.2C192.6,123.6,191.3,127.3,190,130.9z M177.8,118.4c-1-2.9-1.9-5.8-2.8-8.6c-0.1,0-0.2,0-0.3,0
		c-0.9,2.8-1.8,5.7-2.8,8.7c-3.2,0-6.3,0-9.8,0c0.6,0.5,0.8,0.8,1,0.9c1.9,1.4,3.8,2.8,5.7,4.2c0.7,0.5,0.9,1,0.6,1.8
		c-0.5,1.4-0.9,2.9-1.3,4.4c-0.4,1.2-0.7,2.4-1.1,3.7c0.1,0.1,0.2,0.1,0.3,0.2c2.5-1.8,5-3.7,7.5-5.5c2.5,1.8,5,3.6,7.5,5.4
		c0.1-0.1,0.2-0.1,0.3-0.2c-0.9-3-1.8-6-2.7-9c1.4-1,2.6-1.9,3.8-2.8c1.2-0.9,2.6-1.6,3.8-3.1C184.1,118.4,181,118.4,177.8,118.4z
		 M222,118.5c-3.1,0-6,0-9,0c0,0.1-0.1,0.2-0.1,0.3c2.5,1.8,4.9,3.7,7.4,5.6c-1.1,3.1-2.1,6.1-3.1,9.1c0.1,0.1,0.2,0.1,0.3,0.2
		c2.6-1.8,5.3-3.7,7.9-5.5c2.6,1.8,5,3.7,7.5,5.4c0.1-0.1,0.2-0.2,0.3-0.2c-1-3-2-5.9-3.1-9c2.7-1.9,5.3-3.7,7.9-5.5
		c0-0.1-0.1-0.3-0.1-0.4c-3.1,0-6.3,0-9.4,0c-1-3-1.9-5.8-2.8-8.7c-0.1,0-0.2,0-0.3,0.1C224.1,112.6,223.1,115.4,222,118.5z
		 M242.9,129.8c-0.8,2.5-1.5,5-2.3,7.4c0.1,0.1,0.2,0.1,0.3,0.2c2.1-1.6,4.2-3.1,6.3-4.7c2.4,1.6,4.5,3.2,7,4.4
		c-0.8-2.5-1.5-4.9-2.3-7.4c2.3-1.7,4.4-3.4,6.6-5.1c-0.6-0.3-1.1-0.4-1.6-0.4c-1.9,0-3.7,0-5.6,0c-0.8,0-1.3-0.2-1.5-1
		c-0.1-0.4-0.3-0.8-0.5-1.3c-0.6-1.7-1.3-3.4-1.9-5.2c-0.1,0-0.2,0-0.3,0c-0.8,2.4-1.6,4.9-2.4,7.5c-2.7,0-5.4,0-8.1,0
		c0,0.1-0.1,0.2-0.1,0.4C238.5,126.4,240.6,128.1,242.9,129.8z M163.8,124.5c-0.7-0.1-1-0.1-1.3-0.1c-1.9,0-3.8,0-5.8,0
		c-0.8,0-1.2-0.3-1.5-1c-0.4-1.1-0.8-2.2-1.2-3.3c-0.4-1-0.8-2-1.1-3.1c-0.1,0-0.2,0-0.4,0c-0.8,2.4-1.6,4.9-2.4,7.3
		c-2.8,0.2-5.5-0.1-8.2,0.5c2.2,1.7,4.3,3.3,6.5,5c-0.8,2.6-1.9,5-2.6,7.4c0.1,0.1,0.2,0.1,0.3,0.2c2.2-1.5,4.3-3,6.6-4.6
		c1.2,0.8,2.3,1.6,3.4,2.3c1.1,0.7,2.1,1.8,3.6,2.3c-0.8-2.7-1.6-5.1-2.3-7.6C159.5,128,161.5,126.4,163.8,124.5z"/>
	<path class="st3" d="M157,160.7c0.1-1.1,0.2-2,0.3-3c0.8-5.8,5.6-10.5,11.4-11.2c0.9-0.1,1.8-0.2,2.7-0.2c20.2,0,40.4,0,60.6,0
		c2.5,0,5,0.3,7.2,1.6c4.6,2.6,6.9,6.6,7.1,11.8c0.1,1.7,0,3.5,0,5.4c0.7,0.2,1.3,0.4,2,0.6c8.8,2.2,17.7,4.5,26.5,6.8
		c4.9,1.3,8,4.5,9.4,9.3c0.8,2.5,0.6,5-0.1,7.5c-3.7,14.7-7.5,29.4-11.2,44.1c-4.3,17-8.7,34-12.9,51c-1,3.8-2.8,6.9-6.1,9
		c-3.3,2.1-6.8,2.6-10.6,1.7c-7.3-1.8-14.6-3.7-21.9-5.6c-8.6-2.2-17.3-4.4-25.9-6.7c-1.3-0.3-2.5-0.3-3.8,0.1
		c-11.6,2.9-23.2,5.8-34.8,8.8c-7.4,1.9-14.7-2.6-16.5-9.6c-0.8-3.2-1.7-6.5-2.5-9.7c-7.3-28.9-14.6-57.8-22-86.7
		c-0.8-3.2-0.8-6.4,0.6-9.4c1.8-3.9,4.9-6.4,9.1-7.5c9.8-2.5,19.6-5,29.4-7.5C155.6,161,156.2,160.8,157,160.7z M242.3,209.8
		C242.3,209.8,242.3,209.8,242.3,209.8c0-5.5,0-11.1,0-16.6c0-11.1,0-22.3,0-33.4c0-3.8-2.5-8.3-7.6-9.3c-0.9-0.2-1.8-0.2-2.7-0.2
		c-20.2,0-40.4,0-60.6,0c-0.5,0-0.9,0-1.4,0c-4.1,0.2-7.7,2.9-8.6,6.9c-0.3,1.2-0.3,2.5-0.3,3.7c0,32.6,0,65.2,0,97.8
		c0,0.5,0,1,0,1.5c0.1,4.3,3,8,7.3,8.9c1,0.2,2.1,0.3,3.2,0.3c20.1,0,40.2,0,60.3,0c0.6,0,1.1,0,1.7,0c4.1-0.2,7.4-2.9,8.5-6.9
		c0.3-1.1,0.3-2.2,0.3-3.4C242.3,242.7,242.3,226.3,242.3,209.8z M211.8,273.4c0-0.1,0-0.2,0-0.3c-0.7,0-1.3,0-2,0
		c-13.1,0-26.1,0-39.2,0c-6.2,0-11.5-4-12.9-10c-0.4-1.5-0.5-3.1-0.5-4.7c0-30.4,0-60.9,0-91.3c0-0.7,0-1.4,0-2.3
		c-0.8,0.2-1.3,0.3-1.9,0.4c-6,1.5-12.1,3-18.1,4.6c-3.7,0.9-7.4,1.8-11,2.8c-5,1.4-7.6,6-6.5,11.1c0.1,0.6,0.3,1.2,0.5,1.8
		c5.5,21.7,11,43.3,16.5,65c2.6,10.2,5.1,20.4,7.8,30.6c1.3,5.2,6,7.8,11.1,6.6c18.4-4.6,36.9-9.2,55.3-13.7
		C211.1,273.7,211.4,273.6,211.8,273.4z"/>
	<path class="st3" d="M190,130.9c1.3-3.7,2.6-7.3,3.9-11.1c-3.3-2.4-6.6-4.8-9.9-7.2c0-0.1,0.1-0.2,0.1-0.3c3.9,0,7.9,0,11.9,0
		c1.2-3.8,2.4-7.5,3.6-11.1c0.1,0,0.3,0,0.4,0c1.2,3.7,2.4,7.3,3.6,11.1c4,0,8,0,11.9,0c0.1,0.2,0.1,0.2,0.1,0.3c0,0,0,0.1,0,0.1
		c-3.1,2.4-6.2,4.7-9.4,7.2c1.2,3.7,2.3,7.4,3.7,11.5c-1.5-0.8-2.5-1.7-3.5-2.5c-1.1-0.8-2.1-1.6-3.1-2.3c-1.1-0.8-2.2-1.6-3.3-2.5
		c-3.2,2.4-6.4,4.8-9.5,7.1C190.2,131,190.1,131,190,130.9z"/>
	<path class="st3" d="M177.8,118.4c3.2,0,6.3,0,9.7,0c-1.2,1.4-2.6,2.2-3.8,3.1c-1.2,0.9-2.4,1.8-3.8,2.8c0.9,3,1.8,6,2.7,9
		c-0.1,0.1-0.2,0.1-0.3,0.2c-2.5-1.8-5-3.6-7.5-5.4c-2.6,1.9-5,3.7-7.5,5.5c-0.1-0.1-0.2-0.1-0.3-0.2c0.4-1.2,0.7-2.4,1.1-3.7
		c0.4-1.5,0.8-2.9,1.3-4.4c0.3-0.8,0.1-1.3-0.6-1.8c-1.9-1.4-3.8-2.8-5.7-4.2c-0.3-0.2-0.5-0.4-1-0.9c3.5,0,6.6,0,9.8,0
		c1-3,1.9-5.8,2.8-8.7c0.1,0,0.2,0,0.3,0C175.9,112.6,176.8,115.5,177.8,118.4z"/>
	<path class="st3" d="M222,118.5c1.1-3.1,2.2-5.9,3.2-8.7c0.1,0,0.2,0,0.3-0.1c0.9,2.8,1.9,5.7,2.8,8.7c3.2,0,6.3,0,9.4,0
		c0,0.1,0.1,0.3,0.1,0.4c-2.6,1.8-5.2,3.7-7.9,5.5c1.1,3.1,2.1,6,3.1,9c-0.1,0.1-0.2,0.2-0.3,0.2c-2.5-1.7-4.9-3.6-7.5-5.4
		c-2.7,1.9-5.3,3.7-7.9,5.5c-0.1-0.1-0.2-0.1-0.3-0.2c1-3,2.1-6,3.1-9.1c-2.5-1.9-5-3.7-7.4-5.6c0-0.1,0.1-0.2,0.1-0.3
		C215.9,118.5,218.9,118.5,222,118.5z"/>
	<path class="st3" d="M242.9,129.8c-2.2-1.7-4.4-3.4-6.5-5.1c0-0.1,0.1-0.2,0.1-0.4c2.7,0,5.4,0,8.1,0c0.8-2.6,1.6-5,2.4-7.5
		c0.1,0,0.2,0,0.3,0c0.6,1.7,1.3,3.4,1.9,5.2c0.2,0.4,0.4,0.8,0.5,1.3c0.2,0.8,0.7,1,1.5,1c1.9,0,3.7,0,5.6,0c0.5,0,1,0.1,1.6,0.4
		c-2.2,1.7-4.3,3.3-6.6,5.1c0.8,2.5,1.5,5,2.3,7.4c-2.4-1.2-4.6-2.8-7-4.4c-2.1,1.5-4.2,3.1-6.3,4.7c-0.1-0.1-0.2-0.1-0.3-0.2
		C241.3,134.8,242.1,132.3,242.9,129.8z"/>
	<path class="st3" d="M163.8,124.5c-2.3,1.9-4.3,3.5-6.5,5.3c0.8,2.5,1.5,4.9,2.3,7.6c-1.5-0.5-2.5-1.5-3.6-2.3
		c-1.1-0.7-2.2-1.5-3.4-2.3c-2.2,1.6-4.4,3.1-6.6,4.6c-0.1-0.1-0.2-0.1-0.3-0.2c0.7-2.4,1.8-4.8,2.6-7.4c-2.2-1.7-4.3-3.3-6.5-5
		c2.7-0.6,5.4-0.3,8.2-0.5c0.8-2.4,1.6-4.9,2.4-7.3c0.1,0,0.2,0,0.4,0c0.4,1,0.8,2,1.1,3.1c0.4,1.1,0.9,2.2,1.2,3.3
		c0.2,0.8,0.7,1.1,1.5,1c1.9,0,3.8,0,5.8,0C162.8,124.3,163.1,124.4,163.8,124.5z"/>
	<path class="st3" d="M232.3,160.3c0,9,0,17.8,0,26.7c-0.1,0.1-0.1,0.1-0.1,0.2c0,0-0.1,0.1-0.1,0.1c-20.7,0-41.3,0.1-62,0.1
		c-0.6,0-1.2,0-1.8,0c-0.4-1.4-0.5-23-0.2-26.9C169.2,160,228.7,159.9,232.3,160.3z M170,185.2c20.2,0,40.2,0,60.2,0
		c0.4-1.8,0.3-21.6-0.1-22.9c-20,0-40,0-60.1,0C170,169.9,170,177.5,170,185.2z"/>
	<path class="st3" d="M169.9,259.4c-0.6,0-1.2,0-1.8,0c0-1.2,0-2.3,0-3.6c0.5,0,1.1-0.1,1.8-0.1C169.9,257,169.9,258.2,169.9,259.4z
		"/>
	<path class="st3" d="M171.5,262.3c0-0.6-0.1-1.1-0.1-1.6c1.3-0.4,2.5-0.3,3.8-0.1c0,0.6,0,1.1,0,1.8
		C174.1,262.3,172.9,262.3,171.5,262.3z"/>
	<path class="st3" d="M179.2,262.3c0-0.6,0-1.1,0-1.8c1.2,0,2.4,0,3.7,0c0,0.6,0.1,1.1,0.1,1.7C181.7,262.6,180.5,262.5,179.2,262.3
		z"/>
	<path class="st3" d="M168.1,248.1c0.6,0,1.1,0,1.7-0.1c0,1.3,0,2.5,0,3.8c-0.6,0-1.1,0-1.7,0C168.1,250.5,168.1,249.3,168.1,248.1z
		"/>
	<path class="st3" d="M147.1,256.8c-0.7,0.2-1.3,0.3-2,0.4c-0.3-1.2-0.6-2.3-1-3.6c0.7-0.2,1.2-0.3,1.9-0.5
		C146.4,254.3,146.7,255.4,147.1,256.8z"/>
	<path class="st3" d="M134.8,216.5c0.7-0.2,1.2-0.3,1.9-0.4c0.3,1.2,0.7,2.3,1.1,3.6c-0.7,0.2-1.2,0.3-2,0.5
		C135.5,219,135.2,217.8,134.8,216.5z"/>
	<path class="st3" d="M142.5,246.3c0.7-0.2,1.2-0.3,1.9-0.4c0.3,1.2,0.6,2.3,1,3.6c-0.6,0.2-1.1,0.3-1.7,0.5
		C142.9,248.9,142.9,247.6,142.5,246.3z"/>
	<path class="st3" d="M136.7,224c0.8-0.2,1.3-0.3,2-0.4c0.3,1.2,0.6,2.3,1,3.6c-0.7,0.2-1.2,0.3-1.9,0.5
		C137.4,226.5,137.1,225.3,136.7,224z"/>
	<path class="st3" d="M146.1,261.1c0.7-0.2,1.2-0.3,1.9-0.5c0.3,1.2,0.6,2.3,1,3.6c-0.7,0.2-1.3,0.3-2,0.5
		C146.7,263.4,146.4,262.3,146.1,261.1z"/>
	<path class="st3" d="M141.6,234.7c-0.8,0.1-1.3,0.2-1.9,0.3c-0.3-1.2-0.6-2.3-1-3.6c0.7-0.1,1.3-0.3,2-0.4
		C140.9,232.3,141.2,233.4,141.6,234.7z"/>
	<path class="st3" d="M143.5,242.1c-0.8,0.1-1.3,0.2-2,0.3c-0.3-1.2-0.6-2.3-1-3.6c0.7-0.1,1.3-0.2,2-0.4
		C142.8,239.7,143.1,240.8,143.5,242.1z"/>
	<path class="st3" d="M150.9,271.6c-0.6,0.2-1.1,0.3-1.9,0.6c-0.3-1.3-0.7-2.4-1-3.7c0.7-0.2,1.2-0.3,1.9-0.5
		C150.3,269.3,150.6,270.4,150.9,271.6z"/>
	<path class="st3" d="M149.9,276c0.7-0.2,1.2-0.4,1.9-0.6c0.3,1.3,0.6,2.4,1,3.6c-0.6,0.2-1.1,0.3-1.6,0.5
		C150.3,278.5,150.4,277.3,149.9,276z"/>
	<path class="st3" d="M200.6,169.4c0,3.9,0,7.6,0,11.4c-1,0-1.8,0-2.9,0c0-3.7,0-7.4,0-11.2c-2.3,0-4.4,0-6.6,0
		c-1.1,3.7-2.1,7.4-3.3,11.2c-1,0-2,0-3.2,0c-0.8-2.9-1.5-5.9-2.4-9.2c-0.8,1.7-1,3.3-1.4,4.7c-0.4,1.5-0.8,2.9-1.2,4.5
		c-1.1,0-2,0-3.2,0c-1.3-4.5-2.6-9.1-4-13.8c1.2,0,2.2,0,3.3,0c0.8,3.2,1.5,6.3,2.3,9.4c1.3-3,1.9-6.2,2.9-9.3c0.7,0,1.4,0,2.3,0
		c0.8,3.1,1.7,6.3,2.6,9.4c0.1,0,0.2,0,0.3,0c0.8-3.1,1.5-6.2,2.3-9.4c5.4,0,10.6,0,16.1,0c0,0.7,0,1.5,0,2.4
		C203.4,169.4,202.2,169.4,200.6,169.4z"/>
	<path class="st3" d="M227.5,169.8c-0.7,0.4-1.4,0.8-2.1,1.2c-0.3-0.3-0.7-0.6-1-0.8c-1.4-1.1-2.9-1.2-4.5-0.5c-2.3,1-3.2,4.1-2,6.4
		c1.1,2.2,3.8,3.1,6.1,1.9c1-0.5,1.1-1.2,0.7-2.3c-1.1,0-2.2,0-3.4,0c0-0.9,0-1.7,0-2.5c2.1,0,4.2,0,6.5,0c0,1.7,0.1,3.3,0,4.9
		c0,0.4-0.5,0.9-0.8,1.2c-2.3,1.9-5,2.2-7.8,1.3c-0.5-0.1-0.9-0.4-1.5-0.6c-0.8,1.2-1.9,0.8-3.2,0.7c-0.1-4.6,0-9.1,0-13.8
		c1.2-0.1,2.4-0.6,3.2,0.6C222.3,165.9,225.7,166.6,227.5,169.8z"/>
</g>
</svg>
