<?xml version="1.0" encoding="utf-8"?>
<!-- Generator: Adobe Illustrator 24.1.3, SVG Export Plug-In . SVG Version: 6.00 Build 0)  -->
<svg version="1.1" id="Layer_1" xmlns="http://www.w3.org/2000/svg" xmlns:xlink="http://www.w3.org/1999/xlink" x="0px" y="0px"
	 viewBox="0 0 146 172" style="enable-background:new 0 0 146 172;" xml:space="preserve">
<style type="text/css">
	.st0{fill:#222222;stroke:#222222;stroke-width:3;stroke-miterlimit:10;}
</style>
<g>
	<path class="st0" d="M51.8,43.7c0.5,0,0.9,0,1.4,0c10.8,0,21.6,0,32.5,0c14.9,0,29.7,0,44.6,0c1.7,0,3.1,1,3,3.1
		c-0.4,6.1-0.7,12.2-1,18.3c-0.2,4.2-0.5,8.4-0.7,12.7c-0.3,5.4-0.6,10.8-0.9,16.2c-0.3,6.2-0.7,12.4-1,18.7
		c-0.4,7.1-0.8,14.2-1.2,21.3c-0.2,4.4-0.5,8.8-0.7,13.2c-0.2,3.4-0.2,6.8-0.6,10.1c-0.6,5.7-5.5,9.9-11.3,9.9c-5.6,0-11.1,0-16.7,0
		c-15.3,0-30.6,0-45.9,0c-8.1,0-16.2,0-24.4,0c-6.9,0-11.6-4.6-12-11.5c-0.2-4.3-0.4-8.6-0.7-12.9c-0.3-5.5-0.6-11-0.9-16.5
		c-0.3-5.5-0.6-11-0.9-16.5c-0.3-5-0.5-10-0.8-15c-0.3-6.3-0.7-12.6-1.1-19c-0.2-4.2-0.4-8.4-0.7-12.6c-0.3-4.7-0.5-9.4-0.8-14.1
		c0-0.1,0-0.3,0-0.2c-1.2-0.5-2.4-0.9-3.4-1.6c-1.6-0.9-2.5-2.4-2.8-4.2c-0.4-2.6-0.8-5.3-1-7.9c-0.3-3.7,2.3-6.7,6-7.2
		c6.8-0.9,13.6-1.8,20.4-2.6c5.8-0.7,11.5-1.5,17.3-2.2c0.1,0,0.2,0,0.5-0.1c-0.2-1.4-0.4-2.8-0.6-4.2c-0.2-1.7-0.5-3.3,0.2-5
		c1.2-2.9,3.3-4.4,6.4-4.8c7.2-0.9,14.3-1.9,21.5-2.8c3.7-0.5,7.4-0.9,11-1.4c3.8-0.5,7.4,2.3,7.8,6.1c0.2,2,0.5,3.9,0.8,6
		c3.4-0.4,6.8-0.9,10.2-1.3c3.5-0.4,7-0.9,10.6-1.3c4.7-0.6,9.3-1.2,14-1.8c1.8-0.2,3.7-0.5,5.6-0.3c2.8,0.2,5.2,2.8,5.5,5.6
		c0.3,2.2,0.6,4.5,0.9,6.7c0.6,4.1-1.9,7.5-6.1,8c-7.4,0.9-14.7,1.9-22.1,2.8c-7.3,0.9-14.7,1.9-22,2.8c-7.4,1-14.8,1.9-22.2,2.9
		c-5.9,0.8-11.9,1.5-17.8,2.3C51.8,43.6,51.8,43.6,51.8,43.7z M16.1,48.6c0,0.4,0,0.7,0,1c0.3,6.1,0.7,12.3,1,18.4
		c0.3,4.8,0.5,9.5,0.8,14.3c0.4,7,0.8,14,1.2,21c0.3,5.6,0.6,11.1,0.9,16.7c0.3,6,0.7,12,1,18s0.6,11.9,1,17.9
		c0.1,1.4,0.5,2.6,1.4,3.6c1.5,1.8,3.4,2.4,5.6,2.4c28.3,0,56.6,0,85,0c0.8,0,1.6,0,2.4,0c3.3-0.1,5.9-2.8,6.1-6.1
		c0.1-2.1,0.2-4.2,0.4-6.3c0.2-4.4,0.5-8.8,0.7-13.1c0.3-5.2,0.5-10.3,0.8-15.5c0.3-5.3,0.6-10.6,0.9-15.9c0.3-6.3,0.6-12.5,1-18.8
		c0.3-6.2,0.7-12.5,1-18.7c0.3-5.3,0.6-10.6,0.9-15.9c0.1-1,0.1-2,0.1-3C90.8,48.6,53.5,48.6,16.1,48.6z M11.8,43.6
		c0.1,0,0.3,0,0.5,0c6.6-0.8,13.2-1.7,19.8-2.5c7-0.9,14-1.8,21-2.7c6.5-0.8,12.9-1.6,19.4-2.5c5.3-0.7,10.7-1.4,16-2.1
		c6.7-0.9,13.5-1.7,20.2-2.5c6.4-0.8,12.8-1.6,19.1-2.5c2.5-0.3,5-0.6,7.6-1c1.3-0.2,1.9-1,1.7-2.3c-0.3-2.1-0.6-4.3-0.8-6.4
		c-0.2-1.6-0.9-2.2-2.6-2c-1,0.1-2,0.3-3,0.4c-6.4,0.8-12.9,1.6-19.3,2.4c-5,0.6-9.9,1.3-14.9,1.9c-6.8,0.9-13.5,1.7-20.3,2.6
		c-3.8,0.5-7.6,1-11.3,1.5c-4.8,0.6-9.5,1.2-14.3,1.8c-3.9,0.5-7.7,1-11.6,1.5s-7.9,1-11.8,1.5c-3.4,0.4-6.8,0.9-10.3,1.3
		c-2.2,0.3-4.3,0.5-6.5,0.8c-1,0.1-1.7,1-1.6,1.9c0.3,2.4,0.6,4.8,0.9,7.2C9.9,43.1,10.6,43.7,11.8,43.6z M52.9,22.6
		c12.5-1.6,25-3.2,37.4-4.8c-0.3-2.1-0.5-4.1-0.8-6.1c-0.2-1-1.1-1.7-2.1-1.7c-0.5,0-1,0.1-1.5,0.2c-4.4,0.5-8.7,1.1-13.1,1.6
		c-3.5,0.4-7,0.9-10.5,1.4c-2.7,0.4-5.4,0.7-8.2,1.1c-1.2,0.2-2.1,1.2-2,2.3C52.4,18.5,52.7,20.5,52.9,22.6z"/>
	<path class="st0" d="M40.6,68.1c0.4,7.2,0.8,14.4,1.2,21.6c0.3,6.1,0.6,12.1,1,18.2c0.3,4.9,0.5,9.8,0.8,14.7
		c0.4,7.3,0.8,14.5,1.2,21.8c0.1,1.8,0.2,3.6,0.2,5.4c0,1.4-1,2.4-2.3,2.5s-2.4-0.9-2.5-2.3c-0.4-6.6-0.7-13.2-1.1-19.8
		c-0.5-9.1-1-18.2-1.5-27.4c-0.3-6.4-0.6-12.8-1-19.1c-0.3-5.2-0.6-10.4-0.9-15.6c-0.1-2.1-0.3-4.1-0.3-6.2c0-1,0.4-1.8,1.2-2.3
		c0.9-0.5,1.7-0.5,2.6,0.1c0.7,0.5,1.1,1.2,1.2,2.1C40.4,63.8,40.5,65.9,40.6,68.1L40.6,68.1z"/>
	<path class="st0" d="M108.7,66.7c-0.4,8.2-0.9,16.3-1.3,24.5c-0.3,5.8-0.6,11.5-0.9,17.3c-0.4,7.7-0.8,15.4-1.3,23.1
		c-0.3,6.1-0.7,12.1-1,18.2c-0.1,1.5-1.3,2.5-2.5,2.5c-1.5-0.1-2.4-1.1-2.4-2.7c0.2-4.4,0.5-8.9,0.7-13.3c0.2-4.3,0.5-8.6,0.7-12.9
		c0.3-6.2,0.7-12.5,1-18.7c0.3-5.5,0.5-10.9,0.8-16.4c0.4-7.1,0.8-14.1,1.2-21.2c0.1-1.9,0.2-3.7,0.3-5.6c0.1-1.3,1.1-2.3,2.4-2.2
		c1.3,0,2.4,1.1,2.4,2.5C108.9,63.3,108.8,65,108.7,66.7L108.7,66.7z"/>
	<path class="st0" d="M74.6,105.7c0,12.4,0,24.8,0,37.2c0,2.3,0,4.6,0,6.8c0,1.8-1.5,2.8-3.2,2.3c-1-0.3-1.6-1.2-1.7-2.4
		c0-2.6,0-5.2,0-7.8c0-8.5,0-17,0-25.5c0-10.7,0-21.5,0-32.2c0-7.5,0-14.9,0-22.4c0-1.3,0.6-2.2,1.8-2.5c1-0.3,2.1,0.1,2.7,1
		c0.2,0.4,0.4,0.9,0.4,1.4c0,7.6,0,15.3,0,22.9C74.6,91.5,74.6,98.6,74.6,105.7z"/>
</g>
</svg>
