<?xml version="1.0" encoding="utf-8"?>
<!-- Generator: Adobe Illustrator 24.1.3, SVG Export Plug-In . SVG Version: 6.00 Build 0)  -->
<svg version="1.1" id="Layer_1" xmlns="http://www.w3.org/2000/svg" xmlns:xlink="http://www.w3.org/1999/xlink" x="0px" y="0px"
	 viewBox="0 0 400 172" style="enable-background:new 0 0 400 172;" xml:space="preserve">
<style type="text/css">
	.st0{fill:#222222;}
</style>
<image style="overflow:visible;opacity:0.15;" width="2066" height="819" xlink:href="B4FA02BD.jpg"  transform="matrix(0.1827 0 0 0.1827 11.2236 11.1656)">
</image>
<g>
	<path class="st0" d="M3,2.9c131.3,0,262.7,0,394,0c0,55.4,0,110.9,0,166.3c-131.3,0-262.7,0-394,0C3,113.7,3,58.3,3,2.9z
		 M387.8,160c0-49.4,0-98.7,0-148c-125.3,0-250.4,0-375.6,0c0,49.4,0,98.6,0,148C137.4,160,262.6,160,387.8,160z"/>
	<path class="st0" d="M142.7,103.9c0-12.2,0-24.3,0-36.5c0.4,0,0.7,0,1,0c4.7,0,9.4-0.1,14.1,0c4,0.1,7.8,1.1,11.2,3.4
		c3.6,2.5,5.9,5.9,6.9,10.2c1.1,4.7,0.7,9.3-1.5,13.6c-2.3,4.4-6,7.2-10.8,8.5c-2.5,0.7-5,0.9-7.6,0.9c-4.1,0-8.2,0-12.2,0
		C143.4,103.9,143.1,103.9,142.7,103.9z M150.5,96.8c3.1,0,6.1,0.3,9-0.1c3.7-0.4,6.3-2.6,7.9-6c1.2-2.7,1.4-5.6,0.6-8.5
		c-1.3-4.8-4.6-7.3-9.2-7.9c-2.7-0.3-5.5,0-8.2,0c0,0-0.1,0.1-0.1,0.1C150.5,81.9,150.5,89.4,150.5,96.8z"/>
	<path class="st0" d="M210.1,90.5c-3.3,0-6.4,0-9.6,0c0-2.3,0-4.5,0-6.8c5.8,0,11.6,0,17.4,0c0,0.3,0.1,0.5,0.1,0.8
		c0,4.1,0,8.3,0,12.4c0,0.4-0.2,0.8-0.4,1.1c-3.2,3.4-7.1,5.5-11.7,6.2c-5.2,0.8-10.2,0-14.7-2.9c-4.5-2.9-7.1-7-7.9-12.3
		c-0.7-4.4-0.1-8.6,1.9-12.5c1.6-3,3.9-5.3,6.9-7c3.7-2.1,7.7-2.9,11.9-2.6c3.6,0.2,7,1.3,9.8,3.8c1.4,1.3,2.6,2.7,4,4.1
		c-2.4,1.3-4.5,2.4-6.5,3.5c-1.1-1-2-2.1-3.2-2.9c-3.2-2.1-6.7-2.3-10.2-0.8c-4,1.7-6.1,4.8-6.7,9.1c-0.6,4.1,0.4,7.8,3.3,10.7
		c2,2,4.6,3,7.4,3.1c2.8,0.1,5.4-0.6,7.7-2.2c0.3-0.2,0.5-0.5,0.6-0.8C210.1,93.2,210.1,92,210.1,90.5z"/>
	<path class="st0" d="M133.4,81.8c0,2.4,0,4.6,0,6.9c-5.9,0-11.7,0-17.6,0c0,2.8,0,5.4,0,8.2c6,0,11.9,0,18,0c0,2.3,0,4.6,0,6.9
		c-8.6,0-17.2,0-25.8,0c0-12.1,0-24.2,0-36.4c8.6,0,17.2,0,25.8,0c0,2.2,0,4.5,0,6.8c-5.9,0-11.9,0-18,0c0,2.6,0,5,0,7.6
		C121.7,81.8,127.5,81.8,133.4,81.8z"/>
	<path class="st0" d="M226.9,103.8c0-12.2,0-24.2,0-36.4c8.6,0,17.2,0,25.8,0c0,2.2,0,4.5,0,6.8c-6,0-11.9,0-17.9,0c0,2.5,0,5,0,7.5
		c5.8,0,11.7,0,17.6,0c0,2.3,0,4.6,0,6.9c-5.9,0-11.7,0-17.6,0c0,2.8,0,5.5,0,8.3c6,0,12,0,18,0c0,2.3,0,4.5,0,6.9
		C244.2,103.8,235.6,103.8,226.9,103.8z"/>
	<path class="st0" d="M288.3,72c-1.4,1.9-2.8,3.7-4.2,5.7c-1.8-1.6-3.9-2.7-6.3-3.3c-2.4-0.6-4.8-0.9-7.2-0.1
		c-1.4,0.4-2.4,1.7-2.5,2.9c-0.1,1.2,0.7,2.3,2,2.7c2.7,0.8,5.3,1.5,8,2.2c3.1,0.9,6.2,1.8,8.5,4.2c2.1,2.2,2.8,4.9,2.4,8
		c-0.2,1.9-0.8,3.5-1.9,5.1c-1.7,2.3-4,3.7-6.7,4.5c-2.6,0.7-5.3,0.9-8,0.7c-3.7-0.3-7.3-1.2-10.4-3.3c-1.1-0.7-2.1-1.7-3.1-2.5
		c1.4-2,2.8-3.9,4.1-5.7c1.7,1.1,3.3,2.3,5.1,3.2c3,1.5,6.2,1.8,9.5,1.2c1.5-0.3,2.8-1,3.5-2.6c0.5-1.2,0.2-2.5-0.9-3.2
		c-1.8-1.3-4-1.7-6.1-2.2c-3.5-0.8-7-1.6-10-3.6c-2.1-1.5-3.4-3.5-3.8-6.1c-0.8-4.7,2-8.9,5.8-10.9c3.1-1.6,6.5-2.1,9.9-1.8
		c3.9,0.3,7.6,1.4,10.8,3.8C287.2,71,287.7,71.5,288.3,72z"/>
</g>
</svg>
