<?xml version="1.0" encoding="utf-8"?>
<!-- Generator: Adobe Illustrator 24.1.3, SVG Export Plug-In . SVG Version: 6.00 Build 0)  -->
<svg version="1.1" id="Layer_1" xmlns="http://www.w3.org/2000/svg" xmlns:xlink="http://www.w3.org/1999/xlink" x="0px" y="0px"
	 viewBox="0 0 400 400" style="enable-background:new 0 0 400 400;" xml:space="preserve">
<style type="text/css">
	.st0{fill:#FFFFFF;}
	.st1{display:none;}
	.st2{display:inline;fill:#222222;}
	.st3{fill:#222222;}
	.st4{fill:#ADADAD;}
</style>
<circle class="st0" cx="200" cy="200" r="152.5"/>
<g class="st1">
	<path class="st2" d="M196.2,17c0.1,2,0.1,4,0.3,6c0.4,4.8,0.9,9.7,1.3,14.5c0,0.6,0,1.1,0,1.8c-1.4,0.1-2.8,0.3-4.5,0.4
		c-0.6-3-0.6-6.1-0.9-9.3c-0.6,0-1.2,0-1.8,0c-2.5,0.2-5,0.4-7.5,0.7c-1.2,0.1-1.4,0.3-1.3,1.6c0.3,2.6,0.5,5.2,0.7,8
		c-1.6,0.1-3,0.2-4.7,0.4c-0.6-7.4-1.3-14.7-1.9-22.2c1.6-0.2,3-0.3,4.6-0.5c0.3,2.9,0.5,5.7,0.8,8.8c3.4-0.3,6.8-0.6,10.4-0.8
		c0.3-2.9-0.4-5.7-0.4-8.7c1.1-0.2,2.3-0.4,3.5-0.6C195.3,17,195.7,17,196.2,17z"/>
	<path class="st2" d="M27.5,139.3c0.3-0.4,0.7-0.9,0.9-1.3c0.5-1.1,0.9-2.1,1.5-3.4c5.9,0.3,11.9,0.7,17.9,1
		c0.1-0.1,0.1-0.2,0.2-0.3c-4.3-4-8.6-8-13.1-12.2c0.6-1.5,1.3-3.1,2-4.8c0.4,0.3,0.7,0.5,1,0.8c4.9,4.8,9.8,9.5,14.6,14.3
		c0.5,0.5,1.1,1,1.6,1.5c-0.6,1.5-1.3,2.9-1.8,4.4c-0.3,0.8-0.8,1.1-1.6,1.1c-2.8-0.1-5.6-0.2-8.4-0.3c-4.6-0.1-9.1-0.3-13.7-0.4
		c-0.3,0-0.7,0.1-1,0.1C27.5,139.6,27.5,139.4,27.5,139.3z"/>
	<path class="st2" d="M194.8,383c-1.2-4.6-2.4-9.2-3.6-13.9c0.6,0,1.2,0,1.8,0c0.9,3.7,1.8,7.3,2.7,11c0.1,0,0.2,0,0.4,0
		c1.1-3.6,2.2-7.3,3.2-10.9c0.5,0,0.9,0,1.4,0c1,3.7,1.9,7.3,2.9,11c1.5-3.5,2.3-7.3,3.5-10.9c0.6,0,1.1,0,1.8,0
		c-0.8,2.8-1.7,5.5-2.5,8.2c-0.5,1.8-1,3.6-1.5,5.5c-0.7,0-1.3,0-2,0c-0.9-3.6-1.8-7.1-2.7-10.7c-0.5,0.6-0.7,1.1-0.9,1.7
		c-0.6,2.1-1.2,4.2-1.8,6.3c-0.2,0.9-0.4,1.8-0.6,2.7C196.2,383,195.5,383,194.8,383z"/>
	<path class="st2" d="M201.5,47c50.6,0.1,97.8,25.6,125.9,68.3c12,18.2,19.8,38.2,23.5,59.7c1.9,11,2.5,22,2,33.1
		c-2.7,59.2-37.9,109.1-87.5,132.6c-14,6.6-28.7,11-44.1,13c-9,1.2-18.1,1.7-27.1,1.2c-38.5-2.2-71.6-16.8-99-43.9
		c-22.4-22.1-36.5-49-42.7-80c-2.4-12.2-3.4-24.6-2.7-37.1c2.7-46.2,21.7-84.3,57.5-113.6C127,64.1,149.7,54,174.8,49.4
		C183.7,47.8,192.6,47.1,201.5,47z M349.7,204.6c0-11.1-0.6-18.7-1.7-26.3c-2-13.3-5.7-26.1-11.1-38.4c-21.9-50.1-69-84.2-123-88.9
		c-11.3-1-22.6-0.7-33.8,1c-15.2,2.2-29.6,6.7-43.4,13.5c-46.1,22.7-79.5,69.4-83.3,125.1c-1,14-0.1,28,2.9,41.8
		c7.4,34.5,24.6,63.2,51.8,85.7c25.1,20.7,54,31.8,86.5,33.4c13.6,0.7,27-0.5,40.2-3.7c30.3-7.2,55.9-22.5,76.6-45.8
		C336.8,273.3,349.2,239.5,349.7,204.6z"/>
	<path class="st2" d="M313.6,84.3c-1.3-1.1-2.4-2-3.6-3c3.2-3.9,6.3-7.7,9.5-11.5c-0.1-0.1-0.1-0.2-0.2-0.3
		c-4.7,2.6-9.5,5.1-14.2,7.7c-0.5-0.4-1-0.8-1.5-1.3c1.6-5.1,3.2-10.3,4.9-15.4c-0.1-0.1-0.2-0.1-0.3-0.2c-3.1,3.8-6.3,7.6-9.5,11.5
		c-1.2-1-2.4-2-3.6-3c4.8-5.7,9.4-11.4,14.2-17.2c1.6,1.3,3.1,2.5,4.5,3.7c0.6,0.5,0.4,1.1,0.2,1.7c-0.5,1.8-1.1,3.5-1.7,5.3
		c-0.6,2-1.3,3.9-1.9,5.9c-0.1,0.4-0.2,0.7-0.3,1.5c4.4-2.4,8.5-4.6,12.7-6.9c1.6,1.3,3.3,2.7,5.1,4.2
		C323.1,72.9,318.4,78.5,313.6,84.3z"/>
	<path class="st2" d="M153.4,32.1c1.1,4.5,2.2,8.9,3.4,13.6c-1.5,0.4-2.9,0.8-4.5,1.2c-1.8-7.2-3.6-14.4-5.4-21.6
		c1.4-0.4,2.8-0.8,4.1-1c0.5-0.1,1.1,0.3,1.6,0.7c3.6,2.9,7.1,5.8,10.6,8.7c0.5,0.4,0.9,0.7,1.8,1.4c-0.9-4.8-2.3-9-3.2-13.5
		c1.5-0.4,2.8-0.7,4.4-1.2c1.8,7.2,3.6,14.3,5.5,21.6c-1.4,0.3-2.6,0.7-3.9,0.9c-0.4,0.1-1-0.3-1.4-0.6c-2.7-2.2-5.4-4.5-8.1-6.7
		c-1.5-1.2-3-2.5-4.5-3.7C153.6,32,153.5,32,153.4,32.1z"/>
	<path class="st2" d="M346.1,101.3c-3.9,2.5-7.8,5-11.8,7.6c-0.8-1.3-1.6-2.5-2.5-3.9c6.2-4.1,12.4-8,18.7-12.2
		c0.8,1.3,1.7,2.4,2.3,3.7c0.2,0.3,0,1-0.1,1.4c-1.6,4.4-3.3,8.8-4.9,13.2c-0.2,0.5-0.3,1-0.4,1.6c3.9-2.1,7.5-4.6,11.4-7
		c0.8,1.2,1.6,2.5,2.6,3.9c-6.2,4-12.4,8-18.7,12.1c-0.8-1.2-1.5-2.2-2.2-3.3c-0.4-0.6-0.1-1.1,0.1-1.6c1.7-4.4,3.4-8.9,5.1-13.3
		c0.3-0.7,0.5-1.3,0.7-2C346.3,101.5,346.2,101.4,346.1,101.3z"/>
	<path class="st2" d="M233.1,42.6c-1.6-0.4-2.9-0.7-4.5-1c1.6-7.2,3.3-14.4,5-21.7c1.6,0.3,3,0.6,4.3,1c0.4,0.1,0.7,0.8,0.9,1.3
		c1.9,4.3,3.7,8.6,5.6,12.9c0.2,0.4,0.4,0.9,1,1.3c1-4.3,2-8.6,3.1-13.1c1.5,0.3,2.9,0.7,4.5,1c-1.6,7.3-3.4,14.4-5,21.7
		c-1.4-0.3-2.7-0.5-3.9-0.9c-0.4-0.1-0.8-0.8-1-1.2c-1.5-3.5-3-7-4.5-10.5c-0.6-1.5-1.3-2.9-1.9-4.4c-0.1,0-0.3,0-0.4,0
		C235.2,33.5,234.2,38,233.1,42.6z"/>
	<path class="st2" d="M43.9,106.4c1-1.7,2-3.3,3.1-5c7.7,1.5,15.4,3,23.3,4.5c-0.7,1.6-1.7,2.9-2.5,4.2c-0.1,0.2-0.5,0.2-0.7,0.3
		c-0.1,0-0.3-0.1-0.5-0.1c-1-0.1-2.1-0.6-2.9-0.3c-0.7,0.3-1.1,1.5-1.6,2.3c-1.1,1.7-2.1,3.4-3.2,5.1c-0.1,0.1-0.1,0.3-0.2,0.5
		c0.8,1,1.6,2.1,2.4,3.2c-0.9,1.5-1.8,2.9-2.8,4.5C53.4,119.1,48.7,112.8,43.9,106.4z M59.6,108.5c-3.4-0.7-6.5-1.4-10-2.1
		c2.1,2.9,4.1,5.5,6.3,8.1C57.1,112.4,58.3,110.5,59.6,108.5z"/>
	<path class="st2" d="M217.8,18c2.3,7.6,4.6,15.1,6.9,22.8c-1.9-0.1-3.5-0.3-5.3-0.4c-0.4-1.3-0.8-2.6-1.2-3.9
		c-3.2-0.2-6.3-0.4-9.5-0.7c-0.5,1.1-1.1,2.2-1.8,3.6c-1.6-0.1-3.3-0.2-5.2-0.3c0.7-1.6,1.4-3.1,2-4.5c2.5-5.3,5-10.6,7.5-15.9
		c0.5-1,1.1-1.3,2.1-1.2C214.8,17.8,216.2,17.9,217.8,18z M214.7,22.9c-0.1,0-0.3,0-0.4,0c-1.3,2.9-2.6,5.8-4,8.9
		c2.5,0.2,4.7,0.4,7.1,0.5C216.4,29.1,215.6,26,214.7,22.9z"/>
	<path class="st2" d="M334.6,74.1c3.5,3.9,6.9,7.8,10.4,11.8c-1,0.9-2,1.8-3,2.7c-2.5-2.8-4.8-5.5-7.3-8.3c-1.2,1-2.3,2-3.6,3.1
		c2.2,2.9,4.8,5.4,7,8.2c-1,0.9-1.9,1.7-3,2.7c-2.4-2.7-4.7-5.3-7.2-8.1c-1.3,1.1-2.5,2.1-3.8,3.4c2.4,2.8,4.8,5.5,7.2,8.3
		c-1,0.9-2,1.8-3,2.8c-3.5-3.9-6.9-7.8-10.4-11.9C323.5,83.9,329,79.1,334.6,74.1z"/>
	<path class="st2" d="M276.7,57.9c3.8-6.4,7.5-12.7,11.3-19.2c4.5,2.6,9,5.3,13.6,8c-0.7,1.2-1.3,2.3-2.1,3.5
		c-3.2-1.9-6.3-3.7-9.5-5.6c-0.8,1.4-1.6,2.7-2.4,4.1c3.1,1.8,6.1,3.6,9.3,5.5c-0.7,1.2-1.3,2.3-2,3.5c-3.1-1.8-6.1-3.6-9.4-5.5
		c-0.9,1.4-1.7,2.8-2.6,4.4c3.2,1.9,6.3,3.8,9.5,5.7c-0.7,1.2-1.3,2.3-2.1,3.5C285.7,63.2,281.3,60.5,276.7,57.9z"/>
	<path class="st2" d="M129.8,36.2c0.7,1.6,1.2,2.9,1.8,4.4c3.3-1.4,6.6-2.7,10-4.1c0.5,1.3,1,2.4,1.5,3.8c-3.3,1.4-6.6,2.8-10,4.2
		c0.7,1.6,1.3,3.1,2,4.7c3.4-1.4,6.8-2.8,10.2-4.2c0.5,1.3,1,2.5,1.5,3.8c-4.9,2-9.6,4-14.5,6c-2.9-6.9-5.7-13.6-8.6-20.6
		c4.8-2,9.6-4,14.5-6.1c0.5,1.3,1,2.4,1.6,3.8C136.6,33.4,133.3,34.8,129.8,36.2z"/>
	<path class="st2" d="M106.1,43.7c0.8,1.2,1.5,2.2,2.3,3.4c-3,2.1-6,4.1-9,6.1c0.6,1.5,1.6,2.7,2.5,4.1c3-2,5.9-3.9,9-6
		c0.8,1.1,1.5,2.2,2.3,3.4c-3,2-5.9,4-8.9,6.1c0.9,1.4,1.8,2.7,2.8,4.2c3.1-2,6.1-4,9.2-6.1c0.8,1.1,1.5,2.2,2.3,3.4
		c-4.3,2.9-8.6,5.8-13,8.8C101.2,65,97.3,58.7,93,52.5C97.4,49.6,101.7,46.7,106.1,43.7z"/>
	<path class="st2" d="M70.6,71.7c1.2-1.1,2.3-2,3.5-3.1c1.3,1.4,2.5,2.6,3.7,3.9c1.7,1.9,3.5,3.8,5.2,5.7c3,3.3,6.2,2.1,8.2-0.2
		c1.6-1.8,1.8-3.9,0.4-5.8c-1.2-1.7-2.7-3.2-4-4.7c-1.8-2-3.6-4-5.5-6.1c1.2-1.1,2.3-2.1,3.5-3.2c1.5,1.6,2.9,3.1,4.3,4.6
		c1.5,1.7,3,3.3,4.5,5c0.8,1,1.7,2.1,2.2,3.3c1.2,2.6,0.9,5.1-0.5,7.5c-1.4,2.3-3.4,4.1-5.9,5.4c-3,1.5-7.1,1.1-9.6-1.6
		c-2.4-2.6-4.8-5.2-7.2-7.8C72.3,73.8,71.5,72.8,70.6,71.7z"/>
	<path class="st2" d="M271.5,47.6c1,1.1,1.9,2.1,2.8,3.1c-3.4,3.2-8.4,3.3-12.9,0.4c-4.5-3-6.3-8.2-4.6-13.2c2-5.5,6.6-8.5,12.2-7.8
		c5.1,0.6,9.3,3.9,9.9,9.4c-1.4,0.1-2.8,0.2-4.3,0.4c-0.1-0.4-0.2-0.6-0.2-0.8c-1.2-5-7.2-6-10.3-3.4c-2.4,2-3.6,4.6-3,7.7
		C261.9,47.8,266.9,50.8,271.5,47.6z"/>
	<path class="st2" d="M364.1,124.5c-0.9-2.1-1.8-4-2.7-6c1.3-0.6,2.4-1.1,3.7-1.7c2.5,5.4,4.9,10.7,7.3,16.2
		c-1.3,0.6-2.4,1.1-3.7,1.7c-0.9-2-1.8-3.9-2.8-5.9c-5.5,2.5-11,5-16.5,7.5c-0.7-1.4-1.3-2.8-1.9-4.3
		C353.1,129.5,358.5,127.1,364.1,124.5z"/>
	<path class="st2" d="M55.9,88.6c1-1.2,2-2.4,3-3.6c4.7,3.9,9.3,7.7,14,11.6c2.1-2.4,4-4.8,6.1-7.2c1.1,0.9,2,1.7,3.1,2.6
		c-3,3.6-6,7.2-9,10.9C67.3,98.1,61.7,93.4,55.9,88.6z"/>
	<path class="st2" d="M150.9,375.6c-0.4-3.8-0.8-7.6-1.2-11.5c-0.1,0-0.3,0-0.4,0c-1,3.3-2,6.6-3,10.1c-0.5-0.2-1-0.3-1.5-0.5
		c1.3-4.4,2.6-8.8,3.9-13.2c0.6,0.2,1.1,0.3,1.6,0.4c0.6,0.2,0.9,0.6,0.9,1.2c0.2,2.7,0.5,5.3,0.8,8c0.1,0.6,0.2,1.3,0.3,2.3
		c2.5-3.1,4.8-5.9,7.2-8.8c0.7,0.2,1.4,0.5,2.3,0.7c-1.3,4.4-2.6,8.7-3.9,13.2c-0.5-0.1-1-0.2-1.6-0.4c1-3.5,2-6.9,3.1-10.7
		c-0.6,0.5-0.9,0.8-1.1,1.1c-1.9,2.4-3.9,4.8-5.8,7.2C152,375.1,151.8,375.7,150.9,375.6z"/>
	<path class="st2" d="M245.8,377.4c-0.5,0.2-0.9,0.3-1.6,0.5c-1.3-4.4-2.5-8.8-3.7-13.2c1-0.7,1.7-0.6,2.5,0.1
		c2.6,2.1,5.3,4.1,7.9,6.2c0.5,0.4,1,0.7,1.7,0.9c-0.5-1.6-0.9-3.3-1.4-4.9c-0.4-1.6-0.9-3.2-1.4-5c0.5-0.2,0.9-0.3,1.5-0.5
		c1.3,4.5,2.5,8.8,3.8,13.2c-0.9,0.7-1.6,0.6-2.4,0c-2.8-2.3-5.7-4.5-8.6-6.7c-0.3-0.3-0.7-0.5-1.3-0.6
		C243.9,370.5,244.8,373.9,245.8,377.4z"/>
	<path class="st2" d="M175.4,376.4c0-4.7,1.8-7.4,4.8-8.3c4.6-1.3,9,1.6,8.9,6.8c0,2.3-0.8,4.4-2.7,5.9c-2.3,1.7-4.9,1.9-7.4,0.6
		C176.6,380.2,175.5,378,175.4,376.4z M187.6,374.5c-0.1-0.6-0.2-1.4-0.5-2.2c-1.3-3.3-5.7-4.1-8.2-1.6c-1.2,1.2-1.7,2.7-1.7,4.2
		c-0.1,2.1,0.6,3.9,2.4,5c1.8,1.1,3.6,1.1,5.4,0C186.8,378.8,187.4,376.9,187.6,374.5z"/>
	<path class="st2" d="M267.4,364.3c-1.7,0.6-3,1.1-4.5,1.6c-0.1-0.2-0.3-0.3-0.4-0.5s-0.1-0.4-0.3-0.8c2-0.8,3.9-1.5,5.9-2.3
		c0.6,1.5,1.2,2.8,1.6,4.3c0.1,0.4,0,0.9-0.2,1.2c-1.5,2.5-3.7,3.9-6.6,3.9c-2.8,0-4.8-1.4-6.1-4c-2.4-4.7,0.3-9.9,6.2-10.5
		c1.1-0.1,2.3,0.2,3.4,1c-0.2,0.3-0.4,0.7-0.7,1.1c-0.5-0.1-0.9-0.2-1.3-0.4c-3.8-1-7.3,2.2-6.6,6c0.6,3.3,2.9,5.3,6,5.1
		c0.4,0,0.9-0.2,1.3-0.3c1.4-0.4,2.6-1.2,2.9-2.5C268.3,366.6,267.7,365.5,267.4,364.3z"/>
	<path class="st2" d="M234.5,379.9c-1.2,0.6-1.9,0.4-2.6-0.4c-0.7-0.9-1.5-1.8-2.3-2.6c-1.4-1.6-1.8-1.7-4-0.7
		c0.2,1.6,0.5,3.3,0.7,5.1c-0.5,0.1-1,0.2-1.6,0.4c-0.7-4.6-1.4-9-2.2-13.6c0.4-0.2,0.8-0.3,1.1-0.4c1.4-0.2,2.7-0.4,4.1-0.7
		c2.4-0.4,4.2,0.6,4.9,2.7c0.7,2.2,0,3.9-2.2,5.1c-0.1,0.1-0.2,0.1-0.4,0.3C231.7,376.7,233,378.2,234.5,379.9z M225.3,374.4
		c1.5-0.3,2.8-0.4,4-0.7c1.5-0.4,2.3-1.7,2-3c-0.3-1.4-1.3-2.3-2.9-2.2c-1.3,0.1-2.5,0.3-4,0.5C224.8,370.8,225,372.5,225.3,374.4z"
		/>
	<path class="st2" d="M220.8,382c-3,0.2-5.9,0.5-8.9,0.7c-0.4-4.6-0.7-9.1-1.1-13.6c0.3-0.1,0.7-0.3,1-0.3c2.4-0.2,4.8-0.4,7.2-0.6
		c0.9-0.1,1.1,0.4,0.8,1.3c-2.3,0.2-4.7,0.5-7.3,0.7c0.1,1.5,0.3,2.9,0.4,4.5c1.3-0.1,2.5-0.1,3.6-0.2c0.9-0.1,1.9-0.2,2.8-0.2
		c0.8,0,1,0.4,0.8,1.3c-2.3,0.2-4.6,0.5-7.1,0.7c0.1,1.6,0.2,3,0.4,4.6c1.1,0.4,2.2,0.1,3.3,0s2.2-0.2,3.3-0.2
		C220.8,380.6,221,381,220.8,382z"/>
	<path class="st2" d="M136.9,362.5c2.3,0.9,4.5,1.8,6.7,2.7c-0.2,0.5-0.3,0.8-0.5,1.3c-2.3-0.9-4.4-1.7-6.8-2.6
		c-0.6,1.5-1.2,2.9-1.8,4.5c2.3,0.9,4.5,1.8,6.8,2.8c-0.1,0.4-0.3,0.8-0.5,1.3c-2.8-1.1-5.6-2.2-8.4-3.3c1.7-4.3,3.4-8.5,5.1-12.8
		c2.9,0.9,5.5,2.2,8.4,3.2c-0.2,0.5-0.3,0.9-0.5,1.3c-2.3-0.9-4.6-1.7-6.9-2.6C138,359.7,137.5,361,136.9,362.5z"/>
	<path class="st2" d="M164.9,373.6c-0.4,1.8-0.8,3.5-1.2,5.3c-0.5-0.1-1-0.2-1.6-0.3c0.9-4.6,1.8-9,2.8-13.6
		c2.3,0.5,4.4,0.8,6.5,1.5c2,0.7,2.9,2.8,2.4,4.8s-2.3,3.5-4.7,3.1c-0.7-0.1-1.3-0.2-2-0.3C166.4,373.9,165.8,373.7,164.9,373.6z
		 M165.1,372.1c1.5,0.3,2.7,0.6,4,0.8c1.4,0.2,2.5-0.6,2.9-1.8c0.4-1.5-0.1-2.9-1.5-3.3c-1.3-0.5-2.8-0.6-4.3-1
		C165.8,368.6,165.5,370.3,165.1,372.1z"/>
	<path class="st2" d="M240,378.8c-0.7,0.1-1.1,0.2-1.6,0.3c-1-4.5-1.9-8.9-2.9-13.4c0.5-0.2,1-0.3,1.6-0.5
		C238,369.7,239,374.1,240,378.8z"/>
	<path class="st2" d="M158.1,181.7c28.7,0,57,0,85.5,0c-0.2,0.6-0.3,1.2-0.4,1.7c-4.3,13-8.7,25.9-13,38.9
		c-8.2,24.5-16.4,49-24.6,73.6c-1.3,3.9-2.6,7.9-4,11.8c-0.1,0.4-0.4,0.9-0.7,1.3C186.5,266.6,172.3,224.3,158.1,181.7z"/>
	<path class="st2" d="M206.9,309.6c0.5-1.6,1-3.1,1.4-4.6c8.2-24.4,16.4-48.8,24.5-73.2c5.1-15.3,10.2-30.6,15.4-45.9
		c0.4-1.1,0.8-2.2,1.2-3.3c0.2-0.7,0.6-1.1,1.3-1c0.3,0,0.6,0,0.8,0c15.4,0,30.8,0,46.2,0c0.5,0,1,0,1.4,0c0.1,0.2,0.1,0.2,0.1,0.3
		s0,0.1,0,0.2c-0.1,0.2-0.3,0.5-0.4,0.7c-30.5,42.2-61,84.4-91.5,126.6C207.4,309.5,207.2,309.5,206.9,309.6z"/>
	<path class="st2" d="M194.6,309.6c-30.7-42.5-61.4-85-92.1-127.6c0.6-0.6,1.2-0.4,1.8-0.4c10.9,0,21.8,0,32.7,0c4.4,0,8.8,0,13.3,0
		c1.9,0,1.9,0,2.5,1.7c6.1,18.2,12.2,36.4,18.3,54.6c6,17.8,11.9,35.6,17.9,53.3c1.9,5.6,3.7,11.2,5.6,16.7c0.2,0.5,0.2,0.9,0.4,1.4
		C194.8,309.5,194.7,309.5,194.6,309.6z"/>
	<path class="st2" d="M160.9,175.6c13.3-14.7,26.6-29.4,40.1-44.3c13.5,14.9,26.8,29.6,40.4,44.6c-27,0-53.6,0-80.2,0
		C161,175.8,161,175.7,160.9,175.6z"/>
	<path class="st2" d="M154.3,174.2c-6.3-8.9-12.6-17.8-19.2-27c0.5-0.3,0.9-0.5,1.3-0.9c6.8-6,13.5-12.1,20.3-18.1
		c0.8-0.8,1.7-1.1,2.8-1.1c11.8,0,23.6,0,35.4,0c0.5,0,1.1,0,1.6,0.1c0.1,0.2,0.1,0.2,0.1,0.3c0,0.1,0,0.1,0,0.2
		c-13.9,15.4-27.8,30.7-41.6,46.1C154.9,173.8,154.7,173.9,154.3,174.2z"/>
	<path class="st2" d="M204.9,127.2c0.8-0.1,1.2-0.1,1.7-0.1c12,0,24.1,0,36.1,0c0.9,0,1.6,0.2,2.3,0.8c6.9,6.2,13.8,12.3,20.7,18.4
		c0.3,0.3,0.7,0.5,1.2,0.9c-6.5,9.1-12.8,18-19.3,27.1C233.3,158.6,219.2,143,204.9,127.2z"/>
	<path class="st2" d="M253.5,175.6c5.8-8.1,11.5-16.2,17.4-24.5c9.2,8.2,18.3,16.3,27.3,24.4c-0.1,0.2-0.1,0.3-0.2,0.3l-0.1,0.1
		c-11.2,0-22.4,0-33.6,0.1c-3.6,0-7.1,0-10.7,0C253.6,175.8,253.5,175.7,253.5,175.6z"/>
	<path class="st2" d="M103.5,175.8c9.2-8.3,18.3-16.3,27.5-24.6c6,8.2,11.7,16.3,17.5,24.5C147.1,176.1,106.2,176.1,103.5,175.8z"/>
</g>
<g>
	<path class="st3" d="M210.8,15.6c0.6,0.4,1.3,0.2,2,0.3c1.4,0.1,2.9,0.3,4.3,0.4c3.6,0.3,6.9,1.3,9.4,4.2c1.3,1.6,2.1,3.5,2.3,5.6
		c0.3,2.5-0.1,4.9-1.3,7.1c-1.6,3-4.1,4.7-7.4,5.4c-2.7,0.6-5.3,0.1-7.9-0.2c-1.5-0.2-2.9-0.3-4.4-0.3c-0.6,0-0.9-0.1-0.8-0.9
		c0.2-1.4,0.3-2.9,0.4-4.3c0.2-2,0.4-4.1,0.6-6.1c0.2-1.3,0.3-2.5,0.4-3.8c0.2-2.3,0.4-4.5,0.7-6.8c0-0.2,0-0.4,0-0.6
		C209.6,15.6,210.2,15.6,210.8,15.6z M224,27.5c0.1-0.5-0.1-1-0.2-1.6c-0.4-2.2-1.6-3.8-3.6-4.7s-4.3-0.7-6.4-1.1
		c-0.2,0-0.2,0.1-0.3,0.3c-0.2,0.7-0.1,1.4-0.2,2.1c-0.3,2.1-0.4,4.1-0.7,6.2c-0.2,1.5-0.2,3-0.5,4.5c-0.2,0.8,0.1,1.1,1,1.2
		c0.4,0,0.9,0,1.3,0.1c1.2,0.1,2.4,0.3,3.7,0.2C221.5,34.2,223.9,31,224,27.5z"/>
	<path class="st3" d="M363,113.3c-0.4,0.3-0.1,0.7-0.2,1.1c-1.1,3.8-5.1,6.3-9.1,5.3c-1-0.3-1.9-0.8-2.7-1.7
		c-0.8,1.5-1.6,2.9-2.4,4.4c-0.8,1.4-1.6,2.9-2.4,4.4c-0.9-1.6-1.8-3-2.6-4.5c-0.2-0.3-0.1-0.4,0.1-0.6c1.4-2.3,2.7-4.7,4.1-7
		c0.2-0.4,0.2-0.8,0-1.1c-0.4-0.6-0.7-1.1-1-1.7s-0.6-0.7-1.2-0.4c-1.9,1.2-3.9,2.3-5.9,3.5c-0.3,0.2-0.4,0.2-0.6-0.1
		c-0.6-1.2-1.3-2.3-2-3.4c-0.2-0.4-0.1-0.5,0.1-0.6c3.5-2,7-4.1,10.5-6.1c2.7-1.6,5.5-3.2,8.2-4.8c0.3-0.2,0.5-0.2,0.6,0.1
		c1.8,3.3,3.9,6.4,5.6,9.8c0.4,0.8,0.4,1.8,0.8,2.6C363,112.6,363,113,363,113.3z M358.2,112.1c0-0.2,0-0.4,0-0.5
		c-0.7-2-2-3.7-3-5.6c-0.1-0.2-0.2-0.1-0.4,0c-1.5,0.9-3,1.7-4.4,2.6c-0.3,0.2-0.6,0.3-0.3,0.8c0.9,1.4,1.7,2.9,2.6,4.3
		c0.8,1.1,2.1,1.6,3.5,1.2C357.3,114.6,358.2,113.3,358.2,112.1z"/>
	<path class="st3" d="M37,114.2c0.7-0.6,0.9-1.5,1.4-2.3s0.9-1.7,1.4-2.5c0.2-0.3,0.3-0.4,0.7-0.3c1.4,0.3,2.8,0.4,4.2,0.6
		c2,0.3,3.9,0.5,5.9,0.8c1.9,0.3,3.8,0.5,5.7,0.7c1.8,0.2,3.6,0.6,5.5,0.8c0.7,0.1,1.5,0.2,2.3,0.2c-0.9,1.6-1.7,3.1-2.6,4.6
		c-0.3,0.5-1,0.1-1.4,0c-0.8-0.2-1.6-0.2-2.4-0.4c-0.3-0.1-0.3,0.2-0.5,0.4c-1.2,2.3-2.5,4.6-3.7,6.8c0,0.1-0.1,0.1-0.1,0.2
		c-0.6,1.1-0.6,1.1,0.3,2.1c0.5,0.5,0.9,1,1.3,1.5c0.3,0.4,0.4,0.7,0.1,1.3c-0.8,1.3-1.5,2.7-2.3,4.2c-1.3-1.6-2.5-3.2-3.9-4.7
		c-1-1.2-2-2.4-3-3.6c-1.7-2-3.4-4.1-5.1-6.1c-1.2-1.4-2.2-2.9-3.6-4.1C37,114.3,37,114.2,37,114.2z M49.6,121.7
		c1-1.7,1.9-3.3,2.8-5c0.6-1.1,0.6-1.1-0.7-1.3c-0.3,0-0.5-0.1-0.8-0.2c-1.7-0.2-3.3-0.6-5-0.8c-1-0.1-1.9-0.5-3-0.4
		C45.2,116.6,47.4,119.1,49.6,121.7z"/>
	<path class="st3" d="M197.4,384.4c-0.8-0.4-1.8-0.6-2.5-1.2c-1-0.8-1.5-1.9-1.7-3.1c-0.4-3.2,0.2-6.4,0-9.6c0-0.4,0.1-0.5,0.5-0.5
		c1.2-0.1,1.2-0.1,1.2,1.2c0,2.6,0,5.2,0,7.9c0,2.4,1.4,3.6,3.3,3.8c2.2,0.3,3.6-0.5,4.4-2.6c0.2-0.6,0.3-1.3,0.2-2
		c0-1.2,0-2.3,0-3.5c-0.1-1.4,0.3-2.8,0.2-4.2c0-0.7,0.5-0.4,0.8-0.4c0.8-0.1,1,0.1,1,0.9c-0.1,1.5,0.1,3-0.1,4.5
		c-0.2,1.7,0.2,3.5-0.4,5.2c-0.6,1.9-1.8,3.1-3.8,3.4c-0.1,0-0.1,0.1-0.2,0.2C199.3,384.4,198.3,384.4,197.4,384.4z"/>
	<path class="st3" d="M353.8,200.8c-0.4,37-11.7,70.1-35.1,98.8c-21.5,26.4-49,43.9-82.1,52.1c-13.7,3.4-27.6,4.7-41.8,4.2
		C144.4,354,99.4,327,72.7,285.7C62,269.2,54.8,251.2,50.9,232c-2.6-13-3.7-26.2-2.9-39.5C50.7,150,67.6,114,99.1,85
		c19.9-18.3,43.3-30.2,69.7-36c13.2-2.9,26.7-4,40.2-3.2c34.6,2,65.1,14.4,91.3,37.1c24.5,21.3,40.7,47.8,48.8,79.2
		c2.5,9.5,3.9,19.3,4.5,29.1C353.7,194.4,353.8,197.6,353.8,200.8z M51.4,200.8c0,5.3,0.3,10.6,0.8,15.9c0.9,8.5,2.4,16.8,4.7,25.1
		c7,24.9,19.3,46.7,37.3,65.3c12.4,12.9,26.7,23.2,42.9,31c16.8,8,34.4,12.7,53,14.1c8.7,0.6,17.5,0.5,26.2-0.4
		c8.5-0.9,16.9-2.4,25.1-4.9c34.8-10.3,62.5-30.5,82.8-60.5c16.2-23.9,24.7-50.4,25.9-79.2c0.6-14.1-0.7-28.1-4-41.9
		c-7.4-30.4-22.5-56.4-45.7-77.4c-26-23.6-56.7-36.4-91.7-38.5c-13.9-0.8-27.6,0.3-41.2,3.6c-33.3,7.9-60.7,25.2-82.2,51.7
		C62.7,132.6,51.8,164.9,51.4,200.8z"/>
	<path class="st3" d="M87,64.2c0.5,1.5,1.1,3,1.6,4.5c1.3,3.5,2.6,7,3.9,10.4c0.1,0.3,0.1,0.4-0.1,0.6c-0.4,0.4-0.8,0.7-1.3,1.1
		c-0.2,0.2-0.4,0-0.6-0.1c-2.6-1.3-5.3-2.6-7.9-3.8c-2.2-1.1-4.4-2.1-6.6-3.2c0,0.3,0.2,0.5,0.4,0.7c2,2.1,4,4.3,5.9,6.4
		c1.1,1.2,2.2,2.5,3.4,3.7c0.5,0.4,0.6,0.8,0,1.3c-0.9,0.7-1.7,1.5-2.5,2.3c-0.4,0.4-0.7,0.3-1-0.1c-1.4-1.8-3-3.4-4.5-5
		c-2.4-2.6-4.7-5.3-7.1-8c-1-1.1-1.9-2.2-3.1-3.2c1.6-1.4,3.2-2.8,4.7-4.2c0.4-0.3,0.6-0.3,1-0.1c3.3,1.6,6.7,3.3,10,4.9
		c0.8,0.4,1.6,0.7,2.4,1.1c-0.1-1-0.6-1.9-0.9-2.8c-1.2-3.4-2.5-6.8-3.8-10.3c-0.3-0.7,0-0.9,0.5-1.2c1.5-1.3,2.9-2.6,4.3-4
		c1.8,2,3.5,4,5.3,5.9c0.7,0.7,1.3,1.4,2,2.2c2.5,2.8,5,5.5,7.5,8.2c0.3,0.3,0.3,0.5-0.1,0.8c-0.9,0.8-1.8,1.6-2.6,2.5
		c-0.4,0.4-0.6,0.4-0.9,0c-1.8-2.1-3.6-4.1-5.4-6.1c-1.4-1.6-2.9-3.1-4.3-4.7c-0.2,0-0.3,0-0.3-0.1C86.8,64.1,86.8,64.2,87,64.2z"/>
	<path class="st3" d="M134.7,42.8c-1.3-2.8-2.6-5.5-3.8-8.3c-0.6-1.4-1.2-2.8-1.9-4.1c-0.1-0.2-0.2-0.4,0.2-0.5
		c1.2-0.5,2.4-1,3.6-1.6c0.5-0.3,0.6,0,0.8,0.3c1.8,4.1,3.7,8.2,5.5,12.2c1.1,2.4,2.2,4.9,3.4,7.3c0.2,0.4,0.3,0.5-0.2,0.7
		c-1.1,0.4-2.1,0.9-3.1,1.5c-0.5,0.2-0.9,0.2-1.3-0.1c-2.1-1.2-4.1-2.4-6.2-3.5c-2.8-1.6-5.7-3.2-8.5-4.8c-0.1,0-0.1-0.1-0.5-0.2
		c2.1,4.5,4,8.9,6,13.2c-1.4,0.7-2.9,1.3-4.4,2c-2.3-5-4.5-9.9-6.8-14.9c-0.8-1.7-1.5-3.4-2.3-5.1c-0.2-0.4-0.2-0.6,0.3-0.8
		c1.3-0.5,2.5-1.1,3.7-1.7c0.5-0.2,0.7,0.1,1,0.3c2.4,1.3,4.7,2.6,7.1,4c2.3,1.3,4.7,2.6,7,3.9C134.3,42.8,134.4,43,134.7,42.8z"/>
	<path class="st3" d="M178.1,40c-7.3,0-11.6-5.3-11.7-11.9c0-6.6,4.9-11.6,12.5-11.5c6.1,0.1,11.2,4.9,11.1,12.3
		C189.9,35.1,185.1,40,178.1,40z M185.2,28.6c0.1-0.5-0.1-1-0.2-1.6c-0.3-1.8-1.1-3.5-2.6-4.7c-1.7-1.3-3.5-1.7-5.6-1.3
		c-2,0.4-3.5,1.4-4.5,3.3c-1,1.8-1,3.8-0.6,5.7c0.7,3.4,3.2,5.6,6.4,5.7C182.3,35.8,185,32.9,185.2,28.6z"/>
	<path class="st3" d="M347.2,90.7c0.3,6-5.8,11.9-12.3,11.7c-5.8-0.2-11.8-5.9-11.5-12.8c0.3-5.7,5.6-11.1,11.9-11.1
		C341.6,78.4,347.4,84.4,347.2,90.7z M334.8,97.6c0.3,0,0.8,0,1.2-0.1c2-0.4,3.5-1.4,4.9-3c1.6-1.8,2.2-3.9,1.6-6.2
		c-0.8-2.9-3.3-5.1-6.5-5.1c-2.8,0-4.8,1.4-6.5,3.6s-2,4.6-0.7,7C330,96.2,332,97.6,334.8,97.6z"/>
	<path class="st3" d="M283.4,60c5.1-3.4,10.1-6.8,15.1-10.2c1.5-1,3-2,4.5-3.1c0.4-0.3,0.6-0.2,0.9,0c1.4,1,2.7,2,4.1,2.9
		c0.5,0.3,0.4,0.6,0.3,0.9c-0.5,2.1-1,4.2-1.5,6.4c-1.1,4.7-2.2,9.3-3.4,14c-0.2,0.7-0.4,1.4-0.5,2.1c-0.1,0.4-0.1,0.5-0.5,0.2
		c-1.1-0.8-2.3-1.7-3.5-2.4c-0.5-0.3-0.6-0.6-0.4-1.1c0.3-0.9,0.5-1.8,0.7-2.7c0.1-0.4,0-0.6-0.3-0.8c-2.4-1.6-4.7-3.3-7.1-4.9
		c-0.3-0.2-0.6-0.2-0.9,0c-0.8,0.6-1.6,1.1-2.3,1.7c-0.5,0.4-0.8,0.2-1.2,0C286,61.9,284.7,61,283.4,60z M300.6,62.1
		c0.9-3.4,1.7-6.6,2.6-10c-1.4,1-2.7,1.9-4,2.8c-1.3,0.9-2.6,1.8-3.9,2.8c-0.1,0.1-0.7,0.2-0.1,0.6
		C296.9,59.5,298.7,60.8,300.6,62.1z"/>
	<path class="st3" d="M248.3,44.9c-3.4-0.8-6.9-1.7-10.3-2.5c-1.6-0.4-3.2-0.8-4.8-1.2c-0.4-0.1-0.5-0.2-0.4-0.6
		c1.3-5,2.5-10,3.8-14.9c0.5-2,1-3.9,1.4-5.9c0.1-0.5,0.2-0.6,0.7-0.5c4.7,1.2,9.4,2.3,14.2,3.5c0.5,0.1,0.9,0.2,0.6,1
		c-0.4,0.9-0.6,1.9-0.7,2.9c-0.1,0.6-0.4,0.4-0.7,0.4c-2.3-0.6-4.7-1.2-7-1.8c-1-0.2-2-0.5-2.9-0.7c-0.3-0.1-0.4,0-0.5,0.3
		c-0.3,1.2-0.6,2.5-0.9,3.7c-0.1,0.5,0,0.6,0.5,0.7c3.2,0.8,6.4,1.6,9.6,2.3c0.5,0.1,0.4,0.3,0.4,0.6c-0.3,1-0.6,1.9-0.8,2.9
		c-0.1,0.7-0.4,0.7-0.8,0.5c-2.8-0.7-5.7-1.4-8.5-2.1c-1.4-0.4-1.4-0.4-1.8,1c-0.3,1.1-0.5,2.2-0.8,3.3c-0.1,0.3-0.1,0.3,0.2,0.4
		c3.3,0.8,6.7,1.7,10,2.5c0.5,0.1,0.5,0.3,0.4,0.7C248.8,42.5,248.5,43.7,248.3,44.9z"/>
	<path class="st3" d="M119.3,59.6c0,0.2-0.2,0.3-0.3,0.4c-4.2,2.7-8.4,5.4-12.6,8.1c-0.3,0.2-0.4,0.4-0.7-0.1
		c-3.5-5.5-7.1-10.9-10.6-16.3c-0.4-0.6-0.7-1.2-1.1-1.7c-0.3-0.4-0.4-0.5,0.2-0.9c1.7-1,3.3-2.1,5-3.2c2.5-1.6,5-3.2,7.5-4.8
		c0.5-0.3,0.6-0.1,0.8,0.2c0.5,1,1.1,1.8,1.7,2.7c0.3,0.4,0.2,0.5-0.2,0.7c-2.9,1.8-5.7,3.7-8.5,5.5c-0.4,0.3-0.3,0.4-0.2,0.7
		c0.7,1.1,1.5,2.3,2.2,3.4c0.3,0.4,0.5,0.1,0.7-0.1c2.8-1.8,5.5-3.6,8.2-5.4c0.3-0.2,0.4-0.3,0.6,0.1c0.6,1,1.3,1.8,1.8,2.8
		c0.2,0.3,0.2,0.3-0.1,0.6c-2.8,1.8-5.5,3.6-8.2,5.4c-0.4,0.3-0.5,0.5-0.2,0.9c0.7,1,1.4,2.1,2.1,3.2c0.3,0.4,0.4,0.6,0.9,0.2
		c2.7-1.8,5.5-3.6,8.2-5.4c0.5-0.3,0.7-0.2,1,0.2c0.5,0.9,1.1,1.8,1.7,2.6C119.2,59.4,119.3,59.5,119.3,59.6z"/>
	<path class="st3" d="M65.3,105.9c-2.9,0-4.9-1.2-6.8-2.6c-3-2.3-6-4.6-8.9-6.9c-1.3-1-1.3-0.9-0.4-2.2c0.6-0.8,1.3-1.6,1.9-2.4
		c0.2-0.3,0.5-0.1,0.6,0c2.2,1.7,4.3,3.4,6.4,5.1c1.5,1.2,2.9,2.4,4.5,3.4c2.7,1.6,5.4,0.9,7.3-2.2c1.8-2.9,0.5-5.1-1.7-6.8
		c-2.2-1.8-4.4-3.5-6.6-5.2c-1.1-0.9-2.2-1.8-3.3-2.6c-0.4-0.3-0.3-0.4-0.1-0.6c0.8-1.1,1.7-2.2,2.5-3.3c0.2-0.3,0.3-0.2,0.5,0
		c3.1,2.4,6.2,4.9,9.3,7.3c1.5,1.1,2.9,2.3,3.9,4c1.2,2,1.5,4.3,0.6,6.5c-1.2,3.5-3.4,6.2-6.7,7.9C67.3,105.7,66.1,105.9,65.3,105.9
		z"/>
	<path class="st3" d="M292,39.1c-3.2,3-6.3,6-9.4,8.9c-1.2,1.1-2.3,2.3-3.6,3.3c-1.5,1.2-2.8,2.6-4.2,4c-0.3,0.3-0.5,0.4-0.9,0.2
		c-1.2-0.6-2.5-1.2-3.8-1.8c-1.2-0.6-1.4-0.9-1.1-2.2c0.2-1,0.1-2,0.3-3c0.3-1.8,0.2-3.6,0.4-5.3c0.3-2.8,0.5-5.6,0.7-8.5
		c0.1-1.9,0.4-3.8,0.5-5.7c1.4,0.7,2.7,1.4,4.1,1.9c0.8,0.3,0.8,0.9,0.7,1.5c-0.3,1.5-0.3,3-0.5,4.5c-0.2,1.9-0.5,3.8-0.7,5.7
		c-0.1,1.1-0.2,2.3-0.3,3.4c-0.1,1.2-0.2,2.3-0.4,3.5c0.4,0,0.6-0.3,0.9-0.5c1.9-1.9,3.7-3.8,5.6-5.6c2.1-2.1,4.2-4.1,6.3-6.1
		c0.4-0.4,0.6-0.3,1-0.1C289.1,37.7,290.5,38.5,292,39.1z"/>
	<path class="st3" d="M148,27.6c-0.9,0.3-1.8,0.6-2.7,0.8c-0.9,0.3-1.9,0.5-2.8,0.8c-0.4,0.1-0.6,0.1-0.7-0.3
		c-0.3-1.1-0.6-2.2-1-3.3c-0.2-0.6,0.4-0.5,0.6-0.5c2.4-0.7,4.8-1.4,7.2-2.1c3-0.9,6-1.7,9-2.6c0.5-0.1,0.5,0,0.6,0.3
		c0.3,1,0.5,2,0.9,3c0.2,0.5,0,0.7-0.4,0.8c-1.6,0.4-3.2,0.9-4.8,1.3c-0.7,0.2-1,0.4-0.8,1.2c1.1,3.5,2,7,3.1,10.5
		c0.6,1.9,1.1,3.9,1.7,5.8c0.1,0.2,0.2,0.4-0.2,0.5c-1.3,0.4-2.6,0.7-3.9,1.1c-0.3,0.1-0.4,0.1-0.5-0.3c-0.7-2.6-1.5-5.3-2.3-7.9
		c-0.9-3-1.7-6-2.5-9C148.4,27.6,148.2,27.7,148,27.6z"/>
	<path class="st3" d="M324.3,62.6c-1.7,1.6-3.2,3.5-4.9,5.2c-2.4,2.6-4.7,5.2-7.1,7.8c-0.4,0.4-0.3,0.6,0.1,1c2,1.8,3.9,3.6,5.9,5.4
		c0.5,0.5,0.5,0.8,0.1,1.2c-0.8,0.8-1.6,1.6-2.3,2.5c-2.1-1.9-4.1-3.8-6.2-5.7c-1.4-1.3-2.8-2.6-4.2-3.8c-0.3-0.3-0.1-0.3,0-0.5
		c1.3-1.4,2.6-2.8,3.9-4.3c2.5-2.8,5-5.6,7.5-8.4c0.8-0.9,1.6-1.8,2.5-2.6c0.3-0.4,0.7-0.7,1-1.2C321.9,60.4,323.1,61.5,324.3,62.6z
		"/>
	<path class="st3" d="M237.6,380.4c-1.1-4.4-2.1-8.7-3.2-13.1c-0.1-0.5-0.1-0.6,0.4-0.7c1.6-0.4,3.1-0.9,4.7-1.1
		c4-0.6,7.3,1.4,8.2,5.6c0.5,2.4-0.1,4.5-1.7,6.3c-1,1-2.3,1.7-3.7,2C240.7,379.7,239.1,380.1,237.6,380.4z M240.8,366.9
		c-1.4,0.1-2.7,0.5-4.1,0.8c-0.4,0.1-0.3,0.2-0.2,0.5c0.8,3.2,1.5,6.4,2.3,9.6c0.1,0.4,0.3,0.9,1,0.5c0.5-0.3,1.1-0.2,1.7-0.4
		c1.5-0.4,2.9-0.9,3.8-2.3c0.7-1.1,0.9-2.3,0.8-3.6C245.8,369.3,243.6,366.8,240.8,366.9z"/>
	<path class="st3" d="M184.3,383.7c-3.6-0.1-6.3-2-7.2-5.5c-0.9-3.9,1.1-8.1,5.5-9c2.4-0.5,4.7,0.1,6.5,1.8c0.3,0.3,0.5,0.6,0.8,1
		c0.1,0.2,0.1,0.3-0.1,0.5c-0.7,0.5-1.2,0.5-1.8-0.2c-2-2.1-5.4-2.2-7.5-0.1c-2.6,2.6-2.4,7.2,1,9.2c1.8,1.1,3.8,1,5.7-0.1
		c0.7-0.4,0.4-1.1,0.5-1.5c0.3-1.6,0.2-1.6-1.4-1.7c-1-0.1-2-0.2-3-0.3c-0.1,0-0.3,0-0.3-0.1c0-0.4,0-0.8,0.2-1.2
		c0.1-0.3,0.5-0.2,0.7-0.2c1.8,0.2,3.6,0.4,5.4,0.5c0.4,0,0.5,0.3,0.4,0.7c-0.3,1.4-0.3,2.8-0.5,4.2c0,0.3-0.1,0.5-0.3,0.6
		C187.8,383,185.8,383.7,184.3,383.7z"/>
	<path class="st3" d="M263.7,368.1c0.3,3.6-3.1,7.1-7.5,7c-3.3-0.1-6.8-3.5-6.5-8.2c0.2-3.3,3.1-6.5,7.5-6.4
		C260.6,360.6,263.9,364,263.7,368.1z M262,368.3c0-2-1-4-2.6-5.3c-2.4-2-6.1-0.7-7.4,1.6c-1.4,2.5-0.5,5.3,1.2,7.2
		c1.4,1.6,3.5,2.1,5.5,1.2C260.9,372.2,261.9,370.8,262,368.3z"/>
	<path class="st3" d="M214.8,377.9c1.4,1.9,2.8,3.6,4.2,5.5c-0.4,0.1-0.8,0-1.2,0.2c-0.5,0.2-0.9-0.1-1.2-0.5
		c-1.1-1.5-2.1-2.9-3.2-4.4c-0.2-0.3-0.5-0.7-1-0.4c-0.2,0.1-0.4,0-0.7,0c-1.5,0-1.7,0.3-1.4,1.9c0.2,1.1,0.2,2.3,0.3,3.5
		c0,0.4-0.1,0.4-0.4,0.4c-1.3,0.1-1.4-0.1-1.4-1.3c-0.1-2.8-0.4-5.7-0.5-8.5c-0.1-1.2-0.1-2.4-0.3-3.6c0-0.3-0.1-0.6,0.4-0.6
		c1.9-0.1,3.8-0.3,5.8-0.3c1.8,0,3.2,0.9,3.8,2.3c0.8,1.9,0.4,3.9-0.9,5C216.4,377.4,215.7,377.7,214.8,377.9z M211.2,376.8
		c0.9,0,1.8-0.2,2.7-0.2c0.7,0,1.4-0.3,2-1c0.8-1,0.7-2,0.2-3c-0.4-1-1.4-1.4-2.5-1.4s-2.1,0.3-3.2,0.2c-0.4,0-0.7,0.2-0.7,0.7
		c0.1,1,0.1,2.1,0.2,3.1C210.1,376.8,210.1,376.8,211.2,376.8z"/>
	<path class="st3" d="M148.2,376.4c-0.2,0-0.2-0.1-0.3-0.1c-1.8-0.2-1.9-1.4-1.7-2.8c0.1-0.9-0.3-1.3-1.1-1.5
		c-1.7-0.5-3.3-1.2-5-1.8c-0.4-0.2-0.7-0.2-1,0.3c-0.4,0.6-1.1,1.1-1.5,1.7c-0.2,0.3-0.4,0.3-0.8,0.2c-0.4-0.2-0.9-0.3-1.5-0.5
		c1.8-2,3.5-3.9,5.2-5.8c1.5-1.7,3-3.4,4.5-5.2c0.7-0.8,1.3,0,2,0.1c0.5,0.1,0.6,0.5,0.6,0.9c0,2,0.1,4,0.2,6.1
		c0.2,2.7,0.3,5.4,0.3,8C148.1,376.2,148.2,376.3,148.2,376.4z M145.9,362.6c-1.9,2.2-3.6,4.2-5.3,6.2c1.6,0.6,3.1,1.1,4.6,1.6
		c1,0.4,1,0.4,0.9-0.6c0-0.1,0-0.2,0-0.3C146.2,367.2,145.9,365,145.9,362.6z"/>
	<path class="st3" d="M234.5,381c-1.6,0.9-2.2,0-2.9-1.3c-0.6-1.2-1.1-1.3-2.9-0.9c-1.3,0.3-2.6,0.5-3.9,0.6c-0.7,0-1,0.3-1,0.9
		c-0.1,0.6-0.3,1.1-0.4,1.7c-0.1,0.8-0.5,1.1-1.3,1c-0.3,0-0.6,0-1,0.1c0.6-2.3,1.1-4.6,1.7-6.9c0.6-2.4,1.2-4.8,1.7-7.3
		c0.1-0.6,0.4-0.5,0.8-0.7c1-0.4,1.6-0.1,2.2,0.8c2.2,3.9,4.5,7.7,6.8,11.6C234.5,380.8,234.5,380.9,234.5,381z M226.1,370
		c-0.6,2.7-1.1,5.1-1.7,7.6c-0.1,0.4,0,0.5,0.3,0.4c1.8-0.3,3.6-0.6,5.5-0.9C228.8,374.7,227.5,372.4,226.1,370z"/>
	<path class="st3" d="M166,379.2c1.5,0.3,3,0.5,4.4,0.8c0.8,0.1,1.6,0.3,2.4,0.5c0.3,0.1,0.7,0.2,0.4,0.5s0.5,1.3-0.7,1.1
		c-2.7-0.5-5.4-0.9-8.1-1.5c-0.4-0.1-0.5-0.2-0.5-0.6c0.5-2.5,0.9-5,1.4-7.5c0.3-1.8,0.7-3.5,0.9-5.3c0.1-0.5,0.3-0.6,0.7-0.5
		c2.6,0.6,5.3,1,7.9,1.5c0.6,0.1,0.6,0.7,0.5,0.8c-0.3,0.2,0.3,1-0.7,0.8c-2.1-0.5-4.3-0.8-6.4-1.2c-0.3-0.1-0.5-0.1-0.6,0.4
		c-0.2,1.1-0.4,2.2-0.6,3.3c-0.1,0.5,0,0.8,0.7,0.9c1.9,0.2,3.8,0.6,5.7,1c0.2,0,0.9-0.1,0.7,0.5c-0.2,0.4,0.3,1.4-1,1
		c-2-0.5-4.1-0.7-6.1-1.1c-0.5-0.1-0.5,0.1-0.5,0.4C166.5,376.4,166.2,377.8,166,379.2z"/>
	<path class="st3" d="M161.9,368.7c-1-1.7-2.5-2.6-4.3-2.9c-0.8-0.1-1.7,0.2-2.2,0.8c-0.5,0.5-0.6,1.2-0.2,1.9
		c0.4,0.8,1.2,1.2,2,1.6c1,0.6,2.1,1.2,3,2c2.1,1.8,1.7,4.5-0.3,6c-1.4,1-2.9,0.8-4.5,0.5c-1.9-0.4-3.4-1.4-4.4-3.1
		c-0.1-0.2-0.4-0.4-0.2-0.6c0.3-0.3,0.8-0.6,1.2-0.8c0,0,0.3,0.3,0.4,0.5c1.2,1.7,2.8,2.6,4.9,2.6c0.9,0,2-0.7,2.3-1.7
		c0.2-0.8-0.2-1.8-1.1-2.4c-1.2-0.8-2.5-1.5-3.7-2.3c-1.2-0.9-2-2.3-1.8-3.4c0.4-1.6,1.3-2.7,3-3c2.5-0.6,5.4,0.7,6.9,2.8
		c0.3,0.4,0.3,0.5-0.1,0.7C162.5,368.1,162.1,368.3,161.9,368.7z"/>
	<path class="st3" d="M102.7,329c-0.2-0.1-0.2-0.3-0.2-0.5c0-0.1,0.1-0.3,0.2-0.3c0.2,0.1,0.2,0.3,0.2,0.5
		C102.9,328.9,102.9,329,102.7,329z"/>
	<path class="st3" d="M299.4,182.2c-0.1,0.1-0.2,0.1-0.2,0.3c-0.4,0.3-0.6,0.6-0.8,1l-0.1,0.1c-1.5,2-3,4-4.4,6
		c-6.7,9.3-13.4,18.5-20,27.8c-8,11.1-16,22.2-24,33.2c-7.1,9.8-14.2,19.7-21.3,29.5c-1.5,2.1-3.1,4.3-4.6,6.5l-0.1,0.1
		c-0.4,0.3-0.6,0.6-0.7,1.1c-0.1,0.1-0.2,0.2-0.3,0.3c-0.2,0-0.3,0.2-0.2,0.3l-0.1,0.1c-0.2,0-0.3,0.2-0.2,0.4
		c-0.1,0.1-0.2,0.2-0.3,0.3c-0.2,0-0.3,0.1-0.3,0.3l-0.1,0.1c-0.2,0.1-0.4,0.3-0.4,0.5c0,0.1-0.1,0.1-0.1,0.2
		c-0.2,0-0.3,0.1-0.3,0.3l-0.1,0.1c-0.4,0.2-0.6,0.6-0.7,1c-0.1,0.1-0.2,0.2-0.3,0.3c-0.4,0.3-0.6,0.6-0.7,1c0,0.1-0.1,0.1-0.1,0.2
		c-0.4,0.2-0.6,0.6-0.7,1c0,0.1-0.1,0.1-0.1,0.2c-0.2,0-0.3,0.1-0.3,0.3l-0.1,0.1c-0.3,0.1-0.4,0.3-0.4,0.5l-0.1,0.1
		c-0.1,0.1-0.2,0.1-0.2,0.2c-1.5,2.1-3,4.1-4.5,6.2c-1.7,2.4-3.5,4.8-5.3,7.3c-0.1,0.2-0.2,0.5-0.5,0.4s-0.1-0.4,0-0.6
		c0.7-2.2,1.4-4.4,2.2-6.6c1.6-4.7,3.1-9.4,4.7-14.1c1.4-4.3,2.9-8.5,4.3-12.8c1.3-3.9,2.6-7.8,4-11.8c1.4-4.3,2.9-8.6,4.3-13
		c1.4-4.3,2.9-8.6,4.4-13c1.6-4.6,3.1-9.3,4.7-13.9c1.7-5.1,3.4-10.1,5.1-15.2c1.6-4.6,3.1-9.3,4.7-13.9c1.5-4.3,2.9-8.6,4.4-13
		c0.2-0.7,0.6-1,1.3-1c16,0,31.9,0,47.9,0c0.2,0,0.4,0,0.6,0c0.5,0,0.8,0.1,0.4,0.6C299.4,182,299.4,182.1,299.4,182.2z"/>
	<path class="st3" d="M193.3,306.6c0,0.1,0,0.2,0.1,0.3c0.2,0.7,0.5,1.5,0.7,2.2c0.1,0.2,0.3,0.5,0,0.7c-0.4,0.2-0.5-0.2-0.6-0.4
		c-4.3-5.9-8.6-11.8-12.8-17.8c-9.3-12.8-18.5-25.7-27.8-38.5c-7.7-10.6-15.3-21.2-23-31.8c-9.4-13-18.8-26.1-28.2-39.1
		c-0.2-0.2-0.5-0.4-0.3-0.7c0.1-0.3,0.5-0.2,0.8-0.2c16.1,0,32.2,0,48.3,0c0.7,0,1,0.2,1.1,0.8c0.7,2.1,1.4,4.2,2.1,6.2
		c1.6,4.7,3.1,9.3,4.7,14c1.6,4.6,3.1,9.3,4.7,13.9c1.3,3.9,2.7,7.9,4,11.8c1.3,3.9,2.6,7.8,3.9,11.8c1.4,4.3,2.9,8.6,4.4,13
		c1.3,3.9,2.7,7.9,4,11.8c1.4,4.3,2.9,8.6,4.3,12.9c1.2,3.5,2.4,7,3.5,10.6c1.3,4,2.6,8,4,11.9c0.6,1.8,1.1,3.7,1.9,5.5
		c0,0.1,0,0.2,0.1,0.3C192.9,306.1,193.1,306.3,193.3,306.6z"/>
	<path class="st3" d="M204.3,134.7c0.1,0.1,0.2,0.2,0.2,0.3c0,0.3,0.3,0.5,0.5,0.7c3.7,4.1,7.5,8.2,11.2,12.3
		c8,8.9,16.1,17.7,24.1,26.6c0.2,0.2,0.7,0.4,0.6,0.8c-0.2,0.4-0.7,0.2-1,0.2c-25.1,0-50.3,0-75.4,0c-1.3,0-2.6,0-3.9,0
		c-0.4,0-0.7-0.1-0.4-0.6l0,0c0.3-0.1,0.4-0.2,0.5-0.5c0.1,0,0.2-0.1,0.2-0.3c1-0.9,1.9-1.9,2.7-2.9c0.1,0,0.2-0.1,0.2-0.2
		c1.7-1.6,3.2-3.4,4.7-5.2l0,0c1.2-1.1,2.3-2.4,3.4-3.7c0.1,0,0.2-0.1,0.2-0.2c1.1-1,2-2,2.9-3.2c0.1,0,0.2-0.1,0.2-0.2
		c1.2-1.1,2.2-2.3,3.2-3.5c0.1,0,0.2-0.1,0.2-0.2c1.3-1.2,2.4-2.5,3.5-3.8l0,0c1-0.9,2-2,2.8-3.1c0.1,0,0.2-0.1,0.2-0.2
		c1.7-1.6,3.2-3.4,4.7-5.2c0.1,0,0.2-0.1,0.2-0.2c1.2-1.1,2.2-2.3,3.2-3.5c0.1,0,0.2-0.1,0.2-0.2c1.1-1,2-2,2.9-3.2
		c0.1,0,0.2-0.1,0.2-0.2c1.3-1.2,2.4-2.6,3.6-3.9c0.5-0.5,0.8-0.5,1.2,0C202.1,132.4,203.1,133.7,204.3,134.7z"/>
	<path class="st3" d="M213.8,136.9c-0.1-0.2-0.3-0.4-0.5-0.5c-0.3-0.6-0.8-1-1.3-1.4l-0.1,0.1l0.1-0.1c0-0.2-0.2-0.3-0.3-0.4v-0.1
		h-0.1c-0.3-0.6-0.7-1-1.2-1.3c-0.1-0.2-0.3-0.4-0.5-0.5c-0.3-0.6-0.8-1.1-1.4-1.5c-0.1-0.1-0.1-0.1-0.2-0.2
		c-0.3-0.6-0.8-1.1-1.3-1.5c-0.1-0.1-0.1-0.1-0.2-0.2c-0.3-0.6-0.8-1-1.3-1.4c-0.1-0.2-0.3-0.5-0.6-0.6c0-0.4-0.7-0.5-0.3-1
		c1.5,0,2.9,0,4.4,0c11.5,0,23.1,0,34.6,0c0.1,0.2,0.3,0.4,0.5,0.4l0,0l0,0c0.3,0.5,0.7,0.9,1.3,1.1c0.1,0.1,0.1,0.1,0.2,0.2
		c0.2,0.4,0.6,0.7,0.9,0.9c6.5,5.8,13,11.6,19.5,17.4c0.4,0.4,0.4,0.7,0.1,1.1c-5.6,7.8-11.1,15.5-16.6,23.3
		c-0.5,0.7-1.1,1.3-1.4,2.1c-0.1,0-0.2,0.1-0.2,0.3c-0.5,0.7-0.9,0.7-1.4,0c-0.1-0.1-0.2-0.3-0.4-0.4c-0.1-0.2-0.3-0.4-0.5-0.5
		c-0.4-0.6-0.8-1.1-1.4-1.5c-0.1-0.1-0.1-0.1-0.2-0.2c-0.3-0.6-0.8-1.1-1.3-1.5c-0.1-0.1-0.1-0.1-0.2-0.2c-0.3-0.6-0.8-1-1.3-1.4
		l0,0l0,0c-0.1-0.2-0.2-0.4-0.4-0.4c-0.1-0.1-0.1-0.1-0.2-0.2c-0.3-0.6-0.8-1.1-1.3-1.5c-0.1-0.1-0.1-0.1-0.2-0.2
		c-0.3-0.6-0.8-1.1-1.4-1.5c-0.1-0.2-0.3-0.4-0.5-0.5c-0.7-1-1.4-1.8-2.3-2.6c-0.2-0.3-0.4-0.6-0.7-0.8c-0.9-1.2-1.8-2.2-2.9-3.2
		c-0.1-0.2-0.3-0.4-0.5-0.5c-0.3-0.5-0.7-0.9-1.1-1.3c-0.1-0.2-0.2-0.3-0.4-0.4c-0.3-0.5-0.7-0.9-1.1-1.3c-0.1-0.2-0.2-0.3-0.4-0.4
		c-0.3-0.5-0.7-0.9-1.1-1.3c-0.1-0.2-0.3-0.5-0.6-0.6c-0.3-0.6-0.8-1.1-1.3-1.5c0-0.1-0.1-0.2-0.2-0.2c-0.3-0.6-0.8-1-1.3-1.4
		c-0.1-0.2-0.2-0.3-0.4-0.4c-0.4-0.6-0.9-1.2-1.5-1.6v-0.1l0,0c-0.3-0.5-0.7-0.9-1.1-1.3c-0.2-0.3-0.4-0.6-0.7-0.8
		c-0.3-0.5-0.7-0.9-1.1-1.3c0-0.1-0.1-0.2-0.2-0.2c-0.3-0.6-0.8-1.1-1.3-1.5c-0.1-0.2-0.3-0.4-0.5-0.5c-0.3-0.6-0.8-1.1-1.4-1.5
		c-0.1-0.1-0.1-0.1-0.2-0.2C214.6,137.5,214.2,137.2,213.8,136.9z"/>
	<path class="st3" d="M154.9,172.4L154.9,172.4C154.8,172.4,154.8,172.5,154.9,172.4c-0.4,0.2-0.5,0.4-0.6,0.7c-0.1,0-0.1,0-0.1,0.1
		c-0.5,0.5-0.8,0.5-1.2-0.1c-6.1-8.6-12.2-17.1-18.3-25.7c-0.3-0.5-0.4-0.8,0.1-1.2c0.9-0.8,1.8-1.4,2.5-2.3c0.1,0,0.2-0.1,0.2-0.2
		c1-0.8,2-1.6,2.9-2.5c0.1-0.1,0.1-0.1,0.2-0.2c0.9-0.6,1.7-1.4,2.5-2.1c1.7-1.6,3.6-3,5.2-4.8c0.1-0.1,0.2-0.2,0.3-0.2
		s0.2,0,0.2-0.1c2.8-2.5,5.5-5,8.3-7.5c7.8,0,15.6,0,23.4,0c5.2,0,10.4,0,15.6,0c0.3,0.3-0.1,0.5-0.1,0.8l0,0
		c-0.3,0.1-0.4,0.3-0.5,0.5c-0.1,0.1-0.1,0.1-0.2,0.2c-0.4,0.2-0.7,0.6-0.9,1l0,0c-0.8,0.8-1.6,1.6-2.2,2.5l0,0
		c-1.2,1.2-2.4,2.4-3.4,3.7l0,0c-0.5,0.4-1,0.9-1.3,1.4c-0.1,0-0.2,0.1-0.2,0.2c-1.1,1-2,2-2.9,3.2c-0.3,0.1-0.4,0.3-0.5,0.5
		c-1.1,1-2,2-2.9,3.2c-0.2,0.1-0.3,0.2-0.4,0.4c-1.1,1-2,2-2.9,3.2c-0.2,0.1-0.3,0.2-0.4,0.4c-0.5,0.4-1,0.9-1.3,1.5l0,0
		c-0.7,0.5-1.2,1.1-1.7,1.8h-0.1v0.1c-0.6,0.5-1.2,1.1-1.6,1.8l0,0c-1.1,1-2,2-2.9,3.2c-0.3,0.1-0.4,0.3-0.5,0.6c-1.1,1-2,2-2.9,3.2
		c-0.1,0-0.2,0.1-0.2,0.2c-1.2,1.1-2.2,2.3-3.2,3.5h-0.1v0.1c-1.2,1.1-2.2,2.2-3.2,3.5l0,0c-0.6,0.5-1.2,1.1-1.7,1.8h-0.1v0.1
		c-0.4,0.3-0.8,0.6-1,1.1l0,0c-0.7,0.5-1.2,1.2-1.7,1.9c-0.1,0.1-0.1,0.1-0.2,0.2C155.1,172,155,172.1,154.9,172.4z"/>
	<path class="st4" d="M298.3,184.1l0.1-0.1c0,0.1,0.1,0.1,0.1,0.2c0.3,0.3,0.6,0.1,0.9,0.1c2.8,0,5.5,0,8.3,0c0.4,0,0.9-0.2,1.1,0.2
		c0.1,0.3-0.3,0.6-0.5,0.9c-3.3,4.5-6.6,8.6-9.8,13.2c-3.4,4.8-6.7,9.2-9.7,13.4c-2.1,2.9-4.2,6.3-6.3,9.2c-1.9,2.6-3.8,5.2-5.7,7.8
		c-1.5,2.1-3.1,4.3-4.6,6.4c-1.1,1.5-2.2,3-3.3,4.5c-2.3,3.1-4.5,6.3-6.8,9.4c-3.1,4.3-6.3,8.6-9.4,13c-2,2.8-4,5.5-6,8.3
		c-2.9,4-5.9,8.1-8.8,12.1c-2.1,3-4.3,6-6.5,9c-3.1,4.2-6.1,8.4-9.1,12.6c-1.7,2.3-3.3,4.6-5,7c-0.4,0.6-0.9,1.2-1.3,1.8
		c-0.1,0.1-0.2,0.4-0.4,0.3s-0.1-0.3-0.1-0.5c0.7-2.1,1.5-4.1,2.1-6.2c0.7-2.1,1.3-4.2,2.1-6.4c0.8-2.3,1.6-4.6,2.4-6.9
		c0.6-1.6,1.1-3.2,1.6-4.9c0.1-0.3,0.3-0.6,0-1c0.1-0.2,0.1-0.4,0.2-0.6l0.1-0.1c0.3-0.1,0.5-0.3,0.7-0.6c1.7-2.3,3.3-4.5,4.9-6.8
		c2.5-3.5,5-6.9,7.5-10.4c2.6-3.6,5.3-7.3,7.9-10.9c2.4-3.3,4.7-6.6,7.1-9.8c2.7-3.7,5.3-7.4,8-11c2.6-3.6,5.2-7.2,7.8-10.8
		c2.7-3.7,5.3-7.4,8-11.1c2.5-3.5,5-6.9,7.5-10.3c2.5-3.4,4.9-6.9,7.4-10.3c2-2.8,4.2-5.7,6.2-8.5
		C297.4,185.7,298.1,185.1,298.3,184.1z"/>
	<path class="st3" d="M276.1,155.1L276.1,155.1C276.1,155.2,276.2,155.2,276.1,155.1c0.6,0.7,1.2,1.2,1.9,1.7
		c6.7,6,13.4,11.9,20.1,17.9c0.2,0.2,0.6,0.3,0.5,0.6s-0.5,0.1-0.8,0.1c-10.9,0-21.8,0-32.7,0c-3.6,0-7.3,0-10.9,0
		c-0.2,0-0.5,0.1-0.6-0.1c-0.1-0.2,0.1-0.4,0.2-0.5c5.6-7.9,11.2-15.7,16.7-23.6c0.5-0.6,0.7-0.6,1.3-0.1
		C273.1,152.5,274.5,153.9,276.1,155.1z"/>
	<path class="st3" d="M102.5,175c0.1-0.1,0.2-0.1,0.3-0.2c1-0.7,1.8-1.4,2.6-2.3c0.1,0,0.2-0.1,0.3-0.2c0.6-0.3,1-0.8,1.4-1.3h0.1
		v-0.1c0.3,0,0.4-0.2,0.5-0.4c2.3-2.1,4.7-4.2,7-6.3c0.7-0.6,1.4-1.2,2-1.9c0.1,0,0.2-0.1,0.2-0.2c1-0.7,2-1.6,2.8-2.5
		c0.1-0.1,0.1-0.1,0.2-0.2c1.2-0.9,2.2-1.8,3.2-2.9l0,0c0.6-0.3,1.1-0.8,1.4-1.3h0.1v-0.1c1.1-0.8,2.1-1.7,3-2.6
		c0.1-0.1,0.2-0.2,0.3-0.2c0.6-0.3,1.1-0.8,1.5-1.3l0,0c0.4-0.2,0.6-0.1,0.9,0.2c0.4,0.6,0.7,1.2,1.3,1.7v0.1h0.1
		c0,0.3,0.2,0.5,0.4,0.7c5.1,7.1,10.1,14.2,15.2,21.3c0.1,0.2,0.3,0.3,0.2,0.5c-0.1,0.3-0.4,0.2-0.6,0.2c-0.2,0-0.4,0-0.6,0
		c-14.4,0-28.7,0-43.1,0c-0.2,0-0.3,0-0.5,0C102.2,175.5,102.4,175.2,102.5,175z"/>
	<path class="st3" d="M200.4,181.3c14,0,28,0,42.1,0c1,0,1.1,0.1,0.8,1c-2.5,7.5-5,15-7.5,22.5c-2.8,8.2-5.5,16.4-8.3,24.7
		c-2.4,7.3-4.9,14.6-7.4,21.8c-2.2,6.6-4.4,13.1-6.6,19.7c-2.2,6.5-4.4,13.1-6.6,19.6c-2,6.1-4.1,12.2-6.1,18.3
		c-0.1,0.2-0.1,0.6-0.4,0.6c-0.4,0-0.3-0.4-0.4-0.6c-2.1-6.2-4.2-12.4-6.3-18.6c-1.8-5.4-3.6-10.9-5.4-16.3
		c-1.9-5.8-3.9-11.6-5.9-17.4c-1.8-5.4-3.6-10.8-5.4-16.3c-1.7-5-3.4-10.1-5.1-15.1c-1.6-4.7-3.1-9.4-4.7-14.1c-1.7-5-3.4-10-5.1-15
		c-1.4-4.3-2.9-8.7-4.3-13V183c-0.5-1.7-0.5-1.7,1.3-1.7C172.9,181.3,186.7,181.3,200.4,181.3z"/>
	<path class="st3" d="M206.5,310.1C206.6,310.1,206.6,310.1,206.5,310.1c0.1,0,0.1,0,0.1,0.1c0,0,0,0-0.1,0.1
		C206.6,310.2,206.6,310.1,206.5,310.1z"/>
</g>
</svg>
