<?xml version="1.0" encoding="utf-8"?>
<!-- Generator: Adobe Illustrator 24.1.3, SVG Export Plug-In . SVG Version: 6.00 Build 0)  -->
<svg version="1.1" id="Layer_1" xmlns="http://www.w3.org/2000/svg" xmlns:xlink="http://www.w3.org/1999/xlink" x="0px" y="0px"
	 viewBox="0 0 326 172" style="enable-background:new 0 0 326 172;" xml:space="preserve">
<style type="text/css">
	.st0{fill:#202223;}
	.st1{font-family:'ProximaNova-Regular';}
	.st2{font-size:12.0456px;}
	.st3{font-family:'ProximaNovaT-Thin';}
	.st4{font-size:9.0603px;}
</style>
<g>
	<g>
		<path class="st0" d="M322,137.6c-0.3,0-0.6,0-1,0c-105.4,0-210.7,0-316.1,0c-0.3,0-0.6,0-1,0C4,92.9,4,48.2,4,3.4
			c106,0,212,0,318,0C322,48.2,322,92.9,322,137.6z M14.3,127.3c99.2,0,198.2,0,297.3,0c0-37.9,0-75.7,0-113.5
			c-99.1,0-198.2,0-297.3,0C14.3,51.6,14.3,89.4,14.3,127.3z"/>
		<path class="st0" d="M150.7,49.6c-0.4,0-0.6,0-0.9,0c-10.1,0-20.2,0-30.3,0c-0.6,0-0.9,0.2-1,0.8c-0.7,2.6-1.5,5.1-2.2,7.7
			c-1.3,4.7-2.7,9.5-4,14.2c-1.1,3.9-2.3,7.8-3.4,11.6c-1.3,4.7-2.7,9.4-4,14.1c-0.7,2.6-1.5,5.1-2.2,7.7c-0.1,0.2-0.3,0.5-0.5,0.5
			c-5.2,0-10.3,0-15.5,0c-4-15.8-8.1-31.6-12.1-47.3c-0.1,0-0.1,0-0.2,0c-1.5,6.1-3.1,12.3-4.6,18.4c-1.5,5.9-3,11.8-4.5,17.7
			c-0.9,3.6-1.8,7.1-2.7,10.7c-0.1,0.2-0.3,0.5-0.5,0.5c-5.1,0-10.3,0-15.4,0c-6.7-23.2-13.3-46.5-20-69.7c5.6,0,11.2,0,16.8,0
			c4,16.5,8,33.1,12.1,49.6c0.1,0,0.1,0,0.2,0c4.4-16.5,8.7-33.1,13.1-49.6c1.7,0,3.4,0,5.2,0c2,0,4,0,6,0c0.5,0,0.6,0.1,0.8,0.6
			c1.7,6.6,3.4,13.2,5.1,19.8c1.7,6.4,3.3,12.8,5,19.1c0.9,3.3,1.8,6.7,2.7,10c0,0,0,0.1,0.2,0.3c4-16.7,8-33.2,12-49.8
			c26.7,0,53.5,0,80.3,0c0,4.3,0,8.7,0,13.1c-6.7,0-13.4,0-20.1,0c0,18.9,0,37.7,0,56.6c-5,0-10,0-15,0
			C150.7,87.4,150.7,68.5,150.7,49.6z"/>
		<path class="st0" d="M298.6,51c-1.4,0.7-2.7,1.5-4.1,2.2c-2.6,1.4-5.2,2.8-7.8,4.2c-0.4,0.2-0.6,0.2-0.9-0.2
			c-3.2-4.4-7.4-7.3-12.7-8.2c-4.4-0.8-8.6-0.2-12.6,1.6c-2.1,0.9-3.9,2.2-5.6,3.7c-3.5,3.3-5.7,7.3-6.5,12c-0.2,1.3-0.3,2.6-0.4,4
			c-0.3,3.7,0.4,7.2,1.8,10.6c0.8,2.1,2,4,3.4,5.7c2.1,2.5,4.7,4.4,7.6,5.7c1.8,0.8,3.7,1.4,5.7,1.6c1.1,0.1,2.1,0.3,3.2,0.3
			c3.1-0.1,6.2-0.7,9.1-1.9c1.9-0.8,3.7-1.8,5.3-3c0.2-0.2,0.5-0.5,0.5-0.8c0-2.6,0-5.1,0-7.7c-6.2,0-12.3,0-18.4,0
			c0-4.4,0-8.7,0-13.1c11.1,0,22.1,0,33.3,0c0,0.3,0,0.5,0,0.8c0,8.4,0,16.8,0,25.2c0,0.6-0.2,1-0.6,1.4c-3.7,3.8-7.9,6.9-12.8,9.1
			c-3.1,1.4-6.3,2.3-9.7,2.8c-1.7,0.2-3.4,0.3-5.1,0.5c-0.5,0-1,0.3-1.4,0.3c-2.2-0.2-4.5-0.4-6.7-0.7c-2.3-0.4-4.6-0.9-6.9-1.6
			c-3.3-1-6.9-3-8.8-4.4c0,1.8,0,3.5,0,5.3c-5,0-10,0-15,0c0-23.2,0-46.4,0-69.6c5,0,9.9,0,14.9,0c0,1.7,0,3.4,0,5.3
			c0.8-0.5,1.5-0.9,2.3-1.3c3.3-1.9,6.8-3.2,10.5-4.1c4.5-1.1,9.1-0.9,13.7-0.8c2.1,0.1,4.3,0.7,6.4,1.2c4,1,7.6,3,10.8,5.5
			c2.9,2.3,5.4,5.1,7.4,8.3C298.6,50.9,298.6,50.9,298.6,51z"/>
	</g>
	<text transform="matrix(1 0 0 1 92.9922 155.5244)" class="st0 st1 st2">William &amp; Turner Company</text>
	<text transform="matrix(1 0 0 1 123.647 166.2354)" class="st0 st3 st4">International grading</text>
</g>
</svg>
