<?xml version="1.0" encoding="utf-8"?>
<!-- Generator: Adobe Illustrator 24.1.3, SVG Export Plug-In . SVG Version: 6.00 Build 0)  -->
<svg version="1.1" id="Layer_1" xmlns="http://www.w3.org/2000/svg" xmlns:xlink="http://www.w3.org/1999/xlink" x="0px" y="0px"
	 viewBox="0 0 400 400" style="enable-background:new 0 0 400 400;" xml:space="preserve">
<style type="text/css">
	.st0{display:none;}
	.st1{display:inline;fill:#222222;}
	.st2{fill:#E5E5E5;}
	.st3{fill:#222222;}
</style>
<g class="st0">
	<path class="st1" d="M354,205.7c-0.1,1.6-0.2,3.1-0.3,4.7c-0.8,13.6-3.2,26.9-7.6,39.7c-14.4,42-41.6,72.7-81.7,91.9
		c-12.9,6.2-26.6,10.1-40.7,12.2c-10,1.5-20,2-30,1.4c-31.8-1.8-60.3-12.4-85.3-32c-27.7-21.8-45.8-49.9-54.7-84
		c-2.5-9.6-3.9-19.3-4.5-29.2c-0.6-9.2-0.3-18.4,0.8-27.6c3.4-28.5,13.7-54.3,31.3-77.1c20-25.8,45.6-43.6,76.9-53.2
		c10.3-3.1,20.9-5.1,31.6-5.9c46.3-3.5,91.2,14.1,122.7,48.2c18.8,20.4,31.3,44.1,37.6,71.1c2.2,9.6,3.5,19.3,3.8,29.1
		c0,0.4,0.1,0.8,0.1,1.2C354,199.4,354,202.6,354,205.7z M350.6,199.7c-0.2-3.4-0.4-8.2-0.8-12.9c-0.7-9.1-2.4-18-4.8-26.8
		c-12.1-43.7-42.8-78.9-81.9-96.9c-17.5-8-35.9-12.5-55.1-13.3c-13.4-0.6-26.7,0.5-39.8,3.6c-31.2,7.4-57.4,23.2-78.4,47.4
		c-23.9,27.5-36.1,59.7-37.3,96.1c-0.5,14.9,1.2,29.7,5.2,44.1c8.4,30.8,24.8,56.6,49.3,77c25.6,21.3,55.1,32.7,88.4,34.2
		c13.9,0.6,27.5-0.7,41-4c31.1-7.7,57.1-23.8,77.9-48.2C338.3,271.5,350.1,238.3,350.6,199.7z"/>
	<path class="st1" d="M46,100.5c0.7-1,1.5-2,2.2-2.9c1.8-2.5,3.5-5.2,5.6-7.5c2.1-2.5,5.7-2.8,8.2-0.5c1.6,1.5,2,3.2,1.6,5.2
		c0.9-0.3,1.8-0.5,2.7-0.8c1.5-0.5,2.9,0.2,4,1c1.3,0.9,2.2,2.1,2.5,3.8c0.3,1.7-0.2,3.2-1.1,4.5c-2.3,3.4-4.7,6.7-7.1,10
		c-0.3,0.4-0.5,0.3-0.8,0.1c-3-2.2-6-4.4-9.1-6.5c-2.8-2-5.6-4.1-8.5-6.1c-0.1-0.1-0.2,0-0.3-0.1C46,100.7,46,100.6,46,100.5z
		 M63.8,107.5c0.5-0.6,0.9-1.2,1.3-1.7c0.9-1.4,1.9-2.7,2.8-4.1c0.6-1.1,0.3-2.5-0.7-3.1c-1.1-0.7-2.3-1.1-3.4,0.2
		c-1.5,1.8-2.8,3.7-4.3,5.6C61,105.4,62.4,106.5,63.8,107.5z M56.2,101.9c0.1-0.1,0.3-0.2,0.4-0.4c1-1.4,2.1-2.8,3.1-4.3
		c0.4-0.6,0.7-1.3,0.7-2c-0.1-1-0.7-1.8-1.7-2.2c-0.9-0.3-2,0-2.7,0.9c-1.2,1.5-2.3,3.1-3.4,4.7c-0.2,0.3-0.2,0.6,0.1,0.8
		C53.8,100.3,55,101.1,56.2,101.9z"/>
	<path class="st1" d="M195.3,15.9c1,0.2,2,0.4,2.9,0.7c4.2,1.4,6.7,4.4,7.5,8.8c0.6,3.1,0.1,6.1-1.6,8.8c-1.8,2.8-4.4,4.3-7.6,4.8
		c-3.4,0.6-6.6,0.1-9.4-2c-2.5-1.8-3.9-4.3-4.4-7.3c-0.4-2.4-0.2-4.8,0.8-7.1c1.2-2.7,3.1-4.6,5.8-5.7c1.2-0.5,2.5-0.6,3.8-0.9
		c0.1,0,0.2-0.1,0.2-0.2C193.9,15.9,194.6,15.9,195.3,15.9z M201.1,27.5c0-0.3-0.1-0.8-0.2-1.3c-0.5-4.2-4.5-6.9-8.9-5.6
		c-2.7,0.8-4.1,2.9-4.5,5.7c-0.4,3.1,0.3,5.6,2.8,7.6c1.9,1.5,5.4,1.6,7.4,0.3C200,32.7,201,30.4,201.1,27.5z"/>
	<path class="st1" d="M199.8,384.1c-1.1-0.5-2.1-0.9-3.2-1.4c-0.1,0-0.2-0.1-0.3-0.2c-0.8-0.7-0.8-0.7-0.1-1.5
		c0.1-0.1,0.2-0.3,0.3-0.4c0.7,0.5,1.4,1.1,2.2,1.4c1.4,0.6,2.9,0.9,4.4,0.1c0.8-0.4,1.3-1,1.3-2c0-0.9-0.6-1.5-1.3-1.8
		c-1.4-0.6-2.8-1-4.2-1.5c-1.3-0.5-2.4-1.2-2.6-2.7c-0.3-2,0.6-3.4,2.5-4.1c2.4-0.9,5.7-0.3,7.3,1.7c-0.4,0.4-0.7,0.7-1.1,1.2
		c-0.9-1.1-2.1-1.5-3.5-1.7c-1-0.2-1.9,0-2.7,0.6c-1,0.8-1.3,2.2,0.2,3.1c0.8,0.5,1.8,0.7,2.7,1c0.7,0.2,1.4,0.4,2,0.7
		c2,0.8,2.7,2.5,2.5,3.8c-0.3,1.9-1,2.9-3.3,3.6c-0.1,0-0.3,0.1-0.4,0.2C201.6,384.1,200.7,384.1,199.8,384.1z"/>
	<path class="st1" d="M339.4,100.3c3.8-3,7.4-5.8,11.1-8.7c1,1.3,2,2.5,2.9,3.8c-5.9,4.6-11.7,9.2-17.7,13.8
		c-0.4-0.4-0.8-0.9-1.1-1.3c-0.3-0.4-0.7-0.9-1-1.3c-0.5-0.6-0.8-1.1-0.5-2c1.6-5.4,3.1-10.8,4.6-16.2c0,0,0-0.1-0.1-0.2
		c-3.8,3-7.6,6-11.4,8.9c-1-1.3-2-2.5-2.9-3.7c5.9-4.6,11.8-9.2,17.7-13.9c0.9,1.2,1.8,2.3,2.7,3.5c0.2,0.2,0.3,0.6,0.2,0.8
		c-1.4,5.3-2.9,10.5-4.4,15.7C339.5,99.7,339.5,99.9,339.4,100.3z"/>
	<path class="st1" d="M178.7,40.1c-1.4,0.3-2.7,0.4-4,0.9c-1.6,0.6-2.1-0.6-2.8-1.4c-1.2-1.4-2.5-2.7-3.5-4.2
		c-0.8-1.3-1.8-1.1-2.9-0.8c-0.5,0.1-1,0.2-1.6,0.4c0.5,2.6,1.1,5.2,1.6,7.8c-1.4,0.3-2.8,0.6-4.2,0.9c-0.2,0-0.5-0.3-0.6-0.5
		c-0.9-4.6-1.8-9.1-2.7-13.7c-0.5-2.4-1-4.8-1.5-7.2c0-0.2,0-0.3,0-0.6c2.7-0.5,5.3-1.1,8-1.6c1.2-0.2,2.3-0.6,3.5-0.6
		c2.3-0.1,4.4,0.5,6,2.4c1.7,2,2.5,5.8,1,8.2c-0.6,0.9-1.4,1.7-2.3,2.4c-0.5,0.4-0.5,0.6-0.1,1c1.3,1.4,2.6,2.8,3.9,4.3
		C177.1,38.4,177.8,39.2,178.7,40.1z M161.9,24.8c0.4,2,0.8,4,1.2,6c0.5-0.1,1.1-0.2,1.6-0.3c1.5-0.4,3.1-0.7,4.5-1.2
		c1.5-0.5,2-2.1,1.4-3.7c-0.4-1.2-2.2-2.1-3.5-1.8C165.4,24.1,163.7,24.4,161.9,24.8z"/>
	<path class="st1" d="M319,85c-6.4,0.1-12.3-5.8-12.1-12.1c0.2-6.2,5.4-11.7,11.8-11.6c6.4,0.1,11.9,5.5,12,11.9
		C330.7,79.5,325.2,84.9,319,85z M311.6,73.8c-0.3,3.5,3.3,6.8,6.8,6.7c3.3-0.1,6.6-3,7.4-6.5c1-4.2-2.8-8.8-7.8-8
		C314.8,66.5,311.4,70.1,311.6,73.8z"/>
	<path class="st1" d="M240.4,29.6c3.5,0.9,7,1.7,10.6,2.6c-0.3,1.2-0.6,2.4-0.9,3.6c-0.1,0.5-0.5,0.4-0.8,0.3
		c-3.3-0.8-6.6-1.6-9.9-2.4c-0.4,1.7-0.8,3.3-1.2,5c3.4,0.8,6.7,1.6,10.1,2.4c0.5,0.1,0.7,0.2,0.5,0.8c-0.3,1.1-0.5,2.2-0.8,3.4
		c-1.4-0.3-2.7-0.6-4.1-1c-3.6-0.9-7.2-1.8-10.8-2.6c-0.4-0.1-0.5-0.2-0.4-0.7c0.9-3.6,1.8-7.3,2.7-10.9c0.8-3.5,1.7-7,2.5-10.4
		c5,1.2,9.9,2.4,14.9,3.6c0.5,0.1,0.6,0.3,0.5,0.8c-0.3,1-0.5,1.9-0.7,2.9c-0.1,0.5-0.2,0.6-0.7,0.4c-3.2-0.8-6.4-1.5-9.6-2.3
		c-0.6-0.2-0.8,0-0.9,0.6C241.1,27,240.7,28.3,240.4,29.6z"/>
	<path class="st1" d="M79,88.2c2.7-2.8,5.3-5.5,8-8.4c0.9,1.1,1.7,2.1,2.7,3.2c-3.4,3.6-7,7.4-10.7,11.3c-0.1-0.1-0.2-0.1-0.3-0.2
		c-1.7-1.6-3.4-3.3-5.1-4.9c-2.6-2.5-5.1-4.9-7.7-7.4c-1.1-1-2.1-2-3.3-3c3.7-3.9,7.3-7.7,11-11.5c1,0.9,2.1,1.9,3.1,2.8
		c-2.6,2.7-5.1,5.4-7.4,7.7c1,1.3,2,2.5,3,3.7c2.7-2.8,5.1-5.4,7.6-7.9c1,0.9,2,1.9,3.1,2.8c-2.5,2.7-5,5.3-7.5,7.9
		C76.7,85.7,77.8,86.9,79,88.2z"/>
	<path class="st1" d="M90.8,73.3c2.1,0.2,4.1-0.2,5.9-1.3c1-0.6,1.9-1.5,2.7-2.4c0.6-0.6,0.8-1.5,0.5-2.4c-0.4-0.9-1.2-1.4-2.2-1.1
		c-1.2,0.4-2.3,0.9-3.5,1.3c-1.7,0.6-3.4,1.4-5.2,1.9c-3.4,0.8-6.2-1.7-6.9-4.6c-0.6-2.7,0.4-4.9,2.2-6.9c1.8-1.9,3.9-3.2,6.4-3.9
		c1.2-0.3,2.4-0.4,3.8-0.6c0,1.6,0,3.1,0,4.5c-2.9,0.1-5.5,0.9-7.5,3.3c-1.1,1.3-0.6,3.1,0.8,3.3c0.6,0.1,1.3-0.2,1.9-0.4
		c1.8-0.7,3.5-1.5,5.3-2.2c2-0.8,4-1.1,6-0.1c2.4,1.3,4.2,4.7,3.3,7.7c-0.8,2.3-2.3,4-4.2,5.5c-1.6,1.3-3.5,2.3-5.5,2.7
		c-1.1,0.2-2.2,0.2-3.3,0.3c-0.2,0-0.5-0.2-0.5-0.4C90.8,76,90.8,74.6,90.8,73.3z"/>
	<path class="st1" d="M131.8,29.6c2.9-1,5.7-2,8.5-3c1.6-0.6,3.1-1.2,4.8-1c2,0.2,3.7,1,5,2.6c1.1,1.5,1.7,3.1,1.6,4.9
		c-0.1,2.7-1.3,4.7-3.7,5.9c-2.2,1.1-4.5,1.8-6.9,2.7c0.9,2.4,1.7,4.9,2.6,7.5c-1.5,0.5-3,1.1-4.5,1.6
		C136.8,43.8,134.3,36.7,131.8,29.6z M139.8,37.8c1.9-0.7,3.8-1.4,5.6-2.2c1.3-0.6,1.9-2.3,1.3-3.7c-0.5-1.2-1.6-2.2-3.2-1.8
		c-1.8,0.5-3.6,1.1-5.4,1.7c-0.1,0-0.3,0.3-0.2,0.4C138.4,34.1,139.1,35.9,139.8,37.8z"/>
	<path class="st1" d="M278.7,38.4c-1.5,0.1-3,0.2-4.4,0.4c-0.6-2.7-2-4.6-4.7-5.3c-2.2-0.6-4.1-0.2-5.9,1.2c-2.6,2-3.8,5.6-2.7,8.7
		c1.2,3.5,5.2,5.6,8.8,4c0.5-0.2,0.9-0.6,1.4-0.9c1,1.1,2,2.2,3,3.3c-3.8,3.1-8.6,3.5-13.5,0.1c-4.4-3.1-6-8-4.2-13.3
		c0.9-2.5,2.4-4.6,4.7-6c1.9-1.2,4-1.9,6.2-1.7C274.5,29.4,277.9,33.2,278.7,38.4z"/>
	<path class="st1" d="M218.6,21.2c-2.2-0.2-4.3-0.5-6.5-0.7c0.1-1.3,0.3-2.7,0.4-4.2c5.9,0.6,11.8,1.3,17.8,1.9
		c-0.1,0.8-0.1,1.6-0.2,2.4c0,0.3-0.1,0.7-0.1,1c0.1,0.8-0.3,0.9-0.9,0.8c-1.7-0.2-3.5-0.5-5.2-0.6c-0.2,0-0.6,0.4-0.6,0.6
		c-0.2,1.2-0.2,2.4-0.4,3.6c-0.2,1.9-0.4,3.8-0.6,5.7c-0.1,1.3-0.2,2.5-0.4,3.8c-0.2,1.5-0.3,3-0.5,4.4c-1.6-0.2-3.1-0.3-4.8-0.5
		C217.3,33.3,218,27.3,218.6,21.2z"/>
	<path class="st1" d="M114,38c0.7,1.2,1.4,2.4,2.1,3.6c-1.7,1-3.3,2-4.9,3c-0.5,0.3-0.6,0.4-0.3,1c3,5,6,10,9.1,15.1
		c-1.3,0.8-2.7,1.6-4.1,2.5c-1.2-2-2.3-3.9-3.5-5.8c-1.9-3.1-3.7-6.2-5.6-9.3c-0.2-0.4-0.5-0.5-0.9-0.3c-1.7,1-3.4,2.1-5,3.1
		c-0.7-1.2-1.5-2.4-2.2-3.6C103.7,44.2,108.8,41.1,114,38z"/>
	<path class="st1" d="M284.9,61.7c-1.4-0.8-2.8-1.6-4.1-2.4c3.1-5.3,6.1-10.5,9.2-15.8c-1.9-1.1-3.8-2.2-5.7-3.3
		c0.7-1.2,1.4-2.4,2.1-3.6c5.2,3,10.3,6,15.5,9c-0.7,1.2-1.4,2.4-2.1,3.6c-1.9-1.1-3.7-2.1-5.7-3.3C291,51.2,288,56.5,284.9,61.7z"
		/>
	<path class="st1" d="M307.5,49.7c1.3,0.9,2.6,1.9,3.9,2.8c-2.9,4.1-5.8,8.1-8.7,12.2c-1.3,1.8-2.6,3.7-4,5.5
		c-0.3,0.4-0.6,0.5-1.1,0.1c-0.9-0.7-1.8-1.4-2.7-2c-0.4-0.3-0.4-0.5-0.1-0.9c1.3-1.8,2.6-3.6,3.9-5.4c2-2.7,3.9-5.5,5.9-8.2
		C305.5,52.4,306.5,51.1,307.5,49.7z"/>
	<path class="st1" d="M214.4,369.4c2.3-0.2,4.5-0.5,6.8-0.6c1.8-0.1,3.1,0.8,3.5,2.5c0.4,1.3,0.1,3.2-1.7,3.9c0,0,0,0.1-0.1,0.2
		c1.4,0.3,2.4,1.2,2.8,2.6c0.5,2.4-0.4,4-2.7,4.5c-2.2,0.5-4.5,0.6-6.7,0.9c-0.2,0-0.5-0.4-0.6-0.6c-0.3-2.3-0.5-4.6-0.7-7
		c-0.2-1.8-0.4-3.6-0.7-5.4C214.4,370.1,214.4,369.8,214.4,369.4z M217.4,381.6c1.5-0.1,2.8-0.3,4.2-0.4c1.4-0.2,2.5-0.9,2.4-2.7
		c-0.1-1.3-1.2-2.3-2.5-2.2c-1.5,0.1-3.1,0.3-4.7,0.5C217,378.5,217.2,380,217.4,381.6z M216.2,370.8c0.2,1.6,0.4,3,0.5,4.5
		c1.5-0.2,2.9-0.3,4.3-0.5c1.2-0.1,2.2-1.2,2.1-2.3c-0.1-1.4-1.3-2.4-2.6-2.3C219.1,370.4,217.7,370.6,216.2,370.8z"/>
	<path class="st1" d="M180.4,374.1c0,2.9-1,5.1-3.2,6.6c-4,2.8-10.3,0.2-10.7-5c-0.2-2.6,0.4-4.8,2.2-6.6c1.9-1.9,4.2-2.1,6.6-1.5
		C178.4,368.3,180.6,371,180.4,374.1z M173.5,368.8c-1.3-0.1-2.5,0.4-3.3,1.2c-1.7,1.8-2.4,4-1.7,6.4c0.9,3.5,5,4.9,7.7,2.9
		c2.1-1.5,2.6-3.7,2.4-6.1C178.3,370.5,176,368.8,173.5,368.8z"/>
	<path class="st1" d="M250.7,377.1c-3,0.8-6,1.5-8.9,2.3c-1.1-4.3-2.2-8.7-3.3-13c-0.1-0.5,0-0.6,0.4-0.7c2.8-0.7,5.5-1.4,8.3-2.1
		c0.1,0.5,0.2,1,0.3,1.5c-2.4,0.6-4.8,1.2-7.2,1.9c0.4,1.3,0.7,2.6,1,3.9c0.1,0.4,0.3,0.5,0.7,0.4c2.2-0.6,4.3-1.1,6.5-1.7
		c0.1,0.5,0.3,1,0.4,1.5c-2.4,0.6-4.7,1.2-7.1,1.8c0.4,1.6,0.8,3.1,1.2,4.7c2.4-0.6,4.7-1.2,7.2-1.8
		C250.4,376.1,250.5,376.5,250.7,377.1z"/>
	<path class="st1" d="M182.3,381c0.3-0.4,0.7-0.8,1-1.3c1.4,1.9,4.1,2.8,6.1,2.2c0.8-0.3,1.5-0.8,1.7-1.7c0.2-1-0.1-1.8-1.1-2.2
		c-1.2-0.5-2.4-1-3.6-1.6c-0.7-0.4-1.5-0.8-2.1-1.3c-1.7-1.4-1.1-4.2,0.8-5.3c2.3-1.4,6.4-0.6,8.1,1.6c-0.4,0.4-0.7,0.7-1.1,1.1
		c-1.3-1.6-3.1-2.1-5.1-1.8c-1,0.1-1.8,0.9-1.9,1.8c-0.1,0.8,0.6,1.6,1.6,2.1c1.5,0.6,3,1.2,4.5,2c1.4,0.7,1.8,2,1.7,3.5
		c-0.2,1.3-0.9,2.4-2.1,3C188.2,384.3,184,383.4,182.3,381z"/>
	<path class="st1" d="M156.5,363.6c2.1,0.6,4,1,5.8,1.6c1.9,0.6,3.2,2.3,3,4c-0.4,2.7-1.5,4-4,4.2c-1.1,0.1-2.3-0.4-3.5-0.7
		c-1.8-0.4-1.8-0.5-2.3,1.2c-0.4,1.2-0.6,2.5-1,3.7c-0.5-0.1-1.1-0.2-1.7-0.4C154.1,372.7,155.3,368.2,156.5,363.6z M156.4,370.7
		c1.3,0.3,2.5,0.5,3.6,0.9c1.4,0.4,2.8-0.3,3.3-1.7c0.5-1.5-0.2-3-1.8-3.4c-1.2-0.4-2.4-0.6-3.8-1
		C157.3,367.2,156.9,368.9,156.4,370.7z"/>
	<path class="st1" d="M231.6,379.7c1.5-0.3,2.9-0.5,4.4-0.8c0.3-0.1,0.7-0.1,1-0.2c1.1-0.3,1.4,0,1.3,1c0,0.1-0.2,0.3-0.4,0.4
		c-2.5,0.5-5,0.9-7.5,1.4c-0.1,0-0.2,0-0.3,0c-0.8-4.5-1.7-9.1-2.5-13.7c0.6-0.1,1.1-0.2,1.7-0.3
		C230.1,371.5,230.8,375.6,231.6,379.7z"/>
	<path class="st1" d="M209.1,369.6c0.6,0,1.1,0,1.7,0c0.1,1,0.2,2,0.2,3c0.1,1.8,0.1,3.5,0.2,5.3c0.1,1.7,0.2,3.3,0.3,5
		c0,0.2,0,0.4,0,0.6c-0.6,0-1,0-1.7,0C209.5,378.9,209.3,374.3,209.1,369.6z"/>
	<path class="st1" d="M133.1,123.9c5.5,4.4,11.4,7.5,17.8,9.8c7.3,2.6,14.8,3.6,22.6,2.7c10.2-1.3,19.1-5.4,27.2-11.7
		c0.2-0.1,0.4-0.3,0.5-0.4c0.3-0.4,0.5-0.3,0.9,0c4.6,3.9,9.8,6.8,15.3,9c3.5,1.4,7.1,2.4,10.8,3s7.5,0.7,11.2,0.3
		c10.3-1,19.5-4.7,28-10.6c0.9-0.6,1.7-1.3,2.7-2c0,0.4,0.1,0.6,0.1,0.9c0,31.9,0,63.8-0.1,95.7c0,4.7-0.6,9.3-1.5,13.9
		c-2.2,11.3-7.6,20.9-15,29.6c-9.9,11.6-21.9,20.5-35.8,26.9c-5,2.3-10.2,4.3-15.6,5.7c-0.4,0.1-1,0.1-1.4,0c-5-1.3-9.8-3-14.4-5.1
		c-14.3-6.4-26.7-15.5-36.9-27.5c-5.4-6.3-9.8-13.2-12.6-21.1c-1.4-3.9-2.3-7.9-2.9-11.9c-1-6.8-1-13.7-1-20.6c0-28.5,0-57,0-85.4
		C133,124.7,133.1,124.4,133.1,123.9z"/>
</g>
<circle class="st2" cx="200" cy="201.2" r="158.5"/>
<g>
	<path class="st3" d="M219.1,7.2c1.1,0.2,2.1,0.6,3.2,0.7c1,0.1,1.5,0.6,2,1.4c2.4,4.6,4.8,9.2,7.3,13.8c0.2,0.3,0.4,0.5,0.8,1.1
		c0.7-5,1.4-9.6,2.1-14.4c1.6,0.2,3.1,0.5,4.9,0.7c-1.1,7.8-2.2,15.4-3.4,23.2c-1.5-0.2-2.8-0.3-4.2-0.6c-0.4-0.1-0.8-0.6-1-1.1
		c-1.5-2.7-2.9-5.4-4.3-8.1c-1.2-2.2-2.4-4.5-3.5-6.7c-0.1-0.2-0.3-0.4-0.6-0.8c-0.8,5.2-1.5,10-2.2,15c-1.6-0.2-3.1-0.4-4.8-0.6
		c0.1-1.3,0.2-2.5,0.4-3.7c0.9-5.9,1.8-11.9,2.7-17.8c0.1-0.6,0-1.3,0-1.9C218.7,7.2,218.9,7.2,219.1,7.2z"/>
	<path class="st3" d="M183.7,7.2c0.1,1.4,0.3,2.8,0.4,4.3c-2.2,0.3-4.3,0.7-6.7,1c0.9,6.3,1.7,12.6,2.6,19c-1.7,0.2-3.2,0.4-4.9,0.7
		c-0.9-6.3-1.8-12.6-2.7-19c-2.3,0.3-4.5,0.6-6.8,0.9c-0.2-1.4-0.4-2.7-0.6-4.2c1.9-0.3,3.7-0.6,5.5-0.8c3.8-0.5,7.6-1,11.4-1.6
		c0.3,0,0.5-0.2,0.8-0.3C183,7.2,183.3,7.2,183.7,7.2z"/>
	<path class="st3" d="M385.1,139.9c-1.3,0.4-2.5,0.9-3.9,1.4c-0.8-2.1-1.6-4.1-2.5-6.3c-6,2.3-11.8,4.5-17.9,6.8
		c-0.6-1.5-1.2-3-1.8-4.6c6-2.3,11.8-4.6,17.9-6.9c-0.8-2.2-1.6-4.2-2.4-6.4c1.3-0.5,2.6-1,4-1.6c0.8,2,1.6,3.9,2.3,5.8
		c1.4,3.6,2.7,7.3,4.1,10.9c0,0.1,0.2,0.1,0.3,0.2C385.1,139.4,385.1,139.6,385.1,139.9z"/>
	<path class="st3" d="M208.9,392.8c-0.2-1.3-0.5-2.5-0.6-3.8c-0.3-3.1-0.5-6.2-0.7-9.3c0-0.5,0-0.9,0-1.4c1.2-0.7,1.9-0.3,2.7,0.6
		c2.4,2.9,4.9,5.7,7.3,8.6c0.3,0.3,0.6,0.6,1.1,1.1c-0.3-3.8-0.5-7.4-0.8-11.1c0.5-0.1,0.9-0.2,1.7-0.4c0.4,4.9,0.7,9.6,1,14.3
		c-1.4,0.8-1.5,0.8-2.4-0.3c-2.5-3-5-5.9-7.6-8.9c-0.3-0.3-0.5-0.6-1-1.1c-0.2,1.1-0.1,1.9,0,2.8c0.2,3,0.4,6,0.6,9
		C209.8,392.8,209.3,392.8,208.9,392.8z"/>
	<path class="st3" d="M194.3,392.8c-0.1-0.5-0.2-1-0.2-1.5c0.1-4.2,0.2-8.3,0.2-12.5c0-0.2,0.1-0.3,0.2-0.7c2.5-0.1,5-0.3,7.5,0.4
		c1.5,0.4,2.6,1.9,2.7,3.6c0.1,1.8-0.4,3.4-2.1,4.3c-0.5,0.2-1,0.4-1.6,0.6c1.3,2,2.5,3.9,3.7,5.9c-0.7,0-1.4,0-2.1,0
		c-1.1-1.8-2.1-3.6-3.2-5.3c-0.2-0.4-0.8-0.6-1.3-0.7c-0.6-0.1-1.3,0-2.1,0c-0.1,2.2-0.1,4.1-0.2,6
		C195.3,392.8,194.8,392.8,194.3,392.8z M196.1,385.3c1.3,0,2.3,0,3.4,0c0.3,0,0.6,0,0.9,0c1.4-0.2,2.3-1.2,2.5-2.5
		c0.1-1.4-0.6-2.7-1.9-3c-1.6-0.3-3.2-0.5-4.8-0.1C196.1,381.6,196.1,383.4,196.1,385.3z"/>
	<path class="st3" d="M360.9,199.7c0,58.6-29.7,111.5-78.7,141c-17.2,10.4-35.8,17.2-55.7,20.5c-11.1,1.8-22.2,2.6-33.4,1.9
		c-44.7-2.6-82-20.7-111.8-54c-19.9-22.3-32.4-48.4-38-77.7c-2.6-13.7-3.4-27.6-2.5-41.5c3.3-49.4,28-93.1,66.4-121.2
		c19.7-14.4,41.5-23.8,65.5-28.1c12.8-2.3,25.7-3,38.7-2.1c61.5,4.3,110.4,42.4,133.7,91.9c7.1,15.1,11.8,30.9,14.1,47.4
		C360.3,185.5,360.8,193.1,360.9,199.7z M196.6,359.8c13.4-0.1,22.7-0.8,31.9-2.5c28.3-5.3,53.4-17.3,74.8-36.6
		c33.2-29.8,51-67.3,53.6-111.9c0.8-12.9-0.2-25.8-2.7-38.5c-6.5-33.3-21.9-61.9-46.5-85.3c-27.1-25.8-59.4-40.1-96.8-42.8
		c-14.4-1-28.7-0.1-42.8,3.1c-36.5,8.1-66.4,26.9-89.6,56.2c-20.6,25.9-31.7,55.6-34,88.6c-1,14.1-0.1,28.1,2.7,42
		c6.2,30.9,20.1,57.9,42.3,80.4C120,343.6,157.2,359.1,196.6,359.8z"/>
	<path class="st3" d="M332.8,58.3c1.6,1.7,3.2,3.3,4.8,5c-2.1,4.5-4.1,9-6.4,13.9c5-1.7,9.5-3.8,14.3-5.5c1.5,1.6,3.2,3.3,4.8,5
		c-5.7,5.4-11.3,10.7-16.9,16c-1.2-1.1-2.4-2.2-3.7-3.3c3.9-3.7,7.6-7.2,11.3-10.7c-0.1-0.1-0.1-0.2-0.2-0.3
		c-5.2,1.9-10.3,4.1-15.7,6.1c-0.5-0.5-1-1-1.5-1.4c2.4-5.3,4.7-10.3,7.1-15.4c-0.1-0.1-0.2-0.2-0.3-0.2c-2,1.6-3.7,3.5-5.6,5.2
		c-1.9,1.7-3.8,3.6-5.8,5.5c-0.7-0.7-1.3-1.2-1.8-1.8c-0.5-0.6-1-1.1-1.6-1.8C321.5,69,327.1,63.7,332.8,58.3z"/>
	<path class="st3" d="M364.4,96.1c0.3,0.2,0.4,0.3,0.4,0.4c0.7,1.3,1.9,2.5,2,3.9c0.1,1.3-0.9,2.6-1.5,3.9
		c-1.6,3.6-3.2,7.2-4.8,10.8c-0.3,0.6-0.5,1.2-0.5,2c4.1-2.3,8.2-4.6,12.5-7c0.8,1.4,1.6,2.7,2.5,4.3c-6.8,3.9-13.5,7.7-20.5,11.6
		c-0.7-1.3-1.5-2.5-2.1-3.8c-0.2-0.4,0-1.1,0.2-1.6c1.8-4,3.6-8.1,5.5-12.1c0.5-1.2,1-2.4,1.4-3.7c-4.4,2.1-8.5,4.6-13,7.1
		c-0.8-1.3-1.6-2.7-2.5-4.2C350.8,103.7,357.6,99.9,364.4,96.1z"/>
	<path class="st3" d="M143.4,24.5c1.4,4.7,2.7,9.4,4.1,14.2c-1.6,0.5-3.1,0.9-4.7,1.3c-2.2-7.6-4.4-15-6.6-22.5c1.5-0.5,3-1,4.5-1.3
		c0.5-0.1,1.3,0.5,1.8,0.9c3.8,2.9,7.6,5.8,11.4,8.7c0.5,0.4,1,0.8,1.9,1.4c-1.4-5-2.7-9.5-4.1-14.2c1.6-0.5,3-0.9,4.7-1.4
		c2.2,7.6,4.4,15,6.6,22.6c-1.4,0.5-2.7,0.9-4,1.2c-0.5,0.1-1.1-0.3-1.5-0.6c-4-3.1-8-6.2-12.1-9.3c-0.6-0.4-1.1-0.8-1.7-1.2
		C143.6,24.3,143.5,24.4,143.4,24.5z"/>
	<path class="st3" d="M291.3,56.2c-1.4-1-2.7-1.8-4.1-2.8c4.3-6.6,8.6-13,13-19.6c1.4,0.9,2.7,1.8,4,2.6c1.9,1.2,3.8,2.4,5.6,3.8
		c2.2,1.6,3.5,3.8,3.3,6.6c-0.2,3.5-3.7,8-8.7,6.9c-0.2,0-0.5,0-0.8,0c-0.2,3.3-0.4,6.6-0.6,10.2c-1.6-1.1-3-1.9-4.3-2.9
		c-0.3-0.2-0.4-0.8-0.4-1.3c0.2-2.3,0.3-4.6,0.6-6.9c0.1-1.2-0.1-2.1-1.3-2.6c-0.6-0.3-1.1-0.6-1.8-1
		C294.4,51.6,292.9,53.8,291.3,56.2z M298.4,45.5c1.8,1.2,3.3,2.3,4.9,3.2c1.5,0.9,3.1,0.5,4.1-0.8c1.1-1.4,1-3.1-0.4-4.3
		c-1.6-1.3-3.3-2.3-5.1-3.5C300.7,42,299.6,43.7,298.4,45.5z"/>
	<path class="st3" d="M261.5,41.1c6.2-5.9,12.1-11.7,18.2-17.5c1.8,0.9,3.6,1.7,5.7,2.7c-0.6,8.3-1.1,16.6-1.7,25.2
		c-1.8-0.8-3.4-1.6-4.9-2.3c0-1.5,0-2.9,0-4.4c-3-1.4-6-2.8-9.3-4.3c-0.9,1.1-1.7,2.1-2.6,3.2C265,42.7,263.4,41.9,261.5,41.1z
		 M279.5,40.2c0.2-1.9,0.4-3.7,0.6-5.4c0.2-1.7,0.3-4.5,0-5.1c-2.5,2.3-4.7,4.9-7.2,7.4C275.2,38.2,277.2,39.1,279.5,40.2z"/>
	<path class="st3" d="M250,27.3c-0.5,1.7-1,3.3-1.6,5.1c3.6,1.4,7.4,2.2,11.1,3.5c-0.4,1.3-0.8,2.5-1.1,3.8
		c-1.4,0-13.8-3.6-15.9-4.6c2.2-7.4,4.4-14.8,6.7-22.4c5.4,1.6,10.5,3.2,15.9,4.8c-0.4,1.4-0.8,2.7-1.2,4.1
		c-3.8-1.1-7.4-2.2-11.2-3.3c-0.5,1.7-1,3.2-1.5,4.8c3.7,1.1,7.2,2.2,10.9,3.3c-0.4,1.4-0.8,2.7-1.2,4.1
		C257.3,29.5,253.8,28.4,250,27.3z"/>
	<path class="st3" d="M24.4,130.2c-1.3,3.7-2.5,7.2-3.8,11c1.6,0.6,3.1,1.1,4.8,1.7c1.3-3.6,2.5-7.1,3.8-10.8
		c1.4,0.5,2.6,0.9,4.1,1.4c-1.2,3.6-2.4,7.1-3.7,10.8c1.7,0.6,3.3,1.2,5.1,1.8c1.3-3.7,2.6-7.3,3.9-11c1.4,0.5,2.7,0.9,4.1,1.4
		c-1.8,5.3-3.6,10.5-5.5,15.7c-7.5-2.6-14.8-5.1-22.2-7.7c1.8-5.3,3.6-10.4,5.5-15.7C21.8,129.3,23.1,129.7,24.4,130.2z"/>
	<path class="st3" d="M135.6,38.3c0.6,1.4,1.2,2.5,1.8,3.9c-5,2.3-10,4.6-15.1,7c-3.3-7.2-6.5-14.2-9.8-21.4c5-2.3,9.9-4.6,15-6.9
		c0.6,1.3,1.2,2.5,1.9,3.9c-3.5,1.7-7,3.3-10.6,4.9c0.7,1.5,1.3,3,2.1,4.6c3.5-1.6,6.8-3.1,10.4-4.7c0.6,1.2,1.2,2.5,1.9,3.9
		c-3.5,1.6-6.8,3.2-10.4,4.8c0.7,1.7,1.4,3.2,2.2,4.9C128.5,41.5,131.9,40,135.6,38.3z"/>
	<path class="st3" d="M73.1,81.4c2.7-2.8,5.3-5.5,8-8.3c1,1.1,1.9,2.1,2.8,3.2C80.4,80,76.7,84,72.8,88
		c-5.7-5.5-11.4-10.8-17.1-16.3c3.9-4.1,7.6-8,11.4-12c1.1,1,2.1,1.9,3.2,2.9c-2.7,2.9-5.3,5.6-8,8.5c1.3,1.3,2.2,2.6,3.7,3.4
		c2.6-2.7,5.1-5.3,7.8-8.1c1.1,1,2,1.8,3.2,2.9c-2.6,2.8-5.2,5.5-7.7,8.2C70.6,78.8,71.8,80.1,73.1,81.4z"/>
	<path class="st3" d="M35.4,115.6c-0.3-0.7-0.6-1.3-0.9-1.8c-1.1-2-2.2-3.9-3.3-5.9c-0.3-0.5-0.5-0.9-0.2-1.5
		c0.8-1.4,1.6-2.9,2.4-4.5c0.7,1.2,1.3,2.2,1.8,3.3c1.3,2.5,2.6,5,3.9,7.5c0.7,1.4,0.7,1.4,2.3,1.2c3.8-0.5,7.6-1.1,11.4-1.6
		c0.5-0.1,0.9-0.1,1.7-0.1c-0.8,1.7-1.5,3.2-2.4,4.7c-0.2,0.4-0.9,0.6-1.3,0.6c-2.6,0.4-5.2,0.7-7.9,1c-0.4,0-0.8,0.1-1.4,0.3
		c1,1.9,1.9,3.7,2.8,5.4c0.4,0.7,0.7,1.5,1.2,2.2c1,1.2,0.7,2.3-0.1,3.5c-0.6,1-1.1,2-1.8,3.2c-2.3-4.4-4.5-8.6-6.8-13
		c-4.5,0.6-9,1.2-13.8,1.8c1-1.8,1.7-3.4,2.6-4.8c0.2-0.3,0.9-0.5,1.4-0.5C29.8,116.2,32.5,115.9,35.4,115.6z"/>
	<path class="st3" d="M54.6,80.9c-0.3,1.5-0.5,3-0.8,4.5c-2.6,0-4.8,0.7-6.3,3c-1.1,1.7-1.5,3.5-1.1,5.4c0.8,4.1,5.4,7.2,9.5,6.3
		c2.1-0.5,3.8-1.7,4.8-3.6c1.1-1.9,0.9-3.8,0.2-5.9c1.3-0.7,2.6-1.4,3.9-2.1c2.5,4.4,1.1,9.6-2.5,13.1c-4.1,4-10.1,4.7-14.8,1.7
		c-5-3.2-7.1-8.7-5.3-14.1C44.2,83.8,48.8,80.1,54.6,80.9z"/>
	<path class="st3" d="M97.7,59.4c0.9,1.2,1.7,2.2,2.7,3.4c-3.9,3.1-7.7,6.2-11.6,9.4C83.9,66,79,59.9,74.1,53.7c1.3-1,2.5-2,3.8-3.1
		c4.1,5,8,9.9,12,14.9C92.6,63.5,95.1,61.5,97.7,59.4z"/>
	<path class="st3" d="M96.6,37.1c3.4,5.5,6.8,10.8,10.2,16.3c2.8-1.7,5.5-3.4,8.5-5.2c0.8,1.2,1.5,2.3,2.3,3.6
		c-4.1,2.8-8.4,5.2-12.7,8c-4.2-6.7-8.3-13.3-12.5-20C93.9,38.9,95.2,38.1,96.6,37.1z"/>
	<path class="st3" d="M356.2,84.5c1,1.3,1.9,2.6,2.9,4c-6.4,4.7-12.6,9.2-19,13.9c-1-1.3-1.9-2.6-2.9-4
		C343.5,93.8,349.8,89.2,356.2,84.5z"/>
	<path class="st3" d="M131.7,379.7c-0.6-0.3-1-0.5-1.5-0.8c1.5-3.4,2.9-6.7,4.3-10c-0.1-0.1-0.2-0.1-0.3-0.2
		c-3.2,2.5-5.8,5.7-9.1,8.3c-0.6-1.6-0.1-3-0.2-4.3c-0.1-1.4,0-2.7,0-4.1c0.1-1.4,0.2-2.8,0.1-4.2c-2,3.2-3.2,6.7-4.9,10
		c-0.5-0.2-0.9-0.4-1.5-0.6c2-4.5,3.9-8.8,5.9-13.4c0.8,0.4,1.5,0.7,2.4,1.1c-0.1,3.9-0.2,7.7-0.3,11.5c0.1,0.1,0.3,0.1,0.4,0.2
		c2.8-2.6,5.5-5.2,8.4-7.9c0.8,0.3,1.5,0.6,2.3,1C135.7,370.8,133.7,375.1,131.7,379.7z"/>
	<path class="st3" d="M63.3,332.7c-0.5-0.5-0.9-0.8-1.3-1.3c2.6-4.4,5.1-8.7,7.6-13.2c0.5,0.4,0.9,0.8,1.4,1.3
		c-2,3.4-4.1,6.9-6.1,10.3c0.1,0.1,0.1,0.2,0.2,0.3c0.4-0.2,0.9-0.3,1.3-0.6c2.7-1.5,5.5-3,8.2-4.5c1.1-0.6,1.1-0.6,2,0.6
		c-2,3.4-4,6.8-6,10.2c0.1,0.1,0.2,0.2,0.3,0.3c3.5-1.9,6.9-3.8,10.6-5.8c0.4,0.4,0.8,0.8,1.4,1.3c-4.7,2.5-9.1,4.9-13.6,7.3
		c-0.4-0.5-0.8-1-1.2-1.5c2-3.4,3.9-6.7,5.9-9.9C70.1,328.9,66.9,331,63.3,332.7z"/>
	<path class="st3" d="M318.7,331.5c0.5-0.4,0.8-0.7,1.3-1.1c3.2,3.6,6.4,7.2,9.6,10.8c-1,1.4-1,1.4-2.5,1c-3.9-0.9-7.8-1.7-11.7-2.6
		c-0.2,0-0.5,0-1.1-0.1c2.7,3.1,5.1,5.8,7.7,8.8c-0.4,0.4-0.7,0.8-1.1,1.3c-3.4-3.8-6.5-7.4-9.7-10.9c0.9-1.5,0.9-1.5,2.5-1.2
		c3.5,0.8,7,1.5,10.5,2.3c0.5,0.1,1,0.1,1.8-0.1C323.6,337.1,321.2,334.4,318.7,331.5z"/>
	<path class="st3" d="M293.7,351c1.8-1.2,3.4-2.5,5.1-3.4c3-1.6,6.5-1,8.7,1.5c2.3,2.6,2.7,6.1,0.9,8.8c-0.4,0.7-1,1.3-1.7,1.8
		c-1.5,1.1-3,2.2-4.7,3.4C299.3,359.1,296.6,355.2,293.7,351z M296,351.3c2.3,3.3,4.4,6.4,6.7,9.6c1.4-1.1,2.6-1.9,3.6-2.9
		c2-1.9,2-4.7,0.4-7.1c-1.7-2.4-4.4-3.3-6.8-2.1C298.6,349.5,297.4,350.4,296,351.3z"/>
	<path class="st3" d="M332.6,320.6c0,0.6-0.1,1-0.1,1.5c-0.4,0.1-0.8,0.1-1.2,0.2c-3.8,0.6-5.9,4.6-4.2,8.1c1.7,3.6,6,4.8,9.1,2.6
		c1.2-0.8,1.7-2,2.1-3.4c0.2-0.8,0.1-1.5-0.6-2.1c-0.4-0.4-0.9-0.8-1.3-1.2c-1.2,1.2-2.3,2.3-3.4,3.5c-0.5-0.4-0.9-0.7-1.4-1
		c1.6-1.7,3.1-3.3,4.7-4.9c1.1,1,2.1,2,3.1,2.9c0.6,0.5,0.7,1,0.7,1.7c0,4.7-5.1,8.5-9.7,7c-3.1-1-5.1-3.2-5.5-6.5
		c-0.4-3.2,1.1-5.6,3.7-7.3C329.7,320.8,331,320.5,332.6,320.6z"/>
	<path class="st3" d="M275.4,377.3c-2.1-4.4-4.1-8.8-6.2-13.3c2.2-1,4.3-2,6.4-2.8c1.8-0.6,3.6,0.1,4.6,1.7c1.1,1.9,1.3,3.6-0.2,5.2
		c-0.3,0.3-0.5,0.6-0.9,1c1.9,1.2,3.7,2.3,5.6,3.5c-1.3,1.1-1.4,1.2-2.6,0.4c-1.2-0.8-2.4-1.5-3.6-2.3c-0.9-0.6-1.6-0.8-2.6-0.2
		c-0.4,0.3-0.8,0.4-1.4,0.7c0.8,1.8,1.6,3.5,2.4,5.3C276.4,376.9,275.9,377.1,275.4,377.3z M273.9,369.9c0.9-0.4,1.6-0.7,2.3-1
		c0.3-0.1,0.7-0.3,0.9-0.5c0.5-0.3,1-0.6,1.4-1c0.8-0.9,0.9-2.2,0.2-3.3c-0.6-1.1-1.8-1.6-3-1.2c-1.4,0.5-2.8,1.2-4.3,1.8
		C272.3,366.5,273,368.1,273.9,369.9z"/>
	<path class="st3" d="M267.1,367.5c-0.4,0.5-0.6,0.8-0.9,1.2c-1.4-0.3-2.7-0.8-4.1-0.4c-3,0.8-4.8,3.6-4.3,6.6
		c0.8,4.1,4.3,6.3,8,4.9c0.4-0.2,0.9-0.4,1.2-0.7c1.5-1.1,2.3-1.9,1.2-3.8c-0.2-0.3-0.3-0.6-0.5-1.1c-1.6,0.6-3.1,1.1-4.7,1.7
		c-0.2-0.4-0.3-0.8-0.5-1.4c2.1-0.8,4.2-1.6,6.4-2.4c0.6,1.5,1.1,2.8,1.6,4.2c0.1,0.5,0,1.2-0.2,1.6c-1.5,2.9-5.2,4.5-8.4,3.7
		c-3.4-0.8-5.6-3.7-5.8-7.2c-0.2-3,1.1-5.3,3.6-6.8C262,366.2,264.4,366.1,267.1,367.5z"/>
	<path class="st3" d="M235.5,374.6c2.2-0.5,4.2-1,6.3-1.4c2-0.4,3.9,0.6,4.7,2.5c0.8,2,0.3,3.9-1.4,5.2c-0.3,0.2-0.6,0.4-0.9,0.6
		c1.5,1.7,3,3.3,4.4,4.9c-1.3,0.6-1.3,0.6-2.4-0.4c-0.8-0.8-1.7-1.5-2.4-2.4c-1.3-1.5-2.7-1.8-4.5-0.7c0.4,1.7,0.7,3.5,1.2,5.5
		c-0.5,0.2-1,0.3-1.6,0.5C237.7,384.1,236.6,379.5,235.5,374.6z M238.9,381.3c1.6-0.4,3.1-0.7,4.4-1.2c1.3-0.4,1.9-1.8,1.7-3.1
		c-0.3-1.4-1.3-2.3-2.7-2.3c-1.6,0.1-3.1,0.4-4.6,1.1C238,377.6,238.4,379.3,238.9,381.3z"/>
	<path class="st3" d="M153.5,386.6c-1.7,0.3-2.2-1-2.9-2.1c-0.6,0.2-1.2,0.5-1.9,0.5c-1.2,0-2.4,0-3.5-0.4c-1.6-0.6-2.7-1.8-2.7-3.6
		c0-1.8,0.8-3.2,2.5-3.9c0.6-0.3,1.2-0.5,1.9-0.7c-0.1-0.6-0.2-1.2-0.2-1.9c-0.1-2.9,2.3-4.6,5-3.7c1.3,0.5,2.1,1.4,2.1,2.5
		c0.1,1.4-0.6,2.4-1.8,3c-0.9,0.4-1.9,0.7-2.9,1c0.1,0.4,0.1,0.7,0.3,1c0.5,1.2,1.1,2.5,1.8,4.1c0.9-1.1,1.6-1.9,2.4-2.8
		c0.3,0.2,0.6,0.4,1.1,0.8c-1,1.1-1.9,2-2.9,3.2C152.4,384.5,152.9,385.5,153.5,386.6z M149.9,383.1c-0.9-1.9-1.6-3.6-2.4-5.4
		c-1.6,0.2-2.6,1.1-3,2.5c-0.3,1.2,0,2.2,1,3C146.9,384.2,148.3,384.1,149.9,383.1z M148.5,375.9c0.2,0.1,0.3,0.2,0.5,0.3
		c0.9-0.4,2-0.7,2.8-1.3c0.8-0.6,0.9-1.7,0.4-2.4c-0.5-0.7-1.8-1.1-2.5-0.5c-0.5,0.4-1,1-1.1,1.7
		C148.4,374.4,148.5,375.2,148.5,375.9z"/>
	<path class="st3" d="M114.5,368.1c-2.1-1.2-4.2-2.4-6.4-3.6c-0.9,0.7-1.8,1.4-2.8,2.1c-0.5-0.2-1-0.5-1.8-0.9
		c4.2-3.4,8.2-6.6,12.3-10c0.6,0.3,1.2,0.6,2,1c-0.7,5.1-1.3,10.3-2,15.4c-1.7-0.4-1.7-0.4-1.6-1.7c0-0.4,0.1-0.7,0.1-1.1
		C114.3,369,114.4,368.7,114.5,368.1z M116,357.9c-2.5,1.9-4.6,3.5-6.7,5.5c1.9,1.1,3.6,2,5.5,3C115.2,363.5,115.5,360.9,116,357.9z
		"/>
	<path class="st3" d="M299.3,364.8c-0.7,0.4-1.2,0.7-1.7,1c-0.9-0.7-1.8-1.4-2.8-2.1c-1.8,1-3.7,2.1-5.5,3.1
		c-0.7,0.4-0.9,0.9-0.8,1.6c0.1,0.8,0.2,1.5,0.3,2.4c-0.5,0.3-1,0.6-1.7,1c-0.7-5.3-1.4-10.5-2.2-15.7c0.7-0.4,1.2-0.7,1.9-1.1
		C291,358.2,295,361.4,299.3,364.8z M293.6,362.6c-2.3-1.9-4.3-3.7-6.7-5.3c0.4,3,0.8,5.6,1.2,8.4
		C290,364.6,291.7,363.6,293.6,362.6z"/>
	<path class="st3" d="M223.1,376.9c3.1-0.5,6.2-1,9.3-1.5c0.1,0.5,0.2,0.9,0.4,1.5c-2.6,0.4-5,0.8-7.8,1.3c0.3,1.6,0.5,3.1,0.8,4.7
		c2.6-0.4,5-0.7,7.5-1.1c0.1,0.5,0.1,0.9,0.2,1.4c-2.5,0.4-4.9,0.8-7.5,1.3c0.3,1.7,0.5,3.3,0.8,5c2.6-0.4,5.1-0.7,7.7-1.1
		c0.1,0.5,0.1,0.9,0.2,1.5c-3.1,0.5-6.2,1-9.3,1.5C224.7,386.5,223.9,381.8,223.1,376.9z"/>
	<path class="st3" d="M178.9,376.9c0.5,0,1,0.1,1.6,0.1c-0.1,1.4-0.2,2.8-0.3,4.1c-0.1,1.6-0.4,3.3-0.5,4.9
		c-0.1,3.1,1.6,4.7,4.7,4.6c1.7-0.1,3.1-1,3.5-2.7c0.4-1.7,0.5-3.5,0.7-5.2c0.2-1.6,0.3-3.1,0.5-4.8c0.6,0.1,1.1,0.1,1.7,0.2
		c-0.3,3.2-0.5,6.3-0.9,9.4c-0.3,2.2-1.4,3.9-3.6,4.6c-2.4,0.7-4.7,0.3-6.6-1.3c-1.2-1-1.7-2.6-1.6-4.2c0.1-2,0.3-4,0.5-6
		C178.7,379.3,178.8,378.1,178.9,376.9z"/>
	<path class="st3" d="M169.2,390.1c-0.7-0.1-1.1-0.2-1.7-0.3c0.7-4.3,1.4-8.5,2.2-12.8c-1.6-0.3-3-0.6-4.5-0.9
		c0.1-0.5,0.2-0.9,0.3-1.4c3.6,0.6,7.1,1.2,10.6,1.9c0.3,1.1,0,1.6-1,1.4c-1.1-0.2-2.3-0.4-3.6-0.6
		C170.7,381.6,170,385.8,169.2,390.1z"/>
	<path class="st3" d="M91.5,355.7c1.9,1.4,3.6,2.6,5.4,4c-0.3,0.4-0.5,0.7-0.8,1.3c-2.3-1.7-4.6-3.3-7-5c2.9-4,5.6-7.9,8.4-11.8
		c0.5,0.3,0.9,0.5,1.3,0.8c-0.1,0.3-0.2,0.5-0.3,0.7c-2,2.9-4.1,5.8-6.1,8.7C92.2,354.7,91.9,355.2,91.5,355.7z"/>
	<path class="st3" d="M81.9,348.1c1.8,1.5,3.4,2.8,5.2,4.3c-0.3,0.4-0.5,0.7-0.9,1.2c-2.2-1.8-4.4-3.5-6.6-5.4
		c3.1-3.8,6.1-7.5,9.2-11.4c0.5,0.4,0.9,0.7,1.3,1.1C87.4,341.3,84.7,344.6,81.9,348.1z"/>
	<path class="st3" d="M210.1,20.1c-0.1,1.3-0.1,2.4-0.2,3.6c-2.7,0-5.4,0-8.1,0c-0.4-1.3-0.3-2.5,0.1-3.6
		C204.6,20.1,207.3,20.1,210.1,20.1z"/>
	<path class="st3" d="M100.9,363.9c-0.6-0.4-0.9-0.7-1.4-1c2.6-4.1,5.2-8.1,7.8-12.2c0.5,0.3,0.9,0.5,1.5,0.8
		C106.2,355.6,103.6,359.7,100.9,363.9z"/>
	<path class="st3" d="M76,345c-0.5-0.4-0.8-0.7-1.3-1.1c3.2-3.6,6.4-7.2,9.7-10.8c0.5,0.3,0.9,0.6,1.4,1
		C82.5,337.7,79.4,341.2,76,345z"/>
	<path class="st3" d="M306.6,341.9c0.4-0.4,0.8-0.7,1.3-1.1c3,3.8,6,7.6,9,11.5c-0.4,0.4-0.8,0.7-1.3,1.1
		C312.6,349.6,309.6,345.8,306.6,341.9z"/>
	<path class="st3" d="M182.6,198.3c0.2-0.3,0.3-0.6,0.6-0.9c5.3-6.2,12.2-10,20.2-11c9.5-1.2,18.4,0.8,26.2,6.7
		c6,4.5,9.4,10.6,10.8,17.9c1,5.3,1,10.7-0.4,16c-2.2,8.3-7,14.6-14.2,19.2c-5.5,3.5-11.7,5.3-18.2,5.8c-7.4,0.6-14.6-0.1-21.5-2.9
		c-8.1-3.2-14-8.8-18.3-16.3c-3.7-6.5-5.6-13.6-6.5-21c-0.6-4.8-0.8-9.5-0.5-14.3c0.5-10,2.8-19.5,8.3-28
		c6.1-9.5,14.7-15.3,25.6-17.9c3.1-0.7,6.3-1,9.4-1.2c7.2-0.4,14.1,0.7,20.7,3.3c4,1.6,7.7,3.8,11.2,6.8c-3.1,5.3-6.2,10.7-9.5,16.2
		c-3.4-3-6.9-5.5-11.2-6.6c-4.3-1.1-8.7-1.5-13.1-0.7c-4.4,0.9-8.3,2.8-11.5,5.9c-3.9,3.7-6.4,8.3-7.6,13.5c-0.7,3-1.1,6.1-0.9,9.2
		C182.3,198.2,182.4,198.3,182.6,198.3z M202.5,233.5c3.7,0.1,7.2-1,9.5-2.4c5.1-3,8-7.3,7.5-13.5c-0.4-4.9-2.9-8.4-7.2-10.7
		c-8.6-4.5-20.7-3.2-28.8,5.1c-1.1,1.1-1.7,2.2-1.1,3.8c0.3,0.8,0.3,1.6,0.5,2.4c1.1,4.1,2.9,7.8,6,10.6
		C192.7,232.2,197.1,233.5,202.5,233.5z"/>
</g>
</svg>
