<?xml version="1.0" encoding="utf-8"?>
<!-- Generator: Adobe Illustrator 24.1.3, SVG Export Plug-In . SVG Version: 6.00 Build 0)  -->
<svg version="1.1" id="Layer_1" xmlns="http://www.w3.org/2000/svg" xmlns:xlink="http://www.w3.org/1999/xlink" x="0px" y="0px"
	 viewBox="0 0 400 400" style="enable-background:new 0 0 400 400;" xml:space="preserve">
<style type="text/css">
	.st0{display:none;}
	.st1{display:inline;fill:#222222;}
	.st2{fill:#E5E5E5;}
	.st3{fill:#222222;}
</style>
<g class="st0">
	<path class="st1" d="M354,205.7c-0.1,1.6-0.2,3.1-0.3,4.7c-0.8,13.6-3.2,26.9-7.6,39.7c-14.4,42-41.6,72.7-81.7,91.9
		c-12.9,6.2-26.6,10.1-40.7,12.2c-10,1.5-20,2-30,1.4c-31.8-1.8-60.3-12.4-85.3-32c-27.7-21.8-45.8-49.9-54.7-84
		c-2.5-9.6-3.9-19.3-4.5-29.2c-0.6-9.2-0.3-18.4,0.8-27.6c3.4-28.5,13.7-54.3,31.3-77.1c20-25.8,45.6-43.6,76.9-53.2
		c10.3-3.1,20.9-5.1,31.6-5.9c46.3-3.5,91.2,14.1,122.7,48.2c18.8,20.4,31.3,44.1,37.6,71.1c2.2,9.6,3.5,19.3,3.8,29.1
		c0,0.4,0.1,0.8,0.1,1.2C354,199.4,354,202.6,354,205.7z M350.6,199.7c-0.2-3.4-0.4-8.2-0.8-12.9c-0.7-9.1-2.4-18-4.8-26.8
		c-12.1-43.7-42.8-78.9-81.9-96.9c-17.5-8-35.9-12.5-55.1-13.3c-13.4-0.6-26.7,0.5-39.8,3.6c-31.2,7.4-57.4,23.2-78.4,47.4
		c-23.9,27.5-36.1,59.7-37.3,96.1c-0.5,14.9,1.2,29.7,5.2,44.1c8.4,30.8,24.8,56.6,49.3,77c25.6,21.3,55.1,32.7,88.4,34.2
		c13.9,0.6,27.5-0.7,41-4c31.1-7.7,57.1-23.8,77.9-48.2C338.3,271.5,350.1,238.3,350.6,199.7z"/>
	<path class="st1" d="M46,100.5c0.7-1,1.5-2,2.2-2.9c1.8-2.5,3.5-5.2,5.6-7.5c2.1-2.5,5.7-2.8,8.2-0.5c1.6,1.5,2,3.2,1.6,5.2
		c0.9-0.3,1.8-0.5,2.7-0.8c1.5-0.5,2.9,0.2,4,1c1.3,0.9,2.2,2.1,2.5,3.8c0.3,1.7-0.2,3.2-1.1,4.5c-2.3,3.4-4.7,6.7-7.1,10
		c-0.3,0.4-0.5,0.3-0.8,0.1c-3-2.2-6-4.4-9.1-6.5c-2.8-2-5.6-4.1-8.5-6.1c-0.1-0.1-0.2,0-0.3-0.1C46,100.7,46,100.6,46,100.5z
		 M63.8,107.5c0.5-0.6,0.9-1.2,1.3-1.7c0.9-1.4,1.9-2.7,2.8-4.1c0.6-1.1,0.3-2.5-0.7-3.1c-1.1-0.7-2.3-1.1-3.4,0.2
		c-1.5,1.8-2.8,3.7-4.3,5.6C61,105.4,62.4,106.5,63.8,107.5z M56.2,101.9c0.1-0.1,0.3-0.2,0.4-0.4c1-1.4,2.1-2.8,3.1-4.3
		c0.4-0.6,0.7-1.3,0.7-2c-0.1-1-0.7-1.8-1.7-2.2c-0.9-0.3-2,0-2.7,0.9c-1.2,1.5-2.3,3.1-3.4,4.7c-0.2,0.3-0.2,0.6,0.1,0.8
		C53.8,100.3,55,101.1,56.2,101.9z"/>
	<path class="st1" d="M195.3,15.9c1,0.2,2,0.4,2.9,0.7c4.2,1.4,6.7,4.4,7.5,8.8c0.6,3.1,0.1,6.1-1.6,8.8c-1.8,2.8-4.4,4.3-7.6,4.8
		c-3.4,0.6-6.6,0.1-9.4-2c-2.5-1.8-3.9-4.3-4.4-7.3c-0.4-2.4-0.2-4.8,0.8-7.1c1.2-2.7,3.1-4.6,5.8-5.7c1.2-0.5,2.5-0.6,3.8-0.9
		c0.1,0,0.2-0.1,0.2-0.2C193.9,15.9,194.6,15.9,195.3,15.9z M201.1,27.5c0-0.3-0.1-0.8-0.2-1.3c-0.5-4.2-4.5-6.9-8.9-5.6
		c-2.7,0.8-4.1,2.9-4.5,5.7c-0.4,3.1,0.3,5.6,2.8,7.6c1.9,1.5,5.4,1.6,7.4,0.3C200,32.7,201,30.4,201.1,27.5z"/>
	<path class="st1" d="M199.8,384.1c-1.1-0.5-2.1-0.9-3.2-1.4c-0.1,0-0.2-0.1-0.3-0.2c-0.8-0.7-0.8-0.7-0.1-1.5
		c0.1-0.1,0.2-0.3,0.3-0.4c0.7,0.5,1.4,1.1,2.2,1.4c1.4,0.6,2.9,0.9,4.4,0.1c0.8-0.4,1.3-1,1.3-2c0-0.9-0.6-1.5-1.3-1.8
		c-1.4-0.6-2.8-1-4.2-1.5c-1.3-0.5-2.4-1.2-2.6-2.7c-0.3-2,0.6-3.4,2.5-4.1c2.4-0.9,5.7-0.3,7.3,1.7c-0.4,0.4-0.7,0.7-1.1,1.2
		c-0.9-1.1-2.1-1.5-3.5-1.7c-1-0.2-1.9,0-2.7,0.6c-1,0.8-1.3,2.2,0.2,3.1c0.8,0.5,1.8,0.7,2.7,1c0.7,0.2,1.4,0.4,2,0.7
		c2,0.8,2.7,2.5,2.5,3.8c-0.3,1.9-1,2.9-3.3,3.6c-0.1,0-0.3,0.1-0.4,0.2C201.6,384.1,200.7,384.1,199.8,384.1z"/>
	<path class="st1" d="M339.4,100.3c3.8-3,7.4-5.8,11.1-8.7c1,1.3,2,2.5,2.9,3.8c-5.9,4.6-11.7,9.2-17.7,13.8
		c-0.4-0.4-0.8-0.9-1.1-1.3c-0.3-0.4-0.7-0.9-1-1.3c-0.5-0.6-0.8-1.1-0.5-2c1.6-5.4,3.1-10.8,4.6-16.2c0,0,0-0.1-0.1-0.2
		c-3.8,3-7.6,6-11.4,8.9c-1-1.3-2-2.5-2.9-3.7c5.9-4.6,11.8-9.2,17.7-13.9c0.9,1.2,1.8,2.3,2.7,3.5c0.2,0.2,0.3,0.6,0.2,0.8
		c-1.4,5.3-2.9,10.5-4.4,15.7C339.5,99.7,339.5,99.9,339.4,100.3z"/>
	<path class="st1" d="M178.7,40.1c-1.4,0.3-2.7,0.4-4,0.9c-1.6,0.6-2.1-0.6-2.8-1.4c-1.2-1.4-2.5-2.7-3.5-4.2
		c-0.8-1.3-1.8-1.1-2.9-0.8c-0.5,0.1-1,0.2-1.6,0.4c0.5,2.6,1.1,5.2,1.6,7.8c-1.4,0.3-2.8,0.6-4.2,0.9c-0.2,0-0.5-0.3-0.6-0.5
		c-0.9-4.6-1.8-9.1-2.7-13.7c-0.5-2.4-1-4.8-1.5-7.2c0-0.2,0-0.3,0-0.6c2.7-0.5,5.3-1.1,8-1.6c1.2-0.2,2.3-0.6,3.5-0.6
		c2.3-0.1,4.4,0.5,6,2.4c1.7,2,2.5,5.8,1,8.2c-0.6,0.9-1.4,1.7-2.3,2.4c-0.5,0.4-0.5,0.6-0.1,1c1.3,1.4,2.6,2.8,3.9,4.3
		C177.1,38.4,177.8,39.2,178.7,40.1z M161.9,24.8c0.4,2,0.8,4,1.2,6c0.5-0.1,1.1-0.2,1.6-0.3c1.5-0.4,3.1-0.7,4.5-1.2
		c1.5-0.5,2-2.1,1.4-3.7c-0.4-1.2-2.2-2.1-3.5-1.8C165.4,24.1,163.7,24.4,161.9,24.8z"/>
	<path class="st1" d="M319,85c-6.4,0.1-12.3-5.8-12.1-12.1c0.2-6.2,5.4-11.7,11.8-11.6c6.4,0.1,11.9,5.5,12,11.9
		C330.7,79.5,325.2,84.9,319,85z M311.6,73.8c-0.3,3.5,3.3,6.8,6.8,6.7c3.3-0.1,6.6-3,7.4-6.5c1-4.2-2.8-8.8-7.8-8
		C314.8,66.5,311.4,70.1,311.6,73.8z"/>
	<path class="st1" d="M240.4,29.6c3.5,0.9,7,1.7,10.6,2.6c-0.3,1.2-0.6,2.4-0.9,3.6c-0.1,0.5-0.5,0.4-0.8,0.3
		c-3.3-0.8-6.6-1.6-9.9-2.4c-0.4,1.7-0.8,3.3-1.2,5c3.4,0.8,6.7,1.6,10.1,2.4c0.5,0.1,0.7,0.2,0.5,0.8c-0.3,1.1-0.5,2.2-0.8,3.4
		c-1.4-0.3-2.7-0.6-4.1-1c-3.6-0.9-7.2-1.8-10.8-2.6c-0.4-0.1-0.5-0.2-0.4-0.7c0.9-3.6,1.8-7.3,2.7-10.9c0.8-3.5,1.7-7,2.5-10.4
		c5,1.2,9.9,2.4,14.9,3.6c0.5,0.1,0.6,0.3,0.5,0.8c-0.3,1-0.5,1.9-0.7,2.9c-0.1,0.5-0.2,0.6-0.7,0.4c-3.2-0.8-6.4-1.5-9.6-2.3
		c-0.6-0.2-0.8,0-0.9,0.6C241.1,27,240.7,28.3,240.4,29.6z"/>
	<path class="st1" d="M79,88.2c2.7-2.8,5.3-5.5,8-8.4c0.9,1.1,1.7,2.1,2.7,3.2c-3.4,3.6-7,7.4-10.7,11.3c-0.1-0.1-0.2-0.1-0.3-0.2
		c-1.7-1.6-3.4-3.3-5.1-4.9c-2.6-2.5-5.1-4.9-7.7-7.4c-1.1-1-2.1-2-3.3-3c3.7-3.9,7.3-7.7,11-11.5c1,0.9,2.1,1.9,3.1,2.8
		c-2.6,2.7-5.1,5.4-7.4,7.7c1,1.3,2,2.5,3,3.7c2.7-2.8,5.1-5.4,7.6-7.9c1,0.9,2,1.9,3.1,2.8c-2.5,2.7-5,5.3-7.5,7.9
		C76.7,85.7,77.8,86.9,79,88.2z"/>
	<path class="st1" d="M90.8,73.3c2.1,0.2,4.1-0.2,5.9-1.3c1-0.6,1.9-1.5,2.7-2.4c0.6-0.6,0.8-1.5,0.5-2.4c-0.4-0.9-1.2-1.4-2.2-1.1
		c-1.2,0.4-2.3,0.9-3.5,1.3c-1.7,0.6-3.4,1.4-5.2,1.9c-3.4,0.8-6.2-1.7-6.9-4.6c-0.6-2.7,0.4-4.9,2.2-6.9c1.8-1.9,3.9-3.2,6.4-3.9
		c1.2-0.3,2.4-0.4,3.8-0.6c0,1.6,0,3.1,0,4.5c-2.9,0.1-5.5,0.9-7.5,3.3c-1.1,1.3-0.6,3.1,0.8,3.3c0.6,0.1,1.3-0.2,1.9-0.4
		c1.8-0.7,3.5-1.5,5.3-2.2c2-0.8,4-1.1,6-0.1c2.4,1.3,4.2,4.7,3.3,7.7c-0.8,2.3-2.3,4-4.2,5.5c-1.6,1.3-3.5,2.3-5.5,2.7
		c-1.1,0.2-2.2,0.2-3.3,0.3c-0.2,0-0.5-0.2-0.5-0.4C90.8,76,90.8,74.6,90.8,73.3z"/>
	<path class="st1" d="M131.8,29.6c2.9-1,5.7-2,8.5-3c1.6-0.6,3.1-1.2,4.8-1c2,0.2,3.7,1,5,2.6c1.1,1.5,1.7,3.1,1.6,4.9
		c-0.1,2.7-1.3,4.7-3.7,5.9c-2.2,1.1-4.5,1.8-6.9,2.7c0.9,2.4,1.7,4.9,2.6,7.5c-1.5,0.5-3,1.1-4.5,1.6
		C136.8,43.8,134.3,36.7,131.8,29.6z M139.8,37.8c1.9-0.7,3.8-1.4,5.6-2.2c1.3-0.6,1.9-2.3,1.3-3.7c-0.5-1.2-1.6-2.2-3.2-1.8
		c-1.8,0.5-3.6,1.1-5.4,1.7c-0.1,0-0.3,0.3-0.2,0.4C138.4,34.1,139.1,35.9,139.8,37.8z"/>
	<path class="st1" d="M278.7,38.4c-1.5,0.1-3,0.2-4.4,0.4c-0.6-2.7-2-4.6-4.7-5.3c-2.2-0.6-4.1-0.2-5.9,1.2c-2.6,2-3.8,5.6-2.7,8.7
		c1.2,3.5,5.2,5.6,8.8,4c0.5-0.2,0.9-0.6,1.4-0.9c1,1.1,2,2.2,3,3.3c-3.8,3.1-8.6,3.5-13.5,0.1c-4.4-3.1-6-8-4.2-13.3
		c0.9-2.5,2.4-4.6,4.7-6c1.9-1.2,4-1.9,6.2-1.7C274.5,29.4,277.9,33.2,278.7,38.4z"/>
	<path class="st1" d="M218.6,21.2c-2.2-0.2-4.3-0.5-6.5-0.7c0.1-1.3,0.3-2.7,0.4-4.2c5.9,0.6,11.8,1.3,17.8,1.9
		c-0.1,0.8-0.1,1.6-0.2,2.4c0,0.3-0.1,0.7-0.1,1c0.1,0.8-0.3,0.9-0.9,0.8c-1.7-0.2-3.5-0.5-5.2-0.6c-0.2,0-0.6,0.4-0.6,0.6
		c-0.2,1.2-0.2,2.4-0.4,3.6c-0.2,1.9-0.4,3.8-0.6,5.7c-0.1,1.3-0.2,2.5-0.4,3.8c-0.2,1.5-0.3,3-0.5,4.4c-1.6-0.2-3.1-0.3-4.8-0.5
		C217.3,33.3,218,27.3,218.6,21.2z"/>
	<path class="st1" d="M114,38c0.7,1.2,1.4,2.4,2.1,3.6c-1.7,1-3.3,2-4.9,3c-0.5,0.3-0.6,0.4-0.3,1c3,5,6,10,9.1,15.1
		c-1.3,0.8-2.7,1.6-4.1,2.5c-1.2-2-2.3-3.9-3.5-5.8c-1.9-3.1-3.7-6.2-5.6-9.3c-0.2-0.4-0.5-0.5-0.9-0.3c-1.7,1-3.4,2.1-5,3.1
		c-0.7-1.2-1.5-2.4-2.2-3.6C103.7,44.2,108.8,41.1,114,38z"/>
	<path class="st1" d="M284.9,61.7c-1.4-0.8-2.8-1.6-4.1-2.4c3.1-5.3,6.1-10.5,9.2-15.8c-1.9-1.1-3.8-2.2-5.7-3.3
		c0.7-1.2,1.4-2.4,2.1-3.6c5.2,3,10.3,6,15.5,9c-0.7,1.2-1.4,2.4-2.1,3.6c-1.9-1.1-3.7-2.1-5.7-3.3C291,51.2,288,56.5,284.9,61.7z"
		/>
	<path class="st1" d="M307.5,49.7c1.3,0.9,2.6,1.9,3.9,2.8c-2.9,4.1-5.8,8.1-8.7,12.2c-1.3,1.8-2.6,3.7-4,5.5
		c-0.3,0.4-0.6,0.5-1.1,0.1c-0.9-0.7-1.8-1.4-2.7-2c-0.4-0.3-0.4-0.5-0.1-0.9c1.3-1.8,2.6-3.6,3.9-5.4c2-2.7,3.9-5.5,5.9-8.2
		C305.5,52.4,306.5,51.1,307.5,49.7z"/>
	<path class="st1" d="M214.4,369.4c2.3-0.2,4.5-0.5,6.8-0.6c1.8-0.1,3.1,0.8,3.5,2.5c0.4,1.3,0.1,3.2-1.7,3.9c0,0,0,0.1-0.1,0.2
		c1.4,0.3,2.4,1.2,2.8,2.6c0.5,2.4-0.4,4-2.7,4.5c-2.2,0.5-4.5,0.6-6.7,0.9c-0.2,0-0.5-0.4-0.6-0.6c-0.3-2.3-0.5-4.6-0.7-7
		c-0.2-1.8-0.4-3.6-0.7-5.4C214.4,370.1,214.4,369.8,214.4,369.4z M217.4,381.6c1.5-0.1,2.8-0.3,4.2-0.4c1.4-0.2,2.5-0.9,2.4-2.7
		c-0.1-1.3-1.2-2.3-2.5-2.2c-1.5,0.1-3.1,0.3-4.7,0.5C217,378.5,217.2,380,217.4,381.6z M216.2,370.8c0.2,1.6,0.4,3,0.5,4.5
		c1.5-0.2,2.9-0.3,4.3-0.5c1.2-0.1,2.2-1.2,2.1-2.3c-0.1-1.4-1.3-2.4-2.6-2.3C219.1,370.4,217.7,370.6,216.2,370.8z"/>
	<path class="st1" d="M180.4,374.1c0,2.9-1,5.1-3.2,6.6c-4,2.8-10.3,0.2-10.7-5c-0.2-2.6,0.4-4.8,2.2-6.6c1.9-1.9,4.2-2.1,6.6-1.5
		C178.4,368.3,180.6,371,180.4,374.1z M173.5,368.8c-1.3-0.1-2.5,0.4-3.3,1.2c-1.7,1.8-2.4,4-1.7,6.4c0.9,3.5,5,4.9,7.7,2.9
		c2.1-1.5,2.6-3.7,2.4-6.1C178.3,370.5,176,368.8,173.5,368.8z"/>
	<path class="st1" d="M250.7,377.1c-3,0.8-6,1.5-8.9,2.3c-1.1-4.3-2.2-8.7-3.3-13c-0.1-0.5,0-0.6,0.4-0.7c2.8-0.7,5.5-1.4,8.3-2.1
		c0.1,0.5,0.2,1,0.3,1.5c-2.4,0.6-4.8,1.2-7.2,1.9c0.4,1.3,0.7,2.6,1,3.9c0.1,0.4,0.3,0.5,0.7,0.4c2.2-0.6,4.3-1.1,6.5-1.7
		c0.1,0.5,0.3,1,0.4,1.5c-2.4,0.6-4.7,1.2-7.1,1.8c0.4,1.6,0.8,3.1,1.2,4.7c2.4-0.6,4.7-1.2,7.2-1.8
		C250.4,376.1,250.5,376.5,250.7,377.1z"/>
	<path class="st1" d="M182.3,381c0.3-0.4,0.7-0.8,1-1.3c1.4,1.9,4.1,2.8,6.1,2.2c0.8-0.3,1.5-0.8,1.7-1.7c0.2-1-0.1-1.8-1.1-2.2
		c-1.2-0.5-2.4-1-3.6-1.6c-0.7-0.4-1.5-0.8-2.1-1.3c-1.7-1.4-1.1-4.2,0.8-5.3c2.3-1.4,6.4-0.6,8.1,1.6c-0.4,0.4-0.7,0.7-1.1,1.1
		c-1.3-1.6-3.1-2.1-5.1-1.8c-1,0.1-1.8,0.9-1.9,1.8c-0.1,0.8,0.6,1.6,1.6,2.1c1.5,0.6,3,1.2,4.5,2c1.4,0.7,1.8,2,1.7,3.5
		c-0.2,1.3-0.9,2.4-2.1,3C188.2,384.3,184,383.4,182.3,381z"/>
	<path class="st1" d="M156.5,363.6c2.1,0.6,4,1,5.8,1.6c1.9,0.6,3.2,2.3,3,4c-0.4,2.7-1.5,4-4,4.2c-1.1,0.1-2.3-0.4-3.5-0.7
		c-1.8-0.4-1.8-0.5-2.3,1.2c-0.4,1.2-0.6,2.5-1,3.7c-0.5-0.1-1.1-0.2-1.7-0.4C154.1,372.7,155.3,368.2,156.5,363.6z M156.4,370.7
		c1.3,0.3,2.5,0.5,3.6,0.9c1.4,0.4,2.8-0.3,3.3-1.7c0.5-1.5-0.2-3-1.8-3.4c-1.2-0.4-2.4-0.6-3.8-1
		C157.3,367.2,156.9,368.9,156.4,370.7z"/>
	<path class="st1" d="M231.6,379.7c1.5-0.3,2.9-0.5,4.4-0.8c0.3-0.1,0.7-0.1,1-0.2c1.1-0.3,1.4,0,1.3,1c0,0.1-0.2,0.3-0.4,0.4
		c-2.5,0.5-5,0.9-7.5,1.4c-0.1,0-0.2,0-0.3,0c-0.8-4.5-1.7-9.1-2.5-13.7c0.6-0.1,1.1-0.2,1.7-0.3
		C230.1,371.5,230.8,375.6,231.6,379.7z"/>
	<path class="st1" d="M209.1,369.6c0.6,0,1.1,0,1.7,0c0.1,1,0.2,2,0.2,3c0.1,1.8,0.1,3.5,0.2,5.3c0.1,1.7,0.2,3.3,0.3,5
		c0,0.2,0,0.4,0,0.6c-0.6,0-1,0-1.7,0C209.5,378.9,209.3,374.3,209.1,369.6z"/>
	<path class="st1" d="M133.1,123.9c5.5,4.4,11.4,7.5,17.8,9.8c7.3,2.6,14.8,3.6,22.6,2.7c10.2-1.3,19.1-5.4,27.2-11.7
		c0.2-0.1,0.4-0.3,0.5-0.4c0.3-0.4,0.5-0.3,0.9,0c4.6,3.9,9.8,6.8,15.3,9c3.5,1.4,7.1,2.4,10.8,3s7.5,0.7,11.2,0.3
		c10.3-1,19.5-4.7,28-10.6c0.9-0.6,1.7-1.3,2.7-2c0,0.4,0.1,0.6,0.1,0.9c0,31.9,0,63.8-0.1,95.7c0,4.7-0.6,9.3-1.5,13.9
		c-2.2,11.3-7.6,20.9-15,29.6c-9.9,11.6-21.9,20.5-35.8,26.9c-5,2.3-10.2,4.3-15.6,5.7c-0.4,0.1-1,0.1-1.4,0c-5-1.3-9.8-3-14.4-5.1
		c-14.3-6.4-26.7-15.5-36.9-27.5c-5.4-6.3-9.8-13.2-12.6-21.1c-1.4-3.9-2.3-7.9-2.9-11.9c-1-6.8-1-13.7-1-20.6c0-28.5,0-57,0-85.4
		C133,124.7,133.1,124.4,133.1,123.9z"/>
</g>
<circle class="st2" cx="200" cy="201.2" r="158.5"/>
<g>
	<path class="st3" d="M881.2,7.2c1.1,0.2,2.1,0.6,3.2,0.7c1,0.1,1.5,0.6,2,1.4c2.4,4.6,4.8,9.2,7.3,13.8c0.2,0.3,0.4,0.5,0.8,1.1
		c0.7-5,1.4-9.6,2.1-14.4c1.6,0.2,3.1,0.5,4.9,0.7c-1.1,7.8-2.2,15.4-3.4,23.2c-1.5-0.2-2.8-0.3-4.2-0.6c-0.4-0.1-0.8-0.6-1-1.1
		c-1.5-2.7-2.9-5.4-4.3-8.1c-1.2-2.2-2.4-4.5-3.5-6.7c-0.1-0.2-0.3-0.4-0.6-0.8c-0.8,5.2-1.5,10-2.2,15c-1.6-0.2-3.1-0.4-4.8-0.6
		c0.1-1.3,0.2-2.5,0.4-3.7c0.9-5.9,1.8-11.9,2.7-17.8c0.1-0.6,0-1.3,0-1.9C880.7,7.2,880.9,7.2,881.2,7.2z"/>
	<path class="st3" d="M845.7,7.2c0.1,1.4,0.3,2.8,0.4,4.3c-2.2,0.3-4.3,0.7-6.7,1c0.9,6.3,1.7,12.6,2.6,19c-1.7,0.2-3.2,0.4-4.9,0.7
		c-0.9-6.3-1.8-12.6-2.7-19c-2.3,0.3-4.5,0.6-6.8,0.9c-0.2-1.4-0.4-2.7-0.6-4.2c1.9-0.3,3.7-0.6,5.5-0.8c3.8-0.5,7.6-1,11.4-1.6
		c0.3,0,0.5-0.2,0.8-0.3C845,7.2,845.4,7.2,845.7,7.2z"/>
	<path class="st3" d="M1047.1,139.9c-1.3,0.4-2.5,0.9-3.9,1.4c-0.8-2.1-1.6-4.1-2.5-6.3c-6,2.3-11.8,4.5-17.9,6.8
		c-0.6-1.5-1.2-3-1.8-4.6c6-2.3,11.8-4.6,17.9-6.9c-0.8-2.2-1.6-4.2-2.4-6.4c1.3-0.5,2.6-1,4-1.6c0.8,2,1.6,3.9,2.3,5.8
		c1.4,3.6,2.7,7.3,4.1,10.9c0,0.1,0.2,0.1,0.3,0.2C1047.1,139.4,1047.1,139.6,1047.1,139.9z"/>
	<path class="st3" d="M870.9,392.8c-0.2-1.3-0.5-2.5-0.6-3.8c-0.3-3.1-0.5-6.2-0.7-9.3c0-0.5,0-0.9,0-1.4c1.2-0.7,1.9-0.3,2.7,0.6
		c2.4,2.9,4.9,5.7,7.3,8.6c0.3,0.3,0.6,0.6,1.1,1.1c-0.3-3.8-0.5-7.4-0.8-11.1c0.5-0.1,0.9-0.2,1.7-0.4c0.4,4.9,0.7,9.6,1,14.3
		c-1.4,0.8-1.5,0.8-2.4-0.3c-2.5-3-5-5.9-7.6-8.9c-0.3-0.3-0.5-0.6-1-1.1c-0.2,1.1-0.1,1.9,0,2.8c0.2,3,0.4,6,0.6,9
		C871.8,392.8,871.4,392.8,870.9,392.8z"/>
	<path class="st3" d="M856.3,392.8c-0.1-0.5-0.2-1-0.2-1.5c0.1-4.2,0.2-8.3,0.2-12.5c0-0.2,0.1-0.3,0.2-0.7c2.5-0.1,5-0.3,7.5,0.4
		c1.5,0.4,2.6,1.9,2.7,3.6c0.1,1.8-0.4,3.4-2.1,4.3c-0.5,0.2-1,0.4-1.6,0.6c1.3,2,2.5,3.9,3.7,5.9c-0.7,0-1.4,0-2.1,0
		c-1.1-1.8-2.1-3.6-3.2-5.3c-0.2-0.4-0.8-0.6-1.3-0.7c-0.6-0.1-1.3,0-2.1,0c-0.1,2.2-0.1,4.1-0.2,6
		C857.3,392.8,856.8,392.8,856.3,392.8z M858.1,385.3c1.3,0,2.3,0,3.4,0c0.3,0,0.6,0,0.9,0c1.4-0.2,2.3-1.2,2.5-2.5
		c0.1-1.4-0.6-2.7-1.9-3c-1.6-0.3-3.2-0.5-4.8-0.1C858.1,381.6,858.1,383.4,858.1,385.3z"/>
	<path class="st3" d="M1022.9,199.7c0,58.6-29.7,111.5-78.7,141c-17.2,10.4-35.8,17.2-55.7,20.5c-11.1,1.8-22.2,2.6-33.4,1.9
		c-44.7-2.6-82-20.7-111.8-54c-19.9-22.3-32.4-48.4-38-77.7c-2.6-13.7-3.4-27.6-2.5-41.5c3.3-49.4,28-93.1,66.4-121.2
		c19.7-14.4,41.5-23.8,65.5-28.1c12.8-2.3,25.7-3,38.7-2.1c61.5,4.3,110.4,42.4,133.7,91.9c7.1,15.1,11.8,30.9,14.1,47.4
		C1022.4,185.5,1022.8,193.1,1022.9,199.7z M858.6,359.8c13.4-0.1,22.7-0.8,31.9-2.5c28.3-5.3,53.4-17.3,74.8-36.6
		c33.2-29.8,51-67.3,53.6-111.9c0.8-12.9-0.2-25.8-2.7-38.5c-6.5-33.3-21.9-61.9-46.5-85.3c-27.1-25.8-59.4-40.1-96.8-42.8
		c-14.4-1-28.7-0.1-42.8,3.1c-36.5,8.1-66.4,26.9-89.6,56.2c-20.6,25.9-31.7,55.6-34,88.6c-1,14.1-0.1,28.1,2.7,42
		c6.2,30.9,20.1,57.9,42.3,80.4C782,343.6,819.3,359.1,858.6,359.8z"/>
	<path class="st3" d="M994.9,58.3c1.6,1.7,3.2,3.3,4.8,5c-2.1,4.5-4.1,9-6.4,13.9c5-1.7,9.5-3.8,14.3-5.5c1.5,1.6,3.2,3.3,4.8,5
		c-5.7,5.4-11.3,10.7-16.9,16c-1.2-1.1-2.4-2.2-3.7-3.3c3.9-3.7,7.6-7.2,11.3-10.7c-0.1-0.1-0.1-0.2-0.2-0.3
		c-5.2,1.9-10.3,4.1-15.7,6.1c-0.5-0.5-1-1-1.5-1.4c2.4-5.3,4.7-10.3,7.1-15.4c-0.1-0.1-0.2-0.2-0.3-0.2c-2,1.6-3.7,3.5-5.6,5.2
		c-1.9,1.7-3.8,3.6-5.8,5.5c-0.7-0.7-1.3-1.2-1.8-1.8c-0.5-0.6-1-1.1-1.6-1.8C983.5,69,989.1,63.7,994.9,58.3z"/>
	<path class="st3" d="M1026.4,96.1c0.3,0.2,0.4,0.3,0.4,0.4c0.7,1.3,1.9,2.5,2,3.9c0.1,1.3-0.9,2.6-1.5,3.9
		c-1.6,3.6-3.2,7.2-4.8,10.8c-0.3,0.6-0.5,1.2-0.5,2c4.1-2.3,8.2-4.6,12.5-7c0.8,1.4,1.6,2.7,2.5,4.3c-6.8,3.9-13.5,7.7-20.5,11.6
		c-0.7-1.3-1.5-2.5-2.1-3.8c-0.2-0.4,0-1.1,0.2-1.6c1.8-4,3.6-8.1,5.5-12.1c0.5-1.2,1-2.4,1.4-3.7c-4.4,2.1-8.5,4.6-13,7.1
		c-0.8-1.3-1.6-2.7-2.5-4.2C1012.9,103.7,1019.6,99.9,1026.4,96.1z"/>
	<path class="st3" d="M805.4,24.5c1.4,4.7,2.7,9.4,4.1,14.2c-1.6,0.5-3.1,0.9-4.7,1.3c-2.2-7.6-4.4-15-6.6-22.5c1.5-0.5,3-1,4.5-1.3
		c0.5-0.1,1.3,0.5,1.8,0.9c3.8,2.9,7.6,5.8,11.4,8.7c0.5,0.4,1,0.8,1.9,1.4c-1.4-5-2.7-9.5-4.1-14.2c1.6-0.5,3-0.9,4.7-1.4
		c2.2,7.6,4.4,15,6.6,22.6c-1.4,0.5-2.7,0.9-4,1.2c-0.5,0.1-1.1-0.3-1.5-0.6c-4-3.1-8-6.2-12.1-9.3c-0.6-0.4-1.1-0.8-1.7-1.2
		C805.6,24.3,805.5,24.4,805.4,24.5z"/>
	<path class="st3" d="M953.3,56.2c-1.4-1-2.7-1.8-4.1-2.8c4.3-6.6,8.6-13,13-19.6c1.4,0.9,2.7,1.8,4,2.6c1.9,1.2,3.8,2.4,5.6,3.8
		c2.2,1.6,3.5,3.8,3.3,6.6c-0.2,3.5-3.7,8-8.7,6.9c-0.2,0-0.5,0-0.8,0c-0.2,3.3-0.4,6.6-0.6,10.2c-1.6-1.1-3-1.9-4.3-2.9
		c-0.3-0.2-0.4-0.8-0.4-1.3c0.2-2.3,0.3-4.6,0.6-6.9c0.1-1.2-0.1-2.1-1.3-2.6c-0.6-0.3-1.1-0.6-1.8-1
		C956.4,51.6,954.9,53.8,953.3,56.2z M960.4,45.5c1.8,1.2,3.3,2.3,4.9,3.2c1.5,0.9,3.1,0.5,4.1-0.8c1.1-1.4,1-3.1-0.4-4.3
		c-1.6-1.3-3.3-2.3-5.1-3.5C962.7,42,961.6,43.7,960.4,45.5z"/>
	<path class="st3" d="M923.5,41.1c6.2-5.9,12.1-11.7,18.2-17.5c1.8,0.9,3.6,1.7,5.7,2.7c-0.6,8.3-1.1,16.6-1.7,25.2
		c-1.8-0.8-3.4-1.6-4.9-2.3c0-1.5,0-2.9,0-4.4c-3-1.4-6-2.8-9.3-4.3c-0.9,1.1-1.7,2.1-2.6,3.2C927,42.7,925.4,41.9,923.5,41.1z
		 M941.5,40.2c0.2-1.9,0.4-3.7,0.6-5.4c0.2-1.7,0.3-4.5,0-5.1c-2.5,2.3-4.7,4.9-7.2,7.4C937.2,38.2,939.2,39.1,941.5,40.2z"/>
	<path class="st3" d="M912,27.3c-0.5,1.7-1,3.3-1.6,5.1c3.6,1.4,7.4,2.2,11.1,3.5c-0.4,1.3-0.8,2.5-1.1,3.8
		c-1.4,0-13.8-3.6-15.9-4.6c2.2-7.4,4.4-14.8,6.7-22.4c5.4,1.6,10.5,3.2,15.9,4.8c-0.4,1.4-0.8,2.7-1.2,4.1
		c-3.8-1.1-7.4-2.2-11.2-3.3c-0.5,1.7-1,3.2-1.5,4.8c3.7,1.1,7.2,2.2,10.9,3.3c-0.4,1.4-0.8,2.7-1.2,4.1
		C919.3,29.5,915.8,28.4,912,27.3z"/>
	<path class="st3" d="M686.5,130.2c-1.3,3.7-2.5,7.2-3.8,11c1.6,0.6,3.1,1.1,4.8,1.7c1.3-3.6,2.5-7.1,3.8-10.8
		c1.4,0.5,2.6,0.9,4.1,1.4c-1.2,3.6-2.4,7.1-3.7,10.8c1.7,0.6,3.3,1.2,5.1,1.8c1.3-3.7,2.6-7.3,3.9-11c1.4,0.5,2.7,0.9,4.1,1.4
		c-1.8,5.3-3.6,10.5-5.5,15.7c-7.5-2.6-14.8-5.1-22.2-7.7c1.8-5.3,3.6-10.4,5.5-15.7C683.9,129.3,685.1,129.7,686.5,130.2z"/>
	<path class="st3" d="M797.6,38.3c0.6,1.4,1.2,2.5,1.8,3.9c-5,2.3-10,4.6-15.1,7c-3.3-7.2-6.5-14.2-9.8-21.4c5-2.3,9.9-4.6,15-6.9
		c0.6,1.3,1.2,2.5,1.9,3.9c-3.5,1.7-7,3.3-10.6,4.9c0.7,1.5,1.3,3,2.1,4.6c3.5-1.6,6.8-3.1,10.4-4.7c0.6,1.2,1.2,2.5,1.9,3.9
		c-3.5,1.6-6.8,3.2-10.4,4.8c0.7,1.7,1.4,3.2,2.2,4.9C790.5,41.5,794,40,797.6,38.3z"/>
	<path class="st3" d="M735.1,81.4c2.7-2.8,5.3-5.5,8-8.3c1,1.1,1.9,2.1,2.8,3.2c-3.5,3.7-7.3,7.6-11.1,11.7
		c-5.7-5.5-11.4-10.8-17.1-16.3c3.9-4.1,7.6-8,11.4-12c1.1,1,2.1,1.9,3.2,2.9c-2.7,2.9-5.3,5.6-8,8.5c1.3,1.3,2.2,2.6,3.7,3.4
		c2.6-2.7,5.1-5.3,7.8-8.1c1.1,1,2,1.8,3.2,2.9c-2.6,2.8-5.2,5.5-7.7,8.2C732.6,78.8,733.8,80.1,735.1,81.4z"/>
	<path class="st3" d="M697.4,115.6c-0.3-0.7-0.6-1.3-0.9-1.8c-1.1-2-2.2-3.9-3.3-5.9c-0.3-0.5-0.5-0.9-0.2-1.5
		c0.8-1.4,1.6-2.9,2.4-4.5c0.7,1.2,1.3,2.2,1.8,3.3c1.3,2.5,2.6,5,3.9,7.5c0.7,1.4,0.7,1.4,2.3,1.2c3.8-0.5,7.6-1.1,11.4-1.6
		c0.5-0.1,0.9-0.1,1.7-0.1c-0.8,1.7-1.5,3.2-2.4,4.7c-0.2,0.4-0.9,0.6-1.3,0.6c-2.6,0.4-5.2,0.7-7.9,1c-0.4,0-0.8,0.1-1.4,0.3
		c1,1.9,1.9,3.7,2.8,5.4c0.4,0.7,0.7,1.5,1.2,2.2c1,1.2,0.7,2.3-0.1,3.5c-0.6,1-1.1,2-1.8,3.2c-2.3-4.4-4.5-8.6-6.8-13
		c-4.5,0.6-9,1.2-13.8,1.8c1-1.8,1.7-3.4,2.6-4.8c0.2-0.3,0.9-0.5,1.4-0.5C691.8,116.2,694.5,115.9,697.4,115.6z"/>
	<path class="st3" d="M716.7,80.9c-0.3,1.5-0.5,3-0.8,4.5c-2.6,0-4.8,0.7-6.3,3c-1.1,1.7-1.5,3.5-1.1,5.4c0.8,4.1,5.4,7.2,9.5,6.3
		c2.1-0.5,3.8-1.7,4.8-3.6c1.1-1.9,0.9-3.8,0.2-5.9c1.3-0.7,2.6-1.4,3.9-2.1c2.5,4.4,1.1,9.6-2.5,13.1c-4.1,4-10.1,4.7-14.8,1.7
		c-5-3.2-7.1-8.7-5.3-14.1C706.2,83.8,710.8,80.1,716.7,80.9z"/>
	<path class="st3" d="M759.8,59.4c0.9,1.2,1.7,2.2,2.7,3.4c-3.9,3.1-7.7,6.2-11.6,9.4c-4.9-6.1-9.8-12.2-14.7-18.4
		c1.3-1,2.5-2,3.8-3.1c4.1,5,8,9.9,12,14.9C754.6,63.5,757.1,61.5,759.8,59.4z"/>
	<path class="st3" d="M758.7,37.1c3.4,5.5,6.8,10.8,10.2,16.3c2.8-1.7,5.5-3.4,8.5-5.2c0.8,1.2,1.5,2.3,2.3,3.6
		c-4.1,2.8-8.4,5.2-12.7,8c-4.2-6.7-8.3-13.3-12.5-20C755.9,38.9,757.2,38.1,758.7,37.1z"/>
	<path class="st3" d="M1018.2,84.5c1,1.3,1.9,2.6,2.9,4c-6.4,4.7-12.6,9.2-19,13.9c-1-1.3-1.9-2.6-2.9-4
		C1005.5,93.8,1011.8,89.2,1018.2,84.5z"/>
	<path class="st3" d="M793.8,379.7c-0.6-0.3-1-0.5-1.5-0.8c1.5-3.4,2.9-6.7,4.3-10c-0.1-0.1-0.2-0.1-0.3-0.2
		c-3.2,2.5-5.8,5.7-9.1,8.3c-0.6-1.6-0.1-3-0.2-4.3c-0.1-1.4,0-2.7,0-4.1c0.1-1.4,0.2-2.8,0.1-4.2c-2,3.2-3.2,6.7-4.9,10
		c-0.5-0.2-0.9-0.4-1.5-0.6c2-4.5,3.9-8.8,5.9-13.4c0.8,0.4,1.5,0.7,2.4,1.1c-0.1,3.9-0.2,7.7-0.3,11.5c0.1,0.1,0.3,0.1,0.4,0.2
		c2.8-2.6,5.5-5.2,8.4-7.9c0.8,0.3,1.5,0.6,2.3,1C797.7,370.8,795.8,375.1,793.8,379.7z"/>
	<path class="st3" d="M725.3,332.7c-0.5-0.5-0.9-0.8-1.3-1.3c2.6-4.4,5.1-8.7,7.6-13.2c0.5,0.4,0.9,0.8,1.4,1.3
		c-2,3.4-4.1,6.9-6.1,10.3c0.1,0.1,0.1,0.2,0.2,0.3c0.4-0.2,0.9-0.3,1.3-0.6c2.7-1.5,5.5-3,8.2-4.5c1.1-0.6,1.1-0.6,2,0.6
		c-2,3.4-4,6.8-6,10.2c0.1,0.1,0.2,0.2,0.3,0.3c3.5-1.9,6.9-3.8,10.6-5.8c0.4,0.4,0.8,0.8,1.4,1.3c-4.7,2.5-9.1,4.9-13.6,7.3
		c-0.4-0.5-0.8-1-1.2-1.5c2-3.4,3.9-6.7,5.9-9.9C732.2,328.9,728.9,331,725.3,332.7z"/>
	<path class="st3" d="M980.8,331.5c0.5-0.4,0.8-0.7,1.3-1.1c3.2,3.6,6.4,7.2,9.6,10.8c-1,1.4-1,1.4-2.5,1c-3.9-0.9-7.8-1.7-11.7-2.6
		c-0.2,0-0.5,0-1.1-0.1c2.7,3.1,5.1,5.8,7.7,8.8c-0.4,0.4-0.7,0.8-1.1,1.3c-3.4-3.8-6.5-7.4-9.7-10.9c0.9-1.5,0.9-1.5,2.5-1.2
		c3.5,0.8,7,1.5,10.5,2.3c0.5,0.1,1,0.1,1.8-0.1C985.6,337.1,983.3,334.4,980.8,331.5z"/>
	<path class="st3" d="M955.7,351c1.8-1.2,3.4-2.5,5.1-3.4c3-1.6,6.5-1,8.7,1.5c2.3,2.6,2.7,6.1,0.9,8.8c-0.4,0.7-1,1.3-1.7,1.8
		c-1.5,1.1-3,2.2-4.7,3.4C961.3,359.1,958.6,355.2,955.7,351z M958,351.3c2.3,3.3,4.4,6.4,6.7,9.6c1.4-1.1,2.6-1.9,3.6-2.9
		c2-1.9,2-4.7,0.4-7.1c-1.7-2.4-4.4-3.3-6.8-2.1C960.6,349.5,959.4,350.4,958,351.3z"/>
	<path class="st3" d="M994.6,320.6c0,0.6-0.1,1-0.1,1.5c-0.4,0.1-0.8,0.1-1.2,0.2c-3.8,0.6-5.9,4.6-4.2,8.1c1.7,3.6,6,4.8,9.1,2.6
		c1.2-0.8,1.7-2,2.1-3.4c0.2-0.8,0.1-1.5-0.6-2.1c-0.4-0.4-0.9-0.8-1.3-1.2c-1.2,1.2-2.3,2.3-3.4,3.5c-0.5-0.4-0.9-0.7-1.4-1
		c1.6-1.7,3.1-3.3,4.7-4.9c1.1,1,2.1,2,3.1,2.9c0.6,0.5,0.7,1,0.7,1.7c0,4.7-5.1,8.5-9.7,7c-3.1-1-5.1-3.2-5.5-6.5
		c-0.4-3.2,1.1-5.6,3.7-7.3C991.7,320.8,993,320.5,994.6,320.6z"/>
	<path class="st3" d="M937.4,377.3c-2.1-4.4-4.1-8.8-6.2-13.3c2.2-1,4.3-2,6.4-2.8c1.8-0.6,3.6,0.1,4.6,1.7c1.1,1.9,1.3,3.6-0.2,5.2
		c-0.3,0.3-0.5,0.6-0.9,1c1.9,1.2,3.7,2.3,5.6,3.5c-1.3,1.1-1.4,1.2-2.6,0.4c-1.2-0.8-2.4-1.5-3.6-2.3c-0.9-0.6-1.6-0.8-2.6-0.2
		c-0.4,0.3-0.8,0.4-1.4,0.7c0.8,1.8,1.6,3.5,2.4,5.3C938.4,376.9,938,377.1,937.4,377.3z M935.9,369.9c0.9-0.4,1.6-0.7,2.3-1
		c0.3-0.1,0.7-0.3,0.9-0.5c0.5-0.3,1-0.6,1.4-1c0.8-0.9,0.9-2.2,0.2-3.3c-0.6-1.1-1.8-1.6-3-1.2c-1.4,0.5-2.8,1.2-4.3,1.8
		C934.3,366.5,935.1,368.1,935.9,369.9z"/>
	<path class="st3" d="M929.1,367.5c-0.4,0.5-0.6,0.8-0.9,1.2c-1.4-0.3-2.7-0.8-4.1-0.4c-3,0.8-4.8,3.6-4.3,6.6
		c0.8,4.1,4.3,6.3,8,4.9c0.4-0.2,0.9-0.4,1.2-0.7c1.5-1.1,2.3-1.9,1.2-3.8c-0.2-0.3-0.3-0.6-0.5-1.1c-1.6,0.6-3.1,1.1-4.7,1.7
		c-0.2-0.4-0.3-0.8-0.5-1.4c2.1-0.8,4.2-1.6,6.4-2.4c0.6,1.5,1.1,2.8,1.6,4.2c0.1,0.5,0,1.2-0.2,1.6c-1.5,2.9-5.2,4.5-8.4,3.7
		c-3.4-0.8-5.6-3.7-5.8-7.2c-0.2-3,1.1-5.3,3.6-6.8C924,366.2,926.4,366.1,929.1,367.5z"/>
	<path class="st3" d="M897.5,374.6c2.2-0.5,4.2-1,6.3-1.4c2-0.4,3.9,0.6,4.7,2.5c0.8,2,0.3,3.9-1.4,5.2c-0.3,0.2-0.6,0.4-0.9,0.6
		c1.5,1.7,3,3.3,4.4,4.9c-1.3,0.6-1.3,0.6-2.4-0.4c-0.8-0.8-1.7-1.5-2.4-2.4c-1.3-1.5-2.7-1.8-4.5-0.7c0.4,1.7,0.7,3.5,1.2,5.5
		c-0.5,0.2-1,0.3-1.6,0.5C899.8,384.1,898.7,379.5,897.5,374.6z M900.9,381.3c1.6-0.4,3.1-0.7,4.4-1.2c1.3-0.4,1.9-1.8,1.7-3.1
		c-0.3-1.4-1.3-2.3-2.7-2.3c-1.6,0.1-3.1,0.4-4.6,1.1C900,377.6,900.4,379.3,900.9,381.3z"/>
	<path class="st3" d="M815.5,386.6c-1.7,0.3-2.2-1-2.9-2.1c-0.6,0.2-1.2,0.5-1.9,0.5c-1.2,0-2.4,0-3.5-0.4c-1.6-0.6-2.7-1.8-2.7-3.6
		c0-1.8,0.8-3.2,2.5-3.9c0.6-0.3,1.2-0.5,1.9-0.7c-0.1-0.6-0.2-1.2-0.2-1.9c-0.1-2.9,2.3-4.6,5-3.7c1.3,0.5,2.1,1.4,2.1,2.5
		c0.1,1.4-0.6,2.4-1.8,3c-0.9,0.4-1.9,0.7-2.9,1c0.1,0.4,0.1,0.7,0.3,1c0.5,1.2,1.1,2.5,1.8,4.1c0.9-1.1,1.6-1.9,2.4-2.8
		c0.3,0.2,0.6,0.4,1.1,0.8c-1,1.1-1.9,2-2.9,3.2C814.5,384.5,815,385.5,815.5,386.6z M811.9,383.1c-0.9-1.9-1.6-3.6-2.4-5.4
		c-1.6,0.2-2.6,1.1-3,2.5c-0.3,1.2,0,2.2,1,3C808.9,384.2,810.3,384.1,811.9,383.1z M810.5,375.9c0.2,0.1,0.3,0.2,0.5,0.3
		c0.9-0.4,2-0.7,2.8-1.3c0.8-0.6,0.9-1.7,0.4-2.4c-0.5-0.7-1.8-1.1-2.5-0.5c-0.5,0.4-1,1-1.1,1.7
		C810.4,374.4,810.5,375.2,810.5,375.9z"/>
	<path class="st3" d="M776.5,368.1c-2.1-1.2-4.2-2.4-6.4-3.6c-0.9,0.7-1.8,1.4-2.8,2.1c-0.5-0.2-1-0.5-1.8-0.9
		c4.2-3.4,8.2-6.6,12.3-10c0.6,0.3,1.2,0.6,2,1c-0.7,5.1-1.3,10.3-2,15.4c-1.7-0.4-1.7-0.4-1.6-1.7c0-0.4,0.1-0.7,0.1-1.1
		C776.4,369,776.4,368.7,776.5,368.1z M778,357.9c-2.5,1.9-4.6,3.5-6.7,5.5c1.9,1.1,3.6,2,5.5,3C777.2,363.5,777.6,360.9,778,357.9z
		"/>
	<path class="st3" d="M961.4,364.8c-0.7,0.4-1.2,0.7-1.7,1c-0.9-0.7-1.8-1.4-2.8-2.1c-1.8,1-3.7,2.1-5.5,3.1
		c-0.7,0.4-0.9,0.9-0.8,1.6c0.1,0.8,0.2,1.5,0.3,2.4c-0.5,0.3-1,0.6-1.7,1c-0.7-5.3-1.4-10.5-2.2-15.7c0.7-0.4,1.2-0.7,1.9-1.1
		C953,358.2,957.1,361.4,961.4,364.8z M955.6,362.6c-2.3-1.9-4.3-3.7-6.7-5.3c0.4,3,0.8,5.6,1.2,8.4
		C952,364.6,953.7,363.6,955.6,362.6z"/>
	<path class="st3" d="M885.2,376.9c3.1-0.5,6.2-1,9.3-1.5c0.1,0.5,0.2,0.9,0.4,1.5c-2.6,0.4-5,0.8-7.8,1.3c0.3,1.6,0.5,3.1,0.8,4.7
		c2.6-0.4,5-0.7,7.5-1.1c0.1,0.5,0.1,0.9,0.2,1.4c-2.5,0.4-4.9,0.8-7.5,1.3c0.3,1.7,0.5,3.3,0.8,5c2.6-0.4,5.1-0.7,7.7-1.1
		c0.1,0.5,0.1,0.9,0.2,1.5c-3.1,0.5-6.2,1-9.3,1.5C886.7,386.5,885.9,381.8,885.2,376.9z"/>
	<path class="st3" d="M841,376.9c0.5,0,1,0.1,1.6,0.1c-0.1,1.4-0.2,2.8-0.3,4.1c-0.1,1.6-0.4,3.3-0.5,4.9c-0.1,3.1,1.6,4.7,4.7,4.6
		c1.7-0.1,3.1-1,3.5-2.7c0.4-1.7,0.5-3.5,0.7-5.2c0.2-1.6,0.3-3.1,0.5-4.8c0.6,0.1,1.1,0.1,1.7,0.2c-0.3,3.2-0.5,6.3-0.9,9.4
		c-0.3,2.2-1.4,3.9-3.6,4.6c-2.4,0.7-4.7,0.3-6.6-1.3c-1.2-1-1.7-2.6-1.6-4.2c0.1-2,0.3-4,0.5-6C840.7,379.3,840.8,378.1,841,376.9z
		"/>
	<path class="st3" d="M831.2,390.1c-0.7-0.1-1.1-0.2-1.7-0.3c0.7-4.3,1.4-8.5,2.2-12.8c-1.6-0.3-3-0.6-4.5-0.9
		c0.1-0.5,0.2-0.9,0.3-1.4c3.6,0.6,7.1,1.2,10.6,1.9c0.3,1.1,0,1.6-1,1.4c-1.1-0.2-2.3-0.4-3.6-0.6
		C832.8,381.6,832,385.8,831.2,390.1z"/>
	<path class="st3" d="M753.6,355.7c1.9,1.4,3.6,2.6,5.4,4c-0.3,0.4-0.5,0.7-0.8,1.3c-2.3-1.7-4.6-3.3-7-5c2.9-4,5.6-7.9,8.4-11.8
		c0.5,0.3,0.9,0.5,1.3,0.8c-0.1,0.3-0.2,0.5-0.3,0.7c-2,2.9-4.1,5.8-6.1,8.7C754.2,354.7,753.9,355.2,753.6,355.7z"/>
	<path class="st3" d="M743.9,348.1c1.8,1.5,3.4,2.8,5.2,4.3c-0.3,0.4-0.5,0.7-0.9,1.2c-2.2-1.8-4.4-3.5-6.6-5.4
		c3.1-3.8,6.1-7.5,9.2-11.4c0.5,0.4,0.9,0.7,1.3,1.1C749.4,341.3,746.7,344.6,743.9,348.1z"/>
	<path class="st3" d="M872.1,20.1c-0.1,1.3-0.1,2.4-0.2,3.6c-2.7,0-5.4,0-8.1,0c-0.4-1.3-0.3-2.5,0.1-3.6
		C866.7,20.1,869.4,20.1,872.1,20.1z"/>
	<path class="st3" d="M763,363.9c-0.6-0.4-0.9-0.7-1.4-1c2.6-4.1,5.2-8.1,7.8-12.2c0.5,0.3,0.9,0.5,1.5,0.8
		C768.2,355.6,765.7,359.7,763,363.9z"/>
	<path class="st3" d="M738,345c-0.5-0.4-0.8-0.7-1.3-1.1c3.2-3.6,6.4-7.2,9.7-10.8c0.5,0.3,0.9,0.6,1.4,1
		C744.6,337.7,741.4,341.2,738,345z"/>
	<path class="st3" d="M968.6,341.9c0.4-0.4,0.8-0.7,1.3-1.1c3,3.8,6,7.6,9,11.5c-0.4,0.4-0.8,0.7-1.3,1.1
		C974.6,349.6,971.6,345.8,968.6,341.9z"/>
	<path class="st3" d="M844.6,198.3c0.2-0.3,0.3-0.6,0.6-0.9c5.3-6.2,12.2-10,20.2-11c9.5-1.2,18.4,0.8,26.2,6.7
		c6,4.5,9.4,10.6,10.8,17.9c1,5.3,1,10.7-0.4,16c-2.2,8.3-7,14.6-14.2,19.2c-5.5,3.5-11.7,5.3-18.2,5.8c-7.4,0.6-14.6-0.1-21.5-2.9
		c-8.1-3.2-14-8.8-18.3-16.3c-3.7-6.5-5.6-13.6-6.5-21c-0.6-4.8-0.8-9.5-0.5-14.3c0.5-10,2.8-19.5,8.3-28
		c6.1-9.5,14.7-15.3,25.6-17.9c3.1-0.7,6.3-1,9.4-1.2c7.2-0.4,14.1,0.7,20.7,3.3c4,1.6,7.7,3.8,11.2,6.8c-3.1,5.3-6.2,10.7-9.5,16.2
		c-3.4-3-6.9-5.5-11.2-6.6c-4.3-1.1-8.7-1.5-13.1-0.7c-4.4,0.9-8.3,2.8-11.5,5.9c-3.9,3.7-6.4,8.3-7.6,13.5c-0.7,3-1.1,6.1-0.9,9.2
		C844.3,198.2,844.5,198.3,844.6,198.3z M864.5,233.5c3.7,0.1,7.2-1,9.5-2.4c5.1-3,8-7.3,7.5-13.5c-0.4-4.9-2.9-8.4-7.2-10.7
		c-8.6-4.5-20.7-3.2-28.8,5.1c-1.1,1.1-1.7,2.2-1.1,3.8c0.3,0.8,0.3,1.6,0.5,2.4c1.1,4.1,2.9,7.8,6,10.6
		C854.7,232.2,859.2,233.5,864.5,233.5z"/>
</g>
<g>
	<path class="st3" d="M201.9,7.2c0.3,0.1,0.6,0.2,1.1,0.3c-0.1,0.7-0.2,1.6-0.2,2.4c-0.1,4.4-0.1,8.9-0.2,13.3c0,1-0.1,2.1-0.2,3.3
		c3.5,0,6.8,0,10,0c0,1.6,0,3,0,4.5c-5.1-0.1-10-0.2-15.1-0.3c0-0.7,0-1.3,0-1.9c0-1.3,0.1-2.6,0.2-4c0.1-3.5,0.1-7.1,0.2-10.6
		c0-2.4,0.1-4.8,0.2-7.1C199.1,7.2,200.5,7.2,201.9,7.2z"/>
	<path class="st3" d="M201.9,392.8c-1.1-1.8-2.2-3.6-3.3-5.4c-0.2-0.3-0.6-0.6-1-0.6c-0.7-0.1-1.4,0-2.2,0c-0.1,1.9-0.2,3.8-0.3,5.8
		c-0.5,0-1,0-1.5,0c0-4.8,0-9.6,0-14.6c2.7,0.1,5.3-0.3,7.9,0.4c1.3,0.4,2.5,2.1,2.6,3.5c0.1,2.8-0.7,3.9-3.4,4.8
		c-0.1,0-0.2,0.1-0.3,0.3c1.3,2,2.5,3.9,3.8,5.9C203.3,392.8,202.6,392.8,201.9,392.8z M195.3,385.2c1.6,0,3.1,0,4.6,0
		c1.2-0.1,2.3-1.6,2.3-2.9c0-1.3-1.3-2.6-2.5-2.7c-0.4,0-0.9-0.1-1.3-0.1c-1,0-2,0-3.1,0C195.3,381.5,195.3,383.3,195.3,385.2z"/>
	<path class="st3" d="M40,202.2c0.1-36.8,10.6-70.2,32.8-99.6c23.2-30.7,53.7-50.8,91.2-59.8c14.5-3.5,29.3-4.8,44.2-3.9
		c47.3,3,85.9,23.2,115.9,59.8c16.7,20.4,27.4,43.9,32.6,69.7c2.8,13.6,3.8,27.3,3,41.1c-2.2,38.7-16.1,72.7-42.2,101.5
		c-22.2,24.5-49.4,40.5-81.6,48.2c-14.5,3.5-29.3,4.8-44.2,3.9c-42.8-2.6-78.9-19.6-108.2-50.8c-20.5-21.8-33.6-47.6-40-76.9
		C41.4,225.1,40.1,213.1,40,202.2z M356.3,201.1c0-11.2-1.1-22.4-3.5-33.2c-6.5-30.4-20.5-56.9-42.4-78.9
		c-28.7-28.8-63.4-44.4-104.1-46.4c-13.9-0.7-27.7,0.6-41.2,3.8c-38.3,9.2-68.9,29.9-91.8,61.8c-18.5,25.7-28.1,54.6-29.5,86.3
		c-0.6,13.4,0.4,26.7,3.3,39.8c7.8,35.8,25.5,65.7,53.6,89.3c26.2,22,56.6,33.9,90.8,35.9c13.8,0.8,27.4-0.2,40.9-3.2
		c34.3-7.6,63-24.8,85.8-51.6C343.6,274.9,355.8,240.1,356.3,201.1z"/>
	<path class="st3" d="M249,22c-1.5,5.1-3,9.9-4.5,14.7c-1.6-0.5-3.2-1-4.8-1.5c2.3-7.5,4.6-15,6.9-22.5c1.6,0.5,3.1,0.9,4.7,1.4
		c0.2,0,0.3,0.3,0.3,0.5c1.4,4,2.8,7.9,4.2,11.9c0.5,1.5,1.1,3,1.6,4.5c0,0.1,0.2,0.2,0.3,0.4c1.4-4.7,2.8-9.3,4.3-14
		c1.6,0.5,3.2,1,4.8,1.5c-2.3,7.6-4.6,15.1-6.9,22.5c-1.4-0.4-2.8-0.8-4.1-1.2c-0.2-0.1-0.5-0.4-0.6-0.6c-1.4-3.8-2.7-7.7-4.1-11.5
		C250.4,26.1,249.7,24.2,249,22z"/>
	<path class="st3" d="M88.9,42.2c0.9,1.2,1.8,2.3,2.7,3.5c-3.1,2.4-6.1,4.7-9.3,7.1c1,1.3,2.1,2.6,3.1,4c3.1-2.4,6-4.7,9-7
		c0.9,1.2,1.7,2.3,2.7,3.4c-0.6,0.5-1.3,1.1-1.9,1.6c-2.2,1.7-4.4,3.3-6.6,5c-0.5,0.4-0.4,0.7-0.1,1.1c0.9,1.2,1.8,2.4,2.8,3.6
		c3.1-2.4,6.2-4.7,9.3-7.1c0.9,1.2,1.8,2.3,2.7,3.5c-4.4,3.4-8.8,6.8-13.2,10.2c-4.8-6.2-9.6-12.4-14.4-18.7
		C80,49,84.4,45.7,88.9,42.2z"/>
	<path class="st3" d="M166.2,10.1c0.3,1.4,0.6,2.8,1,4.3c-3.8,0.9-7.6,1.7-11.4,2.6c0.4,1.7,0.7,3.3,1.1,4.9c3.5-0.8,7-1.5,10.4-2.3
		c0.6-0.1,0.8,0,0.9,0.6c0.2,1.1,0.5,2.3,0.8,3.5c-1.6,0.4-3.2,0.7-4.8,1.1c-1.9,0.4-3.9,0.8-5.8,1.3c-0.2,0-0.5,0.5-0.4,0.7
		c0.2,1.4,0.5,2.7,0.9,4.1c0.1,0.2,0.6,0.6,0.8,0.5c3.6-0.8,7.2-1.6,10.8-2.4c0.3,1.4,0.6,2.8,1,4.3c-5.4,1.2-10.7,2.4-16.3,3.6
		c-1.7-7.6-3.4-15.2-5.2-23C155.3,12.6,160.7,11.3,166.2,10.1z"/>
	<path class="st3" d="M223.8,22.7c-0.3,1.9-0.5,3.6-0.8,5.3c3.9,0.6,7.7,1.2,11.5,1.7c-0.2,1.4-0.3,2.7-0.6,4c0,0.1-0.4,0.3-0.6,0.2
		c-2.6-0.4-5.2-0.8-7.7-1.2c-2.7-0.4-5.5-0.8-8.2-1.3c1.2-7.9,2.3-15.6,3.5-23.3c5.6,0.8,11,1.7,16.5,2.5c-0.2,1.5-0.4,2.9-0.6,4.3
		c-3.8-0.6-7.6-1.1-11.5-1.7c-0.3,1.6-0.5,3.3-0.8,5c3.8,0.6,7.5,1.1,11.3,1.7c-0.2,1.3-0.3,2.5-0.5,3.8c0,0.2-0.4,0.5-0.6,0.5
		c-2.5-0.4-5-0.8-7.5-1.2C226.1,23,225,22.9,223.8,22.7z"/>
	<path class="st3" d="M112.1,45.4c-0.2,2.3-0.4,4.5-0.5,6.7c-0.1,1.2-0.2,2.3-0.4,3.5c0,0.2-0.2,0.3-0.3,0.4
		c-1.5,0.9-3.1,1.8-4.8,2.8c0.1-1.2,0.1-2.3,0.2-3.3c0.1-1.5,0.3-3.1,0.5-4.6c0.2-2,0.5-4.1,0.7-6.1c0-0.3-0.2-0.7-0.4-0.8
		c-3.3-1.6-6.7-3.2-10-4.8c-0.7-0.3-1.4-0.7-2.1-1.1c1.5-0.9,2.9-1.7,4.3-2.5c0.5-0.3,1-0.4,1.6-0.1c2.6,1.3,5.2,2.6,7.8,4
		c0.1-0.7,0.2-1.4,0.3-2c0.1-2.2,0.3-4.4,0.4-6.6c0-0.8,0.5-1.2,1.1-1.6c1.4-0.7,2.7-1.5,4.2-2.3c-0.1,1.2-0.1,2.2-0.2,3.3
		c-0.1,1.6-0.3,3.1-0.5,4.7c-0.2,1.6-0.3,3.2-0.5,4.9c-0.1,0.6,0,1.1,0.7,1.5c4.1,1.9,8.2,3.8,12.3,5.8c0.1,0,0.2,0.1,0.5,0.1
		c-1.1,0.6-2,1.2-3,1.7c-0.5,0.3-1,0.5-1.5,0.9c-0.6,0.4-1,0.4-1.7,0C117.9,48.1,115,46.8,112.1,45.4z"/>
	<path class="st3" d="M143.8,21c-1.1,1.1-2.1,2.2-3.2,3.4c-1.2-0.9-2.5-1.5-4-1.6c-3-0.1-6.2,2.1-7,5.4c-1,4.1,1.4,9.3,6.4,10
		c3.2,0.5,6.6-1.4,7.4-4.8c0.1-0.3,0.2-0.5,0.3-0.9c1.6,0.1,3.1,0.3,4.6,0.4c-0.9,6-5.2,8.9-10,9.6c-7.2,1.1-12-3.4-13.5-8.8
		c-1.5-5.5,0.4-10.7,5.7-13.8C135.5,17.1,140.2,17.8,143.8,21z"/>
	<path class="st3" d="M275.4,48.5c-1.6-0.8-3-1.4-4.5-2.2c2.8-5.8,5.5-11.5,8.2-17.3c-2.1-1-4.1-2-6.2-3c0.6-1.3,1.2-2.6,1.9-4
		c5.7,2.7,11.3,5.4,17,8.1c-0.6,1.3-1.2,2.6-1.9,4c-2.1-1-4.1-2-6.2-3C280.9,36.9,278.2,42.7,275.4,48.5z"/>
	<path class="st3" d="M181.7,27.4c3.3-0.3,6.5-0.6,9.9-0.9c0.1,1.5,0.3,2.9,0.4,4.4c-4.9,0.5-9.9,0.9-14.9,1.4
		c-0.7-7.8-1.5-15.5-2.2-23.4c1.7-0.2,3.3-0.3,5-0.5C180.4,14.6,181.1,21,181.7,27.4z"/>
	<path class="st3" d="M117.9,373.9c2-4.5,4-9,6-13.5c0.8,0.3,1.5,0.7,2.3,1c0,4,0,7.9,0,11.9c2.9-2.7,5.7-5.4,8.6-8.1
		c0.8,0.3,1.5,0.7,2.4,1c-2,4.5-4,9-6,13.5c-0.6-0.3-1.1-0.5-1.6-0.8c1.6-3.6,3.2-7.2,4.8-11c-0.3,0.2-0.4,0.3-0.5,0.3
		c-1.6,1.6-3.3,3.1-4.9,4.7c-1.2,1.2-2.5,2.4-3.8,3.6c-0.2,0.2-0.5,0.2-0.7,0.2c-0.2,0-0.3-0.4-0.3-0.6c0-2.5,0.1-5.1,0.2-7.6
		c0.1-1.5,0.2-3.1,0.2-4.6c-0.1,0-0.2,0-0.2-0.1c-1.6,3.6-3.2,7.1-4.8,10.7C119,374.3,118.5,374.1,117.9,373.9z"/>
	<path class="st3" d="M75.1,324.4c0.3,0.4,0.6,0.7,1,1.1c-2.1,3.5-4.2,7.1-6.3,10.7c0,0,0.1,0.1,0.1,0.1c3.6-2,7.2-4,10.8-6
		c0.5,0.5,0.9,0.9,1.4,1.4c-4.5,2.4-8.9,4.8-13.5,7.2c-0.4-0.4-0.8-0.9-1.1-1.3c-0.1-0.1,0-0.5,0.1-0.7c1.9-3.2,3.8-6.4,5.7-9.5
		c0-0.1,0.1-0.2,0.2-0.5c-3.7,2-7.2,3.9-10.7,5.9c-0.4-0.5-0.8-1-1.3-1.5c2.5-4.3,5-8.7,7.6-13c0.5,0.4,1,0.8,1.5,1.3
		c-2.2,3.6-4.3,7.1-6.4,10.7c0,0.1,0.1,0.1,0.1,0.2C67.9,328.4,71.5,326.4,75.1,324.4z"/>
	<path class="st3" d="M311.2,46.4c0.8,0.6,1.6,1.2,2.4,1.8c-1.2,1.7-2.4,3.3-3.6,5c-0.3,0.4-0.4,0.6,0.1,1c1.4,1,2.8,2,4.1,3
		c0.2,0.1,0.3,0.6,0.2,0.7c-0.4,0.6-0.9,1.2-1.4,1.8c-1.7-1.2-3.4-2.5-5.1-3.7c-1.4,2-2.9,3.9-4.3,5.9c-0.5-0.4-1-0.8-1.4-1.2
		c-1-0.8-1-0.7-0.2-1.8c1.2-1.5,2.3-3.1,3.5-4.7c-1.7-1.3-3.4-2.5-5.2-3.8c0.4-0.6,0.8-1.1,1.2-1.7c0.3-0.4,0.6-0.4,1-0.1
		c1.3,1,2.6,1.9,3.9,2.9c0.5,0.4,0.8,0.3,1.1-0.1C308.7,49.8,309.9,48.1,311.2,46.4z"/>
	<path class="st3" d="M325.4,340.1c-2.5-2.8-5-5.6-7.5-8.5c0.4-0.4,0.9-0.8,1.3-1.2c3.2,3.6,6.4,7.3,9.7,11c-0.6,0.8-1.3,1.3-2.5,1
		c-4-1-8.1-1.8-12.2-2.7c-0.2-0.1-0.5-0.1-0.9-0.2c2.7,3,5.3,5.9,7.8,8.9c-0.4,0.4-0.9,0.8-1.3,1.2c-3.2-3.7-6.5-7.3-9.7-11
		c0,0,0-0.1,0-0.1c0.7-1.2,1.7-1.2,2.9-0.9c3.9,0.9,7.9,1.7,11.9,2.5c0.1,0,0.3,0.1,0.4,0.2C325.3,340.2,325.4,340.2,325.4,340.1z"
		/>
	<path class="st3" d="M219.9,391.6c-0.3,0.1-0.6,0.3-0.9,0.2c-0.4,0-0.9-0.1-1.1-0.4c-1.2-1.3-2.2-2.7-3.4-4
		c-1.6-1.9-3.2-3.8-4.8-5.7c-0.2-0.3-0.5-0.6-0.7-0.9c-0.1,0-0.1,0.1-0.2,0.1c0.3,3.8,0.6,7.6,0.9,11.5c-0.6,0-1.1,0-1.8,0
		c-0.4-4.8-0.7-9.7-1.1-14.5c1.3-0.4,2.1-0.1,2.9,0.9c1.5,2,3.2,3.7,4.8,5.6c0.9,1,1.7,2.1,2.6,3.1c0.3,0.3,0.5,0.6,0.7,1
		c0.1-0.1,0.1-0.1,0.2-0.2c-0.3-3.7-0.6-7.4-0.8-11.1c1.9-0.5,1.8-0.5,1.9,1.4c0.2,2.9,0.5,5.7,0.7,8.5
		C219.8,388.7,219.9,390.2,219.9,391.6z"/>
	<path class="st3" d="M301.2,363.1c-2.8-4.1-5.6-8.1-8.4-12.1c1.7-1.2,3.3-2.5,5.1-3.4c3.7-2,7.8-0.5,9.8,3c1.1,2,1.4,4.1,0.5,6.3
		c-0.5,1.3-1.5,2.3-2.5,3.2C304.3,361.1,302.7,362,301.2,363.1z M301.7,360.8c0.7-0.5,1.4-1,2.1-1.4c3-2,4.1-4.9,2.2-8
		c-0.9-1.6-2.3-2.7-4.2-3c-2.8-0.4-4.6,1.5-6.6,2.9C297.4,354.5,299.6,357.6,301.7,360.8z"/>
	<path class="st3" d="M266.4,367.4c-0.3,0.5-0.7,0.9-1,1.4c-3.3-2.1-7.7,0.2-8.3,3.8c-0.6,3.1,1.5,6.7,4.8,7.4
		c1.9,0.4,4.8-0.8,5.7-2.5c0.2-0.4,0.2-1,0.1-1.4c-0.2-0.7-0.5-1.3-0.8-2.1c-1.6,0.6-3.2,1.2-4.8,1.8c-0.1-0.5-0.4-1.2-0.2-1.5
		c0.2-0.4,0.9-0.4,1.4-0.6c1.6-0.6,3.2-1.2,4.8-1.8c0.6,1.5,1.1,3.1,1.7,4.6c0.1,0.2,0.1,0.5,0,0.7c-2.1,4.7-8.4,6.3-12.3,2.5
		c-2.5-2.4-3.3-6.5-1.5-9.5c1.9-3.2,6.2-4.8,9.7-3C265.9,367.2,266.1,367.3,266.4,367.4z"/>
	<path class="st3" d="M332,320.5c-0.1,0.7-0.3,1.2-0.3,1.6c-1,0.3-2,0.4-2.8,0.8c-3.3,1.5-4.4,5.6-1.7,8.8c1.8,2.1,4.3,2.9,6.7,2
		c2.2-0.8,3.3-2.5,3.7-4.7c0.1-0.4-0.2-0.9-0.4-1.2c-0.5-0.6-1.1-1.1-1.8-1.7c-0.6,0.7-1.2,1.4-1.7,1.9c-0.6,0.6-1.2,1.1-2,1.7
		c-0.2-0.2-0.4-0.7-0.8-1.2c1.4-1.5,3-3.2,4.6-4.8c1,0.9,1.9,1.9,3,2.7c1,0.8,1,1.8,0.8,2.8c-0.8,3.5-2.9,5.7-6.4,6.4
		c-2.2,0.4-4.2-0.2-5.9-1.7c-1.9-1.6-3-3.7-2.9-6.2c0.1-3.3,2.9-6.6,6.1-7C330.6,320.7,331.2,320.6,332,320.5z"/>
	<path class="st3" d="M278.2,369.1c2.1,1.3,4,2.5,6,3.7c-0.1,0.1-0.1,0.1-0.2,0.1c-1.8,1.5-3-0.1-4.4-0.9c-0.9-0.5-1.7-1.2-2.6-1.7
		c-0.3-0.2-0.9-0.2-1.3-0.1c-0.7,0.2-1.4,0.6-2.1,0.9c0.8,1.8,1.6,3.5,2.5,5.3c-0.5,0.3-1,0.5-1.6,0.8c-2.1-4.4-4.1-8.9-6.2-13.3
		c1-0.5,2-1,2.9-1.4c1.2-0.5,2.5-1,3.8-1.5c1.8-0.7,4.2,0.9,4.8,2.8c0.6,1.7,0.4,3.2-1,4.4C278.7,368.6,278.5,368.8,278.2,369.1z
		 M270.6,364.6c0.9,1.8,1.7,3.5,2.5,5.2c0.6-0.3,1.1-0.6,1.7-0.8c0.6-0.3,1.2-0.5,1.7-0.8c0.4-0.3,0.9-0.6,1.2-0.9
		c0.8-0.9,0.8-2.1,0.1-3.4c-0.5-0.9-1.8-1.4-2.8-1.1C273.6,363.4,272.1,364,270.6,364.6z"/>
	<path class="st3" d="M239.8,388.5c-0.6,0.1-1.2,0.3-1.8,0.4c-1.1-4.8-2.2-9.5-3.4-14.3c2.2-0.5,4.3-1.1,6.5-1.5
		c2.2-0.3,4.1,0.9,4.7,3.2c0.6,2.4-0.4,4.3-2.3,5.1c-0.1,0-0.2,0.2-0.3,0.2c1.7,1.6,3.3,3.1,5,4.7c-1,0.7-1.9,0.7-2.8-0.1
		c-1.3-1.2-2.6-2.5-3.9-3.7c-0.2-0.2-0.6-0.3-0.8-0.2c-0.8,0.1-1.6,0.4-2.4,0.6C238.9,384.7,239.4,386.6,239.8,388.5z M236.8,375.6
		c0.4,1.9,0.8,3.6,1.2,5.3c0,0.1,0.4,0.3,0.5,0.3c1.4-0.3,2.7-0.6,4.1-1.1c1.1-0.4,1.8-1.8,1.5-3.1c-0.2-1.2-1.3-2.3-2.5-2.2
		C240.1,374.9,238.5,375.3,236.8,375.6z"/>
	<path class="st3" d="M153.2,386.9c-0.8-0.3-1.5-0.3-2.1-0.7c-0.5-0.4-0.8-1.2-1.2-1.8c-1.5,0.7-3.1,1-4.8,0.4
		c-1.9-0.6-3.2-2.2-3.2-3.9c-0.1-1.7,1.4-3.5,3.2-4.2c0.5-0.2,0.9-0.3,1.2-0.4c0-1.1,0-2.1,0-3c0.1-1.5,1.6-2.7,2.7-2.8
		c2.1-0.2,3.7,0.6,4.3,2.1c0.5,1.4-0.5,3.3-2,3.9c-0.9,0.3-1.8,0.5-2.8,0.8c0.7,1.6,1.4,3.2,2.2,4.9c0.9-0.9,1.7-1.8,2.5-2.8
		c0.3,0.3,0.7,0.6,1.2,0.9c-0.9,0.9-1.8,1.7-2.6,2.6c-0.2,0.2-0.3,0.7-0.2,0.9C152,384.9,152.6,385.8,153.2,386.9z M149.2,383.1
		c-0.8-1.9-1.7-3.7-2.5-5.5c-1.5,0.4-2.7,1.1-3,2.6c-0.2,1.2,0.1,2.3,1.2,3C146.5,384.1,147.8,383.8,149.2,383.1z M147.9,375.9
		c0.1,0.1,0.2,0.1,0.4,0.2c0.8-0.3,1.7-0.5,2.4-0.8c0.8-0.4,1.2-1.1,1.2-2c-0.1-1-0.8-1.2-1.5-1.5c-0.8-0.2-2,0.4-2.2,1.3
		C147.9,374,147.9,375,147.9,375.9z"/>
	<path class="st3" d="M115.2,372.4c-1.5-0.3-2.1-1.2-1.5-2.6c0.1-0.4,0.2-0.8,0.2-1.2c0-0.3-0.2-0.6-0.4-0.7
		c-1.8-1.1-3.6-2.1-5.4-3.1c-0.4-0.2-0.6-0.3-1,0.1c-0.4,0.4-0.9,0.7-1.4,1.1c-1,0.8-1.2,0.8-2.2,0.1c-0.2-0.1-0.3-0.2-0.5-0.4
		c4.1-3.3,8.2-6.6,12.3-9.9c0.5,0.2,0.9,0.5,1.4,0.7c0.5,0.2,0.6,0.5,0.5,1c-0.4,3.3-0.8,6.6-1.3,9.9
		C115.7,369,115.4,370.7,115.2,372.4z M108.7,363.3c1.9,1.1,3.7,2,5.5,3.1c0.4-2.9,0.8-5.6,1.2-8.5
		C113.1,359.7,111,361.4,108.7,363.3z"/>
	<path class="st3" d="M286.1,354.9c4.1,3.3,8.2,6.5,12.4,9.8c-0.6,0.3-1.1,0.7-1.6,1c-0.2,0.1-0.5-0.2-0.8-0.4
		c-0.6-0.5-1.2-1-1.8-1.5c-0.2-0.1-0.5-0.2-0.6-0.1c-1.9,1.1-3.7,2.1-5.5,3.2c-0.2,0.1-0.4,0.4-0.4,0.7c0,0.6,0,1.3,0.2,1.9
		c0.3,0.9,0.1,1.4-0.8,1.7c-0.2,0.1-0.4,0.3-0.8,0.4c-0.2-1.3-0.4-2.5-0.5-3.7c-0.3-2-0.6-4-0.9-6c-0.3-1.8-0.5-3.6-0.7-5.4
		c0-0.2,0.2-0.6,0.4-0.8C285.1,355.5,285.6,355.2,286.1,354.9z M286.1,357.1c0.4,3,0.8,5.7,1.2,8.5c1.9-1.1,3.6-2.1,5.5-3.1
		C290.5,360.7,288.4,359,286.1,357.1z"/>
	<path class="st3" d="M224.4,378c0.2,1.5,0.4,3.1,0.7,4.7c2.6-0.4,5.1-0.8,7.6-1.2c0.1,0.5,0.1,1,0.2,1.6c-2.5,0.4-5,0.8-7.6,1.2
		c0.3,1.7,0.5,3.4,0.8,5.1c2.4-0.4,4.8-0.8,7.2-1.2c0.2,0,0.6,0.3,0.7,0.5c0.1,0.3,0.1,0.6,0.1,1.1c-3.1,0.5-6.3,1-9.5,1.5
		c-0.8-4.9-1.5-9.7-2.3-14.5c3.2-0.5,6.3-1,9.5-1.5c0.1,0.5,0.2,1,0.3,1.6C229.6,377.2,227.1,377.6,224.4,378z"/>
	<path class="st3" d="M178.2,376.6c0.7,0.1,1.3,0.2,1.8,0.3c-0.1,0.9-0.2,1.7-0.3,2.5c-0.2,2.4-0.4,4.8-0.5,7.2
		c-0.1,2.2,1.6,3.9,3.8,3.9c3,0,4.3-1.3,4.5-4.3c0.2-2.6,0.5-5.2,0.7-7.8c0-0.3,0.2-0.5,0.3-0.8c0.5,0.1,1,0.1,1.6,0.2
		c-0.1,0.9-0.1,1.8-0.2,2.7c-0.2,1.7-0.3,3.5-0.5,5.2c-0.1,1.5-0.4,3-1.3,4.4c-1,1.6-3.9,2.4-5.3,2.1c-1.2-0.3-2.5-0.5-3.5-1.3
		c-1.1-0.9-1.9-2-1.8-3.4c0-2.5,0.3-5,0.5-7.5C178,378.9,178.1,377.9,178.2,376.6z"/>
	<path class="st3" d="M170.9,377.2c-0.8,4.3-1.5,8.6-2.3,13c-0.3-0.1-0.4-0.2-0.6-0.2c-1.2-0.3-1.2-0.3-1-1.5
		c0.6-3.2,1.2-6.3,1.7-9.5c0.1-0.7,0.2-1.4,0.3-2.1c-1.5-0.3-3-0.5-4.5-0.8c0.1-0.5,0.2-1,0.3-1.6c3.7,0.6,7.3,1.3,11,1.9
		c-0.1,0.5-0.2,1-0.3,1.6C173.9,377.7,172.5,377.5,170.9,377.2z"/>
	<path class="st3" d="M91,355.6c1.9,1.3,3.7,2.6,5.6,4c-0.3,0.4-0.6,0.8-0.9,1.3c-2.3-1.7-4.6-3.3-7-5c0.7-0.9,1.3-1.9,1.9-2.8
		c2-2.8,4.1-5.6,6.1-8.5c0.4-0.6,0.7-0.8,1.2-0.2c0.2,0.2,0.5,0.3,0.8,0.5C96,348.5,93.5,352,91,355.6z"/>
	<path class="st3" d="M88.2,336.8c0.5,0.4,0.9,0.7,1.4,1.1c-2.8,3.4-5.5,6.8-8.3,10.2c1.7,1.4,3.5,2.8,5.3,4.3
		c-0.3,0.4-0.6,0.8-1,1.3c-2.3-1.8-4.5-3.6-6.7-5.5C82,344.4,85.1,340.6,88.2,336.8z"/>
	<path class="st3" d="M75.5,345c-0.5-0.4-1-0.8-1.4-1.1c3.3-3.6,6.5-7.3,9.8-10.9c0.5,0.4,0.9,0.8,1.4,1.1
		C82,337.7,78.8,341.3,75.5,345z"/>
	<path class="st3" d="M106.8,350.5c0.5,0.3,1,0.6,1.5,0.9c-2.6,4.1-5.3,8.3-7.9,12.4c-0.5-0.3-1-0.6-1.5-1
		C101.5,358.8,104.1,354.7,106.8,350.5z"/>
	<path class="st3" d="M316.2,352.4c-0.5,0.4-1,1-1.4,1c-0.4-0.1-0.7-0.8-1.1-1.3c-1.6-2-3.2-4.1-4.8-6.1c-1.1-1.3-2.1-2.7-3.1-4
		c0.5-0.4,0.9-0.7,1.4-1.1C310.1,344.7,313.1,348.5,316.2,352.4z"/>
	<path class="st3" d="M236.4,208.8c0-18.9,0-37.8,0-56.7c22.6,0,45.1,0,67.7,0c0,6.1,0,12.3,0,18.5c-15.5,0-31.1,0-46.6,0
		c0,7.9,0,15.8,0,23.7c1.3-1,2.5-1.9,3.8-2.8c3.4-2.3,7.2-3.7,11.2-4.4c2.3-0.4,4.6-0.7,6.9-0.7c6.8,0.1,13.2,1.9,18.7,5.9
		c6.2,4.4,10,10.4,11.8,17.8c0.8,3.5,1.1,7.1,0.9,10.7c-0.3,4.7-1.3,9.2-3.5,13.3c-1.2,2.1-2.6,4.2-4.1,6
		c-4.6,5.5-10.7,8.7-17.6,10.5c-3.2,0.9-6.4,1.5-9.7,1.6c-2.8,0.1-5.6,0.3-8.4,0.1c-5.7-0.3-11.3-1.2-16.6-3.2
		c-4.7-1.7-9.1-4-12.9-7.3c-1.4-1.2-2.7-2.5-4.1-3.7c-0.5-0.4-0.5-0.7-0.1-1.2c1.3-1.6,2.6-3.3,3.9-4.9c1.7-2.1,3.4-4.3,5.1-6.4
		c0.7-0.9,1.5-1.9,2.1-2.7c2.1,1.6,4.1,3.4,6.3,4.9c4,2.7,8.5,4.4,13.3,5.2c2.9,0.5,5.7,0.7,8.6,0.5c4.9-0.3,9.4-1.8,12.8-5.6
		c1.7-1.9,2.8-4.2,3.2-6.8c0.5-3.7-0.2-7.1-2.3-10.2c-1.9-2.7-4.6-4.4-7.8-5.3c-1.7-0.5-3.4-0.8-5.1-0.9c-1.9-0.2-3.8-0.2-5.7,0
		c-5.2,0.5-9.9,2.1-14.1,5.3c-0.9,0.7-1.8,1.5-2.8,2.2c-0.2,0.2-0.6,0.2-0.9,0.1C245.8,211.2,241.1,210,236.4,208.8z"/>
	<path class="st3" d="M161.8,170.6c-15.5,0-30.9,0-46.4,0c0,7.9,0,15.7,0,23.7c2.3-2.1,4.8-3.7,7.6-5c2.7-1.2,5.5-2.1,8.4-2.5
		c2-0.2,4-0.6,6-0.5c5.3,0.1,10.4,1.3,15.1,3.8c2.2,1.2,4.3,2.7,6.2,4.4c2.8,2.5,5,5.5,6.6,8.8c1.4,2.8,2.4,5.8,2.7,9
		c0.2,2.4,0.6,4.7,0.5,7.1c-0.1,5.5-1.3,10.7-4,15.5c-2.8,5-6.7,8.8-11.6,11.7c-4,2.4-8.4,3.8-13,4.7c-2,0.4-4.1,0.6-6.2,0.7
		c-2.8,0.2-5.7,0.3-8.6,0.2c-6.8-0.4-13.4-1.6-19.7-4.4c-3.8-1.7-7.4-3.9-10.6-6.7c-1.3-1.2-2.5-2.4-3.9-3.6c4-5,7.9-9.9,11.6-14.6
		c2.3,1.8,4.5,3.7,6.9,5.2c3.6,2.3,7.5,3.8,11.7,4.7c3.2,0.7,6.5,0.8,9.7,0.7c4.2-0.2,8-1.5,11.3-4.2c2.5-2.1,4.1-4.7,4.7-7.8
		c1-5.6-1.1-11.2-6.5-14.3c-2.7-1.6-5.6-2.4-8.7-2.5c-2-0.1-3.9-0.2-5.9,0c-4.1,0.4-8.1,1.5-11.6,3.8c-1.8,1.1-3.3,2.5-5,3.7
		c-0.2,0.2-0.6,0.3-0.9,0.2c-4.7-1.2-9.4-2.5-14.1-3.8c0-18.9,0-37.7,0-56.7c22.5,0,45,0,67.5,0
		C161.8,158.2,161.8,164.4,161.8,170.6z"/>
	<path class="st3" d="M197.6,270.8c-2.7-2.2-5.4-4.4-8.3-6.7c5.2-3.4,9.3-7.7,11.4-13.6c-1.3,0.1-2.4,0.2-3.5,0.2
		c-2.1,0-3.9-0.8-5.5-2.1c-3-2.4-4-5.6-3.8-9.2c0.4-5.3,3.6-9.5,8.9-10.8c3.7-0.9,7.3-0.2,10.3,2.2c3.3,2.5,5,6,5.5,10
		c0.5,4.2-0.1,8.3-1.4,12.3c-1.3,4-3.4,7.6-6.1,10.8C202.9,266.4,200.4,268.7,197.6,270.8z"/>
</g>
<g>
	<path class="st3" d="M-1480.4-437.3c0,8.7,0,17.3,0,26.1c4.5,0,9,0,13.6,0c0,1.9,0,3.8,0,5.9c-6.7,0-13.4,0-20.3,0
		c0-10.4,0-21,0-31.6c0.2-0.1,0.6-0.2,1-0.4C-1484.3-437.3-1482.3-437.3-1480.4-437.3z"/>
	<path class="st3" d="M-1473.9,85.4c-1.5-2.4-3-4.9-4.5-7.3c-0.3-0.4-0.9-0.8-1.4-0.8c-0.9-0.1-1.9,0-3,0c-0.1,2.6-0.2,5.2-0.4,7.8
		c-0.7,0-1.4,0-2.1,0c0-6.5,0-13.1,0-19.8c3.7,0.1,7.2-0.4,10.7,0.5c1.8,0.5,3.4,2.8,3.5,4.8c0.1,3.8-1,5.3-4.6,6.5
		c-0.1,0-0.2,0.2-0.4,0.3c1.7,2.7,3.4,5.3,5.1,8C-1472,85.4-1473,85.4-1473.9,85.4z M-1482.8,75.1c1.9,0,3.8,0,5.6,0
		c2,0,3.3-1.3,3.7-3.6c0.2-1.4-1.2-3.5-2.7-3.8c-2.1-0.3-4.3-0.3-6.5-0.4C-1482.8,70-1482.8,72.4-1482.8,75.1z"/>
	<path class="st3" d="M-1259.6-166.8c-0.7,48.9-19.1,98.7-57,140.9c-30.1,33.5-67.2,55.4-111.1,65.8c-19.7,4.7-39.7,6.6-59.9,5.3
		c-62-3.9-113.3-29.7-153.6-76.8c-24-28-39.4-60.3-47.2-96.3c-4.1-19.2-5.7-38.6-4.6-58.2c2.6-47,18.2-89.3,47.5-126.2
		c31.2-39.3,71.4-65,120.3-76.7c17.6-4.2,35.5-6.1,53.7-5.5c54,1.7,101.1,20.7,140.9,57.3c32.9,30.2,54.3,67.3,64.9,110.7
		C-1261.6-209.5-1259.6-192.1-1259.6-166.8z M-1264.6-174.5c-0.1-15.2-1.4-29.3-4.6-44.4c-8.7-41.5-27.7-77.6-57.6-107.7
		c-38.9-39.1-86-60.1-141.2-62.8c-18.8-0.9-37.4,0.8-55.7,5.2c-47.2,11.2-86.1,35.8-116.5,73.4c-30,37.1-45.7,79.7-47.8,127.4
		c-1,22.3,1.4,44.2,7.3,65.8c12,43.7,35.2,80.4,70.1,109.4c36.4,30.3,78.5,46.5,125.8,48.6c18.8,0.8,37.4-0.8,55.7-5.2
		c45.1-10.7,82.9-33.8,112.9-69.1C-1281.9-74.4-1265.2-121.6-1264.6-174.5z"/>
	<path class="st3" d="M-1388.8-410.2c-2.6,6.3-5.1,12.7-7.7,19c-2.1-0.9-4.2-1.7-6.3-2.6c4-9.9,8-19.8,12-29.6
		c1.8,0.7,3.6,1.4,5.3,2.1c0.9,0.3,1.3,0.9,1.5,1.9c1.7,7.1,3.5,14.1,5.3,21.2c0.1,0.4,0.3,0.9,0.6,1.5c2.5-6.2,5-12.3,7.5-18.4
		c2.1,0.9,4.2,1.7,6.3,2.5c-4,9.9-8,19.7-12,29.6c-1.9-0.8-3.7-1.5-5.5-2.3c-0.3-0.1-0.6-0.5-0.6-0.8c-1.9-7.6-3.8-15.2-5.8-22.8
		c-0.1-0.5-0.2-0.9-0.3-1.4C-1388.6-410.1-1388.7-410.2-1388.8-410.2z"/>
	<path class="st3" d="M-1498.3-430.5c-5.2,0.7-10.4,1.4-15.6,2.1c0.2,2,0.4,3.9,0.7,5.7c0.1,0.7,0.3,1.1,1.1,1
		c2.1-0.3,4.2-0.6,6.3-0.9c2.3-0.3,4.5-0.6,6.8-0.9c0.4-0.1,0.8,0,1.3,0c0.3,1.9,0.5,3.8,0.8,5.8c-5.2,0.7-10.3,1.4-15.4,2
		c0.3,2.5,0.7,4.8,1,7.2c4.4-0.5,8.7-1.1,13-1.6c0.6-0.1,1.3-0.1,1.9-0.3c0.7-0.3,0.9,0,1,0.6c0.2,1.6,0.4,3.3,0.6,5.1
		c-7.4,1-14.8,2-22.4,3c-1.4-10.5-2.8-21-4.2-31.7c1.9-0.3,3.7-0.5,5.5-0.8c2.8-0.4,5.6-0.8,8.4-1.2c2.5-0.3,5.1-0.7,7.6-1
		c0.6-0.1,1,0,1.1,0.8C-1498.8-433.8-1498.5-432.2-1498.3-430.5z"/>
	<path class="st3" d="M-1424.6-432.2c5.6,1.4,11.1,2.7,16.7,4.1c1.5,0.4,3,0.8,4.6,1.1c0.6,0.1,0.7,0.3,0.6,0.9
		c-0.4,1.5-0.7,3-1,4.5c0,0.2-0.6,0.4-0.8,0.4c-3.9-0.9-7.7-1.8-11.5-2.7c-0.8-0.2-1.7-0.5-2.5-0.6c-0.3,0-0.9,0.3-0.9,0.6
		c-0.5,1.9-0.9,3.8-1.4,5.8c5,1.2,10,2.4,15.1,3.7c-0.4,1.7-0.9,3.3-1.2,4.9c-0.1,0.6-0.3,0.8-0.9,0.6c-4.7-1.2-9.5-2.3-14.3-3.5
		c-0.6,2.3-1.1,4.7-1.7,7.1c4.7,1.2,9.5,2.3,14.2,3.5c0.9,0.2,1.2,0.4,0.9,1.4c-0.5,1.5-0.7,3-1.1,4.6c-2.6-0.6-5.1-1.2-7.6-1.8
		c-4.6-1.1-9.1-2.2-13.7-3.4c-0.2-0.1-0.5-0.6-0.5-0.9c1.2-4.9,2.4-9.7,3.5-14.6C-1427.2-421.7-1425.9-426.9-1424.6-432.2z"/>
	<path class="st3" d="M-1626.2-390.5c6.4-4.1,12.7-8.1,19.1-12.1c1.1,1.7,2.2,3.3,3.2,5c-4.4,2.8-8.9,5.7-13.4,8.5
		c1.2,1.9,2.4,3.8,3.7,5.7c4.4-2.8,8.7-5.5,13.1-8.3c1,1.7,2.1,3.3,3.2,5c-4.1,2.6-8.2,5.2-12.3,7.8c-0.6,0.4-0.8,0.5-0.3,1.2
		c1.2,1.7,2.2,3.5,3.4,5.4c4.5-2.9,9-5.7,13.4-8.5c1.1,1.7,2.1,3.4,3.2,5c-6.3,4-12.7,8.1-19.1,12.1
		C-1614.7-372.4-1620.4-381.3-1626.2-390.5z"/>
	<path class="st3" d="M-1556.8-391.3c-2.4,1.1-4.6,2.1-6.9,3.1c-0.3,0.1-0.7,0-1-0.2c-3.8-2.3-7.6-4.6-11.5-7
		c-0.2,1.3-0.5,2.4-0.7,3.6c-0.6,3.3-1.1,6.6-1.7,9.9c-0.1,0.3-0.4,0.6-0.6,0.8c-2.2,1-4.4,2-6.8,3.1c0.4-2.2,0.8-4.2,1.1-6.2
		c0.8-4.3,1.7-8.6,2.5-12.9c0.1-0.3-0.3-0.8-0.5-1c-5.2-3.1-10.4-6.2-15.7-9.3c2.4-1.1,4.6-2.1,6.9-3.1c0.3-0.1,0.8,0.1,1.2,0.3
		c3.2,2,6.5,4,9.7,6c0.2,0.1,0.4,0.2,0.8,0.3c0.7-4.3,1.4-8.5,2.1-12.9c2.3-1.1,4.7-2.2,7.4-3.3c-0.2,1.3-0.4,2.3-0.6,3.4
		c-0.9,4.8-1.9,9.7-2.8,14.5c-0.1,0.3,0.3,0.9,0.6,1.1c5.2,3.1,10.3,6.1,15.5,9.1C-1557.5-391.8-1557.2-391.6-1556.8-391.3z"/>
	<path class="st3" d="M-1530.3-424.7c-1.7,1.5-3.3,2.9-4.9,4.3c-4.5-4.3-11.1-3.2-14.3,1.9c-1.8,2.8-1.9,6-0.8,9.1
		c1.2,3.4,3.4,5.8,7,6.9c4.6,1.3,9.8-1.2,11.2-5.9c0.1-0.2,0.6-0.6,0.9-0.5c1.6,0.2,3.2,0.6,4.7,0.8c0.7,0.1,0.9,0.3,0.6,1
		c-1.8,6-6.3,9.8-12.6,10.7c-4.2,0.6-8.2,0.2-11.8-2.2c-4.3-2.8-6.6-6.8-7.4-11.8c-0.8-5.5,0.7-10.1,4.6-13.9
		c2.6-2.6,5.9-4.1,9.6-4.7c5-0.8,9.2,0.5,12.8,4C-1530.7-424.9-1530.6-424.8-1530.3-424.7z"/>
	<path class="st3" d="M-1356.9-402.3c1-1.7,2-3.4,3.1-5.1c7.4,4.3,14.6,8.6,21.9,12.9c-1,1.7-2,3.3-3,5.1c-2.7-1.6-5.3-3.1-8-4.7
		c-4.4,7.5-8.8,14.9-13.2,22.4c-2-1.2-3.9-2.3-5.9-3.5c4.4-7.5,8.8-14.9,13.2-22.4C-1351.6-399.1-1354.2-400.7-1356.9-402.3z"/>
	<path class="st3" d="M-1452.1-410c4.4,0.5,8.8,1,13.4,1.6c-0.1,1-0.1,2-0.2,3c-0.1,0.7-0.1,1.4-0.3,2.1c-0.1,0.3-0.6,0.7-0.9,0.7
		c-3.4-0.3-6.8-0.7-10.2-1.1c-3-0.4-6.1-0.7-9.2-1.1c0.6-5.3,1.3-10.5,1.9-15.8c0.6-5.2,1.2-10.5,1.8-15.9c2.2,0.3,4.4,0.5,6.7,0.8
		C-1450.1-427.2-1451.1-418.7-1452.1-410z"/>
	<path class="st3" d="M-1576.7,59.1c4-3.8,7.8-7.4,11.7-11.1c1,0.4,2.1,0.9,3.2,1.4c-2.7,6.1-5.4,12.2-8.1,18.3
		c-0.8-0.4-1.4-0.7-2.2-1.1c2.1-4.9,4.3-9.7,6.5-14.9c-0.4,0.3-0.5,0.3-0.6,0.4c-2.8,2.7-5.7,5.5-8.5,8.2c-1.1,1-2.2,2.1-3.3,3.1
		c-0.2,0.2-0.6,0.2-0.9,0.1c-0.2-0.1-0.4-0.4-0.4-0.7c0.1-3.7,0.3-7.5,0.4-11.2c0.1-1.8,0-3.7-0.2-5.6c-2.2,4.8-4.3,9.7-6.5,14.5
		c-0.8-0.3-1.4-0.6-2.2-0.9c2.7-6.1,5.4-12.2,8.1-18.3c1,0.4,1.9,0.8,2.8,1.3c0.2,0.1,0.3,0.6,0.3,1c-0.1,4.7-0.1,9.3-0.2,14
		C-1576.7,58-1576.7,58.4-1576.7,59.1z"/>
	<path class="st3" d="M-1638,0.7c0.6,0.6,1.2,1.2,1.9,1.9c-6.2,3.3-12.2,6.5-18.4,9.8c-0.5-0.6-1.1-1.2-1.6-1.8
		c-0.1-0.2,0-0.6,0.2-0.9c2.6-4.4,5.3-8.8,7.8-13.4c-4.7,2.6-9.4,5.2-14.1,7.7c-0.6-0.7-1.2-1.3-1.9-2c3.3-5.8,6.8-11.7,10.2-17.5
		c0.7,0.6,1.4,1.1,2,1.7c-3,4.9-5.8,9.7-8.9,14.8c1-0.5,1.7-0.8,2.4-1.2c3.3-1.8,6.6-3.6,9.9-5.5c0.3-0.2,0.7-0.4,1-0.6
		c1.7-1.1,1.7-1.1,3.2,0.6c-2.8,4.8-5.7,9.7-8.6,14.5c0,0.1,0.1,0.1,0.1,0.2C-1647.9,6.2-1643,3.5-1638,0.7z"/>
	<path class="st3" d="M-1316.7,2.4c0.6-0.6,1.2-1.1,1.7-1.7c4.4,5,8.8,9.9,13.2,14.9c-1.1,2.4-3,1.4-4.7,1.1
		c-5.3-1.1-10.6-2.3-15.9-3.5c-0.1,0-0.1,0-0.3,0.1c3.5,3.9,6.9,7.8,10.5,11.8c-0.6,0.6-1.2,1.1-1.8,1.7c-4.4-5-8.8-9.9-13.1-14.8
		c0.9-1.7,2.2-1.8,3.9-1.4c5.6,1.3,11.1,2.4,16.9,3.7C-1309.8,10.2-1313.2,6.3-1316.7,2.4z"/>
	<path class="st3" d="M-1449.4,83.8c-0.4,0.1-0.9,0.4-1.3,0.3c-0.5-0.1-1.2-0.2-1.6-0.5c-1.6-1.8-3.2-3.7-4.7-5.6
		c-2.1-2.5-4.2-5-6.2-7.4c-0.4-0.4-0.7-0.8-1.1-1.3c-0.1,0.1-0.2,0.1-0.3,0.2c0.4,5.2,0.8,10.4,1.2,15.6c-0.8,0-1.5,0-2.4,0
		c-0.5-6.6-1-13.1-1.4-19.5c2.7-1.4,3.5,0.8,4.7,2.1c1.7,1.9,3.2,3.9,4.9,5.8c1.5,1.8,3,3.5,4.6,5.3c0.3,0.3,0.5,0.6,0.7,1
		c0.1-0.1,0.2-0.1,0.3-0.2c-0.4-5-0.7-10.1-1.1-15c0.1-0.1,0.1-0.2,0.1-0.2c2.4-0.5,2.3-0.5,2.5,2c0.2,3.9,0.6,7.7,0.9,11.6
		C-1449.6,79.8-1449.5,81.8-1449.4,83.8z"/>
	<path class="st3" d="M-1339.3,45.1c-3.8-5.5-7.5-10.9-11.4-16.6c2.8-1.7,5.4-3.6,8.3-5c3.7-1.8,8.5-0.2,11,3.1
		c1.3,1.8,2.2,3.7,2.3,5.9c0.2,3.5-1.5,6.2-4.1,8.3C-1335.1,42.4-1337.2,43.7-1339.3,45.1z M-1338.5,41.9c1.4-0.9,2.7-1.8,4-2.7
		c2-1.5,3.3-3.6,3.1-6.1c-0.1-2.7-1.5-5-3.7-6.6c-1.7-1.2-3.5-1.7-5.6-1.2c-1.9,0.4-3.2,1.5-4.7,2.5c-0.6,0.4-1.2,0.9-1.9,1.3
		C-1344.3,33.5-1341.4,37.7-1338.5,41.9z"/>
	<path class="st3" d="M-1385.7,59.8c-2.3,0.8-4.4,1.6-6.5,2.4c-0.1-0.7-0.5-1.6-0.3-2.1c0.3-0.5,1.2-0.6,1.9-0.8
		c2.2-0.8,4.4-1.7,6.5-2.4c0.8,2.1,1.5,4.1,2.3,6.2c0.1,0.3,0.2,0.7,0,1c-2.9,6.3-11.4,8.5-16.6,3.4c-3.4-3.3-4.4-8.8-2-12.8
		c2.6-4.3,8.3-6.5,13.1-4.1c0.2,0.1,0.5,0.2,0.8,0.4c-0.4,0.6-0.9,1.3-1.4,1.9c-4.5-2.8-10.4,0.2-11.3,5.1c-0.7,4.2,2.1,9.1,6.5,10
		c2.5,0.5,6.6-1.1,7.7-3.4c0.3-0.6,0.3-1.3,0.2-2C-1384.9,61.7-1385.4,60.8-1385.7,59.8z"/>
	<path class="st3" d="M-1297.5-12.6c-0.2,1-0.4,1.6-0.5,2.2c-1.1,0.2-2.2,0.3-3.2,0.7c-3,1.1-4.7,3.4-4.9,6.5
		c-0.2,3.4,1.5,6,4.4,7.7c4.8,2.9,10.3,0.4,11.7-5.2c0.2-0.8,0.1-1.5-0.7-2.1c-0.8-0.6-1.5-1.4-2.2-2.1c-1.6,1.8-3.2,3.4-4.7,5
		c-0.5-0.5-1.1-1-1.6-1.5c2.1-2.2,4.2-4.5,6.4-6.7c1.4,1.2,2.6,2.5,4,3.6c1.5,1.1,1.4,2.5,1.1,4.1c-1,4.5-3.8,7.4-8.4,8.4
		c-3.1,0.7-5.9-0.2-8.3-2.2c-2.6-2.2-4.1-5-4-8.4c0.1-4.5,3.9-9,8.2-9.6C-1299.5-12.4-1298.6-12.5-1297.5-12.6z"/>
	<path class="st3" d="M-1373.1,63.4c-0.7,0.4-1.4,0.7-2.2,1.1c-2.8-6-5.6-12-8.5-18.1c1.4-0.7,2.6-1.3,4-1.9c1.7-0.7,3.4-1.4,5.1-2
		c2.7-0.9,5.7,1.3,6.6,3.8c0.8,2.4,0.5,4.4-1.4,6.1c-0.3,0.2-0.5,0.5-0.9,0.9c2.7,1.7,5.4,3.3,8.2,5.1c-0.1,0.1-0.2,0.1-0.2,0.1
		c-2.4,2-4.1-0.1-5.9-1.1c-1.2-0.7-2.3-1.6-3.6-2.3c-0.5-0.3-1.2-0.3-1.7-0.1c-1,0.3-1.9,0.8-2.8,1.3
		C-1375.4,58.6-1374.3,60.9-1373.1,63.4z M-1380.7,47.2c1.2,2.5,2.3,4.7,3.3,7c1.2-0.5,2.3-1,3.4-1.5c1-0.5,2-1.1,2.8-1.9
		c1.2-1.1,1.2-3,0.2-4.7c-0.7-1.2-2.4-1.9-3.8-1.4C-1376.7,45.5-1378.6,46.4-1380.7,47.2z"/>
	<path class="st3" d="M-1422.5,79.5c-0.8,0.2-1.5,0.3-2.4,0.5c-1.5-6.5-3-13-4.6-19.5c2.8-0.6,5.7-1.2,8.5-1.9
		c3-0.7,6.2,1.3,6.8,4.5c0.6,3.4,0,4.5-3.6,7c2.3,2.1,4.6,4.3,6.8,6.4c-1.6,1-2.6,0.9-3.9-0.3c-1.7-1.6-3.4-3.3-5.1-4.8
		c-0.3-0.3-0.9-0.4-1.3-0.4c-1,0.2-2,0.5-3,0.8C-1423.7,74.4-1423.1,76.9-1422.5,79.5z M-1426.3,62c-0.1,0.3-0.1,0.5-0.1,0.6
		c0.5,2.2,0.9,4.4,1.5,6.5c0.1,0.2,0.6,0.5,0.8,0.4c1.7-0.4,3.5-0.9,5.2-1.4c1.8-0.5,2.7-2.2,2.4-4.2c-0.3-1.7-1.8-3.3-3.5-3
		C-1422.2,61.2-1424.3,61.6-1426.3,62z"/>
	<path class="st3" d="M-1543.3,71c1.1-1.2,2.2-2.4,3.4-3.7c0.4,0.3,1,0.8,1.6,1.3c-1.2,1.2-2.4,2.3-3.5,3.4
		c-0.5,0.5-0.6,0.8-0.3,1.4c0.7,1.2,1.4,2.5,2.1,3.8c-2.1-0.3-2.5-0.6-4.4-3.3c-1.6,0.8-3.4,1.2-5.2,0.9c-2.9-0.5-5.3-2.2-5.7-5.5
		c-0.2-2.2,1.8-4.8,4.3-5.7c2.1-0.7,2-0.7,1.6-3c-0.5-2.6,1.5-5.4,4.3-5.5c1.9,0,3.5,0.4,4.7,1.9c1.5,1.9,0.3,5.3-2.2,6.2
		c-0.9,0.3-1.9,0.5-2.8,0.8c-0.3,0.1-0.6,0.2-0.9,0.4c0.5,1.1,0.8,2.2,1.3,3.3C-1544.5,68.8-1543.9,69.8-1543.3,71z M-1548.6,64.8
		c-2,0.5-3.7,1.5-4.1,3.6c-0.3,1.7,0.2,3.2,1.9,4.1c1.9,1,3.8,0.7,5.5-0.3C-1546.4,69.7-1547.5,67.3-1548.6,64.8z M-1546.8,62.8
		c1.2-0.4,2.4-0.7,3.4-1.1c1.1-0.5,1.7-1.5,1.6-2.7c-0.1-1.1-0.9-1.9-2.2-2.1c-0.9-0.1-2.2,0.6-2.7,1.6
		C-1547.4,59.7-1547.2,61.1-1546.8,62.8z"/>
	<path class="st3" d="M-1591.4,57.8c0,0-0.1,0-0.1,0c-2.4-1.3-2.6-1.8-1.8-5c0.2-0.8,0-1.1-0.6-1.5c-2.3-1.3-4.6-2.6-6.8-3.9
		c-0.8-0.5-1.4-0.4-2.1,0.2c-0.4,0.3-0.7,0.7-1.2,1c-1.9,1.4-1.9,1.3-3.9-0.2c5.5-4.5,11.1-9,16.6-13.4c0.6,0.3,1.3,0.6,1.9,1.1
		c0.4,0.3,0.7,0.9,0.7,1.3c-0.4,3.8-0.9,7.7-1.4,11.5C-1590.5,51.8-1591,54.8-1591.4,57.8z M-1592.8,49.5c0.5-3.9,1-7.6,1.6-11.5
		c-3.1,2.6-6,4.9-9,7.4C-1597.6,46.8-1595.3,48.1-1592.8,49.5z"/>
	<path class="st3" d="M-1359.4,56.9c-0.3-1.8-0.5-3.4-0.7-5.1c-0.4-2.7-0.8-5.4-1.2-8.2c-0.3-2.5-0.7-4.9-1-7.4c0-0.3,0.1-0.8,0.4-1
		c0.7-0.5,1.5-0.8,2.2-1.2c5.6,4.4,11.1,8.8,16.8,13.3c-0.8,0.5-1.4,1-2.2,1.3c-0.2,0.1-0.7-0.3-1-0.5c-0.8-0.6-1.6-1.3-2.5-2
		c-0.2-0.2-0.7-0.2-0.9-0.1c-2.5,1.4-5,2.9-7.5,4.4c-0.3,0.2-0.5,0.6-0.5,0.9c0,0.9,0,1.8,0.3,2.6c0.5,1.3,0.1,1.9-1.1,2.4
		C-1358.7,56.4-1358.9,56.6-1359.4,56.9z M-1359.8,37c0.6,4,1.1,7.7,1.6,11.5c2.5-1.4,4.9-2.8,7.5-4.2
		C-1353.7,41.8-1356.6,39.5-1359.8,37z"/>
	<path class="st3" d="M-1433.3,61.6c0.1,0.8,0.3,1.4,0.4,2.1c-3.4,0.5-6.8,1.1-10.4,1.7c0.3,2,0.6,4.1,0.9,6.4
		c3.5-0.5,6.9-1.1,10.4-1.6c0.1,0.7,0.2,1.3,0.3,2.1c-3.4,0.5-6.8,1.1-10.3,1.6c0.4,2.3,0.7,4.6,1.1,6.9c3.3-0.5,6.5-1.1,9.7-1.6
		c0.3,0,0.7,0.4,0.9,0.7c0.2,0.4,0.1,0.8,0.1,1.4c-4.2,0.7-8.5,1.3-12.8,2c-1-6.7-2-13.1-3.1-19.7
		C-1441.8,62.9-1437.6,62.2-1433.3,61.6z"/>
	<path class="st3" d="M-1492.2,64.8c1,0.1,1.6,0.2,2.5,0.3c-0.1,0.5-0.2,1-0.3,1.6c-0.2,2.2-0.3,4.3-0.5,6.5
		c-0.3,2.6-0.3,5.3-1.5,7.8c-1.4,2.8-5.5,4-7.9,3.5c-1.6-0.4-3.3-0.6-4.7-1.7c-1.5-1.2-2.4-2.7-2.4-4.5c0-2.6,0.3-5.2,0.4-7.7
		c0.2-2.3,0.3-4.6,0.5-7c0.9,0.1,1.7,0.2,2.5,0.3c-0.1,1.2-0.3,2.3-0.4,3.5c-0.3,3.2-0.6,6.4-0.7,9.6c-0.1,3.2,2.2,5.3,5.4,5.5
		c4.4,0.3,5.7-2.8,6-5.8c0.2-2.9,0.6-5.9,0.9-8.8C-1492.3,66.8-1492.3,65.8-1492.2,64.8z"/>
	<path class="st3" d="M-1524.6,62.7c0.1-0.7,0.2-1.3,0.4-2.1c5,0.9,9.9,1.7,14.9,2.6c-0.1,0.7-0.2,1.3-0.3,2.1
		c-2.1-0.4-4.1-0.7-6.3-1.1c-1,5.8-2.1,11.7-3.1,17.5c-0.3,0-0.5,0-0.6-0.1c-1.9-0.6-1.8-0.5-1.4-2.5c0.7-3.5,1.2-7,1.8-10.4
		c0.3-1.6,0.6-3.2,0.9-4.9C-1520.4,63.5-1522.4,63.1-1524.6,62.7z"/>
	<path class="st3" d="M-1616.7,40.4c-0.5,0.6-0.9,1.1-1.3,1.7c-3.2-2.3-6.3-4.5-9.5-6.8c0.9-1.4,1.8-2.7,2.8-4c2.5-3.5,5-7,7.5-10.5
		c1.2-1.7,1.2-1.8,3.3-0.3c-3.4,4.8-6.8,9.6-10.3,14.5C-1621.7,36.8-1619.3,38.6-1616.7,40.4z"/>
	<path class="st3" d="M-1640.6,24.9c4.2-5.2,8.4-10.3,12.6-15.4c0.6,0.5,1.3,0.9,1.9,1.5c-3.8,4.6-7.5,9.2-11.2,13.8
		c2.3,1.9,4.7,3.8,7.2,5.8c-0.4,0.6-0.9,1.1-1.3,1.7C-1634.5,29.9-1637.5,27.4-1640.6,24.9z"/>
	<path class="st3" d="M-1645.3,20.6c-0.7-0.6-1.3-1.1-1.9-1.6c4.4-4.9,8.9-9.9,13.3-14.8c0.7,0.5,1.3,1,1.9,1.5
		C-1636.4,10.7-1640.8,15.6-1645.3,20.6z"/>
	<path class="st3" d="M-1611.5,46.2c-0.7-0.4-1.3-0.8-2.1-1.3c3.6-5.6,7.1-11.2,10.7-16.8c0.7,0.4,1.4,0.8,2.1,1.3
		C-1604.3,35-1607.9,40.5-1611.5,46.2z"/>
	<path class="st3" d="M-1333.2,16.3c0.7-0.5,1.3-1,1.9-1.5c4.1,5.3,8.2,10.5,12.3,15.7c-0.6,0.5-1.2,1-1.9,1.5
		C-1325,26.8-1329.1,21.6-1333.2,16.3z"/>
	<path class="st3" d="M-1527.7-125.1c5.3-6.7,10.6-13.3,15.9-19.9c1.5,1.3,2.8,2.7,4.2,3.9c3.2,2.6,6.6,4.8,10.4,6.5
		c3.4,1.5,7,2.7,10.6,3.4c4.8,0.9,9.7,1.2,14.5,0.7c3.6-0.4,7-1.3,10.2-3.1c5.4-3,9.1-7.5,9.9-13.6c0.9-6.5-0.9-12.3-5.9-16.8
		c-3-2.6-6.6-4.3-10.6-4.9c-2.8-0.5-5.7-0.8-8.5-0.7c-5.4,0.1-10.6,1.1-15.6,3.3c-3.8,1.7-7.3,4-10.4,6.9c-0.3,0.3-1,0.6-1.4,0.5
		c-5.4-1.4-10.7-2.8-16-4.2c-1-0.3-2-0.5-3.1-0.8c0-25.6,0-51.2,0-76.9c30.5,0,61,0,91.5,0c0,8.3,0,16.7,0,25.1
		c-21.1,0-42.1,0-63.2,0c0,10.8,0,21.5,0,32.1c2-1.4,4.1-3,6.2-4.4c4.2-2.8,8.9-4.4,13.9-5.3c3.2-0.6,6.5-1,9.8-0.9
		c6.3,0.1,12.5,1.3,18.3,4c5.4,2.5,10.1,5.9,14,10.4c4,4.6,6.7,9.8,8.4,15.7c1.7,5.8,2,11.8,1.6,17.7c-0.6,8.5-3.3,16.4-8.6,23.2
		c-3.6,4.7-8,8.4-13.2,11.2c-5.9,3.3-12.3,5.2-19,6.4c-5.9,1-11.9,1.1-17.8,0.9c-6.7-0.3-13.2-1.3-19.6-3.3
		c-6-1.9-11.7-4.4-16.8-8.1c-3.2-2.3-6.1-5.1-9.1-7.6C-1527.3-124.4-1527.5-124.8-1527.7-125.1z"/>
</g>
</svg>
