<?xml version="1.0" encoding="utf-8"?>
<!-- Generator: Adobe Illustrator 24.1.3, SVG Export Plug-In . SVG Version: 6.00 Build 0)  -->
<svg version="1.1" id="Layer_1" xmlns="http://www.w3.org/2000/svg" xmlns:xlink="http://www.w3.org/1999/xlink" x="0px" y="0px"
	 viewBox="0 0 400 172" style="enable-background:new 0 0 400 172;" xml:space="preserve">
<style type="text/css">
	.st0{fill:#222222;}
	.st1{fill:#FFFFFF;}
</style>
<image style="overflow:visible;opacity:0.15;" width="2066" height="819" xlink:href="1D34C0A.jpg"  transform="matrix(0.1827 0 0 0.1827 11.2236 11.1656)">
</image>
<g>
	<path class="st0" d="M3,169.1C3,113.7,3,58.3,3,2.9c131.3,0,262.7,0,394,0c0,55.4,0,110.9,0,166.3C265.7,169.1,134.3,169.1,3,169.1
		z M12.2,160c125.3,0,250.5,0,375.7,0c0-49.4,0-98.6,0-147.9c-125.3,0-250.4,0-375.7,0C12.2,61.4,12.2,110.6,12.2,160z"/>
	<path class="st0" d="M113.8,67.4c2.5,0,4.9,0,7.4,0c0.4,0,0.8,0.3,1.1,0.7c2.8,3.8,5.6,7.7,8.5,11.5c2.4,3.2,4.7,6.5,7.1,9.7
		c0.2,0.3,0.4,0.6,0.7,1c0-7.7,0-15.2,0-22.8c2.6,0,5.2,0,7.8,0c0,12.1,0,24.2,0,36.5c-0.3,0-0.5,0-0.8,0c-1.9,0-3.8,0-5.7,0
		c-0.7,0-1.2-0.2-1.6-0.8c-4.5-6.3-9.1-12.6-13.7-18.9c-1-1.3-2-2.6-3-4.1c0,7.9,0,15.8,0,23.7c-2.6,0-5.2,0-7.8,0
		C113.8,91.7,113.8,79.6,113.8,67.4z"/>
	<path class="st0" d="M281.6,67.4c2.5,0,4.9,0,7.4,0c0.4,0,0.8,0.3,1.1,0.7c2.8,3.8,5.6,7.7,8.5,11.5c2.4,3.2,4.7,6.5,7.1,9.7
		c0.2,0.3,0.4,0.6,0.7,1c0-7.7,0-15.2,0-22.8c2.6,0,5.2,0,7.8,0c0,12.1,0,24.2,0,36.5c-0.3,0-0.5,0-0.8,0c-1.9,0-3.8,0-5.7,0
		c-0.7,0-1.2-0.2-1.6-0.8c-4.5-6.3-9.1-12.6-13.7-18.9c-1-1.3-2-2.6-3-4.1c0,7.9,0,15.8,0,23.7c-2.6,0-5.2,0-7.8,0
		C281.6,91.7,281.6,79.6,281.6,67.4z"/>
	<path class="st0" d="M233.6,103.8c-2.7,0-5.2,0-7.8,0c0-12.1,0-24.3,0-36.5c0.3,0,0.7,0,1,0c5.6,0,11.1-0.1,16.7,0
		c3.2,0,6.2,1.1,8.5,3.5c1.7,1.8,2.6,4,3,6.5c0.4,2.4,0,4.7-0.9,6.8c-1.2,2.9-3.5,4.6-6.4,5.6c-0.1,0-0.2,0.1-0.3,0.1
		c0,0,0,0-0.1,0.1c2.7,4.5,5.4,9.1,8.2,13.8c-2.9,0-5.7,0-8.5,0c-0.2,0-0.5-0.2-0.7-0.4c-1.7-3-3.3-6-4.9-9c-0.6-1-1.2-2.1-1.8-3.1
		c-0.1-0.2-0.4-0.4-0.6-0.4c-1.7,0-3.5,0-5.3,0C233.6,95.2,233.6,99.5,233.6,103.8z M233.7,74.3c0,3.3,0,6.5,0,9.7c2.7,0,5.3,0,8,0
		c0.6,0,1.1-0.1,1.7-0.2c2.3-0.6,4.2-2.3,3.8-5.4c-0.2-2.1-1.8-4-4.4-4.1C239.7,74.1,236.7,74.3,233.7,74.3z"/>
	<path class="st0" d="M349.7,90.6c-3.3,0-6.4,0-9.6,0c0-2.3,0-4.6,0-6.9c5.8,0,11.6,0,17.4,0c0,0.3,0,0.6,0,0.9c0,4.1,0,8.2,0,12.2
		c0,0.4-0.2,1-0.6,1.3c-3.1,3.3-7,5.3-11.5,6.1c-3.1,0.5-6.2,0.3-9.3-0.5c-3.5-1-6.5-2.7-9-5.4c-2.4-2.6-3.9-5.7-4.4-9.2
		c-0.2-1.4-0.4-2.8-0.3-4.1c0.2-5.4,2.1-10,6.2-13.6c3-2.6,6.6-4,10.6-4.5c4-0.5,7.7,0,11.3,1.9c2.7,1.4,4.8,3.5,6.4,6.1
		c-2.1,1.2-4.2,2.3-6.3,3.4c-1-1-2-2.1-3.1-2.9c-3.3-2.2-6.8-2.4-10.4-0.8c-3.9,1.7-6,4.8-6.6,9c-0.6,4.1,0.4,7.8,3.3,10.8
		c2,2,4.5,3,7.4,3c2.8,0.1,5.4-0.6,7.7-2.2c0.3-0.2,0.6-0.7,0.6-1C349.7,93.1,349.7,91.9,349.7,90.6z"/>
	<path class="st0" d="M79.1,67.4c8.6,0,17.2,0,25.8,0c0,2.3,0,4.5,0,6.8c-5.9,0-11.9,0-18,0c0,2.6,0,5,0,7.6c5.9,0,11.7,0,17.6,0
		c0,2.3,0,4.6,0,6.9c-5.9,0-11.7,0-17.6,0c0,2.8,0,5.5,0,8.3c5.9,0,11.9,0,18,0c0,2.3,0,4.6,0,6.9c-8.6,0-17.2,0-25.8,0
		C79.1,91.7,79.1,79.6,79.1,67.4z"/>
	<path class="st0" d="M191.1,67.4c8.6,0,17.2,0,25.8,0c0,2.3,0,4.5,0,6.8c-6,0-11.9,0-18,0c0,2.6,0,5,0,7.5c5.9,0,11.7,0,17.6,0
		c0,2.3,0,4.6,0,6.9c-5.8,0-11.7,0-17.6,0c0,2.8,0,5.5,0,8.3c6,0,11.9,0,18,0c0,2.3,0,4.6,0,6.9c-8.6,0-17.1,0-25.8,0
		C191.1,91.7,191.1,79.6,191.1,67.4z"/>
	<path class="st0" d="M71.5,95.5c-2.7,4.5-6.3,7.6-11.6,8.6c-4.5,0.8-8.7,0.3-12.8-1.7c-3.6-1.7-6.3-4.3-8.1-7.8
		c-1.2-2.2-1.8-4.6-2-7.1c-0.4-3.9,0.3-7.5,2-10.9c1.5-3,3.9-5.4,6.8-7.1c3.7-2.1,7.6-3,11.8-2.7c3.7,0.2,7.2,1.4,9.9,4
		c1.5,1.4,2.8,3,4.2,4.7c-2.5,1.2-4.7,2.3-6.9,3.4c-1.6-2.9-4-4.7-7.2-5.2c-3.2-0.4-6.1,0.3-8.7,2.5c-3.3,2.8-4.4,6.4-4.1,10.6
		c0.2,2.9,1.3,5.5,3.3,7.5c2,2,4.5,3.1,7.5,3.2c3.1,0.1,5.7-0.9,7.8-3.1c0.6-0.6,1-1.4,1.6-2.1C67.1,93.4,69.2,94.4,71.5,95.5z"/>
	<path class="st0" d="M164.8,74.3c-3.6,0-7,0-10.5,0c0-2.3,0-4.5,0-6.9c9.6,0,19.2,0,28.9,0c0,2.2,0,4.5,0,6.8c-3.5,0-7,0-10.5,0
		c0,9.9,0,19.7,0,29.5c-2.6,0-5.2,0-7.9,0C164.8,94,164.8,84.2,164.8,74.3z"/>
	<path class="st0" d="M263.9,67.4c2.6,0,5.1,0,7.7,0c0,12.1,0,24.2,0,36.4c-2.5,0-5.1,0-7.7,0C263.9,91.7,263.9,79.6,263.9,67.4z"/>
	<path class="st1" d="M233.7,74.3c3.1,0,6.1-0.1,9.1,0c2.6,0.2,4.2,2,4.4,4.1c0.4,3.1-1.5,4.8-3.8,5.4c-0.5,0.1-1.1,0.2-1.7,0.2
		c-2.6,0-5.3,0-8,0C233.7,80.8,233.7,77.6,233.7,74.3z"/>
</g>
</svg>
