<?xml version="1.0" encoding="utf-8"?>
<!-- Generator: Adobe Illustrator 24.1.3, SVG Export Plug-In . SVG Version: 6.00 Build 0)  -->
<svg version="1.1" id="Layer_1" xmlns="http://www.w3.org/2000/svg" xmlns:xlink="http://www.w3.org/1999/xlink" x="0px" y="0px"
	 viewBox="0 0 400 400" style="enable-background:new 0 0 400 400;" xml:space="preserve">
<style type="text/css">
	.st0{display:none;}
	.st1{display:inline;fill:#222222;}
	.st2{fill:#E5E5E5;}
	.st3{fill:#222222;}
</style>
<g class="st0">
	<path class="st1" d="M354,205.7c-0.1,1.6-0.2,3.1-0.3,4.7c-0.8,13.6-3.2,26.9-7.6,39.7c-14.4,42-41.6,72.7-81.7,91.9
		c-12.9,6.2-26.6,10.1-40.7,12.2c-10,1.5-20,2-30,1.4c-31.8-1.8-60.3-12.4-85.3-32c-27.7-21.8-45.8-49.9-54.7-84
		c-2.5-9.6-3.9-19.3-4.5-29.2c-0.6-9.2-0.3-18.4,0.8-27.6c3.4-28.5,13.7-54.3,31.3-77.1c20-25.8,45.6-43.6,76.9-53.2
		c10.3-3.1,20.9-5.1,31.6-5.9c46.3-3.5,91.2,14.1,122.7,48.2c18.8,20.4,31.3,44.1,37.6,71.1c2.2,9.6,3.5,19.3,3.8,29.1
		c0,0.4,0.1,0.8,0.1,1.2C354,199.4,354,202.6,354,205.7z M350.6,199.7c-0.2-3.4-0.4-8.2-0.8-12.9c-0.7-9.1-2.4-18-4.8-26.8
		c-12.1-43.7-42.8-78.9-81.9-96.9c-17.5-8-35.9-12.5-55.1-13.3c-13.4-0.6-26.7,0.5-39.8,3.6c-31.2,7.4-57.4,23.2-78.4,47.4
		c-23.9,27.5-36.1,59.7-37.3,96.1c-0.5,14.9,1.2,29.7,5.2,44.1c8.4,30.8,24.8,56.6,49.3,77c25.6,21.3,55.1,32.7,88.4,34.2
		c13.9,0.6,27.5-0.7,41-4c31.1-7.7,57.1-23.8,77.9-48.2C338.3,271.5,350.1,238.3,350.6,199.7z"/>
	<path class="st1" d="M46,100.5c0.7-1,1.5-2,2.2-2.9c1.8-2.5,3.5-5.2,5.6-7.5c2.1-2.5,5.7-2.8,8.2-0.5c1.6,1.5,2,3.2,1.6,5.2
		c0.9-0.3,1.8-0.5,2.7-0.8c1.5-0.5,2.9,0.2,4,1c1.3,0.9,2.2,2.1,2.5,3.8c0.3,1.7-0.2,3.2-1.1,4.5c-2.3,3.4-4.7,6.7-7.1,10
		c-0.3,0.4-0.5,0.3-0.8,0.1c-3-2.2-6-4.4-9.1-6.5c-2.8-2-5.6-4.1-8.5-6.1c-0.1-0.1-0.2,0-0.3-0.1C46,100.7,46,100.6,46,100.5z
		 M63.8,107.5c0.5-0.6,0.9-1.2,1.3-1.7c0.9-1.4,1.9-2.7,2.8-4.1c0.6-1.1,0.3-2.5-0.7-3.1c-1.1-0.7-2.3-1.1-3.4,0.2
		c-1.5,1.8-2.8,3.7-4.3,5.6C61,105.4,62.4,106.5,63.8,107.5z M56.2,101.9c0.1-0.1,0.3-0.2,0.4-0.4c1-1.4,2.1-2.8,3.1-4.3
		c0.4-0.6,0.7-1.3,0.7-2c-0.1-1-0.7-1.8-1.7-2.2c-0.9-0.3-2,0-2.7,0.9c-1.2,1.5-2.3,3.1-3.4,4.7c-0.2,0.3-0.2,0.6,0.1,0.8
		C53.8,100.3,55,101.1,56.2,101.9z"/>
	<path class="st1" d="M195.3,15.9c1,0.2,2,0.4,2.9,0.7c4.2,1.4,6.7,4.4,7.5,8.8c0.6,3.1,0.1,6.1-1.6,8.8c-1.8,2.8-4.4,4.3-7.6,4.8
		c-3.4,0.6-6.6,0.1-9.4-2c-2.5-1.8-3.9-4.3-4.4-7.3c-0.4-2.4-0.2-4.8,0.8-7.1c1.2-2.7,3.1-4.6,5.8-5.7c1.2-0.5,2.5-0.6,3.8-0.9
		c0.1,0,0.2-0.1,0.2-0.2C193.9,15.9,194.6,15.9,195.3,15.9z M201.1,27.5c0-0.3-0.1-0.8-0.2-1.3c-0.5-4.2-4.5-6.9-8.9-5.6
		c-2.7,0.8-4.1,2.9-4.5,5.7c-0.4,3.1,0.3,5.6,2.8,7.6c1.9,1.5,5.4,1.6,7.4,0.3C200,32.7,201,30.4,201.1,27.5z"/>
	<path class="st1" d="M199.8,384.1c-1.1-0.5-2.1-0.9-3.2-1.4c-0.1,0-0.2-0.1-0.3-0.2c-0.8-0.7-0.8-0.7-0.1-1.5
		c0.1-0.1,0.2-0.3,0.3-0.4c0.7,0.5,1.4,1.1,2.2,1.4c1.4,0.6,2.9,0.9,4.4,0.1c0.8-0.4,1.3-1,1.3-2c0-0.9-0.6-1.5-1.3-1.8
		c-1.4-0.6-2.8-1-4.2-1.5c-1.3-0.5-2.4-1.2-2.6-2.7c-0.3-2,0.6-3.4,2.5-4.1c2.4-0.9,5.7-0.3,7.3,1.7c-0.4,0.4-0.7,0.7-1.1,1.2
		c-0.9-1.1-2.1-1.5-3.5-1.7c-1-0.2-1.9,0-2.7,0.6c-1,0.8-1.3,2.2,0.2,3.1c0.8,0.5,1.8,0.7,2.7,1c0.7,0.2,1.4,0.4,2,0.7
		c2,0.8,2.7,2.5,2.5,3.8c-0.3,1.9-1,2.9-3.3,3.6c-0.1,0-0.3,0.1-0.4,0.2C201.6,384.1,200.7,384.1,199.8,384.1z"/>
	<path class="st1" d="M339.4,100.3c3.8-3,7.4-5.8,11.1-8.7c1,1.3,2,2.5,2.9,3.8c-5.9,4.6-11.7,9.2-17.7,13.8
		c-0.4-0.4-0.8-0.9-1.1-1.3c-0.3-0.4-0.7-0.9-1-1.3c-0.5-0.6-0.8-1.1-0.5-2c1.6-5.4,3.1-10.8,4.6-16.2c0,0,0-0.1-0.1-0.2
		c-3.8,3-7.6,6-11.4,8.9c-1-1.3-2-2.5-2.9-3.7c5.9-4.6,11.8-9.2,17.7-13.9c0.9,1.2,1.8,2.3,2.7,3.5c0.2,0.2,0.3,0.6,0.2,0.8
		c-1.4,5.3-2.9,10.5-4.4,15.7C339.5,99.7,339.5,99.9,339.4,100.3z"/>
	<path class="st1" d="M178.7,40.1c-1.4,0.3-2.7,0.4-4,0.9c-1.6,0.6-2.1-0.6-2.8-1.4c-1.2-1.4-2.5-2.7-3.5-4.2
		c-0.8-1.3-1.8-1.1-2.9-0.8c-0.5,0.1-1,0.2-1.6,0.4c0.5,2.6,1.1,5.2,1.6,7.8c-1.4,0.3-2.8,0.6-4.2,0.9c-0.2,0-0.5-0.3-0.6-0.5
		c-0.9-4.6-1.8-9.1-2.7-13.7c-0.5-2.4-1-4.8-1.5-7.2c0-0.2,0-0.3,0-0.6c2.7-0.5,5.3-1.1,8-1.6c1.2-0.2,2.3-0.6,3.5-0.6
		c2.3-0.1,4.4,0.5,6,2.4c1.7,2,2.5,5.8,1,8.2c-0.6,0.9-1.4,1.7-2.3,2.4c-0.5,0.4-0.5,0.6-0.1,1c1.3,1.4,2.6,2.8,3.9,4.3
		C177.1,38.4,177.8,39.2,178.7,40.1z M161.9,24.8c0.4,2,0.8,4,1.2,6c0.5-0.1,1.1-0.2,1.6-0.3c1.5-0.4,3.1-0.7,4.5-1.2
		c1.5-0.5,2-2.1,1.4-3.7c-0.4-1.2-2.2-2.1-3.5-1.8C165.4,24.1,163.7,24.4,161.9,24.8z"/>
	<path class="st1" d="M319,85c-6.4,0.1-12.3-5.8-12.1-12.1c0.2-6.2,5.4-11.7,11.8-11.6c6.4,0.1,11.9,5.5,12,11.9
		C330.7,79.5,325.2,84.9,319,85z M311.6,73.8c-0.3,3.5,3.3,6.8,6.8,6.7c3.3-0.1,6.6-3,7.4-6.5c1-4.2-2.8-8.8-7.8-8
		C314.8,66.5,311.4,70.1,311.6,73.8z"/>
	<path class="st1" d="M240.4,29.6c3.5,0.9,7,1.7,10.6,2.6c-0.3,1.2-0.6,2.4-0.9,3.6c-0.1,0.5-0.5,0.4-0.8,0.3
		c-3.3-0.8-6.6-1.6-9.9-2.4c-0.4,1.7-0.8,3.3-1.2,5c3.4,0.8,6.7,1.6,10.1,2.4c0.5,0.1,0.7,0.2,0.5,0.8c-0.3,1.1-0.5,2.2-0.8,3.4
		c-1.4-0.3-2.7-0.6-4.1-1c-3.6-0.9-7.2-1.8-10.8-2.6c-0.4-0.1-0.5-0.2-0.4-0.7c0.9-3.6,1.8-7.3,2.7-10.9c0.8-3.5,1.7-7,2.5-10.4
		c5,1.2,9.9,2.4,14.9,3.6c0.5,0.1,0.6,0.3,0.5,0.8c-0.3,1-0.5,1.9-0.7,2.9c-0.1,0.5-0.2,0.6-0.7,0.4c-3.2-0.8-6.4-1.5-9.6-2.3
		c-0.6-0.2-0.8,0-0.9,0.6C241.1,27,240.7,28.3,240.4,29.6z"/>
	<path class="st1" d="M79,88.2c2.7-2.8,5.3-5.5,8-8.4c0.9,1.1,1.7,2.1,2.7,3.2c-3.4,3.6-7,7.4-10.7,11.3c-0.1-0.1-0.2-0.1-0.3-0.2
		c-1.7-1.6-3.4-3.3-5.1-4.9c-2.6-2.5-5.1-4.9-7.7-7.4c-1.1-1-2.1-2-3.3-3c3.7-3.9,7.3-7.7,11-11.5c1,0.9,2.1,1.9,3.1,2.8
		c-2.6,2.7-5.1,5.4-7.4,7.7c1,1.3,2,2.5,3,3.7c2.7-2.8,5.1-5.4,7.6-7.9c1,0.9,2,1.9,3.1,2.8c-2.5,2.7-5,5.3-7.5,7.9
		C76.7,85.7,77.8,86.9,79,88.2z"/>
	<path class="st1" d="M90.8,73.3c2.1,0.2,4.1-0.2,5.9-1.3c1-0.6,1.9-1.5,2.7-2.4c0.6-0.6,0.8-1.5,0.5-2.4c-0.4-0.9-1.2-1.4-2.2-1.1
		c-1.2,0.4-2.3,0.9-3.5,1.3c-1.7,0.6-3.4,1.4-5.2,1.9c-3.4,0.8-6.2-1.7-6.9-4.6c-0.6-2.7,0.4-4.9,2.2-6.9c1.8-1.9,3.9-3.2,6.4-3.9
		c1.2-0.3,2.4-0.4,3.8-0.6c0,1.6,0,3.1,0,4.5c-2.9,0.1-5.5,0.9-7.5,3.3c-1.1,1.3-0.6,3.1,0.8,3.3c0.6,0.1,1.3-0.2,1.9-0.4
		c1.8-0.7,3.5-1.5,5.3-2.2c2-0.8,4-1.1,6-0.1c2.4,1.3,4.2,4.7,3.3,7.7c-0.8,2.3-2.3,4-4.2,5.5c-1.6,1.3-3.5,2.3-5.5,2.7
		c-1.1,0.2-2.2,0.2-3.3,0.3c-0.2,0-0.5-0.2-0.5-0.4C90.8,76,90.8,74.6,90.8,73.3z"/>
	<path class="st1" d="M131.8,29.6c2.9-1,5.7-2,8.5-3c1.6-0.6,3.1-1.2,4.8-1c2,0.2,3.7,1,5,2.6c1.1,1.5,1.7,3.1,1.6,4.9
		c-0.1,2.7-1.3,4.7-3.7,5.9c-2.2,1.1-4.5,1.8-6.9,2.7c0.9,2.4,1.7,4.9,2.6,7.5c-1.5,0.5-3,1.1-4.5,1.6
		C136.8,43.8,134.3,36.7,131.8,29.6z M139.8,37.8c1.9-0.7,3.8-1.4,5.6-2.2c1.3-0.6,1.9-2.3,1.3-3.7c-0.5-1.2-1.6-2.2-3.2-1.8
		c-1.8,0.5-3.6,1.1-5.4,1.7c-0.1,0-0.3,0.3-0.2,0.4C138.4,34.1,139.1,35.9,139.8,37.8z"/>
	<path class="st1" d="M278.7,38.4c-1.5,0.1-3,0.2-4.4,0.4c-0.6-2.7-2-4.6-4.7-5.3c-2.2-0.6-4.1-0.2-5.9,1.2c-2.6,2-3.8,5.6-2.7,8.7
		c1.2,3.5,5.2,5.6,8.8,4c0.5-0.2,0.9-0.6,1.4-0.9c1,1.1,2,2.2,3,3.3c-3.8,3.1-8.6,3.5-13.5,0.1c-4.4-3.1-6-8-4.2-13.3
		c0.9-2.5,2.4-4.6,4.7-6c1.9-1.2,4-1.9,6.2-1.7C274.5,29.4,277.9,33.2,278.7,38.4z"/>
	<path class="st1" d="M218.6,21.2c-2.2-0.2-4.3-0.5-6.5-0.7c0.1-1.3,0.3-2.7,0.4-4.2c5.9,0.6,11.8,1.3,17.8,1.9
		c-0.1,0.8-0.1,1.6-0.2,2.4c0,0.3-0.1,0.7-0.1,1c0.1,0.8-0.3,0.9-0.9,0.8c-1.7-0.2-3.5-0.5-5.2-0.6c-0.2,0-0.6,0.4-0.6,0.6
		c-0.2,1.2-0.2,2.4-0.4,3.6c-0.2,1.9-0.4,3.8-0.6,5.7c-0.1,1.3-0.2,2.5-0.4,3.8c-0.2,1.5-0.3,3-0.5,4.4c-1.6-0.2-3.1-0.3-4.8-0.5
		C217.3,33.3,218,27.3,218.6,21.2z"/>
	<path class="st1" d="M114,38c0.7,1.2,1.4,2.4,2.1,3.6c-1.7,1-3.3,2-4.9,3c-0.5,0.3-0.6,0.4-0.3,1c3,5,6,10,9.1,15.1
		c-1.3,0.8-2.7,1.6-4.1,2.5c-1.2-2-2.3-3.9-3.5-5.8c-1.9-3.1-3.7-6.2-5.6-9.3c-0.2-0.4-0.5-0.5-0.9-0.3c-1.7,1-3.4,2.1-5,3.1
		c-0.7-1.2-1.5-2.4-2.2-3.6C103.7,44.2,108.8,41.1,114,38z"/>
	<path class="st1" d="M284.9,61.7c-1.4-0.8-2.8-1.6-4.1-2.4c3.1-5.3,6.1-10.5,9.2-15.8c-1.9-1.1-3.8-2.2-5.7-3.3
		c0.7-1.2,1.4-2.4,2.1-3.6c5.2,3,10.3,6,15.5,9c-0.7,1.2-1.4,2.4-2.1,3.6c-1.9-1.1-3.7-2.1-5.7-3.3C291,51.2,288,56.5,284.9,61.7z"
		/>
	<path class="st1" d="M307.5,49.7c1.3,0.9,2.6,1.9,3.9,2.8c-2.9,4.1-5.8,8.1-8.7,12.2c-1.3,1.8-2.6,3.7-4,5.5
		c-0.3,0.4-0.6,0.5-1.1,0.1c-0.9-0.7-1.8-1.4-2.7-2c-0.4-0.3-0.4-0.5-0.1-0.9c1.3-1.8,2.6-3.6,3.9-5.4c2-2.7,3.9-5.5,5.9-8.2
		C305.5,52.4,306.5,51.1,307.5,49.7z"/>
	<path class="st1" d="M214.4,369.4c2.3-0.2,4.5-0.5,6.8-0.6c1.8-0.1,3.1,0.8,3.5,2.5c0.4,1.3,0.1,3.2-1.7,3.9c0,0,0,0.1-0.1,0.2
		c1.4,0.3,2.4,1.2,2.8,2.6c0.5,2.4-0.4,4-2.7,4.5c-2.2,0.5-4.5,0.6-6.7,0.9c-0.2,0-0.5-0.4-0.6-0.6c-0.3-2.3-0.5-4.6-0.7-7
		c-0.2-1.8-0.4-3.6-0.7-5.4C214.4,370.1,214.4,369.8,214.4,369.4z M217.4,381.6c1.5-0.1,2.8-0.3,4.2-0.4c1.4-0.2,2.5-0.9,2.4-2.7
		c-0.1-1.3-1.2-2.3-2.5-2.2c-1.5,0.1-3.1,0.3-4.7,0.5C217,378.5,217.2,380,217.4,381.6z M216.2,370.8c0.2,1.6,0.4,3,0.5,4.5
		c1.5-0.2,2.9-0.3,4.3-0.5c1.2-0.1,2.2-1.2,2.1-2.3c-0.1-1.4-1.3-2.4-2.6-2.3C219.1,370.4,217.7,370.6,216.2,370.8z"/>
	<path class="st1" d="M180.4,374.1c0,2.9-1,5.1-3.2,6.6c-4,2.8-10.3,0.2-10.7-5c-0.2-2.6,0.4-4.8,2.2-6.6c1.9-1.9,4.2-2.1,6.6-1.5
		C178.4,368.3,180.6,371,180.4,374.1z M173.5,368.8c-1.3-0.1-2.5,0.4-3.3,1.2c-1.7,1.8-2.4,4-1.7,6.4c0.9,3.5,5,4.9,7.7,2.9
		c2.1-1.5,2.6-3.7,2.4-6.1C178.3,370.5,176,368.8,173.5,368.8z"/>
	<path class="st1" d="M250.7,377.1c-3,0.8-6,1.5-8.9,2.3c-1.1-4.3-2.2-8.7-3.3-13c-0.1-0.5,0-0.6,0.4-0.7c2.8-0.7,5.5-1.4,8.3-2.1
		c0.1,0.5,0.2,1,0.3,1.5c-2.4,0.6-4.8,1.2-7.2,1.9c0.4,1.3,0.7,2.6,1,3.9c0.1,0.4,0.3,0.5,0.7,0.4c2.2-0.6,4.3-1.1,6.5-1.7
		c0.1,0.5,0.3,1,0.4,1.5c-2.4,0.6-4.7,1.2-7.1,1.8c0.4,1.6,0.8,3.1,1.2,4.7c2.4-0.6,4.7-1.2,7.2-1.8
		C250.4,376.1,250.5,376.5,250.7,377.1z"/>
	<path class="st1" d="M182.3,381c0.3-0.4,0.7-0.8,1-1.3c1.4,1.9,4.1,2.8,6.1,2.2c0.8-0.3,1.5-0.8,1.7-1.7c0.2-1-0.1-1.8-1.1-2.2
		c-1.2-0.5-2.4-1-3.6-1.6c-0.7-0.4-1.5-0.8-2.1-1.3c-1.7-1.4-1.1-4.2,0.8-5.3c2.3-1.4,6.4-0.6,8.1,1.6c-0.4,0.4-0.7,0.7-1.1,1.1
		c-1.3-1.6-3.1-2.1-5.1-1.8c-1,0.1-1.8,0.9-1.9,1.8c-0.1,0.8,0.6,1.6,1.6,2.1c1.5,0.6,3,1.2,4.5,2c1.4,0.7,1.8,2,1.7,3.5
		c-0.2,1.3-0.9,2.4-2.1,3C188.2,384.3,184,383.4,182.3,381z"/>
	<path class="st1" d="M156.5,363.6c2.1,0.6,4,1,5.8,1.6c1.9,0.6,3.2,2.3,3,4c-0.4,2.7-1.5,4-4,4.2c-1.1,0.1-2.3-0.4-3.5-0.7
		c-1.8-0.4-1.8-0.5-2.3,1.2c-0.4,1.2-0.6,2.5-1,3.7c-0.5-0.1-1.1-0.2-1.7-0.4C154.1,372.7,155.3,368.2,156.5,363.6z M156.4,370.7
		c1.3,0.3,2.5,0.5,3.6,0.9c1.4,0.4,2.8-0.3,3.3-1.7c0.5-1.5-0.2-3-1.8-3.4c-1.2-0.4-2.4-0.6-3.8-1
		C157.3,367.2,156.9,368.9,156.4,370.7z"/>
	<path class="st1" d="M231.6,379.7c1.5-0.3,2.9-0.5,4.4-0.8c0.3-0.1,0.7-0.1,1-0.2c1.1-0.3,1.4,0,1.3,1c0,0.1-0.2,0.3-0.4,0.4
		c-2.5,0.5-5,0.9-7.5,1.4c-0.1,0-0.2,0-0.3,0c-0.8-4.5-1.7-9.1-2.5-13.7c0.6-0.1,1.1-0.2,1.7-0.3
		C230.1,371.5,230.8,375.6,231.6,379.7z"/>
	<path class="st1" d="M209.1,369.6c0.6,0,1.1,0,1.7,0c0.1,1,0.2,2,0.2,3c0.1,1.8,0.1,3.5,0.2,5.3c0.1,1.7,0.2,3.3,0.3,5
		c0,0.2,0,0.4,0,0.6c-0.6,0-1,0-1.7,0C209.5,378.9,209.3,374.3,209.1,369.6z"/>
	<path class="st1" d="M133.1,123.9c5.5,4.4,11.4,7.5,17.8,9.8c7.3,2.6,14.8,3.6,22.6,2.7c10.2-1.3,19.1-5.4,27.2-11.7
		c0.2-0.1,0.4-0.3,0.5-0.4c0.3-0.4,0.5-0.3,0.9,0c4.6,3.9,9.8,6.8,15.3,9c3.5,1.4,7.1,2.4,10.8,3s7.5,0.7,11.2,0.3
		c10.3-1,19.5-4.7,28-10.6c0.9-0.6,1.7-1.3,2.7-2c0,0.4,0.1,0.6,0.1,0.9c0,31.9,0,63.8-0.1,95.7c0,4.7-0.6,9.3-1.5,13.9
		c-2.2,11.3-7.6,20.9-15,29.6c-9.9,11.6-21.9,20.5-35.8,26.9c-5,2.3-10.2,4.3-15.6,5.7c-0.4,0.1-1,0.1-1.4,0c-5-1.3-9.8-3-14.4-5.1
		c-14.3-6.4-26.7-15.5-36.9-27.5c-5.4-6.3-9.8-13.2-12.6-21.1c-1.4-3.9-2.3-7.9-2.9-11.9c-1-6.8-1-13.7-1-20.6c0-28.5,0-57,0-85.4
		C133,124.7,133.1,124.4,133.1,123.9z"/>
</g>
<circle class="st2" cx="200" cy="201.2" r="158.5"/>
<g>
	<path class="st3" d="M198,7.2c0.7,0.2,1.4,0.3,2,0.5c4.7,1.4,7.5,4.7,8.3,9.4c0.8,4.2-0.3,8.1-3.5,11.2c-1.9,1.9-4.4,2.8-7.1,3.2
		c-2.7,0.3-5.3-0.1-7.7-1.3c-3.3-1.8-5.3-4.6-5.9-8.3c-0.6-3.4-0.1-6.5,1.8-9.4c2-3,4.8-4.6,8.3-5.1c0.1,0,0.2-0.1,0.3-0.2
		C195.6,7.2,196.8,7.2,198,7.2z M189.1,19.5c0,0.1,0,0.3,0,0.4c0,2.4,1,4.4,2.9,5.8c1.5,1.1,3.2,1.5,5,1.3c2.1-0.2,3.7-1.1,4.9-2.8
		c1.6-2.2,1.8-4.8,1.1-7.3c-1.3-4.7-6-6.6-10-4.6C190.2,13.7,189,16.3,189.1,19.5z"/>
	<path class="st3" d="M201.9,392.8c-1.1-1.8-2.2-3.6-3.3-5.4c-0.2-0.3-0.6-0.6-1-0.6c-0.7-0.1-1.4,0-2.2,0c-0.1,1.9-0.2,3.8-0.3,5.8
		c-0.5,0-1,0-1.5,0c0-4.8,0-9.6,0-14.6c2.7,0.1,5.3-0.3,7.9,0.4c1.3,0.4,2.5,2.1,2.6,3.5c0.1,2.8-0.7,3.9-3.4,4.8
		c-0.1,0-0.2,0.1-0.3,0.3c1.3,2,2.5,3.9,3.8,5.9C203.3,392.8,202.6,392.8,201.9,392.8z M195.4,379.5c0,2,0,3.9,0,5.8
		c1.4,0,2.8,0,4.2,0c1.4,0,2.6-1.2,2.7-2.8c0.1-1.1-1.1-2.6-2.2-2.7C198.5,379.6,197,379.5,195.4,379.5z"/>
	<path class="st3" d="M40.1,201.6c0.4-38.3,11.8-72.3,35.4-102c22.5-28.3,51.3-47,86.4-56c9.4-2.4,18.9-3.8,28.5-4.4
		c9.4-0.6,18.9-0.3,28.3,0.8c25.2,3,48.4,11.4,69.4,25.7c34.8,23.7,57.3,56.3,67.4,97.2c3.6,14.6,5,29.4,4.4,44.4
		c-1.4,35.5-12.9,67.5-35,95.4c-23,29.1-52.7,48-88.8,56.7c-12.8,3.1-25.7,4.4-38.9,4.1c-38.3-1-72-13.9-100.9-38.9
		c-25.6-22.2-42.4-49.9-50.9-82.6c-2.6-10-4.2-20.3-4.8-30.6C40.3,207.8,40.2,204.5,40.1,201.6z M356.3,201.2
		c0-11.2-1-21.5-3.4-32.8c-6.4-30.6-20.4-57.2-42.5-79.4C281.7,60.2,247,44.7,206.3,42.7c-13.9-0.7-27.6,0.6-41.1,3.8
		c-34.8,8.3-63.5,26.4-85.9,54.1C57.2,128,45.6,159.4,44,194.6c-0.7,16.4,1,32.6,5.4,48.5c8.8,32.2,26,59.3,51.7,80.7
		c26.8,22.3,57.8,34.3,92.8,35.8c13.9,0.6,27.6-0.6,41.1-3.8c33.3-7.9,61.1-24.9,83.3-50.9C343.5,275,355.8,240.2,356.3,201.2z"/>
	<path class="st3" d="M217.7,8.1c1.2,0.2,2.2,0.3,3.3,0.4c1.8,0.3,3.7,0.5,5.5,0.8c4.7,0.7,8.6,2.7,10.5,7.4c1.2,3.1,1,6.2-0.2,9.3
		c-1,2.6-2.8,4.5-5.3,5.7c-2.5,1.2-5.1,1.4-7.8,1c-2.3-0.3-4.5-0.6-6.8-0.9c-0.8-0.1-1.6-0.3-2.4-0.4
		C215.4,23.6,216.5,15.9,217.7,8.1z M221.9,13.2c0,0.5-0.1,0.9-0.1,1.2c-0.3,2.3-0.7,4.6-1,6.9c-0.3,1.9-0.5,3.8-0.9,5.7
		c-0.1,0.7,0.1,0.9,0.8,1c1.1,0.1,2.2,0.4,3.4,0.5c2.2,0.2,4.3-0.1,6.1-1.7c2-1.8,2.5-4.1,2.4-6.7c-0.2-2.9-2.1-4.9-4.6-5.9
		c-0.8-0.3-1.6-0.4-2.4-0.5C224.3,13.4,223.2,13.3,221.9,13.2z"/>
	<path class="st3" d="M143.6,31.5c-1.9,0.7-3.8,1.4-5.8,2.1c-0.5-1.3-1-2.6-1.5-4.1c3.5-1.3,7-2.6,10.5-3.9c1,2.7,1.9,5.3,2.9,8
		c0.1,0.3,0.1,0.6,0,0.9c-1.9,4.5-5.4,7-10.1,7.9c-3.6,0.7-7,0-9.8-2.4c-2.3-1.9-3.7-4.4-4.3-7.3c-0.8-3.7,0-7,2.4-9.9
		c1.9-2.3,4.4-3.7,7.3-4.4c3.4-0.8,6.5,0,9.3,2c-1,1.1-2,2.3-2.9,3.4c-1.1-0.4-2.1-0.8-3.2-1c-2.1-0.5-3.9,0.3-5.5,1.5
		c-1.8,1.4-2.7,3.5-2.6,5.7c0.1,3.5,2.1,7.3,6.3,8c3.1,0.6,6-0.8,7.8-3.4c0.2-0.2,0.1-0.7,0-1C144.2,32.8,143.9,32.1,143.6,31.5z"/>
	<path class="st3" d="M178,22.9c0.3,6.6-5.6,12.3-13.4,12c-6-0.3-11.6-5.3-11.2-13.3c0.3-6.1,5.4-11.3,13.1-11.1
		C172.9,10.6,178,15.7,178,22.9z M172.9,23c-0.1-0.7-0.1-1.3-0.3-2c-0.3-1.6-1-3.2-2.3-4.3c-1.7-1.5-3.7-2.1-6-1.7
		c-1.9,0.3-3.5,1.3-4.6,2.8c-1.4,2-1.6,4.2-1.1,6.4c0.6,2.8,2.1,5,5.1,5.9c2.7,0.8,5.1,0.1,7.1-1.7C172.3,27,173.1,25.1,172.9,23z"
		/>
	<path class="st3" d="M119.7,374.6c-0.5-0.2-1-0.4-1.6-0.7c2-4.5,4-9,5.9-13.5c0.8,0.3,1.5,0.7,2.3,1c0,4,0,7.9,0,11.9
		c2.9-2.7,5.7-5.4,8.6-8.1c0.8,0.3,1.5,0.7,2.4,1c-2,4.5-4,9-6,13.5c-0.6-0.3-1.1-0.6-1.6-0.8c1.6-3.6,3.2-7.2,4.8-11
		c-0.3,0.2-0.4,0.3-0.5,0.4c-1.7,1.7-3.5,3.3-5.2,5c-1.1,1.1-2.3,2.2-3.5,3.3c-0.2,0.2-0.5,0.2-0.7,0.2c-0.2,0-0.3-0.4-0.3-0.6
		c0-2.5,0.1-5,0.2-7.6c0.1-1.5,0.2-3.1,0.2-4.6c-0.1,0-0.2,0-0.2-0.1C122.8,367.4,121.3,371,119.7,374.6z"/>
	<path class="st3" d="M80.9,330.4c0.5,0.5,0.9,0.9,1.4,1.4c-4.5,2.4-9,4.8-13.5,7.2c-0.4-0.4-0.8-0.9-1.2-1.4
		c-0.1-0.1,0.1-0.5,0.2-0.7c1.9-3.2,3.8-6.4,5.7-9.5c0-0.1,0.1-0.2,0.2-0.5c-3.7,2-7.2,3.9-10.6,5.8c-0.5-0.5-0.9-0.9-1.4-1.5
		c2.5-4.3,5-8.7,7.5-12.9c0.5,0.4,1,0.8,1.5,1.2c-2.2,3.6-4.3,7.1-6.4,10.7c0,0.1,0.1,0.1,0.1,0.2c3.6-2,7.2-3.9,10.9-5.9
		c0.3,0.4,0.6,0.7,1,1.1c-2.1,3.5-4.2,7.1-6.3,10.7c0,0,0,0.1,0.1,0.1C73.6,334.4,77.2,332.4,80.9,330.4z"/>
	<path class="st3" d="M263.7,29c2,0.7,3.9,1.4,5.9,2.2c-0.3,0.9-0.6,1.7-0.9,2.6c-2-0.7-3.9-1.4-5.9-2.1c-0.8,2.2-1.6,4.5-2.5,6.8
		c-1-0.4-1.9-0.7-2.8-1.1c0.7-2,1.4-4,2.1-5.9c0.3-0.7,0.1-0.9-0.5-1.1c-1.5-0.5-3-1.1-4.6-1.6c-0.6-0.2-0.6-0.4-0.4-0.9
		c0.3-0.6,0.5-1.2,0.7-2c2,0.7,3.9,1.4,6,2.1c0.8-2.2,1.6-4.3,2.4-6.5c1,0.4,1.9,0.7,2.8,1.1C265.2,24.7,264.5,26.8,263.7,29z"/>
	<path class="st3" d="M325.4,340.1c-2.5-2.8-5-5.6-7.5-8.5c0.4-0.4,0.9-0.8,1.3-1.2c3.2,3.6,6.4,7.3,9.7,10.9
		c-0.6,0.8-1.3,1.3-2.5,1c-4-1-8.1-1.8-12.2-2.7c-0.2-0.1-0.5-0.1-0.9-0.2c2.7,3,5.2,5.9,7.8,8.9c-0.4,0.4-0.9,0.8-1.3,1.2
		c-3.2-3.7-6.5-7.3-9.7-11c0,0,0-0.1,0-0.1c0.7-1.2,1.7-1.2,2.9-0.9c3.9,0.9,7.9,1.7,11.9,2.5c0.1,0,0.3,0.1,0.4,0.2
		C325.3,340.2,325.3,340.2,325.4,340.1z"/>
	<path class="st3" d="M218,388.5c-0.3-3.7-0.6-7.4-0.8-11.1c1.9-0.5,1.8-0.5,1.9,1.3c0.2,2.8,0.5,5.7,0.7,8.5
		c0.1,1.5,0.2,2.9,0.2,4.4c-0.3,0.1-0.6,0.3-0.9,0.2c-0.4,0-0.9-0.1-1.2-0.4c-1.2-1.3-2.3-2.7-3.4-4.1c-1.6-1.9-3.1-3.7-4.7-5.6
		c-0.2-0.3-0.5-0.6-0.7-0.9c-0.1,0-0.1,0.1-0.2,0.1c0.3,3.8,0.6,7.6,0.9,11.5c-0.6,0-1.1,0-1.8,0c-0.4-4.8-0.7-9.6-1.1-14.5
		c1.3-0.4,2.1-0.1,2.9,0.9c1.5,2,3.2,3.7,4.8,5.6c0.9,1,1.7,2.1,2.6,3.1c0.3,0.3,0.5,0.6,0.8,0.9C217.8,388.6,217.9,388.5,218,388.5
		z"/>
	<path class="st3" d="M301.2,363.1c-2.8-4.1-5.6-8.1-8.4-12.2c2-1.3,4-2.7,6.1-3.7c2.8-1.4,6.4-0.2,8.2,2.3c1,1.3,1.6,2.7,1.7,4.4
		c0.1,2.6-1.1,4.6-3,6.1C304.3,361.1,302.7,362.1,301.2,363.1z M295.2,351.3c2.2,3.2,4.4,6.3,6.6,9.6c1.3-1,2.6-1.9,3.7-3
		c1.1-1.1,1.6-2.5,1.3-4.1c-0.2-1.3-0.7-2.4-1.6-3.4c-1-1.2-2.2-1.9-3.8-2C298.9,348.2,297.2,350,295.2,351.3z"/>
	<path class="st3" d="M266.4,367.4c-0.3,0.5-0.7,0.9-1,1.4c-1.6-0.9-3.3-1.1-4.9-0.3c-1.6,0.7-2.7,1.9-3.3,3.6
		c-1.1,3.5,1.6,8.2,5.8,8c1.8-0.1,3.3-0.9,4.4-2.3c0.5-0.6,0.5-1.2,0.2-1.9c-0.8-1.9-0.8-1.9-2.8-1.1c-0.9,0.4-1.8,0.7-2.8,1
		c-0.1-0.5-0.4-1.2-0.2-1.5c0.2-0.4,0.9-0.4,1.4-0.6c1.6-0.6,3.2-1.2,4.8-1.8c0.6,1.5,1.1,3,1.6,4.5c0.1,0.3,0.1,0.7,0,0.9
		c-2,4.1-7.2,5.7-11,3.3c-2.2-1.4-3.3-3.6-3.5-6.1c-0.4-4.2,2.6-7.2,6.3-7.9c1.3-0.3,2.7-0.1,4,0.5
		C265.8,367.1,266.1,367.3,266.4,367.4z"/>
	<path class="st3" d="M335.3,326.2c-1.2,1.3-2.3,2.5-3.6,3.8c-0.3-0.4-0.6-0.9-1-1.3c1.5-1.6,3.1-3.2,4.6-4.9c1,0.9,2,1.9,3,2.7
		c1,0.8,1,1.8,0.7,2.8c-0.8,3.5-2.9,5.7-6.4,6.4c-2.2,0.4-4.2-0.2-5.9-1.7c-1.9-1.6-3-3.7-3-6.2c0.1-3.3,2.9-6.6,6.1-7
		c0.7-0.1,1.3-0.2,2-0.2c-0.1,0.7-0.3,1.2-0.3,1.6c-1,0.3-2,0.4-2.8,0.8c-3.3,1.5-4.4,5.6-1.7,8.8c1.8,2.1,4.3,2.9,6.7,2
		c2.2-0.8,3.3-2.5,3.7-4.7c0.1-0.4-0.2-0.9-0.4-1.2C336.5,327.3,335.9,326.8,335.3,326.2z"/>
	<path class="st3" d="M284.1,372.8c-1.4,1.4-2.5,0.7-3.7-0.2c-1.1-0.8-2.2-1.5-3.4-2.1c-0.3-0.2-0.9-0.2-1.3-0.1
		c-0.7,0.2-1.3,0.6-2,0.9c0.8,1.7,1.6,3.5,2.5,5.3c-0.5,0.3-1,0.5-1.6,0.8c-2.1-4.5-4.1-8.9-6.2-13.3c1-0.5,2-1,2.9-1.4
		c1.2-0.5,2.5-1,3.8-1.5c1.8-0.7,4.2,0.9,4.8,2.9c0.6,1.7,0.4,3.2-1,4.4c-0.2,0.2-0.4,0.4-0.7,0.7
		C280.3,370.4,282.2,371.6,284.1,372.8z M273.1,369.9c0.6-0.3,1.2-0.6,1.7-0.8c0.6-0.3,1.2-0.5,1.7-0.8c0.4-0.3,0.9-0.6,1.2-0.9
		c0.8-0.9,0.8-2.2,0-3.4c-0.5-0.7-1.8-1.4-2.6-1.1c-1.5,0.6-3.1,1.3-4.6,1.9C271.5,366.5,272.3,368.2,273.1,369.9z"/>
	<path class="st3" d="M243.3,381.5c1.7,1.6,3.4,3.2,5.1,4.8c-1.3,0.7-2,0.6-2.9-0.3c-1.3-1.2-2.5-2.4-3.8-3.6
		c-0.2-0.2-0.5-0.2-0.7-0.2c-0.8,0.1-1.6,0.4-2.4,0.6c0.4,1.9,0.9,3.8,1.3,5.7c-0.6,0.1-1.1,0.3-1.7,0.4c-1.1-4.8-2.2-9.6-3.4-14.4
		c2.1-0.5,4.2-0.9,6.3-1.4c2.2-0.5,4.4,0.9,5,3.2C246.5,378.8,245.5,380.5,243.3,381.5z M237,375.5c-0.1,0.2-0.1,0.3-0.1,0.4
		c0.4,1.6,0.7,3.3,1.1,4.9c0,0.1,0.4,0.4,0.5,0.3c1.4-0.4,2.9-0.7,4.3-1.2c1.1-0.4,1.6-1.8,1.4-3c-0.3-1.2-1.3-2.2-2.5-2.1
		C240.1,374.9,238.5,375.3,237,375.5z"/>
	<path class="st3" d="M148.5,377.4c0.7,1.6,1.4,3.2,2.2,4.8c0.8-0.9,1.7-1.8,2.5-2.8c0.3,0.3,0.7,0.6,1.2,0.9
		c-0.9,0.9-1.8,1.7-2.6,2.6c-0.2,0.2-0.3,0.7-0.2,0.9c0.5,1,1,1.9,1.5,2.8c-1.7,0-2.6-1-3.1-2.5c-1.6,0.8-3.2,1-4.9,0.5
		c-1.9-0.6-3.3-2.3-3.2-3.9c0-1.8,1.3-3.4,3.2-4.1c0.5-0.2,0.9-0.3,1.2-0.4c0-1.1-0.1-2.1,0-3.1c0.1-1.4,1.5-2.6,2.7-2.7
		c2.6-0.2,3.7,0.9,4.2,2.2c0.5,1.3-0.6,3.3-2.1,3.8c-0.7,0.2-1.4,0.4-2.1,0.6C149,377.1,148.8,377.2,148.5,377.4z M146.8,377.6
		c-1.5,0.4-2.7,1.1-3,2.6c-0.2,1.3,0.2,2.4,1.4,3c1.4,0.8,2.8,0.5,4.1-0.2C148.5,381.2,147.7,379.4,146.8,377.6z M147.9,375.9
		c0.1,0.1,0.2,0.1,0.3,0.2c0.8-0.3,1.7-0.5,2.4-0.8c0.8-0.4,1.3-1.1,1.2-2c-0.1-0.8-0.8-1.4-1.7-1.5c-0.7-0.1-1.8,0.6-2,1.3
		C148,374,148,374.9,147.9,375.9z"/>
	<path class="st3" d="M103,365.6c4.1-3.3,8.2-6.6,12.3-9.9c0.5,0.2,0.9,0.5,1.4,0.7c0.5,0.2,0.6,0.6,0.5,1c-0.4,3.2-0.8,6.4-1.2,9.7
		c-0.2,1.8-0.5,3.6-0.8,5.3c0,0-0.1,0-0.1,0c-1.7-1-1.9-1.3-1.3-3.6c0.1-0.6,0-0.8-0.5-1.1c-1.7-0.9-3.4-1.9-5-2.9
		c-0.6-0.3-1.1-0.3-1.5,0.1c-0.3,0.2-0.5,0.5-0.8,0.7C104.6,366.7,104.6,366.7,103,365.6z M114.3,366.3c0.4-2.9,0.8-5.6,1.2-8.5
		c-2.3,1.9-4.4,3.6-6.7,5.4C110.7,364.4,112.4,365.3,114.3,366.3z"/>
	<path class="st3" d="M286.1,355c4.1,3.3,8.2,6.5,12.4,9.8c-0.6,0.3-1.1,0.7-1.6,0.9c-0.1,0-0.3-0.1-0.4-0.1
		c-0.4-0.3-0.9-0.6-1.3-0.9c-1.3-1-1.3-1-2.7-0.2c-1.5,0.8-3,1.7-4.4,2.6c-0.2,0.1-0.4,0.5-0.4,0.7c0,0.6,0,1.3,0.2,1.9
		c0.3,0.9,0.1,1.4-0.8,1.7c-0.2,0.1-0.4,0.3-0.8,0.5c-0.1-0.8-0.3-1.6-0.4-2.4c-0.3-2-0.6-4.1-0.9-6.1c-0.3-1.9-0.3-3.8-0.8-5.6
		c-0.4-1.5,0.3-2.1,1.4-2.6C285.9,355.1,286,355,286.1,355z M286.1,357.1c0.4,2.9,0.8,5.7,1.2,8.5c1.8-1.1,3.6-2.1,5.5-3.1
		C290.5,360.7,288.4,359,286.1,357.1z"/>
	<path class="st3" d="M224.4,378c0.2,1.5,0.4,3,0.7,4.7c2.5-0.4,5.1-0.8,7.6-1.2c0.1,0.5,0.1,1,0.2,1.6c-2.5,0.4-5,0.8-7.6,1.2
		c0.3,1.7,0.5,3.3,0.8,5.1c2.4-0.4,4.7-0.8,7.1-1.2c0.2,0,0.6,0.3,0.7,0.5c0.1,0.2,0,0.6,0,1c-3.1,0.5-6.2,1-9.4,1.5
		c-0.8-4.9-1.5-9.6-2.3-14.5c3.2-0.5,6.3-1,9.5-1.5c0.1,0.6,0.2,1,0.3,1.6C229.6,377.2,227.1,377.6,224.4,378z"/>
	<path class="st3" d="M188.4,377.6c0.7,0.1,1.1,0.2,1.7,0.2c-0.1,0.9-0.1,1.8-0.2,2.7c-0.2,1.7-0.3,3.5-0.5,5.2
		c-0.2,1.4-0.5,2.7-1.1,4c-0.8,2-3.8,2.8-5.5,2.4c-1.2-0.2-2.5-0.4-3.5-1.3c-1.1-0.9-1.9-2-1.8-3.4c0.1-2.5,0.3-5,0.5-7.5
		c0.1-1,0.1-2.1,0.2-3.3c0.6,0.1,1.2,0.1,1.8,0.2c-0.2,1.8-0.3,3.6-0.5,5.4c-0.1,1.4-0.3,2.8-0.3,4.2c-0.1,2.4,1.6,3.9,4,4.1
		c3.2,0.2,4.2-2.1,4.3-4.2c0.2-2.2,0.5-4.3,0.7-6.5C188.3,379.1,188.4,378.3,188.4,377.6z"/>
	<path class="st3" d="M175.5,378c-1.4-0.2-2.7-0.4-4-0.7c-0.6-0.1-0.7,0.1-0.8,0.5c-0.5,2.9-1,5.7-1.4,8.6c-0.2,1.3-0.5,2.5-0.7,3.8
		c-0.3-0.1-0.4-0.1-0.5-0.1c-1.4-0.4-1.3-0.4-1-1.8c0.5-2.6,0.9-5.2,1.4-7.8c0.2-1.2,0.4-2.3,0.7-3.6c-1.5-0.3-3-0.5-4.6-0.8
		c0.1-0.5,0.2-1,0.3-1.6c3.7,0.6,7.3,1.3,11,1.9C175.7,376.9,175.6,377.4,175.5,378z"/>
	<path class="st3" d="M98.7,344.9c-2.5,3.6-5,7.1-7.6,10.7c1.8,1.3,3.7,2.6,5.6,4c-0.3,0.4-0.6,0.8-0.9,1.3c-2.3-1.7-4.6-3.3-7-5
		c0.7-1,1.3-1.9,2-2.9c2-2.8,4.1-5.6,6.1-8.5c0.4-0.6,0.6-0.7,1.1-0.2C98.1,344.6,98.4,344.7,98.7,344.9z"/>
	<path class="st3" d="M79,348.2c3.1-3.8,6.2-7.6,9.3-11.4c0.5,0.3,0.9,0.7,1.4,1.1c-2.8,3.4-5.5,6.8-8.3,10.2
		c1.7,1.4,3.5,2.8,5.3,4.3c-0.3,0.4-0.6,0.8-1,1.3C83.5,351.9,81.3,350.1,79,348.2z"/>
	<path class="st3" d="M84,333c0.5,0.4,1,0.8,1.4,1.1c-3.3,3.6-6.5,7.3-9.8,10.9c-0.5-0.4-0.9-0.8-1.4-1.1
		C77.4,340.2,80.7,336.6,84,333z"/>
	<path class="st3" d="M106.9,350.5c0.5,0.3,1,0.6,1.5,0.9c-2.6,4.1-5.3,8.2-7.9,12.4c-0.5-0.3-1-0.6-1.5-1
		C101.6,358.8,104.2,354.7,106.9,350.5z"/>
	<path class="st3" d="M316.2,352.4c-0.5,0.4-0.9,0.7-1.4,1.1c-3-3.9-6.1-7.7-9.1-11.6c0.5-0.4,0.9-0.7,1.4-1.1
		C310.1,344.7,313.1,348.5,316.2,352.4z"/>
	<path class="st3" d="M302.5,147.1c0,6.2,0,12.3,0,18.5c-15.5,0-31,0-46.5,0c0,7.9,0,15.8,0,23.6c1.3-1,2.6-2,3.9-2.8
		c3.4-2.2,7.1-3.7,11.1-4.3c2.3-0.3,4.6-0.7,6.9-0.7c5.3,0.1,10.5,1.2,15.2,3.8c2.2,1.2,4.3,2.7,6.2,4.4c2.8,2.5,5,5.5,6.6,8.8
		c1.4,2.9,2.4,5.9,2.8,9.1c0.2,2.3,0.6,4.7,0.5,7.1c-0.2,5.4-1.3,10.6-4,15.4c-2.8,5-6.7,8.8-11.6,11.7c-4,2.4-8.4,3.8-13,4.8
		c-2,0.4-4.1,0.6-6.1,0.7c-2.7,0.2-5.5,0.3-8.2,0.2c-2.9-0.2-5.8-0.6-8.7-1c-3.6-0.5-7-1.6-10.4-3c-3.7-1.5-7.2-3.5-10.3-6
		c-1.8-1.4-3.5-3.1-5.2-4.7c4-5,7.9-9.9,11.8-14.8c0.9,0.8,1.8,1.6,2.7,2.4c3.8,3.3,8.1,5.5,12.9,7c4.1,1.2,8.4,1.6,12.6,1.4
		c4.1-0.2,8-1.5,11.2-4.2c3.5-2.9,5.1-6.7,4.9-11.1c-0.2-4.8-2.5-8.6-6.6-11c-2.7-1.6-5.7-2.2-8.8-2.5c-4.1-0.4-8.1,0.2-12.1,1.3
		c-2.9,0.9-5.6,2.3-8,4.2c-0.8,0.6-1.5,1.3-2.3,2c-0.2,0.2-0.7,0.3-0.9,0.2c-4.7-1.2-9.3-2.5-14-3.7c0-18.8,0-37.7,0-56.6
		C257.5,147.1,280,147.1,302.5,147.1z"/>
	<path class="st3" d="M90.6,245.5c0-3.6,0-7.1,0-10.6c0-1.7,0-3.4,0-5c0-0.4,0.2-0.9,0.5-1.2c5.2-3.9,10.5-7.8,15.7-11.7
		c4.2-3.2,8.4-6.5,12.5-9.9c2.6-2.1,5.2-4.2,7.6-6.4c2.7-2.4,5.4-4.9,7.8-7.5c3.1-3.3,5.9-6.9,7.1-11.3c1.1-4,1.1-7.8-1.3-11.4
		c-1.9-2.8-4.7-4.4-7.8-5.3c-2.7-0.8-5.5-1-8.4-0.8c-3.4,0.3-6.8,0.8-10,2c-3.6,1.3-7,3.1-9.9,5.6c-1.2,1-2.4,2.1-3.6,3.2
		c-0.4,0.4-0.6,0.5-1-0.1c-1.2-1.5-2.5-2.9-3.8-4.4c-1.7-2-3.4-4-5.1-6c-0.8-0.9-1.6-1.8-2.3-2.7c-0.1-0.2-0.1-0.6,0-0.8
		c1.7-1.6,3.3-3.4,5-4.9c2.6-2.2,5.4-4,8.5-5.4c4.4-2.1,8.9-3.7,13.7-4.4c2.6-0.4,5.3-0.7,8-0.9c2.2-0.1,4.4-0.2,6.6,0
		c7.7,0.6,15,2.8,21.4,7.3c4.1,2.9,7.2,6.6,9.4,11.2c1.2,2.5,2.1,5.2,2.3,8.1c0.2,2.3,0.4,4.6,0.3,6.8c-0.2,3.5-1.1,6.9-2.4,10.1
		c-1.4,3.4-3.3,6.6-5.5,9.6c-1.2,1.6-2.5,3.1-3.8,4.6c-1.5,1.7-3,3.4-4.6,4.9c-3,2.8-6,5.5-9.1,8.1c-4.2,3.4-8.5,6.6-12.7,9.9
		c-0.2,0.1-0.3,0.3-0.6,0.6c13.2,0,26.3,0,39.5,0c0,6.2,0,12.3,0,18.5C140,245.5,115.4,245.5,90.6,245.5z"/>
	<path class="st3" d="M187.9,259c5.4-3.3,9.3-7.7,11.4-13.6c-1.9,0.3-3.7,0.4-5.5-0.1c-3.4-0.9-5.6-3.1-6.7-6.3
		c-1.1-3.2-0.9-6.5,0.7-9.5c1.8-3.5,4.7-5.7,8.5-6.3c3.7-0.5,7.1,0.3,10,2.8c2.9,2.4,4.4,5.6,4.9,9.2c0.6,3.7,0,7.4-0.9,11.1
		c-1.1,4.1-3.1,7.9-5.7,11.3c-2.3,3-5,5.6-8,7.9c-0.6,0.4-0.9-0.1-1.2-0.4c-0.9-0.7-1.8-1.5-2.7-2.2
		C191.1,261.6,189.5,260.3,187.9,259z"/>
</g>
<g>
	<path class="st3" d="M-532.9,129.8c1.1,0.3,2.3,0.6,3.4,1c5.8,2.1,9.3,6,10.5,12.1c1.1,5.7-0.3,10.8-4.1,15.1
		c-2.1,2.3-4.9,3.8-8,4.5c-4,0.8-7.8,0.5-11.5-1.1c-3.9-1.7-6.7-4.5-8.2-8.5c-2.3-6-1.5-11.7,2.2-16.8c2.4-3.3,5.8-5.3,10-5.9
		c0.2,0,0.3-0.2,0.5-0.3C-536.4,129.8-534.7,129.8-532.9,129.8z M-525.7,146.7c0-4-1-6.8-3.6-8.9c-3-2.5-7.9-2.8-11.2-0.7
		c-5.5,3.5-6.2,12.6-1.8,17c3,2.9,8.6,3.6,12,1.2C-526.9,153-525.6,149.9-525.7,146.7z"/>
	<path class="st3" d="M-549.7,652.3c-1.5-2.4-3-4.9-4.5-7.3c-0.3-0.4-0.9-0.8-1.4-0.8c-0.9-0.1-1.9,0-3,0c-0.1,2.6-0.2,5.2-0.4,7.8
		c-0.7,0-1.4,0-2.1,0c0-6.5,0-13.1,0-19.8c3.7,0.1,7.2-0.4,10.7,0.5c1.8,0.5,3.4,2.8,3.5,4.8c0.1,3.8-1,5.3-4.6,6.5
		c-0.1,0-0.2,0.2-0.4,0.3c1.7,2.7,3.4,5.3,5.1,8C-547.8,652.3-548.7,652.3-549.7,652.3z M-558.6,642c1.9,0,3.7,0,5.6,0
		c2,0,3.3-1.3,3.7-3.6c0.2-1.4-1.1-3.5-2.7-3.8c-2.1-0.3-4.3-0.3-6.5-0.4C-558.6,636.8-558.6,639.3-558.6,642z"/>
	<path class="st3" d="M-769.1,394.4c0.1-50.3,14.4-95.6,44.5-135.4c31.5-41.7,72.8-68.8,123.7-81.1c19.7-4.7,39.7-6.6,59.9-5.3
		c62,3.9,113.2,29.7,153.6,76.7c24,28,39.5,60.4,47.2,96.4c4.1,19.2,5.7,38.6,4.6,58.2c-3,52.2-21.6,98-56.6,136.9
		c-30.1,33.5-67.3,55.5-111.3,66c-17.3,4.1-34.9,6-52.7,5.5c-51.9-1.3-97.6-18.8-136.8-52.8c-34.7-30-57.6-67.6-69.1-112.1
		c-3.5-13.6-5.7-27.5-6.4-41.5C-768.8,402-769,398-769.1,394.4z M-764.1,385c0,23.9,1.7,40.2,5.5,56.3c11.1,47,34.9,86.3,72,117.2
		c36.4,30.4,78.4,46.5,125.8,48.6c17.7,0.8,35.3-0.6,52.6-4.5c46.5-10.3,85.3-33.6,116.2-69.8c32.2-37.9,49.1-81.9,51.4-131.6
		c1-22.3-1.4-44.2-7.3-65.8c-12-43.7-35.2-80.3-70-109.4c-36.4-30.4-78.5-46.6-125.9-48.7c-18.8-0.8-37.4,0.8-55.7,5.2
		c-45.1,10.7-82.9,33.8-112.9,69.1C-746.8,292.2-763.5,339.3-764.1,385z"/>
	<path class="st3" d="M-505.2,133.4c4.3,1,8.6,2,12.8,3.1c5.7,1.5,10.3,4.7,12,10.5c1.8,6.1,0.6,11.8-4,16.6
		c-2.6,2.7-5.8,3.9-9.4,4.3c-3.4,0.4-6.5-0.6-9.7-1.3c-2.7-0.6-5.3-1.3-8-1.9c-0.3-0.1-0.6-0.2-1-0.3
		C-510,154.1-507.6,143.8-505.2,133.4z M-504.5,160.3c2.3,0.6,4.5,1.3,6.7,1.6c3.4,0.4,6.5-0.3,8.8-3.2c1.9-2.3,2.6-4.9,2.5-7.8
		c-0.1-3.6-1.7-6.3-4.8-7.7c-2.7-1.2-5.7-1.8-8.6-2.6C-501.5,147.3-503,153.8-504.5,160.3z"/>
	<path class="st3" d="M-605.3,141.6c-1.5,1.4-3,2.9-4.6,4.3c-2.9-2.4-6.1-2.9-9.7-1.6c-3.1,1.2-5.9,4.6-6,8.2
		c-0.1,3.2,0.5,6,2.6,8.5c1.7,2,3.8,3.2,6.3,3.5c3.2,0.3,6-0.8,8.5-2.9c1.2-1,1.3-1.6,0.9-3.1c-0.2-0.7-0.4-1.4-0.6-2.2
		c-2.2,0.6-4.4,1.2-6.6,1.8c-1.6,0.5-1.6,0.5-2-1.1c-0.3-1.4-0.7-2.7-1.1-4.2c4.9-1.3,9.7-2.6,14.7-4c0.9,3.1,1.4,6.2,2.6,9.1
		c1.3,3.1-0.5,4.9-2.2,6.8c-3,3.4-6.8,5.1-11.3,5.8c-4.7,0.7-8.9-0.4-12.6-3.2c-2.8-2.1-4.5-5.1-5.5-8.5c-1.5-5-0.9-9.8,2.1-14
		c2.6-3.8,6.4-5.9,10.9-6.9c5-1.1,9.3,0.1,13.2,3.2C-605.5,141.3-605.4,141.5-605.3,141.6z"/>
	<path class="st3" d="M-593.6,146.7c-0.2-8.9,7.1-16.4,17.4-16.2c8.8,0.2,16.2,7,15.9,17.5c-0.2,8.4-7,15.9-17.8,15.6
		C-586.6,163.3-593.8,156.6-593.6,146.7z M-587,146.7c0.4,1.6,0.7,3.2,1.2,4.8c1.3,3.7,4.6,6.1,8.4,6.1c5.7,0.1,9.6-3.4,10.1-9.2
		c0.5-4.9-2.3-11.1-8.5-11.8c-2.7-0.3-5.2,0.3-7.3,1.9C-585.6,140.6-586.7,143.4-587,146.7z"/>
	<path class="st3" d="M-654.8,613c-2.1,4.8-4.3,9.6-6.4,14.5c-0.7-0.3-1.4-0.6-2.2-0.9c2.7-6.1,5.4-12.1,8.1-18.3
		c1.1,0.5,2.1,0.9,3.1,1.3c0,5.3,0,10.7,0,16.1c0.1-0.1,0.3-0.1,0.4-0.2c2.5-2.4,5-4.9,7.6-7.3c1.1-1,2.1-2,3.2-3
		c0.2-0.2,0.6-0.2,0.9-0.1c0.9,0.3,1.7,0.7,2.7,1.1c-2.7,6.1-5.4,12.2-8.1,18.3c-0.8-0.4-1.4-0.7-2.2-1.1c2.2-4.9,4.3-9.7,6.6-14.9
		c-0.4,0.3-0.6,0.4-0.7,0.6c-2.7,2.6-5.4,5.3-8.2,7.9c-1.2,1.1-2.4,2.2-3.6,3.3c-0.2,0.2-0.7,0.3-0.9,0.2c-0.2-0.1-0.5-0.5-0.5-0.8
		c0.1-3.7,0.3-7.5,0.4-11.2c0.1-1.8,0-3.6,0-5.4C-654.6,613.1-654.7,613.1-654.8,613z"/>
	<path class="st3" d="M-730.3,579.3c-0.5-0.6-1.1-1.2-1.5-1.8c-0.1-0.2,0-0.7,0.1-1c2.6-4.4,5.2-8.8,7.7-13.4
		c-4.8,2.6-9.5,5.2-14.3,7.8c-0.7-0.7-1.2-1.3-1.9-1.9c3.5-6,6.9-11.9,10.3-17.7c0.7,0.5,1.4,1.1,2.1,1.6c-3,4.9-5.8,9.7-8.7,14.5
		c0.1,0.1,0.1,0.2,0.2,0.2c4.9-2.7,9.8-5.3,14.8-8.1c0.4,0.5,0.8,1,1.3,1.5c-2.8,4.8-5.7,9.6-8.6,14.5c0,0.1,0.1,0.1,0.1,0.2
		c4.9-2.7,9.8-5.5,14.7-8.2c0.6,0.6,1.2,1.3,1.8,2C-718,572.8-724.1,576-730.3,579.3z"/>
	<path class="st3" d="M-377.5,582.5c-1.1,2.4-3,1.4-4.7,1.1c-5.1-1.1-10.1-2.2-15.1-3.3c-0.3-0.1-0.7-0.2-1.3-0.3
		c3.7,4.1,7.1,8,10.6,12c-0.6,0.6-1.2,1.1-1.8,1.7c-4.4-4.9-8.8-9.9-13.2-14.9c0,0,0-0.1,0-0.2c0.9-1.5,2.2-1.6,3.9-1.2
		c5.4,1.2,10.8,2.3,16.2,3.4c0.1,0,0.3,0.1,0.5,0c-3.4-3.8-6.8-7.6-10.2-11.5c0.6-0.5,1.2-1,1.9-1.6
		C-386.3,572.6-381.9,577.6-377.5,582.5z"/>
	<path class="st3" d="M-539.1,652c-0.9,0-1.5,0-2.4,0c-0.5-6.6-1-13.1-1.5-19.6c1.7-0.5,2.8-0.2,3.9,1.3c2,2.7,4.3,5,6.5,7.6
		c1.2,1.4,2.3,2.8,3.5,4.2c0.4,0.4,0.7,0.8,1.3,1.1c-0.4-5-0.7-10-1.1-15c0.1-0.1,0.1-0.1,0.2-0.2c2.4-0.5,2.2-0.5,2.4,2
		c0.2,3.9,0.6,7.7,0.9,11.6c0.1,2,0.2,4,0.3,6c-0.3,0.1-0.7,0.1-1,0.2c-0.8,0.2-1.4,0.1-2-0.7c-1.4-1.9-3.1-3.6-4.6-5.4
		c-2.1-2.4-4.1-4.9-6.2-7.3c-0.4-0.4-0.8-0.9-1.4-1.5C-539.9,641.5-539.5,646.7-539.1,652z"/>
	<path class="st3" d="M-415.1,612c-3.8-5.5-7.5-10.9-11.4-16.5c2.8-1.7,5.4-3.6,8.2-5c4-2,8.8-0.1,11.1,3.1c1.3,1.8,2.2,3.7,2.3,5.9
		c0.2,3.5-1.5,6.2-4.1,8.2C-410.8,609.3-413,610.6-415.1,612z M-423.1,596c3,4.4,5.9,8.6,8.8,12.8c1-0.7,2-1.3,2.9-1.9
		c4.1-2.7,5.5-6.5,3-10.8c-1.5-2.5-4.2-4.5-7.3-4.1C-418.7,592.4-420.7,594.4-423.1,596z"/>
	<path class="st3" d="M-461.5,626.7c-2.3,0.8-4.4,1.6-6.5,2.4c0-0.2,0-0.3-0.1-0.5c-0.4-1.7-0.4-1.7,1.3-2.3
		c2.3-0.8,4.6-1.7,6.8-2.5c0.8,2.1,1.5,4.1,2.3,6.2c0.1,0.3,0.2,0.7,0,1c-2.9,6.3-11.4,8.5-16.6,3.4c-3.4-3.3-4.4-8.8-2-12.8
		c2.6-4.4,8.3-6.5,13.2-4.1c0.2,0.1,0.5,0.2,0.8,0.4c-0.5,0.6-0.9,1.3-1.4,1.9c-4.4-2.8-10.4,0.2-11.3,5.2c-0.7,4.4,2.1,9.1,6.6,10
		c2.6,0.5,6.2-1,7.6-3.5c0.3-0.5,0.3-1.3,0.2-2C-460.7,628.6-461.1,627.7-461.5,626.7z"/>
	<path class="st3" d="M-373.3,554.3c-0.2,1-0.4,1.6-0.5,2.1c-1.3,0.4-2.7,0.5-3.8,1.1c-4.5,2.1-5.9,7.6-2.4,11.9
		c2.1,2.6,5.8,4,9.1,2.8c2.9-1.1,4.5-3.4,5-6.3c0.1-0.5-0.3-1.2-0.6-1.6c-0.7-0.8-1.5-1.5-2.3-2.3c-0.9,1-1.5,1.8-2.3,2.6
		c-0.8,0.8-1.7,1.5-2.5,2.2c0.1,0.1,0.2,0.2,0.3,0.3c-0.5-0.5-1.1-1-1.6-1.5c2.1-2.2,4.2-4.5,6.4-6.7c1.4,1.2,2.6,2.5,4,3.6
		c1.2,0.9,1.4,2.1,1.2,3.4c-0.7,4.8-4.3,8.6-9.2,9.2c-2.8,0.4-5.4-0.5-7.6-2.3c-2.6-2.2-4.1-5-4-8.5c0.2-4.5,3.9-9,8.2-9.6
		C-375.2,554.5-374.3,554.4-373.3,554.3z"/>
	<path class="st3" d="M-446.2,620.2c2.8,1.7,5.5,3.4,8.1,4.9c-1.8,1.7-3.4,0.9-5.1-0.4c-1.4-1.1-3-2-4.6-2.9
		c-0.4-0.2-1.1-0.3-1.6-0.1c-1,0.3-1.9,0.8-2.9,1.3c1.1,2.4,2.2,4.7,3.3,7.2c-0.7,0.4-1.4,0.7-2.2,1.1c-2.8-6-5.6-12-8.5-18.1
		c1.5-0.7,2.8-1.4,4.1-2c1.6-0.7,3.2-1.4,4.9-1.9c2.8-1,5.7,1.3,6.6,3.8c0.8,2.3,0.6,4.4-1.4,6.1
		C-445.6,619.5-445.8,619.8-446.2,620.2z M-453.1,621.1c0.7-0.3,1.2-0.6,1.7-0.8c0.5-0.2,1.1-0.4,1.6-0.7c1-0.6,2.1-1.1,2.9-1.9
		c1.2-1.1,1.2-2.8,0.2-4.6c-0.7-1.2-2.4-2-3.7-1.5c-2,0.7-4,1.6-6,2.5C-455.3,616.5-454.2,618.8-453.1,621.1z"/>
	<path class="st3" d="M-493.5,637c2.3,2.1,4.6,4.3,6.9,6.4c-1.8,1-2.7,0.9-3.9-0.4c-1.7-1.6-3.4-3.3-5.1-4.8
		c-0.3-0.3-0.8-0.4-1.2-0.3c-1,0.2-2,0.5-3.1,0.8c0.6,2.6,1.2,5.1,1.8,7.7c-0.8,0.2-1.5,0.4-2.4,0.6c-1.5-6.5-3-13-4.6-19.5
		c2.8-0.6,5.7-1.3,8.5-1.9c3-0.7,6.1,1.2,6.7,4.4c0.6,3.4-0.2,4.9-3.3,6.7C-493.3,636.8-493.4,636.9-493.5,637z M-502,628.8
		c-0.1,0.3-0.2,0.3-0.2,0.4c0.5,2.3,0.9,4.5,1.5,6.8c0,0.2,0.6,0.4,0.8,0.4c1.8-0.4,3.6-0.8,5.3-1.4c1.6-0.5,2.6-2.3,2.2-4.2
		c-0.3-1.7-1.8-3.1-3.4-3C-497.9,628-500,628.5-502,628.8z"/>
	<path class="st3" d="M-622.1,631.3c1,2.3,2,4.4,3,6.7c1.2-1.3,2.3-2.5,3.4-3.8c0.4,0.3,1,0.7,1.6,1.3c-1.2,1.2-2.2,2.3-3.4,3.4
		c-0.5,0.5-0.8,0.8-0.4,1.5c0.7,1.2,1.4,2.5,2.1,3.8c-2.2-0.1-3.6-1.3-4.3-3.3c-2.2,1.1-4.4,1.3-6.6,0.6c-2.5-0.8-4.3-3-4.4-5.3
		c0-2.3,1.8-4.7,4.3-5.6c2.1-0.8,2-0.7,1.6-2.9c-0.5-2.6,1.5-5.5,4.2-5.5c1.4,0,2.8,0.1,3.9,1c2.8,2.2,1.4,6.1-1.4,7.1
		C-619.6,630.5-620.8,630.9-622.1,631.3z M-621,639.1c-1.1-2.5-2.2-5-3.3-7.4c-2,0.5-3.6,1.5-4,3.6c-0.3,1.7,0.2,3.2,1.8,4.1
		C-624.7,640.4-622.8,640.1-621,639.1z M-622.9,629.3c0.2,0.1,0.3,0.2,0.5,0.3c1.1-0.4,2.3-0.6,3.3-1.1c1.1-0.5,1.7-1.5,1.6-2.7
		c-0.1-1.1-0.9-1.9-2.2-2.1c-1-0.2-2.6,0.7-2.8,1.8C-622.8,626.7-622.8,628-622.9,629.3z"/>
	<path class="st3" d="M-683.8,615.4c5.6-4.5,11.1-9,16.7-13.5c0.1,0.1,0.4,0.3,0.6,0.4c2.3,1.4,2.3,1.4,1.8,4
		c-0.4,2.3-0.6,4.6-0.9,6.9c-0.3,2.2-0.6,4.4-0.9,6.5c-0.2,1.6-0.4,3.3-0.6,4.9c-0.1,0-0.2,0.1-0.2,0c-2.4-1.3-2.6-1.8-1.8-5
		c0.2-0.7,0-1.1-0.6-1.4c-2.3-1.3-4.7-2.6-7-4c-0.7-0.4-1.3-0.5-1.9,0.1c-0.2,0.2-0.5,0.4-0.7,0.7C-681.3,617-681.4,617-683.8,615.4
		z M-668.5,616.4c0.5-3.9,1-7.6,1.6-11.5c-3.2,2.6-6,4.9-9,7.4C-673.4,613.7-671.1,615-668.5,616.4z"/>
	<path class="st3" d="M-418.6,614.3c-0.8,0.5-1.5,1-2.2,1.3c-0.3,0.1-0.8-0.3-1.1-0.6c-0.8-0.6-1.6-1.3-2.4-1.9
		c-0.2-0.2-0.7-0.2-0.9-0.1c-2.5,1.4-5,2.9-7.5,4.4c-0.3,0.2-0.5,0.6-0.5,0.9c0,0.9,0,1.8,0.3,2.6c0.5,1.3,0.1,1.9-1.1,2.4
		c-0.3,0.1-0.6,0.3-1.1,0.6c-0.3-1.8-0.5-3.4-0.7-5c-0.4-2.7-0.8-5.4-1.2-8.2c-0.3-2.5-0.7-4.9-1-7.4c0-0.3,0.3-0.9,0.6-1.1
		c0.6-0.5,1.3-0.8,2-1.2C-429.9,605.4-424.3,609.7-418.6,614.3z M-426.5,611.2c-3.1-2.5-6-4.8-9.1-7.3c0.6,4,1.1,7.7,1.6,11.5
		C-431.4,614-429,612.6-426.5,611.2z"/>
	<path class="st3" d="M-507.8,637c0.1,0.7,0.2,1.3,0.3,2.1c-3.4,0.5-6.7,1.1-10.3,1.6c0.4,2.3,0.7,4.5,1.1,6.9
		c3.2-0.5,6.5-1.1,9.7-1.6c0.3,0,0.8,0.4,0.9,0.7c0.2,0.3,0,0.8,0,1.4c-4.2,0.6-8.4,1.3-12.8,2c-1-6.6-2-13.1-3.1-19.7
		c4.3-0.7,8.6-1.4,12.8-2c0.1,0.8,0.3,1.4,0.4,2.1c-3.4,0.5-6.8,1.1-10.5,1.7c0.3,2.1,0.6,4.1,0.9,6.4
		C-514.7,638.1-511.3,637.6-507.8,637z"/>
	<path class="st3" d="M-567.8,631.7c0.8,0.1,1.4,0.2,2.2,0.3c-0.1,1.2-0.1,2.4-0.2,3.6c-0.2,2.5-0.5,4.9-0.7,7.4
		c-0.2,2.2-0.6,4.4-2,6c-1.8,2.1-4.2,2.8-6.8,2.4c-1.7-0.2-3.5-0.6-4.9-1.8c-1.5-1.2-2.5-2.7-2.4-4.5c0.1-3.4,0.4-6.9,0.7-10.3
		c0.1-1.4,0.2-2.8,0.3-4.5c0.9,0.1,1.6,0.2,2.5,0.3c-0.2,2.1-0.5,4.1-0.7,6.1c-0.2,2.4-0.4,4.8-0.5,7.2c-0.1,2.8,2.3,5.1,5.1,5.1
		c4.2,0,5.9-1.6,6.2-5.8c0.3-3.5,0.6-7,1-10.5C-568.1,632.5-567.9,632.1-567.8,631.7z"/>
	<path class="st3" d="M-594.2,630.7c-2-0.4-4-0.7-6.2-1.1c0.1-0.7,0.3-1.3,0.4-2.1c5,0.9,9.9,1.7,14.8,2.6c-0.1,0.7-0.2,1.4-0.4,2.1
		c-2.1-0.4-4-0.7-6.2-1.1c-1,5.8-2.1,11.7-3.1,17.6c-0.4-0.1-0.5-0.2-0.7-0.2c-1.7-0.5-1.7-0.5-1.4-2.2c0.7-3.9,1.4-7.9,2.1-11.8
		C-594.6,633.2-594.4,632-594.2,630.7z"/>
	<path class="st3" d="M-689.7,587.3c-3.4,4.9-6.9,9.7-10.3,14.5c2.5,1.8,5,3.6,7.6,5.4c-0.5,0.6-0.9,1.2-1.3,1.7
		c-3.2-2.3-6.3-4.5-9.5-6.8c1.3-1.9,2.6-3.8,3.9-5.6c2.3-3.3,4.7-6.5,7-9.7c0.6-0.8,0.9-0.9,1.6-0.3
		C-690.5,586.9-690.1,587.1-689.7,587.3z"/>
	<path class="st3" d="M-716.3,591.8c4.2-5.2,8.4-10.3,12.6-15.4c0.6,0.5,1.2,0.9,1.9,1.5c-3.8,4.6-7.5,9.2-11.2,13.8
		c2.3,1.9,4.7,3.8,7.1,5.8c-0.4,0.5-0.8,1.1-1.3,1.8C-710.3,596.7-713.3,594.3-716.3,591.8z"/>
	<path class="st3" d="M-709.6,571.1c0.7,0.6,1.3,1.1,1.9,1.6c-4.4,4.9-8.9,9.9-13.3,14.8c-0.7-0.5-1.3-1-1.9-1.5
		C-718.5,581-714.1,576.1-709.6,571.1z"/>
	<path class="st3" d="M-409,583.2c0.6-0.5,1.3-1,1.9-1.5c4.1,5.3,8.2,10.5,12.3,15.7c-0.6,0.5-1.3,1-1.9,1.5
		C-400.8,593.7-404.9,588.5-409,583.2z"/>
	<path class="st3" d="M-678.6,594.9c0.7,0.4,1.3,0.8,2.1,1.3c-3.6,5.6-7.1,11.2-10.7,16.8c-0.7-0.4-1.3-0.8-2.1-1.3
		C-685.7,606.2-682.2,600.6-678.6,594.9z"/>
	<path class="st3" d="M-600.1,456.5c0-0.5,0-1,0-1.4c0-6.6,0-13.1,0-19.7c0-1,0.4-1.5,1.1-2c6.9-5.2,13.8-10.3,20.7-15.5
		c5.7-4.3,11.3-8.7,16.9-13.1c3.3-2.6,6.5-5.3,9.6-8.1c3.6-3.3,7.3-6.5,10.7-10c3.7-3.7,6.9-7.8,9.2-12.6c1.7-3.6,2.6-7.4,2.4-11.3
		c-0.2-3.3-1.3-6.4-3.5-9c-3.1-3.7-7.2-5.7-11.8-6.7c-3.1-0.7-6.3-0.8-9.5-0.6c-4.9,0.3-9.6,1.2-14.1,3c-4.5,1.7-8.7,4-12.5,7.1
		c-1.8,1.5-3.5,3-5.1,4.6c-0.7,0.6-1.1,0.5-1.6-0.1c-3.5-4.1-7-8.1-10.5-12.2c-1.5-1.7-3-3.5-4.5-5.2c-0.7-0.7-0.3-1.3,0.2-1.8
		c1.3-1.3,2.5-2.7,3.9-3.9c2.7-2.2,5.5-4.3,8.4-6.3c3.9-2.7,8.2-4.6,12.7-6.2c4.4-1.7,9-2.8,13.6-3.6c2.6-0.4,5.2-0.6,7.8-0.8
		c1.9-0.1,3.7-0.3,5.6-0.2c6.8,0.3,13.5,1.1,20,3.3c5.9,2,11.4,4.9,16.2,8.9c6.6,5.6,11,12.6,12.7,21.1c0.8,3.6,1.1,7.3,1,11
		c-0.1,5.5-1.5,10.8-3.7,15.9c-2.5,5.7-5.8,10.9-9.9,15.6c-3.8,4.3-7.7,8.7-11.9,12.6c-5.5,5-11.3,9.6-17.1,14.3
		c-3.2,2.6-6.6,5.1-9.9,7.6c0,0,0,0.1,0,0.2c17.8,0,35.6,0,53.5,0c0,8.4,0,16.7,0,25.1C-533.1,456.5-566.5,456.5-600.1,456.5z"/>
</g>
</svg>
