<?xml version="1.0" encoding="utf-8"?>
<!-- Generator: Adobe Illustrator 24.1.3, SVG Export Plug-In . SVG Version: 6.00 Build 0)  -->
<svg version="1.1" id="Layer_1" xmlns="http://www.w3.org/2000/svg" xmlns:xlink="http://www.w3.org/1999/xlink" x="0px" y="0px"
	 viewBox="0 0 400 400" style="enable-background:new 0 0 400 400;" xml:space="preserve">
<style type="text/css">
	.st0{display:none;}
	.st1{display:inline;fill:#222222;}
	.st2{fill:#E5E5E5;}
	.st3{fill:#222222;}
</style>
<g class="st0">
	<path class="st1" d="M354,205.7c-0.1,1.6-0.2,3.1-0.3,4.7c-0.8,13.6-3.2,26.9-7.6,39.7c-14.4,42-41.6,72.7-81.7,91.9
		c-12.9,6.2-26.6,10.1-40.7,12.2c-10,1.5-20,2-30,1.4c-31.8-1.8-60.3-12.4-85.3-32c-27.7-21.8-45.8-49.9-54.7-84
		c-2.5-9.6-3.9-19.3-4.5-29.2c-0.6-9.2-0.3-18.4,0.8-27.6c3.4-28.5,13.7-54.3,31.3-77.1c20-25.8,45.6-43.6,76.9-53.2
		c10.3-3.1,20.9-5.1,31.6-5.9c46.3-3.5,91.2,14.1,122.7,48.2c18.8,20.4,31.3,44.1,37.6,71.1c2.2,9.6,3.5,19.3,3.8,29.1
		c0,0.4,0.1,0.8,0.1,1.2C354,199.4,354,202.6,354,205.7z M350.6,199.7c-0.2-3.4-0.4-8.2-0.8-12.9c-0.7-9.1-2.4-18-4.8-26.8
		c-12.1-43.7-42.8-78.9-81.9-96.9c-17.5-8-35.9-12.5-55.1-13.3c-13.4-0.6-26.7,0.5-39.8,3.6c-31.2,7.4-57.4,23.2-78.4,47.4
		c-23.9,27.5-36.1,59.7-37.3,96.1c-0.5,14.9,1.2,29.7,5.2,44.1c8.4,30.8,24.8,56.6,49.3,77c25.6,21.3,55.1,32.7,88.4,34.2
		c13.9,0.6,27.5-0.7,41-4c31.1-7.7,57.1-23.8,77.9-48.2C338.3,271.5,350.1,238.3,350.6,199.7z"/>
	<path class="st1" d="M46,100.5c0.7-1,1.5-2,2.2-2.9c1.8-2.5,3.5-5.2,5.6-7.5c2.1-2.5,5.7-2.8,8.2-0.5c1.6,1.5,2,3.2,1.6,5.2
		c0.9-0.3,1.8-0.5,2.7-0.8c1.5-0.5,2.9,0.2,4,1c1.3,0.9,2.2,2.1,2.5,3.8c0.3,1.7-0.2,3.2-1.1,4.5c-2.3,3.4-4.7,6.7-7.1,10
		c-0.3,0.4-0.5,0.3-0.8,0.1c-3-2.2-6-4.4-9.1-6.5c-2.8-2-5.6-4.1-8.5-6.1c-0.1-0.1-0.2,0-0.3-0.1C46,100.7,46,100.6,46,100.5z
		 M63.8,107.5c0.5-0.6,0.9-1.2,1.3-1.7c0.9-1.4,1.9-2.7,2.8-4.1c0.6-1.1,0.3-2.5-0.7-3.1c-1.1-0.7-2.3-1.1-3.4,0.2
		c-1.5,1.8-2.8,3.7-4.3,5.6C61,105.4,62.4,106.5,63.8,107.5z M56.2,101.9c0.1-0.1,0.3-0.2,0.4-0.4c1-1.4,2.1-2.8,3.1-4.3
		c0.4-0.6,0.7-1.3,0.7-2c-0.1-1-0.7-1.8-1.7-2.2c-0.9-0.3-2,0-2.7,0.9c-1.2,1.5-2.3,3.1-3.4,4.7c-0.2,0.3-0.2,0.6,0.1,0.8
		C53.8,100.3,55,101.1,56.2,101.9z"/>
	<path class="st1" d="M195.3,15.9c1,0.2,2,0.4,2.9,0.7c4.2,1.4,6.7,4.4,7.5,8.8c0.6,3.1,0.1,6.1-1.6,8.8c-1.8,2.8-4.4,4.3-7.6,4.8
		c-3.4,0.6-6.6,0.1-9.4-2c-2.5-1.8-3.9-4.3-4.4-7.3c-0.4-2.4-0.2-4.8,0.8-7.1c1.2-2.7,3.1-4.6,5.8-5.7c1.2-0.5,2.5-0.6,3.8-0.9
		c0.1,0,0.2-0.1,0.2-0.2C193.9,15.9,194.6,15.9,195.3,15.9z M201.1,27.5c0-0.3-0.1-0.8-0.2-1.3c-0.5-4.2-4.5-6.9-8.9-5.6
		c-2.7,0.8-4.1,2.9-4.5,5.7c-0.4,3.1,0.3,5.6,2.8,7.6c1.9,1.5,5.4,1.6,7.4,0.3C200,32.7,201,30.4,201.1,27.5z"/>
	<path class="st1" d="M199.8,384.1c-1.1-0.5-2.1-0.9-3.2-1.4c-0.1,0-0.2-0.1-0.3-0.2c-0.8-0.7-0.8-0.7-0.1-1.5
		c0.1-0.1,0.2-0.3,0.3-0.4c0.7,0.5,1.4,1.1,2.2,1.4c1.4,0.6,2.9,0.9,4.4,0.1c0.8-0.4,1.3-1,1.3-2c0-0.9-0.6-1.5-1.3-1.8
		c-1.4-0.6-2.8-1-4.2-1.5c-1.3-0.5-2.4-1.2-2.6-2.7c-0.3-2,0.6-3.4,2.5-4.1c2.4-0.9,5.7-0.3,7.3,1.7c-0.4,0.4-0.7,0.7-1.1,1.2
		c-0.9-1.1-2.1-1.5-3.5-1.7c-1-0.2-1.9,0-2.7,0.6c-1,0.8-1.3,2.2,0.2,3.1c0.8,0.5,1.8,0.7,2.7,1c0.7,0.2,1.4,0.4,2,0.7
		c2,0.8,2.7,2.5,2.5,3.8c-0.3,1.9-1,2.9-3.3,3.6c-0.1,0-0.3,0.1-0.4,0.2C201.6,384.1,200.7,384.1,199.8,384.1z"/>
	<path class="st1" d="M339.4,100.3c3.8-3,7.4-5.8,11.1-8.7c1,1.3,2,2.5,2.9,3.8c-5.9,4.6-11.7,9.2-17.7,13.8
		c-0.4-0.4-0.8-0.9-1.1-1.3c-0.3-0.4-0.7-0.9-1-1.3c-0.5-0.6-0.8-1.1-0.5-2c1.6-5.4,3.1-10.8,4.6-16.2c0,0,0-0.1-0.1-0.2
		c-3.8,3-7.6,6-11.4,8.9c-1-1.3-2-2.5-2.9-3.7c5.9-4.6,11.8-9.2,17.7-13.9c0.9,1.2,1.8,2.3,2.7,3.5c0.2,0.2,0.3,0.6,0.2,0.8
		c-1.4,5.3-2.9,10.5-4.4,15.7C339.5,99.7,339.5,99.9,339.4,100.3z"/>
	<path class="st1" d="M178.7,40.1c-1.4,0.3-2.7,0.4-4,0.9c-1.6,0.6-2.1-0.6-2.8-1.4c-1.2-1.4-2.5-2.7-3.5-4.2
		c-0.8-1.3-1.8-1.1-2.9-0.8c-0.5,0.1-1,0.2-1.6,0.4c0.5,2.6,1.1,5.2,1.6,7.8c-1.4,0.3-2.8,0.6-4.2,0.9c-0.2,0-0.5-0.3-0.6-0.5
		c-0.9-4.6-1.8-9.1-2.7-13.7c-0.5-2.4-1-4.8-1.5-7.2c0-0.2,0-0.3,0-0.6c2.7-0.5,5.3-1.1,8-1.6c1.2-0.2,2.3-0.6,3.5-0.6
		c2.3-0.1,4.4,0.5,6,2.4c1.7,2,2.5,5.8,1,8.2c-0.6,0.9-1.4,1.7-2.3,2.4c-0.5,0.4-0.5,0.6-0.1,1c1.3,1.4,2.6,2.8,3.9,4.3
		C177.1,38.4,177.8,39.2,178.7,40.1z M161.9,24.8c0.4,2,0.8,4,1.2,6c0.5-0.1,1.1-0.2,1.6-0.3c1.5-0.4,3.1-0.7,4.5-1.2
		c1.5-0.5,2-2.1,1.4-3.7c-0.4-1.2-2.2-2.1-3.5-1.8C165.4,24.1,163.7,24.4,161.9,24.8z"/>
	<path class="st1" d="M319,85c-6.4,0.1-12.3-5.8-12.1-12.1c0.2-6.2,5.4-11.7,11.8-11.6c6.4,0.1,11.9,5.5,12,11.9
		C330.7,79.5,325.2,84.9,319,85z M311.6,73.8c-0.3,3.5,3.3,6.8,6.8,6.7c3.3-0.1,6.6-3,7.4-6.5c1-4.2-2.8-8.8-7.8-8
		C314.8,66.5,311.4,70.1,311.6,73.8z"/>
	<path class="st1" d="M240.4,29.6c3.5,0.9,7,1.7,10.6,2.6c-0.3,1.2-0.6,2.4-0.9,3.6c-0.1,0.5-0.5,0.4-0.8,0.3
		c-3.3-0.8-6.6-1.6-9.9-2.4c-0.4,1.7-0.8,3.3-1.2,5c3.4,0.8,6.7,1.6,10.1,2.4c0.5,0.1,0.7,0.2,0.5,0.8c-0.3,1.1-0.5,2.2-0.8,3.4
		c-1.4-0.3-2.7-0.6-4.1-1c-3.6-0.9-7.2-1.8-10.8-2.6c-0.4-0.1-0.5-0.2-0.4-0.7c0.9-3.6,1.8-7.3,2.7-10.9c0.8-3.5,1.7-7,2.5-10.4
		c5,1.2,9.9,2.4,14.9,3.6c0.5,0.1,0.6,0.3,0.5,0.8c-0.3,1-0.5,1.9-0.7,2.9c-0.1,0.5-0.2,0.6-0.7,0.4c-3.2-0.8-6.4-1.5-9.6-2.3
		c-0.6-0.2-0.8,0-0.9,0.6C241.1,27,240.7,28.3,240.4,29.6z"/>
	<path class="st1" d="M79,88.2c2.7-2.8,5.3-5.5,8-8.4c0.9,1.1,1.7,2.1,2.7,3.2c-3.4,3.6-7,7.4-10.7,11.3c-0.1-0.1-0.2-0.1-0.3-0.2
		c-1.7-1.6-3.4-3.3-5.1-4.9c-2.6-2.5-5.1-4.9-7.7-7.4c-1.1-1-2.1-2-3.3-3c3.7-3.9,7.3-7.7,11-11.5c1,0.9,2.1,1.9,3.1,2.8
		c-2.6,2.7-5.1,5.4-7.4,7.7c1,1.3,2,2.5,3,3.7c2.7-2.8,5.1-5.4,7.6-7.9c1,0.9,2,1.9,3.1,2.8c-2.5,2.7-5,5.3-7.5,7.9
		C76.7,85.7,77.8,86.9,79,88.2z"/>
	<path class="st1" d="M90.8,73.3c2.1,0.2,4.1-0.2,5.9-1.3c1-0.6,1.9-1.5,2.7-2.4c0.6-0.6,0.8-1.5,0.5-2.4c-0.4-0.9-1.2-1.4-2.2-1.1
		c-1.2,0.4-2.3,0.9-3.5,1.3c-1.7,0.6-3.4,1.4-5.2,1.9c-3.4,0.8-6.2-1.7-6.9-4.6c-0.6-2.7,0.4-4.9,2.2-6.9c1.8-1.9,3.9-3.2,6.4-3.9
		c1.2-0.3,2.4-0.4,3.8-0.6c0,1.6,0,3.1,0,4.5c-2.9,0.1-5.5,0.9-7.5,3.3c-1.1,1.3-0.6,3.1,0.8,3.3c0.6,0.1,1.3-0.2,1.9-0.4
		c1.8-0.7,3.5-1.5,5.3-2.2c2-0.8,4-1.1,6-0.1c2.4,1.3,4.2,4.7,3.3,7.7c-0.8,2.3-2.3,4-4.2,5.5c-1.6,1.3-3.5,2.3-5.5,2.7
		c-1.1,0.2-2.2,0.2-3.3,0.3c-0.2,0-0.5-0.2-0.5-0.4C90.8,76,90.8,74.6,90.8,73.3z"/>
	<path class="st1" d="M131.8,29.6c2.9-1,5.7-2,8.5-3c1.6-0.6,3.1-1.2,4.8-1c2,0.2,3.7,1,5,2.6c1.1,1.5,1.7,3.1,1.6,4.9
		c-0.1,2.7-1.3,4.7-3.7,5.9c-2.2,1.1-4.5,1.8-6.9,2.7c0.9,2.4,1.7,4.9,2.6,7.5c-1.5,0.5-3,1.1-4.5,1.6
		C136.8,43.8,134.3,36.7,131.8,29.6z M139.8,37.8c1.9-0.7,3.8-1.4,5.6-2.2c1.3-0.6,1.9-2.3,1.3-3.7c-0.5-1.2-1.6-2.2-3.2-1.8
		c-1.8,0.5-3.6,1.1-5.4,1.7c-0.1,0-0.3,0.3-0.2,0.4C138.4,34.1,139.1,35.9,139.8,37.8z"/>
	<path class="st1" d="M278.7,38.4c-1.5,0.1-3,0.2-4.4,0.4c-0.6-2.7-2-4.6-4.7-5.3c-2.2-0.6-4.1-0.2-5.9,1.2c-2.6,2-3.8,5.6-2.7,8.7
		c1.2,3.5,5.2,5.6,8.8,4c0.5-0.2,0.9-0.6,1.4-0.9c1,1.1,2,2.2,3,3.3c-3.8,3.1-8.6,3.5-13.5,0.1c-4.4-3.1-6-8-4.2-13.3
		c0.9-2.5,2.4-4.6,4.7-6c1.9-1.2,4-1.9,6.2-1.7C274.5,29.4,277.9,33.2,278.7,38.4z"/>
	<path class="st1" d="M218.6,21.2c-2.2-0.2-4.3-0.5-6.5-0.7c0.1-1.3,0.3-2.7,0.4-4.2c5.9,0.6,11.8,1.3,17.8,1.9
		c-0.1,0.8-0.1,1.6-0.2,2.4c0,0.3-0.1,0.7-0.1,1c0.1,0.8-0.3,0.9-0.9,0.8c-1.7-0.2-3.5-0.5-5.2-0.6c-0.2,0-0.6,0.4-0.6,0.6
		c-0.2,1.2-0.2,2.4-0.4,3.6c-0.2,1.9-0.4,3.8-0.6,5.7c-0.1,1.3-0.2,2.5-0.4,3.8c-0.2,1.5-0.3,3-0.5,4.4c-1.6-0.2-3.1-0.3-4.8-0.5
		C217.3,33.3,218,27.3,218.6,21.2z"/>
	<path class="st1" d="M114,38c0.7,1.2,1.4,2.4,2.1,3.6c-1.7,1-3.3,2-4.9,3c-0.5,0.3-0.6,0.4-0.3,1c3,5,6,10,9.1,15.1
		c-1.3,0.8-2.7,1.6-4.1,2.5c-1.2-2-2.3-3.9-3.5-5.8c-1.9-3.1-3.7-6.2-5.6-9.3c-0.2-0.4-0.5-0.5-0.9-0.3c-1.7,1-3.4,2.1-5,3.1
		c-0.7-1.2-1.5-2.4-2.2-3.6C103.7,44.2,108.8,41.1,114,38z"/>
	<path class="st1" d="M284.9,61.7c-1.4-0.8-2.8-1.6-4.1-2.4c3.1-5.3,6.1-10.5,9.2-15.8c-1.9-1.1-3.8-2.2-5.7-3.3
		c0.7-1.2,1.4-2.4,2.1-3.6c5.2,3,10.3,6,15.5,9c-0.7,1.2-1.4,2.4-2.1,3.6c-1.9-1.1-3.7-2.1-5.7-3.3C291,51.2,288,56.5,284.9,61.7z"
		/>
	<path class="st1" d="M307.5,49.7c1.3,0.9,2.6,1.9,3.9,2.8c-2.9,4.1-5.8,8.1-8.7,12.2c-1.3,1.8-2.6,3.7-4,5.5
		c-0.3,0.4-0.6,0.5-1.1,0.1c-0.9-0.7-1.8-1.4-2.7-2c-0.4-0.3-0.4-0.5-0.1-0.9c1.3-1.8,2.6-3.6,3.9-5.4c2-2.7,3.9-5.5,5.9-8.2
		C305.5,52.4,306.5,51.1,307.5,49.7z"/>
	<path class="st1" d="M214.4,369.4c2.3-0.2,4.5-0.5,6.8-0.6c1.8-0.1,3.1,0.8,3.5,2.5c0.4,1.3,0.1,3.2-1.7,3.9c0,0,0,0.1-0.1,0.2
		c1.4,0.3,2.4,1.2,2.8,2.6c0.5,2.4-0.4,4-2.7,4.5c-2.2,0.5-4.5,0.6-6.7,0.9c-0.2,0-0.5-0.4-0.6-0.6c-0.3-2.3-0.5-4.6-0.7-7
		c-0.2-1.8-0.4-3.6-0.7-5.4C214.4,370.1,214.4,369.8,214.4,369.4z M217.4,381.6c1.5-0.1,2.8-0.3,4.2-0.4c1.4-0.2,2.5-0.9,2.4-2.7
		c-0.1-1.3-1.2-2.3-2.5-2.2c-1.5,0.1-3.1,0.3-4.7,0.5C217,378.5,217.2,380,217.4,381.6z M216.2,370.8c0.2,1.6,0.4,3,0.5,4.5
		c1.5-0.2,2.9-0.3,4.3-0.5c1.2-0.1,2.2-1.2,2.1-2.3c-0.1-1.4-1.3-2.4-2.6-2.3C219.1,370.4,217.7,370.6,216.2,370.8z"/>
	<path class="st1" d="M180.4,374.1c0,2.9-1,5.1-3.2,6.6c-4,2.8-10.3,0.2-10.7-5c-0.2-2.6,0.4-4.8,2.2-6.6c1.9-1.9,4.2-2.1,6.6-1.5
		C178.4,368.3,180.6,371,180.4,374.1z M173.5,368.8c-1.3-0.1-2.5,0.4-3.3,1.2c-1.7,1.8-2.4,4-1.7,6.4c0.9,3.5,5,4.9,7.7,2.9
		c2.1-1.5,2.6-3.7,2.4-6.1C178.3,370.5,176,368.8,173.5,368.8z"/>
	<path class="st1" d="M250.7,377.1c-3,0.8-6,1.5-8.9,2.3c-1.1-4.3-2.2-8.7-3.3-13c-0.1-0.5,0-0.6,0.4-0.7c2.8-0.7,5.5-1.4,8.3-2.1
		c0.1,0.5,0.2,1,0.3,1.5c-2.4,0.6-4.8,1.2-7.2,1.9c0.4,1.3,0.7,2.6,1,3.9c0.1,0.4,0.3,0.5,0.7,0.4c2.2-0.6,4.3-1.1,6.5-1.7
		c0.1,0.5,0.3,1,0.4,1.5c-2.4,0.6-4.7,1.2-7.1,1.8c0.4,1.6,0.8,3.1,1.2,4.7c2.4-0.6,4.7-1.2,7.2-1.8
		C250.4,376.1,250.5,376.5,250.7,377.1z"/>
	<path class="st1" d="M182.3,381c0.3-0.4,0.7-0.8,1-1.3c1.4,1.9,4.1,2.8,6.1,2.2c0.8-0.3,1.5-0.8,1.7-1.7c0.2-1-0.1-1.8-1.1-2.2
		c-1.2-0.5-2.4-1-3.6-1.6c-0.7-0.4-1.5-0.8-2.1-1.3c-1.7-1.4-1.1-4.2,0.8-5.3c2.3-1.4,6.4-0.6,8.1,1.6c-0.4,0.4-0.7,0.7-1.1,1.1
		c-1.3-1.6-3.1-2.1-5.1-1.8c-1,0.1-1.8,0.9-1.9,1.8c-0.1,0.8,0.6,1.6,1.6,2.1c1.5,0.6,3,1.2,4.5,2c1.4,0.7,1.8,2,1.7,3.5
		c-0.2,1.3-0.9,2.4-2.1,3C188.2,384.3,184,383.4,182.3,381z"/>
	<path class="st1" d="M156.5,363.6c2.1,0.6,4,1,5.8,1.6c1.9,0.6,3.2,2.3,3,4c-0.4,2.7-1.5,4-4,4.2c-1.1,0.1-2.3-0.4-3.5-0.7
		c-1.8-0.4-1.8-0.5-2.3,1.2c-0.4,1.2-0.6,2.5-1,3.7c-0.5-0.1-1.1-0.2-1.7-0.4C154.1,372.7,155.3,368.2,156.5,363.6z M156.4,370.7
		c1.3,0.3,2.5,0.5,3.6,0.9c1.4,0.4,2.8-0.3,3.3-1.7c0.5-1.5-0.2-3-1.8-3.4c-1.2-0.4-2.4-0.6-3.8-1
		C157.3,367.2,156.9,368.9,156.4,370.7z"/>
	<path class="st1" d="M231.6,379.7c1.5-0.3,2.9-0.5,4.4-0.8c0.3-0.1,0.7-0.1,1-0.2c1.1-0.3,1.4,0,1.3,1c0,0.1-0.2,0.3-0.4,0.4
		c-2.5,0.5-5,0.9-7.5,1.4c-0.1,0-0.2,0-0.3,0c-0.8-4.5-1.7-9.1-2.5-13.7c0.6-0.1,1.1-0.2,1.7-0.3
		C230.1,371.5,230.8,375.6,231.6,379.7z"/>
	<path class="st1" d="M209.1,369.6c0.6,0,1.1,0,1.7,0c0.1,1,0.2,2,0.2,3c0.1,1.8,0.1,3.5,0.2,5.3c0.1,1.7,0.2,3.3,0.3,5
		c0,0.2,0,0.4,0,0.6c-0.6,0-1,0-1.7,0C209.5,378.9,209.3,374.3,209.1,369.6z"/>
	<path class="st1" d="M133.1,123.9c5.5,4.4,11.4,7.5,17.8,9.8c7.3,2.6,14.8,3.6,22.6,2.7c10.2-1.3,19.1-5.4,27.2-11.7
		c0.2-0.1,0.4-0.3,0.5-0.4c0.3-0.4,0.5-0.3,0.9,0c4.6,3.9,9.8,6.8,15.3,9c3.5,1.4,7.1,2.4,10.8,3s7.5,0.7,11.2,0.3
		c10.3-1,19.5-4.7,28-10.6c0.9-0.6,1.7-1.3,2.7-2c0,0.4,0.1,0.6,0.1,0.9c0,31.9,0,63.8-0.1,95.7c0,4.7-0.6,9.3-1.5,13.9
		c-2.2,11.3-7.6,20.9-15,29.6c-9.9,11.6-21.9,20.5-35.8,26.9c-5,2.3-10.2,4.3-15.6,5.7c-0.4,0.1-1,0.1-1.4,0c-5-1.3-9.8-3-14.4-5.1
		c-14.3-6.4-26.7-15.5-36.9-27.5c-5.4-6.3-9.8-13.2-12.6-21.1c-1.4-3.9-2.3-7.9-2.9-11.9c-1-6.8-1-13.7-1-20.6c0-28.5,0-57,0-85.4
		C133,124.7,133.1,124.4,133.1,123.9z"/>
</g>
<circle class="st2" cx="200" cy="201.2" r="158.5"/>
<g>
	<path class="st3" d="M196.4,7.2c0.3,0.1,0.5,0.2,0.8,0.2c1.7,0,3.4,0,5,0c1.8,5,3.5,9.8,5.2,14.6c1.4-3,2.7-5.9,4-8.8
		c0.7-1.6,1.4-3.1,2.1-4.7c0.1-0.2,0.4-0.4,0.7-0.4c2.1,0,4.3,0,6.6,0c0,0.9,0,1.6,0,2.3c0,0.9-0.1,1.7-0.2,2.6
		c-0.1,3.4-0.2,6.9-0.4,10.3c-0.1,2.8-0.3,5.6-0.4,8.4c-1.6,0-3.2,0-5,0c0.2-5.5,0.4-10.8,0.7-16.2c0,0-0.1,0-0.1,0
		c-0.5,1-1,2-1.4,3c-1.2,2.6-2.3,5.2-3.5,7.8c-0.7,1.6-1.4,3.1-2.1,4.7c-0.1,0.1-0.1,0.3-0.2,0.4c-0.3,0.3-2.2-0.2-2.4-0.6
		c-0.4-1-0.7-2-1.1-3c-1.5-4.3-3.1-8.6-4.7-13.1c-0.1,0.2-0.1,0.2-0.1,0.3c-0.1,2.3-0.1,4.6-0.2,6.9c-0.1,3-0.3,6.1-0.4,9.1
		c-1.6,0-3.2,0-5,0c0.1-0.9,0.2-1.6,0.2-2.3c0.1-2.5,0.1-5,0.2-7.5c0.1-2.8,0.2-5.6,0.4-8.4c0.1-1.8,0.2-3.7,0.3-5.5
		C195.7,7.2,196,7.2,196.4,7.2z"/>
	<path class="st3" d="M201.9,392.8c-1.1-1.8-2.2-3.6-3.3-5.4c-0.2-0.3-0.6-0.6-1-0.6c-0.7-0.1-1.4,0-2.2,0c-0.1,1.9-0.2,3.8-0.3,5.8
		c-0.5,0-1,0-1.5,0c0-4.8,0-9.6,0-14.6c2.7,0.1,5.3-0.3,7.9,0.4c1.3,0.4,2.5,2.1,2.6,3.5c0.1,2.8-0.7,3.9-3.4,4.8
		c-0.1,0-0.2,0.1-0.3,0.3c1.3,2,2.5,3.9,3.8,5.9C203.3,392.8,202.6,392.8,201.9,392.8z M195.3,385.2c1.6,0,3,0,4.5,0
		c1.2,0,2.4-1.5,2.4-2.9c0-1.3-1.3-2.6-2.4-2.6c-0.5,0-0.9-0.1-1.4-0.1c-1,0-2,0-3,0C195.3,381.5,195.3,383.3,195.3,385.2z"/>
	<path class="st3" d="M40.2,197.8c0.1-32.1,10.6-65.5,32.8-94.8c23.2-30.7,53.6-50.7,91.2-59.8c14.5-3.5,29.3-4.8,44.1-3.9
		c47.3,3,85.8,23.1,115.7,59.7c16.7,20.4,27.3,43.8,32.6,69.7c2.8,13.6,3.8,27.3,3,41.1c-2.2,38.7-16.1,72.7-42.1,101.4
		c-22.1,24.4-49.4,40.5-81.5,48.1c-14.5,3.5-29.3,4.8-44.1,3.9c-42.7-2.6-78.8-19.6-108.1-50.8c-20.5-21.8-33.6-47.6-39.9-76.8
		C41.4,224.7,40.3,213.6,40.2,197.8z M43.9,195.9c0,17.6,1.3,29.6,4.1,41.5c8.2,34.6,25.7,63.6,53,86.4
		c26.8,22.4,57.8,34.3,92.7,35.8c13.1,0.6,26-0.5,38.7-3.3c34.3-7.6,62.9-24.8,85.6-51.5c23.8-27.9,36.2-60.4,37.9-97
		c0.7-16.4-1-32.6-5.4-48.5c-8.8-32.2-25.9-59.2-51.5-80.5c-26.8-22.4-57.8-34.4-92.8-35.9c-13.9-0.6-27.6,0.6-41.1,3.8
		c-33.3,7.9-61.1,24.9-83.3,51C56.6,127.5,44.3,162.2,43.9,195.9z"/>
	<path class="st3" d="M255.5,31.1c1.4-4.8,2.8-9.5,4.1-14.1c1.4,0.4,2.7,0.8,4.1,1.2c0.5,0.1,0.7,0.2,0.5,0.8c-1.1,3.5-2,7-3.1,10.6
		c-1.1,3.8-2.2,7.5-3.3,11.4c-1.5-0.4-2.9-0.8-4.4-1.3c-0.2-0.1-0.4-0.4-0.4-0.6c-2-5.4-3.9-10.7-5.9-16.1c-0.1-0.4-0.3-0.7-0.5-1.2
		c-1.5,5-2.9,9.8-4.3,14.7c-1.6-0.5-3.2-0.9-4.8-1.4c0.8-2.8,1.6-5.6,2.4-8.4c1.3-4.4,2.6-8.8,3.8-13.2c0.2-0.7,0.5-1.1,1.3-0.8
		c1.1,0.4,2.3,0.7,3.5,1.1c0.3,0.1,0.6,0.4,0.7,0.7c2,5.3,3.9,10.6,5.9,15.9C255.2,30.6,255.3,30.7,255.5,31.1z"/>
	<path class="st3" d="M91,41.3c1.3-1,2.6-1.9,4-2.9c4.6,6.3,9.2,12.7,13.8,19.1c-1.2,0.8-2.3,1.6-3.3,2.4c-0.4,0.3-0.8,0.4-1.3,0.2
		c-4-1.3-8.1-2.6-12.1-3.9c-1.5-0.5-3-1-4.5-1.5c-0.2,0-0.3,0-0.7-0.1c3.1,4.2,6,8.2,8.9,12.3c-1.3,1-2.6,1.9-4,2.9
		c-4.6-6.4-9.2-12.7-13.8-19.1c1.4-1,2.8-2,4.1-3c5.7,1.8,11.5,3.6,17.3,5.5c0-0.1,0.1-0.1,0.1-0.2C96.7,49.2,93.8,45.3,91,41.3z"/>
	<path class="st3" d="M154.8,12.8c3.8-0.7,7.5-1.6,11.3-2.2c4.3-0.6,7.7,1.5,8.7,5.9c0.5,2.5,0.1,4.8-1.8,6.7
		c-0.5,0.5-1.2,0.9-1.8,1.4c2.2,2.6,4.5,5.1,6.8,7.7c-1.7,0.4-3.4,0.7-5,1c-1,0.2-1.3-0.7-1.7-1.2c-1.6-1.8-3-3.7-4.6-5.6
		c-0.2-0.3-0.8-0.4-1.1-0.4c-0.8,0.1-1.6,0.3-2.4,0.5c-0.2,0.1-0.5,0.4-0.5,0.5c0.5,2.6,0.9,5.1,1.5,7.8c-1.6,0.3-3.2,0.6-4.9,1
		C157.8,28.2,156.3,20.6,154.8,12.8z M161.8,22.4c0.7-0.1,1.3-0.2,1.9-0.4c0.7-0.1,1.3-0.2,2-0.4c1.2-0.3,2.5-0.4,3.4-1.4
		c0.9-1,0.9-2.1,0.5-3.3c-0.4-1.1-1.5-1.9-2.6-1.8c-1.9,0.2-3.8,0.6-5.7,0.8c-0.7,0.1-0.8,0.4-0.7,0.9
		C161,18.8,161.4,20.6,161.8,22.4z"/>
	<path class="st3" d="M155.3,36.8c-1.8,0.6-3.5,1.2-5.4,1.9c-0.8-0.9-1.5-1.9-2.4-2.8c-0.2-0.2-0.7-0.4-0.9-0.3c-3,1-6,2.1-9,3.2
		c0,1.4,0,2.8,0,4.2c-1.8,0.6-3.6,1.2-5.5,1.9c0.1-0.9,0.1-1.8,0.2-2.6c0-0.2,0-0.3,0.1-0.5c0.1-3.2,0.1-6.4,0.2-9.6
		c0.1-3.7,0.2-7.5,0.3-11.2c0-0.9,0.3-1.5,1.3-1.8c1.4-0.3,2.8-0.9,4.2-1.4c0.3-0.1,0.7,0,0.9,0.2c1.8,2.1,3.5,4.2,5.3,6.3
		c1.2,1.4,2.4,2.7,3.5,4.1c1.5,1.8,3.1,3.7,4.6,5.5C153.6,34.9,154.4,35.8,155.3,36.8z M137.6,34.1c2.3-0.8,4.6-1.6,6.9-2.4
		c-2.3-2.8-4.5-5.5-6.7-8.2c-0.1,0-0.1,0-0.2,0.1C137.6,27.1,137.6,30.5,137.6,34.1z"/>
	<path class="st3" d="M122.5,33.9c0.7,1.3,1.3,2.6,2,3.9c-3.3,1.7-6.7,3.5-10.1,5.3c0.8,1.6,1.7,3.2,2.5,4.8
		c3.4-1.8,6.9-3.6,10.4-5.4c0.6,1.3,1.3,2.5,2,3.9c-4.9,2.6-9.8,5.1-14.7,7.7c-3.6-7-7.3-13.9-10.9-20.9c4.9-2.6,9.8-5.1,14.8-7.7
		c0.7,1.3,1.3,2.6,2,3.9c-3.4,1.8-6.8,3.6-10.3,5.4c0.7,1.4,1.4,2.7,2.2,4.1c0.1,0.1,0.5,0.2,0.6,0.1c2.2-1.1,4.4-2.2,6.6-3.4
		C120.3,35,121.3,34.5,122.5,33.9z"/>
	<path class="st3" d="M270.5,25.3c0.6-1.4,1.2-2.7,1.8-4c5.7,2.6,11.4,5.2,17.1,7.8c-0.6,1.4-1.2,2.6-1.8,4
		c-2.1-0.9-4.1-1.9-6.2-2.9c-2.7,5.8-5.3,11.6-8,17.4c-1.6-0.7-3.1-1.4-4.5-2.1c2.7-5.8,5.3-11.6,8-17.4
		C274.6,27.2,272.6,26.3,270.5,25.3z"/>
	<path class="st3" d="M230,10c1.6,0.3,3.2,0.5,4.9,0.8c-1.3,7.7-2.6,15.5-3.9,23.3c-1.7-0.3-3.3-0.6-4.9-0.9
		C227.4,25.4,228.7,17.7,230,10z"/>
	<path class="st3" d="M124.4,363.9c-1.6,3.5-3.2,7.1-4.7,10.6c-0.6-0.2-1.1-0.4-1.6-0.7c2-4.5,4-9,5.9-13.5c0.8,0.3,1.6,0.7,2.3,1
		c0,4,0,7.9,0,11.9c2.8-2.7,5.7-5.4,8.5-8.1c0.8,0.3,1.5,0.7,2.4,1c-2,4.5-4,9-6,13.5c-0.6-0.3-1-0.5-1.6-0.8
		c1.6-3.6,3.2-7.2,4.8-11c-0.3,0.2-0.4,0.2-0.5,0.3c-2.1,2-4.1,4-6.2,6c-0.8,0.8-1.7,1.6-2.5,2.3c-0.1,0.1-0.5,0.2-0.7,0.1
		c-0.1,0-0.3-0.3-0.3-0.5c0.1-2.7,0.2-5.5,0.3-8.2c0-1.3,0-2.7,0-4.1C124.5,363.9,124.5,363.9,124.4,363.9z"/>
	<path class="st3" d="M68.8,339c-0.4-0.4-0.8-0.9-1.1-1.3c-0.1-0.1,0-0.5,0.1-0.7c1.9-3.2,3.8-6.4,5.7-9.5c0.1-0.1,0.1-0.2,0.2-0.5
		c-3.7,2-7.2,3.9-10.7,5.8c-0.5-0.5-0.9-0.9-1.4-1.4c2.6-4.4,5.1-8.8,7.6-13.1c0.5,0.4,1,0.8,1.5,1.3c-2.2,3.6-4.3,7.1-6.4,10.7
		c0,0.1,0.1,0.1,0.1,0.2c3.6-2,7.2-3.9,10.8-5.9c0.3,0.4,0.6,0.7,1,1.2c-2,3.4-4.1,7-6.3,10.6c0,0,0.1,0.1,0.1,0.1
		c3.6-2,7.2-4,10.8-6c0.5,0.5,0.9,0.9,1.4,1.4C77.8,334.2,73.3,336.6,68.8,339z"/>
	<path class="st3" d="M311,58.6c-1.7-1.2-3.4-2.4-5.2-3.7c-1.2,1.8-2.5,3.5-3.7,5.3c-0.3,0.5-0.6,0.6-1.1,0.2
		c-0.5-0.5-1.2-0.9-1.8-1.3c1.4-1.9,2.7-3.9,4.1-5.9c-1.8-1.3-3.5-2.5-5.2-3.7c0.5-0.7,1-1.4,1.6-2.2c1.7,1.2,3.4,2.4,5.2,3.7
		c1.3-1.8,2.6-3.7,4-5.6c0.8,0.6,1.7,1.2,2.5,1.7c-1.3,1.9-2.7,3.7-4,5.6c1.7,1.2,3.4,2.4,5.2,3.7C312.1,57.1,311.5,57.8,311,58.6z"
		/>
	<path class="st3" d="M310,338.6c0.6-1.2,1.6-1.3,2.9-1c4.1,1,8.2,1.8,12.5,2.7c-2.6-2.9-5.1-5.8-7.6-8.6c0.4-0.4,0.8-0.9,1.3-1.3
		c3.3,3.7,6.5,7.4,9.7,11c-0.8,1.8-2.2,1-3.5,0.8c-3.9-0.8-7.8-1.7-11.7-2.6c0,0-0.1,0-0.2,0.1c2.6,2.9,5.1,5.8,7.7,8.7
		c-0.4,0.4-0.9,0.8-1.3,1.2C316.5,345.9,313.3,342.2,310,338.6z"/>
	<path class="st3" d="M209.6,392.6c-0.6,0-1.1,0-1.8,0c-0.4-4.8-0.7-9.7-1.1-14.4c2.1-1,2.7,0.7,3.6,1.7c1.3,1.4,2.4,2.8,3.6,4.3
		c1.1,1.3,2.3,2.6,3.4,4c0.1,0.2,0.3,0.3,0.6,0.5c-0.3-3.8-0.6-7.5-0.8-11.2c0,0,0.1-0.1,0.1-0.1c1.8-0.4,1.7-0.4,1.8,1.5
		c0.2,2.8,0.5,5.6,0.7,8.4c0.1,1.5,0.2,2.9,0.2,4.4c-0.3,0.1-0.6,0.3-0.9,0.2c-0.4,0-0.9-0.1-1.1-0.4c-1.2-1.3-2.3-2.7-3.5-4.1
		c-1.5-1.8-3.1-3.7-4.6-5.5c-0.3-0.3-0.5-0.6-1-1.1C209.1,384.8,209.4,388.7,209.6,392.6z"/>
	<path class="st3" d="M301.2,363.2c-2.9-4.2-5.6-8.2-8.4-12.2c1.7-1.1,3.3-2.3,4.9-3.3c3.2-1.9,7-1.1,9.2,1.8c1,1.3,1.6,2.7,1.7,4.3
		c0.1,2.1-0.5,3.9-2.1,5.3C304.8,360.5,303,361.8,301.2,363.2z M301.7,360.8c1-0.7,2-1.3,2.9-2c1.5-1.1,2.4-2.6,2.3-4.5
		c-0.1-2-1.1-3.7-2.8-4.9c-1.2-0.9-2.5-1.2-4.1-0.9c-1.4,0.3-2.4,1.1-3.5,1.8c-0.5,0.3-0.9,0.6-1.4,1
		C297.4,354.6,299.5,357.7,301.7,360.8z"/>
	<path class="st3" d="M262.1,375.7c0-0.1,0-0.2-0.1-0.3c-0.3-1.3-0.3-1.3,1.1-1.8c1.7-0.6,3.3-1.3,4.9-1.9c0.6,1.5,1.1,3,1.6,4.5
		c0.1,0.3,0.1,0.7,0,0.9c-2,4.1-7.2,5.7-11,3.3c-2.2-1.4-3.3-3.5-3.5-6.1c-0.4-4.2,2.6-7.2,6.3-7.9c1.3-0.3,2.7-0.1,4,0.5
		c0.3,0.1,0.6,0.3,0.9,0.4c-0.3,0.4-0.6,0.9-1,1.4c-1.6-0.9-3.3-1.1-4.9-0.3c-1.6,0.7-2.7,1.9-3.3,3.6c-1.1,3.5,1.6,8.2,5.8,8
		c1.9-0.1,3.5-0.9,4.6-2.6c0.2-0.4,0.2-0.9,0.1-1.4c-0.2-0.7-0.5-1.4-0.8-2.1C265.2,374.6,263.7,375.2,262.1,375.7z"/>
	<path class="st3" d="M335.3,323.9c1,0.9,1.9,1.8,2.8,2.5c0.9,0.7,1.2,1.6,1,2.6c-0.5,3.6-3.2,6.3-6.8,6.8c-2.1,0.3-4-0.3-5.6-1.7
		c-1.9-1.6-3.1-3.7-3-6.2c0.1-3.3,2.9-6.6,6-7c0.7-0.1,1.3-0.2,2.1-0.2c-0.1,0.7-0.3,1.2-0.4,1.6c-1,0.3-2,0.4-2.8,0.8
		c-3.3,1.5-4.4,5.6-1.8,8.8c1.6,1.9,4.3,3,6.7,2c2.1-0.8,3.3-2.5,3.7-4.7c0.1-0.4-0.2-0.9-0.5-1.2c-0.5-0.6-1.1-1.1-1.7-1.6
		c-1.2,1.3-2.3,2.5-3.4,3.7c-0.4-0.4-0.8-0.7-1.2-1.1c0.7-0.8,1.5-1.7,2.3-2.5C333.6,325.5,334.5,324.7,335.3,323.9z"/>
	<path class="st3" d="M273.7,371.3c0.8,1.8,1.6,3.5,2.5,5.3c-0.5,0.3-1,0.5-1.6,0.8c-2.1-4.5-4.1-8.9-6.2-13.3c1-0.5,2-1,3-1.4
		c1.2-0.5,2.4-1,3.7-1.5c2.1-0.7,4.3,1.1,4.9,2.9c0.5,1.7,0.3,3.1-1,4.3c-0.2,0.2-0.4,0.4-0.7,0.7c2,1.3,4,2.5,6,3.7
		c-0.1,0.1-0.2,0.1-0.2,0.1c-1.8,1.5-3-0.1-4.3-0.9c-0.9-0.5-1.7-1.2-2.6-1.7c-0.3-0.2-0.8-0.2-1.2-0.1
		C275.1,370.6,274.4,370.9,273.7,371.3z M273,369.9c1.2-0.6,2.3-1.1,3.4-1.6c0.5-0.2,0.9-0.6,1.2-0.9c0.8-0.9,0.8-2.2,0-3.4
		c-0.5-0.7-1.8-1.4-2.6-1.1c-1.5,0.6-3.1,1.3-4.6,1.9C271.4,366.5,272.2,368.2,273,369.9z"/>
	<path class="st3" d="M238.5,382.8c0.5,1.9,0.9,3.8,1.3,5.7c-0.6,0.1-1.2,0.3-1.7,0.4c-1.1-4.8-2.2-9.5-3.4-14.3
		c2.2-0.5,4.3-1.1,6.4-1.5c2.2-0.4,4.2,0.9,4.7,3.3c0.5,2.5-0.1,3.7-2.3,5c-0.1,0.1-0.2,0.2-0.3,0.2c1.7,1.6,3.3,3.1,5,4.7
		c-1,0.7-1.9,0.7-2.7-0.1c-1.3-1.3-2.6-2.5-4-3.8c-0.2-0.2-0.6-0.3-0.8-0.2C240,382.3,239.3,382.6,238.5,382.8z M236.9,375.6
		c0,0.3-0.1,0.4-0.1,0.4c0.4,1.6,0.7,3.1,1.1,4.7c0,0.2,0.4,0.4,0.6,0.4c1.3-0.3,2.6-0.6,3.9-1c1.2-0.4,1.9-1.7,1.6-3.1
		c-0.2-1.3-1.3-2.3-2.5-2.2C240,374.9,238.5,375.3,236.9,375.6z"/>
	<path class="st3" d="M148.5,377.3c0.8,1.7,1.4,3.2,2.2,4.9c0.9-0.9,1.7-1.8,2.5-2.8c0.3,0.3,0.7,0.6,1.2,0.9
		c-0.9,0.9-1.7,1.7-2.5,2.5c-0.4,0.3-0.6,0.6-0.3,1.1c0.5,0.9,1,1.9,1.6,2.8c-1.7,0-2.6-1-3.2-2.5c-1.6,0.8-3.2,1-4.9,0.4
		c-1.9-0.6-3.2-2.2-3.2-3.9c0-1.7,1.3-3.5,3.2-4.1c1.6-0.6,1.5-0.5,1.2-2.2c-0.4-1.9,1.1-4,3.1-4c1,0,2,0.1,2.9,0.8
		c2.1,1.6,1,4.5-1.1,5.2C150.4,376.8,149.5,377,148.5,377.3z M146.8,377.6c-1.5,0.4-2.7,1.1-3,2.7c-0.2,1.3,0.2,2.4,1.4,3
		c1.2,0.7,2.9,0.6,4-0.3C148.4,381.2,147.6,379.4,146.8,377.6z M147.9,376.2c1.2-0.4,2.1-0.6,2.9-1c0.8-0.4,1.2-1.1,1-2.1
		c-0.1-0.9-0.8-1.1-1.5-1.3c-0.8-0.3-2,0.4-2.2,1.3C147.9,374,148,375,147.9,376.2z"/>
	<path class="st3" d="M115.3,355.7c0.5,0.3,0.9,0.5,1.4,0.7c0.5,0.2,0.6,0.5,0.6,1c-0.3,2.4-0.6,4.7-0.9,7.1c-0.4,2.7-0.7,5.3-1.1,8
		c0,0-0.1,0-0.1,0c-1.8-1-1.9-1.3-1.3-3.6c0.2-0.6,0-0.9-0.5-1.2c-1.7-0.9-3.4-1.9-5.1-2.9c-0.5-0.3-0.9-0.3-1.4,0.1
		c-0.2,0.2-0.3,0.3-0.5,0.5c-1.5,1.4-1.6,1.4-3.4,0.2C107.1,362.3,111.2,359,115.3,355.7z M115.4,357.8c-2.3,1.9-4.4,3.6-6.7,5.5
		c1.9,1.1,3.7,2,5.5,3.1C114.7,363.5,115,360.8,115.4,357.8z"/>
	<path class="st3" d="M286.3,371.8c-0.2-1.3-0.4-2.6-0.5-3.8c-0.3-2.4-0.7-4.8-1-7.2c-0.2-1.4-0.4-2.8-0.5-4.1
		c0-0.3,0.2-0.7,0.5-0.9c0.4-0.3,0.9-0.6,1.4-0.8c4.1,3.3,8.2,6.5,12.4,9.8c-0.6,0.3-1.1,0.7-1.6,0.9c-0.1,0-0.3-0.1-0.4-0.1
		c-0.4-0.3-0.9-0.6-1.3-0.9c-1.3-1-1.3-1-2.7-0.2c-1.5,0.8-3,1.7-4.4,2.6c-0.2,0.1-0.4,0.5-0.4,0.7c0,0.6,0,1.3,0.2,1.9
		c0.3,0.9,0.1,1.4-0.8,1.7C286.8,371.4,286.6,371.6,286.3,371.8z M286,357.1c0.4,2.9,0.8,5.7,1.2,8.5c1.8-1.1,3.6-2.1,5.5-3.1
		C290.4,360.7,288.3,359,286,357.1z"/>
	<path class="st3" d="M231.8,375.2c0.1,0.6,0.2,1.1,0.3,1.6c-2.5,0.4-5,0.8-7.7,1.2c0.2,1.5,0.4,3,0.7,4.7c2.5-0.4,5.1-0.8,7.6-1.2
		c0.1,0.5,0.1,1,0.2,1.6c-2.5,0.4-5,0.8-7.6,1.2c0.3,1.7,0.5,3.3,0.8,5c2.3-0.3,4.6-0.6,6.9-1.1c0.9-0.2,1,0.1,1,0.8
		c0,0.2,0,0.4,0,0.7c-3.1,0.5-6.3,1-9.5,1.5c-0.8-4.9-1.5-9.6-2.3-14.5C225.5,376.3,228.6,375.8,231.8,375.2z"/>
	<path class="st3" d="M188.5,377.6c0.5,0.1,1,0.1,1.6,0.2c-0.1,0.9-0.1,1.8-0.2,2.7c-0.2,1.8-0.3,3.5-0.5,5.3
		c-0.2,1.5-0.4,2.9-1.3,4.3c-1,1.6-3.9,2.4-5.3,2.1c-1.2-0.3-2.5-0.4-3.5-1.3c-1.1-0.9-1.9-2-1.8-3.4c0-2.5,0.3-5,0.5-7.5
		c0.1-1,0.1-2.1,0.2-3.3c0.6,0.1,1.2,0.2,1.8,0.2c-0.1,0.9-0.2,1.7-0.3,2.5c-0.2,2.4-0.4,4.8-0.5,7.2c-0.1,2.2,1.6,3.9,3.8,3.9
		c3,0,4.3-1.3,4.5-4.3c0.2-2.6,0.5-5.2,0.7-7.8C188.3,378.2,188.4,377.9,188.5,377.6z"/>
	<path class="st3" d="M168.6,390.2c-0.3-0.1-0.4-0.2-0.5-0.2c-1.3-0.3-1.3-0.3-1-1.7c0.7-3.5,1.3-7,1.9-10.6c0.1-0.3,0-0.6,0.1-0.9
		c-1.4-0.3-2.9-0.5-4.5-0.8c0.1-0.5,0.2-1,0.3-1.6c3.7,0.6,7.3,1.3,11,1.9c-0.1,0.5-0.2,1-0.3,1.6c-1.5-0.3-2.9-0.5-4.6-0.8
		C170.1,381.5,169.4,385.8,168.6,390.2z"/>
	<path class="st3" d="M88.7,355.9c1.3-1.8,2.5-3.6,3.7-5.3c1.4-2,2.9-3.9,4.2-5.9c0.5-0.7,0.8-0.7,1.4-0.2c0.2,0.2,0.4,0.3,0.7,0.4
		c-2.5,3.6-5,7.1-7.6,10.7c1.9,1.3,3.7,2.6,5.6,4c-0.3,0.4-0.6,0.8-1,1.3C93.3,359.3,91,357.6,88.7,355.9z"/>
	<path class="st3" d="M88.3,336.9c0.4,0.3,0.9,0.7,1.4,1.1c-2.8,3.4-5.5,6.8-8.3,10.2c1.7,1.4,3.5,2.8,5.3,4.3
		c-0.3,0.4-0.6,0.8-1,1.3c-2.3-1.8-4.5-3.6-6.7-5.5C82.1,344.5,85.2,340.7,88.3,336.9z"/>
	<path class="st3" d="M84,333c0.5,0.4,1,0.8,1.4,1.1c-3.3,3.6-6.5,7.3-9.8,10.9c-0.5-0.4-0.9-0.8-1.4-1.1
		C77.5,340.3,80.7,336.7,84,333z"/>
	<path class="st3" d="M314.7,353.5c-3.1-3.9-6.1-7.7-9.1-11.6c0.5-0.4,0.9-0.7,1.4-1.1c3,3.9,6.1,7.7,9.1,11.6
		C315.6,352.8,315.2,353.1,314.7,353.5z"/>
	<path class="st3" d="M108.4,351.5c-2.6,4.1-5.3,8.3-7.9,12.4c-0.5-0.3-1-0.6-1.5-1c2.6-4.1,5.3-8.2,7.9-12.4
		C107.4,350.9,107.9,351.2,108.4,351.5z"/>
	<path class="st3" d="M231.8,152.3c22.5,0,45,0,67.5,0c0,6.1,0,12.3,0,18.5c-15.4,0-30.9,0-46.4,0c0,7.9,0,15.8,0,23.7
		c1.1-0.9,2.2-1.7,3.4-2.5c3.5-2.4,7.4-3.9,11.6-4.6c2.3-0.4,4.7-0.7,7-0.7c6,0.1,11.7,1.5,16.8,4.9c2,1.3,4,2.8,5.7,4.5
		c2.9,2.9,5.1,6.4,6.5,10.3c1.1,3,1.9,6.1,1.9,9.3c0.1,2.3,0.2,4.6,0,6.9c-0.5,4.9-1.8,9.7-4.6,13.9c-1.3,1.9-2.6,3.8-4.2,5.4
		c-3.2,3.3-7.1,5.7-11.4,7.4c-3.3,1.3-6.7,2.2-10.2,2.8c-1.4,0.2-2.8,0.3-4.2,0.4c-2.5,0.1-5.1,0.3-7.6,0.1
		c-3.6-0.2-7.2-0.6-10.7-1.3c-4.4-0.8-8.6-2.3-12.5-4.4c-2.9-1.5-5.6-3.2-8.1-5.4c-1.3-1.2-2.5-2.4-3.9-3.6
		c3.9-4.9,7.8-9.8,11.7-14.7c1.2,1,2.4,2.1,3.6,3.1c2.6,2.2,5.6,3.8,8.8,5.1c2.9,1.2,5.8,1.9,8.9,2.3c4.5,0.5,9.1,0.5,13.5-1.2
		c4.9-1.9,8.4-5.2,9.4-10.6c0.8-4.5-0.2-8.6-3.4-12c-2.7-2.8-6.1-4.2-9.9-4.7c-1.6-0.2-3.2-0.4-4.8-0.3c-5.8,0.1-11.3,1.6-16.1,4.9
		c-1.1,0.8-2.2,1.8-3.3,2.6c-0.3,0.2-0.7,0.4-1,0.3c-4.6-1.2-9.3-2.4-13.9-3.7c-0.1,0-0.1,0-0.2-0.1
		C231.8,190.1,231.8,171.2,231.8,152.3z"/>
	<path class="st3" d="M141.6,170.8c-16.5,0-32.9,0-49.3,0c0-6.2,0-12.3,0-18.5c24.6,0,49.1,0,73.9,0c0,0.3,0,0.6,0,0.9
		c0,3.7-0.1,7.4,0,11.1c0.1,2.1-0.5,3.9-1.3,5.7c-1.7,3.9-3.4,7.9-5.1,11.8c-1.3,3-2.6,5.9-3.9,8.9c-1.7,3.9-3.4,7.9-5.1,11.8
		c-1.3,3-2.6,5.9-3.9,8.9c-1.7,3.9-3.4,7.9-5.1,11.8c-1.3,3-2.6,5.9-3.9,8.9c-1.7,3.9-3.4,7.8-5.1,11.7c-0.9,2.1-1.9,4.2-2.8,6.3
		c-0.1,0.2-0.5,0.5-0.7,0.5c-7.4,0-14.8,0-22.2,0c-0.1,0-0.2,0-0.4-0.1C118.2,224.1,129.9,197.5,141.6,170.8z"/>
	<path class="st3" d="M196.1,250.5c-2.1,0.3-4.1,0.4-6-0.2c-3.5-1.2-5.6-3.6-6.4-7.1c-1.1-4.7,0.1-8.8,3.6-12.1
		c2-1.8,4.4-2.8,7.1-2.9c2.9-0.1,5.6,0.6,8,2.3c2.9,2.1,4.6,4.9,5.3,8.3c0.3,1.6,0.5,3.2,0.5,4.8c0,3.8-0.8,7.4-2.2,10.9
		c-2.2,5.4-5.6,9.8-9.8,13.7c-0.9,0.8-1.9,1.5-2.8,2.3c-0.6,0.5-0.9,0-1.2-0.3c-1-0.7-1.9-1.5-2.8-2.3c-1.4-1.1-2.7-2.3-4.1-3.4
		c-0.2-0.1-0.3-0.3-0.5-0.5C190,260.8,194,256.5,196.1,250.5z"/>
</g>
</svg>
