<?xml version="1.0" encoding="utf-8"?>
<!-- Generator: Adobe Illustrator 24.1.3, SVG Export Plug-In . SVG Version: 6.00 Build 0)  -->
<svg version="1.1" id="Layer_1" xmlns="http://www.w3.org/2000/svg" xmlns:xlink="http://www.w3.org/1999/xlink" x="0px" y="0px"
	 viewBox="0 0 146 149.7" style="enable-background:new 0 0 146 149.7;" xml:space="preserve">
<style type="text/css">
	.st0{fill:#222222;}
</style>
<g>
	<path class="st0" d="M26.6,100.7c0.2,0.8,0.3,1.5,0.5,2.2c0.5,2.3,1.1,4.7,1.6,7c0.1,0.4,0.2,0.6,0.7,0.5c0.3,0,0.7,0,1,0
		c28.6,0,57.2,0,85.8,0c3.1,0,5,3.1,3.6,5.7c-0.7,1.3-1.8,2-3.3,2c-30.2,0-60.5,0-90.7,0c-1.8,0-3.3-1.2-3.8-3c-0.7-3-1.4-5.9-2-8.9
		c-2.3-10.4-4.9-20.6-7.6-30.9c-2.7-9.9-5.3-20-7.9-30.1c-0.7-2.6,0.9-4.7,3.5-5c8.4-0.9,16.9-1.9,25.3-2.8
		c8.1-0.9,16.2-1.8,24.3-2.7c7.8-0.9,15.5-1.7,23.3-2.6c7-0.8,14-1.5,21.1-2.3c3.7-0.4,7.5-0.8,11.2-1.2c0.5-0.1,0.7-0.2,0.8-0.7
		c1.2-4.8,2.5-9.6,3.7-14.5c0.4-1.7,1.4-2.8,3.1-3.2c5.3-1.5,10.5-3,15.8-4.4c2.7-0.7,5.1,1.2,5,3.9c0,1.6-1.2,3.1-2.9,3.6
		c-4.4,1.2-8.8,2.5-13.2,3.7c-0.5,0.1-0.8,0.4-0.9,0.9c-1.4,5.7-2.9,11.3-4.4,17c-0.6,2.4-0.8,4.8-1.1,7.2
		c-0.9,7.1-1.7,14.2-2.6,21.3c-0.9,7.2-1.7,14.3-2.6,21.5c-0.5,4.1-1,8.3-1.5,12.4c-0.3,2.1-1.8,3.5-4,3.5c-12.5,0-25,0-37.5,0
		c-14.5,0-28.9,0-43.4,0C27.3,100.7,27,100.7,26.6,100.7z M71.9,41c-0.3,0-0.5,0-0.8,0c-4.4,0.5-8.8,1-13.1,1.4
		c-0.5,0-0.6,0.2-0.5,0.7c0.2,3.7,0.3,7.5,0.5,11.2c0.3,7.2,0.6,14.4,1,21.6c0.2,5.5,0.5,10.9,0.7,16.4c0,0.5,0.2,0.6,0.7,0.6
		c3,0,6,0,8.9,0c0.5,0,0.7-0.1,0.7-0.6c0-1.4,0.1-2.8,0.1-4.2c0.3-8.4,0.7-16.9,1-25.3c0.2-5.2,0.4-10.5,0.6-15.7
		C71.8,45.1,71.8,43.1,71.9,41z M79.6,40.1c0,1.1,0,2.2,0,3.2c-0.2,6.6-0.5,13.2-0.8,19.8c-0.4,9.7-0.8,19.5-1.2,29.2
		c0,0.5,0.1,0.7,0.6,0.7c2.9,0,5.7,0,8.6,0c0.5,0,0.7-0.1,0.7-0.7c1-9.2,2-18.3,3-27.5c0.9-8.2,1.8-16.4,2.7-24.6
		c0.1-0.5,0.1-1.1,0.2-1.7C88.9,39.1,84.3,39.6,79.6,40.1z M49.7,43.4c-4.9,0.5-9.6,1.1-14.4,1.6c2.3,16,4.6,32,6.9,47.9
		c3.2,0,6.4,0,9.6,0C51.1,76.4,50.4,59.9,49.7,43.4z M111.9,36.6c-0.1,0-0.2-0.1-0.2-0.1c-3.3,0.4-6.6,0.7-9.9,1.1
		c-0.4,0-0.4,0.3-0.5,0.6c-0.2,2-0.4,3.9-0.6,5.9c-0.9,7.7-1.7,15.4-2.6,23.1c-0.8,7.5-1.7,15-2.5,22.5c-0.1,1-0.2,2.1-0.3,3.2
		c0.3,0,0.5,0,0.7,0c2.8,0,5.6,0,8.5,0c0.6,0,0.7-0.2,0.8-0.7c0.9-7.6,1.8-15.3,2.7-22.9c1.1-9.6,2.3-19.1,3.4-28.7
		C111.6,39.3,111.8,38,111.9,36.6z M13.1,47.4c0.1,0.4,0.2,0.6,0.2,0.9c1.1,4.3,2.2,8.7,3.4,13c2.7,10.3,5.3,20.7,8,31
		c0.1,0.4,0.3,0.6,0.7,0.6c2.8,0,5.6,0,8.3,0c0.2,0,0.3,0,0.6,0c-2.3-15.7-4.5-31.4-6.8-47.1C22.8,46.4,18,46.9,13.1,47.4z"/>
	<path class="st0" d="M99.6,144.1c-4.7,0-8.5-3.8-8.4-8.4c0-4.6,3.8-8.4,8.4-8.4s8.4,3.8,8.4,8.5
		C107.9,140.3,104.2,144.1,99.6,144.1z"/>
	<path class="st0" d="M43.3,144.1c-4.7,0-8.5-3.7-8.5-8.4s3.8-8.5,8.4-8.5s8.4,3.8,8.4,8.4C51.6,140.3,47.9,144.1,43.3,144.1z"/>
</g>
</svg>
