<?xml version="1.0" encoding="utf-8"?>
<!-- Generator: Adobe Illustrator 24.1.3, SVG Export Plug-In . SVG Version: 6.00 Build 0)  -->
<svg version="1.1" id="Layer_1" xmlns="http://www.w3.org/2000/svg" xmlns:xlink="http://www.w3.org/1999/xlink" x="0px" y="0px"
	 viewBox="0 0 5062 272" style="enable-background:new 0 0 5062 272;" xml:space="preserve">
<style type="text/css">
	.st0{stroke:#000000;stroke-width:2;stroke-miterlimit:10;}
	.st1{fill:#ADADAD;}
	.st2{fill:#222222;}
	.st3{fill:#FFFFFF;}
	.st4{fill:#FFFFFF;stroke:#FFFFFF;stroke-width:2;stroke-miterlimit:10;}
</style>
<text transform="matrix(1 0 0 1 2135.5015 673.3281)" style="font-family:'MiltonOneBold'; font-size:171.4079px;">William &amp; Turner grd</text>
<g>
	<path class="st0" d="M2347.5,830c-0.3,0.4-0.5,0-0.3-0.3c2.7-3.7,3.6-8.3,0.8-12.7c-1.8-2.7-5-4.5-8.4-5c-7-1.1-14.4,1.1-20.8,5
		c-8.3,5-17,13.7-25.8,23.4c-10.6,11.6-21.5,25.2-31.7,38.1c-12.5,15.9-24,30.5-33.6,39.4c-5.2,5-9.9,8.2-13.8,8.8
		c-0.7,0.1-0.9-0.1-0.1-0.4c6.3-3,10.4-12.1,13.3-18.3c8.1-16.7,13.4-36.9,22.5-57.5c4.6-10.2,11.3-21,20.7-27.9
		c-7.5,4.2-16.6,13.6-26.4,25.3c-7,8.6-14.7,18.3-22.1,27.8c-10.3,13.2-20.1,26.1-28.8,35.5c-8.7,9.2-15.9,15.2-21.2,15.2
		c-0.6,0-0.7-0.3-0.1-0.5c6.6-2.8,10.5-9.1,13.7-14.9c5.3-9.3,9.3-19.3,13.3-29.1c5-12.1,9.9-26.3,16.9-38.5
		c4.5-7.8,9.5-14.7,16.7-19.9c-7.7-1.5-14.3-3.1-23.2-4.1c-10.2-1.1-20.9-0.1-29.7,3.5c-16.9,6.9-29,18.6-34.7,36.8
		c-1.4,4.7-2.6,13.4-0.4,20c2.1,6.3,8,11.4,15,12.2c10.4,1.1,19.8-6,26.4-15.1c0.2-0.3,0.6,0,0.4,0.4c-6,8.6-15.7,16.4-27,15.8
		c-7.5-0.4-14.4-5-17.7-12.1c-3.2-7-3.1-15.1-1.1-22.4c5-17.7,20.8-31.3,38.6-36.7c10.8-3.1,19.7-4,30.2-3c8,0.9,16,2.7,24,4.1
		c3.3-2.3,7.8-3.9,11.8-4.5c2.2-0.3,6.6-0.2,6.5,1.8c-0.1,1.4-2.3,2.8-5.8,3.4c-3.6,0.7-7.3,0.6-11,0.2
		c-6.4,5.4-10.4,13.2-14.1,20.6c-6.6,12.7-11.9,26.1-17.8,39.1c-4.4,9.7-9,19.9-15,28.9c-3.3,4.9-7.1,9.6-12.2,12.6
		c4.4-1.8,10.1-6.6,17.2-14.5c8.7-9.4,18.5-22.1,28.7-35.2c7.5-9.5,15-19.4,22.2-28c8.3-9.8,16-18,22.8-23c6.3-4.7,16.3-9.9,24-7
		c0.3,0.1,0.2,0.4-0.1,0.3c-7.5-2.8-16.6,2.3-21.6,8c-3,3.2-5.1,7-7.1,11.1c-7.7,16.8-15,34.1-22.1,51.1c-3,7.1-6,14.5-9.9,21.2
		c-3.3,5.8-6.9,11.9-12.5,15.7c3.1-1.4,6.7-4.1,10.6-7.8c9.5-9,21.4-24,33.4-39.2c10.3-13,21.1-26.7,31.8-38.3
		c8.7-9.4,17.1-17.7,25.2-23c6.1-4,14.7-8.3,22.1-7.1c3.3,0.5,7.1,2.4,8.8,4.8C2352,819.4,2350.5,825.4,2347.5,830z M2235.1,823.6
		c4.4,0.5,8,0.3,10.6-0.3c3.1-0.8,4.9-1.9,5-2.8c0.2-1.4-3.5-1.6-5.8-1.3C2241.4,819.7,2237.7,821.2,2235.1,823.6z"/>
	<path class="st0" d="M2269.8,888.9c2.5,0.4,5.4-0.4,7.1-1.9c-1.4,1.8-4,5.3-6,8.5c-3.6,5.6-7.9,11.3-11.3,17.4
		c-0.7,1.1-5.1,8.8-0.4,7.6c1.5-0.4,3.7-1.9,5.7-3.7c4.5-4,9.5-10.4,14.3-16.3c0.2-0.3,0.6,0,0.4,0.3c-4.8,6-9.8,12.3-14.4,16.3
		c-2,1.8-3.9,3.1-5.7,3.8c-2.6,1-5.3-0.5-5.3-3.6c0-4.2,2.6-8.6,4.7-12C2262.6,899.2,2267.3,892.9,2269.8,888.9z M2276.9,872.5
		c1.6-2.3,3.7-3.7,4.8-3c1,0.7,0.6,3-1,5.2c-1.6,2.3-3.7,3.7-4.8,3C2274.9,877.1,2275.4,874.8,2276.9,872.5z"/>
	<path class="st0" d="M2286.9,913.8c3.8-4,7.6-9,11-13.2c0.2-0.3,0.7-0.1,0.4,0.3c-3.5,4.4-7.3,9.3-11,13.2c-4,4.3-7.8,7.2-11,7.2
		c-4.4,0-4.3-5.6-3.2-8.7c1.9-5.6,5-10.5,8.2-15.3c21-31.5,40.9-61.6,39.9-60.2c2.5,0.4,5.5-0.4,7.2-1.9c-1.9,2.4-5.8,8.1-8.1,11.6
		l-34.3,51.9c-3.3,5-6.8,9.8-9.5,15.2c-0.9,1.7-3.6,6.5,0,6.8C2279,920.9,2283,918,2286.9,913.8z"/>
	<path class="st0" d="M2305.7,913.8c3.8-4,7.6-9,11-13.2c0.2-0.3,0.7-0.1,0.4,0.3c-3.5,4.4-7.3,9.3-11,13.2c-4,4.3-7.8,7.2-11,7.2
		c-4.4,0-4.3-5.6-3.2-8.7c1.9-5.6,5-10.5,8.2-15.3c21-31.5,40.9-61.6,39.9-60.2c2.5,0.4,5.5-0.4,7.2-1.9c-1.9,2.4-5.8,8.1-8.1,11.6
		l-34.3,51.9c-3.3,5-6.8,9.8-9.5,15.2c-0.9,1.7-3.6,6.5,0,6.8C2297.8,920.9,2301.8,918,2305.7,913.8z"/>
	<path class="st0" d="M2324.5,888.9c2.5,0.4,5.4-0.4,7.1-1.9c-1.4,1.8-4,5.3-6,8.5c-3.6,5.6-7.9,11.3-11.3,17.4
		c-0.7,1.1-5.1,8.8-0.4,7.6c1.5-0.4,3.7-1.9,5.7-3.7c4.5-4,9.5-10.4,14.3-16.3c0.2-0.3,0.6,0,0.4,0.3c-4.8,6-9.8,12.3-14.4,16.3
		c-2,1.8-3.9,3.1-5.7,3.8c-2.6,1-5.3-0.5-5.3-3.6c0-4.2,2.6-8.6,4.7-12C2317.4,899.2,2322,892.9,2324.5,888.9z M2331.7,872.5
		c1.6-2.3,3.7-3.7,4.8-3c1,0.7,0.6,3-1,5.2c-1.6,2.3-3.7,3.7-4.8,3C2329.7,877.1,2330.1,874.8,2331.7,872.5z"/>
	<path class="st0" d="M2357.6,915.6c4.2-4,8.8-9.7,13-15c0.2-0.3,0.6,0,0.4,0.3c-4.3,5.4-8.9,11.1-13,15.1c-2.5,2.4-5,4.3-7.1,5
		c-2.6,1-5.2-0.6-5.2-3.7c0-4.2,2.6-8.6,4.7-12c-3.5,5-9,11.4-14.2,14.7c-2.7,1.6-7,2.4-7.9-1.8c-0.8-3.4,0.9-8.6,1.8-10.8
		c3-7.3,10.1-14.2,15.8-17c2.6-1.2,8.5-3.9,10.7-0.5c1.4,2.2,0.3,5-0.8,7c1.8-2.7,3.6-5.4,5.5-8c2.5,0.4,5.4-0.4,7.1-1.9
		c-1.4,1.8-4,5.3-6,8.5c-3.6,5.6-7.9,11.3-11.3,17.4c-0.7,1.1-4.9,9-0.4,7.6C2352.3,920.1,2355.1,918,2357.6,915.6z M2336,919.5
		c4.9-3,12.5-11.5,18.2-21c2.3-3.7,3-6.7,1.9-8.3c-2.3-3.2-7.5,0.2-9.7,2.2c-4.7,4.1-8.4,9.6-11.3,15.1c-1.8,3.4-5.1,10.7-4,12.5
		C2331.8,921.2,2334.1,920.7,2336,919.5z"/>
	<path class="st0" d="M2404.4,918.8c4.8-3.5,10.7-10.7,16.5-18.2c0.3-0.4,0.7-0.1,0.4,0.3c-5.8,7.5-11.7,14.8-16.6,18.3
		c-1.6,1.1-3.3,2.2-5,2.2c-3.3,0-4.3-3.7-3.6-6.2c1-4.1,3.5-7.5,5.9-11c2.6-3.8,5.3-7.5,7.7-11.4c0.7-1.1,2.2-3.9-0.4-4
		c-2-0.1-5.9,2.3-10,6.3c-3.7,3.7-8.8,9.3-12.6,15.1c-2.4,3.7-4.6,7-7,10.5c-2.5-0.3-5.6,0.4-7.3,1.9c2.2-2.8,5.7-8,8-11.6
		c3.7-5.9,8.3-11.8,11.4-17.8c0.5-0.9,1.3-3.5,0.1-4c-4.7-1.9-18.1,15.6-23.7,23.4c-2,2.8-3.7,5.2-5.6,8.1c-2.5-0.3-5.5,0.4-7.2,1.9
		c2.4-3,7.7-10.9,9.5-13.6c3.4-5,6.8-10.3,10.2-15.3l3-4.7c2.5,0.4,5.5-0.4,7.3-1.9c-6.4,8.6-10,14.7-13.6,19.7
		c8-10.3,15.6-19,20.6-18.4c3,0.4,3.5,3.6,2.9,6.1c-1,3.7-2.8,6.6-4.7,9.6c2.9-3.7,5.6-6.9,8.3-9.4c3.1-3,7.5-6.4,10.5-6.5
		c3.4-0.1,4.3,3.4,3.7,5.8c-1.1,4.6-4.7,8.9-7.4,12.9c-2.2,3.1-4.8,6.8-6.3,9.5c-0.8,1.3-1.8,4.4,0.6,4.4
		C2401.3,920.8,2403,919.8,2404.4,918.8z"/>
	<path d="M2515,888.3c-1-0.4-1-2.2-0.1-3.8c0.6-1,1.7-1.9,2.4-2.1c-1.1-2.1-4-1.8-5.8-1c-4.9,2.1-8.7,6.5-12.1,10.6
		c-3.4,4-7,8.7-10.6,12.9c1,6.9-0.7,14.6-3.7,20.6c-2.6,5.2-7,10-11.6,13.2c-5.7,3.9-12.8,6.4-19.3,4.8c-0.7-0.2-0.6-0.8,0.1-0.6
		c6.3,1.8,13.5-1,18.7-4.8c4.5-3.3,8.6-8.1,10.8-13.3c2.3-5.2,3.2-11,2.3-16.7c-3.4,3.8-7.6,7.8-12,10.9c-6.6,4.5-18,8.7-25,2.1
		c-5-4.8-4.5-12.6-1.4-18.2c3-5.5,7.6-9.4,12.5-13.3c5.2-4.2,11-7.7,16.6-11.4c-0.9-3.8-0.9-7.7,0.1-11.5c1.2-4.9,3.5-9,7-12.7
		c2.5-2.7,6-5.1,9.3-5.4c1.4-0.1,2.9,0.2,3.7,1.1c1.4,1.5,1.5,3.9,1.2,5.8c-0.6,3.3-2.9,7.9-8,12.7c-2.9,2.8-5.6,5-8.7,7.3
		c1.9,9.5,6.1,18.4,7.6,28.5c3.3-4,7-8.6,10.1-12.3c3.6-4.2,7.4-8.4,12.4-10.8c2.1-1,5.3-1.2,7,0.4
		C2521,883.7,2517.8,889.4,2515,888.3z M2476.6,878.8c-5.4,3.6-10.8,7.6-15.5,12.1c-4,3.9-7.7,8.5-9.7,13.7
		c-1.7,4.5-2.4,9.7,0.1,13.9c4.8,7.7,15.8,3.5,22-0.4c4.6-3,8.8-7.2,12.4-11C2484.3,897.3,2479.1,888.9,2476.6,878.8z M2497.4,855.2
		c0.3-1.8,0.1-4.1-1.2-5.2c-0.9-0.8-2.1-1-3-0.8c-3.1,0.5-5.9,3-8,5.8c-1.9,2.6-3.2,5.9-4,9c-1,3.5-0.6,7.2,0,10.7
		c3-2.2,5.6-4.4,8.5-7C2493,864.4,2496.5,859.8,2497.4,855.2z"/>
	<path class="st0" d="M2628.6,845.9c4.9-6.6,19.1-22,29.4-18.4c0.3,0.1,0.3,0.5-0.1,0.4c-10.2-3.4-20.2,11.3-25.3,18.9
		c-8.7,12.6-16.6,27.4-25.8,40.2c-5,6.9-9.7,13.5-15.4,19.7c-7,7.5-15,14.8-24.9,18.9c-4.2,1.8-8.6,2.9-13.2,2.9
		c-5.1,0-11.9-2.6-14-8.1c-1.2-3.3-0.3-8.3,1.4-10.7c0.2-0.3,0.5-0.2,0.3,0.1c-1.9,3.7-2.4,7.2-1.1,10.3c2.1,5.1,8,7.5,13.5,7.5
		c4.4,0,8.6-1.4,12.5-3.3c8.9-4.2,15.8-11.1,23.1-19.8c5.1-6.1,9.6-13.2,14-20C2611.1,871.9,2618.6,859.2,2628.6,845.9z M2699.8,825
		c-19.9,1.2-39-5.3-59.7-9.5c-14.5-3-29.7-2.7-44.6,1.8c-12.4,3.8-23.3,11.4-31.2,21.6c-4.8,6.2-8.8,13.1-11,20.7
		c-1.9,6.6-2.7,14-0.2,20.7c1.6,4.4,5.1,8.4,9.7,10.1c4.7,1.7,8.9,1.7,14.6,0.4c7.1-1.6,15.1-7.6,17.7-14.1c0.2-0.4,0.7-0.3,0.5,0.2
		c-2.8,6.3-9.7,12.2-18,14.5c-4.2,1.1-10.4,1.7-15.2,0c-5-1.8-9.2-5-12-9.8c-3.9-6.9-4.1-15.7-1.7-23.2c2.6-8.2,7.2-15.5,13.2-21.6
		c9.1-9.4,20.8-16.3,33.3-19.9c15-4.4,30.2-4.7,44.9-2c19.2,3.5,38.7,9.1,59.2,7.8c5-0.3,10.9-1,15.4-2.8c5.6-2,11.1-5.9,14.4-10.8
		c0.2-0.3,0.4-0.1,0.2,0.3c-3,4.9-8.4,9.1-13.9,11.7C2711,823.1,2705,824.7,2699.8,825z"/>
	<path class="st0" d="M2607.8,917.3c0-4.2,2.5-8.6,4.7-12c3.8-6.1,8.5-12.4,11-16.4c2.5,0.4,5.4-0.4,7.1-1.9c-1.4,1.8-4,5.3-6,8.5
		c-3.6,5.6-7.9,11.3-11.3,17.4c-0.7,1-4.3,7.5-1.5,7.9c2,0.3,5.2-1.7,8.5-4.6c5-4.5,10.6-11.7,13.3-15.9c2.2-3.2,5-7.1,7.8-11.4
		c2.5,0.4,5.4-0.4,7.1-1.9c-1.4,1.8-4,5.3-6,8.5c-3.6,5.6-7.9,11.3-11.3,17.4c-0.7,1.1-5,8.8-0.4,7.7c1.5-0.4,4.3-2.4,6.7-4.7
		c4.3-4,9-10,13.3-15.4c0.2-0.3,0.6,0,0.4,0.3c-4.4,5.6-9.1,11.4-13.4,15.5c-2.4,2.3-4.7,4-6.7,4.7c-2.7,0.9-5.3-0.6-5.3-3.7
		c0-3.5,1.8-7.1,3.6-10.3c-2.7,3.4-5.8,7-8.9,9.6c-3.5,3-6.4,5-9.2,4.7C2609.3,921.1,2607.8,919.7,2607.8,917.3z"/>
	<path class="st0" d="M2670.7,896.5c-1.8,1-9.9,7.9-14.5,14.5c-1.5,2.2-3.3,5-6.9,10.1c-2.5-0.4-5.5,0.4-7.2,1.9
		c1.5-1.9,4.3-5.9,6.5-9.2c3.6-5.8,7.2-10.6,10.6-15.9c1.3-2.3,5.7-8.4,4.4-8.8c-2.2-0.7-9.3,8-12.4,11.8c-0.2,0.3-0.7,0.1-0.4-0.3
		c3.2-4.1,9.6-12,12.9-12.2c2.6-0.1,3.3,2.5,2.2,5.4c-1.6,4.3-3.6,7.9-7,13c4.4-5.1,9.3-9,12.1-11c1.4-3.6,3.7-7,6.7-9.4
		c1.2-1,2.7-1.4,3.4-1c0.2,0.1,0.7,0.5,0.5,1.3c-0.6,3.2-5.6,6.5-9,8.5c-1.2,1.5-2.5,4.5-2.7,5.9c-0.7,5,2.6,6.9,7,4.7
		c2-1,4.1-2.9,6.1-5.1c0.3-0.4,0.7,0,0.4,0.3c-2,2.4-4.2,4.2-6.3,5.2c-4.7,2.4-8.5,0.3-7.8-5C2669.5,899.7,2670,897.8,2670.7,896.5z
		"/>
	<path class="st0" d="M2675.3,920.7c-2.5-0.3-5.6,0.4-7.3,1.9c1.4-1.7,3.8-5.1,5.9-8.2c4.6-6.8,9-13.8,13.6-20.7l3.1-4.8
		c2.5,0.4,5.5-0.4,7.3-1.9c-3,3.5-10.1,14.6-10.1,14.6l-1,1.6c7-8.3,14.8-15,18.8-14.9c3,0.1,4.8,2.1,4.4,5c-0.7,5-5.7,10.7-9,15.3
		c-1.4,2.1-4.2,5.9-5.3,8.1c-1.1,2.2-0.7,3.8,0.3,4c1.1,0.3,3.1-0.9,4.7-2c4.8-3.5,10.7-10.7,16.5-18.2c0.3-0.4,0.7-0.1,0.4,0.3
		c-5.8,7.5-11.7,14.8-16.6,18.3c-1.6,1.1-3.3,2.2-5,2.2c-3.3,0-3.9-4.1-3.2-6.5c0.9-3.1,2.8-6.2,4.6-8.9c3-4.4,6.3-8.8,9-13.4
		c0.8-1.3,1.2-3.6-0.9-3.6c-4.3,0-14.2,8.8-22.7,20.5L2675.3,920.7z"/>
	<path class="st0" d="M2717,920.7c2.7,0.2,6.4-1.3,10.6-4.3c5-3.6,10.9-9.1,16.2-15.8c0.2-0.2,0.6,0,0.4,0.3
		c-4.8,6.2-11,12.1-16.3,15.9c-2.7,1.8-7,4.6-10.7,4.6c-5.5,0-6.3-4.9-6-8.5c0.4-3.9,2.3-7,4.4-10.2c1.8-2.7,4.1-5.1,6.8-7.3
		c3.9-3.2,9.3-6.8,13.7-7.2c3.4-0.4,4.9,2.4,3,5.4c-2.6,4.4-13.2,10.6-19.6,11.4c-2.3,3.1-3.4,5.9-4.4,8.9
		C2714.5,915.9,2713.7,920.5,2717,920.7z M2736.2,888.8c-4.8,0.8-13,10.8-16.3,15.6c5.7-0.7,16.4-6.9,18.9-11.1
		C2740.2,890.8,2739.4,888.3,2736.2,888.8z"/>
	<path class="st0" d="M2763.7,896.5c-1.8,1-9.9,7.9-14.5,14.5c-1.5,2.2-3.3,5-6.9,10.1c-2.5-0.4-5.5,0.4-7.2,1.9
		c1.5-1.9,4.3-5.9,6.5-9.2c3.6-5.8,7.2-10.6,10.6-15.9c1.3-2.3,5.7-8.4,4.4-8.8c-2.2-0.7-9.3,8-12.4,11.8c-0.2,0.3-0.7,0.1-0.4-0.3
		c3.2-4.1,9.6-12,12.9-12.2c2.6-0.1,3.3,2.5,2.2,5.4c-1.6,4.3-3.6,7.9-7,13c4.4-5.1,9.3-9,12.1-11c1.4-3.6,3.7-7,6.7-9.4
		c1.2-1,2.7-1.4,3.4-1c0.2,0.1,0.7,0.5,0.5,1.3c-0.6,3.2-5.6,6.5-9,8.5c-1.2,1.5-2.5,4.5-2.7,5.9c-0.7,5,2.6,6.9,7,4.7
		c2-1,4.1-2.9,6.1-5.1c0.3-0.4,0.7,0,0.4,0.3c-2,2.4-4.2,4.2-6.3,5.2c-4.7,2.4-8.5,0.3-7.8-5C2762.6,899.7,2763,897.8,2763.7,896.5z
		"/>
	<path d="M2805.3,925.8c9-6.4,17.6-13.8,26.9-25.2c0.3-0.3,0.7-0.1,0.4,0.3c-9.7,12-18.7,19.6-28,26.1c-7.1,10.8-14.1,21.6-21.8,32
		c-4.6,6.2-10.1,11.9-16.4,16.4c-1.9,1.4-6.3,4-8.8,2.8c-0.8-0.4-1.3-1.1-1.5-2.2c-0.6-3.5,2.3-10,7.8-17
		c6.1-7.6,12.6-13.1,19.5-18.1c3.9-2.8,7.9-5.5,12-8.1c5.7-9.2,11.6-18.5,17.6-27.4c-3.5,5-9,11.4-14.2,14.7c-2.7,1.6-7,2.4-7.9-1.8
		c-0.8-3.4,0.8-8.6,1.7-10.8c3.1-7.2,10.2-14.2,15.9-17c2.6-1.2,8.4-3.9,10.7-0.5c1.3,2,0.3,5-0.8,7c1.8-2.7,3.6-5.4,5.5-8
		c2.5,0.4,5.4-0.4,7.1-1.9c-1.4,1.8-4,5.3-6,8.5C2825.9,894.4,2813.9,912.9,2805.3,925.8z M2765.9,974.8
		c5.1-4.1,10.1-11.3,14.2-17.7c5-7.8,9.9-15.6,14.9-23.4c-3.6,2.3-7.7,5.1-11.2,7.6c-6.9,5-13.3,10.4-19.3,18
		c-5.3,6.8-8.4,13.3-7.8,16.6c0.2,0.9,0.7,1.6,1.2,1.9C2760,978.8,2763.8,976.4,2765.9,974.8z M2798.7,919.5
		c4.9-3,12.5-11.5,18.2-21c2.3-3.7,3-6.7,1.9-8.3c-2.3-3.2-7.5,0.2-9.7,2.2c-4.7,4.1-8.4,9.6-11.3,15.1c-1.8,3.4-5.1,10.7-4,12.5
		C2794.5,921.2,2796.9,920.7,2798.7,919.5z"/>
	<path d="M2852.1,896.5c-1.8,1-9.9,7.9-14.5,14.5c-1.5,2.2-3.3,5-6.9,10.1c-2.5-0.4-5.5,0.4-7.2,1.9c1.5-1.9,4.3-5.9,6.5-9.2
		c3.6-5.8,7.2-10.6,10.6-15.9c1.3-2.3,5.7-8.4,4.4-8.8c-2.2-0.7-9.3,8-12.4,11.8c-0.2,0.3-0.7,0.1-0.4-0.3c3.2-4.1,9.6-12,12.9-12.2
		c2.6-0.1,3.3,2.5,2.2,5.4c-1.6,4.3-3.6,7.9-7,13c4.4-5.1,9.3-9,12.1-11c1.4-3.6,3.7-7,6.7-9.4c1.2-1,2.7-1.4,3.4-1
		c0.2,0.1,0.7,0.5,0.5,1.3c-0.6,3.2-5.6,6.5-9,8.5c-1.2,1.5-2.5,4.5-2.7,5.9c-0.7,5,2.6,6.9,7,4.7c2-1,4.1-2.9,6.1-5.1
		c0.3-0.4,0.7,0,0.4,0.3c-2,2.4-4.2,4.2-6.3,5.2c-4.7,2.4-8.5,0.3-7.8-5C2850.9,899.7,2851.4,897.8,2852.1,896.5z"/>
	<path d="M2889,914.8c3.9-3.9,8.1-9.2,12.1-14.2c0.2-0.2,0.6,0,0.4,0.3c-4,5.1-8.2,10.4-12.1,14.3c-2.9,2.9-5.7,5.1-8.1,5.9
		c-2.6,0.9-5.2-0.6-5.2-3.7c0-4.2,2.6-8.6,4.7-12c-3.5,5-9,11.4-14.2,14.7c-2.7,1.6-7,2.4-7.9-1.8c-0.8-3.4,0.9-8.4,1.8-10.8
		c3-7.3,10.1-14.2,15.8-17c2.6-1.2,8.5-3.9,10.7-0.5c1.3,2.1,0.3,5-0.8,7c1.9-3,4.2-5.7,31.8-48l7.7-11.8c2.5,0.4,5.6-0.4,7.3-1.9
		c-1.4,1.7-3.8,5-5.9,8.2l-29.2,44.4c-5.5,8.4-11.3,16.7-16.3,25.1c-0.7,1.1-5.2,8.7-0.5,7.6C2883.2,920.1,2886.2,917.6,2889,914.8z
		 M2866.4,919.5c4.9-3,12.5-11.5,18.2-21c2.3-3.7,3-6.7,1.9-8.3c-2.3-3.2-7.5,0.2-9.7,2.2c-4.7,4.1-8.4,9.6-11.3,15.1
		c-1.8,3.4-5.1,10.7-4,12.5C2862.2,921.2,2864.6,920.7,2866.4,919.5z"/>
</g>
<path class="st1" d="M3045,104H2017H0v52h2023.7c17.7,0,34.1,8.8,44,23.4l21.9,32.6c6.7,10,18,16,30,16h822.7c12,0,23.3-6,30-16
	l21.9-32.6c9.9-14.6,26.4-23.4,44-23.4H5062v-52H3045z"/>
<path class="st2" d="M5062,0H3005h-948H0v104h2074.3c19.3,0,36.8,11.1,45,28.6l46,97.8c9.9,21.1,31.2,34.6,54.5,34.6h622.5
	c23.3,0,44.6-13.5,54.5-34.6l46-97.8c8.2-17.4,25.7-28.6,45-28.6H5062V0z"/>
<g>
	<path class="st3" d="M2371.1,134.6c9.1-11.4,18.5-23.2,27.8-33.3c7.2-7.9,15.7-16.6,23.7-21.4c6.2-3.8,12.8-5.4,18.6-4.5
		c3,0.4,5.7,1.9,7.1,4.1c2.9,4.4,0.8,8.4-0.7,10.5c-0.3,0.4-0.4,0.8-0.3,1.3c0.1,0.4,0.5,0.7,0.9,0.8c0.5,0.1,0.9-0.2,1.2-0.6
		c3.6-5.4,3.9-11.2,1-15.7c-1.7-2.6-5.7-4.4-8.7-4.8c-5.7-0.8-12.9,1.5-21.2,6.8c-8.2,5.4-16.5,13.8-23.6,21.4
		c-9.1,10-18.4,21.6-27.3,32.8l-2.1,2.7c-10.8,13.7-22,27.8-30.8,36.2c-0.4,0.3-0.7,0.7-1.1,1c1.4-2.1,2.7-4.3,4-6.5l0.4-0.7
		c3.7-6.3,6.5-13.1,9.2-19.7c1.1-2.7,2.3-5.4,3.4-8.1c5.5-12.9,11.1-26.3,17-39.1c1.6-3.2,3.7-7,6.5-10.1c4.6-5.3,12.6-9.4,18.8-7.1
		c0.4,0.2,0.8,0.1,1.1-0.1c0.3-0.2,0.5-0.6,0.5-1c0-0.4-0.3-0.8-0.8-1c-8.5-3.3-19.1,3.5-23.2,6.5c-5.6,4.3-12.6,11.3-21.2,21.4
		c-4.8,5.9-10,12.5-15.1,19c-1.8,2.3-3.6,4.6-5.4,6.9l-3.1,4c-8.3,10.7-16.2,20.8-23.3,28.5c-1.3,1.4-2.5,2.7-3.7,3.9
		c0.2-0.3,0.4-0.6,0.7-0.9c5.8-8.5,10.2-18.2,14-26.8c1.6-3.5,3.1-7,4.6-10.5c3.7-8.5,7.5-17.3,11.8-25.6l0.2-0.4
		c3.4-6.5,6.8-13.2,12.3-18c4,0.4,7.1,0.4,10-0.2c3.9-0.7,6-2.1,6.2-4.1c0-0.6-0.3-1.2-0.7-1.6c-1.8-1.6-6.2-1.1-6.4-1
		c-3.8,0.5-7.8,2-11,4.1c-2.3-0.4-4.7-0.9-7-1.3c-4.9-0.9-9.9-1.9-14.9-2.4c-10-0.9-18.4-0.1-28.3,2.8c-17.8,5.4-32,19-36.4,34.6
		c-2.2,7.8-1.8,15.4,1.1,21.4c3.1,6.9,9.7,11.4,17.2,11.8c9.2,0.4,18.9-5.2,25.7-15l0.1-0.3c0.2-0.7-0.1-1.4-0.7-1.7
		c-0.5-0.2-1.1,0-1.4,0.5c-6.8,9.4-15.3,14.3-23.4,13.5c-5.9-0.7-11.3-5.1-13.1-10.6c-2-6-0.8-14.1,0.4-17.9
		c4.8-15.6,15.4-26.8,31.5-33.3c7.6-3.1,17.2-4.2,27-3.2c6.2,0.7,11.1,1.7,16.2,2.7c1,0.2,2,0.4,3,0.6c-6.5,5.2-10.8,11.9-13.9,17.3
		c-5.2,9.1-9.1,19.1-12.9,28.7c-0.9,2.4-1.8,4.7-2.8,6.9c-3.9,9.7-7.5,18.4-12.3,26.8c-3.1,5.4-6.6,10.9-12.1,13.2
		c-0.8,0.2-1,0.8-1,1.3c0.1,0.5,0.5,1,1.4,1c4.8,0,10.8-4.3,20.3-14.4c6.7-7.3,14.1-16.8,22-26.8c1.6-2,3.1-4,4.7-6l3.3-4.1
		c5.8-7.3,11.7-14.9,17.2-21.6c4.3-5.1,8.2-9.4,11.7-13c-2.9,4.1-5.6,8.9-8.1,14.3c-3.8,8.8-6.9,17.5-9.9,25.9
		c-3.5,9.7-6.8,18.9-10.8,27.2l-0.4,0.9c-2.6,5.5-6.2,13.1-11.4,15.6c-1.2,0.5-1.1,1.3-1,1.5c0.1,0.2,0.3,0.8,1.2,0.8
		c0.1,0,0.3,0,0.5,0c3.6-0.5,7.7-3,13.4-8.3c8.6-8.1,18.7-20.8,31.1-36.5L2371.1,134.6z M2353.6,81.9c2-0.2,3.6,0,4.2,0.3
		c-0.3,0.3-1.4,1-3.6,1.5c-1.8,0.4-4.1,0.5-6.8,0.4C2349.3,83,2351.5,82.2,2353.6,81.9z"/>
	<path class="st3" d="M2388.1,126.5c-1.7-1.1-4.1,0.7-5.7,3l0,0c-1.5,2.2-2.2,5.1-0.6,6.3c0.4,0.2,0.7,0.3,1.1,0.3
		c1.5,0,3.3-1.5,4.6-3.4c0.6-0.9,1.9-3.2,1.5-4.9C2388.9,127.3,2388.6,126.8,2388.1,126.5z"/>
	<path class="st3" d="M2438.7,126.5c-1.7-1.1-4.1,0.7-5.7,3l0,0c-1.5,2.2-2.2,5.1-0.6,6.3c0.4,0.2,0.7,0.3,1.1,0.3
		c1.5,0,3.3-1.5,4.6-3.4c0.6-0.9,1.9-3.2,1.5-4.9C2439.5,127.3,2439.2,126.8,2438.7,126.5z"/>
	<path class="st3" d="M2517.3,155c-0.5-0.3-1.3-0.3-1.7,0.4c-4.6,6-10.4,13.2-15,16.6c-1.3,1-2.7,1.7-3.5,1.8c-0.1,0-0.2,0-0.2,0
		c-0.2-0.2,0-1.4,0.7-2.5c1.3-2.3,3.4-5.4,5.3-8.1l0.4-0.6c0.5-0.7,0.9-1.3,1.4-2c2.3-3.2,4.8-6.6,5.6-10.3c0.5-1.8,0.2-3.8-0.9-5.1
		c-0.6-0.7-1.7-1.6-3.5-1.5c-3.4,0.2-7.9,4-10.3,6.3c-0.7,0.7-1.5,1.4-2.2,2.2c0.2-0.5,0.3-1,0.5-1.5c0.4-1.5,0.5-3.6-0.6-5.1
		c-0.7-1-1.7-1.6-2.9-1.8c-2.5-0.3-5.6,1.6-8.9,4.7c1-1.4,2-2.8,3.2-4.4l5.2-7l-6.7,5.7c-1.4,1.2-4,1.9-6,1.5l-0.6-0.1l-3.1,4.8
		c-1.3,2-2.7,4-4,6c-0.1,0.1-0.3,0.2-0.4,0.3l-0.8,1c-3.7,4.7-7.6,9.5-11.2,12.8l0,0c-2.2,2.2-4.7,3.9-6.1,4.3
		c-0.3,0.1-0.5,0.1-0.6,0.1c-0.3-0.8,1.1-4,2.1-5.7c2.2-4,4.8-7.8,7.3-11.5c1-1.5,2.1-3.1,3.1-4.6c1.7-2.6,4-6,5.5-7.7l-1.4-1.4
		c-1.4,1.2-3.9,1.9-5.8,1.5l-0.6-0.1l-0.4,0.5c-0.7,0.9-1.4,1.9-2,2.8c-0.1-0.6-0.3-1.3-0.7-1.8c-2.5-3.9-8.7-1-11.1,0.1
		c-4,2-8.9,6.2-12.4,11.3c-4,5-8.1,10-11.7,13.3c-2,1.7-3.8,2.9-4.8,3.2c-0.3,0.1-0.4,0.1-0.6,0.1s-0.2,0-0.2,0
		c-0.3-0.5,0.6-3.1,2.2-5.6c2.2-4,4.8-7.8,7.3-11.5c1-1.5,2.1-3.1,3.1-4.6c1.7-2.6,4-6,5.5-7.7l-1.4-1.4c-1.4,1.2-3.9,1.9-5.8,1.5
		l-0.7-0.1l-0.4,0.6c-0.9,1.5-2.2,3.3-3.7,5.4c-1.2,1.7-2.5,3.6-3.8,5.6c-0.9,1.1-1.9,2.3-2.9,3.5c-2.3,2.9-4.6,5.8-7,8.3l0,0
		c-3.7,3.9-7,6.2-8.9,6c-0.2,0-0.6-0.1-0.7-0.3c-0.4-0.7,0.8-3.1,1.2-3.9c0.1-0.3,0.2-0.5,0.3-0.7c2.1-4.3,4.7-8,7.4-12l1.3-1.9
		l31.7-48c2.6-3.8,5.9-8.6,7.5-10.6l-1.5-1.4c-1.2,1.1-3.6,1.8-5.5,1.6l-0.7-0.4l-1.5,2.1l0.1,0c-2.2,3.4-8.7,13.1-16.5,24.9
		c-5.9,8.8-12.7,19.1-19.6,29.5c-0.8,1.2-1.5,2.4-2.3,3.6c-0.9,1.1-1.8,2.2-2.7,3.3c-2.3,2.9-4.6,5.8-7,8.3l0,0
		c-3.7,3.9-7,6.2-8.9,6c-0.2,0-0.6-0.1-0.7-0.3c-0.4-0.7,0.8-3.1,1.2-3.9c0.1-0.3,0.2-0.5,0.3-0.7c2.1-4.3,4.7-8,7.4-12l1.3-1.9
		l31.7-48c2.6-3.8,5.9-8.6,7.5-10.6l-1.5-1.4c-1.2,1.1-3.6,1.8-5.5,1.6l-0.7-0.4l-1.5,2.1l0.1,0c-2.3,3.4-8.8,13.2-16.6,25.1
		c-5.8,8.8-12.6,19-19.5,29.3c-0.8,1.3-1.6,2.5-2.4,3.8c-4.2,5.3-8.5,10.7-12.4,14.1c-2,1.7-3.8,2.9-4.8,3.2
		c-0.3,0.1-0.5,0.1-0.6,0.1c-0.1,0-0.2,0-0.2,0c-0.3-0.5,0.6-3.1,2.2-5.6c2.2-4,4.8-7.8,7.3-11.5c1-1.5,2.1-3.1,3.1-4.6
		c1.7-2.6,4-6,5.5-7.7l-1.4-1.4c-1.4,1.2-3.9,1.9-5.8,1.5l-0.7-0.1l-0.4,0.6c-0.9,1.5-2.2,3.3-3.7,5.4c-2.1,3-4.4,6.3-6.4,9.7
		c-1.9,3.1-4.4,7.4-4.4,11.6c0,1.7,0.7,3.1,2,4c0.7,0.5,1.6,0.7,2.4,0.7c0.6,0,1.2-0.1,1.8-0.4c1.6-0.6,3.4-1.8,5.6-3.7
		c1.9-1.7,3.8-3.7,5.8-6c-0.1,0.3-0.2,0.5-0.3,0.8c-0.8,2.3-1,5.6,0.4,7.6c0.8,1.1,2,1.7,3.5,1.7c3.1,0,6.7-2.3,10.9-7
		c0.9-0.9,1.8-1.9,2.7-3c-0.1,0.2-0.1,0.4-0.2,0.6c-0.8,2.3-1,5.6,0.4,7.6c0.8,1.1,2,1.7,3.5,1.7c3.1,0,6.7-2.3,10.9-7
		c0.6-0.6,1.2-1.2,1.7-1.9c-0.4,1.3-0.7,2.7-0.7,4.1c0,1.7,0.7,3.1,2,4c0.7,0.5,1.6,0.7,2.4,0.7c0.6,0,1.2-0.1,1.8-0.4
		c1.6-0.6,3.4-1.8,5.6-3.7c2-1.8,4.1-4,6.2-6.4c-0.6,2.2-1,4.8-0.5,6.9c0.4,2,1.5,2.9,2.4,3.3c0.6,0.3,1.3,0.4,1.9,0.4
		c1.6,0,3.2-0.6,4.5-1.4c2.7-1.7,5.4-4.3,7.8-6.9c-0.3,1.2-0.5,2.4-0.5,3.6c0,1.6,0.7,3,1.9,3.9c1.2,0.9,2.9,1,4.3,0.5
		c2.5-0.8,5.1-2.9,6.8-4.7c-1.3,1.8-2.5,3.5-3.4,4.6l1.4,1.4c1.2-1.1,3.7-1.7,5.9-1.5l0.6,0.1l0.3-0.5c0.4-0.6,0.8-1.2,1.2-1.8
		c1.3-2,2.5-3.8,4-5.7c9.6-13.3,18-22.1,20.6-21.3c0.1,0.4-0.2,1.7-0.5,2.2l-0.1,0.1c-1.8,3.5-4.2,7-6.5,10.4c-1.3,2-2.7,4-4,6
		c-2.3,3.5-5.4,8.2-7.4,10.6l1.4,1.4c1.3-1.1,3.9-1.8,6-1.5l0.6,0.1l0.3-0.5c2.1-3.3,4.1-6.3,6.4-9.7c4.4-6.6,9.9-12.2,11.4-13.8
		c4.5-4.2,7.4-5.6,8.6-5.5c0.2,0,0.3,0,0.3,0c0,0.2-0.1,0.9-0.8,2.1c-1.5,2.4-3.1,4.8-4.7,7c-0.8,1.2-1.6,2.3-2.4,3.5
		c-0.3,0.5-0.6,1-1,1.4c-1.9,2.8-3.8,5.7-4.6,9c-0.5,1.9-0.1,4,0.9,5.4c0.8,1.1,2,1.6,3.5,1.6c1.7,0,3.4-1.1,5.1-2.2
		c4.5-3.2,9.7-9.7,15.6-17.2C2518,156.1,2517.8,155.4,2517.3,155z M2437.3,172.8c-1.6,0.9-2.8,1-3,0.8l-0.1-0.1
		c-0.4-0.6,0.3-4,3.7-10.6c2.1-4,5.5-9.5,10.2-13.7c1.3-1.2,3.9-3,5.8-3c0.1,0,0.2,0,0.3,0c0.6,0.1,1,0.3,1.4,0.8
		c0.6,0.9,0.4,3.1-1.8,6.6C2448.9,161.9,2441.9,170,2437.3,172.8z"/>
	<path class="st3" d="M2563.8,147.5c-2.2,1.1-4,3-5.7,4.9c-1.4,1.7-3,3.8-4.6,5.6c-0.7-4.6-2.6-8.7-3.5-13c1.4-1.1,2.7-2.1,4-3.4
		c2.4-2.2,3.4-4.2,3.7-5.8c0.1-0.9,0.1-2-0.6-2.7c-0.4-0.4-1-0.6-1.7-0.5c-1.6,0.1-3.2,1.2-4.3,2.5c-1.6,1.6-2.6,3.5-3.2,5.8
		c-0.4,1.7-0.4,3.5-0.1,5.3c-2.6,1.7-5.2,3.3-7.6,5.2c-2.2,1.8-4.4,3.5-5.7,6.1c-1.4,2.6-1.6,6.2,0.7,8.3c3.2,3,8.5,1.1,11.5-0.9
		c2-1.4,3.9-3.2,5.5-5c0.4,2.6,0,5.2-1.1,7.7c-1,2.4-2.9,4.5-4.9,6.1c-2.4,1.7-5.7,3-8.5,2.2c-0.3-0.1-0.4,0.2-0.1,0.2
		c3,0.7,6.2-0.4,8.8-2.2c2.1-1.4,4.1-3.6,5.3-6c1.4-2.7,2.1-6.3,1.7-9.4c1.7-1.9,3.3-4.1,4.9-5.9c1.6-1.9,3.3-3.9,5.5-4.9
		c0.9-0.3,2.2-0.4,2.7,0.5c-0.3,0.1-0.9,0.5-1.1,0.9c-0.4,0.7-0.4,1.6,0.1,1.7c1.3,0.5,2.7-2.1,1.6-3.3
		C2566.2,146.9,2564.7,147,2563.8,147.5z M2550,139.8c0.3-1.4,0.9-2.9,1.8-4.1c1-1.3,2.2-2.4,3.7-2.7c0.4-0.1,1,0,1.4,0.4
		c0.6,0.6,0.7,1.6,0.6,2.4c-0.4,2.1-2,4.2-3.5,5.7c-1.3,1.2-2.5,2.2-3.9,3.2C2549.7,143.1,2549.5,141.4,2550,139.8z M2546.5,164.6
		c-2.9,1.8-7.9,3.7-10.1,0.2c-1.2-1.9-0.9-4.3-0.1-6.3c0.9-2.4,2.6-4.5,4.4-6.3c2.2-2.1,4.6-3.9,7.1-5.5c1.1,4.6,3.5,8.5,4.3,12.9
		C2550.5,161.3,2548.7,163.2,2546.5,164.6z"/>
	<path class="st3" d="M2607.9,148.2c2.2,0.8,4.5,1.1,6.7,1.1c3.4,0,6.4-0.6,7.9-1c7.6-2,14.5-7.6,17.3-14c0.1-0.3,0.1-0.7,0-1
		c-0.1-0.3-0.4-0.5-0.7-0.6c-0.7-0.2-1.4,0.1-1.6,0.8c-2.2,5.5-9,11-15.6,12.5c-5.3,1.3-8.9,1.2-12.9-0.3c-3.6-1.3-6.8-4.7-8.3-8.7
		c-2-5.1-1.9-11.3,0.1-18.4c1.9-6.3,5.3-12.6,10-18.8c7.1-9.2,17.2-16.2,28.4-19.6c12.9-3.9,27-4.5,40.7-1.6c4.8,1,9.6,2.1,14.2,3.2
		c14.1,3.3,27.4,6.5,41.2,5.6c5.1-0.3,10.8-1.8,14.8-4c5.7-2.7,10.6-6.9,13.2-11.2c0.4-0.7,0.2-1.2,0.1-1.4l-0.4-0.6l-0.6,0
		c-0.4,0-0.8,0.2-1,0.6c-2.7,4-7.5,7.6-12.8,9.5c-4.8,1.7-10.8,2.3-13.9,2.5c-14.8,1-29-2-42.7-4.8c-3.9-0.8-7.9-1.6-11.8-2.4
		c-14.7-2.6-28.9-1.9-42,1.9c-11.7,3.3-22.8,9.9-31.2,18.6c-5.8,5.9-10.1,13-12.4,20.4c-2.4,7.9-1.8,16.2,1.7,22.3
		C2598.8,143.2,2602.7,146.4,2607.9,148.2z"/>
	<path class="st3" d="M2650,144.2c4.6-6.4,8.9-13.4,13.1-20.2c3.5-5.7,7.1-11.7,10.8-17c4-6,13.3-20.1,22.2-17.1l0.2,0.1h0.2
		c0.8,0,1.2-0.5,1.3-0.9c0.1-0.5-0.2-1.1-0.7-1.4l-0.1,0c-11.9-4.3-27.6,16.4-28.3,17.3c-7.1,9.4-12.9,18.5-18.4,27.3
		c-1.8,2.8-3.5,5.6-5.4,8.4l-0.3,0.5c-3.9,6.1-7.9,12.4-12.5,17.8c-5.9,7-12.5,14-21,18.1c-4.3,2.1-7.8,3-11.1,3
		c-4.2,0-9.7-1.6-11.5-6.3c-1.1-2.4-0.7-5.3,0.9-8.6c0.2-0.3,0.3-0.7,0.2-1.1c-0.2-0.4-0.5-0.7-1-0.7c-0.4,0-0.9,0.2-1.1,0.6
		c-1.7,2.3-2.8,7.2-1.5,10.7c2,5.4,8.5,8.2,13.9,8.2c4.1,0,8.2-0.9,12.6-2.7c10.1-4.2,18.2-12.1,23.3-17.7c5.3-5.7,9.5-11.6,14-17.8
		L2650,144.2z"/>
	<path class="st3" d="M2807.4,155.6c-0.1-0.4-0.5-0.8-1-0.8c-0.5-0.1-0.9,0.1-1.2,0.5c-2.1,2.3-3.8,3.8-5.3,4.5
		c-1.8,0.9-3.3,1-4.2,0.3c-0.8-0.6-1.1-1.9-0.9-3.5c0.2-1.1,1.2-3.5,2.2-4.8c5.3-3,8.2-5.8,8.6-8.4c0.1-0.9-0.1-1.6-0.8-2.1
		l-0.1-0.1c-1-0.8-2.9-0.4-4.4,0.9c-2.6,2-4.8,5-6.4,8.8c-1.1,0.8-3,2.2-5.2,4.2c0.8-1.6,1.5-3.2,2.2-4.9c0.8-2,0.8-3.9-0.1-5.1
		c-0.6-0.9-1.7-1.4-2.9-1.3c-3,0.3-7.7,5.5-12.3,11.3c-0.2,0.1-0.3,0.1-0.5,0.3l-0.1,0.1c-4.4,5.6-9.7,10.7-14.7,14.4
		c-3.6,2.6-6.9,4-9.2,3.8h0c-0.6,0-0.8-0.3-1-0.5c-0.6-1-0.3-3.2,0.2-4.5c0.9-2.7,1.8-5,3.6-7.5c6.2-1,15.9-6.7,18.4-10.9
		c1.1-1.7,1.2-3.5,0.4-4.9c-0.8-1.3-2.3-1.9-4.1-1.7c-5,0.5-10.9,5-13.2,6.9c-1.7,1.4-3.3,2.9-4.6,4.5c-0.3,0.1-0.5,0.3-0.6,0.5
		c-4.6,6-10.4,13.2-15,16.7c-1.5,1.3-3,1.8-3.4,1.7l0,0c-0.1-0.2-0.2-1,0.4-2.2c0.7-1.5,2.4-4.1,4.8-7.4c0.7-1,1.4-2,2.2-3.1
		c2.8-3.8,5.7-7.7,6.2-11.5c0.2-1.5-0.1-2.9-1-3.9c-0.9-1.1-2.3-1.7-4-1.8c-2.6-0.1-6.5,2.4-10.3,5.9c1.5-2.2,3-4.3,4-5.5l-1.4-1.4
		c-1.4,1.2-4,1.9-6,1.5l-0.6-0.1l-3.2,4.9c-1.4,2.2-2.9,4.4-4.3,6.6c-1.9,2-3.4,3.3-4.8,4c-1.8,0.9-3.3,1-4.2,0.3
		c-0.8-0.6-1.1-1.9-0.9-3.5c0.2-1.1,1.2-3.5,2.2-4.8c5.3-3,8.2-5.8,8.6-8.4c0.1-0.9-0.1-1.6-0.8-2.1l-0.1-0.1
		c-1-0.8-2.9-0.4-4.4,0.9c-2.6,2-4.8,5-6.4,8.8c-1.1,0.8-3,2.2-5.2,4.2c0.8-1.6,1.5-3.2,2.2-4.9c0.8-2,0.8-3.9-0.1-5.1
		c-0.6-0.9-1.7-1.4-2.9-1.3c-3.1,0.3-7.9,5.7-12.6,11.7c0,0,0,0,0,0c-0.8,1-1.6,2-2.5,3.1c-3.2,4-6.6,8.1-9.7,11
		c-2.1,2-4.6,3.7-5.7,4c-0.5,0.1-0.7,0-0.7,0v0c-0.4-0.5,0.7-3.4,2.1-5.7c2.2-4,4.8-7.8,7.3-11.5c1-1.5,2.1-3.1,3.1-4.6
		c1.7-2.6,4-6,5.5-7.7l-1.4-1.4c-1.4,1.2-3.9,1.9-5.8,1.5l-0.6-0.1l-0.4,0.5c-1,1.5-2,2.9-3,4.3c-1.5,2.3-3,4.4-4.2,6.2
		c-2.2,3.5-7.3,10.2-12.1,14.5c-3.5,3.2-5.9,4.2-7.1,4c-0.4-0.6,0.7-3.4,2.2-5.8c2.2-4,4.8-7.8,7.3-11.5c1-1.5,2.1-3.1,3.1-4.6
		c1.7-2.6,4-6,5.5-7.7l-1.4-1.4c-1.4,1.2-3.9,1.9-5.8,1.5l-0.7-0.1l-0.4,0.6c-1,1.6-2.4,3.6-3.9,5.7c-2,2.9-4.3,6.2-6.3,9.5
		c-2.1,3.2-4.4,7.5-4.4,11.6c0,2.7,1.8,4.5,4.3,4.5c0,0,0,0,0,0c0.2,0,0.4,0,0.6,0c2.7,0,5.4-1.8,8.7-4.6c1.2-1.1,2.5-2.4,3.6-3.6
		c-0.3,1.2-0.5,2.4-0.5,3.5c0,1.6,0.6,2.9,1.7,3.7c1.2,0.9,2.8,1.1,4.5,0.6c1.9-0.6,3.9-2,6.5-4.5c4.2-3.9,8.7-9.5,12.5-14.4l0,0
		c0,0,0,0,0,0c4.5-5.7,7.9-9.1,9.5-10.2c-0.6,1.3-1.9,3.3-2.6,4.4c-0.5,0.7-0.9,1.4-1.1,1.8c-1.4,2.2-2.8,4.3-4.3,6.5
		c-1.8,2.6-3.6,5.3-5.5,8.2c-1.9,3-4.5,6.6-6,8.5l1.5,1.4c1.3-1.2,3.8-1.8,5.8-1.5l0.6,0.1l3.4-5.1c1.4-2,2.4-3.5,3.2-4.7
		c3-4.4,7.7-8.8,10.7-11.2c-0.1,0.5-0.1,1-0.1,1.5c-0.3,2.6,0.4,4.6,2,5.8c1.6,1.1,3.8,1.1,6.1,0c-1.4,2.1-2.7,4.1-4.1,6.1l-0.1,0.2
		c-1.8,2.7-3.9,5.7-5.2,7.3l1.4,1.4c1.3-1.1,3.9-1.8,6-1.5l0.6,0.1l7-10.9c8.3-11.5,16.9-18.6,20.2-18.6c0.1,0,0.3,0,0.3,0.1
		c0.1,0.2,0,1-0.4,1.8c-1.9,3.3-4,6.4-6.2,9.4c-0.7,1-1.4,2-2.1,3c-2.3,3.1-3.8,6-4.4,8.5c-0.5,1.7-0.4,4.2,0.8,5.8
		c0.8,1,1.9,1.5,3.2,1.5c1.8,0,3.5-1.1,5.2-2.2c2.6-1.8,5.3-4.7,8.4-8.3c-0.1,0.5-0.2,1-0.3,1.6c-0.2,2.1,0,5.1,1.8,7
		c1.1,1.2,2.7,1.8,4.7,1.8c3.5,0,7.6-2.6,10.3-4.4l0.1-0.1c5.3-3.8,10.8-9.2,14.9-14.5c0.3-0.1,0.5-0.3,0.6-0.5
		c4.5-5.7,7.9-9.1,9.5-10.2c-0.6,1.3-1.9,3.3-2.6,4.4c-0.5,0.7-0.9,1.4-1.1,1.8c-1.4,2.2-2.8,4.3-4.3,6.5c-1.8,2.6-3.6,5.3-5.5,8.2
		c-1.9,3-4.5,6.6-6,8.5l1.5,1.4c1.3-1.2,3.8-1.8,5.8-1.5l0.6,0.1l3.4-5.1c1.4-2,2.4-3.5,3.2-4.7c3-4.3,7.7-8.7,10.6-11.2
		c-0.1,0.5-0.1,1,0,1.5c-0.3,2.6,0.4,4.6,2,5.7c1.7,1.2,4.1,1.1,6.6-0.2c2.1-1.1,4.2-2.9,6-5.1
		C2807.4,156.5,2807.5,156,2807.4,155.6z M2768.9,146.1c0.9-0.1,1.5,0.1,1.8,0.4c0.3,0.5,0.2,1.3-0.4,2.2c-1.7,3.1-8.9,7.6-14.2,9.2
		C2760,152.8,2765.7,146.7,2768.9,146.1z M2805.6,155.5L2805.6,155.5C2805.6,155.5,2805.6,155.5,2805.6,155.5
		C2805.6,155.5,2805.6,155.5,2805.6,155.5z"/>
</g>
<path class="st1" d="M3045-883.2H2017H0v52h2023.7c17.7,0,34.1,8.8,44,23.4l21.9,32.6c6.7,10,18,16,30,16h822.7c12,0,23.3-6,30-16
	l21.9-32.6c9.9-14.6,26.4-23.4,44-23.4H5062v-52H3045z"/>
<path class="st2" d="M5062-987.2H3005h-948H0v104h2074.3c19.3,0,36.8,11.1,45,28.6l46,97.8c9.9,21.1,31.2,34.6,54.5,34.6h622.5
	c23.3,0,44.6-13.5,54.5-34.6l46-97.8c8.2-17.4,25.7-28.6,45-28.6H5062V-987.2z"/>
<g>
	<path class="st4" d="M2392.4-857.4c-0.2,0.3-0.4,0-0.2-0.2c2-2.7,2.7-6.1,0.6-9.3c-1.3-2-3.7-3.3-6.2-3.6
		c-5.1-0.8-10.6,0.8-15.3,3.7c-6.1,3.7-12.5,10.1-19,17.2c-7.8,8.5-15.8,18.6-23.3,28c-9.2,11.7-17.7,22.4-24.7,29
		c-3.9,3.6-7.3,6-10.2,6.4c-0.5,0.1-0.6-0.1-0.1-0.3c4.6-2.2,7.6-8.9,9.8-13.5c6-12.3,9.9-27.1,16.5-42.3
		c3.4-7.5,8.3-15.4,15.2-20.5c-5.5,3.1-12.2,10-19.4,18.6c-5.2,6.3-10.8,13.5-16.3,20.5c-7.6,9.7-14.8,19.2-21.2,26.1
		c-6.4,6.8-11.7,11.2-15.6,11.2c-0.4,0-0.5-0.2-0.1-0.3c4.8-2,7.7-6.7,10.1-10.9c3.9-6.9,6.9-14.2,9.8-21.4
		c3.6-8.9,7.3-19.3,12.4-28.3c3.3-5.7,7-10.8,12.3-14.6c-5.7-1.1-10.5-2.3-17.1-3c-7.5-0.8-15.3-0.1-21.9,2.6
		c-12.4,5-21.4,13.7-25.5,27c-1.1,3.4-1.9,9.9-0.3,14.7c1.5,4.6,5.9,8.4,11.1,9c7.6,0.8,14.6-4.4,19.4-11.1c0.1-0.2,0.4,0,0.3,0.3
		c-4.4,6.3-11.6,12-19.8,11.6c-5.5-0.3-10.6-3.6-13-8.9c-2.4-5.1-2.3-11.1-0.8-16.5c3.6-13,15.3-23,28.4-27
		c7.9-2.3,14.5-2.9,22.2-2.2c5.9,0.6,11.8,2,17.7,3c2.5-1.7,5.7-2.9,8.7-3.3c1.6-0.2,4.8-0.1,4.8,1.3c-0.1,1.1-1.7,2-4.3,2.5
		c-2.7,0.5-5.4,0.4-8.1,0.1c-4.7,4-7.6,9.7-10.4,15.1c-4.8,9.3-8.8,19.2-13.1,28.8c-3.2,7.1-6.6,14.6-11.1,21.2
		c-2.5,3.6-5.3,7.1-9,9.2c3.2-1.3,7.4-4.8,12.7-10.6c6.4-6.9,13.6-16.3,21.1-25.9c5.5-7,11.1-14.3,16.3-20.6
		c6.1-7.2,11.8-13.2,16.7-16.9c4.6-3.4,12-7.3,17.7-5.1c0.2,0.1,0.1,0.3-0.1,0.2c-5.5-2-12.2,1.7-15.9,5.9c-2.2,2.4-3.8,5.2-5.3,8.2
		c-5.7,12.3-11,25.1-16.3,37.6c-2.2,5.3-4.4,10.6-7.3,15.6c-2.5,4.3-5,8.8-9.2,11.6c2.3-1.1,4.9-3,7.8-5.7
		c7-6.7,15.8-17.7,24.6-28.9c7.6-9.5,15.6-19.6,23.4-28.2c6.4-6.9,12.6-13,18.6-16.9c4.5-2.9,10.8-6.1,16.3-5.3
		c2.5,0.4,5.3,1.8,6.4,3.5C2395.7-865.2,2394.6-860.7,2392.4-857.4z M2309.7-862.1c3.2,0.3,5.9,0.2,7.8-0.2c2.3-0.6,3.6-1.4,3.6-2
		c0.1-1.1-2.6-1.2-4.3-1C2314.3-864.9,2311.6-863.8,2309.7-862.1z"/>
	<path class="st4" d="M2335.2-814c1.8,0.3,4-0.3,5.3-1.4c-1.1,1.3-2.9,3.9-4.4,6.2c-2.7,4.1-5.8,8.3-8.3,12.8
		c-0.5,0.8-3.8,6.4-0.3,5.6c1.1-0.3,2.7-1.4,4.2-2.7c3.3-2.9,7-7.6,10.5-12c0.1-0.2,0.4,0,0.3,0.2c-3.5,4.4-7.2,9-10.6,12
		c-1.5,1.3-2.9,2.3-4.2,2.8c-1.9,0.8-3.9-0.4-3.9-2.7c0-3.1,1.9-6.3,3.4-8.8C2329.9-806.5,2333.4-811.1,2335.2-814z M2340.4-826.1
		c1.2-1.7,2.7-2.7,3.5-2.2s0.4,2.2-0.7,3.9c-1.2,1.7-2.7,2.7-3.5,2.2C2339-822.7,2339.3-824.5,2340.4-826.1z"/>
	<path class="st4" d="M2347.8-795.7c2.8-2.9,5.6-6.7,8.1-9.7c0.1-0.2,0.5-0.1,0.3,0.2c-2.6,3.2-5.4,6.9-8.1,9.7
		c-2.9,3.2-5.7,5.3-8.1,5.3c-3.2,0-3.2-4.1-2.4-6.4c1.4-4.1,3.7-7.7,6-11.3c15.4-23.2,30.1-45.3,29.4-44.3c1.8,0.3,4.1-0.3,5.3-1.4
		c-1.4,1.8-4.3,6-6,8.5l-25.2,38.2c-2.5,3.7-5,7.2-7,11.2c-0.6,1.3-2.7,4.8,0,5C2342-790.5,2344.9-792.6,2347.8-795.7z"/>
	<path class="st4" d="M2361.6-795.7c2.8-2.9,5.6-6.7,8.1-9.7c0.1-0.2,0.5-0.1,0.3,0.2c-2.6,3.2-5.4,6.9-8.1,9.7
		c-2.9,3.2-5.7,5.3-8.1,5.3c-3.2,0-3.2-4.1-2.4-6.4c1.4-4.1,3.7-7.7,6-11.3c15.4-23.2,30.1-45.3,29.4-44.3c1.8,0.3,4.1-0.3,5.3-1.4
		c-1.4,1.8-4.3,6-6,8.5l-25.2,38.2c-2.5,3.7-5,7.2-7,11.2c-0.6,1.3-2.7,4.8,0,5C2355.8-790.5,2358.7-792.6,2361.6-795.7z"/>
	<path class="st4" d="M2375.5-814c1.8,0.3,4-0.3,5.3-1.4c-1.1,1.3-2.9,3.9-4.4,6.2c-2.7,4.1-5.8,8.3-8.3,12.8
		c-0.5,0.8-3.8,6.4-0.3,5.6c1.1-0.3,2.7-1.4,4.2-2.7c3.3-2.9,7-7.6,10.5-12c0.1-0.2,0.4,0,0.3,0.2c-3.5,4.4-7.2,9-10.6,12
		c-1.5,1.3-2.9,2.3-4.2,2.8c-1.9,0.8-3.9-0.4-3.9-2.7c0-3.1,1.9-6.3,3.4-8.8C2370.2-806.5,2373.7-811.1,2375.5-814z M2380.7-826.1
		c1.2-1.7,2.7-2.7,3.5-2.2s0.4,2.2-0.7,3.9c-1.2,1.7-2.7,2.7-3.5,2.2C2379.3-822.7,2379.6-824.5,2380.7-826.1z"/>
	<path class="st4" d="M2399.8-794.4c3.1-2.9,6.4-7.1,9.6-11.1c0.1-0.2,0.4,0,0.3,0.2c-3.2,4-6.5,8.2-9.6,11.1
		c-1.8,1.8-3.7,3.2-5.3,3.7c-1.9,0.7-3.9-0.4-3.9-2.7c0-3.1,1.9-6.3,3.4-8.8c-2.6,3.6-6.6,8.4-10.4,10.8c-2,1.2-5.2,1.8-5.8-1.3
		c-0.6-2.5,0.6-6.3,1.3-7.9c2.2-5.4,7.4-10.4,11.6-12.5c1.9-0.9,6.2-2.9,7.8-0.4c1.1,1.6,0.2,3.6-0.6,5.2c1.3-2,2.7-4,4.1-5.9
		c1.8,0.3,4-0.3,5.3-1.4c-1.1,1.3-2.9,3.9-4.4,6.2c-2.7,4.1-5.8,8.3-8.3,12.8c-0.5,0.8-3.6,6.6-0.3,5.6
		C2395.9-791.1,2398-792.6,2399.8-794.4z M2383.9-791.5c3.6-2.2,9.2-8.5,13.4-15.5c1.7-2.7,2.2-4.9,1.4-6.1
		c-1.7-2.4-5.5,0.1-7.1,1.6c-3.4,3-6.2,7.1-8.3,11.1c-1.3,2.5-3.8,7.8-2.9,9.2C2380.8-790.3,2382.5-790.7,2383.9-791.5z"/>
	<path class="st4" d="M2434.3-792.1c3.5-2.6,7.8-7.8,12.1-13.4c0.2-0.3,0.5-0.1,0.3,0.2c-4.3,5.5-8.6,10.9-12.2,13.5
		c-1.2,0.8-2.5,1.6-3.6,1.6c-2.5,0-3.2-2.7-2.7-4.6c0.7-3,2.6-5.5,4.3-8.1c1.9-2.8,3.9-5.5,5.7-8.4c0.5-0.8,1.6-2.9-0.3-2.9
		c-1.5-0.1-4.3,1.7-7.4,4.6c-2.7,2.7-6.4,6.9-9.2,11.1c-1.8,2.7-3.4,5.1-5.1,7.7c-1.8-0.2-4.1,0.3-5.4,1.4c1.6-2,4.2-5.9,5.9-8.5
		c2.7-4.3,6.1-8.7,8.4-13.1c0.4-0.6,1-2.6,0.1-2.9c-3.4-1.4-13.3,11.5-17.4,17.2c-1.5,2-2.7,3.9-4.1,6c-1.8-0.2-4.1,0.3-5.3,1.4
		c1.8-2.2,5.7-8,7-10c2.5-3.7,5-7.6,7.5-11.3l2.2-3.4c1.8,0.3,4.1-0.3,5.4-1.4c-4.7,6.3-7.4,10.8-10,14.5
		c5.9-7.6,11.5-13.9,15.1-13.5c2.2,0.3,2.6,2.7,2.1,4.5c-0.8,2.7-2,4.8-3.4,7.1c2.1-2.7,4.1-5,6.1-6.9c2.3-2.2,5.5-4.7,7.7-4.8
		c2.5-0.1,3.2,2.5,2.7,4.3c-0.8,3.4-3.4,6.5-5.5,9.5c-1.6,2.3-3.5,5-4.6,7c-0.6,1-1.3,3.2,0.4,3.2
		C2431.9-790.6,2433.2-791.3,2434.3-792.1z"/>
	<path class="st3" d="M2515.6-814.5c-0.7-0.3-0.8-1.6-0.1-2.8c0.4-0.7,1.3-1.4,1.8-1.5c-0.8-1.5-2.9-1.3-4.3-0.8
		c-3.6,1.5-6.4,4.8-8.9,7.8c-2.5,2.9-5.1,6.4-7.8,9.5c0.7,5-0.5,10.7-2.7,15.1c-1.9,3.9-5.1,7.4-8.5,9.7c-4.2,2.9-9.4,4.7-14.2,3.5
		c-0.5-0.1-0.4-0.6,0.1-0.4c4.6,1.3,9.9-0.7,13.7-3.5c3.3-2.5,6.3-6,7.9-9.8c1.7-3.9,2.4-8.1,1.7-12.3c-2.5,2.8-5.6,5.7-8.8,8
		c-4.8,3.3-13.2,6.4-18.4,1.5c-3.7-3.5-3.3-9.2-1.1-13.4c2.2-4.1,5.6-6.9,9.2-9.8c3.9-3.1,8.1-5.7,12.2-8.4
		c-0.6-2.8-0.6-5.7,0.1-8.5c0.9-3.6,2.6-6.7,5.1-9.3c1.8-2,4.4-3.8,6.9-4c1.1-0.1,2.1,0.1,2.7,0.8c1.1,1.1,1.1,2.9,0.9,4.3
		c-0.4,2.5-2.1,5.8-5.9,9.3c-2.1,2-4.1,3.7-6.4,5.4c1.4,7,4.5,13.5,5.6,20.9c2.5-2.9,5.1-6.3,7.4-9c2.7-3.1,5.5-6.2,9.1-7.9
		c1.5-0.7,3.9-0.9,5.2,0.3C2520-817.9,2517.7-813.7,2515.6-814.5z M2487.4-821.5c-4,2.7-7.9,5.6-11.4,8.9c-2.9,2.9-5.7,6.2-7.1,10.1
		c-1.3,3.3-1.8,7.1,0.1,10.2c3.5,5.7,11.6,2.6,16.2-0.3c3.4-2.2,6.4-5.3,9.1-8.1C2493-807.9,2489.2-814.1,2487.4-821.5z
		 M2502.6-838.8c0.2-1.3,0.1-3-0.9-3.9c-0.6-0.6-1.5-0.7-2.2-0.6c-2.3,0.4-4.3,2.2-5.9,4.3c-1.4,1.9-2.4,4.3-2.9,6.6
		c-0.7,2.6-0.4,5.3,0,7.8c2.2-1.6,4.1-3.2,6.2-5.1C2499.4-832.1,2502-835.5,2502.6-838.8z"/>
	<path class="st4" d="M2599.2-845.7c3.6-4.8,14.1-16.2,21.6-13.5c0.2,0.1,0.2,0.3-0.1,0.3c-7.5-2.5-14.9,8.3-18.6,13.9
		c-6.4,9.2-12.2,20.2-19,29.6c-3.6,5-7.1,9.9-11.4,14.5c-5.1,5.5-11.1,10.9-18.3,13.9c-3.1,1.3-6.3,2.1-9.7,2.1
		c-3.8,0-8.8-1.9-10.3-6c-0.9-2.5-0.2-6.1,1.1-7.8c0.1-0.2,0.4-0.1,0.2,0.1c-1.4,2.7-1.8,5.3-0.8,7.6c1.5,3.8,5.9,5.5,9.9,5.5
		c3.2,0,6.3-1.1,9.2-2.5c6.5-3.1,11.6-8.2,17-14.6c3.8-4.5,7.1-9.7,10.3-14.7C2586.3-826.6,2591.8-835.9,2599.2-845.7z
		 M2651.6-861.1c-14.6,0.9-28.7-3.9-43.9-7c-10.6-2.2-21.9-2-32.8,1.3c-9.1,2.8-17.2,8.4-23,15.9c-3.5,4.6-6.4,9.7-8.1,15.2
		c-1.4,4.8-2,10.3-0.1,15.2c1.2,3.2,3.8,6.2,7.1,7.4c3.4,1.3,6.5,1.3,10.7,0.3c5.3-1.2,11.1-5.6,13-10.4c0.1-0.3,0.5-0.2,0.4,0.1
		c-2,4.6-7.1,9-13.2,10.6c-3.1,0.8-7.6,1.3-11.2,0c-3.7-1.3-6.8-3.6-8.8-7.2c-2.9-5-3-11.6-1.3-17.1c1.9-6,5.3-11.4,9.7-15.9
		c6.7-6.9,15.3-12,24.5-14.6c11-3.2,22.2-3.4,33.1-1.5c14.2,2.6,28.4,6.7,43.6,5.7c3.7-0.2,8-0.8,11.3-2c4.1-1.5,8.2-4.3,10.6-7.9
		c0.1-0.2,0.3-0.1,0.1,0.2c-2.2,3.6-6.2,6.7-10.2,8.6C2659.8-862.4,2655.3-861.3,2651.6-861.1z"/>
	<path class="st4" d="M2583.9-793.1c0-3.1,1.8-6.3,3.4-8.8c2.8-4.5,6.2-9.1,8.1-12.1c1.8,0.3,4-0.3,5.3-1.4
		c-1.1,1.3-2.9,3.9-4.4,6.2c-2.7,4.1-5.8,8.3-8.3,12.8c-0.5,0.8-3.2,5.5-1.1,5.8c1.5,0.2,3.9-1.3,6.2-3.4c3.7-3.3,7.8-8.6,9.8-11.7
		c1.6-2.4,3.6-5.3,5.7-8.4c1.8,0.3,4-0.3,5.3-1.4c-1.1,1.3-2.9,3.9-4.4,6.2c-2.7,4.1-5.8,8.3-8.3,12.8c-0.5,0.8-3.7,6.4-0.3,5.7
		c1.1-0.3,3.2-1.8,4.9-3.4c3.2-2.9,6.6-7.4,9.8-11.3c0.1-0.2,0.4,0,0.3,0.2c-3.2,4.1-6.7,8.4-9.9,11.4c-1.8,1.7-3.4,2.9-4.9,3.4
		c-2,0.6-3.9-0.4-3.9-2.7c0-2.6,1.3-5.3,2.7-7.6c-2,2.5-4.3,5.1-6.5,7.1c-2.6,2.2-4.7,3.6-6.8,3.4
		C2585-790.3,2583.9-791.4,2583.9-793.1z"/>
	<path class="st4" d="M2630.1-808.5c-1.3,0.8-7.3,5.8-10.6,10.6c-1.1,1.6-2.5,3.7-5,7.4c-1.8-0.3-4.1,0.3-5.3,1.4
		c1.1-1.4,3.2-4.3,4.8-6.8c2.7-4.3,5.3-7.8,7.8-11.7c1-1.7,4.2-6.2,3.2-6.4c-1.6-0.5-6.9,5.9-9.1,8.7c-0.1,0.2-0.5,0.1-0.3-0.2
		c2.4-3,7.1-8.8,9.5-9c1.9-0.1,2.5,1.8,1.6,4c-1.2,3.2-2.7,5.8-5.1,9.5c3.2-3.8,6.9-6.7,8.9-8.1c1.1-2.7,2.7-5.2,4.9-6.9
		c0.9-0.8,2-1.1,2.5-0.7c0.1,0.1,0.5,0.3,0.4,1c-0.4,2.4-4.1,4.8-6.6,6.2c-0.9,1.1-1.8,3.3-2,4.3c-0.5,3.7,1.9,5,5.2,3.4
		c1.5-0.7,3-2.1,4.5-3.8c0.2-0.3,0.5,0,0.3,0.2c-1.5,1.8-3.1,3.1-4.6,3.9c-3.4,1.8-6.2,0.2-5.7-3.7
		C2629.3-806.1,2629.6-807.5,2630.1-808.5z"/>
	<path class="st4" d="M2633.6-790.7c-1.8-0.2-4.1,0.3-5.4,1.4c1.1-1.3,2.8-3.8,4.3-6c3.4-5,6.7-10.2,10-15.2l2.3-3.5
		c1.8,0.3,4.1-0.3,5.4-1.4c-2.2,2.6-7.4,10.7-7.4,10.7l-0.8,1.2c5.1-6.1,10.9-11,13.8-10.9c2.2,0.1,3.5,1.5,3.2,3.6
		c-0.5,3.7-4.2,7.8-6.6,11.3c-1.1,1.5-3.1,4.3-3.9,6c-0.8,1.6-0.5,2.8,0.2,2.9c0.8,0.2,2.3-0.6,3.4-1.5c3.5-2.6,7.8-7.8,12.1-13.4
		c0.2-0.3,0.5-0.1,0.3,0.2c-4.3,5.5-8.6,10.9-12.2,13.5c-1.2,0.8-2.5,1.6-3.7,1.6c-2.5,0-2.9-3-2.4-4.8c0.6-2.3,2-4.6,3.4-6.5
		c2.2-3.2,4.6-6.4,6.6-9.9c0.6-1,0.9-2.7-0.6-2.7c-3.2,0-10.4,6.4-16.7,15.1L2633.6-790.7z"/>
	<path class="st4" d="M2664.2-790.7c2,0.1,4.7-1,7.8-3.2c3.7-2.7,8-6.7,11.9-11.6c0.1-0.1,0.4,0,0.3,0.2c-3.5,4.6-8.1,8.9-12,11.7
		c-2,1.3-5.2,3.4-7.8,3.4c-4.1,0-4.6-3.6-4.4-6.2c0.3-2.9,1.7-5.2,3.2-7.5c1.3-2,3-3.8,5-5.4c2.9-2.4,6.9-5,10.1-5.3
		c2.5-0.3,3.6,1.8,2.2,4c-1.9,3.2-9.7,7.8-14.4,8.4c-1.7,2.3-2.5,4.3-3.2,6.5C2662.3-794.2,2661.8-790.8,2664.2-790.7z
		 M2678.3-814.2c-3.5,0.6-9.5,7.9-12,11.5c4.2-0.5,12.1-5,13.9-8.2C2681.3-812.7,2680.7-814.5,2678.3-814.2z"/>
	<path class="st4" d="M2698.6-808.5c-1.3,0.8-7.3,5.8-10.6,10.6c-1.1,1.6-2.5,3.7-5,7.4c-1.8-0.3-4.1,0.3-5.3,1.4
		c1.1-1.4,3.2-4.3,4.8-6.8c2.7-4.3,5.3-7.8,7.8-11.7c1-1.7,4.2-6.2,3.2-6.4c-1.6-0.5-6.9,5.9-9.1,8.7c-0.1,0.2-0.5,0.1-0.3-0.2
		c2.4-3,7.1-8.8,9.5-9c1.9-0.1,2.5,1.8,1.6,4c-1.2,3.2-2.7,5.8-5.1,9.5c3.2-3.8,6.9-6.7,8.9-8.1c1.1-2.7,2.7-5.2,4.9-6.9
		c0.9-0.8,2-1.1,2.5-0.7c0.1,0.1,0.5,0.3,0.4,1c-0.4,2.4-4.1,4.8-6.6,6.2c-0.9,1.1-1.8,3.3-2,4.3c-0.5,3.7,1.9,5,5.2,3.4
		c1.5-0.7,3-2.1,4.5-3.8c0.2-0.3,0.5,0,0.3,0.2c-1.5,1.8-3.1,3.1-4.6,3.9c-3.4,1.8-6.2,0.2-5.7-3.7
		C2697.7-806.1,2698.1-807.5,2698.6-808.5z"/>
	<path class="st3" d="M2729.2-786.9c6.6-4.7,13-10.2,19.8-18.6c0.2-0.2,0.5-0.1,0.3,0.2c-7.1,8.8-13.7,14.4-20.6,19.2
		c-5.3,7.9-10.4,15.9-16,23.5c-3.4,4.6-7.4,8.8-12,12.1c-1.4,1.1-4.6,2.9-6.4,2c-0.6-0.3-1-0.8-1.1-1.6c-0.4-2.6,1.7-7.4,5.7-12.5
		c4.5-5.6,9.2-9.7,14.4-13.3c2.9-2,5.8-4.1,8.8-6c4.2-6.8,8.5-13.6,13-20.2c-2.6,3.6-6.6,8.4-10.4,10.8c-2,1.2-5.2,1.8-5.8-1.3
		c-0.6-2.5,0.6-6.3,1.3-7.9c2.3-5.3,7.5-10.4,11.7-12.5c1.9-0.9,6.2-2.9,7.8-0.4c1,1.5,0.2,3.6-0.6,5.2c1.3-2,2.7-4,4.1-5.9
		c1.8,0.3,4-0.3,5.3-1.4c-1.1,1.3-2.9,3.9-4.4,6.2C2744.3-810,2735.5-796.4,2729.2-786.9z M2700.2-750.9c3.8-3,7.4-8.3,10.4-13
		c3.7-5.7,7.3-11.5,10.9-17.2c-2.7,1.7-5.7,3.8-8.3,5.6c-5,3.6-9.8,7.6-14.2,13.2c-3.9,5-6.2,9.8-5.7,12.2c0.1,0.6,0.5,1.2,0.9,1.4
		C2695.8-747.9,2698.6-749.7,2700.2-750.9z M2724.3-791.5c3.6-2.2,9.2-8.5,13.4-15.5c1.7-2.7,2.2-4.9,1.4-6.1
		c-1.7-2.4-5.5,0.1-7.1,1.6c-3.4,3-6.2,7.1-8.3,11.1c-1.3,2.5-3.8,7.8-2.9,9.2C2721.3-790.3,2723-790.7,2724.3-791.5z"/>
	<path class="st3" d="M2763.6-808.5c-1.3,0.8-7.3,5.8-10.6,10.6c-1.1,1.6-2.5,3.7-5,7.4c-1.8-0.3-4.1,0.3-5.3,1.4
		c1.1-1.4,3.2-4.3,4.8-6.8c2.7-4.3,5.3-7.8,7.8-11.7c1-1.7,4.2-6.2,3.2-6.4c-1.6-0.5-6.9,5.9-9.1,8.7c-0.1,0.2-0.5,0.1-0.3-0.2
		c2.4-3,7.1-8.8,9.5-9c1.9-0.1,2.5,1.8,1.6,4c-1.2,3.2-2.7,5.8-5.1,9.5c3.2-3.8,6.9-6.7,8.9-8.1c1.1-2.7,2.7-5.2,4.9-6.9
		c0.9-0.8,2-1.1,2.5-0.7c0.1,0.1,0.5,0.3,0.4,1c-0.4,2.4-4.1,4.8-6.6,6.2c-0.9,1.1-1.8,3.3-2,4.3c-0.5,3.7,1.9,5,5.2,3.4
		c1.5-0.7,3-2.1,4.5-3.8c0.2-0.3,0.5,0,0.3,0.2c-1.5,1.8-3.1,3.1-4.6,3.9c-3.4,1.8-6.2,0.2-5.7-3.7
		C2762.7-806.1,2763.1-807.5,2763.6-808.5z"/>
	<path class="st3" d="M2790.8-795c2.9-2.9,6-6.8,8.9-10.4c0.1-0.1,0.4,0,0.3,0.2c-2.9,3.8-6,7.6-8.9,10.5c-2.1,2.1-4.2,3.8-6,4.3
		c-1.9,0.6-3.9-0.4-3.9-2.7c0-3.1,1.9-6.3,3.4-8.8c-2.6,3.6-6.6,8.4-10.4,10.8c-2,1.2-5.2,1.8-5.8-1.3c-0.6-2.5,0.6-6.2,1.3-7.9
		c2.2-5.4,7.4-10.4,11.6-12.5c1.9-0.9,6.2-2.9,7.8-0.4c1,1.5,0.2,3.6-0.6,5.2c1.4-2.2,3.1-4.2,23.4-35.3l5.7-8.7
		c1.8,0.3,4.1-0.3,5.4-1.4c-1.1,1.3-2.8,3.7-4.3,6l-21.5,32.6c-4.1,6.2-8.3,12.3-12,18.5c-0.5,0.8-3.9,6.4-0.4,5.6
		C2786.5-791.1,2788.7-792.9,2790.8-795z M2774.2-791.5c3.6-2.2,9.2-8.5,13.4-15.5c1.7-2.7,2.2-4.9,1.4-6.1
		c-1.7-2.4-5.5,0.1-7.1,1.6c-3.4,3-6.2,7.1-8.3,11.1c-1.3,2.5-3.8,7.8-2.9,9.2C2771.1-790.3,2772.8-790.7,2774.2-791.5z"/>
</g>
<g>
	<path class="st1" d="M2401.8,229.9v-19.1h2.4v19.1H2401.8z"/>
	<path class="st1" d="M2417.8,229.9v-9c0-2.4-1.2-3.2-3.1-3.2c-1.7,0-3.3,1-4.1,2.1v10.1h-2.1v-13.8h2.1v2c1-1.1,2.9-2.3,4.9-2.3
		c2.9,0,4.4,1.5,4.4,4.5v9.7H2417.8z"/>
	<path class="st1" d="M2424.7,227v-9h-2.3v-1.9h2.3v-3.8h2.1v3.8h2.8v1.9h-2.8v8.6c0,1,0.5,1.8,1.4,1.8c0.6,0,1.2-0.3,1.5-0.6
		l0.6,1.6c-0.5,0.5-1.3,0.9-2.6,0.9C2425.7,230.2,2424.7,229.1,2424.7,227z"/>
	<path class="st1" d="M2431.9,223c0-4,2.9-7.2,6.8-7.2c4.2,0,6.6,3.3,6.6,7.4v0.5h-11.2c0.2,2.6,2,4.8,5,4.8c1.6,0,3.2-0.6,4.3-1.7
		l1,1.4c-1.4,1.4-3.2,2.1-5.5,2.1C2434.8,230.2,2431.9,227.3,2431.9,223z M2438.6,217.5c-2.9,0-4.4,2.5-4.5,4.6h9.1
		C2443.1,220.1,2441.8,217.5,2438.6,217.5z"/>
	<path class="st1" d="M2448.7,229.9v-13.8h2.1v2.2c1.1-1.5,2.7-2.5,4.6-2.5v2.2c-0.3-0.1-0.5-0.1-0.9-0.1c-1.3,0-3.1,1.1-3.7,2.2
		v9.8H2448.7z"/>
	<path class="st1" d="M2467.5,229.9v-9c0-2.4-1.2-3.2-3.1-3.2c-1.7,0-3.3,1-4.1,2.1v10.1h-2.1v-13.8h2.1v2c1-1.1,2.9-2.3,4.9-2.3
		c2.9,0,4.4,1.5,4.4,4.5v9.7H2467.5z"/>
	<path class="st1" d="M2482.5,229.9v-1.6c-1.1,1.3-2.7,1.9-4.6,1.9c-2.3,0-4.8-1.6-4.8-4.6c0-3.1,2.5-4.5,4.8-4.5
		c1.9,0,3.5,0.6,4.6,1.9v-2.5c0-1.9-1.5-2.9-3.5-2.9c-1.7,0-3,0.6-4.2,1.9l-1-1.5c1.5-1.5,3.3-2.3,5.5-2.3c2.9,0,5.3,1.3,5.3,4.7
		v9.5H2482.5z M2482.5,227v-2.6c-0.8-1.1-2.3-1.7-3.8-1.7c-2,0-3.4,1.3-3.4,3c0,1.7,1.4,3,3.4,3
		C2480.3,228.7,2481.7,228.1,2482.5,227z"/>
	<path class="st1" d="M2489.4,227v-9h-2.3v-1.9h2.3v-3.8h2.1v3.8h2.8v1.9h-2.8v8.6c0,1,0.5,1.8,1.4,1.8c0.6,0,1.2-0.3,1.5-0.6
		l0.6,1.6c-0.5,0.5-1.3,0.9-2.6,0.9C2490.4,230.2,2489.4,229.1,2489.4,227z"/>
	<path class="st1" d="M2497,212.7c0-0.8,0.7-1.5,1.4-1.5c0.8,0,1.5,0.7,1.5,1.5c0,0.8-0.7,1.4-1.5,1.4
		C2497.7,214.1,2497,213.5,2497,212.7z M2497.4,229.9v-13.8h2.1v13.8H2497.4z"/>
	<path class="st1" d="M2503,223c0-4,2.6-7.2,6.8-7.2s6.8,3.2,6.8,7.2c0,4-2.6,7.3-6.8,7.3S2503,227,2503,223z M2514.4,223
		c0-2.8-1.6-5.3-4.6-5.3s-4.6,2.5-4.6,5.3c0,2.8,1.7,5.3,4.6,5.3S2514.4,225.8,2514.4,223z"/>
	<path class="st1" d="M2529.5,229.9v-9c0-2.4-1.2-3.2-3.1-3.2c-1.7,0-3.3,1-4.1,2.1v10.1h-2.1v-13.8h2.1v2c1-1.1,2.9-2.3,4.9-2.3
		c2.9,0,4.4,1.5,4.4,4.5v9.7H2529.5z"/>
	<path class="st1" d="M2544.5,229.9v-1.6c-1.1,1.3-2.7,1.9-4.6,1.9c-2.3,0-4.8-1.6-4.8-4.6c0-3.1,2.5-4.5,4.8-4.5
		c1.9,0,3.5,0.6,4.6,1.9v-2.5c0-1.9-1.5-2.9-3.5-2.9c-1.7,0-3,0.6-4.2,1.9l-1-1.5c1.5-1.5,3.3-2.3,5.5-2.3c2.9,0,5.3,1.3,5.3,4.7
		v9.5H2544.5z M2544.5,227v-2.6c-0.8-1.1-2.3-1.7-3.8-1.7c-2,0-3.4,1.3-3.4,3c0,1.7,1.4,3,3.4,3
		C2542.2,228.7,2543.7,228.1,2544.5,227z"/>
	<path class="st1" d="M2550.9,229.9v-19.1h2.1v19.1H2550.9z"/>
	<path class="st1" d="M2564.1,220.4c0-5.9,4.4-9.9,9.8-9.9c3.4,0,5.7,1.5,7.4,3.6l-1.9,1.2c-1.2-1.5-3.2-2.6-5.5-2.6
		c-4.2,0-7.3,3.2-7.3,7.7c0,4.5,3.2,7.8,7.3,7.8c2.3,0,4.2-1.1,5.1-2.1v-3.9h-6.5v-2.1h8.9v6.9c-1.8,2-4.4,3.3-7.5,3.3
		C2568.4,230.3,2564.1,226.3,2564.1,220.4z"/>
	<path class="st1" d="M2585.1,229.9v-13.8h2.1v2.2c1.1-1.5,2.7-2.5,4.6-2.5v2.2c-0.3-0.1-0.5-0.1-0.9-0.1c-1.3,0-3.1,1.1-3.7,2.2
		v9.8H2585.1z"/>
	<path class="st1" d="M2603.2,229.9v-1.6c-1.1,1.3-2.7,1.9-4.6,1.9c-2.3,0-4.8-1.6-4.8-4.6c0-3.1,2.5-4.5,4.8-4.5
		c1.9,0,3.5,0.6,4.6,1.9v-2.5c0-1.9-1.5-2.9-3.5-2.9c-1.7,0-3,0.6-4.2,1.9l-1-1.5c1.5-1.5,3.3-2.3,5.5-2.3c2.9,0,5.3,1.3,5.3,4.7
		v9.5H2603.2z M2603.2,227v-2.6c-0.8-1.1-2.3-1.7-3.8-1.7c-2,0-3.4,1.3-3.4,3c0,1.7,1.4,3,3.4,3
		C2600.9,228.7,2602.3,228.1,2603.2,227z"/>
	<path class="st1" d="M2619.6,229.9v-2.1c-1,1.4-2.7,2.4-4.7,2.4c-3.6,0-6.1-2.7-6.1-7.2c0-4.4,2.5-7.3,6.1-7.3
		c1.9,0,3.5,0.9,4.7,2.4v-7.3h2.1v19.1H2619.6z M2619.6,226.1v-6.3c-0.8-1.2-2.4-2.2-4.1-2.2c-2.8,0-4.4,2.3-4.4,5.3
		s1.7,5.3,4.4,5.3C2617.2,228.3,2618.8,227.3,2619.6,226.1z"/>
	<path class="st1" d="M2625.7,212.7c0-0.8,0.7-1.5,1.4-1.5c0.8,0,1.5,0.7,1.5,1.5c0,0.8-0.7,1.4-1.5,1.4
		C2626.3,214.1,2625.7,213.5,2625.7,212.7z M2626,229.9v-13.8h2.1v13.8H2626z"/>
	<path class="st1" d="M2641.8,229.9v-9c0-2.4-1.2-3.2-3.1-3.2c-1.7,0-3.3,1-4.1,2.1v10.1h-2.1v-13.8h2.1v2c1-1.1,2.9-2.3,4.9-2.3
		c2.9,0,4.4,1.5,4.4,4.5v9.7H2641.8z"/>
	<path class="st1" d="M2648.2,233.4l1.1-1.6c1.1,1.4,2.5,1.9,4.5,1.9c2.3,0,4.4-1.1,4.4-4.1v-2c-1,1.4-2.7,2.5-4.6,2.5
		c-3.6,0-6.1-2.7-6.1-7.1c0-4.4,2.5-7.2,6.1-7.2c1.9,0,3.5,0.9,4.6,2.4v-2.1h2.1v13.4c0,4.6-3.2,6-6.6,6
		C2651.4,235.5,2649.8,235,2648.2,233.4z M2658.2,225.9v-6c-0.7-1.2-2.4-2.2-4.1-2.2c-2.8,0-4.4,2.2-4.4,5.3c0,3,1.7,5.3,4.4,5.3
		C2655.8,228.2,2657.4,227.1,2658.2,225.9z"/>
</g>
</svg>
