<?xml version="1.0" encoding="utf-8"?>
<!-- Generator: Adobe Illustrator 24.1.3, SVG Export Plug-In . SVG Version: 6.00 Build 0)  -->
<svg version="1.1" id="Layer_1" xmlns="http://www.w3.org/2000/svg" xmlns:xlink="http://www.w3.org/1999/xlink" x="0px" y="0px"
	 viewBox="0 0 596 384" style="enable-background:new 0 0 596 384;" xml:space="preserve">
<style type="text/css">
	.st0{opacity:0.5;fill:#FFF200;enable-background:new    ;}
	.st1{fill:#FFF200;}
</style>
<g>
	<path class="st0" d="M596,63.7v305.4c-137.1,34.4-313.2-15.5-433.3-43.8C110.8,313,54.1,301.4,0,305V63.7C0,28.5,28.5,0,63.7,0
		h468.5C567.5,0,596,28.5,596,63.7z"/>
	<path class="st1" d="M596,63.7v258.4c-137.1,34.4-313.2-15.5-433.3-43.8C110.8,266,54.1,254.4,0,258V63.7C0,28.5,28.5,0,63.7,0
		h468.5C567.5,0,596,28.5,596,63.7z"/>
</g>
</svg>
