<?xml version="1.0" encoding="utf-8"?>
<!-- Generator: Adobe Illustrator 24.1.3, SVG Export Plug-In . SVG Version: 6.00 Build 0)  -->
<svg version="1.1" id="Layer_1" xmlns="http://www.w3.org/2000/svg" xmlns:xlink="http://www.w3.org/1999/xlink" x="0px" y="0px"
	 viewBox="0 0 216 74" style="enable-background:new 0 0 216 74;" xml:space="preserve">
<style type="text/css">
	.st0{fill:#FBEF11;}
	.st1{fill:#FDF107;}
</style>
<g>
	<path class="st0" d="M1.6,68.4c0.2,0,0.4,0,0.6-0.1c2.3-0.4,2.3-0.4,2.7-2.9c0.4,0.8,0.2,1.7,0.7,2.3c0.6,0.6,1.5,0.5,2.4,0.9
		c-0.8,0.3-1.6,0.1-2.2,0.6c-0.6,0.5-0.8,1.1-0.9,2c-0.4-0.8-0.2-1.7-1-2.1c-0.7-0.3-1.5-0.5-2.3-0.4C1.6,68.5,1.6,68.5,1.6,68.4z"
		/>
	<path class="st1" d="M201,28.2c-0.4-2.3-0.6-4.6-1.1-6.9c-0.7-2.7-2.4-4.3-5.1-5c-1.5-0.4-3.1-0.6-4.6-0.8c-0.6-0.1-1.2,0-1.9-0.4
		c1.9-0.3,3.6-0.5,5.4-0.8c4.1-0.8,5.6-2.3,6.4-6.4c0.3-1.7,0.5-3.4,0.8-5.2C201.3,5,201.6,7,202,9c0.6,2.8,2.3,4.5,5.1,5.2
		c2.1,0.5,4.2,0.6,6.3,1.2c-1.2,0.1-2.3,0.3-3.5,0.4c-5.8,0.7-7.7,2.6-8.4,8.4C201.3,25.5,201.2,26.9,201,28.2z"/>
	<path class="st0" d="M21.1,63.2c-1.2-3.8-1.2-3.8-4.8-4.6c2.4-0.2,4.6-0.5,4.7-3.7c0.7,1.1,0.5,2.4,1.6,3.1c1,0.6,2.1,0.5,3.3,0.9
		C22.8,58.7,21,59.8,21.1,63.2z"/>
	<path class="st0" d="M60.7,14.4c4.5-0.6,4.1-1.2,4.8-4.7c-0.1,3.2,1.4,4.7,4.6,4.6c-2.8,0.1-4.6,1.1-4.8,4.1
		C65.4,15.2,63.3,14.5,60.7,14.4z"/>
	<path class="st0" d="M196.1,36c0-3.2-2.1-3.9-4.7-4.1c3.2,0,4.9-1.3,4.8-4.7c0,3.2,1.5,4.7,4.7,4.7C198.2,32,196.4,33,196.1,36z"/>
	<path class="st0" d="M138.7,64.5c-1.9,0-3,0.8-3.3,2.8c0.1-2.2-1.4-2.7-3.2-2.8c2.8-0.6,2.8-0.6,3.3-3.3c0.4,0.9,0.2,1.8,0.8,2.5
		C136.9,64.3,137.8,64.2,138.7,64.5z"/>
	<path class="st0" d="M209.1,21.8c1.6-0.1,2.9-0.5,2.9-2.5c0.3,1.3,0.8,2.2,2.3,2.5c-1.8,0.2-2,1.5-2.2,2.9
		C212,22.9,211.2,21.8,209.1,21.8z"/>
</g>
</svg>
