<?xml version="1.0" encoding="utf-8"?>
<!-- Generator: Adobe Illustrator 24.1.3, SVG Export Plug-In . SVG Version: 6.00 Build 0)  -->
<svg version="1.1" id="Layer_1" xmlns="http://www.w3.org/2000/svg" xmlns:xlink="http://www.w3.org/1999/xlink" x="0px" y="0px"
	 viewBox="0 0 500 500" style="enable-background:new 0 0 500 500;" xml:space="preserve">
<style type="text/css">
	.st0{fill:#FFFFFF;}
	.st1{fill:#F1F1F1;}
	.st2{fill:#E1DEDE;}
</style>
<g>
	<path class="st0" d="M500,101.2c0,24.7,0,49.4,0,74.1c-0.8,0.1-0.8,0.6-0.8,1.2c-0.1,1.7-0.3,3.4-0.5,5c-0.4,3.1-1.1,6.2-1.5,9.3
		c-1,6.1-2.2,12.1-3.6,18.1c-1.4,5.9-3,11.7-4.7,17.5c-1.4,4.7-2.9,9.4-4.5,14c-1.8,5.2-3.9,10.2-5.9,15.3
		c-2.9,7.3-6.3,14.3-9.9,21.3c-2.6,5.1-5.2,10.3-8.2,15.2c-2.9,4.6-5.7,9.4-8.6,14c-1.6,2.6-3.6,4.9-5.1,7.5
		c-2.1,3.6-5.1,6.6-7.1,10.2c-0.2,0.4-0.5,0.7-0.8,1c-2.6,2.6-4.7,5.6-6.9,8.5c-4,5.1-8.4,9.8-12.8,14.6c-4,4.4-8.5,8.5-12.7,12.8
		c-2.3,2.3-4.7,4.5-7.1,6.6c-3.9,3.4-7.9,6.7-11.9,10c-5.6,4.6-11.6,8.8-17.5,13.1c-1.4,1-3,1.7-4.3,2.7c-3.5,2.9-7.6,4.7-11.3,7.3
		c-3.4,2.4-7.2,4.1-10.8,6.2c-4.7,2.8-9.5,5.2-14.4,7.5c-5.5,2.6-11,5.4-16.8,7.4c-2.8,1-5.5,2.4-8.4,3.4c-2.9,1-5.7,1.9-8.5,3
		c-2.3,0.9-4.7,1.5-7,2.4c-2.1,0.7-4.3,1.3-6.4,1.9c-3.9,1.3-8,2.1-12,3.2c-4.2,1.2-8.6,2.1-12.9,2.9c-4.2,0.7-8.4,1.6-12.6,2.3
		c-3.2,0.5-6.5,1-9.8,1.4c-3.3,0.3-6.7,0.9-10,1.2c-2.1,0.2-4.2,0.1-6.3,0.5c-3.3,0.5-6.6,0.6-9.9,0.7c-10.3,0-20.6,0.5-30.9-0.2
		c-3.1-0.2-6.3-0.5-9.5-0.6c-1.7,0-3.4-0.2-5-0.4c-2.8-0.3-5.5-0.8-8.3-1.2c-3.5-0.5-7-0.7-10.4-1.4c-6-1.2-12-2.2-17.9-3.6
		c-4.8-1.1-9.6-2.4-14.5-3.7c-3.1-0.8-6.2-1.8-9.3-2.8c-2.5-0.8-5-1.5-7.4-2.4c-3-1.1-6.1-2.3-9.1-3.3c-3.9-1.3-7.5-3.1-11.4-4.5
		c-3.9-1.4-7.6-3.3-11.3-5.1c-6-3-12.2-5.8-18-9.3c-4.3-2.7-8.9-4.8-13.1-7.7c-2.2-1.5-4.6-2.5-6.6-4.1c-3.2-2.5-6.7-4.5-10-7
		c-4.4-3.3-9-6.4-13.2-10.1c-0.7-0.6-1.5-1.3-2.5-1.5C0,250.4,0,125.2,0,0c166.7,0,333.3,0,500,0c0,27.1,0,54.2,0,81.3
		c-1,0-1.1-0.9-1.4-1.6c-0.9-2-1.7-4.1-2.5-6.2c-0.4-1-1.4-1.6-1.2-2.8c-1.1-4.4-1.4-8.9-3.7-13c-0.4,0.3-0.3,0.5-0.3,0.8
		c0.6,2,1.1,4.1,1.6,6.1c0.6,2,0.7,4.2,1.5,6.1c0.1,0.5,0.3,0.9,0.4,1.4c0.7,4.5,2,9,2.5,13.6c0.3,2.9,1.2,5.7,1.4,8.7
		c0.1,1.9,0.5,3.9,0.8,5.8C499.2,100.7,499.4,101.1,500,101.2z"/>
	<path class="st1" d="M500,175.3v238.4c0-0.3-1.5,1.6-1.6,1.7c-0.6,1.1-0.7,2.8-0.9,4c-0.5,3.7-0.4,7.5-0.5,11.3
		c-0.2,10-7.8,17-12.3,25.2c-3.4,6.1-4.9,13.2-9.5,18.6c-3.4,4-7.7,5.5-12.2,7.7c-5.5,2.6-10.8,5.4-16.1,8.4
		c-5,2.8-9.7,5.2-15.5,4.8c-5.5-0.4-10.9,1-15.8,3.4c-0.5,0.3-1.1,0.5-1.1,1.2H299.8c0.4-0.9,0.7-1.8,1.1-2.7
		c-0.4,0.9-0.7,1.8-1.1,2.7H98c-4.6,0-9.2,0.1-13.8,0c-4.5-0.1-5.8-1.4-10-3.1c-7.7-3.1-15.9-4.5-23.7-7.3
		c-8.3-2.9-14.2-8.1-20.6-14c-5.9-5.5-12.6-10.3-17.2-17.1c-5.1-7.5-7.9-16.5-11-25c-2.2-5.9-1.7-11.6-1.7-17.9c0-3.4,0.9-39.9,0-40
		c1,0.2,1.8,0.9,2.5,1.5c4.2,3.7,8.8,6.8,13.2,10.1c3.3,2.5,6.8,4.5,10,7c2,1.6,4.5,2.7,6.6,4.1c4.2,2.8,8.8,5,13.1,7.7
		c5.8,3.6,11.9,6.3,18,9.3c3.7,1.9,7.5,3.7,11.4,5.1c3.8,1.4,7.5,3.2,11.4,4.5c3,1,6.1,2.2,9.1,3.3c2.4,0.9,4.9,1.6,7.4,2.4
		c3.1,1,6.1,2,9.3,2.8c4.8,1.2,9.6,2.5,14.5,3.7c5.9,1.4,12,2.3,17.9,3.6c3.4,0.7,6.9,1,10.4,1.4c2.8,0.4,5.6,0.8,8.3,1.2
		c1.7,0.2,3.4,0.4,5,0.4c3.2,0.1,6.3,0.4,9.5,0.6c10.3,0.7,20.6,0.3,30.9,0.2c3.3,0,6.6-0.1,9.9-0.7c2.1-0.3,4.2-0.2,6.3-0.5
		c3.3-0.3,6.7-0.9,10-1.2c3.3-0.4,6.5-0.9,9.8-1.4c4.2-0.7,8.4-1.6,12.6-2.3c4.4-0.8,8.7-1.7,12.9-2.9c4-1.1,8-2,12-3.2
		c2.1-0.7,4.3-1.2,6.4-1.9c2.3-0.8,4.7-1.5,7-2.4c2.8-1.1,5.7-2.1,8.5-3c2.9-1,5.6-2.4,8.4-3.4c5.8-2,11.2-4.8,16.8-7.4
		c4.9-2.3,9.8-4.7,14.4-7.5c3.6-2.1,7.4-3.8,10.8-6.2c3.7-2.6,7.8-4.4,11.3-7.3c1.3-1.1,2.9-1.7,4.3-2.7c5.9-4.3,11.9-8.5,17.5-13.1
		c4-3.3,8-6.6,12-10c2.4-2.1,4.9-4.3,7.1-6.6c4.2-4.3,8.6-8.3,12.7-12.8c4.3-4.8,8.7-9.5,12.8-14.6c2.3-2.8,4.4-5.9,6.9-8.5
		c0.3-0.3,0.6-0.6,0.8-1c2.1-3.6,5-6.6,7.1-10.2c1.5-2.6,3.5-4.9,5.1-7.5c2.9-4.6,5.7-9.4,8.6-14c3.1-4.9,5.6-10.1,8.2-15.2
		c3.5-7,7-14,9.9-21.3c2-5.1,4-10.2,5.9-15.3c1.7-4.6,3.2-9.3,4.5-14c1.7-5.8,3.3-11.6,4.7-17.5c1.4-6,2.7-12,3.6-18.1
		c0.5-3.1,1.2-6.2,1.5-9.3c0.2-1.7,0.5-3.3,0.5-5C499.2,175.9,499.2,175.3,500,175.3z"/>
	<path class="st0" d="M414.5,500c0-0.7,0.6-0.9,1.1-1.2c4.1-2,8.4-3.3,13.1-3.6c3.4-0.2,6.9-0.3,10.3-0.3c0.7,0,1.2-0.2,1.7-0.6
		c3.8-2.7,7.7-5.3,12.3-6.9c2-0.7,3.7-2.1,5.6-2.9c5.7-2.6,11-5.9,16.4-9.1c1.2-0.7,1.8-1.7,2.2-3c1.4-3.8,2.7-7.5,4.3-11.2
		c1.9-4.6,4.9-8.5,8-12.4c0.3-0.3,0.6-0.6,0.8-1c1.7-3.9,4.2-7.5,6.1-11.3c0.5-1,0.7-2,0.7-3c0-2.4-0.1-4.8,0-7.2
		c0.3-3.8,0.5-7.6,1.8-11.2c0.2-0.6,0.1-1.5,1.2-1.6c0,28.8,0,57.6,0,86.4C471.5,500,443,500,414.5,500z"/>
	<path class="st0" d="M0,429.3c1.4,0.4,1.1,1.8,1.2,2.6c0.1,1.8,0.7,3.3,1.5,4.8c1.6,3.1,2.9,6.3,4.2,9.4c0.8,2,2.1,3.8,2.9,5.9
		c0.6,1.7,1.3,3.3,2,4.9c1.3,3.2,3.3,6,5.3,8.9c0.3,0.4,0.7,0.7,1.1,0.9c4.8,2.4,8.9,5.8,12.3,9.8c1.8,2.1,3.9,3.8,6.2,5.3
		c3.4,2.2,6.3,4.9,9.1,7.9c1.5,1.6,3.4,2.3,5.5,2.3c6.1,0,12,1.1,17.7,3.2c3.1,1.1,6.4,1.9,9.2,3.6c0.6,0.3,1.4,0.4,1.4,1.3
		c-26.5,0-53.1,0-79.6,0C0,476.4,0,452.9,0,429.3z"/>
	<path class="st2" d="M494.9,70.7c-0.2,1.2,0.8,1.9,1.2,2.8c0.8,2.1,1.6,4.1,2.5,6.2c0.3,0.7,0.4,1.6,1.4,1.6c0,6.6,0,13.3,0,19.9
		c-0.6,0-0.8-0.4-0.8-1c-0.2-1.9-0.7-3.9-0.8-5.8c-0.2-2.9-1-5.8-1.4-8.7c-0.5-4.6-1.8-9-2.5-13.6c-0.1-0.5-0.2-0.9-0.4-1.4
		C494.4,70.7,494.6,70.7,494.9,70.7z"/>
	<path class="st1" d="M494.9,70.7c-0.3,0-0.5,0-0.8,0c-0.8-2-0.9-4.1-1.5-6.1c-0.6-2-1.1-4.1-1.6-6.1c-0.1-0.3-0.2-0.5,0.3-0.8
		C493.5,61.8,493.8,66.3,494.9,70.7z"/>
</g>
</svg>
