<?xml version="1.0" encoding="utf-8"?>
<!-- Generator: Adobe Illustrator 24.1.3, SVG Export Plug-In . SVG Version: 6.00 Build 0)  -->
<svg version="1.1" id="Layer_1" xmlns="http://www.w3.org/2000/svg" xmlns:xlink="http://www.w3.org/1999/xlink" x="0px" y="0px"
	 viewBox="0 0 5062 272" style="enable-background:new 0 0 5062 272;" xml:space="preserve">
<style type="text/css">
	.st0{fill:#ADADAD;}
	.st1{fill:#222222;}
	.st2{enable-background:new    ;}
	.st3{fill:#FFFFFF;}
</style>
<path class="st0" d="M3045,104H2017H0v52h2023.7c17.7,0,34.1,8.8,44,23.4l21.9,32.6c6.7,10,18,16,30,16h822.7c12,0,23.3-6,30-16
	l21.9-32.6c9.9-14.6,26.4-23.4,44-23.4H5062v-52H3045z"/>
<path class="st1" d="M5062,0H3005h-948H0v104h2074.3c19.3,0,36.8,11.1,45,28.6l46,97.8c9.9,21.1,31.2,34.6,54.5,34.6h622.5
	c23.3,0,44.6-13.5,54.5-34.6l46-97.8c8.2-17.4,25.7-28.6,45-28.6H5062V0z"/>
<g class="st2">
	<path class="st3" d="M2304.3,109.1c0,2.5-0.4,4.9-1.1,7.1c-0.7,2.2-1.7,4.2-3.1,6l7.3,7.2l-5.5,4.9l-7.3-7.2
		c-1.6,0.9-3.2,1.6-5,2.1s-3.7,0.7-5.7,0.7c-5.9,0-10.7-2-14.4-5.9c-3.7-4-5.5-8.9-5.5-15v-8.9c0-6,1.8-11,5.5-14.9
		c3.7-4,8.5-6,14.4-6c6,0,10.9,2,14.7,6c3.8,4,5.7,9,5.7,14.9V109.1z M2296.1,100.2c0-4.1-1.1-7.5-3.3-10.1c-2.2-2.6-5.2-4-8.9-4
		c-3.6,0-6.5,1.3-8.6,4c-2.1,2.6-3.1,6-3.1,10.1v8.9c0,4.1,1,7.5,3.1,10.2c2.1,2.6,4.9,4,8.6,4c3.8,0,6.7-1.3,8.9-4
		c2.2-2.6,3.3-6,3.3-10.2V100.2z"/>
	<path class="st3" d="M2351.7,80.1v32.4c0,5.5-1.8,9.8-5.4,12.9c-3.6,3.1-8.2,4.6-13.9,4.6c-5.6,0-10.1-1.5-13.7-4.6
		c-3.5-3.1-5.3-7.4-5.3-12.9V80.1h8.2v32.4c0,3.5,1,6.2,2.9,8.1c2,1.9,4.6,2.9,7.8,2.9c3.3,0,6-1,8-2.9c2-1.9,3-4.6,3-8.1V80.1
		H2351.7z"/>
	<path class="st3" d="M2370.2,129.3h-8.2V80.1h8.2V129.3z"/>
	<path class="st3" d="M2408.7,107.1h-19.3v15.6h22.7v6.6h-30.9V80.1h30.7v6.6h-22.5v13.9h19.3V107.1z"/>
	<path class="st3" d="M2458,129.3h-8.2L2428,93.8l-0.2,0.1v35.4h-8.2V80.1h8.2l21.8,35.5l0.2-0.1V80.1h8.2V129.3z"/>
	<path class="st3" d="M2495.9,107.1h-19.3v15.6h22.7v6.6h-30.9V80.1h30.7v6.6h-22.5v13.9h19.3V107.1z"/>
	<path class="st3" d="M2532.7,116.6c0-2.1-0.7-3.7-2.2-5c-1.5-1.3-4-2.5-7.7-3.5c-5.3-1.5-9.4-3.4-12.3-5.8
		c-2.9-2.4-4.3-5.5-4.3-9.3c0-4,1.6-7.2,4.7-9.8c3.2-2.6,7.2-3.9,12.2-3.9c5.3,0,9.6,1.4,12.8,4.3c3.2,2.9,4.7,6.4,4.6,10.6
		l-0.1,0.2h-7.9c0-2.6-0.9-4.7-2.6-6.2c-1.7-1.5-4-2.3-6.9-2.3c-2.8,0-4.9,0.7-6.4,2c-1.5,1.3-2.2,3-2.2,5.1c0,1.9,0.8,3.5,2.5,4.7
		c1.6,1.2,4.4,2.4,8.2,3.5c5.2,1.4,9.1,3.4,11.8,5.9s4.1,5.7,4.1,9.6c0,4.1-1.6,7.3-4.8,9.8c-3.2,2.4-7.4,3.7-12.6,3.7
		c-5,0-9.4-1.3-13.1-4s-5.5-6.4-5.4-11.3l0.1-0.2h7.9c0,3,1,5.2,3.1,6.7c2,1.5,4.5,2.2,7.5,2.2c2.9,0,5.2-0.6,6.8-1.8
		C2531.9,120.4,2532.7,118.7,2532.7,116.6z"/>
	<path class="st3" d="M2592.5,116.6c0-2.1-0.7-3.7-2.2-5s-4-2.5-7.7-3.5c-5.3-1.5-9.4-3.4-12.3-5.8c-2.9-2.4-4.3-5.5-4.3-9.3
		c0-4,1.6-7.2,4.7-9.8c3.2-2.6,7.2-3.9,12.2-3.9c5.3,0,9.6,1.4,12.8,4.3c3.2,2.9,4.7,6.4,4.6,10.6l-0.1,0.2h-7.9
		c0-2.6-0.9-4.7-2.6-6.2c-1.7-1.5-4-2.3-6.9-2.3c-2.8,0-4.9,0.7-6.4,2c-1.5,1.3-2.2,3-2.2,5.1c0,1.9,0.8,3.5,2.5,4.7
		c1.6,1.2,4.4,2.4,8.2,3.5c5.2,1.4,9.1,3.4,11.8,5.9c2.7,2.5,4.1,5.7,4.1,9.6c0,4.1-1.6,7.3-4.8,9.8c-3.2,2.4-7.4,3.7-12.6,3.7
		c-5,0-9.4-1.3-13.1-4s-5.5-6.4-5.4-11.3l0.1-0.2h7.9c0,3,1,5.2,3.1,6.7c2,1.5,4.5,2.2,7.5,2.2c2.9,0,5.2-0.6,6.8-1.8
		C2591.7,120.4,2592.5,118.7,2592.5,116.6z"/>
	<path class="st3" d="M2647.8,109.1c0,6-1.9,11-5.7,15c-3.8,4-8.7,5.9-14.7,5.9c-5.9,0-10.7-2-14.4-5.9c-3.7-4-5.5-8.9-5.5-15v-8.9
		c0-6,1.8-11,5.5-14.9c3.7-4,8.5-6,14.4-6c6,0,10.9,2,14.7,6c3.8,4,5.7,9,5.7,14.9V109.1z M2639.6,100.2c0-4.1-1.1-7.5-3.3-10.1
		s-5.2-4-8.9-4c-3.6,0-6.5,1.3-8.6,4c-2.1,2.6-3.1,6-3.1,10.1v8.9c0,4.1,1,7.5,3.1,10.2c2.1,2.6,4.9,4,8.6,4c3.8,0,6.7-1.3,8.9-4
		s3.3-6,3.3-10.2V100.2z"/>
	<path class="st3" d="M2681.4,117.9h0.2l14.2-37.9h10.5v49.2h-8.2V93.9l-0.2,0l-13.6,35.4h-5.6l-13.8-36.1l-0.2,0.1v36h-8.2V80.1
		h10.8L2681.4,117.9z"/>
	<path class="st3" d="M2755.4,109.1c0,6-1.9,11-5.7,15c-3.8,4-8.7,5.9-14.7,5.9c-5.9,0-10.7-2-14.4-5.9c-3.7-4-5.5-8.9-5.5-15v-8.9
		c0-6,1.8-11,5.5-14.9c3.7-4,8.5-6,14.4-6c6,0,10.9,2,14.7,6c3.8,4,5.7,9,5.7,14.9V109.1z M2747.2,100.2c0-4.1-1.1-7.5-3.3-10.1
		c-2.2-2.6-5.2-4-8.9-4c-3.6,0-6.5,1.3-8.6,4c-2.1,2.6-3.1,6-3.1,10.1v8.9c0,4.1,1,7.5,3.1,10.2c2.1,2.6,4.9,4,8.6,4
		c3.8,0,6.7-1.3,8.9-4s3.3-6,3.3-10.2V100.2z"/>
	<path class="st3" d="M2790.1,116.6c0-2.1-0.7-3.7-2.2-5c-1.5-1.3-4-2.5-7.7-3.5c-5.3-1.5-9.4-3.4-12.3-5.8
		c-2.9-2.4-4.3-5.5-4.3-9.3c0-4,1.6-7.2,4.7-9.8c3.2-2.6,7.2-3.9,12.2-3.9c5.3,0,9.6,1.4,12.8,4.3c3.2,2.9,4.7,6.4,4.6,10.6
		l-0.1,0.2h-7.9c0-2.6-0.9-4.7-2.6-6.2c-1.7-1.5-4-2.3-6.9-2.3c-2.8,0-4.9,0.7-6.4,2s-2.2,3-2.2,5.1c0,1.9,0.8,3.5,2.5,4.7
		c1.6,1.2,4.4,2.4,8.2,3.5c5.2,1.4,9.1,3.4,11.8,5.9c2.7,2.5,4.1,5.7,4.1,9.6c0,4.1-1.6,7.3-4.8,9.8c-3.2,2.4-7.4,3.7-12.6,3.7
		c-5,0-9.4-1.3-13.1-4c-3.7-2.7-5.5-6.4-5.4-11.3l0.1-0.2h7.9c0,3,1,5.2,3.1,6.7c2,1.5,4.5,2.2,7.5,2.2c2.9,0,5.2-0.6,6.8-1.8
		S2790.1,118.7,2790.1,116.6z"/>
</g>
<g class="st2">
	<path class="st3" d="M2379.9,195.6c0-1.3-0.5-2.3-1.4-3.2s-2.5-1.6-4.8-2.2c-2.9-0.7-5.1-1.8-6.7-3.1c-1.6-1.4-2.4-3.1-2.4-5.2
		c0-2.2,0.9-4,2.6-5.5c1.7-1.5,4-2.2,6.7-2.2c3,0,5.3,0.8,7.1,2.5c1.8,1.7,2.6,3.6,2.6,5.9l-0.1,0.1h-3.6c0-1.6-0.6-2.9-1.7-4
		c-1.1-1-2.5-1.6-4.3-1.6c-1.8,0-3.1,0.4-4.1,1.3s-1.4,2-1.4,3.4c0,1.2,0.5,2.2,1.6,3.1s2.7,1.5,5.1,2.2c2.8,0.7,5,1.8,6.5,3.2
		s2.2,3.2,2.2,5.3c0,2.3-0.9,4.1-2.7,5.5c-1.8,1.4-4.1,2.1-7,2.1c-2.7,0-5.1-0.8-7.2-2.3c-2.1-1.5-3.1-3.6-3-6.1l0-0.1h3.6
		c0,1.8,0.7,3.1,2,4.1c1.3,1,2.9,1.4,4.5,1.4c1.8,0,3.2-0.4,4.3-1.2C2379.3,198.1,2379.9,197,2379.9,195.6z"/>
	<path class="st3" d="M2410.6,191.1c0,3.4-1.1,6.3-3.2,8.6c-2.1,2.3-4.9,3.4-8.3,3.4c-3.3,0-6-1.1-8-3.4c-2.1-2.3-3.1-5.1-3.1-8.6
		v-5c0-3.4,1-6.3,3.1-8.6s4.7-3.4,8-3.4c3.4,0,6.2,1.1,8.3,3.4s3.2,5.1,3.2,8.6V191.1z M2406.8,186.1c0-2.6-0.7-4.7-2.1-6.3
		c-1.4-1.6-3.3-2.5-5.6-2.5c-2.2,0-4,0.8-5.3,2.5s-2,3.8-2,6.3v5c0,2.6,0.7,4.7,2,6.4c1.3,1.7,3.1,2.5,5.3,2.5
		c2.4,0,4.2-0.8,5.6-2.5c1.4-1.6,2.1-3.8,2.1-6.4V186.1z"/>
	<path class="st3" d="M2416.1,202.7v-28.1h9.2c2.9,0,5.2,0.6,6.9,1.9c1.7,1.3,2.5,3.2,2.5,5.7c0,1.2-0.4,2.3-1.1,3.3
		c-0.7,1-1.7,1.7-3,2.2c1.8,0.3,3.3,1.1,4.4,2.4c1.1,1.3,1.6,2.9,1.6,4.7c0,2.6-0.8,4.5-2.5,5.9c-1.7,1.4-3.9,2-6.8,2H2416.1z
		 M2419.9,186.5h6.2c1.4,0,2.6-0.4,3.5-1.2c0.9-0.8,1.3-1.9,1.3-3.3c0-1.5-0.5-2.7-1.4-3.4s-2.3-1.1-4.1-1.1h-5.4V186.5z
		 M2419.9,189.5v10.2h7.3c1.7,0,3.1-0.4,4.1-1.3c1-0.9,1.4-2.1,1.4-3.6c0-1.6-0.5-2.8-1.5-3.8c-1-1-2.3-1.5-4-1.5h-0.3H2419.9z"/>
	<path class="st3" d="M2445,190.5v12.2h-3.8v-28.1h9.6c3.1,0,5.4,0.7,7.1,2s2.4,3.4,2.4,6c0,1.4-0.4,2.7-1.1,3.8
		c-0.8,1.1-1.9,1.9-3.3,2.6c1.5,0.5,2.7,1.3,3.3,2.4s1,2.5,1,4.2v2.6c0,0.9,0.1,1.7,0.3,2.4c0.2,0.7,0.5,1.3,1,1.7v0.5h-3.9
		c-0.5-0.4-0.8-1.1-1-1.9c-0.1-0.9-0.2-1.7-0.2-2.6v-2.6c0-1.5-0.4-2.7-1.3-3.7c-0.9-0.9-2.1-1.4-3.6-1.4H2445z M2445,187.5h5.4
		c2.2,0,3.7-0.4,4.6-1.2c0.9-0.8,1.4-2.1,1.4-3.7c0-1.6-0.5-2.8-1.4-3.7c-0.9-0.9-2.4-1.3-4.3-1.3h-5.8V187.5z"/>
	<path class="st3" d="M2481.8,189.7h-11.6v10.1h13.5v3h-17.3v-28.1h17.1v3h-13.3v9.1h11.6V189.7z"/>
	<path class="st3" d="M2519.4,202.7h-3.8l-13.6-21.5l-0.1,0v21.5h-3.8v-28.1h3.8l13.6,21.5l0.1,0v-21.4h3.8V202.7z"/>
	<path class="st3" d="M2547.5,191.1c0,3.4-1.1,6.3-3.2,8.6c-2.1,2.3-4.9,3.4-8.3,3.4c-3.3,0-6-1.1-8-3.4c-2.1-2.3-3.1-5.1-3.1-8.6
		v-5c0-3.4,1-6.3,3.1-8.6s4.7-3.4,8-3.4c3.4,0,6.2,1.1,8.3,3.4c2.1,2.3,3.2,5.1,3.2,8.6V191.1z M2543.7,186.1c0-2.6-0.7-4.7-2.1-6.3
		s-3.3-2.5-5.6-2.5c-2.2,0-4,0.8-5.3,2.5c-1.3,1.6-2,3.8-2,6.3v5c0,2.6,0.7,4.7,2,6.4c1.3,1.7,3.1,2.5,5.3,2.5
		c2.4,0,4.2-0.8,5.6-2.5c1.4-1.6,2.1-3.8,2.1-6.4V186.1z"/>
	<path class="st3" d="M2568,195.6c0-1.3-0.5-2.3-1.4-3.2c-0.9-0.9-2.5-1.6-4.8-2.2c-2.9-0.7-5.1-1.8-6.7-3.1
		c-1.6-1.4-2.4-3.1-2.4-5.2c0-2.2,0.9-4,2.6-5.5c1.7-1.5,4-2.2,6.7-2.2c3,0,5.3,0.8,7.1,2.5c1.8,1.7,2.6,3.6,2.6,5.9l-0.1,0.1h-3.6
		c0-1.6-0.6-2.9-1.7-4c-1.1-1-2.5-1.6-4.3-1.6c-1.8,0-3.1,0.4-4.1,1.3s-1.4,2-1.4,3.4c0,1.2,0.5,2.2,1.6,3.1c1,0.8,2.7,1.5,5.1,2.2
		c2.8,0.7,5,1.8,6.5,3.2c1.5,1.4,2.2,3.2,2.2,5.3c0,2.3-0.9,4.1-2.7,5.5c-1.8,1.4-4.1,2.1-7,2.1c-2.7,0-5.1-0.8-7.2-2.3
		c-2.1-1.5-3.1-3.6-3-6.1l0-0.1h3.6c0,1.8,0.7,3.1,2,4.1c1.3,1,2.9,1.4,4.5,1.4c1.8,0,3.2-0.4,4.3-1.2
		C2567.4,198.1,2568,197,2568,195.6z"/>
	<path class="st3" d="M2598.7,191.1c0,3.4-1.1,6.3-3.2,8.6c-2.1,2.3-4.9,3.4-8.3,3.4c-3.3,0-6-1.1-8-3.4c-2.1-2.3-3.1-5.1-3.1-8.6
		v-5c0-3.4,1-6.3,3.1-8.6s4.7-3.4,8-3.4c3.4,0,6.2,1.1,8.3,3.4c2.1,2.3,3.2,5.1,3.2,8.6V191.1z M2594.9,186.1c0-2.6-0.7-4.7-2.1-6.3
		s-3.3-2.5-5.6-2.5c-2.2,0-4,0.8-5.3,2.5c-1.3,1.6-2,3.8-2,6.3v5c0,2.6,0.7,4.7,2,6.4c1.3,1.7,3.1,2.5,5.3,2.5
		c2.4,0,4.2-0.8,5.6-2.5c1.4-1.6,2.1-3.8,2.1-6.4V186.1z"/>
	<path class="st3" d="M2623.3,177.6h-9.3v25.2h-3.8v-25.2h-9.2v-3h22.3V177.6z"/>
	<path class="st3" d="M2631.1,190.5v12.2h-3.8v-28.1h9.6c3.1,0,5.4,0.7,7.1,2s2.4,3.4,2.4,6c0,1.4-0.4,2.7-1.1,3.8
		c-0.8,1.1-1.9,1.9-3.3,2.6c1.5,0.5,2.7,1.3,3.3,2.4s1,2.5,1,4.2v2.6c0,0.9,0.1,1.7,0.3,2.4c0.2,0.7,0.5,1.3,1,1.7v0.5h-3.9
		c-0.5-0.4-0.8-1.1-1-1.9s-0.2-1.7-0.2-2.6v-2.6c0-1.5-0.4-2.7-1.3-3.7c-0.9-0.9-2.1-1.4-3.6-1.4H2631.1z M2631.1,187.5h5.4
		c2.2,0,3.7-0.4,4.7-1.2c0.9-0.8,1.4-2.1,1.4-3.7c0-1.6-0.5-2.8-1.4-3.7s-2.4-1.3-4.3-1.3h-5.8V187.5z"/>
	<path class="st3" d="M2674,191.1c0,3.4-1.1,6.3-3.2,8.6c-2.1,2.3-4.9,3.4-8.3,3.4c-3.3,0-6-1.1-8-3.4c-2.1-2.3-3.1-5.1-3.1-8.6v-5
		c0-3.4,1-6.3,3.1-8.6s4.7-3.4,8-3.4c3.4,0,6.2,1.1,8.3,3.4c2.1,2.3,3.2,5.1,3.2,8.6V191.1z M2670.2,186.1c0-2.6-0.7-4.7-2.1-6.3
		s-3.3-2.5-5.6-2.5c-2.2,0-4,0.8-5.3,2.5c-1.3,1.6-2,3.8-2,6.3v5c0,2.6,0.7,4.7,2,6.4c1.3,1.7,3.1,2.5,5.3,2.5
		c2.4,0,4.2-0.8,5.6-2.5c1.4-1.6,2.1-3.8,2.1-6.4V186.1z"/>
	<path class="st3" d="M2694.5,195.6c0-1.3-0.5-2.3-1.4-3.2c-0.9-0.9-2.5-1.6-4.8-2.2c-2.9-0.7-5.1-1.8-6.7-3.1
		c-1.6-1.4-2.4-3.1-2.4-5.2c0-2.2,0.9-4,2.6-5.5c1.7-1.5,4-2.2,6.7-2.2c3,0,5.3,0.8,7.1,2.5c1.8,1.7,2.6,3.6,2.6,5.9l-0.1,0.1h-3.6
		c0-1.6-0.6-2.9-1.7-4c-1.1-1-2.5-1.6-4.3-1.6c-1.8,0-3.1,0.4-4.1,1.3s-1.4,2-1.4,3.4c0,1.2,0.5,2.2,1.6,3.1c1,0.8,2.7,1.5,5.1,2.2
		c2.8,0.7,5,1.8,6.5,3.2c1.5,1.4,2.2,3.2,2.2,5.3c0,2.3-0.9,4.1-2.7,5.5c-1.8,1.4-4.1,2.1-7,2.1c-2.7,0-5.1-0.8-7.2-2.3
		c-2.1-1.5-3.1-3.6-3-6.1l0-0.1h3.6c0,1.8,0.7,3.1,2,4.1c1.3,1,2.9,1.4,4.5,1.4c1.8,0,3.2-0.4,4.3-1.2
		C2694,198.1,2694.5,197,2694.5,195.6z"/>
</g>
<text transform="matrix(1 0 0 1 2260.437 -163.5526)" class="st3" style="font-family:'Roboto-Medium'; font-size:69.2555px;">QUIENES SOMOS</text>
<text transform="matrix(1 0 0 1 2361.3132 -90.1393)" class="st3" style="font-family:'Roboto-Regular'; font-size:39.5943px;">SOBRE NOSOTROS</text>
</svg>
