<?xml version="1.0" encoding="utf-8"?>
<!-- Generator: Adobe Illustrator 24.1.3, SVG Export Plug-In . SVG Version: 6.00 Build 0)  -->
<svg version="1.1" id="Layer_1" xmlns="http://www.w3.org/2000/svg" xmlns:xlink="http://www.w3.org/1999/xlink" x="0px" y="0px"
	 viewBox="0 0 5062 272" style="enable-background:new 0 0 5062 272;" xml:space="preserve">
<style type="text/css">
	.st0{fill:#ADADAD;}
	.st1{fill:#222222;}
	.st2{fill:#FFFFFF;}
</style>
<path class="st0" d="M3045,104H2017H0v52h2023.7c17.7,0,34.1,8.8,44,23.4l21.9,32.6c6.7,10,18,16,30,16h822.7c12,0,23.3-6,30-16
	l21.9-32.6c9.9-14.6,26.4-23.4,44-23.4H5062v-52H3045z"/>
<path class="st1" d="M5062,0H3005h-948H0v104h2074.3c19.3,0,36.8,11.1,45,28.6l46,97.8c9.9,21.1,31.2,34.6,54.5,34.6h622.5
	c23.3,0,44.6-13.5,54.5-34.6l46-97.8c8.2-17.4,25.7-28.6,45-28.6H5062V0z"/>
<g>
	<path class="st2" d="M2436.7,84.6h-15.2v42.6h-8.2V84.6h-15V78h38.4V84.6z"/>
	<path class="st2" d="M2464.9,115.7h-17.4l-3.8,11.5h-8.5l17.2-49.2h7.8l17,49.2h-8.5L2464.9,115.7z M2449.7,108.9h13l-6.3-19.4
		h-0.2L2449.7,108.9z"/>
	<path class="st2" d="M2491.4,106.8v20.4h-8.2V78h16.9c5.5,0,9.7,1.2,12.7,3.7c3,2.5,4.5,6,4.5,10.6c0,2.5-0.7,4.7-2,6.6
		s-3.2,3.3-5.8,4.4c2.8,0.9,4.8,2.3,6,4.3c1.2,2,1.8,4.4,1.8,7.4v4.1c0,1.4,0.2,2.9,0.5,4.2c0.4,1.4,1,2.4,1.8,3.1v0.8h-8.5
		c-0.9-0.7-1.5-1.9-1.7-3.5c-0.2-1.6-0.4-3.2-0.4-4.7v-4c0-2.5-0.7-4.5-2.2-6c-1.5-1.5-3.4-2.2-5.9-2.2H2491.4z M2491.4,100.2h8.3
		c3.3,0,5.7-0.6,7.2-1.9c1.5-1.3,2.3-3.2,2.3-5.8c0-2.5-0.7-4.4-2.2-5.8c-1.5-1.4-3.8-2.1-6.8-2.1h-8.7V100.2z"/>
	<path class="st2" d="M2536.2,127.2h-8.2V78h8.2V127.2z"/>
	<path class="st2" d="M2575.2,106.2h-19.8v21h-8.2V78h31.5v6.6h-23.3v15h19.8V106.2z"/>
	<path class="st2" d="M2609.2,115.7h-17.4l-3.8,11.5h-8.5l17.2-49.2h7.8l17,49.2h-8.5L2609.2,115.7z M2594,108.9h13l-6.3-19.4h-0.2
		L2594,108.9z"/>
	<path class="st2" d="M2653.4,114.6c0-2.1-0.7-3.7-2.2-5c-1.5-1.3-4-2.5-7.7-3.5c-5.3-1.5-9.4-3.4-12.3-5.8s-4.3-5.5-4.3-9.3
		c0-4,1.6-7.2,4.7-9.8c3.2-2.6,7.2-3.9,12.2-3.9c5.3,0,9.6,1.4,12.8,4.3c3.2,2.9,4.7,6.4,4.6,10.6l-0.1,0.2h-7.9
		c0-2.6-0.9-4.7-2.6-6.2s-4-2.3-6.9-2.3c-2.8,0-4.9,0.7-6.4,2c-1.5,1.3-2.2,3-2.2,5.1c0,1.9,0.8,3.5,2.5,4.7
		c1.6,1.2,4.4,2.4,8.2,3.5c5.2,1.4,9.1,3.4,11.8,5.9c2.7,2.5,4.1,5.7,4.1,9.6c0,4.1-1.6,7.3-4.8,9.8c-3.2,2.4-7.4,3.7-12.6,3.7
		c-5,0-9.4-1.3-13.1-4c-3.7-2.7-5.5-6.4-5.4-11.3l0.1-0.2h7.9c0,3,1,5.2,3.1,6.7c2,1.5,4.5,2.2,7.5,2.2c2.9,0,5.2-0.6,6.8-1.8
		C2652.6,118.3,2653.4,116.7,2653.4,114.6z"/>
</g>
<g>
	<path class="st2" d="M2370.4,200.6h-3.8l-13.6-21.5l-0.1,0v21.5h-3.8v-28.1h3.8l13.6,21.5l0.1,0v-21.4h3.8V200.6z"/>
	<path class="st2" d="M2397.8,172.5v18.7c0,3.1-1,5.5-3,7.3c-2,1.7-4.6,2.6-7.8,2.6c-3.1,0-5.6-0.9-7.5-2.6
		c-1.9-1.7-2.9-4.2-2.9-7.2v-18.7h3.8v18.7c0,2.2,0.6,3.8,1.8,5.1c1.2,1.2,2.8,1.8,4.8,1.8c2.1,0,3.7-0.6,5-1.8s1.9-2.9,1.9-5.1
		v-18.7H2397.8z"/>
	<path class="st2" d="M2419.2,187.6h-11.6v10.1h13.5v3h-17.3v-28.1h17.1v3h-13.3v9.1h11.6V187.6z"/>
	<path class="st2" d="M2440.7,193.5c0-1.3-0.5-2.3-1.4-3.2c-0.9-0.9-2.5-1.6-4.8-2.2c-2.9-0.7-5.1-1.8-6.7-3.1
		c-1.6-1.4-2.4-3.1-2.4-5.2c0-2.2,0.9-4,2.6-5.5c1.7-1.5,4-2.2,6.7-2.2c3,0,5.3,0.8,7.1,2.5s2.6,3.6,2.6,5.9l-0.1,0.1h-3.6
		c0-1.6-0.6-2.9-1.7-4s-2.5-1.6-4.3-1.6c-1.8,0-3.1,0.4-4.1,1.3s-1.4,2-1.4,3.4c0,1.2,0.5,2.2,1.6,3.1c1,0.8,2.7,1.5,5.1,2.2
		c2.8,0.7,5,1.8,6.5,3.2c1.5,1.4,2.2,3.2,2.2,5.3c0,2.3-0.9,4.1-2.7,5.5c-1.8,1.4-4.1,2.1-7,2.1c-2.7,0-5.1-0.8-7.2-2.3
		s-3.1-3.6-3-6.1l0-0.1h3.6c0,1.8,0.7,3.1,2,4.1s2.9,1.4,4.5,1.4c1.8,0,3.2-0.4,4.3-1.2C2440.1,196,2440.7,194.9,2440.7,193.5z"/>
	<path class="st2" d="M2469.5,175.5h-9.3v25.2h-3.8v-25.2h-9.2v-3h22.3V175.5z"/>
	<path class="st2" d="M2477.4,188.4v12.2h-3.8v-28.1h9.6c3.1,0,5.4,0.7,7.1,2s2.4,3.4,2.4,6c0,1.4-0.4,2.7-1.1,3.8
		c-0.8,1.1-1.9,1.9-3.3,2.6c1.5,0.5,2.7,1.3,3.3,2.4s1,2.5,1,4.2v2.6c0,0.9,0.1,1.7,0.3,2.4c0.2,0.7,0.5,1.3,1,1.7v0.5h-3.9
		c-0.5-0.4-0.8-1.1-1-1.9c-0.1-0.9-0.2-1.7-0.2-2.6v-2.6c0-1.5-0.4-2.7-1.3-3.7c-0.9-0.9-2.1-1.4-3.6-1.4H2477.4z M2477.4,185.4h5.4
		c2.2,0,3.7-0.4,4.6-1.2c0.9-0.8,1.4-2.1,1.4-3.7c0-1.6-0.5-2.8-1.4-3.7c-0.9-0.9-2.4-1.3-4.3-1.3h-5.8V185.4z"/>
	<path class="st2" d="M2520.2,189.1c0,3.4-1.1,6.3-3.2,8.6c-2.1,2.3-4.9,3.4-8.3,3.4c-3.3,0-6-1.1-8-3.4c-2.1-2.3-3.1-5.1-3.1-8.6
		v-5c0-3.4,1-6.3,3.1-8.6s4.7-3.4,8-3.4c3.4,0,6.2,1.1,8.3,3.4c2.1,2.3,3.2,5.1,3.2,8.6V189.1z M2516.4,184c0-2.6-0.7-4.7-2.1-6.3
		c-1.4-1.6-3.3-2.5-5.6-2.5c-2.2,0-4,0.8-5.3,2.5c-1.3,1.6-2,3.8-2,6.3v5c0,2.6,0.7,4.7,2,6.4c1.3,1.7,3.1,2.5,5.3,2.5
		c2.4,0,4.2-0.8,5.6-2.5c1.4-1.6,2.1-3.8,2.1-6.4V184z"/>
	<path class="st2" d="M2540.7,193.5c0-1.3-0.5-2.3-1.4-3.2c-0.9-0.9-2.5-1.6-4.8-2.2c-2.9-0.7-5.1-1.8-6.7-3.1
		c-1.6-1.4-2.4-3.1-2.4-5.2c0-2.2,0.9-4,2.6-5.5c1.7-1.5,4-2.2,6.7-2.2c3,0,5.3,0.8,7.1,2.5s2.6,3.6,2.6,5.9l-0.1,0.1h-3.6
		c0-1.6-0.6-2.9-1.7-4c-1.1-1-2.5-1.6-4.3-1.6c-1.8,0-3.1,0.4-4.1,1.3c-0.9,0.9-1.4,2-1.4,3.4c0,1.2,0.5,2.2,1.6,3.1
		c1,0.8,2.7,1.5,5.1,2.2c2.8,0.7,5,1.8,6.5,3.2c1.5,1.4,2.2,3.2,2.2,5.3c0,2.3-0.9,4.1-2.7,5.5c-1.8,1.4-4.1,2.1-7,2.1
		c-2.7,0-5.1-0.8-7.2-2.3s-3.1-3.6-3-6.1l0-0.1h3.6c0,1.8,0.7,3.1,2,4.1c1.3,1,2.9,1.4,4.5,1.4c1.8,0,3.2-0.4,4.3-1.2
		C2540.2,196,2540.7,194.9,2540.7,193.5z"/>
	<path class="st2" d="M2563.6,189.3v11.3h-3.8v-28.1h10.8c3,0,5.3,0.8,7,2.3s2.5,3.6,2.5,6.1c0,2.6-0.8,4.6-2.5,6.1
		c-1.7,1.5-4,2.3-7,2.3H2563.6z M2563.6,186.4h7c1.9,0,3.3-0.5,4.3-1.5c0.9-1,1.4-2.3,1.4-3.9c0-1.6-0.5-2.9-1.4-3.9
		c-0.9-1-2.4-1.6-4.3-1.6h-7V186.4z"/>
	<path class="st2" d="M2588.7,188.4v12.2h-3.8v-28.1h9.6c3.1,0,5.4,0.7,7.1,2c1.6,1.4,2.4,3.4,2.4,6c0,1.4-0.4,2.7-1.1,3.8
		c-0.8,1.1-1.9,1.9-3.3,2.6c1.5,0.5,2.7,1.3,3.3,2.4s1,2.5,1,4.2v2.6c0,0.9,0.1,1.7,0.3,2.4c0.2,0.7,0.5,1.3,1,1.7v0.5h-3.9
		c-0.5-0.4-0.8-1.1-1-1.9c-0.1-0.9-0.2-1.7-0.2-2.6v-2.6c0-1.5-0.4-2.7-1.3-3.7c-0.9-0.9-2.1-1.4-3.6-1.4H2588.7z M2588.7,185.4h5.4
		c2.2,0,3.7-0.4,4.6-1.2c0.9-0.8,1.4-2.1,1.4-3.7c0-1.6-0.5-2.8-1.4-3.7c-0.9-0.9-2.4-1.3-4.3-1.3h-5.8V185.4z"/>
	<path class="st2" d="M2625.5,187.6h-11.6v10.1h13.5v3h-17.3v-28.1h17.1v3h-13.3v9.1h11.6V187.6z"/>
	<path class="st2" d="M2652.1,191.6l0,0.1c0.1,2.6-0.9,4.9-2.8,6.6c-1.9,1.8-4.4,2.7-7.6,2.7c-3.2,0-5.8-1.1-7.8-3.4
		c-2-2.3-3-5.1-3-8.6v-5c0-3.5,1-6.3,3-8.6c2-2.3,4.6-3.4,7.8-3.4s5.7,0.8,7.6,2.5c1.9,1.7,2.8,3.9,2.7,6.7l0,0.1h-3.7
		c0-2-0.6-3.5-1.7-4.7c-1.2-1.1-2.8-1.7-4.9-1.7c-2.1,0-3.8,0.9-5.1,2.6c-1.3,1.7-1.9,3.8-1.9,6.4v5c0,2.6,0.6,4.7,1.9,6.4
		c1.3,1.7,3,2.6,5.1,2.6c2.1,0,3.8-0.6,4.9-1.7c1.2-1.1,1.7-2.7,1.7-4.7H2652.1z"/>
	<path class="st2" d="M2661.3,200.6h-3.8v-28.1h3.8V200.6z"/>
	<path class="st2" d="M2689.7,189.1c0,3.4-1.1,6.3-3.2,8.6c-2.1,2.3-4.9,3.4-8.3,3.4c-3.3,0-6-1.1-8-3.4c-2.1-2.3-3.1-5.1-3.1-8.6
		v-5c0-3.4,1-6.3,3.1-8.6c2.1-2.3,4.7-3.4,8-3.4c3.4,0,6.2,1.1,8.3,3.4c2.1,2.3,3.2,5.1,3.2,8.6V189.1z M2685.9,184
		c0-2.6-0.7-4.7-2.1-6.3c-1.4-1.6-3.3-2.5-5.6-2.5c-2.2,0-4,0.8-5.3,2.5s-2,3.8-2,6.3v5c0,2.6,0.7,4.7,2,6.4
		c1.3,1.7,3.1,2.5,5.3,2.5c2.4,0,4.2-0.8,5.6-2.5c1.4-1.6,2.1-3.8,2.1-6.4V184z"/>
	<path class="st2" d="M2710.2,193.5c0-1.3-0.5-2.3-1.4-3.2c-0.9-0.9-2.5-1.6-4.8-2.2c-2.9-0.7-5.1-1.8-6.7-3.1
		c-1.6-1.4-2.4-3.1-2.4-5.2c0-2.2,0.9-4,2.6-5.5c1.7-1.5,4-2.2,6.7-2.2c3,0,5.3,0.8,7.1,2.5c1.8,1.7,2.6,3.6,2.6,5.9l-0.1,0.1h-3.6
		c0-1.6-0.6-2.9-1.7-4c-1.1-1-2.5-1.6-4.3-1.6c-1.8,0-3.1,0.4-4.1,1.3s-1.4,2-1.4,3.4c0,1.2,0.5,2.2,1.6,3.1c1,0.8,2.7,1.5,5.1,2.2
		c2.8,0.7,5,1.8,6.5,3.2c1.5,1.4,2.2,3.2,2.2,5.3c0,2.3-0.9,4.1-2.7,5.5c-1.8,1.4-4.1,2.1-7,2.1c-2.7,0-5.1-0.8-7.2-2.3
		s-3.1-3.6-3-6.1l0-0.1h3.6c0,1.8,0.7,3.1,2,4.1s2.9,1.4,4.5,1.4c1.8,0,3.2-0.4,4.3-1.2C2709.7,196,2710.2,194.9,2710.2,193.5z"/>
</g>
</svg>
