<?xml version="1.0" encoding="utf-8"?>
<!-- Generator: Adobe Illustrator 24.1.3, SVG Export Plug-In . SVG Version: 6.00 Build 0)  -->
<svg version="1.1" id="Layer_1" xmlns="http://www.w3.org/2000/svg" xmlns:xlink="http://www.w3.org/1999/xlink" x="0px" y="0px"
	 viewBox="0 0 300 118" style="enable-background:new 0 0 300 118;" xml:space="preserve">
<style type="text/css">
	.st0{fill:url(#SVGID_3_);}
	.st1{fill:#FFFFFF;}
	.st2{fill:none;stroke:#202223;stroke-width:0.75;stroke-miterlimit:10;}
	.st3{fill:#ADADAD;}
	.st4{fill:none;stroke:#202223;stroke-miterlimit:10;}
	.st5{fill:#FFF200;}
</style>
<g>
	<path class="st1" d="M139.7,40.3c0,0.5,0,0.8,0,1.1c0,14.1,0,28.2,0,42.3c0,1.2-0.7,1.8-1.8,1.8c-3.5,0-7,0-10.5,0
		c-1,0-1.8-0.7-1.8-1.8c0-14.1,0-28.2,0-42.3c0-0.4,0-0.6,0-1c-7.2,0-14.3,0-21.5,0c-4.2,15-8.6,30.1-12.8,45.2c-4.8,0-9.7,0-14.6,0
		c-2.9-11.3-5.8-22.8-8.7-34.1c-0.1,0-0.1,0-0.2,0c-2.9,11.3-5.7,22.8-8.7,34.1c-4.9,0-9.7,0-14.6,0c-0.9-3.1-1.8-6.4-2.8-9.5
		c-0.8-3-1.7-6-2.5-8.9c-1.6-5.4-3-10.7-4.6-16c-1-3.7-2.1-7.4-3.1-11.1c-1-3.6-2.1-7.2-3.1-10.8c-0.2-0.6,0.7-1.9,1.5-1.9
		c4.4,0,8.9,0,13.4,0c0.2,0,0.6,0.3,0.6,0.5c0.9,3.5,1.8,7.1,2.6,10.6c1.4,5.6,2.8,11.2,4.1,16.8c0.6,2.7,1.3,5.4,1.8,8
		c0,0.1,0.1,0.2,0.3,0.3c3.2-12.1,6.4-24.2,9.5-36.3c3.7,0,7.4,0,11.2,0c3.1,12.1,6.3,24.2,9.5,36.4c1.2-5,2.4-9.9,3.6-14.8
		c1-4.3,2-8.7,3-13c0.6-2.7,1.4-5.3,1.9-7.9c0.2-0.7,0.5-0.8,1.1-0.8c17.8,0,35.5,0,53.3,0c2.8,0,5.5,0,8.4,0c1,0,1.6,0.6,1.6,1.6
		c0,3.1,0,6.4,0,9.5c0,1-0.7,1.8-1.8,1.8c-4.5,0-8.9,0-13.5,0C140.4,40.3,140.1,40.3,139.7,40.3z"/>
	<path class="st1" d="M8.7,102.9c17.6,0,35.2,0,52.8,0c0,1.4,0,2.7,0,4.1c-19,0-37.9,0-56.9,0c0-33.9,0-67.6,0-101.5
		c97,0,193.9,0,291,0c0,33.9,0,67.6,0,101.5c-19,0-38,0-57,0c0-1.3,0-2.7,0-4.1c17.6,0,35.2,0,52.9,0c0-31.1,0-62.2,0-93.3
		c-94.2,0-188.4,0-282.7,0C8.7,40.7,8.7,71.7,8.7,102.9z"/>
	<path class="st1" d="M253.5,47.1c-0.8-1.1-1.6-2.3-2.5-3.2c-1.8-1.8-3.9-3.1-6.3-3.9c-4-1.1-7.8-0.6-11.5,1.1c-4.1,2-6.7,5.4-8,9.7
		c-1.8,6.1-1.1,11.8,2.9,16.9c2.3,3,5.4,4.8,9.2,5.5c3.8,0.7,7.4,0.2,10.9-1.4c0.3-0.2,0.6-0.3,0.9-0.5c1.9-0.8,2.7-2.2,2.3-4.3
		c-0.1-0.6,0-1.3,0-2.1c-0.4,0-0.6,0-0.9,0c-4.1,0-8.1,0-12.2,0c-1,0-1.8-0.7-1.8-1.8c0-3,0-6.1,0-9.2c0-1,0.7-1.8,1.8-1.8
		c8.5,0,17.1,0,25.6,0c1,0,1.8,0.7,1.8,1.8c0,6.9,0,13.8,0,20.8c0,0.4-0.2,0.7-0.4,1c-2.1,2.3-4.5,4.4-7.2,6.1
		c-3.4,2.1-7.1,3.5-11.1,4.2c-3,0.6-5.9,0.6-8.9,0.5c-3.7-0.2-7.2-1.1-10.6-2.5c-2.5-1-4.8-2.4-6.9-4.1c-2.7-2.1-4.8-4.6-6.6-7.6
		c-2.1-3.5-3.4-7.3-3.9-11.3c-0.3-2.7-0.1-5.4-0.1-8.2c0.1-2.8,0.8-5.4,1.8-7.8c1-2.7,2.4-5.1,4.2-7.3c3-3.8,6.6-6.5,11-8.4
		c2.8-1.2,5.5-2.1,8.6-2.4c2.6-0.2,5.2-0.5,7.8-0.3c3,0.1,5.8,0.7,8.6,1.9c3.1,1.3,6,3,8.5,5.4c1.6,1.6,3,3.2,4.2,5.1
		c0.4,0.6,0.1,2-0.6,2.4c-2.2,1.2-4.5,2.5-6.8,3.7C255.9,45.8,254.7,46.5,253.5,47.1z"/>
	<path class="st1" d="M201.4,56.5c0,9,0,18.2,0,27.2c0,1.1-0.7,1.8-1.8,1.8c-3.5,0-7.1,0-10.6,0c-1,0-1.8-0.7-1.8-1.8
		c0-18.2,0-36.4,0-54.6c0-1,0.7-1.8,1.8-1.8c3.6,0,7.1,0,10.7,0c1,0,1.8,0.7,1.8,1.8C201.4,38.3,201.4,47.4,201.4,56.5z"/>
	<path class="st1" d="M181.5,100.2c-0.4,0.2-0.6,0.4-0.8,0.5c-0.5,0.3-0.8,0.3-1.2-0.1c-2.5-2.6-5.7-0.9-6.6,1.9
		c-0.7,2.5,0.7,5.2,3.7,5.5c1,0.2,2.1-0.3,2.8-1.1c0.4-0.5,0.2-1.3,0.3-2c-1.4,0-2.6,0-3.9,0c0-0.5,0-0.9,0-1.4c1.8,0,3.7,0,5.6,0
		c0,1.3,0,2.7,0,4c0,0.2-0.2,0.4-0.4,0.6c-1.5,1.4-3.2,1.8-5.1,1.5c-1.2-0.2-2.3-0.6-3.2-1.4c-1.6-1.5-2-3.3-1.8-5.4
		c0.3-1.9,1.2-3.6,3.1-4.4c2.3-1,4.5-0.9,6.6,0.7C180.9,99.3,181.1,99.7,181.5,100.2z"/>
	<path class="st1" d="M228.5,108.8c-1.6,1-3.1,1.1-4.7,0.1c-0.8-0.6-1.1-1.5-1.4-2.4c-0.3-1.4-0.2-2.8,0.6-4c1-1.8,3.6-2.1,5.4-0.8
		c0-0.2,0.1-0.4,0.1-0.6c0.6,0,1.1,0,1.8,0c0,0.3,0,0.6,0,0.8c0,2.3,0,4.6,0,6.9c0,2.6-1.1,3.5-3.7,3.7c-1.3,0.1-2.4-0.1-3.5-0.9
		c-0.6-0.5-0.2-0.8,0.1-1c0.2-0.2,0.6-0.3,0.8-0.2c0.6,0.2,1,0.6,1.6,0.7C227,111.5,228.8,110.5,228.5,108.8z M228.5,105.3
		c0-0.4,0-0.6,0-0.9c0-1.5-1.7-2.5-3-1.8c-1.3,0.6-1.9,2.9-0.9,4.4c0.8,1.3,1.8,1.4,3.1,0.6C228.7,106.9,228.5,106.1,228.5,105.3z"
		/>
	<path class="st1" d="M204.6,101.7c0-0.7,0-1.3,0-1.9c0-0.6,0-1.2,0-1.8c0.6,0,1.1,0,1.8,0c0,3.8,0,7.6,0,11.4
		c-0.6-0.3-1.5,0.5-1.8-0.6c-1.5,0.9-3,1.1-4.6,0c-0.9-0.6-1.3-1.7-1.4-2.7c-0.2-1.3,0-2.7,0.7-3.8c0.8-1.4,2.9-1.9,4.4-1.2
		C204,101.3,204.3,101.5,204.6,101.7z M204.6,105.3c0-0.3,0-0.6,0-0.9c0-1.5-1.7-2.4-3-1.8c-1.1,0.6-1.8,2.4-1.1,4.1
		c0.5,1,1.5,1.7,2.4,1.5c1.2-0.3,1.8-0.9,1.8-2.2C204.6,105.6,204.6,105.4,204.6,105.3z"/>
	<path class="st1" d="M96.9,105.9c-2.3,0-4.4,0-6.6,0c0.4,2.2,2.8,3,4.5,1.6c0.7-0.6,1,0.1,1.4,0.5c0.5,0.5-0.2,0.6-0.4,0.7
		c-1.7,1.2-4.4,1.4-6-0.2c-1.3-1.3-1.6-3-1-4.7c0.6-1.9,2.2-3,4.3-2.9c1.9,0.2,3.3,1.3,3.6,3.4C96.8,104.8,96.9,105.3,96.9,105.9z
		 M95.1,104.5c-0.5-1.5-1.5-2.4-2.4-2.3c-1,0.1-2.2,1.1-2.2,2.3C92,104.5,93.4,104.5,95.1,104.5z"/>
	<path class="st1" d="M119.5,104.2c0.2-0.7-0.1-1.3-0.8-1.7c-0.6-0.4-1.8-0.2-2.5,0.5c-0.6,0.6-1.3,0.5-1.5-0.4c0-0.2,0-0.5,0.2-0.6
		c1.5-1.4,3.9-1.5,5.4-0.6c0.6,0.4,1,1.1,1,1.8c0,1.9,0,4,0,6.2c-0.6-0.1-1.3-0.3-1.8-0.4c-0.2,0-0.4,0-0.6,0.1
		c-0.9,0.4-1.8,0.4-2.8,0.2c-1.6-0.3-2.2-1.8-2-3.2c0.1-1.3,1.3-2.3,2.7-2.3C117.6,103.9,118.5,104.1,119.5,104.2z M119.5,106.8
		c0-1-0.8-1.8-1.8-1.8c-0.8,0-1.8,0.8-1.8,1.7s0.8,1.7,1.7,1.8C118.6,108.4,119.5,107.7,119.5,106.8z"/>
	<path class="st1" d="M157.9,104.2c0.2-0.7-0.1-1.3-0.8-1.7c-0.6-0.4-1.8-0.2-2.5,0.5c-0.6,0.6-1.3,0.5-1.5-0.4c0-0.2,0-0.5,0.2-0.6
		c1.5-1.4,3.9-1.5,5.4-0.6c0.6,0.4,1,1.1,1,1.8c0,1.9,0,4,0,6.2c-0.6-0.1-1.3-0.3-1.8-0.4c-0.2,0-0.4,0-0.6,0.1
		c-0.9,0.4-1.8,0.4-2.8,0.2c-1.6-0.2-2.2-1.8-2-3.2c0.1-1.3,1.3-2.3,2.7-2.3C156.1,103.9,156.9,104.1,157.9,104.2z M157.9,106.8
		c0-1-0.8-1.8-1.8-1.8c-0.8,0-1.8,0.8-1.8,1.7s0.8,1.8,1.7,1.8C157.1,108.4,157.9,107.7,157.9,106.8z"/>
	<path class="st1" d="M196.4,109.5c-0.7-0.2-1.3-0.4-1.9-0.5c-0.2,0-0.4,0.1-0.6,0.2c-1.4,0.5-2.8,0.6-3.9-0.6
		c-0.9-0.9-0.9-2-0.6-3.2c0.4-1.1,1.4-1.6,2.5-1.6c0.8,0,1.8,0.2,2.6,0.3c0.3-0.9-0.4-1.9-1.5-1.8c-0.6,0.1-1.4,0.4-1.9,0.7
		c-0.5,0.3-0.7,0.4-1-0.1c-0.3-0.4-0.6-0.7,0.1-1.2c1.6-1.2,3.2-1.2,5-0.6c0.8,0.4,1.3,1.1,1.3,1.9
		C196.4,105.3,196.4,107.3,196.4,109.5z M194.6,106.8c0.2-1.1-0.7-1.7-1.8-1.8c-0.9-0.1-1.8,0.8-1.8,1.7c0,0.8,0.8,1.7,1.7,1.7
		C193.7,108.4,194.6,107.7,194.6,106.8z"/>
	<path class="st1" d="M137.1,100.8c2.7-0.1,4.2,1.8,4.2,4.3s-1.6,4.3-4.3,4.3c-2.5,0-4.2-2-4.2-4.4
		C132.9,102.8,134.5,100.7,137.1,100.8z M139.6,105.2c0-1.5-1.1-2.9-2.4-2.9c-1.3,0-2.5,1.4-2.5,2.9s1.1,2.9,2.4,2.9
		C138.4,108.1,139.6,106.7,139.6,105.2z"/>
	<path class="st1" d="M81.2,109.3c-0.6,0-1.2,0-1.8,0c0-1.7,0-3.3,0-5c0-1.2-0.3-1.8-1.1-1.9c-0.6-0.2-2.1,0.4-2.5,1
		c-0.1,0.2-0.1,0.5-0.1,0.7c0,1.8,0,3.4,0,5.3c-0.6,0-1.2,0-1.8,0c0-2.8,0-5.4,0-8.2c0.6,0,1.1,0,1.7,0c0,0.2,0.1,0.4,0.1,0.6
		c1-0.6,2-0.9,3.1-0.8c1.2,0.1,2.2,0.9,2.3,2.1C81.3,105.1,81.2,107.2,81.2,109.3z"/>
	<path class="st1" d="M213.2,101.1c1.7-0.1,1.7-0.1,1.8,0.4c1.1-0.2,2.1-0.5,3.1-0.6c1.3-0.1,2.3,1,2.3,2.3c0,2,0,4.1,0,6.2
		c-0.6,0-1.2,0-1.8,0c0-1.8,0-3.4,0-5.2c0-1.6-1.2-2.2-2.6-1.6c-0.8,0.4-1.2,0.9-1.2,1.9c0.1,1.6,0,3.1,0,4.8c-0.6,0-1.1,0-1.8,0
		C213.2,106.6,213.2,103.9,213.2,101.1z"/>
	<path class="st1" d="M150.6,109.3c-0.6,0-1.2,0-1.8,0c0-1.8,0-3.6,0-5.4c0-0.7-0.3-1.3-1-1.6c-1.1-0.5-2.7,0.6-2.7,1.8
		c0,1.7,0,3.3,0,5.1c-0.6,0-1.2,0-1.8,0c0-2.7,0-5.4,0-8.2c0.6,0,1.1,0,1.7,0c0,0.1,0.1,0.4,0.2,0.6c0.9-0.6,2-0.9,3.1-0.8
		c1.2,0.1,2.2,0.9,2.3,2.2C150.6,105.1,150.6,107.2,150.6,109.3z"/>
	<path class="st1" d="M106.5,109.3c-0.6,0-1.2,0-1.8,0c0-2.8,0-5.4,0-8.3c0.6,0.3,1.4-0.5,1.8,0.4c1-0.2,2.1-0.5,3.1-0.6
		c1.3-0.1,2.3,1,2.3,2.3c0,2,0,4.1,0,6.2c-0.6,0-1.2,0-1.8,0c0-1.8,0-3.4,0-5.2c0-1.6-1.2-2.2-2.6-1.6c-0.8,0.4-1.2,0.9-1.2,1.9
		C106.6,106.1,106.5,107.7,106.5,109.3z"/>
	<path class="st1" d="M85.7,101c0.6,0,1.1,0,1.7,0c0,0.5,0,0.9,0,1.5c-0.5,0-1,0-1.6,0c0,1.7,0,3.3,0,4.9c0,0.4,0.2,0.9,0.9,0.6
		c0.2-0.1,0.6-0.1,0.7,0.1c0.2,0.4,0.6,1.1,0,1.2c-0.8,0.2-1.8,0.2-2.6,0s-0.8-1.1-0.8-1.8c0-1.6,0-3.2,0-4.9
		c-0.5,0-0.8-0.1-1.3-0.1c0-0.5,0-0.9,0-1.4c0.4,0,0.8,0,1.3-0.1c0-0.6,0-1.4,0-2c0.6,0,1.2,0,1.8,0C85.7,99.6,85.7,100.3,85.7,101z
		"/>
	<path class="st1" d="M124,102.6c-0.5,0-0.8,0-1.3-0.1c0-0.5,0-0.9,0-1.4c0.4,0,0.8-0.1,1.3-0.1c0-0.6,0-1.4,0-2c0.6,0,1.2,0,1.8,0
		c0,0.6,0,1.3,0,2.1c0.6,0,1.1,0,1.7,0c0,0.6,0,0.9,0,1.5c-0.5,0-1,0-1.7,0c0,1.7,0,3.2,0,4.8c0,0.4,0.2,1,0.9,0.6
		c0.2-0.1,0.6,0,0.7,0.1c0.2,0.4,0.6,1-0.1,1.3c-0.8,0.4-1.8,0.5-2.7-0.1c-0.7-0.5-0.7-1.1-0.7-1.8C124,105.8,124,104.2,124,102.6z"
		/>
	<path class="st1" d="M69.7,97.9c0.6,0,1.1,0,1.7,0c0,3.8,0,7.6,0,11.4c-0.6,0-1.1,0-1.7,0C69.7,105.5,69.7,101.8,69.7,97.9z"/>
	<path class="st1" d="M163.9,109.3c-0.6,0-1.1,0-1.7,0c0-3.8,0-7.6,0-11.4c0.6,0,1.1,0,1.7,0C163.9,101.7,163.9,105.4,163.9,109.3z"
		/>
	<path class="st1" d="M100.5,109.3c-0.6,0-1.2,0-1.8,0c0-2.8,0-5.4,0-8.2c0.6,0,1.1,0,1.8,0c0,0.2,0.1,0.4,0.1,0.5
		c0.8-0.3,1.7-0.6,2.6-0.8c0,0.6,0,1.1,0,1.6c-0.5,0.1-0.8,0.2-1.2,0.3c-1,0.4-1.6,1.1-1.5,2.3C100.6,106.3,100.5,107.8,100.5,109.3
		z"/>
	<path class="st1" d="M185.4,101.6c0.9-0.3,1.7-0.6,2.6-0.8c0,0.6,0,1.1,0,1.6c-0.4,0.1-0.6,0-0.9,0.2c-1.6,0.7-1.8,0.8-1.7,2.4
		c0.1,1.5,0,3,0,4.4c-0.6,0-1.2,0-1.8,0c0-2.8,0-5.4,0-8.2c0.6,0,1,0,1.7,0C185.3,101.2,185.3,101.4,185.4,101.6z"/>
	<path class="st1" d="M130.8,109.3c-0.6,0-1.1,0-1.7,0c0-2.8,0-5.4,0-8.3c0.6,0,1.1,0,1.7,0C130.8,103.8,130.8,106.6,130.8,109.3z"
		/>
	<path class="st1" d="M210.5,109.3c-0.6,0-1.1,0-1.7,0c0-2.8,0-5.4,0-8.3c0.6,0,1.1,0,1.7,0C210.5,103.8,210.5,106.6,210.5,109.3z"
		/>
	<path class="st1" d="M129.7,100.2c-0.6,0-0.9-0.3-0.9-1c0-0.6,0.4-1,1-1c0.7,0,1.1,0.4,1.1,1C131,99.9,130.5,100.2,129.7,100.2z"/>
	<path class="st1" d="M209.7,100.2c-0.7,0-1.1-0.3-1.1-1c0-0.6,0.4-1,1-1c0.7,0,1.1,0.4,1.1,1C210.7,99.9,210.3,100.2,209.7,100.2z"
		/>
</g>
</svg>
