<?xml version="1.0" encoding="utf-8"?>
<!-- Generator: Adobe Illustrator 24.1.3, SVG Export Plug-In . SVG Version: 6.00 Build 0)  -->
<svg version="1.1" id="Layer_1" xmlns="http://www.w3.org/2000/svg" xmlns:xlink="http://www.w3.org/1999/xlink" x="0px" y="0px"
	 viewBox="0 0 326 128.9" style="enable-background:new 0 0 326 128.9;" xml:space="preserve">
<style type="text/css">
	.st0{fill:#202223;}
	.st1{enable-background:new    ;}
</style>
<g>
	<g>
		<path class="st0" d="M322-363.7c-0.3,0-0.6,0-1,0c-105.4,0-210.7,0-316.1,0c-0.3,0-0.6,0-1,0C4-408.4,4-453.1,4-497.9
			c106,0,212,0,318,0C322-453.1,322-408.4,322-363.7z M14.3-374c99.2,0,198.2,0,297.3,0c0-37.9,0-75.7,0-113.5
			c-99.1,0-198.2,0-297.3,0C14.3-449.7,14.3-411.9,14.3-374z"/>
		<path class="st0" d="M150.7-451.7c-0.4,0-0.6,0-0.9,0c-10.1,0-20.2,0-30.3,0c-0.6,0-0.9,0.2-1,0.8c-0.7,2.6-1.5,5.1-2.2,7.7
			c-1.3,4.7-2.7,9.5-4,14.2c-1.1,3.9-2.3,7.8-3.4,11.6c-1.3,4.7-2.7,9.4-4,14.1c-0.7,2.6-1.5,5.1-2.2,7.7c-0.1,0.2-0.3,0.5-0.5,0.5
			c-5.2,0-10.3,0-15.5,0c-4-15.8-8.1-31.6-12.1-47.3c-0.1,0-0.1,0-0.2,0c-1.5,6.1-3.1,12.3-4.6,18.4c-1.5,5.9-3,11.8-4.5,17.7
			c-0.9,3.6-1.8,7.1-2.7,10.7c-0.1,0.2-0.3,0.5-0.5,0.5c-5.1,0-10.3,0-15.4,0c-6.7-23.2-13.3-46.5-20-69.7c5.6,0,11.2,0,16.8,0
			c4,16.5,8,33.1,12.1,49.6c0.1,0,0.1,0,0.2,0c4.4-16.5,8.7-33.1,13.1-49.6c1.7,0,3.4,0,5.2,0c2,0,4,0,6,0c0.5,0,0.6,0.1,0.8,0.6
			c1.7,6.6,3.4,13.2,5.1,19.8c1.7,6.4,3.3,12.8,5,19.1c0.9,3.3,1.8,6.7,2.7,10c0,0,0,0.1,0.2,0.3c4-16.7,8-33.2,12-49.8
			c26.7,0,53.5,0,80.3,0c0,4.3,0,8.7,0,13.1c-6.7,0-13.4,0-20.1,0c0,18.9,0,37.7,0,56.6c-5,0-10,0-15,0
			C150.7-413.9,150.7-432.8,150.7-451.7z"/>
		<path class="st0" d="M298.6-450.3c-1.4,0.7-2.7,1.5-4.1,2.2c-2.6,1.4-5.2,2.8-7.8,4.2c-0.4,0.2-0.6,0.2-0.9-0.2
			c-3.2-4.4-7.4-7.3-12.7-8.2c-4.4-0.8-8.6-0.2-12.6,1.6c-2.1,0.9-3.9,2.2-5.6,3.7c-3.5,3.3-5.7,7.3-6.5,12c-0.2,1.3-0.3,2.6-0.4,4
			c-0.3,3.7,0.4,7.2,1.8,10.6c0.8,2.1,2,4,3.4,5.7c2.1,2.5,4.7,4.4,7.6,5.7c1.8,0.8,3.7,1.4,5.7,1.6c1.1,0.1,2.1,0.3,3.2,0.3
			c3.1-0.1,6.2-0.7,9.1-1.9c1.9-0.8,3.7-1.8,5.3-3c0.2-0.2,0.5-0.5,0.5-0.8c0-2.6,0-5.1,0-7.7c-6.2,0-12.3,0-18.4,0
			c0-4.4,0-8.7,0-13.1c11.1,0,22.1,0,33.3,0c0,0.3,0,0.5,0,0.8c0,8.4,0,16.8,0,25.2c0,0.6-0.2,1-0.6,1.4c-3.7,3.8-7.9,6.9-12.8,9.1
			c-3.1,1.4-6.3,2.3-9.7,2.8c-1.7,0.2-3.4,0.3-5.1,0.5c-0.5,0-1,0.3-1.4,0.3c-2.2-0.2-4.5-0.4-6.7-0.7c-2.3-0.4-4.6-0.9-6.9-1.6
			c-3.3-1-6.9-3-8.8-4.4c0,1.8,0,3.5,0,5.3c-5,0-10,0-15,0c0-23.2,0-46.4,0-69.6c5,0,9.9,0,14.9,0c0,1.7,0,3.4,0,5.3
			c0.8-0.5,1.5-0.9,2.3-1.3c3.3-1.9,6.8-3.2,10.5-4.1c4.5-1.1,9.1-0.9,13.7-0.8c2.1,0.1,4.3,0.7,6.4,1.2c4,1,7.6,3,10.8,5.5
			c2.9,2.3,5.4,5.1,7.4,8.3C298.6-450.4,298.6-450.4,298.6-450.3z"/>
	</g>
	<g class="st1">
		<path class="st0" d="M52.6-338.1l-3.1-11.5l-3.1,11.5h-1.9l-4-14.2h2l3.2,11.8l3.3-11.8h1.5l3.3,11.8l3.1-11.8h2l-4,14.2H52.6z"/>
		<path class="st0" d="M60.2-350.9c0-0.6,0.5-1.1,1.1-1.1s1.1,0.5,1.1,1.1s-0.5,1.1-1.1,1.1S60.2-350.3,60.2-350.9z M60.5-338.1
			v-10.2h1.6v10.3h-1.6V-338.1z"/>
		<path class="st0" d="M65.3-338.1v-14.2h1.6v14.2H65.3z"/>
		<path class="st0" d="M70.1-338.1v-14.2h1.6v14.2H70.1z"/>
		<path class="st0" d="M74.6-350.9c0-0.6,0.5-1.1,1.1-1.1s1.1,0.5,1.1,1.1s-0.5,1.1-1.1,1.1S74.6-350.3,74.6-350.9z M74.9-338.1
			v-10.2h1.6v10.3h-1.6V-338.1z"/>
		<path class="st0" d="M86.1-338.1v-1.2c-0.9,0.9-2,1.4-3.4,1.4c-1.7,0-3.6-1.2-3.6-3.4c0-2.3,1.9-3.4,3.6-3.4
			c1.4,0,2.6,0.4,3.4,1.4v-1.9c0-1.4-1.1-2.2-2.6-2.2c-1.2,0-2.2,0.4-3.2,1.4l-0.7-1.1c1.1-1.2,2.4-1.7,4.1-1.7c2.2,0,4,1,4,3.5v7.1
			h-1.6V-338.1z M86.1-340.2v-1.9c-0.6-0.9-1.7-1.3-2.8-1.3c-1.5,0-2.5,0.9-2.5,2.3c0,1.3,1,2.2,2.5,2.2
			C84.4-339,85.5-339.4,86.1-340.2z"/>
		<path class="st0" d="M103.3-338.1v-7c0-1.3-0.6-2.1-1.9-2.1c-1.1,0-2.2,0.8-2.7,1.6v7.5h-1.6v-7c0-1.3-0.6-2.1-1.9-2.1
			c-1,0-2.2,0.8-2.7,1.6v7.5h-1.6v-10.2h1.6v1.5c0.4-0.7,1.8-1.7,3.3-1.7c1.6,0,2.5,0.9,2.8,1.9c0.6-0.9,2-1.9,3.5-1.9
			c1.9,0,2.9,1,2.9,3.1v7.4h-1.7V-338.1z"/>
		<path class="st0" d="M122.8-338.1c-0.4-0.4-1-0.9-1.6-1.5c-1,1-2.4,1.7-4.1,1.7c-2.4,0-4.4-1.3-4.4-4c0-2.2,1.5-3.3,3.1-4.2
			c-0.6-1.1-1.1-2.2-1.1-3.2c0-1.9,1.6-3.3,3.6-3.3c1.9,0,3.2,1,3.2,2.8c0,2.1-1.8,3.1-3.6,4c0.6,0.8,1.2,1.5,1.6,2
			c0.6,0.7,1.1,1.3,1.7,1.9c0.8-1.2,1.3-2.5,1.5-3.2l1.4,0.6c-0.5,1.1-1.1,2.5-1.9,3.7c0.8,0.9,1.7,1.7,2.8,2.7H122.8z M120.3-340.5
			c-0.8-0.9-1.6-1.7-2-2.2c-0.6-0.7-1.2-1.4-1.8-2.3c-1.2,0.7-2.1,1.6-2.1,3.1c0,1.8,1.4,2.7,2.9,2.7
			C118.5-339.1,119.5-339.7,120.3-340.5z M117.3-346.7c1.5-0.7,2.8-1.5,2.8-2.9c0-1-0.7-1.6-1.7-1.6c-1.1,0-2,0.9-2,2.1
			C116.5-348.4,116.8-347.5,117.3-346.7z"/>
		<path class="st0" d="M136.3-338.1v-12.6h-4.5v-1.6h10.8v1.6h-4.5v12.6H136.3L136.3-338.1z"/>
		<path class="st0" d="M150-338.1v-1.4c-0.8,0.9-2.1,1.7-3.7,1.7c-2.2,0-3.3-1-3.3-3.3v-7.2h1.6v6.8c0,1.8,0.9,2.3,2.3,2.3
			c1.3,0,2.4-0.7,3-1.6v-7.5h1.6v10.3H150V-338.1z"/>
		<path class="st0" d="M154.8-338.1v-10.2h1.6v1.7c0.8-1.1,2-1.9,3.4-1.9v1.6c-0.2,0-0.4-0.1-0.6-0.1c-1,0-2.3,0.8-2.8,1.6v7.3
			H154.8L154.8-338.1z"/>
		<path class="st0" d="M168.8-338.1v-6.7c0-1.8-0.9-2.4-2.3-2.4c-1.3,0-2.4,0.8-3,1.6v7.5h-1.6v-10.2h1.6v1.5
			c0.7-0.9,2.1-1.7,3.7-1.7c2.2,0,3.3,1.1,3.3,3.3v7.2h-1.7V-338.1z"/>
		<path class="st0" d="M173-343.2c0-3,2.1-5.4,5.1-5.4c3.1,0,4.9,2.4,4.9,5.5v0.4h-8.3c0.1,1.9,1.5,3.6,3.7,3.6
			c1.2,0,2.4-0.5,3.2-1.3l0.8,1c-1,1-2.4,1.6-4.1,1.6C175.2-337.8,173-340,173-343.2z M178.1-347.3c-2.2,0-3.3,1.9-3.4,3.4h6.8
			C181.4-345.4,180.4-347.3,178.1-347.3z"/>
		<path class="st0" d="M185.6-338.1v-10.2h1.6v1.7c0.8-1.1,2-1.9,3.4-1.9v1.6c-0.2,0-0.4-0.1-0.6-0.1c-1,0-2.3,0.8-2.8,1.6v7.3
			H185.6L185.6-338.1z"/>
		<path class="st0" d="M197.6-345.2c0-4.4,3.2-7.3,7.3-7.3c2.5,0,4.3,1.2,5.4,2.8l-1.5,0.8c-0.8-1.2-2.3-2.1-3.9-2.1
			c-3.1,0-5.5,2.4-5.5,5.8s2.4,5.8,5.5,5.8c1.6,0,3.1-0.9,3.9-2.1l1.5,0.8c-1.2,1.6-2.9,2.8-5.4,2.8
			C200.8-337.8,197.6-340.8,197.6-345.2z"/>
		<path class="st0" d="M211.9-343.2c0-3,2-5.4,5.1-5.4s5.1,2.4,5.1,5.4s-2,5.4-5.1,5.4S211.9-340.2,211.9-343.2z M220.4-343.2
			c0-2.1-1.2-4-3.4-4s-3.4,1.9-3.4,4s1.2,4,3.4,4S220.4-341.1,220.4-343.2z"/>
		<path class="st0" d="M237.1-338.1v-7c0-1.3-0.6-2.1-1.9-2.1c-1.1,0-2.2,0.8-2.7,1.6v7.5h-1.6v-7c0-1.3-0.6-2.1-1.9-2.1
			c-1,0-2.2,0.8-2.7,1.6v7.5h-1.6v-10.2h1.6v1.5c0.4-0.7,1.8-1.7,3.3-1.7c1.6,0,2.5,0.9,2.8,1.9c0.6-0.9,2-1.9,3.5-1.9
			c1.9,0,2.9,1,2.9,3.1v7.4h-1.7V-338.1z"/>
		<path class="st0" d="M243.5-339.6v5.5h-1.6v-14.2h1.6v1.5c0.7-1,2-1.8,3.5-1.8c2.7,0,4.6,2,4.6,5.4c0,3.3-1.9,5.4-4.6,5.4
			C245.6-337.8,244.4-338.5,243.5-339.6z M249.9-343.2c0-2.3-1.2-4-3.3-4c-1.3,0-2.5,0.7-3.1,1.6v4.6c0.6,0.9,1.8,1.7,3.1,1.7
			C248.7-339.2,249.9-340.9,249.9-343.2z"/>
		<path class="st0" d="M260.5-338.1v-1.2c-0.9,0.9-2,1.4-3.4,1.4c-1.7,0-3.6-1.2-3.6-3.4c0-2.3,1.9-3.4,3.6-3.4
			c1.4,0,2.6,0.4,3.4,1.4v-1.9c0-1.4-1.1-2.2-2.6-2.2c-1.2,0-2.2,0.4-3.2,1.4l-0.7-1.1c1.1-1.2,2.4-1.7,4.1-1.7c2.2,0,4,1,4,3.5v7.1
			h-1.6V-338.1z M260.5-340.2v-1.9c-0.6-0.9-1.7-1.3-2.8-1.3c-1.5,0-2.5,0.9-2.5,2.3c0,1.3,1,2.2,2.5,2.2
			C258.8-339,259.9-339.4,260.5-340.2z"/>
		<path class="st0" d="M272.3-338.1v-6.7c0-1.8-0.9-2.4-2.3-2.4c-1.3,0-2.4,0.8-3,1.6v7.5h-1.6v-10.2h1.6v1.5
			c0.7-0.9,2.1-1.7,3.7-1.7c2.2,0,3.3,1.1,3.3,3.3v7.2h-1.7V-338.1z"/>
		<path class="st0" d="M276.8-335.5c0.2,0.1,0.6,0.2,0.9,0.2c0.7,0,1.2-0.2,1.5-1.1l0.7-1.6l-4.3-10.4h1.7l3.4,8.4l3.4-8.4h1.7
			l-5.2,12.4c-0.6,1.5-1.7,2.1-3,2.1c-0.3,0-0.9-0.1-1.2-0.1L276.8-335.5z"/>
	</g>
	<g class="st1">
		<path class="st0" d="M96.2-319.1v-10h1.2v10H96.2z"/>
		<path class="st0" d="M104.6-319.1v-4.7c0-1.3-0.6-1.7-1.6-1.7c-0.9,0-1.7,0.5-2.1,1.1v5.3h-1.1v-7.2h1.1v1.1
			c0.5-0.6,1.5-1.2,2.6-1.2c1.5,0,2.3,0.8,2.3,2.3v5.1h-1.2V-319.1z"/>
		<path class="st0" d="M108.2-320.6v-4.7H107v-1h1.2v-2h1.1v2h1.5v1h-1.5v4.5c0,0.5,0.2,0.9,0.7,0.9c0.3,0,0.6-0.1,0.8-0.3l0.3,0.8
			c-0.3,0.3-0.7,0.5-1.3,0.5C108.8-318.9,108.2-319.5,108.2-320.6z"/>
		<path class="st0" d="M112-322.7c0-2.1,1.5-3.8,3.6-3.8c2.2,0,3.5,1.7,3.5,3.9v0.3h-5.9c0.1,1.4,1,2.5,2.6,2.5
			c0.8,0,1.7-0.3,2.2-0.9l0.5,0.7c-0.7,0.7-1.7,1.1-2.9,1.1C113.5-318.9,112-320.5,112-322.7z M115.5-325.6c-1.5,0-2.3,1.3-2.4,2.4
			h4.8C117.9-324.3,117.2-325.6,115.5-325.6z"/>
		<path class="st0" d="M120.9-319.1v-7.2h1.1v1.2c0.6-0.8,1.4-1.3,2.4-1.3v1.2c-0.1,0-0.3,0-0.5,0c-0.7,0-1.6,0.6-2,1.2v5.1h-1
			V-319.1z"/>
		<path class="st0" d="M130.7-319.1v-4.7c0-1.3-0.6-1.7-1.6-1.7c-0.9,0-1.7,0.5-2.1,1.1v5.3h-1.1v-7.2h1.1v1.1
			c0.5-0.6,1.5-1.2,2.6-1.2c1.5,0,2.3,0.8,2.3,2.3v5.1h-1.2V-319.1z"/>
		<path class="st0" d="M138.6-319.1v-0.8c-0.6,0.7-1.4,1-2.4,1c-1.2,0-2.5-0.8-2.5-2.4s1.3-2.4,2.5-2.4c1,0,1.8,0.3,2.4,1v-1.3
			c0-1-0.8-1.5-1.8-1.5c-0.9,0-1.6,0.3-2.2,1l-0.6-0.8c0.8-0.8,1.7-1.2,2.9-1.2c1.5,0,2.8,0.7,2.8,2.4v5H138.6z M138.6-320.6v-1.4
			c-0.4-0.6-1.2-0.9-2-0.9c-1,0-1.8,0.7-1.8,1.6c0,0.9,0.7,1.6,1.8,1.6C137.4-319.7,138.2-320,138.6-320.6z"/>
		<path class="st0" d="M142.2-320.6v-4.7H141v-1h1.2v-2h1.1v2h1.5v1h-1.5v4.5c0,0.5,0.2,0.9,0.7,0.9c0.3,0,0.6-0.1,0.8-0.3l0.3,0.8
			c-0.3,0.3-0.7,0.5-1.3,0.5C142.7-318.9,142.2-319.5,142.2-320.6z"/>
		<path class="st0" d="M146.2-328.1c0-0.4,0.3-0.8,0.7-0.8s0.8,0.3,0.8,0.8s-0.3,0.8-0.8,0.8C146.5-327.4,146.2-327.7,146.2-328.1z
			 M146.4-319.1v-7.2h1.1v7.2H146.4z"/>
		<path class="st0" d="M149.3-322.7c0-2.1,1.4-3.8,3.6-3.8s3.6,1.7,3.6,3.8s-1.4,3.8-3.6,3.8S149.3-320.6,149.3-322.7z M155.3-322.7
			c0-1.5-0.9-2.8-2.4-2.8s-2.4,1.3-2.4,2.8s0.9,2.8,2.4,2.8S155.3-321.3,155.3-322.7z"/>
		<path class="st0" d="M163.2-319.1v-4.7c0-1.3-0.6-1.7-1.6-1.7c-0.9,0-1.7,0.5-2.1,1.1v5.3h-1.1v-7.2h1.1v1.1
			c0.5-0.6,1.5-1.2,2.6-1.2c1.5,0,2.3,0.8,2.3,2.3v5.1h-1.2V-319.1z"/>
		<path class="st0" d="M171.1-319.1v-0.8c-0.6,0.7-1.4,1-2.4,1c-1.2,0-2.5-0.8-2.5-2.4s1.3-2.4,2.5-2.4c1,0,1.8,0.3,2.4,1v-1.3
			c0-1-0.8-1.5-1.8-1.5c-0.9,0-1.6,0.3-2.2,1l-0.5-0.8c0.8-0.8,1.7-1.2,2.9-1.2c1.5,0,2.8,0.7,2.8,2.4v5H171.1z M171.1-320.6v-1.4
			c-0.4-0.6-1.2-0.9-2-0.9c-1,0-1.8,0.7-1.8,1.6c0,0.9,0.7,1.6,1.8,1.6C169.9-319.7,170.7-320,171.1-320.6z"/>
		<path class="st0" d="M174.5-319.1v-10h1.1v10H174.5z"/>
		<path class="st0" d="M181.7-317.3l0.6-0.8c0.6,0.7,1.3,1,2.4,1c1.2,0,2.3-0.6,2.3-2.2v-1c-0.5,0.7-1.4,1.3-2.4,1.3
			c-1.9,0-3.2-1.4-3.2-3.8c0-2.3,1.3-3.8,3.2-3.8c1,0,1.8,0.5,2.4,1.3v-1.1h1.1v7c0,2.4-1.7,3.1-3.4,3.1
			C183.4-316.2,182.6-316.4,181.7-317.3z M187-321.2v-3.2c-0.4-0.6-1.3-1.2-2.2-1.2c-1.5,0-2.3,1.2-2.3,2.8s0.9,2.8,2.3,2.8
			C185.7-320,186.6-320.6,187-321.2z"/>
		<path class="st0" d="M190.4-319.1v-7.2h1.1v1.2c0.6-0.8,1.4-1.3,2.4-1.3v1.2c-0.1,0-0.3,0-0.5,0c-0.7,0-1.6,0.6-2,1.2v5.1h-1
			V-319.1z"/>
		<path class="st0" d="M199.8-319.1v-0.8c-0.6,0.7-1.4,1-2.4,1c-1.2,0-2.5-0.8-2.5-2.4s1.3-2.4,2.5-2.4c1,0,1.8,0.3,2.4,1v-1.3
			c0-1-0.8-1.5-1.8-1.5c-0.9,0-1.6,0.3-2.2,1l-0.5-0.8c0.8-0.8,1.7-1.2,2.9-1.2c1.5,0,2.8,0.7,2.8,2.4v5H199.8z M199.8-320.6v-1.4
			c-0.4-0.6-1.2-0.9-2-0.9c-1,0-1.8,0.7-1.8,1.6c0,0.9,0.7,1.6,1.8,1.6C198.6-319.7,199.4-320,199.8-320.6z"/>
		<path class="st0" d="M208.5-319.1v-1.1c-0.5,0.7-1.4,1.3-2.4,1.3c-1.9,0-3.2-1.4-3.2-3.8c0-2.3,1.3-3.8,3.2-3.8
			c1,0,1.9,0.5,2.4,1.3v-3.9h1.1v10H208.5z M208.5-321.1v-3.3c-0.4-0.6-1.3-1.2-2.2-1.2c-1.5,0-2.3,1.2-2.3,2.8s0.9,2.8,2.3,2.8
			C207.2-319.9,208.1-320.4,208.5-321.1z"/>
		<path class="st0" d="M211.7-328.1c0-0.4,0.3-0.8,0.8-0.8c0.4,0,0.8,0.3,0.8,0.8s-0.3,0.8-0.8,0.8
			C212-327.4,211.7-327.7,211.7-328.1z M211.8-319.1v-7.2h1.1v7.2H211.8z"/>
		<path class="st0" d="M220.1-319.1v-4.7c0-1.3-0.6-1.7-1.6-1.7c-0.9,0-1.7,0.5-2.1,1.1v5.3h-1.1v-7.2h1.1v1.1
			c0.5-0.6,1.5-1.2,2.6-1.2c1.5,0,2.3,0.8,2.3,2.3v5.1h-1.2V-319.1z"/>
		<path class="st0" d="M223.5-317.3l0.6-0.8c0.6,0.7,1.3,1,2.4,1c1.2,0,2.3-0.6,2.3-2.2v-1c-0.5,0.7-1.4,1.3-2.4,1.3
			c-1.9,0-3.2-1.4-3.2-3.8c0-2.3,1.3-3.8,3.2-3.8c1,0,1.8,0.5,2.4,1.3v-1.1h1.1v7c0,2.4-1.7,3.1-3.4,3.1
			C225.2-316.2,224.3-316.4,223.5-317.3z M228.7-321.2v-3.2c-0.4-0.6-1.3-1.2-2.2-1.2c-1.5,0-2.3,1.2-2.3,2.8s0.9,2.8,2.3,2.8
			C227.5-320,228.3-320.6,228.7-321.2z"/>
	</g>
	
		<text transform="matrix(1 0 0 1 39.1738 -244.4029)" class="st0" style="font-family:'ProximaNova-Regular'; font-size:21.3056px;">William &amp; Turner Company</text>
	<text transform="matrix(1 0 0 1 93.3945 -225.4587)" class="st0" style="font-family:'ProximaNovaT-Thin'; font-size:16.0254px;">International grading</text>
</g>
<g>
	<path class="st0" d="M151.8,44.2c0,0.5,0,0.9,0,1.2c0,15.3,0,30.6,0,45.9c0,1.3-0.8,2-2,2c-3.8,0-7.6,0-11.4,0
		c-1.1,0-1.9-0.8-1.9-2c0-15.3,0-30.6,0-45.9c0-0.4,0-0.7,0-1.1c-7.8,0-15.5,0-23.3,0c-4.6,16.3-9.3,32.6-13.9,49
		c-5.2,0-10.5,0-15.8,0c-3.1-12.3-6.3-24.7-9.4-37c-0.1,0-0.1,0-0.2,0c-3.1,12.3-6.2,24.7-9.4,37c-5.3,0-10.5,0-15.8,0
		c-1-3.4-2-6.9-3-10.3c-0.9-3.2-1.8-6.5-2.7-9.7C41.3,67.5,39.7,61.7,38,56c-1.1-4-2.3-8-3.4-12c-1.1-3.9-2.3-7.8-3.4-11.7
		c-0.2-0.7,0.8-2.1,1.6-2.1c4.8,0,9.7,0,14.5,0c0.2,0,0.6,0.3,0.7,0.5c1,3.8,1.9,7.7,2.8,11.5c1.5,6.1,3,12.1,4.4,18.2
		c0.7,2.9,1.4,5.8,2,8.7c0,0.1,0.1,0.2,0.3,0.3c3.5-13.1,6.9-26.2,10.3-39.3c4,0,8,0,12.1,0c3.4,13.1,6.8,26.2,10.3,39.5
		c1.3-5.4,2.6-10.7,3.9-16c1.1-4.7,2.2-9.4,3.3-14.1c0.7-2.9,1.5-5.7,2.1-8.6c0.2-0.8,0.5-0.9,1.2-0.9c19.3,0,38.5,0,57.8,0
		c3,0,6,0,9.1,0c1.1,0,1.7,0.6,1.7,1.7c0,3.4,0,6.9,0,10.3c0,1.1-0.8,1.9-1.9,1.9c-4.9,0-9.7,0-14.6,0
		C152.6,44.2,152.3,44.2,151.8,44.2z"/>
	<path class="st0" d="M9.8,112c19.1,0,38.1,0,57.2,0c0,1.5,0,2.9,0,4.4c-20.6,0-41.1,0-61.7,0c0-36.7,0-73.3,0-110
		c105.1,0,210.2,0,315.4,0c0,36.7,0,73.3,0,110c-20.6,0-41.2,0-61.8,0c0-1.4,0-2.9,0-4.4c19.1,0,38.2,0,57.3,0
		c0-33.7,0-67.4,0-101.1c-102.1,0-204.2,0-306.4,0C9.8,44.6,9.8,78.2,9.8,112z"/>
	<path class="st0" d="M275.2,51.6c-0.9-1.2-1.7-2.5-2.7-3.5c-1.9-1.9-4.2-3.4-6.8-4.2c-4.3-1.2-8.5-0.7-12.5,1.2
		c-4.4,2.2-7.3,5.8-8.7,10.5c-1.9,6.6-1.2,12.8,3.1,18.3c2.5,3.3,5.9,5.2,10,6c4.1,0.8,8,0.2,11.8-1.5c0.3-0.2,0.7-0.3,1-0.5
		c2.1-0.9,2.9-2.4,2.5-4.7c-0.1-0.7,0-1.4,0-2.3c-0.4,0-0.7,0-1,0c-4.4,0-8.8,0-13.2,0c-1.1,0-1.9-0.8-1.9-1.9c0-3.3,0-6.6,0-10
		c0-1.1,0.8-1.9,1.9-1.9c9.2,0,18.5,0,27.7,0c1.1,0,1.9,0.8,1.9,1.9c0,7.5,0,15,0,22.5c0,0.4-0.2,0.8-0.4,1.1
		c-2.3,2.5-4.9,4.8-7.8,6.6c-3.7,2.3-7.7,3.8-12,4.6c-3.2,0.6-6.4,0.6-9.6,0.5c-4-0.2-7.8-1.2-11.5-2.7c-2.7-1.1-5.2-2.6-7.5-4.4
		c-2.9-2.3-5.2-5-7.2-8.2c-2.3-3.8-3.7-7.9-4.2-12.3c-0.3-2.9-0.1-5.9-0.1-8.9c0.1-3,0.9-5.8,2-8.5c1.1-2.9,2.6-5.5,4.5-7.9
		c3.2-4.1,7.2-7,11.9-9.1c3-1.3,6-2.3,9.3-2.6c2.8-0.2,5.6-0.5,8.4-0.3c3.2,0.1,6.3,0.8,9.3,2.1c3.4,1.4,6.5,3.3,9.2,5.9
		c1.7,1.7,3.3,3.5,4.6,5.5c0.4,0.6,0.1,2.2-0.6,2.6c-2.4,1.3-4.9,2.7-7.4,4C277.8,50.2,276.5,50.9,275.2,51.6z"/>
	<path class="st0" d="M218.7,61.8c0,9.8,0,19.7,0,29.5c0,1.2-0.8,2-2,2c-3.8,0-7.7,0-11.5,0c-1.1,0-1.9-0.8-1.9-1.9
		c0-19.7,0-39.5,0-59.2c0-1.1,0.8-1.9,1.9-1.9c3.9,0,7.7,0,11.6,0c1.1,0,1.9,0.8,1.9,1.9C218.7,42,218.7,51.9,218.7,61.8z"/>
	<path class="st0" d="M197.1,109.1c-0.4,0.2-0.6,0.4-0.9,0.5c-0.5,0.3-0.9,0.3-1.3-0.1c-2.7-2.8-6.2-1-7.1,2.1c-0.8,2.7,0.8,5.6,4,6
		c1.1,0.2,2.3-0.3,3-1.2c0.4-0.5,0.2-1.4,0.3-2.2c-1.5,0-2.8,0-4.2,0c0-0.5,0-1,0-1.5c2,0,4,0,6.1,0c0,1.4,0,2.9,0,4.3
		c0,0.2-0.2,0.4-0.4,0.6c-1.6,1.5-3.5,1.9-5.5,1.6c-1.3-0.2-2.5-0.6-3.5-1.5c-1.7-1.6-2.2-3.6-1.9-5.8c0.3-2.1,1.3-3.9,3.4-4.8
		c2.5-1.1,4.9-1,7.1,0.8C196.5,108.1,196.7,108.6,197.1,109.1z"/>
	<path class="st0" d="M248.1,118.4c-1.7,1.1-3.4,1.2-5.1,0.1c-0.9-0.6-1.2-1.6-1.5-2.6c-0.3-1.5-0.2-3,0.6-4.3
		c1.1-1.9,3.9-2.3,5.9-0.9c0-0.2,0.1-0.4,0.1-0.6c0.6,0,1.2,0,1.9,0c0,0.3,0,0.6,0,0.9c0,2.5,0,5,0,7.5c0,2.8-1.2,3.8-4,4
		c-1.4,0.1-2.6-0.1-3.8-1c-0.7-0.5-0.2-0.9,0.1-1.1c0.2-0.2,0.7-0.3,0.9-0.2c0.6,0.2,1.1,0.6,1.7,0.8
		C246.5,121.4,248.4,120.3,248.1,118.4z M248.1,114.6c0-0.4,0-0.7,0-1c0-1.6-1.8-2.7-3.2-2c-1.4,0.6-2.1,3.1-1,4.8
		c0.9,1.4,2,1.5,3.4,0.7C248.3,116.4,248.1,115.5,248.1,114.6z"/>
	<path class="st0" d="M222.2,110.7c0-0.8,0-1.4,0-2.1c0-0.6,0-1.3,0-2c0.6,0,1.2,0,1.9,0c0,4.1,0,8.2,0,12.4c-0.7-0.3-1.6,0.5-2-0.6
		c-1.6,1-3.3,1.2-5,0c-1-0.7-1.4-1.8-1.5-2.9c-0.2-1.4,0-2.9,0.8-4.1c0.9-1.5,3.1-2.1,4.8-1.3C221.5,110.3,221.8,110.5,222.2,110.7z
		 M222.2,114.6c0-0.3,0-0.7,0-1c0-1.6-1.8-2.6-3.2-2c-1.2,0.6-2,2.6-1.2,4.4c0.5,1.1,1.6,1.8,2.6,1.6c1.3-0.3,1.9-1,1.9-2.4
		C222.2,115,222.2,114.8,222.2,114.6z"/>
	<path class="st0" d="M105.5,115.3c-2.5,0-4.8,0-7.1,0c0.4,2.4,3,3.3,4.9,1.7c0.8-0.7,1.1,0.1,1.5,0.5c0.5,0.5-0.2,0.6-0.4,0.8
		c-1.8,1.3-4.8,1.5-6.5-0.2c-1.4-1.4-1.7-3.2-1.1-5.1c0.6-2.1,2.4-3.3,4.7-3.1c2.1,0.2,3.6,1.4,3.9,3.7
		C105.3,114.1,105.4,114.6,105.5,115.3z M103.5,113.8c-0.5-1.6-1.6-2.6-2.6-2.5c-1.1,0.1-2.4,1.2-2.4,2.5
		C100.1,113.8,101.7,113.8,103.5,113.8z"/>
	<path class="st0" d="M129.9,113.5c0.2-0.8-0.1-1.4-0.9-1.8c-0.7-0.4-2-0.2-2.7,0.5c-0.7,0.6-1.4,0.5-1.6-0.4c0-0.2,0-0.5,0.2-0.6
		c1.6-1.5,4.2-1.6,5.9-0.6c0.7,0.4,1.1,1.2,1.1,2c0,2.1,0,4.3,0,6.7c-0.7-0.1-1.4-0.3-2-0.4c-0.2,0-0.4,0-0.6,0.1
		c-1,0.4-1.9,0.4-3,0.2c-1.7-0.3-2.4-2-2.2-3.5c0.1-1.4,1.4-2.5,2.9-2.5C127.9,113.1,128.9,113.3,129.9,113.5z M129.9,116.3
		c0-1.1-0.9-1.9-2-1.9c-0.9,0-1.9,0.9-1.9,1.8c0,0.9,0.9,1.8,1.8,1.9C129,118,129.9,117.2,129.9,116.3z"/>
	<path class="st0" d="M171.6,113.5c0.2-0.8-0.1-1.4-0.9-1.8c-0.7-0.4-2-0.2-2.7,0.5c-0.7,0.6-1.4,0.5-1.6-0.4c0-0.2,0-0.5,0.2-0.6
		c1.6-1.5,4.2-1.6,5.9-0.6c0.7,0.4,1.1,1.2,1.1,2c0,2.1,0,4.3,0,6.7c-0.7-0.1-1.4-0.3-2-0.4c-0.2,0-0.4,0-0.6,0.1
		c-1,0.4-1.9,0.4-3,0.2c-1.7-0.2-2.4-2-2.2-3.5c0.1-1.4,1.4-2.5,2.9-2.5C169.6,113.1,170.5,113.3,171.6,113.5z M171.6,116.3
		c0-1.1-0.9-1.9-1.9-1.9c-0.9,0-1.9,0.9-1.9,1.8c0,0.9,0.9,1.9,1.8,1.9C170.7,118,171.6,117.2,171.6,116.3z"/>
	<path class="st0" d="M213.3,119.2c-0.8-0.2-1.4-0.4-2.1-0.5c-0.2,0-0.4,0.1-0.6,0.2c-1.5,0.5-3,0.6-4.2-0.6c-1-1-1-2.2-0.6-3.5
		c0.4-1.2,1.5-1.7,2.7-1.7c0.9,0,1.9,0.2,2.8,0.3c0.3-1-0.4-2.1-1.6-2c-0.7,0.1-1.5,0.4-2.1,0.8c-0.5,0.3-0.8,0.4-1.1-0.1
		c-0.3-0.4-0.6-0.8,0.1-1.3c1.7-1.3,3.5-1.3,5.4-0.6c0.9,0.4,1.4,1.2,1.4,2.1C213.3,114.6,213.3,116.8,213.3,119.2z M211.3,116.3
		c0.2-1.2-0.8-1.8-1.9-1.9c-1-0.1-1.9,0.9-2,1.8c0,0.9,0.9,1.8,1.8,1.8C210.4,118,211.3,117.2,211.3,116.3z"/>
	<path class="st0" d="M149,109.8c2.9-0.1,4.6,2,4.6,4.7c0,2.7-1.7,4.7-4.7,4.7c-2.7,0-4.5-2.2-4.5-4.8
		C144.5,111.9,146.2,109.7,149,109.8z M151.7,114.5c0-1.6-1.2-3.1-2.6-3.1c-1.4,0-2.7,1.5-2.7,3.1c0,1.6,1.2,3.1,2.6,3.1
		C150.4,117.7,151.7,116.2,151.7,114.5z"/>
	<path class="st0" d="M88.4,119c-0.7,0-1.3,0-2,0c0-1.8,0-3.6,0-5.4c0-1.3-0.3-1.9-1.2-2.1c-0.7-0.2-2.3,0.4-2.7,1.1
		c-0.1,0.2-0.1,0.5-0.1,0.8c0,1.9,0,3.7,0,5.7c-0.6,0-1.3,0-1.9,0c0-3,0-5.9,0-8.9c0.6,0,1.2,0,1.8,0c0,0.2,0.1,0.4,0.1,0.6
		c1.1-0.7,2.2-1,3.4-0.9c1.3,0.1,2.4,1,2.5,2.3C88.5,114.4,88.4,116.7,88.4,119z"/>
	<path class="st0" d="M231.5,110.1c1.8-0.1,1.8-0.1,1.9,0.4c1.2-0.2,2.3-0.5,3.4-0.6c1.4-0.1,2.5,1.1,2.5,2.5c0,2.2,0,4.4,0,6.7
		c-0.6,0-1.3,0-2,0c0-1.9,0-3.7,0-5.6c0-1.7-1.3-2.4-2.8-1.7c-0.9,0.4-1.3,1-1.3,2.1c0.1,1.7,0,3.4,0,5.2c-0.6,0-1.2,0-1.9,0
		C231.5,116.1,231.5,113.1,231.5,110.1z"/>
	<path class="st0" d="M163.6,119c-0.7,0-1.3,0-2,0c0-1.9,0-3.9,0-5.8c0-0.8-0.3-1.4-1.1-1.7c-1.2-0.5-2.9,0.7-2.9,2
		c0,1.8,0,3.6,0,5.5c-0.6,0-1.3,0-1.9,0c0-2.9,0-5.9,0-8.9c0.6,0,1.2,0,1.8,0c0,0.1,0.1,0.4,0.2,0.6c1-0.7,2.2-1,3.4-0.9
		c1.3,0.1,2.4,1,2.5,2.4C163.7,114.4,163.6,116.7,163.6,119z"/>
	<path class="st0" d="M115.9,119c-0.7,0-1.3,0-1.9,0c0-3,0-5.9,0-9c0.7,0.3,1.5-0.5,1.9,0.4c1.1-0.2,2.3-0.5,3.4-0.6
		c1.4-0.1,2.5,1.1,2.5,2.5c0,2.2,0,4.4,0,6.7c-0.7,0-1.3,0-2,0c0-1.9,0-3.7,0-5.6c0-1.7-1.3-2.4-2.8-1.7c-0.9,0.4-1.3,1-1.3,2.1
		C116,115.5,115.9,117.2,115.9,119z"/>
	<path class="st0" d="M93.3,110c0.7,0,1.2,0,1.8,0c0,0.5,0,1,0,1.6c-0.5,0-1.1,0-1.7,0c0,1.8,0,3.6,0,5.3c0,0.4,0.2,1,1,0.6
		c0.2-0.1,0.7-0.1,0.8,0.1c0.2,0.4,0.7,1.2,0,1.3c-0.9,0.2-1.9,0.2-2.8,0c-0.9-0.2-0.9-1.2-0.9-1.9c0-1.7,0-3.5,0-5.3
		c-0.5,0-0.9-0.1-1.4-0.1c0-0.5,0-1,0-1.5c0.4,0,0.9,0,1.4-0.1c0-0.7,0-1.5,0-2.2c0.7,0,1.3,0,2,0C93.3,108.5,93.3,109.2,93.3,110z"
		/>
	<path class="st0" d="M134.8,111.7c-0.5,0-0.9,0-1.4-0.1c0-0.5,0-1,0-1.5c0.4,0,0.9-0.1,1.4-0.1c0-0.7,0-1.5,0-2.2c0.7,0,1.3,0,2,0
		c0,0.7,0,1.4,0,2.3c0.6,0,1.2,0,1.8,0c0,0.6,0,1,0,1.6c-0.5,0-1.1,0-1.8,0c0,1.8,0,3.5,0,5.2c0,0.4,0.2,1.1,1,0.7
		c0.2-0.1,0.7,0,0.8,0.1c0.2,0.4,0.7,1.1-0.1,1.4c-0.9,0.4-2,0.5-2.9-0.1c-0.8-0.5-0.8-1.2-0.8-2
		C134.8,115.2,134.8,113.5,134.8,111.7z"/>
	<path class="st0" d="M76,106.6c0.6,0,1.2,0,1.8,0c0,4.1,0,8.2,0,12.4c-0.6,0-1.2,0-1.8,0C76,114.9,76,110.8,76,106.6z"/>
	<path class="st0" d="M178.1,119c-0.6,0-1.2,0-1.8,0c0-4.1,0-8.2,0-12.4c0.6,0,1.2,0,1.8,0C178.1,110.7,178.1,114.8,178.1,119z"/>
	<path class="st0" d="M109.4,119c-0.7,0-1.3,0-1.9,0c0-3,0-5.9,0-8.9c0.6,0,1.2,0,1.9,0c0,0.2,0.1,0.4,0.1,0.5
		c0.9-0.3,1.8-0.6,2.8-0.9c0,0.7,0,1.2,0,1.7c-0.5,0.1-0.9,0.2-1.3,0.3c-1.1,0.4-1.7,1.2-1.6,2.5C109.5,115.7,109.4,117.3,109.4,119
		z"/>
	<path class="st0" d="M201.4,110.6c1-0.3,1.8-0.6,2.8-0.9c0,0.7,0,1.2,0,1.7c-0.4,0.1-0.7,0-1,0.2c-1.7,0.8-1.9,0.9-1.8,2.6
		c0.1,1.6,0,3.2,0,4.8c-0.7,0-1.3,0-1.9,0c0-3,0-5.9,0-8.9c0.6,0,1.1,0,1.8,0C201.3,110.2,201.3,110.4,201.4,110.6z"/>
	<path class="st0" d="M142.2,119c-0.6,0-1.2,0-1.8,0c0-3,0-5.9,0-9c0.6,0,1.2,0,1.8,0C142.2,113,142.2,116,142.2,119z"/>
	<path class="st0" d="M228.6,119c-0.6,0-1.2,0-1.8,0c0-3,0-5.9,0-9c0.6,0,1.2,0,1.8,0C228.6,113,228.6,116,228.6,119z"/>
	<path class="st0" d="M141,109.1c-0.6,0-1-0.3-1-1.1c0-0.7,0.4-1.1,1.1-1.1c0.8,0,1.2,0.4,1.2,1.1
		C142.4,108.8,141.9,109.1,141,109.1z"/>
	<path class="st0" d="M227.7,109.1c-0.8,0-1.2-0.3-1.2-1.1c0-0.7,0.4-1.1,1.1-1.1c0.8,0,1.2,0.4,1.2,1.1
		C228.8,108.8,228.4,109.1,227.7,109.1z"/>
</g>
</svg>
