<?xml version="1.0" encoding="utf-8"?>
<!-- Generator: Adobe Illustrator 24.1.3, SVG Export Plug-In . SVG Version: 6.00 Build 0)  -->
<svg version="1.1" id="Layer_1" xmlns="http://www.w3.org/2000/svg" xmlns:xlink="http://www.w3.org/1999/xlink" x="0px" y="0px"
	 viewBox="0 0 326 189.9" style="enable-background:new 0 0 326 189.9;" xml:space="preserve">
<style type="text/css">
	.st0{fill:#202223;}
	.st1{enable-background:new    ;}
</style>
<g>
	<g>
		<path class="st0" d="M322,137.6c-0.3,0-0.6,0-1,0c-105.4,0-210.7,0-316.1,0c-0.3,0-0.6,0-1,0C4,92.9,4,48.2,4,3.4
			c106,0,212,0,318,0C322,48.2,322,92.9,322,137.6z M14.3,127.3c99.2,0,198.2,0,297.3,0c0-37.9,0-75.7,0-113.5
			c-99.1,0-198.2,0-297.3,0C14.3,51.6,14.3,89.4,14.3,127.3z"/>
		<path class="st0" d="M150.7,49.6c-0.4,0-0.6,0-0.9,0c-10.1,0-20.2,0-30.3,0c-0.6,0-0.9,0.2-1,0.8c-0.7,2.6-1.5,5.1-2.2,7.7
			c-1.3,4.7-2.7,9.5-4,14.2c-1.1,3.9-2.3,7.8-3.4,11.6c-1.3,4.7-2.7,9.4-4,14.1c-0.7,2.6-1.5,5.1-2.2,7.7c-0.1,0.2-0.3,0.5-0.5,0.5
			c-5.2,0-10.3,0-15.5,0c-4-15.8-8.1-31.6-12.1-47.3c-0.1,0-0.1,0-0.2,0c-1.5,6.1-3.1,12.3-4.6,18.4c-1.5,5.9-3,11.8-4.5,17.7
			c-0.9,3.6-1.8,7.1-2.7,10.7c-0.1,0.2-0.3,0.5-0.5,0.5c-5.1,0-10.3,0-15.4,0C40,83,33.4,59.7,26.7,36.5c5.6,0,11.2,0,16.8,0
			c4,16.5,8,33.1,12.1,49.6c0.1,0,0.1,0,0.2,0c4.4-16.5,8.7-33.1,13.1-49.6c1.7,0,3.4,0,5.2,0c2,0,4,0,6,0c0.5,0,0.6,0.1,0.8,0.6
			c1.7,6.6,3.4,13.2,5.1,19.8c1.7,6.4,3.3,12.8,5,19.1c0.9,3.3,1.8,6.7,2.7,10c0,0,0,0.1,0.2,0.3c4-16.7,8-33.2,12-49.8
			c26.7,0,53.5,0,80.3,0c0,4.3,0,8.7,0,13.1c-6.7,0-13.4,0-20.1,0c0,18.9,0,37.7,0,56.6c-5,0-10,0-15,0
			C150.7,87.4,150.7,68.5,150.7,49.6z"/>
		<path class="st0" d="M298.6,51c-1.4,0.7-2.7,1.5-4.1,2.2c-2.6,1.4-5.2,2.8-7.8,4.2c-0.4,0.2-0.6,0.2-0.9-0.2
			c-3.2-4.4-7.4-7.3-12.7-8.2c-4.4-0.8-8.6-0.2-12.6,1.6c-2.1,0.9-3.9,2.2-5.6,3.7c-3.5,3.3-5.7,7.3-6.5,12c-0.2,1.3-0.3,2.6-0.4,4
			c-0.3,3.7,0.4,7.2,1.8,10.6c0.8,2.1,2,4,3.4,5.7c2.1,2.5,4.7,4.4,7.6,5.7c1.8,0.8,3.7,1.4,5.7,1.6c1.1,0.1,2.1,0.3,3.2,0.3
			c3.1-0.1,6.2-0.7,9.1-1.9c1.9-0.8,3.7-1.8,5.3-3c0.2-0.2,0.5-0.5,0.5-0.8c0-2.6,0-5.1,0-7.7c-6.2,0-12.3,0-18.4,0
			c0-4.4,0-8.7,0-13.1c11.1,0,22.1,0,33.3,0c0,0.3,0,0.5,0,0.8c0,8.4,0,16.8,0,25.2c0,0.6-0.2,1-0.6,1.4c-3.7,3.8-7.9,6.9-12.8,9.1
			c-3.1,1.4-6.3,2.3-9.7,2.8c-1.7,0.2-3.4,0.3-5.1,0.5c-0.5,0-1,0.3-1.4,0.3c-2.2-0.2-4.5-0.4-6.7-0.7c-2.3-0.4-4.6-0.9-6.9-1.6
			c-3.3-1-6.9-3-8.8-4.4c0,1.8,0,3.5,0,5.3c-5,0-10,0-15,0c0-23.2,0-46.4,0-69.6c5,0,9.9,0,14.9,0c0,1.7,0,3.4,0,5.3
			c0.8-0.5,1.5-0.9,2.3-1.3c3.3-1.9,6.8-3.2,10.5-4.1c4.5-1.1,9.1-0.9,13.7-0.8c2.1,0.1,4.3,0.7,6.4,1.2c4,1,7.6,3,10.8,5.5
			c2.9,2.3,5.4,5.1,7.4,8.3C298.6,50.9,298.6,50.9,298.6,51z"/>
	</g>
	<g class="st1">
		<path class="st0" d="M52.6,163.2l-3.1-11.5l-3.1,11.5h-1.9l-4-14.2h2l3.2,11.8l3.3-11.8h1.5l3.3,11.8l3.1-11.8h2l-4,14.2H52.6z"/>
		<path class="st0" d="M60.2,150.4c0-0.6,0.5-1.1,1.1-1.1c0.6,0,1.1,0.5,1.1,1.1s-0.5,1.1-1.1,1.1C60.7,151.5,60.2,151,60.2,150.4z
			 M60.5,163.2V153h1.6v10.3H60.5z"/>
		<path class="st0" d="M65.3,163.2V149h1.6v14.2H65.3z"/>
		<path class="st0" d="M70.1,163.2V149h1.6v14.2H70.1z"/>
		<path class="st0" d="M74.6,150.4c0-0.6,0.5-1.1,1.1-1.1c0.6,0,1.1,0.5,1.1,1.1s-0.5,1.1-1.1,1.1C75.1,151.5,74.6,151,74.6,150.4z
			 M74.9,163.2V153h1.6v10.3H74.9z"/>
		<path class="st0" d="M86.1,163.2v-1.2c-0.9,0.9-2,1.4-3.4,1.4c-1.7,0-3.6-1.2-3.6-3.4c0-2.3,1.9-3.4,3.6-3.4
			c1.4,0,2.6,0.4,3.4,1.4v-1.9c0-1.4-1.1-2.2-2.6-2.2c-1.2,0-2.2,0.4-3.2,1.4l-0.7-1.1c1.1-1.2,2.4-1.7,4.1-1.7c2.2,0,4,1,4,3.5v7.1
			H86.1z M86.1,161.1v-1.9c-0.6-0.9-1.7-1.3-2.8-1.3c-1.5,0-2.5,0.9-2.5,2.3c0,1.3,1,2.2,2.5,2.2C84.4,162.3,85.5,161.9,86.1,161.1z
			"/>
		<path class="st0" d="M103.3,163.2v-7c0-1.3-0.6-2.1-1.9-2.1c-1.1,0-2.2,0.8-2.7,1.6v7.5h-1.6v-7c0-1.3-0.6-2.1-1.9-2.1
			c-1,0-2.2,0.8-2.7,1.6v7.5h-1.6V153h1.6v1.5c0.4-0.7,1.8-1.7,3.3-1.7c1.6,0,2.5,0.9,2.8,1.9c0.6-0.9,2-1.9,3.5-1.9
			c1.9,0,2.9,1,2.9,3.1v7.4H103.3z"/>
		<path class="st0" d="M122.8,163.2c-0.4-0.4-1-0.9-1.6-1.5c-1,1-2.4,1.7-4.1,1.7c-2.4,0-4.4-1.3-4.4-4c0-2.2,1.5-3.3,3.1-4.2
			c-0.6-1.1-1.1-2.2-1.1-3.2c0-1.9,1.6-3.3,3.6-3.3c1.9,0,3.2,1,3.2,2.8c0,2.1-1.8,3.1-3.6,4c0.6,0.8,1.2,1.5,1.6,2
			c0.6,0.7,1.1,1.3,1.7,1.9c0.8-1.2,1.3-2.5,1.5-3.2l1.4,0.6c-0.5,1.1-1.1,2.5-1.9,3.7c0.8,0.9,1.7,1.7,2.8,2.7H122.8z M120.3,160.8
			c-0.8-0.9-1.6-1.7-2-2.2c-0.6-0.7-1.2-1.4-1.8-2.3c-1.2,0.7-2.1,1.6-2.1,3.1c0,1.8,1.4,2.7,2.9,2.7
			C118.5,162.2,119.5,161.6,120.3,160.8z M117.3,154.6c1.5-0.7,2.8-1.5,2.8-2.9c0-1-0.7-1.6-1.7-1.6c-1.1,0-2,0.9-2,2.1
			C116.5,152.9,116.8,153.8,117.3,154.6z"/>
		<path class="st0" d="M136.3,163.2v-12.6h-4.5V149h10.8v1.6h-4.5v12.6H136.3z"/>
		<path class="st0" d="M150,163.2v-1.4c-0.8,0.9-2.1,1.7-3.7,1.7c-2.2,0-3.3-1-3.3-3.3V153h1.6v6.8c0,1.8,0.9,2.3,2.3,2.3
			c1.3,0,2.4-0.7,3-1.6V153h1.6v10.3H150z"/>
		<path class="st0" d="M154.8,163.2V153h1.6v1.7c0.8-1.1,2-1.9,3.4-1.9v1.6c-0.2,0-0.4-0.1-0.6-0.1c-1,0-2.3,0.8-2.8,1.6v7.3H154.8z
			"/>
		<path class="st0" d="M168.8,163.2v-6.7c0-1.8-0.9-2.4-2.3-2.4c-1.3,0-2.4,0.8-3,1.6v7.5h-1.6V153h1.6v1.5c0.7-0.9,2.1-1.7,3.7-1.7
			c2.2,0,3.3,1.1,3.3,3.3v7.2H168.8z"/>
		<path class="st0" d="M173,158.1c0-3,2.1-5.4,5.1-5.4c3.1,0,4.9,2.4,4.9,5.5v0.4h-8.3c0.1,1.9,1.5,3.6,3.7,3.6
			c1.2,0,2.4-0.5,3.2-1.3l0.8,1c-1,1-2.4,1.6-4.1,1.6C175.2,163.5,173,161.3,173,158.1z M178.1,154c-2.2,0-3.3,1.9-3.4,3.4h6.8
			C181.4,155.9,180.4,154,178.1,154z"/>
		<path class="st0" d="M185.6,163.2V153h1.6v1.7c0.8-1.1,2-1.9,3.4-1.9v1.6c-0.2,0-0.4-0.1-0.6-0.1c-1,0-2.3,0.8-2.8,1.6v7.3H185.6z
			"/>
		<path class="st0" d="M197.6,156.1c0-4.4,3.2-7.3,7.3-7.3c2.5,0,4.3,1.2,5.4,2.8l-1.5,0.8c-0.8-1.2-2.3-2.1-3.9-2.1
			c-3.1,0-5.5,2.4-5.5,5.8c0,3.4,2.4,5.8,5.5,5.8c1.6,0,3.1-0.9,3.9-2.1l1.5,0.8c-1.2,1.6-2.9,2.8-5.4,2.8
			C200.8,163.5,197.6,160.5,197.6,156.1z"/>
		<path class="st0" d="M211.9,158.1c0-3,2-5.4,5.1-5.4c3.1,0,5.1,2.4,5.1,5.4c0,3-2,5.4-5.1,5.4
			C213.9,163.5,211.9,161.1,211.9,158.1z M220.4,158.1c0-2.1-1.2-4-3.4-4c-2.2,0-3.4,1.9-3.4,4c0,2.1,1.2,4,3.4,4
			C219.2,162.1,220.4,160.2,220.4,158.1z"/>
		<path class="st0" d="M237.1,163.2v-7c0-1.3-0.6-2.1-1.9-2.1c-1.1,0-2.2,0.8-2.7,1.6v7.5h-1.6v-7c0-1.3-0.6-2.1-1.9-2.1
			c-1,0-2.2,0.8-2.7,1.6v7.5h-1.6V153h1.6v1.5c0.4-0.7,1.8-1.7,3.3-1.7c1.6,0,2.5,0.9,2.8,1.9c0.6-0.9,2-1.9,3.5-1.9
			c1.9,0,2.9,1,2.9,3.1v7.4H237.1z"/>
		<path class="st0" d="M243.5,161.7v5.5h-1.6V153h1.6v1.5c0.7-1,2-1.8,3.5-1.8c2.7,0,4.6,2,4.6,5.4c0,3.3-1.9,5.4-4.6,5.4
			C245.6,163.5,244.4,162.8,243.5,161.7z M249.9,158.1c0-2.3-1.2-4-3.3-4c-1.3,0-2.5,0.7-3.1,1.6v4.6c0.6,0.9,1.8,1.7,3.1,1.7
			C248.7,162.1,249.9,160.4,249.9,158.1z"/>
		<path class="st0" d="M260.5,163.2v-1.2c-0.9,0.9-2,1.4-3.4,1.4c-1.7,0-3.6-1.2-3.6-3.4c0-2.3,1.9-3.4,3.6-3.4
			c1.4,0,2.6,0.4,3.4,1.4v-1.9c0-1.4-1.1-2.2-2.6-2.2c-1.2,0-2.2,0.4-3.2,1.4l-0.7-1.1c1.1-1.2,2.4-1.7,4.1-1.7c2.2,0,4,1,4,3.5v7.1
			H260.5z M260.5,161.1v-1.9c-0.6-0.9-1.7-1.3-2.8-1.3c-1.5,0-2.5,0.9-2.5,2.3c0,1.3,1,2.2,2.5,2.2
			C258.8,162.3,259.9,161.9,260.5,161.1z"/>
		<path class="st0" d="M272.3,163.2v-6.7c0-1.8-0.9-2.4-2.3-2.4c-1.3,0-2.4,0.8-3,1.6v7.5h-1.6V153h1.6v1.5c0.7-0.9,2.1-1.7,3.7-1.7
			c2.2,0,3.3,1.1,3.3,3.3v7.2H272.3z"/>
		<path class="st0" d="M276.8,165.8c0.2,0.1,0.6,0.2,0.9,0.2c0.7,0,1.2-0.2,1.5-1.1l0.7-1.6l-4.3-10.4h1.7l3.4,8.4l3.4-8.4h1.7
			l-5.2,12.4c-0.6,1.5-1.7,2.1-3,2.1c-0.3,0-0.9-0.1-1.2-0.1L276.8,165.8z"/>
	</g>
	<g class="st1">
		<path class="st0" d="M96.2,182.2v-10h1.2v10H96.2z"/>
		<path class="st0" d="M104.6,182.2v-4.7c0-1.3-0.6-1.7-1.6-1.7c-0.9,0-1.7,0.5-2.1,1.1v5.3h-1.1v-7.2h1.1v1.1
			c0.5-0.6,1.5-1.2,2.6-1.2c1.5,0,2.3,0.8,2.3,2.3v5.1H104.6z"/>
		<path class="st0" d="M108.2,180.7v-4.7H107v-1h1.2v-2h1.1v2h1.5v1h-1.5v4.5c0,0.5,0.2,0.9,0.7,0.9c0.3,0,0.6-0.1,0.8-0.3l0.3,0.8
			c-0.3,0.3-0.7,0.5-1.3,0.5C108.8,182.4,108.2,181.8,108.2,180.7z"/>
		<path class="st0" d="M112,178.6c0-2.1,1.5-3.8,3.6-3.8c2.2,0,3.5,1.7,3.5,3.9v0.3h-5.9c0.1,1.4,1,2.5,2.6,2.5
			c0.8,0,1.7-0.3,2.2-0.9l0.5,0.7c-0.7,0.7-1.7,1.1-2.9,1.1C113.5,182.4,112,180.8,112,178.6z M115.5,175.7c-1.5,0-2.3,1.3-2.4,2.4
			h4.8C117.9,177,117.2,175.7,115.5,175.7z"/>
		<path class="st0" d="M120.9,182.2v-7.2h1.1v1.2c0.6-0.8,1.4-1.3,2.4-1.3v1.2c-0.1,0-0.3,0-0.5,0c-0.7,0-1.6,0.6-2,1.2v5.1H120.9z"
			/>
		<path class="st0" d="M130.7,182.2v-4.7c0-1.3-0.6-1.7-1.6-1.7c-0.9,0-1.7,0.5-2.1,1.1v5.3h-1.1v-7.2h1.1v1.1
			c0.5-0.6,1.5-1.2,2.6-1.2c1.5,0,2.3,0.8,2.3,2.3v5.1H130.7z"/>
		<path class="st0" d="M138.6,182.2v-0.8c-0.6,0.7-1.4,1-2.4,1c-1.2,0-2.5-0.8-2.5-2.4c0-1.6,1.3-2.4,2.5-2.4c1,0,1.8,0.3,2.4,1
			v-1.3c0-1-0.8-1.5-1.8-1.5c-0.9,0-1.6,0.3-2.2,1L134,176c0.8-0.8,1.7-1.2,2.9-1.2c1.5,0,2.8,0.7,2.8,2.4v5H138.6z M138.6,180.7
			v-1.4c-0.4-0.6-1.2-0.9-2-0.9c-1,0-1.8,0.7-1.8,1.6c0,0.9,0.7,1.6,1.8,1.6C137.4,181.6,138.2,181.3,138.6,180.7z"/>
		<path class="st0" d="M142.2,180.7v-4.7H141v-1h1.2v-2h1.1v2h1.5v1h-1.5v4.5c0,0.5,0.2,0.9,0.7,0.9c0.3,0,0.6-0.1,0.8-0.3l0.3,0.8
			c-0.3,0.3-0.7,0.5-1.3,0.5C142.7,182.4,142.2,181.8,142.2,180.7z"/>
		<path class="st0" d="M146.2,173.2c0-0.4,0.3-0.8,0.7-0.8c0.4,0,0.8,0.3,0.8,0.8s-0.3,0.8-0.8,0.8
			C146.5,173.9,146.2,173.6,146.2,173.2z M146.4,182.2v-7.2h1.1v7.2H146.4z"/>
		<path class="st0" d="M149.3,178.6c0-2.1,1.4-3.8,3.6-3.8s3.6,1.7,3.6,3.8s-1.4,3.8-3.6,3.8S149.3,180.7,149.3,178.6z M155.3,178.6
			c0-1.5-0.9-2.8-2.4-2.8s-2.4,1.3-2.4,2.8c0,1.5,0.9,2.8,2.4,2.8S155.3,180,155.3,178.6z"/>
		<path class="st0" d="M163.2,182.2v-4.7c0-1.3-0.6-1.7-1.6-1.7c-0.9,0-1.7,0.5-2.1,1.1v5.3h-1.1v-7.2h1.1v1.1
			c0.5-0.6,1.5-1.2,2.6-1.2c1.5,0,2.3,0.8,2.3,2.3v5.1H163.2z"/>
		<path class="st0" d="M171.1,182.2v-0.8c-0.6,0.7-1.4,1-2.4,1c-1.2,0-2.5-0.8-2.5-2.4c0-1.6,1.3-2.4,2.5-2.4c1,0,1.8,0.3,2.4,1
			v-1.3c0-1-0.8-1.5-1.8-1.5c-0.9,0-1.6,0.3-2.2,1l-0.5-0.8c0.8-0.8,1.7-1.2,2.9-1.2c1.5,0,2.8,0.7,2.8,2.4v5H171.1z M171.1,180.7
			v-1.4c-0.4-0.6-1.2-0.9-2-0.9c-1,0-1.8,0.7-1.8,1.6c0,0.9,0.7,1.6,1.8,1.6C169.9,181.6,170.7,181.3,171.1,180.7z"/>
		<path class="st0" d="M174.5,182.2v-10h1.1v10H174.5z"/>
		<path class="st0" d="M181.7,184l0.6-0.8c0.6,0.7,1.3,1,2.4,1c1.2,0,2.3-0.6,2.3-2.2v-1c-0.5,0.7-1.4,1.3-2.4,1.3
			c-1.9,0-3.2-1.4-3.2-3.8c0-2.3,1.3-3.8,3.2-3.8c1,0,1.8,0.5,2.4,1.3v-1.1h1.1v7c0,2.4-1.7,3.1-3.4,3.1
			C183.4,185.1,182.6,184.9,181.7,184z M187,180.1v-3.2c-0.4-0.6-1.3-1.2-2.2-1.2c-1.5,0-2.3,1.2-2.3,2.8c0,1.6,0.9,2.8,2.3,2.8
			C185.7,181.3,186.6,180.7,187,180.1z"/>
		<path class="st0" d="M190.4,182.2v-7.2h1.1v1.2c0.6-0.8,1.4-1.3,2.4-1.3v1.2c-0.1,0-0.3,0-0.5,0c-0.7,0-1.6,0.6-2,1.2v5.1H190.4z"
			/>
		<path class="st0" d="M199.8,182.2v-0.8c-0.6,0.7-1.4,1-2.4,1c-1.2,0-2.5-0.8-2.5-2.4c0-1.6,1.3-2.4,2.5-2.4c1,0,1.8,0.3,2.4,1
			v-1.3c0-1-0.8-1.5-1.8-1.5c-0.9,0-1.6,0.3-2.2,1l-0.5-0.8c0.8-0.8,1.7-1.2,2.9-1.2c1.5,0,2.8,0.7,2.8,2.4v5H199.8z M199.8,180.7
			v-1.4c-0.4-0.6-1.2-0.9-2-0.9c-1,0-1.8,0.7-1.8,1.6c0,0.9,0.7,1.6,1.8,1.6C198.6,181.6,199.4,181.3,199.8,180.7z"/>
		<path class="st0" d="M208.5,182.2v-1.1c-0.5,0.7-1.4,1.3-2.4,1.3c-1.9,0-3.2-1.4-3.2-3.8c0-2.3,1.3-3.8,3.2-3.8
			c1,0,1.9,0.5,2.4,1.3v-3.9h1.1v10H208.5z M208.5,180.2v-3.3c-0.4-0.6-1.3-1.2-2.2-1.2c-1.5,0-2.3,1.2-2.3,2.8
			c0,1.6,0.9,2.8,2.3,2.8C207.2,181.4,208.1,180.9,208.5,180.2z"/>
		<path class="st0" d="M211.7,173.2c0-0.4,0.3-0.8,0.8-0.8c0.4,0,0.8,0.3,0.8,0.8s-0.3,0.8-0.8,0.8
			C212,173.9,211.7,173.6,211.7,173.2z M211.8,182.2v-7.2h1.1v7.2H211.8z"/>
		<path class="st0" d="M220.1,182.2v-4.7c0-1.3-0.6-1.7-1.6-1.7c-0.9,0-1.7,0.5-2.1,1.1v5.3h-1.1v-7.2h1.1v1.1
			c0.5-0.6,1.5-1.2,2.6-1.2c1.5,0,2.3,0.8,2.3,2.3v5.1H220.1z"/>
		<path class="st0" d="M223.5,184l0.6-0.8c0.6,0.7,1.3,1,2.4,1c1.2,0,2.3-0.6,2.3-2.2v-1c-0.5,0.7-1.4,1.3-2.4,1.3
			c-1.9,0-3.2-1.4-3.2-3.8c0-2.3,1.3-3.8,3.2-3.8c1,0,1.8,0.5,2.4,1.3v-1.1h1.1v7c0,2.4-1.7,3.1-3.4,3.1
			C225.2,185.1,224.3,184.9,223.5,184z M228.7,180.1v-3.2c-0.4-0.6-1.3-1.2-2.2-1.2c-1.5,0-2.3,1.2-2.3,2.8c0,1.6,0.9,2.8,2.3,2.8
			C227.5,181.3,228.3,180.7,228.7,180.1z"/>
	</g>
	<text transform="matrix(1 0 0 1 39.1738 256.9355)" class="st0" style="font-family:'ProximaNova-Regular'; font-size:21.3056px;">William &amp; Turner Company</text>
	<text transform="matrix(1 0 0 1 93.3945 275.8798)" class="st0" style="font-family:'ProximaNovaT-Thin'; font-size:16.0254px;">International grading</text>
</g>
</svg>
